<svg width="248" height="248" viewBox="0 0 248 248" fill="none" xmlns="http://www.w3.org/2000/svg">
<circle cx="57.1965" cy="4.93624" r="4" transform="rotate(15.7637 57.1965 4.93624)" fill="#FFFE06"/>
<circle cx="48.4865" cy="35.7914" r="4" transform="rotate(15.7637 48.4865 35.7914)" fill="#FFFE06"/>
<circle cx="39.7766" cy="66.6466" r="4" transform="rotate(15.7637 39.7766 66.6466)" fill="#FFFE06"/>
<circle cx="31.0666" cy="97.5016" r="4" transform="rotate(15.7637 31.0666 97.5016)" fill="#FFFE06"/>
<circle cx="22.3566" cy="128.357" r="4" transform="rotate(15.7637 22.3566 128.357)" fill="#FFFE06"/>
<circle cx="13.6467" cy="159.212" r="4" transform="rotate(15.7637 13.6467 159.212)" fill="#FFFE06"/>
<circle cx="4.93671" cy="190.067" r="4" transform="rotate(15.7637 4.93671 190.067)" fill="#FFFE06"/>
<circle cx="88.0519" cy="13.6461" r="4" transform="rotate(15.7637 88.0519 13.6461)" fill="#FFFE06"/>
<circle cx="79.342" cy="44.5015" r="4" transform="rotate(15.7637 79.342 44.5015)" fill="#FFFE06"/>
<circle cx="70.632" cy="75.3565" r="4" transform="rotate(15.7637 70.632 75.3565)" fill="#FFFE06"/>
<circle cx="61.9221" cy="106.212" r="4" transform="rotate(15.7637 61.9221 106.212)" fill="#FFFE06"/>
<circle cx="53.2121" cy="137.067" r="4" transform="rotate(15.7637 53.2121 137.067)" fill="#FFFE06"/>
<circle cx="44.5021" cy="167.922" r="4" transform="rotate(15.7637 44.5021 167.922)" fill="#FFFE06"/>
<circle cx="35.7922" cy="198.777" r="4" transform="rotate(15.7637 35.7922 198.777)" fill="#FFFE06"/>
<circle cx="118.907" cy="22.3562" r="4" transform="rotate(15.7637 118.907 22.3562)" fill="#FFFE06"/>
<circle cx="110.197" cy="53.2114" r="4" transform="rotate(15.7637 110.197 53.2114)" fill="#FFFE06"/>
<circle cx="101.487" cy="84.0666" r="4" transform="rotate(15.7637 101.487 84.0666)" fill="#FFFE06"/>
<circle cx="92.7775" cy="114.922" r="4" transform="rotate(15.7637 92.7775 114.922)" fill="#FFFE06"/>
<circle cx="84.0676" cy="145.777" r="4" transform="rotate(15.7637 84.0676 145.777)" fill="#FFFE06"/>
<circle cx="75.3566" cy="176.632" r="4" transform="rotate(15.7637 75.3566 176.632)" fill="#FFFE06"/>
<circle cx="66.6467" cy="207.487" r="4" transform="rotate(15.7637 66.6467 207.487)" fill="#FFFE06"/>
<circle cx="149.763" cy="31.0663" r="4" transform="rotate(15.7637 149.763 31.0663)" fill="#FFFE06"/>
<circle cx="141.052" cy="61.9214" r="4" transform="rotate(15.7637 141.052 61.9214)" fill="#FFFE06"/>
<circle cx="132.342" cy="92.7766" r="4" transform="rotate(15.7637 132.342 92.7766)" fill="#FFFE06"/>
<circle cx="123.632" cy="123.632" r="4" transform="rotate(15.7637 123.632 123.632)" fill="#FFFE06"/>
<circle cx="114.922" cy="154.487" r="4" transform="rotate(15.7637 114.922 154.487)" fill="#FFFE06"/>
<circle cx="106.212" cy="185.342" r="4" transform="rotate(15.7637 106.212 185.342)" fill="#FFFE06"/>
<circle cx="97.5021" cy="216.197" r="4" transform="rotate(15.7637 97.5021 216.197)" fill="#FFFE06"/>
<circle cx="180.617" cy="39.7764" r="4" transform="rotate(15.7637 180.617 39.7764)" fill="#FFFE06"/>
<circle cx="171.907" cy="70.6315" r="4" transform="rotate(15.7637 171.907 70.6315)" fill="#FFFE06"/>
<circle cx="163.197" cy="101.487" r="4" transform="rotate(15.7637 163.197 101.487)" fill="#FFFE06"/>
<circle cx="154.487" cy="132.342" r="4" transform="rotate(15.7637 154.487 132.342)" fill="#FFFE06"/>
<circle cx="145.778" cy="163.197" r="4" transform="rotate(15.7637 145.778 163.197)" fill="#FFFE06"/>
<circle cx="137.068" cy="194.052" r="4" transform="rotate(15.7637 137.068 194.052)" fill="#FFFE06"/>
<circle cx="128.358" cy="224.907" r="4" transform="rotate(15.7637 128.358 224.907)" fill="#FFFE06"/>
<circle cx="211.473" cy="48.4864" r="4" transform="rotate(15.7637 211.473 48.4864)" fill="#FFFE06"/>
<circle cx="202.763" cy="79.3416" r="4" transform="rotate(15.7637 202.763 79.3416)" fill="#FFFE06"/>
<circle cx="194.053" cy="110.197" r="4" transform="rotate(15.7637 194.053 110.197)" fill="#FFFE06"/>
<circle cx="185.343" cy="141.052" r="4" transform="rotate(15.7637 185.343 141.052)" fill="#FFFE06"/>
<circle cx="176.632" cy="171.907" r="4" transform="rotate(15.7637 176.632 171.907)" fill="#FFFE06"/>
<circle cx="167.922" cy="202.762" r="4" transform="rotate(15.7637 167.922 202.762)" fill="#FFFE06"/>
<circle cx="159.212" cy="233.617" r="4" transform="rotate(15.7637 159.212 233.617)" fill="#FFFE06"/>
<circle cx="242.328" cy="57.1963" r="4" transform="rotate(15.7637 242.328 57.1963)" fill="#FFFE06"/>
<circle cx="233.617" cy="88.0516" r="4" transform="rotate(15.7637 233.617 88.0516)" fill="#FFFE06"/>
<circle cx="224.907" cy="118.907" r="4" transform="rotate(15.7637 224.907 118.907)" fill="#FFFE06"/>
<circle cx="216.197" cy="149.762" r="4" transform="rotate(15.7637 216.197 149.762)" fill="#FFFE06"/>
<circle cx="207.487" cy="180.617" r="4" transform="rotate(15.7637 207.487 180.617)" fill="#FFFE06"/>
<circle cx="198.778" cy="211.472" r="4" transform="rotate(15.7637 198.778 211.472)" fill="#FFFE06"/>
<circle cx="190.068" cy="242.327" r="4" transform="rotate(15.7637 190.068 242.327)" fill="#FFFE06"/>
</svg>
