<svg width="24" height="24" viewBox="0 0 24 24" fill="none" xmlns="http://www.w3.org/2000/svg">
<g clip-path="url(#clip0)">
<path d="M17.7751 13.4971C16.8742 14.399 15.4671 15.8077 14.2888 16.9942C12.8882 16.0774 11.6222 15.0657 10.6042 14.0477C9.34696 12.7905 7.77482 11.0004 6.92521 9.73242C8.00388 8.66144 9.41453 7.25262 10.4496 6.21844L4.23118 0L1.12846 3.04688L1.12388 3.05145C0.255592 3.91974 -0.112083 5.10498 0.0311052 6.57422C0.489052 11.2723 6.23417 18.0775 11.3128 21.4858C14.2531 23.4591 18.4793 25.2858 20.9791 22.7858C22.794 20.9711 23.4878 20.2317 23.5166 20.2011L23.982 19.7042L17.7751 13.4971ZM19.9841 21.7908C18.0917 23.683 14.3388 21.8218 12.0968 20.3172C7.38407 17.1542 1.84495 10.6763 1.43168 6.43762C1.33134 5.40894 1.56187 4.6051 2.11668 4.04883L4.22221 1.9812L8.45872 6.2179C6.31016 8.36316 5.66288 9.00256 5.14817 9.51215L5.42118 9.98273C6.25028 11.4109 8.17326 13.6069 9.60917 15.0428C11.1842 16.6179 12.8011 17.7299 14.4917 18.7881L14.8877 18.3884C15.7568 17.5115 17.0196 16.2453 17.7757 15.488L22.018 19.7303C21.6251 20.1359 20.9687 20.8061 19.9841 21.7908Z" fill="#00ACE2"/>
</g>
<defs>
<clipPath id="clip0">
<rect width="24" height="24" fill="white"/>
</clipPath>
</defs>
</svg>
