<svg width="24" height="24" viewBox="0 0 24 24" fill="none" xmlns="http://www.w3.org/2000/svg">
<path d="M12.0001 11.5404C13.5509 11.5404 14.8125 10.2788 14.8125 8.72794C14.8125 7.17712 13.5509 5.91544 12.0001 5.91544C10.4492 5.91544 9.1875 7.17712 9.1875 8.72794C9.1875 10.2788 10.4492 11.5404 12.0001 11.5404ZM12.0001 7.32169C12.7755 7.32169 13.4062 7.95253 13.4062 8.72794C13.4062 9.50335 12.7755 10.1342 12.0001 10.1342C11.2246 10.1342 10.5938 9.50335 10.5938 8.72794C10.5938 7.95253 11.2246 7.32169 12.0001 7.32169Z" fill="#00ACE2"/>
<path d="M20.947 16.1719H16.2411C18.4385 14.0745 20.4379 12.0185 20.4379 8.4375C20.4379 3.61256 16.8149 0 12.0005 0C7.17627 0 3.56286 3.6233 3.56286 8.4375C3.56286 12.0185 5.56227 14.0745 7.75967 16.1719H3.05375L0.482422 24H23.5183L20.947 16.1719ZM4.96911 8.4375C4.96911 4.36331 7.92622 1.40625 12.0005 1.40625C16.0746 1.40625 19.0316 4.36331 19.0316 8.4375C19.0316 12.9955 15.1843 14.6099 12.0005 18.5355C11.0436 17.3558 10.0204 16.3821 9.0253 15.4353C6.75908 13.279 4.96911 11.5758 4.96911 8.4375ZM2.99422 20.8594H8.06286V19.4531H3.45612L4.07202 17.5781H9.18786V17.5465C11.0556 19.3987 11.561 20.327 12.0005 20.8806C12.4508 20.3133 12.9396 19.4043 14.8129 17.5466V17.5781H19.9287L20.5446 19.4531H15.9379V20.8594H21.0065L21.5762 22.5938H2.42455L2.99422 20.8594Z" fill="#00ACE2"/>
</svg>
