<svg width="541" height="392" viewBox="0 0 541 392" fill="none" xmlns="http://www.w3.org/2000/svg">
<g filter="url(#filter0_d)">
<circle cx="180" cy="176" r="173" fill="#73E4EC"/>
<circle cx="180" cy="176" r="172.5" stroke="#73E4EC" stroke-opacity="0.2"/>
</g>
<path d="M113.496 313.3C113.496 313.3 112.762 358.923 96.3019 363.267C96.3019 363.267 121.726 376.457 160.121 370.876L153.452 309.839L113.496 313.3Z" fill="#00309E"/>
<path d="M197.655 310.504C197.655 310.504 198.389 356.127 214.849 360.47C214.849 360.47 189.425 373.661 151.03 368.08L157.699 307.043L197.655 310.504Z" fill="#00309E"/>
<path d="M154.978 183.17L128.395 196.361C128.395 196.361 117.41 185.932 113.496 163.47C113.324 162.496 113.163 161.476 113.026 160.445C109.651 135.897 122.139 102.914 129.462 105.115C138.438 107.808 142.123 139.885 150.353 168.845C151.742 173.75 153.268 178.586 154.978 183.17Z" fill="#F8AF59"/>
<path d="M213.38 179.869C212.76 180.992 212.06 182.058 211.279 183.078C203.29 193.782 188.552 199.283 188.552 199.283L172.976 182.07C172.976 182.07 176.844 174.896 182.584 165.281C194.509 145.271 214.504 114.741 224.399 116.46C239.045 119.027 220.496 167.034 213.38 179.869Z" fill="#F8AF59"/>
<path d="M176.58 187.926C176.959 186.459 203.612 136.252 214.631 135.519C225.65 134.785 209.741 176.936 190.48 191.96C179.025 198.55 176.58 187.926 176.58 187.926Z" fill="#FEDFBA"/>
<path d="M148.011 182.792C148.011 182.792 136.579 124.884 129.221 125.617C121.875 126.351 122.369 178.025 135.833 188.281C149.297 198.538 148.011 182.792 148.011 182.792Z" fill="#FEDFBA"/>
<path opacity="0.2" d="M150.353 168.834C151.742 173.761 153.268 178.586 154.978 183.17L128.395 196.361C128.395 196.361 117.41 185.932 113.496 163.47C120.659 170.438 136.786 180.042 144.419 175.836C147.357 174.22 149.205 171.653 150.353 168.834Z" fill="#BF7B2A"/>
<path opacity="0.2" d="M211.279 183.078C203.29 193.782 188.552 199.283 188.552 199.283L172.976 182.07C172.976 182.07 176.844 174.896 182.584 165.281C182.962 171.435 184.822 180.511 192.237 182.987C198.446 185.061 205.815 184.259 211.279 183.078Z" fill="#BF7B2A"/>
<path d="M186.107 346.248C189.78 345.881 194.131 351.015 195.164 356.505C196.197 362.006 194.624 370.796 191.628 375.93C196.369 378.497 197.402 384.72 196.644 386.92C195.887 389.121 174.618 387.287 174.618 387.287C174.618 387.287 168.569 370.796 168.626 366.395C168.672 362.006 186.107 346.248 186.107 346.248Z" fill="#EC854C"/>
<path d="M127.58 346.248C123.919 345.881 119.454 351.015 118.283 356.505C117.112 362.006 118.478 370.796 121.359 375.93C116.561 378.497 115.379 384.72 116.09 386.92C116.802 389.121 138.106 387.287 138.106 387.287C138.106 387.287 144.533 370.796 144.591 366.395C144.648 362.006 127.58 346.248 127.58 346.248Z" fill="#EC854C"/>
<path d="M229.989 266.726C218.373 286.518 202.51 293.108 202.51 293.108C202.51 293.108 196.598 319.947 191.123 339.384C189.585 344.816 188.082 349.675 186.75 353.205C180.69 369.329 176.535 378.864 176.535 378.864C176.535 378.864 180.529 382.887 179.37 387.654C178.486 391.287 166.526 391.505 160.603 390.427C158.755 390.095 157.492 389.637 157.32 389.121C156.803 389.488 155.598 389.809 153.991 390.072C147.621 391.127 134.892 391.241 133.445 389.476C131.643 387.276 136.499 379.586 136.499 379.586C136.499 379.586 130.346 363.668 125.089 348.609C125.089 348.598 125.089 348.586 125.078 348.575C122.851 342.214 120.796 335.992 119.442 331.213C114.862 315.1 109.926 297.508 109.926 297.508C109.926 297.508 88.1064 282.484 82 271.127C97.9891 253.902 110.535 217.253 119.89 201.128C129.256 185.004 142.903 179.136 146.932 179.881C150.961 180.603 165.642 180.981 172.632 179.881C179.611 178.781 191.25 188.304 196.254 199.673C201.27 211.018 230.826 257.191 229.989 266.726Z" fill="#FEDFBA"/>
<path d="M229.989 266.726C218.373 286.518 202.51 293.108 202.51 293.108C202.51 293.108 196.598 319.947 191.123 339.384C193.063 328.073 195.037 312.04 195.565 291.274C211.497 278.439 219.004 264.148 219.004 264.148C219.004 264.148 210.453 242.156 201.385 232.266C191.801 236.3 175.398 226.409 159.248 225.665C143.098 224.943 130.886 233.366 114.678 239.233C113.094 248.757 98.1728 269.282 98.1728 269.282C98.1728 269.282 105.347 283.573 114.426 291.629C115 294.643 122.323 333.997 125.101 348.575C122.874 342.214 120.819 335.992 119.465 331.213C114.885 315.1 109.949 297.508 109.949 297.508C109.949 297.508 88.1064 282.484 82 271.127C97.9891 253.902 110.535 217.253 119.89 201.128C129.256 185.004 142.903 179.136 146.932 179.881C150.961 180.603 166.652 180.821 172.632 179.881C179.611 178.781 191.25 188.304 196.254 199.673C201.27 211.018 230.826 257.191 229.989 266.726Z" fill="#F8AF59"/>
<path opacity="0.2" d="M157.745 354.683C157.745 354.683 159.076 382.085 160.614 390.439C158.766 390.107 157.504 389.648 157.332 389.133C156.815 389.499 155.61 389.82 154.003 390.084C154.921 388.903 155.725 387.517 155.897 386.187C156.299 382.887 154.806 353.583 154.806 353.583C154.806 353.583 149.354 348.816 148.666 345.515C148.666 345.515 151.558 348.816 155.231 349.549C158.893 350.283 165.561 345.148 165.561 345.148L157.745 354.683Z" fill="#BF7B2A"/>
<path d="M138.082 235.337C137.761 240.035 148.952 247.427 157.354 247.427C165.756 247.427 174.939 238.362 174.721 233.549C174.503 228.736 163.794 226.398 155.942 226.81C148.08 227.234 138.415 230.397 138.082 235.337Z" fill="#453727"/>
<path d="M140.183 224.988C139.632 225.332 139.047 225.619 138.45 225.859C126.604 230.684 125.491 215.786 129.038 207.855C132.699 199.604 139.081 196.865 143.19 197.002C143.431 197.014 143.661 197.025 143.89 197.06C146.989 197.404 148.86 199.249 149.71 201.873C150.031 202.813 150.203 203.856 150.272 204.967C150.662 211.832 146.461 221.218 140.183 224.988Z" fill="white"/>
<path d="M140.183 224.988C135.397 223.315 132.596 216.76 133.824 209.574C134.972 202.882 139.23 197.805 143.902 197.048C147.001 197.392 148.872 199.237 149.721 201.862C150.043 202.801 150.215 203.844 150.284 204.956C150.663 211.832 146.462 221.218 140.183 224.988Z" fill="#453727"/>
<path d="M174.996 224.759C174.411 224.519 173.837 224.232 173.286 223.888C167.409 220.301 163.518 211.649 163.61 204.899C163.622 203.627 163.782 202.412 164.104 201.323C164.942 198.401 166.893 196.315 170.222 195.948C170.451 195.914 170.681 195.903 170.922 195.891C175.042 195.754 181.355 198.493 184.822 206.744C188.185 214.686 186.739 229.584 174.996 224.759Z" fill="white"/>
<path d="M173.286 223.888C167.409 220.301 163.518 211.649 163.61 204.899C163.622 203.627 163.782 202.412 164.104 201.323C164.942 198.401 166.893 196.315 170.222 195.948C174.882 196.693 179.014 201.77 180.012 208.474C181.068 215.671 178.107 222.215 173.286 223.888Z" fill="#453727"/>
<path opacity="0.2" d="M177.372 276.983C177.372 276.983 174.503 287.423 166.767 289.074C154.301 291.732 146.553 275.333 137.75 275.333C128.946 275.333 94.8212 273.683 82 271.127C88.1064 282.484 109.961 297.508 109.961 297.508C109.961 297.508 114.897 315.1 119.476 331.213C120.831 335.992 122.885 342.203 125.112 348.575C125.124 348.586 125.124 348.598 125.124 348.609C130.381 363.668 136.533 379.586 136.533 379.586C147.598 374.83 155.77 382.52 145.21 390.771C145.188 390.783 145.165 390.806 145.153 390.817C148.378 390.737 151.638 390.473 154.014 390.084C155.61 389.82 156.815 389.488 157.343 389.132C157.515 389.648 158.778 390.107 160.626 390.439C163.564 390.966 167.96 391.184 171.76 390.84C165.228 387.264 161.659 379.586 176.546 378.876C176.546 378.876 180.701 369.341 186.762 353.216C188.093 349.687 189.585 344.827 191.135 339.395C196.61 319.959 202.521 293.119 202.521 293.119C202.521 293.119 218.373 286.518 230 266.738C213.001 275.711 177.372 276.983 177.372 276.983ZM154.06 340.197C140.883 337.447 126.891 309.415 134.18 298.414C136.648 294.701 179.886 297.314 180.896 305.565C181.895 313.816 167.237 342.948 154.06 340.197Z" fill="#BF7B2A"/>
<path d="M186.256 239.233C186.256 239.233 179.255 255.335 174.95 267.735C174.663 268.56 174.388 269.362 174.135 270.141C173.32 272.571 172.666 274.783 172.23 276.616C172.23 276.639 172.219 276.674 172.207 276.697C172.196 276.777 172.173 276.846 172.15 276.937C169.98 285.716 165.63 288.604 160.545 284.169C159.202 283.011 157.825 281.349 156.425 279.172C153.612 274.783 151.225 271.597 149.056 269.099C145.968 265.534 143.316 263.38 140.481 261.214C135.936 257.73 130.461 249.158 129.221 244.173C129.026 243.37 129.738 243.542 129.692 242.889C135.018 258.647 149.974 266.337 164.712 261.214C175.731 257.375 182.078 244.459 184.695 239.451C185.579 237.778 186.256 239.233 186.256 239.233Z" fill="#AF3629"/>
<path d="M109.961 296.672C109.961 296.672 158.135 307.226 202.51 293.107C202.51 293.107 202.579 305.828 197.804 309.541C197.804 309.541 159.604 319.431 113.496 313.724C113.496 313.736 108.159 307.903 109.961 296.672Z" fill="#00309E"/>
<path opacity="0.4" d="M186.256 239.233C186.256 239.233 179.255 255.335 174.95 267.735C174.663 268.56 174.388 269.362 174.135 270.141C173.32 272.571 172.666 274.783 172.23 276.616C172.23 276.639 172.219 276.674 172.207 276.697C171.048 276.364 170.141 275.425 169.693 273.683C167.799 266.119 153.796 262.085 149.044 269.11C145.956 265.546 143.305 263.391 140.47 261.225C135.924 257.742 130.449 249.169 129.21 244.184C129.015 243.382 129.726 243.554 129.68 242.901C135.006 258.658 149.962 266.348 164.7 261.225C175.719 257.386 182.067 244.471 184.684 239.463C185.579 237.778 186.256 239.233 186.256 239.233Z" fill="#AF3629"/>
<path d="M172.15 276.937C171.748 279.229 171.495 282.002 171.484 285.36C171.472 287.916 171.725 291.801 171.966 296.075C172.483 305.14 172.999 315.982 171.082 319.729C168.27 325.23 157.136 323.431 155.242 320.955C153.337 318.48 152.304 312.165 155.495 299.651C156.689 294.941 158.364 289.348 160.545 284.168C161.119 282.793 161.739 281.452 162.393 280.169C165.642 273.705 169.808 268.56 174.939 267.734C174.652 268.56 174.376 269.362 174.124 270.141C173.447 271.608 172.678 273.808 172.15 276.937Z" fill="#EE754C"/>
<path opacity="0.4" d="M172.15 276.937C171.748 279.229 171.496 282.002 171.484 285.36C171.473 287.916 171.725 291.801 171.966 296.075C170.577 289.555 167.191 277.017 162.393 280.169C165.642 273.705 169.808 268.56 174.939 267.734C174.652 268.56 174.377 269.362 174.124 270.141C173.447 271.608 172.678 273.808 172.15 276.937Z" fill="#EE754C"/>
<path d="M183.066 237.262C181.952 239.692 187.955 242.625 189.08 241.113C190.194 239.6 183.628 236.024 183.066 237.262Z" fill="#AF3629"/>
<path d="M127.787 244.001C128.269 246.533 131.793 243.176 131.804 241.938C131.816 240.7 127.534 242.626 127.787 244.001Z" fill="#AF3629"/>
<path d="M143.764 231.36C139.047 233.984 168.511 233.927 170.003 231.726C171.507 229.526 155.966 224.575 143.764 231.36Z" fill="#453727"/>
<path d="M169.229 204.277C169.266 202.303 168.31 200.684 167.093 200.661C165.876 200.638 164.859 202.22 164.822 204.195C164.785 206.169 165.741 207.788 166.958 207.811C168.175 207.834 169.192 206.252 169.229 204.277Z" fill="white"/>
<path d="M149.4 204.417C149.377 206.388 148.367 207.992 147.15 207.992C145.934 207.992 144.97 206.388 144.992 204.417C145.015 202.446 146.026 200.841 147.231 200.841C148.459 200.841 149.423 202.446 149.4 204.417Z" fill="white"/>
<path d="M425.924 371.404C458.842 375.452 509.427 346.739 519.854 302" stroke="#FFFE06" stroke-width="3.44228" stroke-linecap="round" stroke-linejoin="round"/>
<ellipse cx="388.001" cy="247.513" rx="128.103" ry="112.133" transform="rotate(14.4266 388.001 247.513)" fill="#75B7F0"/>
<path d="M288.884 226.68C291.77 221.334 298.443 219.339 303.789 222.225L370.982 258.495C375.998 261.203 378.115 267.294 375.858 272.529L353.037 325.466C351.003 330.183 345.976 332.865 340.925 331.926L256.839 316.295C249.505 314.932 245.626 306.819 249.169 300.255L288.884 226.68Z" fill="#75B7F0"/>
<path d="M294.156 222.366C294.156 223.114 294.244 223.789 294.42 224.39C294.61 224.991 294.874 225.512 295.212 225.952C295.564 226.377 295.989 226.707 296.488 226.942C296.986 227.177 297.558 227.294 298.204 227.294C298.834 227.294 299.399 227.177 299.898 226.942C300.411 226.707 300.836 226.377 301.174 225.952C301.526 225.512 301.79 224.991 301.966 224.39C302.156 223.789 302.252 223.114 302.252 222.366C302.252 221.618 302.156 220.943 301.966 220.342C301.79 219.726 301.526 219.205 301.174 218.78C300.836 218.34 300.411 218.003 299.898 217.768C299.399 217.533 298.834 217.416 298.204 217.416C297.558 217.416 296.986 217.541 296.488 217.79C295.989 218.025 295.564 218.362 295.212 218.802C294.874 219.227 294.61 219.748 294.42 220.364C294.244 220.965 294.156 221.633 294.156 222.366ZM305.794 222.366C305.794 223.671 305.596 224.823 305.2 225.82C304.818 226.803 304.29 227.631 303.616 228.306C302.941 228.966 302.134 229.465 301.196 229.802C300.272 230.139 299.274 230.308 298.204 230.308C297.162 230.308 296.18 230.139 295.256 229.802C294.332 229.465 293.525 228.966 292.836 228.306C292.146 227.631 291.604 226.803 291.208 225.82C290.812 224.823 290.614 223.671 290.614 222.366C290.614 221.061 290.819 219.917 291.23 218.934C291.64 217.937 292.19 217.101 292.88 216.426C293.584 215.751 294.39 215.245 295.3 214.908C296.224 214.571 297.192 214.402 298.204 214.402C299.245 214.402 300.228 214.571 301.152 214.908C302.076 215.245 302.882 215.751 303.572 216.426C304.261 217.101 304.804 217.937 305.2 218.934C305.596 219.917 305.794 221.061 305.794 222.366ZM313.055 230.22C312.101 230.205 311.324 230.103 310.723 229.912C310.136 229.721 309.667 229.457 309.315 229.12C308.977 228.768 308.743 228.35 308.611 227.866C308.493 227.367 308.435 226.81 308.435 226.194V213.456L311.713 212.928V225.534C311.713 225.827 311.735 226.091 311.779 226.326C311.823 226.561 311.903 226.759 312.021 226.92C312.153 227.081 312.336 227.213 312.571 227.316C312.805 227.419 313.121 227.485 313.517 227.514L313.055 230.22ZM320.14 227.712C320.462 227.712 320.77 227.705 321.064 227.69C321.357 227.675 321.592 227.653 321.768 227.624V225.138C321.636 225.109 321.438 225.079 321.174 225.05C320.91 225.021 320.668 225.006 320.448 225.006C320.14 225.006 319.846 225.028 319.568 225.072C319.304 225.101 319.069 225.167 318.864 225.27C318.658 225.373 318.497 225.512 318.38 225.688C318.262 225.864 318.204 226.084 318.204 226.348C318.204 226.861 318.372 227.221 318.71 227.426C319.062 227.617 319.538 227.712 320.14 227.712ZM319.876 218.12C320.844 218.12 321.65 218.23 322.296 218.45C322.941 218.67 323.454 218.985 323.836 219.396C324.232 219.807 324.51 220.305 324.672 220.892C324.833 221.479 324.914 222.131 324.914 222.85V229.67C324.444 229.773 323.792 229.89 322.956 230.022C322.12 230.169 321.108 230.242 319.92 230.242C319.172 230.242 318.49 230.176 317.874 230.044C317.272 229.912 316.752 229.699 316.312 229.406C315.872 229.098 315.534 228.702 315.3 228.218C315.065 227.734 314.948 227.14 314.948 226.436C314.948 225.761 315.08 225.189 315.344 224.72C315.622 224.251 315.989 223.877 316.444 223.598C316.898 223.319 317.419 223.121 318.006 223.004C318.592 222.872 319.201 222.806 319.832 222.806C320.257 222.806 320.631 222.828 320.954 222.872C321.291 222.901 321.562 222.945 321.768 223.004V222.696C321.768 222.139 321.599 221.691 321.262 221.354C320.924 221.017 320.338 220.848 319.502 220.848C318.944 220.848 318.394 220.892 317.852 220.98C317.309 221.053 316.84 221.163 316.444 221.31L316.026 218.67C316.216 218.611 316.451 218.553 316.73 218.494C317.023 218.421 317.338 218.362 317.676 218.318C318.013 218.259 318.365 218.215 318.732 218.186C319.113 218.142 319.494 218.12 319.876 218.12ZM322.912 214.27L319.282 217.328L317.786 215.986L320.91 212.422L322.912 214.27ZM332.613 224.302C332.613 223.275 332.767 222.381 333.075 221.618C333.398 220.841 333.816 220.195 334.329 219.682C334.842 219.169 335.429 218.78 336.089 218.516C336.764 218.252 337.453 218.12 338.157 218.12C339.8 218.12 341.098 218.626 342.051 219.638C343.004 220.635 343.481 222.109 343.481 224.06C343.481 224.251 343.474 224.463 343.459 224.698C343.444 224.918 343.43 225.116 343.415 225.292H335.979C336.052 225.967 336.368 226.502 336.925 226.898C337.482 227.294 338.23 227.492 339.169 227.492C339.77 227.492 340.357 227.441 340.929 227.338C341.516 227.221 341.992 227.081 342.359 226.92L342.799 229.582C342.623 229.67 342.388 229.758 342.095 229.846C341.802 229.934 341.472 230.007 341.105 230.066C340.753 230.139 340.372 230.198 339.961 230.242C339.55 230.286 339.14 230.308 338.729 230.308C337.688 230.308 336.778 230.154 336.001 229.846C335.238 229.538 334.6 229.12 334.087 228.592C333.588 228.049 333.214 227.411 332.965 226.678C332.73 225.945 332.613 225.153 332.613 224.302ZM340.313 223.048C340.298 222.769 340.247 222.498 340.159 222.234C340.086 221.97 339.961 221.735 339.785 221.53C339.624 221.325 339.411 221.156 339.147 221.024C338.898 220.892 338.582 220.826 338.201 220.826C337.834 220.826 337.519 220.892 337.255 221.024C336.991 221.141 336.771 221.303 336.595 221.508C336.419 221.713 336.28 221.955 336.177 222.234C336.089 222.498 336.023 222.769 335.979 223.048H340.313ZM355.889 229.604C355.331 229.765 354.613 229.912 353.733 230.044C352.853 230.191 351.929 230.264 350.961 230.264C349.978 230.264 349.157 230.132 348.497 229.868C347.851 229.604 347.338 229.237 346.957 228.768C346.575 228.284 346.304 227.712 346.143 227.052C345.981 226.392 345.901 225.666 345.901 224.874V218.428H349.179V224.478C349.179 225.534 349.318 226.297 349.597 226.766C349.875 227.235 350.396 227.47 351.159 227.47C351.393 227.47 351.643 227.463 351.907 227.448C352.171 227.419 352.405 227.389 352.611 227.36V218.428H355.889V229.604ZM367.573 227.646C368.174 227.646 368.6 227.587 368.849 227.47C369.098 227.353 369.223 227.125 369.223 226.788C369.223 226.524 369.062 226.297 368.739 226.106C368.416 225.901 367.925 225.673 367.265 225.424C366.752 225.233 366.282 225.035 365.857 224.83C365.446 224.625 365.094 224.383 364.801 224.104C364.508 223.811 364.28 223.466 364.119 223.07C363.958 222.674 363.877 222.197 363.877 221.64C363.877 220.555 364.28 219.697 365.087 219.066C365.894 218.435 367.001 218.12 368.409 218.12C369.113 218.12 369.788 218.186 370.433 218.318C371.078 218.435 371.592 218.567 371.973 218.714L371.401 221.266C371.02 221.134 370.602 221.017 370.147 220.914C369.707 220.811 369.208 220.76 368.651 220.76C367.624 220.76 367.111 221.046 367.111 221.618C367.111 221.75 367.133 221.867 367.177 221.97C367.221 222.073 367.309 222.175 367.441 222.278C367.573 222.366 367.749 222.469 367.969 222.586C368.204 222.689 368.497 222.806 368.849 222.938C369.568 223.202 370.162 223.466 370.631 223.73C371.1 223.979 371.467 224.258 371.731 224.566C372.01 224.859 372.2 225.189 372.303 225.556C372.42 225.923 372.479 226.348 372.479 226.832C372.479 227.976 372.046 228.841 371.181 229.428C370.33 230.015 369.12 230.308 367.551 230.308C366.524 230.308 365.666 230.22 364.977 230.044C364.302 229.868 363.833 229.721 363.569 229.604L364.119 226.942C364.676 227.162 365.248 227.338 365.835 227.47C366.422 227.587 367.001 227.646 367.573 227.646ZM385.753 224.192C385.753 225.101 385.621 225.937 385.357 226.7C385.093 227.448 384.711 228.093 384.213 228.636C383.714 229.164 383.113 229.575 382.409 229.868C381.719 230.161 380.942 230.308 380.077 230.308C379.226 230.308 378.449 230.161 377.745 229.868C377.055 229.575 376.461 229.164 375.963 228.636C375.464 228.093 375.075 227.448 374.797 226.7C374.518 225.937 374.379 225.101 374.379 224.192C374.379 223.283 374.518 222.454 374.797 221.706C375.09 220.958 375.486 220.32 375.985 219.792C376.498 219.264 377.099 218.853 377.789 218.56C378.493 218.267 379.255 218.12 380.077 218.12C380.913 218.12 381.675 218.267 382.365 218.56C383.069 218.853 383.67 219.264 384.169 219.792C384.667 220.32 385.056 220.958 385.335 221.706C385.613 222.454 385.753 223.283 385.753 224.192ZM382.409 224.192C382.409 223.18 382.203 222.388 381.793 221.816C381.397 221.229 380.825 220.936 380.077 220.936C379.329 220.936 378.749 221.229 378.339 221.816C377.928 222.388 377.723 223.18 377.723 224.192C377.723 225.204 377.928 226.011 378.339 226.612C378.749 227.199 379.329 227.492 380.077 227.492C380.825 227.492 381.397 227.199 381.793 226.612C382.203 226.011 382.409 225.204 382.409 224.192ZM398.17 229.604C397.613 229.765 396.894 229.912 396.014 230.044C395.134 230.191 394.21 230.264 393.242 230.264C392.259 230.264 391.438 230.132 390.778 229.868C390.133 229.604 389.619 229.237 389.238 228.768C388.857 228.284 388.585 227.712 388.424 227.052C388.263 226.392 388.182 225.666 388.182 224.874V218.428H391.46V224.478C391.46 225.534 391.599 226.297 391.878 226.766C392.157 227.235 392.677 227.47 393.44 227.47C393.675 227.47 393.924 227.463 394.188 227.448C394.452 227.419 394.687 227.389 394.892 227.36V218.428H398.17V229.604ZM417.356 224.192C417.356 225.101 417.224 225.937 416.96 226.7C416.696 227.448 416.315 228.093 415.816 228.636C415.318 229.164 414.716 229.575 414.012 229.868C413.323 230.161 412.546 230.308 411.68 230.308C410.83 230.308 410.052 230.161 409.348 229.868C408.659 229.575 408.065 229.164 407.566 228.636C407.068 228.093 406.679 227.448 406.4 226.7C406.122 225.937 405.982 225.101 405.982 224.192C405.982 223.283 406.122 222.454 406.4 221.706C406.694 220.958 407.09 220.32 407.588 219.792C408.102 219.264 408.703 218.853 409.392 218.56C410.096 218.267 410.859 218.12 411.68 218.12C412.516 218.12 413.279 218.267 413.968 218.56C414.672 218.853 415.274 219.264 415.772 219.792C416.271 220.32 416.66 220.958 416.938 221.706C417.217 222.454 417.356 223.283 417.356 224.192ZM414.012 224.192C414.012 223.18 413.807 222.388 413.396 221.816C413 221.229 412.428 220.936 411.68 220.936C410.932 220.936 410.353 221.229 409.942 221.816C409.532 222.388 409.326 223.18 409.326 224.192C409.326 225.204 409.532 226.011 409.942 226.612C410.353 227.199 410.932 227.492 411.68 227.492C412.428 227.492 413 227.199 413.396 226.612C413.807 226.011 414.012 225.204 414.012 224.192ZM481.714 226.656C481.744 227.008 481.758 227.257 481.758 227.404C481.773 227.551 481.78 227.675 481.78 227.778C481.78 228.218 481.736 228.687 481.648 229.186C481.575 229.67 481.465 230.161 481.318 230.66C481.172 231.159 480.988 231.657 480.768 232.156C480.548 232.655 480.299 233.131 480.02 233.586L477.446 232.948C477.784 231.98 478.018 231.071 478.15 230.22C478.282 229.369 478.348 228.665 478.348 228.108C478.348 228.02 478.341 227.91 478.326 227.778C478.326 227.631 478.319 227.485 478.304 227.338C478.304 227.191 478.297 227.052 478.282 226.92C478.282 226.788 478.282 226.7 478.282 226.656H481.714ZM294.483 256.646C295.084 256.646 295.51 256.587 295.759 256.47C296.008 256.353 296.133 256.125 296.133 255.788C296.133 255.524 295.972 255.297 295.649 255.106C295.326 254.901 294.835 254.673 294.175 254.424C293.662 254.233 293.192 254.035 292.767 253.83C292.356 253.625 292.004 253.383 291.711 253.104C291.418 252.811 291.19 252.466 291.029 252.07C290.868 251.674 290.787 251.197 290.787 250.64C290.787 249.555 291.19 248.697 291.997 248.066C292.804 247.435 293.911 247.12 295.319 247.12C296.023 247.12 296.698 247.186 297.343 247.318C297.988 247.435 298.502 247.567 298.883 247.714L298.311 250.266C297.93 250.134 297.512 250.017 297.057 249.914C296.617 249.811 296.118 249.76 295.561 249.76C294.534 249.76 294.021 250.046 294.021 250.618C294.021 250.75 294.043 250.867 294.087 250.97C294.131 251.073 294.219 251.175 294.351 251.278C294.483 251.366 294.659 251.469 294.879 251.586C295.114 251.689 295.407 251.806 295.759 251.938C296.478 252.202 297.072 252.466 297.541 252.73C298.01 252.979 298.377 253.258 298.641 253.566C298.92 253.859 299.11 254.189 299.213 254.556C299.33 254.923 299.389 255.348 299.389 255.832C299.389 256.976 298.956 257.841 298.091 258.428C297.24 259.015 296.03 259.308 294.461 259.308C293.434 259.308 292.576 259.22 291.887 259.044C291.212 258.868 290.743 258.721 290.479 258.604L291.029 255.942C291.586 256.162 292.158 256.338 292.745 256.47C293.332 256.587 293.911 256.646 294.483 256.646ZM301.289 253.302C301.289 252.275 301.443 251.381 301.751 250.618C302.073 249.841 302.491 249.195 303.005 248.682C303.518 248.169 304.105 247.78 304.765 247.516C305.439 247.252 306.129 247.12 306.833 247.12C308.475 247.12 309.773 247.626 310.727 248.638C311.68 249.635 312.157 251.109 312.157 253.06C312.157 253.251 312.149 253.463 312.135 253.698C312.12 253.918 312.105 254.116 312.091 254.292H304.655C304.728 254.967 305.043 255.502 305.601 255.898C306.158 256.294 306.906 256.492 307.845 256.492C308.446 256.492 309.033 256.441 309.605 256.338C310.191 256.221 310.668 256.081 311.035 255.92L311.475 258.582C311.299 258.67 311.064 258.758 310.771 258.846C310.477 258.934 310.147 259.007 309.781 259.066C309.429 259.139 309.047 259.198 308.637 259.242C308.226 259.286 307.815 259.308 307.405 259.308C306.363 259.308 305.454 259.154 304.677 258.846C303.914 258.538 303.276 258.12 302.763 257.592C302.264 257.049 301.89 256.411 301.641 255.678C301.406 254.945 301.289 254.153 301.289 253.302ZM308.989 252.048C308.974 251.769 308.923 251.498 308.835 251.234C308.761 250.97 308.637 250.735 308.461 250.53C308.299 250.325 308.087 250.156 307.823 250.024C307.573 249.892 307.258 249.826 306.877 249.826C306.51 249.826 306.195 249.892 305.931 250.024C305.667 250.141 305.447 250.303 305.271 250.508C305.095 250.713 304.955 250.955 304.853 251.234C304.765 251.498 304.699 251.769 304.655 252.048H308.989ZM319.306 259.22C318.353 259.205 317.576 259.103 316.974 258.912C316.388 258.721 315.918 258.457 315.566 258.12C315.229 257.768 314.994 257.35 314.862 256.866C314.745 256.367 314.686 255.81 314.686 255.194V242.456L317.964 241.928V254.534C317.964 254.827 317.986 255.091 318.03 255.326C318.074 255.561 318.155 255.759 318.272 255.92C318.404 256.081 318.588 256.213 318.822 256.316C319.057 256.419 319.372 256.485 319.768 256.514L319.306 259.22ZM321.097 253.302C321.097 252.275 321.251 251.381 321.559 250.618C321.882 249.841 322.3 249.195 322.813 248.682C323.327 248.169 323.913 247.78 324.573 247.516C325.248 247.252 325.937 247.12 326.641 247.12C328.284 247.12 329.582 247.626 330.535 248.638C331.489 249.635 331.965 251.109 331.965 253.06C331.965 253.251 331.958 253.463 331.943 253.698C331.929 253.918 331.914 254.116 331.899 254.292H324.463C324.537 254.967 324.852 255.502 325.409 255.898C325.967 256.294 326.715 256.492 327.653 256.492C328.255 256.492 328.841 256.441 329.413 256.338C330 256.221 330.477 256.081 330.843 255.92L331.283 258.582C331.107 258.67 330.873 258.758 330.579 258.846C330.286 258.934 329.956 259.007 329.589 259.066C329.237 259.139 328.856 259.198 328.445 259.242C328.035 259.286 327.624 259.308 327.213 259.308C326.172 259.308 325.263 259.154 324.485 258.846C323.723 258.538 323.085 258.12 322.571 257.592C322.073 257.049 321.699 256.411 321.449 255.678C321.215 254.945 321.097 254.153 321.097 253.302ZM328.797 252.048C328.783 251.769 328.731 251.498 328.643 251.234C328.57 250.97 328.445 250.735 328.269 250.53C328.108 250.325 327.895 250.156 327.631 250.024C327.382 249.892 327.067 249.826 326.685 249.826C326.319 249.826 326.003 249.892 325.739 250.024C325.475 250.141 325.255 250.303 325.079 250.508C324.903 250.713 324.764 250.955 324.661 251.234C324.573 251.498 324.507 251.769 324.463 252.048H328.797ZM333.945 253.214C333.945 252.378 334.077 251.593 334.341 250.86C334.62 250.112 335.016 249.467 335.529 248.924C336.042 248.367 336.666 247.927 337.399 247.604C338.132 247.281 338.968 247.12 339.907 247.12C340.523 247.12 341.088 247.179 341.601 247.296C342.114 247.399 342.613 247.553 343.097 247.758L342.415 250.376C342.107 250.259 341.77 250.156 341.403 250.068C341.036 249.98 340.626 249.936 340.171 249.936C339.203 249.936 338.477 250.237 337.993 250.838C337.524 251.439 337.289 252.231 337.289 253.214C337.289 254.255 337.509 255.062 337.949 255.634C338.404 256.206 339.188 256.492 340.303 256.492C340.699 256.492 341.124 256.455 341.579 256.382C342.034 256.309 342.452 256.191 342.833 256.03L343.295 258.714C342.914 258.875 342.437 259.015 341.865 259.132C341.293 259.249 340.662 259.308 339.973 259.308C338.917 259.308 338.008 259.154 337.245 258.846C336.482 258.523 335.852 258.091 335.353 257.548C334.869 257.005 334.51 256.367 334.275 255.634C334.055 254.886 333.945 254.079 333.945 253.214ZM348.773 259H345.495V247.428H348.773V259ZM349.081 244.084C349.081 244.685 348.883 245.162 348.487 245.514C348.106 245.851 347.651 246.02 347.123 246.02C346.595 246.02 346.133 245.851 345.737 245.514C345.356 245.162 345.165 244.685 345.165 244.084C345.165 243.483 345.356 243.013 345.737 242.676C346.133 242.324 346.595 242.148 347.123 242.148C347.651 242.148 348.106 242.324 348.487 242.676C348.883 243.013 349.081 243.483 349.081 244.084ZM362.678 253.192C362.678 254.101 362.546 254.937 362.282 255.7C362.018 256.448 361.637 257.093 361.138 257.636C360.64 258.164 360.038 258.575 359.334 258.868C358.645 259.161 357.868 259.308 357.002 259.308C356.152 259.308 355.374 259.161 354.67 258.868C353.981 258.575 353.387 258.164 352.888 257.636C352.39 257.093 352.001 256.448 351.722 255.7C351.444 254.937 351.304 254.101 351.304 253.192C351.304 252.283 351.444 251.454 351.722 250.706C352.016 249.958 352.412 249.32 352.91 248.792C353.424 248.264 354.025 247.853 354.714 247.56C355.418 247.267 356.181 247.12 357.002 247.12C357.838 247.12 358.601 247.267 359.29 247.56C359.994 247.853 360.596 248.264 361.094 248.792C361.593 249.32 361.982 249.958 362.26 250.706C362.539 251.454 362.678 252.283 362.678 253.192ZM359.334 253.192C359.334 252.18 359.129 251.388 358.718 250.816C358.322 250.229 357.75 249.936 357.002 249.936C356.254 249.936 355.675 250.229 355.264 250.816C354.854 251.388 354.648 252.18 354.648 253.192C354.648 254.204 354.854 255.011 355.264 255.612C355.675 256.199 356.254 256.492 357.002 256.492C357.75 256.492 358.322 256.199 358.718 255.612C359.129 255.011 359.334 254.204 359.334 253.192ZM365.218 247.824C365.775 247.663 366.494 247.516 367.374 247.384C368.254 247.237 369.178 247.164 370.146 247.164C371.128 247.164 371.942 247.296 372.588 247.56C373.248 247.809 373.768 248.169 374.15 248.638C374.531 249.107 374.802 249.665 374.964 250.31C375.125 250.955 375.206 251.674 375.206 252.466V259H371.928V252.862C371.928 251.806 371.788 251.058 371.51 250.618C371.231 250.178 370.71 249.958 369.948 249.958C369.713 249.958 369.464 249.973 369.2 250.002C368.936 250.017 368.701 250.039 368.496 250.068V259H365.218V247.824ZM377.623 253.302C377.623 252.275 377.777 251.381 378.085 250.618C378.407 249.841 378.825 249.195 379.339 248.682C379.852 248.169 380.439 247.78 381.099 247.516C381.773 247.252 382.463 247.12 383.167 247.12C384.809 247.12 386.107 247.626 387.061 248.638C388.014 249.635 388.491 251.109 388.491 253.06C388.491 253.251 388.483 253.463 388.469 253.698C388.454 253.918 388.439 254.116 388.425 254.292H380.989C381.062 254.967 381.377 255.502 381.935 255.898C382.492 256.294 383.24 256.492 384.179 256.492C384.78 256.492 385.367 256.441 385.939 256.338C386.525 256.221 387.002 256.081 387.369 255.92L387.809 258.582C387.633 258.67 387.398 258.758 387.105 258.846C386.811 258.934 386.481 259.007 386.115 259.066C385.763 259.139 385.381 259.198 384.971 259.242C384.56 259.286 384.149 259.308 383.739 259.308C382.697 259.308 381.788 259.154 381.011 258.846C380.248 258.538 379.61 258.12 379.097 257.592C378.598 257.049 378.224 256.411 377.975 255.678C377.74 254.945 377.623 254.153 377.623 253.302ZM385.323 252.048C385.308 251.769 385.257 251.498 385.169 251.234C385.095 250.97 384.971 250.735 384.795 250.53C384.633 250.325 384.421 250.156 384.157 250.024C383.907 249.892 383.592 249.826 383.211 249.826C382.844 249.826 382.529 249.892 382.265 250.024C382.001 250.141 381.781 250.303 381.605 250.508C381.429 250.713 381.289 250.955 381.187 251.234C381.099 251.498 381.033 251.769 380.989 252.048H385.323ZM400.728 256.712C401.05 256.712 401.358 256.705 401.652 256.69C401.945 256.675 402.18 256.653 402.356 256.624V254.138C402.224 254.109 402.026 254.079 401.762 254.05C401.498 254.021 401.256 254.006 401.036 254.006C400.728 254.006 400.434 254.028 400.156 254.072C399.892 254.101 399.657 254.167 399.452 254.27C399.246 254.373 399.085 254.512 398.968 254.688C398.85 254.864 398.792 255.084 398.792 255.348C398.792 255.861 398.96 256.221 399.298 256.426C399.65 256.617 400.126 256.712 400.728 256.712ZM400.464 247.12C401.432 247.12 402.238 247.23 402.884 247.45C403.529 247.67 404.042 247.985 404.424 248.396C404.82 248.807 405.098 249.305 405.26 249.892C405.421 250.479 405.502 251.131 405.502 251.85V258.67C405.032 258.773 404.38 258.89 403.544 259.022C402.708 259.169 401.696 259.242 400.508 259.242C399.76 259.242 399.078 259.176 398.462 259.044C397.86 258.912 397.34 258.699 396.9 258.406C396.46 258.098 396.122 257.702 395.888 257.218C395.653 256.734 395.536 256.14 395.536 255.436C395.536 254.761 395.668 254.189 395.932 253.72C396.21 253.251 396.577 252.877 397.032 252.598C397.486 252.319 398.007 252.121 398.594 252.004C399.18 251.872 399.789 251.806 400.42 251.806C400.845 251.806 401.219 251.828 401.542 251.872C401.879 251.901 402.15 251.945 402.356 252.004V251.696C402.356 251.139 402.187 250.691 401.85 250.354C401.512 250.017 400.926 249.848 400.09 249.848C399.532 249.848 398.982 249.892 398.44 249.98C397.897 250.053 397.428 250.163 397.032 250.31L396.614 247.67C396.804 247.611 397.039 247.553 397.318 247.494C397.611 247.421 397.926 247.362 398.264 247.318C398.601 247.259 398.953 247.215 399.32 247.186C399.701 247.142 400.082 247.12 400.464 247.12ZM415.88 253.126C415.88 251.014 415.102 249.958 413.548 249.958C413.21 249.958 412.873 250.002 412.536 250.09C412.213 250.178 411.949 250.288 411.744 250.42V256.382C411.905 256.411 412.11 256.441 412.36 256.47C412.609 256.485 412.88 256.492 413.174 256.492C414.068 256.492 414.743 256.184 415.198 255.568C415.652 254.952 415.88 254.138 415.88 253.126ZM419.224 253.214C419.224 254.138 419.084 254.974 418.806 255.722C418.542 256.47 418.153 257.108 417.64 257.636C417.126 258.164 416.496 258.575 415.748 258.868C415 259.147 414.149 259.286 413.196 259.286C412.8 259.286 412.382 259.264 411.942 259.22C411.516 259.191 411.091 259.147 410.666 259.088C410.255 259.029 409.859 258.963 409.478 258.89C409.096 258.802 408.759 258.714 408.466 258.626V242.456L411.744 241.928V247.692C412.11 247.531 412.492 247.406 412.888 247.318C413.284 247.23 413.709 247.186 414.164 247.186C414.985 247.186 415.711 247.333 416.342 247.626C416.972 247.905 417.5 248.308 417.926 248.836C418.351 249.364 418.674 250.002 418.894 250.75C419.114 251.483 419.224 252.305 419.224 253.214ZM426.165 256.712C426.488 256.712 426.796 256.705 427.089 256.69C427.382 256.675 427.617 256.653 427.793 256.624V254.138C427.661 254.109 427.463 254.079 427.199 254.05C426.935 254.021 426.693 254.006 426.473 254.006C426.165 254.006 425.872 254.028 425.593 254.072C425.329 254.101 425.094 254.167 424.889 254.27C424.684 254.373 424.522 254.512 424.405 254.688C424.288 254.864 424.229 255.084 424.229 255.348C424.229 255.861 424.398 256.221 424.735 256.426C425.087 256.617 425.564 256.712 426.165 256.712ZM425.901 247.12C426.869 247.12 427.676 247.23 428.321 247.45C428.966 247.67 429.48 247.985 429.861 248.396C430.257 248.807 430.536 249.305 430.697 249.892C430.858 250.479 430.939 251.131 430.939 251.85V258.67C430.47 258.773 429.817 258.89 428.981 259.022C428.145 259.169 427.133 259.242 425.945 259.242C425.197 259.242 424.515 259.176 423.899 259.044C423.298 258.912 422.777 258.699 422.337 258.406C421.897 258.098 421.56 257.702 421.325 257.218C421.09 256.734 420.973 256.14 420.973 255.436C420.973 254.761 421.105 254.189 421.369 253.72C421.648 253.251 422.014 252.877 422.469 252.598C422.924 252.319 423.444 252.121 424.031 252.004C424.618 251.872 425.226 251.806 425.857 251.806C426.282 251.806 426.656 251.828 426.979 251.872C427.316 251.901 427.588 251.945 427.793 252.004V251.696C427.793 251.139 427.624 250.691 427.287 250.354C426.95 250.017 426.363 249.848 425.527 249.848C424.97 249.848 424.42 249.892 423.877 249.98C423.334 250.053 422.865 250.163 422.469 250.31L422.051 247.67C422.242 247.611 422.476 247.553 422.755 247.494C423.048 247.421 423.364 247.362 423.701 247.318C424.038 247.259 424.39 247.215 424.757 247.186C425.138 247.142 425.52 247.12 425.901 247.12ZM437.181 259H433.903V247.428H437.181V259ZM437.489 244.084C437.489 244.685 437.291 245.162 436.895 245.514C436.514 245.851 436.059 246.02 435.531 246.02C435.003 246.02 434.541 245.851 434.145 245.514C433.764 245.162 433.573 244.685 433.573 244.084C433.573 243.483 433.764 243.013 434.145 242.676C434.541 242.324 435.003 242.148 435.531 242.148C436.059 242.148 436.514 242.324 436.895 242.676C437.291 243.013 437.489 243.483 437.489 244.084ZM444.861 250.948L447.149 247.428H450.537L446.577 252.994C447.457 254.094 448.256 255.165 448.975 256.206C449.693 257.247 450.265 258.179 450.691 259H447.171C447.053 258.78 446.907 258.509 446.731 258.186C446.555 257.849 446.357 257.504 446.137 257.152C445.917 256.785 445.682 256.426 445.433 256.074C445.198 255.707 444.963 255.377 444.729 255.084C444.509 255.363 444.281 255.671 444.047 256.008C443.827 256.345 443.614 256.69 443.409 257.042C443.203 257.379 442.998 257.717 442.793 258.054C442.602 258.391 442.433 258.707 442.287 259H438.943C439.119 258.633 439.361 258.201 439.669 257.702C439.977 257.203 440.307 256.69 440.659 256.162C441.025 255.619 441.407 255.084 441.803 254.556C442.199 254.013 442.587 253.507 442.969 253.038C442.309 252.114 441.649 251.183 440.989 250.244C440.329 249.291 439.676 248.352 439.031 247.428H442.573L444.861 250.948ZM462.731 253.192C462.731 254.101 462.599 254.937 462.335 255.7C462.071 256.448 461.69 257.093 461.191 257.636C460.693 258.164 460.091 258.575 459.387 258.868C458.698 259.161 457.921 259.308 457.055 259.308C456.205 259.308 455.427 259.161 454.723 258.868C454.034 258.575 453.44 258.164 452.941 257.636C452.443 257.093 452.054 256.448 451.775 255.7C451.497 254.937 451.357 254.101 451.357 253.192C451.357 252.283 451.497 251.454 451.775 250.706C452.069 249.958 452.465 249.32 452.963 248.792C453.477 248.264 454.078 247.853 454.767 247.56C455.471 247.267 456.234 247.12 457.055 247.12C457.891 247.12 458.654 247.267 459.343 247.56C460.047 247.853 460.649 248.264 461.147 248.792C461.646 249.32 462.035 249.958 462.313 250.706C462.592 251.454 462.731 252.283 462.731 253.192ZM459.387 253.192C459.387 252.18 459.182 251.388 458.771 250.816C458.375 250.229 457.803 249.936 457.055 249.936C456.307 249.936 455.728 250.229 455.317 250.816C454.907 251.388 454.701 252.18 454.701 253.192C454.701 254.204 454.907 255.011 455.317 255.612C455.728 256.199 456.307 256.492 457.055 256.492C457.803 256.492 458.375 256.199 458.771 255.612C459.182 255.011 459.387 254.204 459.387 253.192ZM481.38 253.192C481.38 254.101 481.248 254.937 480.984 255.7C480.72 256.448 480.338 257.093 479.84 257.636C479.341 258.164 478.74 258.575 478.036 258.868C477.346 259.161 476.569 259.308 475.704 259.308C474.853 259.308 474.076 259.161 473.372 258.868C472.682 258.575 472.088 258.164 471.59 257.636C471.091 257.093 470.702 256.448 470.424 255.7C470.145 254.937 470.006 254.101 470.006 253.192C470.006 252.283 470.145 251.454 470.424 250.706C470.717 249.958 471.113 249.32 471.612 248.792C472.125 248.264 472.726 247.853 473.416 247.56C474.12 247.267 474.882 247.12 475.704 247.12C476.54 247.12 477.302 247.267 477.992 247.56C478.696 247.853 479.297 248.264 479.796 248.792C480.294 249.32 480.683 249.958 480.962 250.706C481.24 251.454 481.38 252.283 481.38 253.192ZM478.036 253.192C478.036 252.18 477.83 251.388 477.42 250.816C477.024 250.229 476.452 249.936 475.704 249.936C474.956 249.936 474.376 250.229 473.966 250.816C473.555 251.388 473.35 252.18 473.35 253.192C473.35 254.204 473.555 255.011 473.966 255.612C474.376 256.199 474.956 256.492 475.704 256.492C476.452 256.492 477.024 256.199 477.42 255.612C477.83 255.011 478.036 254.204 478.036 253.192ZM300.98 282.302C300.98 284.399 301.758 285.448 303.312 285.448C303.65 285.448 303.98 285.404 304.302 285.316C304.64 285.228 304.911 285.118 305.116 284.986V279.068C304.955 279.039 304.75 279.017 304.5 279.002C304.251 278.973 303.98 278.958 303.686 278.958C302.792 278.958 302.117 279.266 301.662 279.882C301.208 280.483 300.98 281.29 300.98 282.302ZM297.636 282.214C297.636 281.319 297.768 280.505 298.032 279.772C298.311 279.024 298.707 278.386 299.22 277.858C299.734 277.315 300.364 276.897 301.112 276.604C301.86 276.311 302.711 276.164 303.664 276.164C304.06 276.164 304.471 276.186 304.896 276.23C305.336 276.259 305.762 276.303 306.172 276.362C306.598 276.421 307.001 276.494 307.382 276.582C307.764 276.655 308.101 276.736 308.394 276.824V292.07H305.116V287.714C304.75 287.875 304.368 288 303.972 288.088C303.576 288.176 303.151 288.22 302.696 288.22C301.054 288.22 299.8 287.685 298.934 286.614C298.069 285.529 297.636 284.062 297.636 282.214ZM321.342 287.604C320.784 287.765 320.066 287.912 319.186 288.044C318.306 288.191 317.382 288.264 316.414 288.264C315.431 288.264 314.61 288.132 313.95 287.868C313.304 287.604 312.791 287.237 312.41 286.768C312.028 286.284 311.757 285.712 311.596 285.052C311.434 284.392 311.354 283.666 311.354 282.874V276.428H314.632V282.478C314.632 283.534 314.771 284.297 315.05 284.766C315.328 285.235 315.849 285.47 316.612 285.47C316.846 285.47 317.096 285.463 317.36 285.448C317.624 285.419 317.858 285.389 318.064 285.36V276.428H321.342V287.604ZM323.869 282.302C323.869 281.275 324.023 280.381 324.331 279.618C324.654 278.841 325.072 278.195 325.585 277.682C326.098 277.169 326.685 276.78 327.345 276.516C328.02 276.252 328.709 276.12 329.413 276.12C331.056 276.12 332.354 276.626 333.307 277.638C334.26 278.635 334.737 280.109 334.737 282.06C334.737 282.251 334.73 282.463 334.715 282.698C334.7 282.918 334.686 283.116 334.671 283.292H327.235C327.308 283.967 327.624 284.502 328.181 284.898C328.738 285.294 329.486 285.492 330.425 285.492C331.026 285.492 331.613 285.441 332.185 285.338C332.772 285.221 333.248 285.081 333.615 284.92L334.055 287.582C333.879 287.67 333.644 287.758 333.351 287.846C333.058 287.934 332.728 288.007 332.361 288.066C332.009 288.139 331.628 288.198 331.217 288.242C330.806 288.286 330.396 288.308 329.985 288.308C328.944 288.308 328.034 288.154 327.257 287.846C326.494 287.538 325.856 287.12 325.343 286.592C324.844 286.049 324.47 285.411 324.221 284.678C323.986 283.945 323.869 283.153 323.869 282.302ZM331.569 281.048C331.554 280.769 331.503 280.498 331.415 280.234C331.342 279.97 331.217 279.735 331.041 279.53C330.88 279.325 330.667 279.156 330.403 279.024C330.154 278.892 329.838 278.826 329.457 278.826C329.09 278.826 328.775 278.892 328.511 279.024C328.247 279.141 328.027 279.303 327.851 279.508C327.675 279.713 327.536 279.955 327.433 280.234C327.345 280.498 327.279 280.769 327.235 281.048H331.569ZM345.346 282.126C345.346 283.138 345.573 283.952 346.028 284.568C346.482 285.184 347.157 285.492 348.052 285.492C348.345 285.492 348.616 285.485 348.866 285.47C349.115 285.441 349.32 285.411 349.482 285.382V279.42C349.276 279.288 349.005 279.178 348.668 279.09C348.345 279.002 348.015 278.958 347.678 278.958C346.123 278.958 345.346 280.014 345.346 282.126ZM352.76 287.626C352.466 287.714 352.129 287.802 351.748 287.89C351.366 287.963 350.963 288.029 350.538 288.088C350.127 288.147 349.702 288.191 349.262 288.22C348.836 288.264 348.426 288.286 348.03 288.286C347.076 288.286 346.226 288.147 345.478 287.868C344.73 287.589 344.099 287.193 343.586 286.68C343.072 286.152 342.676 285.521 342.398 284.788C342.134 284.04 342.002 283.204 342.002 282.28C342.002 281.341 342.119 280.498 342.354 279.75C342.588 278.987 342.926 278.342 343.366 277.814C343.806 277.286 344.341 276.883 344.972 276.604C345.617 276.325 346.35 276.186 347.172 276.186C347.626 276.186 348.03 276.23 348.382 276.318C348.748 276.406 349.115 276.531 349.482 276.692V271.456L352.76 270.928V287.626ZM355.279 282.302C355.279 281.275 355.433 280.381 355.741 279.618C356.064 278.841 356.482 278.195 356.995 277.682C357.508 277.169 358.095 276.78 358.755 276.516C359.43 276.252 360.119 276.12 360.823 276.12C362.466 276.12 363.764 276.626 364.717 277.638C365.67 278.635 366.147 280.109 366.147 282.06C366.147 282.251 366.14 282.463 366.125 282.698C366.11 282.918 366.096 283.116 366.081 283.292H358.645C358.718 283.967 359.034 284.502 359.591 284.898C360.148 285.294 360.896 285.492 361.835 285.492C362.436 285.492 363.023 285.441 363.595 285.338C364.182 285.221 364.658 285.081 365.025 284.92L365.465 287.582C365.289 287.67 365.054 287.758 364.761 287.846C364.468 287.934 364.138 288.007 363.771 288.066C363.419 288.139 363.038 288.198 362.627 288.242C362.216 288.286 361.806 288.308 361.395 288.308C360.354 288.308 359.444 288.154 358.667 287.846C357.904 287.538 357.266 287.12 356.753 286.592C356.254 286.049 355.88 285.411 355.631 284.678C355.396 283.945 355.279 283.153 355.279 282.302ZM362.979 281.048C362.964 280.769 362.913 280.498 362.825 280.234C362.752 279.97 362.627 279.735 362.451 279.53C362.29 279.325 362.077 279.156 361.813 279.024C361.564 278.892 361.248 278.826 360.867 278.826C360.5 278.826 360.185 278.892 359.921 279.024C359.657 279.141 359.437 279.303 359.261 279.508C359.085 279.713 358.946 279.955 358.843 280.234C358.755 280.498 358.689 280.769 358.645 281.048H362.979ZM371.999 285.646C372.6 285.646 373.025 285.587 373.275 285.47C373.524 285.353 373.649 285.125 373.649 284.788C373.649 284.524 373.487 284.297 373.165 284.106C372.842 283.901 372.351 283.673 371.691 283.424C371.177 283.233 370.708 283.035 370.283 282.83C369.872 282.625 369.52 282.383 369.227 282.104C368.933 281.811 368.706 281.466 368.545 281.07C368.383 280.674 368.303 280.197 368.303 279.64C368.303 278.555 368.706 277.697 369.513 277.066C370.319 276.435 371.427 276.12 372.835 276.12C373.539 276.12 374.213 276.186 374.859 276.318C375.504 276.435 376.017 276.567 376.399 276.714L375.827 279.266C375.445 279.134 375.027 279.017 374.573 278.914C374.133 278.811 373.634 278.76 373.077 278.76C372.05 278.76 371.537 279.046 371.537 279.618C371.537 279.75 371.559 279.867 371.603 279.97C371.647 280.073 371.735 280.175 371.867 280.278C371.999 280.366 372.175 280.469 372.395 280.586C372.629 280.689 372.923 280.806 373.275 280.938C373.993 281.202 374.587 281.466 375.057 281.73C375.526 281.979 375.893 282.258 376.157 282.566C376.435 282.859 376.626 283.189 376.729 283.556C376.846 283.923 376.905 284.348 376.905 284.832C376.905 285.976 376.472 286.841 375.607 287.428C374.756 288.015 373.546 288.308 371.977 288.308C370.95 288.308 370.092 288.22 369.403 288.044C368.728 287.868 368.259 287.721 367.995 287.604L368.545 284.942C369.102 285.162 369.674 285.338 370.261 285.47C370.847 285.587 371.427 285.646 371.999 285.646ZM378.804 282.302C378.804 281.275 378.958 280.381 379.266 279.618C379.589 278.841 380.007 278.195 380.52 277.682C381.034 277.169 381.62 276.78 382.28 276.516C382.955 276.252 383.644 276.12 384.348 276.12C385.991 276.12 387.289 276.626 388.242 277.638C389.196 278.635 389.672 280.109 389.672 282.06C389.672 282.251 389.665 282.463 389.65 282.698C389.636 282.918 389.621 283.116 389.606 283.292H382.17C382.244 283.967 382.559 284.502 383.116 284.898C383.674 285.294 384.422 285.492 385.36 285.492C385.962 285.492 386.548 285.441 387.12 285.338C387.707 285.221 388.184 285.081 388.55 284.92L388.99 287.582C388.814 287.67 388.58 287.758 388.286 287.846C387.993 287.934 387.663 288.007 387.296 288.066C386.944 288.139 386.563 288.198 386.152 288.242C385.742 288.286 385.331 288.308 384.92 288.308C383.879 288.308 382.97 288.154 382.192 287.846C381.43 287.538 380.792 287.12 380.278 286.592C379.78 286.049 379.406 285.411 379.156 284.678C378.922 283.945 378.804 283.153 378.804 282.302ZM386.504 281.048C386.49 280.769 386.438 280.498 386.35 280.234C386.277 279.97 386.152 279.735 385.976 279.53C385.815 279.325 385.602 279.156 385.338 279.024C385.089 278.892 384.774 278.826 384.392 278.826C384.026 278.826 383.71 278.892 383.446 279.024C383.182 279.141 382.962 279.303 382.786 279.508C382.61 279.713 382.471 279.955 382.368 280.234C382.28 280.498 382.214 280.769 382.17 281.048H386.504ZM391.124 292.07C390.919 292.07 390.618 292.048 390.222 292.004C389.811 291.96 389.43 291.879 389.078 291.762L389.518 289.1C389.738 289.173 389.943 289.225 390.134 289.254C390.31 289.283 390.537 289.298 390.816 289.298C391.329 289.298 391.689 289.144 391.894 288.836C392.099 288.528 392.202 288.081 392.202 287.494V276.428H395.48V287.582C395.48 289.107 395.106 290.237 394.358 290.97C393.61 291.703 392.532 292.07 391.124 292.07ZM395.788 273.084C395.788 273.685 395.59 274.162 395.194 274.514C394.813 274.851 394.358 275.02 393.83 275.02C393.302 275.02 392.84 274.851 392.444 274.514C392.063 274.162 391.872 273.685 391.872 273.084C391.872 272.483 392.063 272.013 392.444 271.676C392.84 271.324 393.302 271.148 393.83 271.148C394.358 271.148 394.813 271.324 395.194 271.676C395.59 272.013 395.788 272.483 395.788 273.084ZM402.983 285.712C403.306 285.712 403.614 285.705 403.907 285.69C404.201 285.675 404.435 285.653 404.611 285.624V283.138C404.479 283.109 404.281 283.079 404.017 283.05C403.753 283.021 403.511 283.006 403.291 283.006C402.983 283.006 402.69 283.028 402.411 283.072C402.147 283.101 401.913 283.167 401.707 283.27C401.502 283.373 401.341 283.512 401.223 283.688C401.106 283.864 401.047 284.084 401.047 284.348C401.047 284.861 401.216 285.221 401.553 285.426C401.905 285.617 402.382 285.712 402.983 285.712ZM402.719 276.12C403.687 276.12 404.494 276.23 405.139 276.45C405.785 276.67 406.298 276.985 406.679 277.396C407.075 277.807 407.354 278.305 407.515 278.892C407.677 279.479 407.757 280.131 407.757 280.85V287.67C407.288 287.773 406.635 287.89 405.799 288.022C404.963 288.169 403.951 288.242 402.763 288.242C402.015 288.242 401.333 288.176 400.717 288.044C400.116 287.912 399.595 287.699 399.155 287.406C398.715 287.098 398.378 286.702 398.143 286.218C397.909 285.734 397.791 285.14 397.791 284.436C397.791 283.761 397.923 283.189 398.187 282.72C398.466 282.251 398.833 281.877 399.287 281.598C399.742 281.319 400.263 281.121 400.849 281.004C401.436 280.872 402.045 280.806 402.675 280.806C403.101 280.806 403.475 280.828 403.797 280.872C404.135 280.901 404.406 280.945 404.611 281.004V280.696C404.611 280.139 404.443 279.691 404.105 279.354C403.768 279.017 403.181 278.848 402.345 278.848C401.788 278.848 401.238 278.892 400.695 278.98C400.153 279.053 399.683 279.163 399.287 279.31L398.869 276.67C399.06 276.611 399.295 276.553 399.573 276.494C399.867 276.421 400.182 276.362 400.519 276.318C400.857 276.259 401.209 276.215 401.575 276.186C401.957 276.142 402.338 276.12 402.719 276.12ZM415.457 282.214C415.457 281.378 415.589 280.593 415.853 279.86C416.131 279.112 416.527 278.467 417.041 277.924C417.554 277.367 418.177 276.927 418.911 276.604C419.644 276.281 420.48 276.12 421.419 276.12C422.035 276.12 422.599 276.179 423.113 276.296C423.626 276.399 424.125 276.553 424.609 276.758L423.927 279.376C423.619 279.259 423.281 279.156 422.915 279.068C422.548 278.98 422.137 278.936 421.683 278.936C420.715 278.936 419.989 279.237 419.505 279.838C419.035 280.439 418.801 281.231 418.801 282.214C418.801 283.255 419.021 284.062 419.461 284.634C419.915 285.206 420.7 285.492 421.815 285.492C422.211 285.492 422.636 285.455 423.091 285.382C423.545 285.309 423.963 285.191 424.345 285.03L424.807 287.714C424.425 287.875 423.949 288.015 423.377 288.132C422.805 288.249 422.174 288.308 421.485 288.308C420.429 288.308 419.519 288.154 418.757 287.846C417.994 287.523 417.363 287.091 416.865 286.548C416.381 286.005 416.021 285.367 415.787 284.634C415.567 283.886 415.457 283.079 415.457 282.214ZM437.272 282.192C437.272 283.101 437.14 283.937 436.876 284.7C436.612 285.448 436.231 286.093 435.732 286.636C435.234 287.164 434.632 287.575 433.928 287.868C433.239 288.161 432.462 288.308 431.596 288.308C430.746 288.308 429.968 288.161 429.264 287.868C428.575 287.575 427.981 287.164 427.482 286.636C426.984 286.093 426.595 285.448 426.316 284.7C426.038 283.937 425.898 283.101 425.898 282.192C425.898 281.283 426.038 280.454 426.316 279.706C426.61 278.958 427.006 278.32 427.504 277.792C428.018 277.264 428.619 276.853 429.308 276.56C430.012 276.267 430.775 276.12 431.596 276.12C432.432 276.12 433.195 276.267 433.884 276.56C434.588 276.853 435.19 277.264 435.688 277.792C436.187 278.32 436.576 278.958 436.854 279.706C437.133 280.454 437.272 281.283 437.272 282.192ZM433.928 282.192C433.928 281.18 433.723 280.388 433.312 279.816C432.916 279.229 432.344 278.936 431.596 278.936C430.848 278.936 430.269 279.229 429.858 279.816C429.448 280.388 429.242 281.18 429.242 282.192C429.242 283.204 429.448 284.011 429.858 284.612C430.269 285.199 430.848 285.492 431.596 285.492C432.344 285.492 432.916 285.199 433.312 284.612C433.723 284.011 433.928 283.204 433.928 282.192ZM439.701 273.546L442.979 273.018V276.428H446.917V279.156H442.979V283.226C442.979 283.915 443.097 284.465 443.331 284.876C443.581 285.287 444.072 285.492 444.805 285.492C445.157 285.492 445.517 285.463 445.883 285.404C446.265 285.331 446.609 285.235 446.917 285.118L447.379 287.67C446.983 287.831 446.543 287.971 446.059 288.088C445.575 288.205 444.981 288.264 444.277 288.264C443.383 288.264 442.642 288.147 442.055 287.912C441.469 287.663 440.999 287.325 440.647 286.9C440.295 286.46 440.046 285.932 439.899 285.316C439.767 284.7 439.701 284.018 439.701 283.27V273.546ZM453.579 285.712C453.902 285.712 454.21 285.705 454.503 285.69C454.797 285.675 455.031 285.653 455.207 285.624V283.138C455.075 283.109 454.877 283.079 454.613 283.05C454.349 283.021 454.107 283.006 453.887 283.006C453.579 283.006 453.286 283.028 453.007 283.072C452.743 283.101 452.509 283.167 452.303 283.27C452.098 283.373 451.937 283.512 451.819 283.688C451.702 283.864 451.643 284.084 451.643 284.348C451.643 284.861 451.812 285.221 452.149 285.426C452.501 285.617 452.978 285.712 453.579 285.712ZM453.315 276.12C454.283 276.12 455.09 276.23 455.735 276.45C456.381 276.67 456.894 276.985 457.275 277.396C457.671 277.807 457.95 278.305 458.111 278.892C458.273 279.479 458.353 280.131 458.353 280.85V287.67C457.884 287.773 457.231 287.89 456.395 288.022C455.559 288.169 454.547 288.242 453.359 288.242C452.611 288.242 451.929 288.176 451.313 288.044C450.712 287.912 450.191 287.699 449.751 287.406C449.311 287.098 448.974 286.702 448.739 286.218C448.505 285.734 448.387 285.14 448.387 284.436C448.387 283.761 448.519 283.189 448.783 282.72C449.062 282.251 449.429 281.877 449.883 281.598C450.338 281.319 450.859 281.121 451.445 281.004C452.032 280.872 452.641 280.806 453.271 280.806C453.697 280.806 454.071 280.828 454.393 280.872C454.731 280.901 455.002 280.945 455.207 281.004V280.696C455.207 280.139 455.039 279.691 454.701 279.354C454.364 279.017 453.777 278.848 452.941 278.848C452.384 278.848 451.834 278.892 451.291 278.98C450.749 279.053 450.279 279.163 449.883 279.31L449.465 276.67C449.656 276.611 449.891 276.553 450.169 276.494C450.463 276.421 450.778 276.362 451.115 276.318C451.453 276.259 451.805 276.215 452.171 276.186C452.553 276.142 452.934 276.12 453.315 276.12ZM468.291 279.332C467.998 279.259 467.653 279.185 467.257 279.112C466.861 279.024 466.436 278.98 465.981 278.98C465.776 278.98 465.527 279.002 465.233 279.046C464.955 279.075 464.742 279.112 464.595 279.156V288H461.317V277.044C461.904 276.839 462.593 276.648 463.385 276.472C464.192 276.281 465.087 276.186 466.069 276.186C466.245 276.186 466.458 276.201 466.707 276.23C466.957 276.245 467.206 276.274 467.455 276.318C467.705 276.347 467.954 276.391 468.203 276.45C468.453 276.494 468.665 276.553 468.841 276.626L468.291 279.332ZM473.965 276.692C473.965 277.88 473.921 278.987 473.833 280.014C473.745 281.041 473.627 282.082 473.481 283.138H470.973C470.826 282.082 470.701 281.041 470.599 280.014C470.511 278.987 470.467 277.88 470.467 276.692V272.754H473.965V276.692ZM474.251 286.262C474.251 286.907 474.038 287.406 473.613 287.758C473.202 288.11 472.733 288.286 472.205 288.286C471.677 288.286 471.2 288.11 470.775 287.758C470.364 287.406 470.159 286.907 470.159 286.262C470.159 285.617 470.364 285.118 470.775 284.766C471.2 284.414 471.677 284.238 472.205 284.238C472.733 284.238 473.202 284.414 473.613 284.766C474.038 285.118 474.251 285.617 474.251 286.262Z" fill="white"/>
<path d="M430.483 230.198C429.647 230.198 428.811 230.169 427.975 230.11C427.153 230.066 426.295 229.949 425.401 229.758V214.974C426.105 214.842 426.875 214.747 427.711 214.688C428.547 214.615 429.324 214.578 430.043 214.578C431.011 214.578 431.898 214.651 432.705 214.798C433.526 214.93 434.23 215.165 434.817 215.502C435.403 215.839 435.858 216.287 436.181 216.844C436.518 217.387 436.687 218.061 436.687 218.868C436.687 220.085 436.1 221.046 434.927 221.75C435.895 222.117 436.555 222.615 436.907 223.246C437.259 223.877 437.435 224.588 437.435 225.38C437.435 226.979 436.848 228.181 435.675 228.988C434.516 229.795 432.785 230.198 430.483 230.198ZM428.745 223.356V227.294C428.994 227.323 429.265 227.345 429.559 227.36C429.852 227.375 430.175 227.382 430.527 227.382C431.553 227.382 432.382 227.235 433.013 226.942C433.643 226.649 433.959 226.106 433.959 225.314C433.959 224.61 433.695 224.111 433.167 223.818C432.639 223.51 431.883 223.356 430.901 223.356H428.745ZM428.745 220.738H430.417C431.473 220.738 432.228 220.606 432.683 220.342C433.137 220.063 433.365 219.623 433.365 219.022C433.365 218.406 433.13 217.973 432.661 217.724C432.191 217.475 431.502 217.35 430.593 217.35C430.299 217.35 429.984 217.357 429.647 217.372C429.309 217.372 429.009 217.387 428.745 217.416V220.738ZM439.412 224.302C439.412 223.275 439.566 222.381 439.874 221.618C440.197 220.841 440.615 220.195 441.128 219.682C441.641 219.169 442.228 218.78 442.888 218.516C443.563 218.252 444.252 218.12 444.956 218.12C446.599 218.12 447.897 218.626 448.85 219.638C449.803 220.635 450.28 222.109 450.28 224.06C450.28 224.251 450.273 224.463 450.258 224.698C450.243 224.918 450.229 225.116 450.214 225.292H442.778C442.851 225.967 443.167 226.502 443.724 226.898C444.281 227.294 445.029 227.492 445.968 227.492C446.569 227.492 447.156 227.441 447.728 227.338C448.315 227.221 448.791 227.081 449.158 226.92L449.598 229.582C449.422 229.67 449.187 229.758 448.894 229.846C448.601 229.934 448.271 230.007 447.904 230.066C447.552 230.139 447.171 230.198 446.76 230.242C446.349 230.286 445.939 230.308 445.528 230.308C444.487 230.308 443.577 230.154 442.8 229.846C442.037 229.538 441.399 229.12 440.886 228.592C440.387 228.049 440.013 227.411 439.764 226.678C439.529 225.945 439.412 225.153 439.412 224.302ZM447.112 223.048C447.097 222.769 447.046 222.498 446.958 222.234C446.885 221.97 446.76 221.735 446.584 221.53C446.423 221.325 446.21 221.156 445.946 221.024C445.697 220.892 445.381 220.826 445 220.826C444.633 220.826 444.318 220.892 444.054 221.024C443.79 221.141 443.57 221.303 443.394 221.508C443.218 221.713 443.079 221.955 442.976 222.234C442.888 222.498 442.822 222.769 442.778 223.048H447.112ZM448.256 215.81L447.046 217.262L444.846 215.568L442.646 217.262L441.392 215.81L444.846 212.796L448.256 215.81ZM452.81 218.824C453.367 218.663 454.086 218.516 454.966 218.384C455.846 218.237 456.77 218.164 457.738 218.164C458.72 218.164 459.534 218.296 460.18 218.56C460.84 218.809 461.36 219.169 461.742 219.638C462.123 220.107 462.394 220.665 462.556 221.31C462.717 221.955 462.798 222.674 462.798 223.466V230H459.52V223.862C459.52 222.806 459.38 222.058 459.102 221.618C458.823 221.178 458.302 220.958 457.54 220.958C457.305 220.958 457.056 220.973 456.792 221.002C456.528 221.017 456.293 221.039 456.088 221.068V230H452.81V218.824ZM465.215 224.302C465.215 223.275 465.369 222.381 465.677 221.618C465.999 220.841 466.417 220.195 466.931 219.682C467.444 219.169 468.031 218.78 468.691 218.516C469.365 218.252 470.055 218.12 470.759 218.12C472.401 218.12 473.699 218.626 474.653 219.638C475.606 220.635 476.083 222.109 476.083 224.06C476.083 224.251 476.075 224.463 476.061 224.698C476.046 224.918 476.031 225.116 476.017 225.292H468.581C468.654 225.967 468.969 226.502 469.527 226.898C470.084 227.294 470.832 227.492 471.771 227.492C472.372 227.492 472.959 227.441 473.531 227.338C474.117 227.221 474.594 227.081 474.961 226.92L475.401 229.582C475.225 229.67 474.99 229.758 474.697 229.846C474.403 229.934 474.073 230.007 473.707 230.066C473.355 230.139 472.973 230.198 472.563 230.242C472.152 230.286 471.741 230.308 471.331 230.308C470.289 230.308 469.38 230.154 468.603 229.846C467.84 229.538 467.202 229.12 466.689 228.592C466.19 228.049 465.816 227.411 465.567 226.678C465.332 225.945 465.215 225.153 465.215 224.302ZM472.915 223.048C472.9 222.769 472.849 222.498 472.761 222.234C472.687 221.97 472.563 221.735 472.387 221.53C472.225 221.325 472.013 221.156 471.749 221.024C471.499 220.892 471.184 220.826 470.803 220.826C470.436 220.826 470.121 220.892 469.857 221.024C469.593 221.141 469.373 221.303 469.197 221.508C469.021 221.713 468.881 221.955 468.779 222.234C468.691 222.498 468.625 222.769 468.581 223.048H472.915Z" fill="#FFFE06"/>
<defs>
<filter id="filter0_d" x="0" y="0" width="368" height="368" filterUnits="userSpaceOnUse" color-interpolation-filters="sRGB">
<feFlood flood-opacity="0" result="BackgroundImageFix"/>
<feColorMatrix in="SourceAlpha" type="matrix" values="0 0 0 0 0 0 0 0 0 0 0 0 0 0 0 0 0 0 127 0"/>
<feOffset dx="4" dy="8"/>
<feGaussianBlur stdDeviation="5.5"/>
<feColorMatrix type="matrix" values="0 0 0 0 0 0 0 0 0 0 0 0 0 0 0 0 0 0 0.1 0"/>
<feBlend mode="normal" in2="BackgroundImageFix" result="effect1_dropShadow"/>
<feBlend mode="normal" in="SourceGraphic" in2="effect1_dropShadow" result="shape"/>
</filter>
</defs>
</svg>
