<svg width="24" height="25" viewBox="0 0 24 25" fill="none" xmlns="http://www.w3.org/2000/svg">
<path fill-rule="evenodd" clip-rule="evenodd" d="M2 12.333C2 11.7807 2.44772 11.333 3 11.333L19 11.333C19.5523 11.333 20 11.7807 20 12.333C20 12.8853 19.5523 13.333 19 13.333L3 13.333C2.44772 13.333 2 12.8853 2 12.333Z" fill="#00309E"/>
<path fill-rule="evenodd" clip-rule="evenodd" d="M13.2929 4.6259C13.6834 4.23538 14.3166 4.23538 14.7071 4.6259L21.7071 11.6259C22.0976 12.0164 22.0976 12.6496 21.7071 13.0401L14.7071 20.0401C14.3166 20.4306 13.6834 20.4306 13.2929 20.0401C12.9024 19.6496 12.9024 19.0164 13.2929 18.6259L19.5858 12.333L13.2929 6.04011C12.9024 5.64959 12.9024 5.01643 13.2929 4.6259Z" fill="#00309E"/>
</svg>
