<svg width="64" height="64" viewBox="0 0 64 64" fill="none" xmlns="http://www.w3.org/2000/svg">
<circle cx="32" cy="32" r="32" fill="#006CBF"/>
<g clip-path="url(#clip0)">
<path d="M31.2513 43.3033H33.7328V45.7848H31.2513V43.3033Z" fill="#73E4EC"/>
<path d="M33.056 32.6893H35.5375V35.1707H33.056V32.6893Z" fill="#73E4EC"/>
<path d="M44.4584 31.4485H46.9398V33.93H44.4584V31.4485Z" fill="#73E4EC"/>
<path d="M25.017 24.0994H27.4984V26.5808H25.017V24.0994Z" fill="#73E4EC"/>
<path d="M31.5281 35.2851C31.0593 33.6913 29.998 32.3759 28.5397 31.5805C25.5292 29.9386 21.7442 31.0522 20.1023 34.0626C18.4604 37.0731 19.5743 40.8581 22.5847 42.5C23.5275 43.0143 24.5464 43.2581 25.5517 43.2581C27.7559 43.2581 29.8942 42.0854 31.0218 40.0176C31.8171 38.5593 31.9972 36.8786 31.5281 35.2851ZM28.8614 38.8394C27.869 40.6588 25.5821 41.3314 23.763 40.3393C21.9436 39.3472 21.271 37.06 22.263 35.2409C22.9443 33.9915 24.2366 33.2827 25.5686 33.2827C26.1759 33.2827 26.7917 33.4301 27.3615 33.7409C28.2427 34.2216 28.8842 35.0166 29.1674 35.9795C29.4507 36.9427 29.3421 37.9582 28.8614 38.8394Z" fill="#73E4EC"/>
<path d="M35.4844 28.6152C36.3117 29.0661 37.2189 29.2955 38.1353 29.2955C38.6615 29.2955 39.1912 29.2199 39.7099 29.0671C41.133 28.6486 42.3077 27.701 43.0178 26.3988C44.4838 23.7107 43.4895 20.3314 40.8013 18.8654C38.1132 17.3994 34.7339 18.3937 33.2679 21.0818C32.5578 22.3838 32.3973 23.8847 32.8158 25.3074C33.2346 26.7304 34.1824 27.9052 35.4844 28.6152ZM35.4286 22.2601C35.824 21.5349 36.478 21.0072 37.2701 20.7742C37.5592 20.6893 37.854 20.647 38.1472 20.647C38.6576 20.647 39.1626 20.7749 39.6231 21.0261C41.1198 21.8422 41.6732 23.7238 40.8571 25.2206C40.4617 25.9457 39.8077 26.4735 39.0156 26.7064C38.2231 26.9394 37.3877 26.85 36.6626 26.4546C35.9375 26.0591 35.41 25.4051 35.1767 24.613C34.9438 23.8206 35.0332 22.9852 35.4286 22.2601Z" fill="#73E4EC"/>
<path d="M42.2546 35.8766C41.1734 35.287 39.9279 35.1537 38.7465 35.501C37.565 35.8487 36.59 36.6354 36.0004 37.7165C34.7833 39.948 35.6088 42.7534 37.8403 43.9704C38.527 44.345 39.28 44.5354 40.041 44.5354C40.4781 44.5354 40.9174 44.4726 41.3484 44.3457C42.5298 43.9983 43.5049 43.2116 44.0945 42.1305C45.3115 39.899 44.4861 37.0936 42.2546 35.8766ZM41.9338 40.9523C41.6592 41.4563 41.2045 41.8229 40.654 41.985C40.1032 42.1468 39.5226 42.0847 39.0185 41.8101C37.9784 41.2426 37.5936 39.9349 38.161 38.8948C38.4357 38.3907 38.8903 38.0241 39.4409 37.862C39.6418 37.803 39.8465 37.7736 40.0503 37.7736C40.405 37.7736 40.7562 37.8623 41.0764 38.0369C42.1165 38.6044 42.5013 39.9121 41.9338 40.9523Z" fill="#73E4EC"/>
<path d="M46.8493 17.1507C42.8829 13.1844 37.6092 11 32 11C30.4497 11 28.9001 11.1711 27.3934 11.5082L26.5786 11.6909L25.6179 17.7266H21.4055L20.7662 20.7409L18.1005 21.7102L17.1136 25.3503H12.0533L11.7988 26.2444C11.2688 28.1083 11 30.0447 11 32C11 37.6092 13.1844 42.8829 17.1507 46.8493C21.1171 50.8156 26.3908 53 32 53C37.6092 53 42.8829 50.8156 46.8493 46.8493C50.8156 42.8829 53 37.6092 53 32C53 26.3908 50.8156 21.1171 46.8493 17.1507ZM32 50.5391C21.7775 50.5391 13.4609 42.2225 13.4609 32C13.4609 30.5834 13.6205 29.1783 13.9358 27.8113H18.9958L20.1417 23.5867L22.89 22.5872L23.3992 20.1875H27.718L28.7431 13.7471C29.8153 13.5571 30.9076 13.4609 32 13.4609C42.2225 13.4609 50.5391 21.7775 50.5391 32C50.5391 42.2225 42.2225 50.5391 32 50.5391Z" fill="#73E4EC"/>
</g>
<defs>
<clipPath id="clip0">
<rect width="42" height="42" fill="white" transform="translate(11 11)"/>
</clipPath>
</defs>
</svg>
