<svg width="55" height="47" viewBox="0 0 55 47" fill="none" xmlns="http://www.w3.org/2000/svg">
<path d="M4.87447 4.68425C7.84405 1.83006 11.827 0.160656 16.0241 0.0110049C20.2212 -0.138647 24.3219 1.24253 27.5035 3.87739C30.6822 1.24692 34.7775 -0.132703 38.9695 0.0147226C43.1616 0.162149 47.141 1.82574 50.1111 4.67246C53.0812 7.51917 54.8228 11.3389 54.9872 15.367C55.1516 19.395 53.7267 23.3341 50.9977 26.3956L31.1205 45.5584C30.2073 46.4363 28.9825 46.95 27.6917 46.9965C26.4008 47.0431 25.1394 46.619 24.1603 45.8093L23.8787 45.5609L4.00412 26.3956C1.27658 23.3367 -0.149018 19.4013 0.012343 15.376C0.173704 11.3508 1.91013 7.53239 4.87447 4.68425ZM8.49408 8.16259C6.40075 10.1748 5.19407 12.8843 5.12448 15.7288C5.05489 18.5732 6.12773 21.3342 8.12035 23.4387L8.49408 23.8176L27.5009 42.0825L41.0757 29.0351L32.0267 20.3392L29.3133 22.9468C28.6003 23.6322 27.7537 24.1761 26.822 24.5472C25.8903 24.9183 24.8917 25.1094 23.8831 25.1097C21.8462 25.1101 19.8925 24.333 18.4519 22.9492C17.0112 21.5654 16.2016 19.6884 16.2011 17.731C16.2006 15.7736 17.0093 13.8962 18.4493 12.5117L23.8301 7.33851C21.6887 5.6962 19.0084 4.84092 16.2701 4.92613C13.5318 5.01133 10.9146 6.03145 8.8883 7.80344L8.49408 8.16259ZM30.2169 15.1193C30.6969 14.6581 31.3479 14.399 32.0267 14.399C32.7055 14.399 33.3565 14.6581 33.8365 15.1193L44.6954 25.5543L46.5077 23.8176C48.6361 21.7737 49.8478 19.0107 49.8837 16.1194C49.9196 13.2281 48.7768 10.4381 46.6998 8.34599C44.6227 6.25391 41.7763 5.02586 38.7692 4.92447C35.7621 4.82308 32.8331 5.8564 30.6085 7.80344L30.2169 8.16259L22.0715 15.9901C21.6278 16.4162 21.3623 16.984 21.3255 17.5857C21.2887 18.1875 21.4831 18.7813 21.8718 19.2544L22.0715 19.4684C22.5149 19.8948 23.1058 20.1499 23.732 20.1852C24.3582 20.2206 24.9761 20.0338 25.4684 19.6603L25.6911 19.4684L30.2169 15.1193Z" fill="#00309E"/>
</svg>
