<svg width="40" height="40" viewBox="0 0 40 40" fill="none" xmlns="http://www.w3.org/2000/svg">
<path fill-rule="evenodd" clip-rule="evenodd" d="M18.2559 7.42761C19.8498 5.86908 22.0039 5 24.2423 5H28.3332C29.2536 5 29.9998 5.74619 29.9998 6.66667V12C29.9998 12.9205 29.2536 13.6667 28.3332 13.6667H24.5453V15.6667H28.3332C28.848 15.6667 29.3339 15.9046 29.6496 16.3112C29.9653 16.7178 30.0754 17.2474 29.9479 17.7462L28.5843 23.0795C28.3956 23.8173 27.731 24.3333 26.9695 24.3333H24.5453V33.3333C24.5453 34.2538 23.7991 35 22.8786 35H17.4241C16.5036 35 15.7574 34.2538 15.7574 33.3333V24.3333H13.3332C12.4127 24.3333 11.6665 23.5871 11.6665 22.6667V17.3333C11.6665 16.4129 12.4127 15.6667 13.3332 15.6667H15.7574V13.3333C15.7574 11.111 16.6607 8.98738 18.2559 7.42761ZM24.2423 8.33333C22.8641 8.33333 21.5496 8.86901 20.5863 9.81097C19.6242 10.7517 19.0907 12.0195 19.0907 13.3333V17.3333C19.0907 18.2538 18.3446 19 17.4241 19H14.9998V21H17.4241C18.3446 21 19.0907 21.7462 19.0907 22.6667V31.6667H21.212V22.6667C21.212 21.7462 21.9582 21 22.8786 21H25.6754L26.1868 19H22.8786C21.9582 19 21.212 18.2538 21.212 17.3333V13.3333C21.212 12.5254 21.5405 11.7584 22.1128 11.1988C22.6839 10.6405 23.4505 10.3333 24.2423 10.3333H26.6665V8.33333H24.2423Z" fill="#00309E"/>
</svg>
