<svg width="40" height="40" viewBox="0 0 40 40" fill="none" xmlns="http://www.w3.org/2000/svg">
<path fill-rule="evenodd" clip-rule="evenodd" d="M12.5002 6.66659C9.2785 6.66659 6.66683 9.27826 6.66683 12.4999V27.4999C6.66683 30.7216 9.2785 33.3333 12.5002 33.3333H27.5002C30.7218 33.3333 33.3335 30.7216 33.3335 27.4999V12.4999C33.3335 9.27826 30.7218 6.66659 27.5002 6.66659H12.5002ZM3.3335 12.4999C3.3335 7.43731 7.43755 3.33325 12.5002 3.33325H27.5002C32.5628 3.33325 36.6668 7.43731 36.6668 12.4999V27.4999C36.6668 32.5625 32.5628 36.6666 27.5002 36.6666H12.5002C7.43755 36.6666 3.3335 32.5625 3.3335 27.4999V12.4999Z" fill="#00309E"/>
<path fill-rule="evenodd" clip-rule="evenodd" d="M20.8055 14.9819C19.7652 14.8276 18.7028 15.0053 17.7693 15.4897C16.8358 15.9741 16.0788 16.7405 15.6059 17.6799C15.1331 18.6193 14.9685 19.6838 15.1356 20.7222C15.3027 21.7605 15.7929 22.7197 16.5366 23.4634C17.2802 24.207 18.2394 24.6972 19.2778 24.8643C20.3161 25.0314 21.3807 24.8668 22.3201 24.394C23.2595 23.9212 24.0259 23.1642 24.5102 22.2307C24.9946 21.2972 25.1723 20.2347 25.018 19.1944C24.8607 18.1333 24.3662 17.1508 23.6076 16.3923C22.8491 15.6337 21.8667 15.1393 20.8055 14.9819ZM16.234 12.531C17.7899 11.7237 19.5606 11.4275 21.2945 11.6846C23.0631 11.9469 24.7004 12.771 25.9647 14.0353C27.2289 15.2995 28.053 16.9369 28.3153 18.7055C28.5724 20.4393 28.2763 22.2101 27.469 23.7659C26.6617 25.3217 25.3844 26.5834 23.8187 27.3714C22.253 28.1595 20.4787 28.4338 18.7482 28.1553C17.0177 27.8769 15.419 27.0598 14.1796 25.8204C12.9401 24.581 12.1231 22.9823 11.8446 21.2517C11.5661 19.5212 11.8404 17.7469 12.6285 16.1812C13.4165 14.6156 14.6782 13.3383 16.234 12.531Z" fill="#00309E"/>
<path fill-rule="evenodd" clip-rule="evenodd" d="M27.5 10.8332C27.5 9.9127 28.2462 9.1665 29.1667 9.1665H29.1833C30.1038 9.1665 30.85 9.9127 30.85 10.8332C30.85 11.7536 30.1038 12.4998 29.1833 12.4998H29.1667C28.2462 12.4998 27.5 11.7536 27.5 10.8332Z" fill="#00309E"/>
</svg>
