<svg id="Camada_1" data-name="Camada 1" xmlns="http://www.w3.org/2000/svg" viewBox="0 0 234.42 258.98"><defs><style>.cls-1{fill:#f4e600;}.cls-2{fill:#3b5ea9;}.cls-3{fill:#f8af59;}.cls-4{fill:#fedfba;}.cls-5{opacity:0.2;}.cls-10,.cls-13,.cls-5{isolation:isolate;}.cls-6{fill:#bf7b2a;}.cls-7{fill:#453727;}.cls-8{fill:#fff;}.cls-9{fill:#af3629;}.cls-10{opacity:0.4;}.cls-11{fill:#717171;}.cls-12{fill:#ee754c;}.cls-13{opacity:0.11;}.cls-14{fill:#484848;}.cls-15{fill:#d9dad9;}.cls-16{fill:#cac9c9;}.cls-17{fill:#ff5015;}</style></defs><g id="Layer_1" data-name="Layer 1"><path class="cls-1" d="M204.67,132.22a88.38,88.38,0,0,1-51.8,80.5c-.8.4-1.6.7-2.5,1.1-.4.2-.8.3-1.2.5a85.32,85.32,0,0,1-13.9,4.3,87.67,87.67,0,0,1-19.1,2.1h-2a90.13,90.13,0,0,1-18-2.2l-1.3-.3c-2.8-.7-5.5-1.5-8.2-2.4-1.5-.5-2.9-1.1-4.3-1.6a40.3,40.3,0,0,1-4.3-1.9l-2.4-1.2a88.64,88.64,0,0,1,5.9-160.4,90.45,90.45,0,0,1,17.7-5.4A88.51,88.51,0,0,1,203,115.4v0A87,87,0,0,1,204.67,132.22Z"/><path class="cls-2" d="M96.17,218.52a73.07,73.07,0,0,1-9.4-2.7l8.5-.7,18-1.6.8,7.3A107.85,107.85,0,0,1,96.17,218.52Z"/><path class="cls-2" d="M116.07,220.72h-.2l1.1-9.8,20,1.7,12.2,1.1,1.2.1c-.4.2-.8.3-1.2.5a85.32,85.32,0,0,1-13.9,4.3A89.21,89.21,0,0,1,116.07,220.72Z"/><path class="cls-3" d="M114.67,103.86l-23.2,10.73s-9.6-8.49-13-26.79a18.11,18.11,0,0,1-.4-2.43c-2.9-20,8-47,14.3-45.09,7.8,2.15,11,28.29,18.2,51.91C111.87,96.2,113.17,100.12,114.67,103.86Z"/><path class="cls-3" d="M164.18,101.91a14.77,14.77,0,0,1-1.73,2.49c-6.73,8.27-19,12.62-19,12.62l-13.06-13.33s3.27-5.6,8.07-13.06c9.89-15.55,26.6-39.19,34.86-37.86C185.59,54.73,170.13,92,164.18,101.91Z"/><path class="cls-4" d="M133.47,107c.3-1.3,23.5-45.1,33.2-45.7s-4.3,36.1-21,49.2C135.57,116.32,133.47,107,133.47,107Z"/><path class="cls-4" d="M108.57,102.62s-10-50.5-16.4-49.9-6,45.7,5.8,54.7S108.57,102.62,108.57,102.62Z"/><g class="cls-5"><path class="cls-6" d="M110.57,90.42c1.2,4.3,2.5,8.5,4,12.5l-23.1,11.5s-9.6-9.1-13-28.7c6.2,6.1,20.3,14.5,26.9,10.8A11.88,11.88,0,0,0,110.57,90.42Z"/></g><g class="cls-5"><path class="cls-6" d="M163.67,102.82c-7,9.3-19.8,14.2-19.8,14.2l-13.6-15s3.4-6.3,8.4-14.7c.3,5.4,2,13.3,8.4,15.5C152.47,104.52,159,103.82,163.67,102.82Z"/></g><path class="cls-4" d="M180,175.82c-10.1,17.3-23.9,23-23.9,23s-1.3,5.9-3.2,14c-.8.4-1.6.7-2.5,1.1-.4.2-.8.3-1.2.5a85.32,85.32,0,0,1-13.9,4.3,87.67,87.67,0,0,1-19.1,2.1h-2a90.13,90.13,0,0,1-18-2.2,73.07,73.07,0,0,1-9.4-2.7c-1.5-.5-2.9-1.1-4.3-1.6a40.3,40.3,0,0,1-4.3-1.9c-1.6-5.6-2.7-9.5-2.7-9.5s-19-13.1-24.4-23c13.9-15,24.9-47,33-61.1a49.79,49.79,0,0,1,5-7,45.08,45.08,0,0,1,6.7-6.4c5.2-4,9.9-5.4,11.9-5.1a.63.63,0,0,1,.4.1h.1c1.3.2,3.3.3,5.6.4a102.89,102.89,0,0,0,15.7-.4l.5-.1a7.27,7.27,0,0,1,1.4-.1,14.09,14.09,0,0,1,4.9,1.5,31.45,31.45,0,0,1,9.9,8.6,42.63,42.63,0,0,1,3,4.4,24.37,24.37,0,0,1,1.4,2.8C155,127.22,180.77,167.52,180,175.82Z"/><path class="cls-3" d="M180,175.82c-10.1,17.3-23.9,23-23.9,23s-1.3,5.9-3.2,14c-.8.4-1.6.7-2.5,1.1-.4.2-.8.3-1.2.5v-.6c.4-5.1.7-10.6.8-16.6a85.44,85.44,0,0,0,15.8-16.6,62.4,62.4,0,0,0,4.6-7.1s-7.4-19.2-15.4-27.8c-8.3,3.5-22.6-5.1-36.7-5.8s-24.7,6.7-38.8,11.9c-1.4,8.3-14.4,26.2-14.4,26.2s.7,1.4,2,3.6c2.4,4.2,7,11.3,12.2,16,.2,1.1,1.5,8,3.1,16.5-1.5-.6-2.9-1.2-4.3-1.9-1.6-5.6-2.7-9.5-2.7-9.5s-19-13.1-24.4-23c13.9-15,24.9-47,33-61.1a49.79,49.79,0,0,1,5-7,45.08,45.08,0,0,1,6.7-6.4c5.2-4,9.9-5.4,11.9-5.1a.63.63,0,0,1,.4.1h.1c1.3.2,3.3.3,5.6.4a117.54,117.54,0,0,0,15.7-.4l.5-.1a7.27,7.27,0,0,1,1.4-.1,14.09,14.09,0,0,1,4.9,1.5,31.45,31.45,0,0,1,9.9,8.6,42.63,42.63,0,0,1,3,4.4,24.37,24.37,0,0,1,1.4,2.8C155,127.22,180.77,167.52,180,175.82Z"/><path class="cls-7" d="M100,148.42c-.3,4.1,9.5,10.5,16.8,10.5s15.3-7.9,15.1-12.1-9.5-6.2-16.4-5.9S100.17,144.12,100,148.42Z"/><path class="cls-8" d="M101.77,139.42c-.5.3-1,.5-1.5.8-10.3,4.2-11.3-8.8-8.2-15.7,3.2-7.2,8.7-9.6,12.3-9.5h.6a5.76,5.76,0,0,1,5.1,4.3,13.11,13.11,0,0,1,.5,2.7C110.87,127.92,107.27,136.12,101.77,139.42Z"/><path class="cls-7" d="M101.77,139.42c-4.2-1.5-6.6-7.2-5.5-13.4,1-5.8,4.7-10.3,8.8-10.9a5.78,5.78,0,0,1,5.1,4.2,13.11,13.11,0,0,1,.5,2.7C110.87,127.92,107.27,136.12,101.77,139.42Z"/><path class="cls-8" d="M132.07,139.22a10.79,10.79,0,0,1-1.5-.8c-5.1-3.1-8.5-10.7-8.4-16.6a10.48,10.48,0,0,1,.4-3.1,6,6,0,0,1,5.3-4.7,1.25,1.25,0,0,0,.6-.1c3.6-.1,9.1,2.3,12.1,9.5C143.57,130.42,142.27,143.42,132.07,139.22Z"/><path class="cls-7" d="M130.57,138.42c-5.1-3.1-8.5-10.7-8.4-16.6a10.48,10.48,0,0,1,.4-3.1,6,6,0,0,1,5.3-4.7c4.1.7,7.7,5.1,8.5,10.9C137.37,131.22,134.77,137,130.57,138.42Z"/><g class="cls-5"><path class="cls-6" d="M165.77,180.72a201.4,201.4,0,0,1-31.6,4.1s-2.5,9.1-9.2,10.6c-10.8,2.3-17.6-12-25.3-12-5.1,0-19.9-.6-32.5-1.7a134.49,134.49,0,0,1-16-2c5.3,9.9,24.4,23,24.4,23s1.1,3.9,2.7,9.5c1.4.7,2.8,1.3,4.3,1.9s2.8,1.1,4.3,1.6a76.43,76.43,0,0,0,9.4,2.7,19.35,19.35,0,0,1-.9-3.5c-.9-4.5-.6-8.7,1.3-11.5,2.2-3.2,39.8-.9,40.7,6.2a10.06,10.06,0,0,1-.2,3,29.83,29.83,0,0,1-1.8,6,82.48,82.48,0,0,0,13.9-4.3c.4-.2.8-.3,1.2-.5.8-.4,1.7-.7,2.5-1.1,1.9-8,3.2-14,3.2-14s13.8-5.8,23.9-23A67,67,0,0,1,165.77,180.72Z"/></g><path class="cls-9" d="M141.87,151.82s-6.1,14-9.8,24.9a17.83,17.83,0,0,0-.7,2.1c-.7,2.1-1.3,4-1.7,5.6v.3c-1.9,7.6-5.7,10.2-10.1,6.3a25.31,25.31,0,0,1-3.7-4.3,79,79,0,0,0-6.4-8.8A40.94,40.94,0,0,0,102,171c-4-3-8.7-10.5-9.8-14.9-.2-.7.4-.6.4-1.1,4.6,13.8,17.7,20.5,30.5,16,9.6-3.4,15.1-14.6,17.4-19C141.27,150.52,141.87,151.82,141.87,151.82Z"/><g class="cls-10"><path class="cls-9" d="M141.87,151.82s-6.1,14-9.8,24.9a17.83,17.83,0,0,0-.7,2.1c-.7,2.1-1.3,4-1.7,5.6v.1a3.27,3.27,0,0,1-2.2-2.6c-1.7-6.6-13.8-10.1-18-4A40.94,40.94,0,0,0,102,171c-4-3-8.7-10.5-9.8-14.9-.2-.7.4-.6.4-1.1,4.6,13.8,17.7,20.5,30.5,16,9.6-3.4,15.1-14.6,17.4-19C141.27,150.52,141.87,151.82,141.87,151.82Z"/></g><path class="cls-9" d="M139.07,150.12c-1,2.1,4.3,4.7,5.2,3.3S139.57,149,139.07,150.12Z"/><path class="cls-9" d="M91,156c.4,2.2,3.5-.7,3.5-1.8S90.77,154.82,91,156Z"/><path class="cls-7" d="M104.87,144.92c-4.1,2.3,21.6,2.2,22.9.3S115.47,139,104.87,144.92Z"/><ellipse class="cls-8" cx="125.14" cy="121.29" rx="3.1" ry="1.9" transform="translate(1.51 244.12) rotate(-88.92)"/><path class="cls-8" d="M109.77,121.42c0,1.7-.9,3.1-2,3.1s-1.9-1.4-1.9-3.1.9-3.1,2-3.1S109.77,119.72,109.77,121.42Z"/><path class="cls-11" d="M109.37,217.75l-3-.06a17.29,17.29,0,0,0-16.93-17.57l-5.82-.1a20.2,20.2,0,0,1-19.75-20.63l.6-33.1,3,.06-.6,33.1A17.19,17.19,0,0,0,83.7,197l.07,1.5,0-1.5,5.7.1A20.29,20.29,0,0,1,109.37,217.75Z"/><path class="cls-2" d="M152,213.22s-24.6,6.4-57.1,5c-2.8-.7-5.5-1.5-8.2-2.4-1.5-.5-2.9-1.1-4.3-1.6a40.3,40.3,0,0,1-4.3-1.9l-2.4-1.2a23.23,23.23,0,0,1-.3-9.1s42,9.2,80.6-3.1C156.07,198.82,156.07,209.92,152,213.22Z"/><path class="cls-12" d="M129.57,184.72a44.66,44.66,0,0,0-.6,7.3c0,2.2.2,5.6.4,9.4.4,7.9.9,17.4-.8,20.6-2.5,4.8-12.2,3.2-13.8,1.1s-2.6-7.7.2-18.6a92.93,92.93,0,0,1,4.4-13.5,38,38,0,0,1,1.6-3.5c2.8-5.6,6.5-10.1,10.9-10.9a17.83,17.83,0,0,0-.7,2.1A29.69,29.69,0,0,0,129.57,184.72Z"/><g class="cls-10"><path class="cls-12" d="M129.57,184.72a44.66,44.66,0,0,0-.6,7.3c0,2.2.2,5.6.4,9.4-1.2-5.7-4.2-16.6-8.3-13.9,2.8-5.6,6.5-10.1,10.9-10.9a17.83,17.83,0,0,0-.7,2.1A24.61,24.61,0,0,0,129.57,184.72Z"/></g><g class="cls-13"><path class="cls-14" d="M172.47,146.12c-2.5-7.7-5.4-16.3-6.2-24.5a2,2,0,0,0-1.3.2l-3,1.3-4-8a35.16,35.16,0,0,0-6.9-9.3,5.64,5.64,0,0,0-2.2-4.5,37,37,0,0,0-22.2-7.4h-16.5a37,37,0,0,0-22.2,7.4,4.61,4.61,0,0,0-1.8,4.2c-1.1,1.1,2.8,6.2,2.8,6.2-4,4.4-7.3,11.4-7.3,11.4l-8.6-1.4A2.39,2.39,0,0,0,70,123h0l-.5,1.1c-1.6.2-2.9.8-3.3,1.9L59,143.12a3.87,3.87,0,0,0,1,3.8h0a6.09,6.09,0,0,1,1.9-.3c3.5,0,7.9,2.6,6.7,5-.2.4-1,2-1.1,2.3l3.3,1.5a2.55,2.55,0,0,0,3.2-1.3h0l1.5-3.7c.1-.1.1-.2.2-.3L83,133c0-.1.1-.2.1-.3l1.5-3.7A2.32,2.32,0,0,0,83.4,126l-.13,0h0l-1.6-.7,4.1-7.7a29,29,0,0,1,4.9-6.6,5.26,5.26,0,0,0,4.2-1,25.89,25.89,0,0,1,15.6-5.2H127a25.89,25.89,0,0,1,15.6,5.2,5.46,5.46,0,0,0,3.3,1.1,2.74,2.74,0,0,0,.9-.1c1,1.1,2,2.2,2.9,3.4l.2-.1.4-.2c.7-.4,1.4-.6,2-.1.1.1.1.2.2.3h0v.2h0v.1a.37.37,0,0,0,.1.3,1.09,1.09,0,0,1-.2.8v.1a6.72,6.72,0,0,0,.6,1.2,9.63,9.63,0,0,1,.7,1.4c.2.4.3.9.5,1.4a3.47,3.47,0,0,0,.5.8,4.15,4.15,0,0,1,.9,1.4c.1.2.1.4.2.6a.37.37,0,0,0,.1.3h0l.1.1a1.27,1.27,0,0,1-.5,1.7c-.1,0-.1.1-.2.1l.5,1-.4.2a2.39,2.39,0,0,0-1.3,3.1h0l1.6,3.7a.37.37,0,0,0,.1.3l7.3,17.1c0,.1.1.2.2.3l1.6,3.7a2.47,2.47,0,0,0,3.2,1.3h0l2.9-1.2,5,10.4a7,7,0,0,1-3.16,9.38l0,0c-.1.1-.2.1-.4.2l-15.6,6.9a1.59,1.59,0,0,0-1.6-.2l-8.3,3.4a1.67,1.67,0,0,0-.92,2.16l0,0h0v.1a2.26,2.26,0,0,0,.1,1.8,2.54,2.54,0,0,0,1.2,1.3,1.57,1.57,0,0,0,2.06.82l0,0,8.3-3.4a1.7,1.7,0,0,0,1-1.3l15.8-6.7a12.46,12.46,0,0,0,5.6-4.8c-1.7-7.9-6.9-16.7-10.1-22.7C168.67,149.82,173,147.52,172.47,146.12Z"/></g><path class="cls-15" d="M159.17,126.82a3.51,3.51,0,0,1-3.12-1.91l-5-9.8A28,28,0,0,0,126,99.62h-16.5a28.11,28.11,0,0,0-24.72,14.76l-5.1,9.5a3.5,3.5,0,1,1-6.16-3.31l5.1-9.5a35.08,35.08,0,0,1,30.88-18.45H126A34.92,34.92,0,0,1,157.3,112l5,9.78a3.5,3.5,0,0,1-3.12,5.09Z"/><path class="cls-16" d="M63.07,146.62h0c-3.6-1.6-5.9-4.5-5-6.6l7.3-17.1c.9-2.1,4.6-2.6,8.2-1h0c3.6,1.5,9.2,5.9,8.3,8L74.57,147C73.67,149,66.67,148.12,63.07,146.62Z"/><path class="cls-14" d="M69.67,152.12l-9.9-4.2a2.47,2.47,0,0,1-1.3-3.2l10.6-25a2.47,2.47,0,0,1,3.2-1.3l9.9,4.2a2.47,2.47,0,0,1,1.3,3.2l-10.6,25A2.47,2.47,0,0,1,69.67,152.12Z"/><rect class="cls-2" x="53.41" y="134.12" width="32" height="1" transform="translate(-81.62 146.02) rotate(-67.04)"/><path class="cls-14" d="M90.47,107.82a5.5,5.5,0,0,1-3.3-9.9,37.34,37.34,0,0,1,22.2-7.4h16.56a37.06,37.06,0,0,1,22.15,7.41,5.5,5.5,0,0,1-6.62,8.79,26,26,0,0,0-15.54-5.2H109.37a26.25,26.25,0,0,0-15.6,5.2A5.5,5.5,0,0,1,90.47,107.82Z"/><path class="cls-15" d="M147.07,186.22a2.5,2.5,0,0,1-1-4.8L171,170.9a3.17,3.17,0,0,1,.4-.18l.08-.05a7,7,0,0,0,3.25-9.36l-6.5-13.5a2.5,2.5,0,1,1,4.5-2.17l6.5,13.5a12,12,0,0,1-5.37,15.94,3.84,3.84,0,0,1-.5.25,1.89,1.89,0,0,1-.21.09L148,186A2.38,2.38,0,0,1,147.07,186.22Z"/><path class="cls-14" d="M145.47,180.72l8.3-3.4a1.64,1.64,0,0,1,2.17.83l0,.07,1.3,3.1a1.65,1.65,0,0,1-.82,2.17l-.08,0-8.3,3.4a1.65,1.65,0,0,1-2.17-.82l0-.08-1.3-3.1A1.74,1.74,0,0,1,145.47,180.72Z"/><path class="cls-16" d="M173.47,146.62h0c3.6-1.6,5.9-4.5,5-6.6l-7.3-17.1c-.9-2.1-4.6-2.6-8.2-1h0c-3.6,1.5-9.2,5.9-8.3,8L162,147C162.87,149,169.87,148.12,173.47,146.62Z"/><path class="cls-14" d="M154.37,122.72l9.9-4.2a2.56,2.56,0,0,1,3.2,1.3l10.6,25a2.55,2.55,0,0,1-1.3,3.2l-9.9,4.2a2.55,2.55,0,0,1-3.2-1.3l-10.6-25A2.47,2.47,0,0,1,154.37,122.72Z"/><rect class="cls-2" x="166.58" y="118.74" width="1" height="32" transform="translate(-39.32 75.85) rotate(-22.96)"/><path class="cls-2" d="M5.55,174.61a8.75,8.75,0,0,1,1.66-4.51,9,9,0,0,1,3.92-3,9,9,0,0,1,4.89-.67,8.74,8.74,0,0,1,4.38,2,10.73,10.73,0,0,1,3,4.2,11,11,0,0,1,.93,4.57,8.33,8.33,0,0,1-1.13,4.08l-4.54-2.16a4.83,4.83,0,0,0,.42-4.36,4,4,0,0,0-2.27-2.3,4.47,4.47,0,0,0-3.4.2,4.47,4.47,0,0,0-2.52,2.28,3.92,3.92,0,0,0,.06,3.23,4.81,4.81,0,0,0,3.39,2.76l-1.64,4.76A8.55,8.55,0,0,1,9,183.58a11,11,0,0,1-2.61-3.88A10.7,10.7,0,0,1,5.55,174.61Z"/><path class="cls-2" d="M14,192.3a8.83,8.83,0,0,1,4.16-8.41,8.81,8.81,0,0,1,9.37-.26,11,11,0,0,1,3.76,3.67A10.9,10.9,0,0,1,33,192.24a9,9,0,0,1-13.54,8.67A11.66,11.66,0,0,1,14,192.3ZM21.33,196a3.84,3.84,0,0,0,2.06.37,4.89,4.89,0,0,0,2.25-.81,4.83,4.83,0,0,0,1.67-1.7,3.83,3.83,0,0,0,.53-2,3.91,3.91,0,0,0-.62-2,3.8,3.8,0,0,0-1.54-1.39,3.86,3.86,0,0,0-2.06-.37,4.89,4.89,0,0,0-2.25.81,5,5,0,0,0-1.68,1.7,3.85,3.85,0,0,0-.52,2,3.7,3.7,0,0,0,.62,2A3.74,3.74,0,0,0,21.33,196Z"/><path class="cls-2" d="M48.58,208.81l-12.82,12.1-3.36-3.55L33.63,207l-5.83,5.49-4-4.21,12.82-12.11L40,199.72l-1.23,10.37,5.83-5.5Z"/><path class="cls-2" d="M49.87,215.51l-4.12-3.13,2.79-3.67,13,9.85-2.79,3.67L54.6,219.1l-7.88,10.37L42,225.88Z"/><path class="cls-2" d="M68.12,237.09,66,241l-12.86-7,8.47-15.47,12.57,6.88L72,229.33l-7.45-4.08-1,1.81,6.54,3.58L68,234.4l-6.54-3.58-1.11,2Z"/><path class="cls-2" d="M80.49,245.71A8.75,8.75,0,0,1,78,241.59a9.58,9.58,0,0,1,2.63-9.18,8.8,8.8,0,0,1,4.28-2.18,10.77,10.77,0,0,1,5.17.27,11.07,11.07,0,0,1,4.16,2.13,8.5,8.5,0,0,1,2.47,3.44l-4.53,2.18a4.78,4.78,0,0,0-3.14-3,3.9,3.9,0,0,0-3.21.32,5.14,5.14,0,0,0-1.77,6.18,4,4,0,0,0,2.55,2,4.82,4.82,0,0,0,4.28-.92L93.58,247a8.47,8.47,0,0,1-3.91,1.61,11,11,0,0,1-4.66-.4A10.7,10.7,0,0,1,80.49,245.71Z"/><path class="cls-2" d="M99.6,250.2a8.87,8.87,0,0,1-3.2-3.63,9,9,0,0,1-.78-4.86,8.86,8.86,0,0,1,5.65-7.49,10.83,10.83,0,0,1,5.21-.64,10.68,10.68,0,0,1,5,1.71,8.83,8.83,0,0,1,3.2,3.64,9.39,9.39,0,0,1-1,9.44,8.77,8.77,0,0,1-3.87,2.9A11.57,11.57,0,0,1,99.6,250.2Zm7.51-3.4a3.91,3.91,0,0,0,1.57-1.38,4.86,4.86,0,0,0,.77-2.26,4.8,4.8,0,0,0-.28-2.37,3.84,3.84,0,0,0-6.81-.72,5.41,5.41,0,0,0-.49,4.64,3.91,3.91,0,0,0,1.25,1.67,4,4,0,0,0,4,.42Z"/><path class="cls-2" d="M134.09,251.07l-.85-8-3.17,6.79-2.61.27L123,244.37l.77,7.73-5.39.53-1.75-17.55,4.86-.48,6.65,8.78,4.63-9.91,4.86-.48,1.81,17.54Z"/><path class="cls-2" d="M139,232.2l5.76-1.45,4.3,17.1-5.76,1.45Z"/><path class="cls-2" d="M160.19,234.13l4.81-1.87,2.71,7a12.1,12.1,0,0,1-2.78,2.86,15,15,0,0,1-3.57,2,10.77,10.77,0,0,1-5.15.74,8.72,8.72,0,0,1-4.46-1.78,9,9,0,0,1-2.92-4,9.11,9.11,0,0,1-.54-4.91,8.65,8.65,0,0,1,2.12-4.34,11.13,11.13,0,0,1,4.38-3,12,12,0,0,1,4.64-.87,8.73,8.73,0,0,1,4.1,1.12l-2.33,4.5a5,5,0,0,0-4.39-.37,4.17,4.17,0,0,0-2.48,2.24,5.06,5.06,0,0,0,2.32,6,4,4,0,0,0,3.29,0,5.32,5.32,0,0,0,1.86-1.18Z"/><path class="cls-2" d="M175.07,236.38a8.86,8.86,0,0,1-8.32-4.32,8.82,8.82,0,0,1-.08-9.38,11.67,11.67,0,0,1,8.72-5.35,9,9,0,0,1,8.4,13.7,11.67,11.67,0,0,1-8.72,5.35ZM179,229.1a3.82,3.82,0,0,0,.41-2,5.41,5.41,0,0,0-2.44-4,3.94,3.94,0,0,0-2-.57,4,4,0,0,0-3.41,2.1,3.82,3.82,0,0,0-.41,2,4.88,4.88,0,0,0,.77,2.26,4.81,4.81,0,0,0,1.67,1.71,3.94,3.94,0,0,0,2,.57,3.84,3.84,0,0,0,2-.59A3.74,3.74,0,0,0,179,229.1Z"/><path class="cls-2" d="M203.18,209.23l3.24,3.28-10.06,9.93-2.57-2.6.4-8.67a5.76,5.76,0,0,0-.15-1.73,2.41,2.41,0,0,0-.57-1,1.26,1.26,0,0,0-1-.42,1.93,1.93,0,0,0-1.16.63,2.88,2.88,0,0,0-.77,1.37,2.81,2.81,0,0,0,.07,1.62l-4.76,1.56a7.32,7.32,0,0,1,0-4.2,10.48,10.48,0,0,1,5.68-6.19,5.82,5.82,0,0,1,3.15-.39,4.81,4.81,0,0,1,2.68,1.43,6,6,0,0,1,1.48,2.38,10.13,10.13,0,0,1,.32,3.74l-.18,3.4Z"/><path class="cls-2" d="M215.83,195.33l-1.4,1.87,2.42,1.82-3.47,4.61L211,201.82l-5.49,7.32-3-2.27-4.18-12.48,3.65-4.88,4,11.32,1.43-1.92-2.15-1.61,3.35-4.48,2.16,1.62,1.4-1.88Z"/><path class="cls-2" d="M212,171.16l15.7,8L225,184.49l-5.78-3-2.51,4.89,5.79,3-2.71,5.29-15.7-8,2.71-5.29,5.56,2.84,2.51-4.89-5.57-2.84Z"/><path class="cls-2" d="M212,170.45l2.32-6.4,9.84,4.8-1.55,4.26Zm16.32,4.87a2.83,2.83,0,0,1-2.33.14,2.7,2.7,0,0,1-1.68-1.6,3.43,3.43,0,0,1,0-2.54,3.48,3.48,0,0,1,1.62-2,2.77,2.77,0,0,1,2.32-.15,2.85,2.85,0,0,1,1.69,1.61,3.69,3.69,0,0,1-1.64,4.5Z"/><path class="cls-17" d="M39.13,58.11,43,61.26,32.72,74,17.41,61.6,27.48,49.15l3.89,3.15-6,7.38,1.79,1.45,5.24-6.48,3.72,3-5.24,6.48,2,1.63Z"/><path class="cls-17" d="M57.2,49.21l-5.69-7,1.2,8.3-2.27,1.83-7.66-2.66,5.45,6.73-4.71,3.81L31.13,45l4.25-3.43L47,45.65,45.22,33.56l4.25-3.44L61.9,45.4Z"/><path class="cls-17" d="M75.89,32.93l2.27,4.46-14.6,7.43L54.62,27.27,68.89,20l2.28,4.46-8.45,4.31,1,2.05L71.19,27l2.17,4.27-7.43,3.78,1.18,2.3Z"/><path class="cls-17" d="M85.89,29.75l-1.73.52L85.59,35l-6.36,1.91L73.56,18.06l9.08-2.73a11.46,11.46,0,0,1,4.81-.51,7,7,0,0,1,3.74,1.58,7.1,7.1,0,0,1,2.19,3.46,7,7,0,0,1,.14,3.8,6.81,6.81,0,0,1-1.92,3.2l5.71,4.63-6.79,2Zm-.07-9.4a2.92,2.92,0,0,0-2.11,0l-2.32.7,1.33,4.42,2.32-.7a3,3,0,0,0,1.77-1.16A2.18,2.18,0,0,0,87,21.79,2.16,2.16,0,0,0,85.82,20.35Z"/><path class="cls-17" d="M109.93,19.84l5.74-.56.8,8.29a13.31,13.31,0,0,1-3.85,2.24,16.51,16.51,0,0,1-4.45,1.08,11.87,11.87,0,0,1-5.75-.75,9.9,9.9,0,0,1-4.27-3.26,10.21,10.21,0,0,1-1.93-5.17,10.15,10.15,0,0,1,.9-5.45,9.67,9.67,0,0,1,3.6-4,12.21,12.21,0,0,1,5.6-1.86,13.08,13.08,0,0,1,5.26.46,9.72,9.72,0,0,1,4.07,2.45l-3.87,4.13a5.68,5.68,0,0,0-4.6-1.73,4.66,4.66,0,0,0-3.35,1.66,4.93,4.93,0,0,0-.94,3.71,5,5,0,0,0,1.62,3.43,4.47,4.47,0,0,0,3.54,1,6.1,6.1,0,0,0,2.36-.71Z"/><path class="cls-17" d="M134.88,26.23l-.45,5-16.31-1.45,1.74-19.62,16,1.42-.44,5-9.45-.84-.2,2.3,8.3.73-.43,4.77-8.29-.74-.23,2.58ZM130.35,9.47,128.19,7.1l-2.55,2-3.92-.35,4-4.16,5.38.48,3.19,4.8Z"/><path class="cls-17" d="M159.64,17.69l-5.39,19L149,35.14l-4.75-10.65-2.45,8.6-6.23-1.77,5.4-19,5.25,1.5L151,24.53l2.45-8.61Z"/><path class="cls-17" d="M160.3,38.68a9.87,9.87,0,0,1-1.82-5,10.17,10.17,0,0,1,1.18-5.39,10.08,10.08,0,0,1,3.7-4.09,9.76,9.76,0,0,1,5.16-1.46,12,12,0,0,1,5.61,1.41,12.3,12.3,0,0,1,4.09,3.24,9.55,9.55,0,0,1,2,4.3l-5.44,1.41A5.42,5.42,0,0,0,172,29a4.44,4.44,0,0,0-3.59-.34,5,5,0,0,0-2.76,2.61,5,5,0,0,0-.52,3.77,4.36,4.36,0,0,0,2.37,2.72,5.36,5.36,0,0,0,4.88-.08l2,5.25a9.55,9.55,0,0,1-4.64.9,12.52,12.52,0,0,1-5-1.44A12,12,0,0,1,160.3,38.68Z"/><path class="cls-17" d="M184.47,30.72l5.43,3.82L178.57,50.65l-5.43-3.82Z"/><path class="cls-17" d="M192.48,58.3l-5.42-5.16-3.33,1.57-4.89-4.65,19.82-8.34,4.73,4.5L196,66.43l-5-4.74Zm2-4.73,2-4.91-4.8,2.27Z"/><path class="cls-17" d="M197.51,68.16a3.15,3.15,0,0,1,1.28-2.27,3,3,0,0,1,2.52-.6,4.25,4.25,0,0,1,3.23,4.26,3.11,3.11,0,0,1-1.27,2.27,3.19,3.19,0,0,1-2.54.61,4.11,4.11,0,0,1-3.22-4.27ZM205,63a11.5,11.5,0,0,1,2.55.19,10.37,10.37,0,0,0,1.5.15,1.41,1.41,0,0,0,.91-.28,1.1,1.1,0,0,0,.45-1,2.31,2.31,0,0,0-.53-1.29,3,3,0,0,0-1.43-1,3.77,3.77,0,0,0-1.86-.14l-1-5.51a8,8,0,0,1,4.68.64,11.26,11.26,0,0,1,4.25,3.62,10,10,0,0,1,2.24,5.29,4.5,4.5,0,0,1-1.88,4.1,5,5,0,0,1-1.9.92,5.76,5.76,0,0,1-1.77.13,17,17,0,0,1-1.94-.34,10.21,10.21,0,0,0-1.79-.27,1.62,1.62,0,0,0-1.09.33l-3.49-4.63A3.88,3.88,0,0,1,205,63Z"/></g></svg>