<svg width="16" height="16" viewBox="0 0 16 16" fill="none" xmlns="http://www.w3.org/2000/svg">
<path d="M8.04638 7.38537L8.06345 7.37744C8.0582 7.36951 8.05295 7.36026 8.04901 7.35234C8.04375 7.35366 8.03718 7.35366 8.03062 7.35498L4.24503 9.05429C3.67365 9.31064 3.00243 9.05165 2.74761 8.47816C2.49279 7.90468 2.75024 7.22812 3.32031 6.97177L7.10852 5.27246L6.19825 3.21901L6.20613 3.21505C6.19693 3.20712 6.18774 3.19919 6.18117 3.18994L2.3969 4.88793C0.682746 5.65699 -0.0882948 7.68401 0.676178 9.40843C1.44065 11.1315 3.45691 11.9085 5.16975 11.1395L8.95797 9.43882L8.04638 7.38537Z" fill="#75B7F0"/>
<path d="M9.74558 11.4954L4.47852 13.8593L5.36362 15.8552L10.6307 13.4913L9.74558 11.4954Z" fill="#75B7F0"/>
<path d="M15.3522 5.42707C14.7769 4.06207 13.4121 3.27452 12.0185 3.3723C12.0172 2.93492 11.9318 2.48961 11.7518 2.0628C11.0281 0.344987 9.04992 -0.459742 7.34233 0.268347L5.33789 1.12329L6.21401 3.20052L8.21845 2.34558C8.78721 2.10244 9.4466 2.37069 9.68698 2.94285C9.92867 3.51501 9.66202 4.17835 9.09326 4.42017L7.08882 5.27511L7.96494 7.35235L9.22462 6.81454L11.8188 5.70721C12.3876 5.46407 13.047 5.73232 13.2874 6.30448C13.529 6.87664 13.2624 7.53998 12.6936 7.7818L8.84501 9.42562L9.72113 11.5028L13.5684 9.86167C15.276 9.13359 16.076 7.14356 15.3522 5.42707Z" fill="#75B7F0"/>
</svg>
