<svg width="24" height="24" viewBox="0 0 24 24" fill="none" xmlns="http://www.w3.org/2000/svg">
<path fill-rule="evenodd" clip-rule="evenodd" d="M19 8C19.5523 8 20 8.44772 20 9V13C20 13.5523 19.5523 14 19 14C18.4477 14 18 13.5523 18 13V9C18 8.44772 18.4477 8 19 8Z" fill="#2D9CDB"/>
<path fill-rule="evenodd" clip-rule="evenodd" d="M16 11C16 10.4477 16.4477 10 17 10H21C21.5523 10 22 10.4477 22 11C22 11.5523 21.5523 12 21 12H17C16.4477 12 16 11.5523 16 11Z" fill="#2D9CDB"/>
<path fill-rule="evenodd" clip-rule="evenodd" d="M3.53139 15.2081C4.47725 14.4199 5.7269 14 7 14H13C14.2731 14 15.5228 14.4199 16.4686 15.2081C17.4198 16.0007 18 17.1191 18 18.3333V20C18 20.4304 17.7246 20.8126 17.3162 20.9487C15.7363 21.4753 14.0536 22 10.2 22C7.43485 22 5.92797 21.8757 4.90134 21.6676C4.19742 21.5249 3.66604 21.3195 3.21113 21.1436C3.0247 21.0716 2.85112 21.0045 2.68377 20.9487C2.27543 20.8126 2 20.4304 2 20V18.3333C2 17.1191 2.58021 16.0007 3.53139 15.2081ZM7 16C6.15137 16 5.36619 16.2825 4.81176 16.7445C4.26264 17.2021 4 17.7795 4 18.3333V19.3C4.03829 19.3149 4.0754 19.3295 4.11166 19.3438C4.47722 19.4876 4.75678 19.5976 5.29866 19.7074C6.12203 19.8743 7.46515 20 10.2 20C13.2293 20 14.7478 19.6628 16 19.2736V18.3333C16 17.7795 15.7374 17.2021 15.1882 16.7445C14.6338 16.2825 13.8486 16 13 16H7Z" fill="#2D9CDB"/>
<path fill-rule="evenodd" clip-rule="evenodd" d="M10 5C8.34315 5 7 6.34315 7 8C7 9.65685 8.34315 11 10 11C11.6569 11 13 9.65685 13 8C13 6.34315 11.6569 5 10 5ZM5 8C5 5.23858 7.23858 3 10 3C12.7614 3 15 5.23858 15 8C15 10.7614 12.7614 13 10 13C7.23858 13 5 10.7614 5 8Z" fill="#2D9CDB"/>
</svg>
