<svg width="24" height="24" viewBox="0 0 24 24" fill="none" xmlns="http://www.w3.org/2000/svg">
<path d="M10.034 8.37164C9.87431 7.95818 9.71198 8.01418 9.59098 8.00764C9.47632 8.00182 9.34532 8 9.21399 8C9.08265 8 8.86966 8.05309 8.68899 8.26546C8.50833 8.47782 8 8.99055 8 10.0342C8 11.0778 8.70533 12.0855 8.80366 12.2273C8.90232 12.3688 10.1916 14.5102 12.166 15.4288C12.6356 15.647 13.0023 15.7775 13.2879 15.8753C13.7593 16.0368 14.1886 16.0139 14.5279 15.9593C14.9059 15.8986 15.6926 15.4462 15.8566 14.9513C16.0206 14.456 16.0206 14.0317 15.9712 13.9433C15.9219 13.8549 15.7906 13.8019 15.5939 13.6957C15.3972 13.5895 14.4293 13.0764 14.2486 13.0062C14.0679 12.9353 13.9369 12.9 13.8056 13.1124C13.6743 13.3248 13.2973 13.8019 13.1826 13.9437C13.0679 14.0851 12.9529 14.1029 12.7563 13.9968C12.5596 13.8906 11.925 13.6669 11.1736 12.9444C10.5883 12.3822 10.1933 11.688 10.0786 11.4757C9.96398 11.2633 10.0663 11.1487 10.165 11.0429C10.2536 10.9477 10.3616 10.7953 10.4603 10.6713C10.559 10.5473 10.5916 10.4589 10.657 10.3175C10.7223 10.176 10.6896 10.052 10.6403 9.94583C10.5916 9.83965 10.198 8.79637 10.034 8.37164Z" fill="#21CE69"/>
<path fill-rule="evenodd" clip-rule="evenodd" d="M3.00002 12C3.00002 7.02953 7.02956 3 12 3C16.9705 3 21 7.02953 21 12C21 16.9705 16.9705 21 12 21C10.5514 21 9.18217 20.6557 7.96928 20.0469L4.24049 20.9707C3.895 21.0562 3.53005 20.9517 3.28223 20.6963C3.03441 20.4408 2.94107 20.0728 3.03714 19.7301L4.03145 16.1829C3.37369 14.933 3.00002 13.5093 3.00002 12ZM12 5C8.13413 5 5.00002 8.1341 5.00002 12C5.00002 13.2964 5.35323 14.5079 5.96685 15.5484C6.10522 15.783 6.14189 16.064 6.06836 16.3263L5.42641 18.6164L7.85919 18.0137C8.10574 17.9526 8.3663 17.9877 8.58796 18.1117C9.59765 18.6767 10.7596 19 12 19C15.8659 19 19 15.8659 19 12C19 8.1341 15.8659 5 12 5Z" fill="#21CE69"/>
</svg>
