<svg width="97" height="162" viewBox="0 0 97 162" fill="none" xmlns="http://www.w3.org/2000/svg">
<circle cx="49.3269" cy="44.3259" r="40.4148" fill="#BADBFE"/>
<path d="M87.7913 16.0908C85.4474 8.78873 80.4507 3.42967 74.0822 1.38745C62.3411 -2.37765 52.6863 2.46339 49.0005 4.78095C45.3141 2.46321 35.6592 -2.37765 23.9188 1.38745C17.5484 3.43018 12.5511 8.79131 10.208 16.0962C7.12675 25.7019 9.11655 36.5835 15.5313 45.2041C18.3201 48.9525 20.2057 53.0847 21.1356 57.4862C21.5486 59.4418 21.9077 61.5934 22.2026 63.8814C23.0883 70.7524 24.3926 76.2672 26.0797 80.2724C28.1007 85.0703 30.7078 87.6613 33.8287 87.9734C34.0065 87.9911 34.1819 87.9999 34.3564 87.9999C37.4281 87.9997 39.9954 85.2429 41.9926 79.7939C43.4692 75.7657 44.6331 70.3679 45.2703 64.5947C45.6264 61.3665 46.4595 58.7526 47.6791 57.0356C48.1158 56.421 48.7489 56.3546 49.0007 56.3546C49.2525 56.3546 49.8855 56.421 50.3222 57.0358C51.5418 58.7526 52.3749 61.3665 52.731 64.5948C53.3682 70.3679 54.5321 75.7658 56.0087 79.7941C58.0059 85.2432 60.5728 88.0002 63.6449 88.0001C63.8192 88.0001 63.9952 87.9911 64.1726 87.9736C67.2935 87.6615 69.9007 85.0705 71.9216 80.2726C73.6085 76.2674 74.913 70.7526 75.7987 63.8815C76.0937 61.5932 76.4527 59.4418 76.8655 57.4874C77.7947 53.0893 79.6831 48.953 82.4783 45.1932C88.8873 36.5727 90.8735 25.6932 87.7913 16.0908ZM78.3507 42.1246C75.1097 46.4842 72.9169 51.2953 71.8332 56.4244C71.392 58.5123 71.0099 60.8002 70.6975 63.2241C68.8947 77.2101 65.5354 82.6089 63.6931 82.8519C63.3062 82.7149 61.9827 81.4427 60.5599 77.2337C59.3541 73.6669 58.3895 68.978 57.8435 64.0306C57.3851 59.8758 56.2653 56.5203 54.5153 54.057C53.2494 52.275 51.1878 51.2111 49.0005 51.2111C46.8132 51.2111 44.7516 52.2748 43.4855 54.0572C41.7355 56.5207 40.6159 59.8762 40.1573 64.0307C39.6113 68.9781 38.6467 73.6671 37.441 77.2338C36.0182 81.4429 34.6946 82.7151 34.3077 82.8521C32.4656 82.609 29.1061 77.2103 27.3033 63.2243C26.9909 60.8009 26.6088 58.5127 26.1674 56.4235C25.083 51.2903 22.8927 46.4828 19.6573 42.1342C14.2317 34.8424 12.5303 25.6959 15.1055 17.6674C16.9351 11.9634 20.7198 7.81489 25.4892 6.28554C30.5241 4.67078 35.7159 4.77425 40.9203 6.59268C44.8954 7.98178 47.3898 9.90317 47.4084 9.9176L48.9967 11.1594L50.5862 9.92242C50.611 9.90317 53.1054 7.98178 57.0805 6.59268C62.2849 4.77407 67.4765 4.67078 72.5116 6.28554H72.5118C77.2796 7.81437 81.0639 11.9614 82.8941 17.663C85.47 25.6883 83.7717 34.8329 78.3507 42.1246Z" fill="#00309E"/>
<path d="M11.9618 136C11.8445 135.616 11.7111 135.221 11.5618 134.816C11.4231 134.411 11.2845 134.005 11.1458 133.6H6.82581C6.68715 134.005 6.54315 134.411 6.39381 134.816C6.25515 135.221 6.12715 135.616 6.00981 136H3.41781C3.83381 134.805 4.22848 133.701 4.60181 132.688C4.97515 131.675 5.33781 130.72 5.68981 129.824C6.05248 128.928 6.40448 128.08 6.74581 127.28C7.09781 126.469 7.46048 125.68 7.83381 124.912H10.2178C10.5805 125.68 10.9378 126.469 11.2898 127.28C11.6418 128.08 11.9938 128.928 12.3458 129.824C12.7085 130.72 13.0765 131.675 13.4498 132.688C13.8231 133.701 14.2178 134.805 14.6338 136H11.9618ZM8.96981 127.424C8.91648 127.584 8.83648 127.803 8.72981 128.08C8.62315 128.357 8.50048 128.677 8.36181 129.04C8.22315 129.403 8.06848 129.803 7.89781 130.24C7.73781 130.677 7.57248 131.136 7.40181 131.616H10.5538C10.3831 131.136 10.2178 130.677 10.0578 130.24C9.89781 129.803 9.74315 129.403 9.59381 129.04C9.45515 128.677 9.33248 128.357 9.22581 128.08C9.11915 127.803 9.03381 127.584 8.96981 127.424ZM18.4813 134.288C18.9186 134.288 19.228 134.245 19.4093 134.16C19.5906 134.075 19.6813 133.909 19.6813 133.664C19.6813 133.472 19.564 133.307 19.3293 133.168C19.0946 133.019 18.7373 132.853 18.2573 132.672C17.884 132.533 17.5426 132.389 17.2333 132.24C16.9346 132.091 16.6786 131.915 16.4653 131.712C16.252 131.499 16.0866 131.248 15.9693 130.96C15.852 130.672 15.7933 130.325 15.7933 129.92C15.7933 129.131 16.0866 128.507 16.6733 128.048C17.26 127.589 18.0653 127.36 19.0893 127.36C19.6013 127.36 20.092 127.408 20.5613 127.504C21.0306 127.589 21.404 127.685 21.6813 127.792L21.2653 129.648C20.988 129.552 20.684 129.467 20.3533 129.392C20.0333 129.317 19.6706 129.28 19.2653 129.28C18.5186 129.28 18.1453 129.488 18.1453 129.904C18.1453 130 18.1613 130.085 18.1933 130.16C18.2253 130.235 18.2893 130.309 18.3853 130.384C18.4813 130.448 18.6093 130.523 18.7693 130.608C18.94 130.683 19.1533 130.768 19.4093 130.864C19.932 131.056 20.364 131.248 20.7053 131.44C21.0466 131.621 21.3133 131.824 21.5053 132.048C21.708 132.261 21.8466 132.501 21.9213 132.768C22.0066 133.035 22.0493 133.344 22.0493 133.696C22.0493 134.528 21.7346 135.157 21.1053 135.584C20.4866 136.011 19.6066 136.224 18.4653 136.224C17.7186 136.224 17.0946 136.16 16.5933 136.032C16.1026 135.904 15.7613 135.797 15.5693 135.712L15.9693 133.776C16.3746 133.936 16.7906 134.064 17.2173 134.16C17.644 134.245 18.0653 134.288 18.4813 134.288ZM26.2469 134.288C26.6843 134.288 26.9936 134.245 27.1749 134.16C27.3563 134.075 27.4469 133.909 27.4469 133.664C27.4469 133.472 27.3296 133.307 27.0949 133.168C26.8603 133.019 26.5029 132.853 26.0229 132.672C25.6496 132.533 25.3083 132.389 24.9989 132.24C24.7003 132.091 24.4443 131.915 24.2309 131.712C24.0176 131.499 23.8523 131.248 23.7349 130.96C23.6176 130.672 23.5589 130.325 23.5589 129.92C23.5589 129.131 23.8523 128.507 24.4389 128.048C25.0256 127.589 25.8309 127.36 26.8549 127.36C27.3669 127.36 27.8576 127.408 28.3269 127.504C28.7963 127.589 29.1696 127.685 29.4469 127.792L29.0309 129.648C28.7536 129.552 28.4496 129.467 28.1189 129.392C27.7989 129.317 27.4363 129.28 27.0309 129.28C26.2843 129.28 25.9109 129.488 25.9109 129.904C25.9109 130 25.9269 130.085 25.9589 130.16C25.9909 130.235 26.0549 130.309 26.1509 130.384C26.2469 130.448 26.3749 130.523 26.5349 130.608C26.7056 130.683 26.9189 130.768 27.1749 130.864C27.6976 131.056 28.1296 131.248 28.4709 131.44C28.8123 131.621 29.0789 131.824 29.2709 132.048C29.4736 132.261 29.6123 132.501 29.6869 132.768C29.7723 133.035 29.8149 133.344 29.8149 133.696C29.8149 134.528 29.5003 135.157 28.8709 135.584C28.2523 136.011 27.3723 136.224 26.2309 136.224C25.4843 136.224 24.8603 136.16 24.3589 136.032C23.8683 135.904 23.5269 135.797 23.3349 135.712L23.7349 133.776C24.1403 133.936 24.5563 134.064 24.9829 134.16C25.4096 134.245 25.8309 134.288 26.2469 134.288ZM33.9806 136H31.5966V127.584H33.9806V136ZM34.2046 125.152C34.2046 125.589 34.0606 125.936 33.7726 126.192C33.4952 126.437 33.1646 126.56 32.7806 126.56C32.3966 126.56 32.0606 126.437 31.7726 126.192C31.4952 125.936 31.3566 125.589 31.3566 125.152C31.3566 124.715 31.4952 124.373 31.7726 124.128C32.0606 123.872 32.3966 123.744 32.7806 123.744C33.1646 123.744 33.4952 123.872 33.7726 124.128C34.0606 124.373 34.2046 124.715 34.2046 125.152ZM38.6376 134.288C39.0749 134.288 39.3842 134.245 39.5656 134.16C39.7469 134.075 39.8376 133.909 39.8376 133.664C39.8376 133.472 39.7202 133.307 39.4856 133.168C39.2509 133.019 38.8936 132.853 38.4136 132.672C38.0402 132.533 37.6989 132.389 37.3896 132.24C37.0909 132.091 36.8349 131.915 36.6216 131.712C36.4082 131.499 36.2429 131.248 36.1256 130.96C36.0082 130.672 35.9496 130.325 35.9496 129.92C35.9496 129.131 36.2429 128.507 36.8296 128.048C37.4162 127.589 38.2216 127.36 39.2456 127.36C39.7576 127.36 40.2482 127.408 40.7176 127.504C41.1869 127.589 41.5602 127.685 41.8376 127.792L41.4216 129.648C41.1442 129.552 40.8402 129.467 40.5096 129.392C40.1896 129.317 39.8269 129.28 39.4216 129.28C38.6749 129.28 38.3016 129.488 38.3016 129.904C38.3016 130 38.3176 130.085 38.3496 130.16C38.3816 130.235 38.4456 130.309 38.5416 130.384C38.6376 130.448 38.7656 130.523 38.9256 130.608C39.0962 130.683 39.3096 130.768 39.5656 130.864C40.0882 131.056 40.5202 131.248 40.8616 131.44C41.2029 131.621 41.4696 131.824 41.6616 132.048C41.8642 132.261 42.0029 132.501 42.0776 132.768C42.1629 133.035 42.2056 133.344 42.2056 133.696C42.2056 134.528 41.8909 135.157 41.2616 135.584C40.6429 136.011 39.7629 136.224 38.6216 136.224C37.8749 136.224 37.2509 136.16 36.7496 136.032C36.2589 135.904 35.9176 135.797 35.7256 135.712L36.1256 133.776C36.5309 133.936 36.9469 134.064 37.3736 134.16C37.8002 134.245 38.2216 134.288 38.6376 134.288ZM43.9072 125.488L46.2912 125.104V127.584H49.1552V129.568H46.2912V132.528C46.2912 133.029 46.3765 133.429 46.5472 133.728C46.7285 134.027 47.0859 134.176 47.6192 134.176C47.8752 134.176 48.1365 134.155 48.4032 134.112C48.6805 134.059 48.9312 133.989 49.1552 133.904L49.4912 135.76C49.2032 135.877 48.8832 135.979 48.5312 136.064C48.1792 136.149 47.7472 136.192 47.2352 136.192C46.5845 136.192 46.0459 136.107 45.6192 135.936C45.1925 135.755 44.8512 135.509 44.5952 135.2C44.3392 134.88 44.1579 134.496 44.0512 134.048C43.9552 133.6 43.9072 133.104 43.9072 132.56V125.488ZM50.3841 131.856C50.3841 131.109 50.4961 130.459 50.7201 129.904C50.9547 129.339 51.2587 128.869 51.6321 128.496C52.0054 128.123 52.4321 127.84 52.9121 127.648C53.4027 127.456 53.9041 127.36 54.4161 127.36C55.6107 127.36 56.5547 127.728 57.2481 128.464C57.9414 129.189 58.2881 130.261 58.2881 131.68C58.2881 131.819 58.2827 131.973 58.2721 132.144C58.2614 132.304 58.2507 132.448 58.2401 132.576H52.8321C52.8854 133.067 53.1147 133.456 53.5201 133.744C53.9254 134.032 54.4694 134.176 55.1521 134.176C55.5894 134.176 56.0161 134.139 56.4321 134.064C56.8587 133.979 57.2054 133.877 57.4721 133.76L57.7921 135.696C57.6641 135.76 57.4934 135.824 57.2801 135.888C57.0667 135.952 56.8267 136.005 56.5601 136.048C56.3041 136.101 56.0267 136.144 55.7281 136.176C55.4294 136.208 55.1307 136.224 54.8321 136.224C54.0747 136.224 53.4134 136.112 52.8481 135.888C52.2934 135.664 51.8294 135.36 51.4561 134.976C51.0934 134.581 50.8214 134.117 50.6401 133.584C50.4694 133.051 50.3841 132.475 50.3841 131.856ZM55.9841 130.944C55.9734 130.741 55.9361 130.544 55.8721 130.352C55.8187 130.16 55.7281 129.989 55.6001 129.84C55.4827 129.691 55.3281 129.568 55.1361 129.472C54.9547 129.376 54.7254 129.328 54.4481 129.328C54.1814 129.328 53.9521 129.376 53.7601 129.472C53.5681 129.557 53.4081 129.675 53.2801 129.824C53.1521 129.973 53.0507 130.149 52.9761 130.352C52.9121 130.544 52.8641 130.741 52.8321 130.944H55.9841ZM56.8161 125.68L55.9361 126.736L54.3361 125.504L52.7361 126.736L51.8241 125.68L54.3361 123.488L56.8161 125.68ZM60.1278 127.872C60.5331 127.755 61.0558 127.648 61.6958 127.552C62.3358 127.445 63.0078 127.392 63.7118 127.392C64.4265 127.392 65.0185 127.488 65.4878 127.68C65.9678 127.861 66.3465 128.123 66.6238 128.464C66.9011 128.805 67.0985 129.211 67.2158 129.68C67.3331 130.149 67.3918 130.672 67.3918 131.248V136H65.0078V131.536C65.0078 130.768 64.9065 130.224 64.7038 129.904C64.5011 129.584 64.1225 129.424 63.5678 129.424C63.3971 129.424 63.2158 129.435 63.0238 129.456C62.8318 129.467 62.6611 129.483 62.5118 129.504V136H60.1278V127.872ZM69.1497 131.792C69.1497 131.184 69.2457 130.613 69.4377 130.08C69.6404 129.536 69.9284 129.067 70.3017 128.672C70.675 128.267 71.1284 127.947 71.6617 127.712C72.195 127.477 72.803 127.36 73.4857 127.36C73.9337 127.36 74.3444 127.403 74.7177 127.488C75.091 127.563 75.4537 127.675 75.8057 127.824L75.3097 129.728C75.0857 129.643 74.8404 129.568 74.5737 129.504C74.307 129.44 74.0084 129.408 73.6777 129.408C72.9737 129.408 72.4457 129.627 72.0937 130.064C71.7524 130.501 71.5817 131.077 71.5817 131.792C71.5817 132.549 71.7417 133.136 72.0617 133.552C72.3924 133.968 72.963 134.176 73.7737 134.176C74.0617 134.176 74.371 134.149 74.7017 134.096C75.0324 134.043 75.3364 133.957 75.6137 133.84L75.9497 135.792C75.6724 135.909 75.3257 136.011 74.9097 136.096C74.4937 136.181 74.035 136.224 73.5337 136.224C72.7657 136.224 72.1044 136.112 71.5497 135.888C70.995 135.653 70.5364 135.339 70.1737 134.944C69.8217 134.549 69.5604 134.085 69.3897 133.552C69.2297 133.008 69.1497 132.421 69.1497 131.792ZM79.9337 136H77.5497V127.584H79.9337V136ZM80.1577 125.152C80.1577 125.589 80.0137 125.936 79.7257 126.192C79.4484 126.437 79.1177 126.56 78.7337 126.56C78.3497 126.56 78.0137 126.437 77.7257 126.192C77.4484 125.936 77.3097 125.589 77.3097 125.152C77.3097 124.715 77.4484 124.373 77.7257 124.128C78.0137 123.872 78.3497 123.744 78.7337 123.744C79.1177 123.744 79.4484 123.872 79.7257 124.128C80.0137 124.373 80.1577 124.715 80.1577 125.152ZM85.3907 134.336C85.6254 134.336 85.8494 134.331 86.0627 134.32C86.276 134.309 86.4467 134.293 86.5747 134.272V132.464C86.4787 132.443 86.3347 132.421 86.1427 132.4C85.9507 132.379 85.7747 132.368 85.6147 132.368C85.3907 132.368 85.1774 132.384 84.9747 132.416C84.7827 132.437 84.612 132.485 84.4627 132.56C84.3134 132.635 84.196 132.736 84.1107 132.864C84.0254 132.992 83.9827 133.152 83.9827 133.344C83.9827 133.717 84.1054 133.979 84.3507 134.128C84.6067 134.267 84.9534 134.336 85.3907 134.336ZM85.1987 127.36C85.9027 127.36 86.4894 127.44 86.9587 127.6C87.428 127.76 87.8014 127.989 88.0787 128.288C88.3667 128.587 88.5694 128.949 88.6867 129.376C88.804 129.803 88.8627 130.277 88.8627 130.8V135.76C88.5214 135.835 88.0467 135.92 87.4387 136.016C86.8307 136.123 86.0947 136.176 85.2307 136.176C84.6867 136.176 84.1907 136.128 83.7427 136.032C83.3054 135.936 82.9267 135.781 82.6067 135.568C82.2867 135.344 82.0414 135.056 81.8707 134.704C81.7 134.352 81.6147 133.92 81.6147 133.408C81.6147 132.917 81.7107 132.501 81.9027 132.16C82.1054 131.819 82.372 131.547 82.7027 131.344C83.0334 131.141 83.412 130.997 83.8387 130.912C84.2654 130.816 84.708 130.768 85.1667 130.768C85.476 130.768 85.748 130.784 85.9827 130.816C86.228 130.837 86.4254 130.869 86.5747 130.912V130.688C86.5747 130.283 86.452 129.957 86.2067 129.712C85.9614 129.467 85.5347 129.344 84.9267 129.344C84.5214 129.344 84.1214 129.376 83.7267 129.44C83.332 129.493 82.9907 129.573 82.7027 129.68L82.3987 127.76C82.5374 127.717 82.708 127.675 82.9107 127.632C83.124 127.579 83.3534 127.536 83.5987 127.504C83.844 127.461 84.1 127.429 84.3667 127.408C84.644 127.376 84.9214 127.36 85.1987 127.36ZM9.10056 152.84C9.10056 153.501 9.00456 154.099 8.81256 154.632C8.62056 155.165 8.34856 155.624 7.99656 156.008C7.65523 156.392 7.24456 156.691 6.76456 156.904C6.28456 157.107 5.7619 157.208 5.19656 157.208C4.63123 157.208 4.10856 157.107 3.62856 156.904C3.14856 156.691 2.73256 156.392 2.38056 156.008C2.03923 155.624 1.77256 155.165 1.58056 154.632C1.38856 154.099 1.29256 153.501 1.29256 152.84C1.29256 152.189 1.38856 151.597 1.58056 151.064C1.77256 150.52 2.03923 150.056 2.38056 149.672C2.73256 149.288 3.14856 148.995 3.62856 148.792C4.10856 148.579 4.63123 148.472 5.19656 148.472C5.7619 148.472 6.28456 148.579 6.76456 148.792C7.24456 148.995 7.65523 149.288 7.99656 149.672C8.34856 150.056 8.62056 150.52 8.81256 151.064C9.00456 151.597 9.10056 152.189 9.10056 152.84ZM7.54856 152.84C7.54856 151.901 7.33523 151.16 6.90856 150.616C6.49256 150.061 5.9219 149.784 5.19656 149.784C4.47123 149.784 3.89523 150.061 3.46856 150.616C3.05256 151.16 2.84456 151.901 2.84456 152.84C2.84456 153.779 3.05256 154.525 3.46856 155.08C3.89523 155.624 4.47123 155.896 5.19656 155.896C5.9219 155.896 6.49256 155.624 6.90856 155.08C7.33523 154.525 7.54856 153.779 7.54856 152.84ZM16.5701 150.44C16.3887 150.291 16.1274 150.147 15.7861 150.008C15.4447 149.869 15.0714 149.8 14.6661 149.8C14.2394 149.8 13.8714 149.88 13.5621 150.04C13.2634 150.189 13.0181 150.403 12.8261 150.68C12.6341 150.947 12.4954 151.267 12.4101 151.64C12.3247 152.013 12.2821 152.413 12.2821 152.84C12.2821 153.811 12.5221 154.563 13.0021 155.096C13.4821 155.619 14.1221 155.88 14.9221 155.88C15.3274 155.88 15.6634 155.864 15.9301 155.832C16.2074 155.789 16.4207 155.747 16.5701 155.704V150.44ZM16.5701 144.84L18.0581 144.584V156.76C17.7167 156.856 17.2794 156.952 16.7461 157.048C16.2127 157.144 15.5994 157.192 14.9061 157.192C14.2661 157.192 13.6901 157.091 13.1781 156.888C12.6661 156.685 12.2287 156.397 11.8661 156.024C11.5034 155.651 11.2207 155.197 11.0181 154.664C10.8261 154.12 10.7301 153.512 10.7301 152.84C10.7301 152.2 10.8101 151.613 10.9701 151.08C11.1407 150.547 11.3861 150.088 11.7061 149.704C12.0261 149.32 12.4154 149.021 12.8741 148.808C13.3434 148.595 13.8767 148.488 14.4741 148.488C14.9541 148.488 15.3754 148.552 15.7381 148.68C16.1114 148.808 16.3887 148.931 16.5701 149.048V144.84ZM27.9599 152.84C27.9599 153.501 27.8639 154.099 27.6719 154.632C27.4799 155.165 27.2079 155.624 26.8559 156.008C26.5146 156.392 26.1039 156.691 25.6239 156.904C25.1439 157.107 24.6213 157.208 24.0559 157.208C23.4906 157.208 22.9679 157.107 22.4879 156.904C22.0079 156.691 21.5919 156.392 21.2399 156.008C20.8986 155.624 20.6319 155.165 20.4399 154.632C20.2479 154.099 20.1519 153.501 20.1519 152.84C20.1519 152.189 20.2479 151.597 20.4399 151.064C20.6319 150.52 20.8986 150.056 21.2399 149.672C21.5919 149.288 22.0079 148.995 22.4879 148.792C22.9679 148.579 23.4906 148.472 24.0559 148.472C24.6213 148.472 25.1439 148.579 25.6239 148.792C26.1039 148.995 26.5146 149.288 26.8559 149.672C27.2079 150.056 27.4799 150.52 27.6719 151.064C27.8639 151.597 27.9599 152.189 27.9599 152.84ZM26.4079 152.84C26.4079 151.901 26.1946 151.16 25.7679 150.616C25.3519 150.061 24.7813 149.784 24.0559 149.784C23.3306 149.784 22.7546 150.061 22.3279 150.616C21.9119 151.16 21.7039 151.901 21.7039 152.84C21.7039 153.779 21.9119 154.525 22.3279 155.08C22.7546 155.624 23.3306 155.896 24.0559 155.896C24.7813 155.896 25.3519 155.624 25.7679 155.08C26.1946 154.525 26.4079 153.779 26.4079 152.84ZM30.0534 148.92C30.3948 148.835 30.8481 148.744 31.4134 148.648C31.9788 148.552 32.6294 148.504 33.3654 148.504C34.0268 148.504 34.5761 148.6 35.0134 148.792C35.4508 148.973 35.7974 149.235 36.0534 149.576C36.3201 149.907 36.5068 150.307 36.6134 150.776C36.7201 151.245 36.7734 151.763 36.7734 152.328V157H35.2854V152.648C35.2854 152.136 35.2481 151.699 35.1734 151.336C35.1094 150.973 34.9974 150.68 34.8374 150.456C34.6774 150.232 34.4641 150.072 34.1974 149.976C33.9308 149.869 33.6001 149.816 33.2054 149.816C33.0454 149.816 32.8801 149.821 32.7094 149.832C32.5388 149.843 32.3734 149.859 32.2134 149.88C32.0641 149.891 31.9254 149.907 31.7974 149.928C31.6801 149.949 31.5948 149.965 31.5414 149.976V157H30.0534V148.92ZM40.6329 148.68H43.7849V149.928H40.6329V153.768C40.6329 154.184 40.6649 154.531 40.7289 154.808C40.7929 155.075 40.8889 155.288 41.0169 155.448C41.1449 155.597 41.3049 155.704 41.4969 155.768C41.6889 155.832 41.9129 155.864 42.1689 155.864C42.6169 155.864 42.9743 155.816 43.2409 155.72C43.5183 155.613 43.7103 155.539 43.8169 155.496L44.1049 156.728C43.9556 156.803 43.6943 156.893 43.3209 157C42.9476 157.117 42.5209 157.176 42.0409 157.176C41.4756 157.176 41.0063 157.107 40.6329 156.968C40.2703 156.819 39.9769 156.6 39.7529 156.312C39.5289 156.024 39.3689 155.672 39.2729 155.256C39.1876 154.829 39.1449 154.339 39.1449 153.784V146.36L40.6329 146.104V148.68ZM52.8037 152.84C52.8037 153.501 52.7077 154.099 52.5157 154.632C52.3237 155.165 52.0517 155.624 51.6997 156.008C51.3584 156.392 50.9477 156.691 50.4677 156.904C49.9877 157.107 49.465 157.208 48.8997 157.208C48.3344 157.208 47.8117 157.107 47.3317 156.904C46.8517 156.691 46.4357 156.392 46.0837 156.008C45.7424 155.624 45.4757 155.165 45.2837 154.632C45.0917 154.099 44.9957 153.501 44.9957 152.84C44.9957 152.189 45.0917 151.597 45.2837 151.064C45.4757 150.52 45.7424 150.056 46.0837 149.672C46.4357 149.288 46.8517 148.995 47.3317 148.792C47.8117 148.579 48.3344 148.472 48.8997 148.472C49.465 148.472 49.9877 148.579 50.4677 148.792C50.9477 148.995 51.3584 149.288 51.6997 149.672C52.0517 150.056 52.3237 150.52 52.5157 151.064C52.7077 151.597 52.8037 152.189 52.8037 152.84ZM51.2517 152.84C51.2517 151.901 51.0384 151.16 50.6117 150.616C50.1957 150.061 49.625 149.784 48.8997 149.784C48.1744 149.784 47.5984 150.061 47.1717 150.616C46.7557 151.16 46.5477 151.901 46.5477 152.84C46.5477 153.779 46.7557 154.525 47.1717 155.08C47.5984 155.624 48.1744 155.896 48.8997 155.896C49.625 155.896 50.1957 155.624 50.6117 155.08C51.0384 154.525 51.2517 153.779 51.2517 152.84ZM57.3932 157.16C56.4759 157.139 55.8252 156.941 55.4412 156.568C55.0572 156.195 54.8652 155.613 54.8652 154.824V144.84L56.3532 144.584V154.584C56.3532 154.829 56.3745 155.032 56.4172 155.192C56.4599 155.352 56.5292 155.48 56.6252 155.576C56.7212 155.672 56.8492 155.747 57.0092 155.8C57.1692 155.843 57.3665 155.88 57.6012 155.912L57.3932 157.16ZM66.6162 152.84C66.6162 153.501 66.5202 154.099 66.3282 154.632C66.1362 155.165 65.8642 155.624 65.5122 156.008C65.1709 156.392 64.7602 156.691 64.2802 156.904C63.8002 157.107 63.2775 157.208 62.7122 157.208C62.1469 157.208 61.6242 157.107 61.1442 156.904C60.6642 156.691 60.2482 156.392 59.8962 156.008C59.5549 155.624 59.2882 155.165 59.0962 154.632C58.9042 154.099 58.8082 153.501 58.8082 152.84C58.8082 152.189 58.9042 151.597 59.0962 151.064C59.2882 150.52 59.5549 150.056 59.8962 149.672C60.2482 149.288 60.6642 148.995 61.1442 148.792C61.6242 148.579 62.1469 148.472 62.7122 148.472C63.2775 148.472 63.8002 148.579 64.2802 148.792C64.7602 148.995 65.1709 149.288 65.5122 149.672C65.8642 150.056 66.1362 150.52 66.3282 151.064C66.5202 151.597 66.6162 152.189 66.6162 152.84ZM65.0642 152.84C65.0642 151.901 64.8509 151.16 64.4242 150.616C64.0082 150.061 63.4375 149.784 62.7122 149.784C61.9869 149.784 61.4109 150.061 60.9842 150.616C60.5682 151.16 60.3602 151.901 60.3602 152.84C60.3602 153.779 60.5682 154.525 60.9842 155.08C61.4109 155.624 61.9869 155.896 62.7122 155.896C63.4375 155.896 64.0082 155.624 64.4242 155.08C64.8509 154.525 65.0642 153.779 65.0642 152.84ZM64.6482 145.528L62.3922 147.72L61.6402 147.048L63.6882 144.584L64.6482 145.528ZM73.9257 156.168C73.7977 156.253 73.547 156.365 73.1737 156.504C72.811 156.632 72.3844 156.696 71.8937 156.696C71.3924 156.696 70.9177 156.616 70.4697 156.456C70.0324 156.296 69.6484 156.051 69.3177 155.72C68.987 155.379 68.7257 154.957 68.5337 154.456C68.3417 153.955 68.2457 153.357 68.2457 152.664C68.2457 152.056 68.3364 151.501 68.5177 151C68.699 150.488 68.9604 150.051 69.3017 149.688C69.6537 149.315 70.0804 149.027 70.5817 148.824C71.083 148.611 71.6484 148.504 72.2777 148.504C72.971 148.504 73.5737 148.557 74.0857 148.664C74.6084 148.76 75.0457 148.851 75.3977 148.936V156.36C75.3977 157.64 75.067 158.568 74.4057 159.144C73.7444 159.72 72.7417 160.008 71.3977 160.008C70.875 160.008 70.379 159.965 69.9097 159.88C69.451 159.795 69.051 159.693 68.7097 159.576L68.9817 158.28C69.2804 158.397 69.643 158.499 70.0697 158.584C70.507 158.68 70.9604 158.728 71.4297 158.728C72.315 158.728 72.9497 158.552 73.3337 158.2C73.7284 157.848 73.9257 157.288 73.9257 156.52V156.168ZM73.9097 149.992C73.7604 149.949 73.5577 149.912 73.3017 149.88C73.0564 149.837 72.7204 149.816 72.2937 149.816C71.4937 149.816 70.875 150.077 70.4377 150.6C70.011 151.123 69.7977 151.816 69.7977 152.68C69.7977 153.16 69.8564 153.571 69.9737 153.912C70.1017 154.253 70.267 154.536 70.4697 154.76C70.683 154.984 70.923 155.149 71.1897 155.256C71.467 155.363 71.7497 155.416 72.0377 155.416C72.4324 155.416 72.795 155.363 73.1257 155.256C73.4564 155.139 73.7177 155.005 73.9097 154.856V149.992ZM79.4477 157H77.9597V148.68H79.4477V157ZM78.6957 147.176C78.429 147.176 78.1997 147.091 78.0077 146.92C77.8264 146.739 77.7357 146.499 77.7357 146.2C77.7357 145.901 77.8264 145.667 78.0077 145.496C78.1997 145.315 78.429 145.224 78.6957 145.224C78.9624 145.224 79.1864 145.315 79.3677 145.496C79.5597 145.667 79.6557 145.901 79.6557 146.2C79.6557 146.499 79.5597 146.739 79.3677 146.92C79.1864 147.091 78.9624 147.176 78.6957 147.176ZM85.6226 157.192C84.9506 157.192 84.3586 157.085 83.8466 156.872C83.3452 156.659 82.9186 156.36 82.5666 155.976C82.2252 155.592 81.9692 155.139 81.7986 154.616C81.6279 154.083 81.5426 153.496 81.5426 152.856C81.5426 152.216 81.6332 151.629 81.8146 151.096C82.0066 150.563 82.2732 150.104 82.6146 149.72C82.9559 149.325 83.3719 149.021 83.8626 148.808C84.3639 148.584 84.9186 148.472 85.5266 148.472C85.8999 148.472 86.2732 148.504 86.6466 148.568C87.0199 148.632 87.3772 148.733 87.7186 148.872L87.3826 150.136C87.1586 150.029 86.8972 149.944 86.5986 149.88C86.3106 149.816 86.0012 149.784 85.6706 149.784C84.8386 149.784 84.1986 150.045 83.7506 150.568C83.3132 151.091 83.0946 151.853 83.0946 152.856C83.0946 153.304 83.1426 153.715 83.2386 154.088C83.3452 154.461 83.5052 154.781 83.7186 155.048C83.9426 155.315 84.2252 155.523 84.5666 155.672C84.9079 155.811 85.3239 155.88 85.8146 155.88C86.2092 155.88 86.5666 155.843 86.8866 155.768C87.2066 155.693 87.4572 155.613 87.6386 155.528L87.8466 156.776C87.7612 156.829 87.6386 156.883 87.4786 156.936C87.3186 156.979 87.1372 157.016 86.9346 157.048C86.7319 157.091 86.5132 157.123 86.2786 157.144C86.0546 157.176 85.8359 157.192 85.6226 157.192ZM92.2601 155.928C92.6121 155.928 92.9214 155.923 93.1881 155.912C93.4654 155.891 93.6947 155.859 93.8761 155.816V153.336C93.7694 153.283 93.5934 153.24 93.3481 153.208C93.1134 153.165 92.8254 153.144 92.4841 153.144C92.2601 153.144 92.0201 153.16 91.7641 153.192C91.5187 153.224 91.2894 153.293 91.0761 153.4C90.8734 153.496 90.7027 153.635 90.5641 153.816C90.4254 153.987 90.3561 154.216 90.3561 154.504C90.3561 155.037 90.5267 155.411 90.8681 155.624C91.2094 155.827 91.6734 155.928 92.2601 155.928ZM92.1321 148.472C92.7294 148.472 93.2307 148.552 93.6361 148.712C94.0521 148.861 94.3827 149.08 94.6281 149.368C94.8841 149.645 95.0654 149.981 95.1721 150.376C95.2787 150.76 95.3321 151.187 95.3321 151.656V156.856C95.2041 156.877 95.0227 156.909 94.7881 156.952C94.5641 156.984 94.3081 157.016 94.0201 157.048C93.7321 157.08 93.4174 157.107 93.0761 157.128C92.7454 157.16 92.4147 157.176 92.0841 157.176C91.6147 157.176 91.1827 157.128 90.7881 157.032C90.3934 156.936 90.0521 156.787 89.7641 156.584C89.4761 156.371 89.2521 156.093 89.0921 155.752C88.9321 155.411 88.8521 155 88.8521 154.52C88.8521 154.061 88.9427 153.667 89.1241 153.336C89.3161 153.005 89.5721 152.739 89.8921 152.536C90.2121 152.333 90.5854 152.184 91.0121 152.088C91.4387 151.992 91.8867 151.944 92.3561 151.944C92.5054 151.944 92.6601 151.955 92.8201 151.976C92.9801 151.987 93.1294 152.008 93.2681 152.04C93.4174 152.061 93.5454 152.083 93.6521 152.104C93.7587 152.125 93.8334 152.141 93.8761 152.152V151.736C93.8761 151.491 93.8494 151.251 93.7961 151.016C93.7427 150.771 93.6467 150.557 93.5081 150.376C93.3694 150.184 93.1774 150.035 92.9321 149.928C92.6974 149.811 92.3881 149.752 92.0041 149.752C91.5134 149.752 91.0814 149.789 90.7081 149.864C90.3454 149.928 90.0734 149.997 89.8921 150.072L89.7161 148.84C89.9081 148.755 90.2281 148.675 90.6761 148.6C91.1241 148.515 91.6094 148.472 92.1321 148.472Z" fill="#2F2F2F"/>
</svg>
