<svg width="84" height="88" viewBox="0 0 84 88" fill="none" xmlns="http://www.w3.org/2000/svg">
<circle cx="42.325" cy="44.3259" r="40.4148" fill="#BADBFE"/>
<path d="M43.0499 67.0995C34.3362 60.8616 27.4459 53.9495 21.2001 45.1299L29.9863 39.1103L17.7473 18.1572L7.03588 25.6494C0.752471 30.0446 -1.25056 38.4244 2.37686 45.1416C12.3824 63.4923 25.1094 76.1831 43.4399 86.2118C49.934 89.7767 58.5523 87.9032 62.9372 81.5555C65.4564 77.9553 69.4913 72.2028 70.4016 70.8238L49.5999 58.6731L43.0499 67.0995ZM23.1143 37.5681L18.3496 40.8325C15.9545 37.015 13.7426 32.9319 11.7483 28.6457L16.1176 25.5896L23.1143 37.5681ZM45.8911 81.6757C28.4575 72.1471 16.4742 60.1817 6.91402 42.6912C5.05364 39.2463 5.45222 35.1326 7.68488 32.1171C18.6044 55.0882 35.058 70.6778 56.4697 80.9066C53.4531 83.1401 49.3378 83.5376 45.8911 81.6757ZM62.9989 72.4713C62.3575 73.3886 60.6801 75.786 59.9411 76.8429C55.5041 74.7811 51.283 72.4818 47.3416 69.9801L50.8991 65.4034L62.9989 72.4713Z" fill="#00309E"/>
<path d="M75.2578 0H44.1484C39.6469 0 35.9844 3.66248 35.9844 8.16406V32.8281C35.9844 37.3297 39.6469 40.9922 44.1484 40.9922H47.5859V54.4031L67.7024 40.9922H75.2576C79.7592 40.9922 83.4217 37.3297 83.4217 32.8281V8.16406C83.4219 3.66248 79.7594 0 75.2578 0ZM78.2656 32.8281C78.2656 34.4865 76.9162 35.8359 75.2578 35.8359H66.1412L52.7422 44.7688V35.8359H44.1484C42.49 35.8359 41.1406 34.4865 41.1406 32.8281V8.16406C41.1406 6.50564 42.49 5.15625 44.1484 5.15625H75.2578C76.9162 5.15625 78.2656 6.50564 78.2656 8.16406V32.8281Z" fill="#00309E"/>
<path d="M67.8773 17.9179H62.2824V12.3229H57.1261V17.9179H51.5312V23.0742H57.1261V28.6692H62.2824V23.0742H67.8773V17.9179Z" fill="#00309E"/>
</svg>
