<svg width="147" height="162" viewBox="0 0 147 162" fill="none" xmlns="http://www.w3.org/2000/svg">
<circle cx="74.325" cy="44.3259" r="40.4148" fill="#BADBFE"/>
<path d="M75.0499 67.0995C66.3362 60.8616 59.4459 53.9495 53.2001 45.1299L61.9863 39.1103L49.7473 18.1572L39.0359 25.6494C32.7525 30.0446 30.7494 38.4244 34.3769 45.1416C44.3824 63.4923 57.1094 76.1831 75.4399 86.2118C81.934 89.7767 90.5523 87.9032 94.9372 81.5555C97.4564 77.9553 101.491 72.2028 102.402 70.8238L81.5999 58.6731L75.0499 67.0995ZM55.1143 37.5681L50.3496 40.8325C47.9545 37.015 45.7426 32.9319 43.7483 28.6457L48.1176 25.5896L55.1143 37.5681ZM77.8911 81.6757C60.4575 72.1471 48.4742 60.1817 38.914 42.6912C37.0536 39.2463 37.4522 35.1326 39.6849 32.1171C50.6044 55.0882 67.058 70.6778 88.4697 80.9066C85.4531 83.1401 81.3378 83.5376 77.8911 81.6757ZM94.9989 72.4713C94.3575 73.3886 92.6801 75.786 91.9411 76.8429C87.5041 74.7811 83.283 72.4818 79.3416 69.9801L82.8991 65.4034L94.9989 72.4713Z" fill="#00309E"/>
<path d="M107.258 0H76.1484C71.6469 0 67.9844 3.66248 67.9844 8.16406V32.8281C67.9844 37.3297 71.6469 40.9922 76.1484 40.9922H79.5859V54.4031L99.7024 40.9922H107.258C111.759 40.9922 115.422 37.3297 115.422 32.8281V8.16406C115.422 3.66248 111.759 0 107.258 0ZM110.266 32.8281C110.266 34.4865 108.916 35.8359 107.258 35.8359H98.1412L84.7422 44.7688V35.8359H76.1484C74.49 35.8359 73.1406 34.4865 73.1406 32.8281V8.16406C73.1406 6.50564 74.49 5.15625 76.1484 5.15625H107.258C108.916 5.15625 110.266 6.50564 110.266 8.16406V32.8281Z" fill="#00309E"/>
<path d="M99.8773 17.9179H94.2824V12.3229H89.1261V17.9179H83.5312V23.0742H89.1261V28.6692H94.2824V23.0742H99.8773V17.9179Z" fill="#00309E"/>
<path d="M3.8135 130.448C3.8135 130.992 3.8775 131.483 4.0055 131.92C4.14417 132.357 4.33617 132.736 4.5815 133.056C4.8375 133.365 5.14683 133.605 5.5095 133.776C5.87217 133.947 6.28817 134.032 6.7575 134.032C7.21617 134.032 7.62683 133.947 7.9895 133.776C8.36283 133.605 8.67217 133.365 8.9175 133.056C9.1735 132.736 9.3655 132.357 9.4935 131.92C9.63217 131.483 9.7015 130.992 9.7015 130.448C9.7015 129.904 9.63217 129.413 9.4935 128.976C9.3655 128.528 9.1735 128.149 8.9175 127.84C8.67217 127.52 8.36283 127.275 7.9895 127.104C7.62683 126.933 7.21617 126.848 6.7575 126.848C6.28817 126.848 5.87217 126.939 5.5095 127.12C5.14683 127.291 4.8375 127.536 4.5815 127.856C4.33617 128.165 4.14417 128.544 4.0055 128.992C3.8775 129.429 3.8135 129.915 3.8135 130.448ZM12.2775 130.448C12.2775 131.397 12.1335 132.235 11.8455 132.96C11.5682 133.675 11.1842 134.277 10.6935 134.768C10.2028 135.248 9.61617 135.611 8.9335 135.856C8.2615 136.101 7.53617 136.224 6.7575 136.224C6.00017 136.224 5.2855 136.101 4.6135 135.856C3.9415 135.611 3.35483 135.248 2.8535 134.768C2.35217 134.277 1.9575 133.675 1.6695 132.96C1.3815 132.235 1.2375 131.397 1.2375 130.448C1.2375 129.499 1.38683 128.667 1.6855 127.952C1.98417 127.227 2.38417 126.619 2.8855 126.128C3.3975 125.637 3.98417 125.269 4.6455 125.024C5.3175 124.779 6.0215 124.656 6.7575 124.656C7.51483 124.656 8.2295 124.779 8.9015 125.024C9.5735 125.269 10.1602 125.637 10.6615 126.128C11.1628 126.619 11.5575 127.227 11.8455 127.952C12.1335 128.667 12.2775 129.499 12.2775 130.448ZM19.2701 129.696C19.0568 129.643 18.8061 129.589 18.5181 129.536C18.2301 129.472 17.9208 129.44 17.5901 129.44C17.4408 129.44 17.2595 129.456 17.0461 129.488C16.8435 129.509 16.6888 129.536 16.5821 129.568V136H14.1981V128.032C14.6248 127.883 15.1261 127.744 15.7021 127.616C16.2888 127.477 16.9395 127.408 17.6541 127.408C17.7821 127.408 17.9368 127.419 18.1181 127.44C18.2995 127.451 18.4808 127.472 18.6621 127.504C18.8435 127.525 19.0248 127.557 19.2061 127.6C19.3875 127.632 19.5421 127.675 19.6701 127.728L19.2701 129.696ZM23.3321 136H20.9481V127.584H23.3321V136ZM23.5561 125.152C23.5561 125.589 23.4121 125.936 23.1241 126.192C22.8468 126.437 22.5161 126.56 22.1321 126.56C21.7481 126.56 21.4121 126.437 21.1241 126.192C20.8468 125.936 20.7081 125.589 20.7081 125.152C20.7081 124.715 20.8468 124.373 21.1241 124.128C21.4121 123.872 21.7481 123.744 22.1321 123.744C22.5161 123.744 22.8468 123.872 23.1241 124.128C23.4121 124.373 23.5561 124.715 23.5561 125.152ZM25.1731 131.856C25.1731 131.109 25.2851 130.459 25.5091 129.904C25.7438 129.339 26.0478 128.869 26.4211 128.496C26.7945 128.123 27.2211 127.84 27.7011 127.648C28.1918 127.456 28.6931 127.36 29.2051 127.36C30.3998 127.36 31.3438 127.728 32.0371 128.464C32.7305 129.189 33.0771 130.261 33.0771 131.68C33.0771 131.819 33.0718 131.973 33.0611 132.144C33.0505 132.304 33.0398 132.448 33.0291 132.576H27.6211C27.6745 133.067 27.9038 133.456 28.3091 133.744C28.7145 134.032 29.2585 134.176 29.9411 134.176C30.3785 134.176 30.8051 134.139 31.2211 134.064C31.6478 133.979 31.9945 133.877 32.2611 133.76L32.5811 135.696C32.4531 135.76 32.2825 135.824 32.0691 135.888C31.8558 135.952 31.6158 136.005 31.3491 136.048C31.0931 136.101 30.8158 136.144 30.5171 136.176C30.2185 136.208 29.9198 136.224 29.6211 136.224C28.8638 136.224 28.2025 136.112 27.6371 135.888C27.0825 135.664 26.6185 135.36 26.2451 134.976C25.8825 134.581 25.6105 134.117 25.4291 133.584C25.2585 133.051 25.1731 132.475 25.1731 131.856ZM30.7731 130.944C30.7625 130.741 30.7251 130.544 30.6611 130.352C30.6078 130.16 30.5171 129.989 30.3891 129.84C30.2718 129.691 30.1171 129.568 29.9251 129.472C29.7438 129.376 29.5145 129.328 29.2371 129.328C28.9705 129.328 28.7411 129.376 28.5491 129.472C28.3571 129.557 28.1971 129.675 28.0691 129.824C27.9411 129.973 27.8398 130.149 27.7651 130.352C27.7011 130.544 27.6531 130.741 27.6211 130.944H30.7731ZM34.9169 127.872C35.3222 127.755 35.8449 127.648 36.4849 127.552C37.1249 127.445 37.7969 127.392 38.5009 127.392C39.2155 127.392 39.8075 127.488 40.2769 127.68C40.7569 127.861 41.1355 128.123 41.4129 128.464C41.6902 128.805 41.8875 129.211 42.0049 129.68C42.1222 130.149 42.1809 130.672 42.1809 131.248V136H39.7969V131.536C39.7969 130.768 39.6955 130.224 39.4929 129.904C39.2902 129.584 38.9115 129.424 38.3569 129.424C38.1862 129.424 38.0049 129.435 37.8129 129.456C37.6209 129.467 37.4502 129.483 37.3009 129.504V136H34.9169V127.872ZM44.2588 125.488L46.6428 125.104V127.584H49.5068V129.568H46.6428V132.528C46.6428 133.029 46.7281 133.429 46.8988 133.728C47.0801 134.027 47.4374 134.176 47.9708 134.176C48.2268 134.176 48.4881 134.155 48.7548 134.112C49.0321 134.059 49.2828 133.989 49.5068 133.904L49.8428 135.76C49.5548 135.877 49.2348 135.979 48.8828 136.064C48.5308 136.149 48.0988 136.192 47.5868 136.192C46.9361 136.192 46.3974 136.107 45.9708 135.936C45.5441 135.755 45.2028 135.509 44.9468 135.2C44.6908 134.88 44.5094 134.496 44.4028 134.048C44.3068 133.6 44.2588 133.104 44.2588 132.56V125.488ZM54.3516 134.336C54.5863 134.336 54.8103 134.331 55.0236 134.32C55.237 134.309 55.4076 134.293 55.5356 134.272V132.464C55.4396 132.443 55.2956 132.421 55.1036 132.4C54.9116 132.379 54.7356 132.368 54.5756 132.368C54.3516 132.368 54.1383 132.384 53.9356 132.416C53.7436 132.437 53.573 132.485 53.4236 132.56C53.2743 132.635 53.157 132.736 53.0716 132.864C52.9863 132.992 52.9436 133.152 52.9436 133.344C52.9436 133.717 53.0663 133.979 53.3116 134.128C53.5676 134.267 53.9143 134.336 54.3516 134.336ZM54.1596 127.36C54.8636 127.36 55.4503 127.44 55.9196 127.6C56.389 127.76 56.7623 127.989 57.0396 128.288C57.3276 128.587 57.5303 128.949 57.6476 129.376C57.765 129.803 57.8236 130.277 57.8236 130.8V135.76C57.4823 135.835 57.0076 135.92 56.3996 136.016C55.7916 136.123 55.0556 136.176 54.1916 136.176C53.6476 136.176 53.1516 136.128 52.7036 136.032C52.2663 135.936 51.8876 135.781 51.5676 135.568C51.2476 135.344 51.0023 135.056 50.8316 134.704C50.661 134.352 50.5756 133.92 50.5756 133.408C50.5756 132.917 50.6716 132.501 50.8636 132.16C51.0663 131.819 51.333 131.547 51.6636 131.344C51.9943 131.141 52.373 130.997 52.7996 130.912C53.2263 130.816 53.669 130.768 54.1276 130.768C54.437 130.768 54.709 130.784 54.9436 130.816C55.189 130.837 55.3863 130.869 55.5356 130.912V130.688C55.5356 130.283 55.413 129.957 55.1676 129.712C54.9223 129.467 54.4956 129.344 53.8876 129.344C53.4823 129.344 53.0823 129.376 52.6876 129.44C52.293 129.493 51.9516 129.573 51.6636 129.68L51.3596 127.76C51.4983 127.717 51.669 127.675 51.8716 127.632C52.085 127.579 52.3143 127.536 52.5596 127.504C52.805 127.461 53.061 127.429 53.3276 127.408C53.605 127.376 53.8823 127.36 54.1596 127.36ZM64.1074 136.64C64.4487 136.811 64.6834 137.013 64.8114 137.248C64.9394 137.483 65.0034 137.723 65.0034 137.968C65.0034 138.48 64.8007 138.869 64.3954 139.136C63.99 139.403 63.4567 139.536 62.7954 139.536C62.5607 139.536 62.326 139.515 62.0914 139.472C61.8567 139.44 61.622 139.392 61.3874 139.328L61.6754 137.936C61.75 137.957 61.8834 137.989 62.0754 138.032C62.278 138.085 62.4754 138.112 62.6674 138.112C62.8167 138.112 62.9447 138.08 63.0514 138.016C63.1687 137.963 63.2327 137.861 63.2434 137.712C63.254 137.584 63.2007 137.467 63.0834 137.36C62.9767 137.253 62.8007 137.173 62.5554 137.12L62.3634 137.072C62.406 136.933 62.4647 136.773 62.5394 136.592C62.614 136.421 62.6887 136.261 62.7634 136.112C62.2087 136.005 61.7287 135.824 61.3234 135.568C60.9287 135.301 60.598 134.981 60.3314 134.608C60.0754 134.224 59.8834 133.792 59.7554 133.312C59.638 132.832 59.5794 132.325 59.5794 131.792C59.5794 131.184 59.6754 130.613 59.8674 130.08C60.07 129.536 60.358 129.067 60.7314 128.672C61.1047 128.267 61.558 127.947 62.0914 127.712C62.6247 127.477 63.2327 127.36 63.9154 127.36C64.3634 127.36 64.774 127.403 65.1474 127.488C65.5207 127.563 65.8834 127.675 66.2354 127.824L65.7394 129.728C65.5154 129.643 65.27 129.568 65.0034 129.504C64.7367 129.44 64.438 129.408 64.1074 129.408C63.4034 129.408 62.8754 129.627 62.5234 130.064C62.182 130.501 62.0114 131.077 62.0114 131.792C62.0114 132.549 62.1714 133.136 62.4914 133.552C62.822 133.968 63.3927 134.176 64.2034 134.176C64.4914 134.176 64.8007 134.149 65.1314 134.096C65.462 134.043 65.766 133.957 66.0434 133.84L66.3794 135.792C66.134 135.899 65.83 135.989 65.4674 136.064C65.1154 136.139 64.726 136.187 64.2994 136.208C64.2567 136.293 64.2194 136.373 64.1874 136.448C64.1554 136.523 64.1287 136.587 64.1074 136.64ZM70.7891 134.336C71.0238 134.336 71.2478 134.331 71.4611 134.32C71.6745 134.309 71.8451 134.293 71.9731 134.272V132.464C71.8771 132.443 71.7331 132.421 71.5411 132.4C71.3491 132.379 71.1731 132.368 71.0131 132.368C70.7891 132.368 70.5758 132.384 70.3731 132.416C70.1811 132.437 70.0105 132.485 69.8611 132.56C69.7118 132.635 69.5945 132.736 69.5091 132.864C69.4238 132.992 69.3811 133.152 69.3811 133.344C69.3811 133.717 69.5038 133.979 69.7491 134.128C70.0051 134.267 70.3518 134.336 70.7891 134.336ZM70.5971 127.36C71.3011 127.36 71.8878 127.44 72.3571 127.6C72.8265 127.76 73.1998 127.989 73.4771 128.288C73.7651 128.587 73.9678 128.949 74.0851 129.376C74.2025 129.803 74.2611 130.277 74.2611 130.8V135.76C73.9198 135.835 73.4451 135.92 72.8371 136.016C72.2291 136.123 71.4931 136.176 70.6291 136.176C70.0851 136.176 69.5891 136.128 69.1411 136.032C68.7038 135.936 68.3251 135.781 68.0051 135.568C67.6851 135.344 67.4398 135.056 67.2691 134.704C67.0985 134.352 67.0131 133.92 67.0131 133.408C67.0131 132.917 67.1091 132.501 67.3011 132.16C67.5038 131.819 67.7705 131.547 68.1011 131.344C68.4318 131.141 68.8105 130.997 69.2371 130.912C69.6638 130.816 70.1065 130.768 70.5651 130.768C70.8745 130.768 71.1465 130.784 71.3811 130.816C71.6265 130.837 71.8238 130.869 71.9731 130.912V130.688C71.9731 130.283 71.8505 129.957 71.6051 129.712C71.3598 129.467 70.9331 129.344 70.3251 129.344C69.9198 129.344 69.5198 129.376 69.1251 129.44C68.7305 129.493 68.3891 129.573 68.1011 129.68L67.7971 127.76C67.9358 127.717 68.1065 127.675 68.3091 127.632C68.5225 127.579 68.7518 127.536 68.9971 127.504C69.2425 127.461 69.4985 127.429 69.7651 127.408C70.0425 127.376 70.3198 127.36 70.5971 127.36ZM73.7331 124.656C73.6691 124.816 73.5785 124.992 73.4611 125.184C73.3545 125.376 73.2211 125.557 73.0611 125.728C72.9011 125.888 72.7198 126.021 72.5171 126.128C72.3145 126.235 72.0905 126.288 71.8451 126.288C71.6531 126.288 71.4718 126.261 71.3011 126.208C71.1411 126.144 70.9811 126.08 70.8211 126.016C70.6611 125.941 70.5011 125.877 70.3411 125.824C70.1811 125.76 70.0158 125.728 69.8451 125.728C69.6318 125.728 69.4558 125.797 69.3171 125.936C69.1785 126.075 69.0665 126.235 68.9811 126.416L67.8131 125.648C67.8771 125.488 67.9625 125.312 68.0691 125.12C68.1865 124.928 68.3251 124.752 68.4851 124.592C68.6451 124.421 68.8265 124.283 69.0291 124.176C69.2318 124.069 69.4558 124.016 69.7011 124.016C69.8931 124.016 70.0691 124.048 70.2291 124.112C70.3998 124.165 70.5651 124.229 70.7251 124.304C70.8851 124.368 71.0398 124.432 71.1891 124.496C71.3491 124.549 71.5198 124.576 71.7011 124.576C71.9145 124.576 72.0905 124.507 72.2291 124.368C72.3678 124.229 72.4798 124.069 72.5651 123.888L73.7331 124.656ZM84.2889 131.776C84.2889 132.437 84.1929 133.045 84.0009 133.6C83.8089 134.144 83.5315 134.613 83.1689 135.008C82.8062 135.392 82.3689 135.691 81.8569 135.904C81.3555 136.117 80.7902 136.224 80.1609 136.224C79.5422 136.224 78.9769 136.117 78.4649 135.904C77.9635 135.691 77.5315 135.392 77.1689 135.008C76.8062 134.613 76.5235 134.144 76.3209 133.6C76.1182 133.045 76.0169 132.437 76.0169 131.776C76.0169 131.115 76.1182 130.512 76.3209 129.968C76.5342 129.424 76.8222 128.96 77.1849 128.576C77.5582 128.192 77.9955 127.893 78.4969 127.68C79.0089 127.467 79.5635 127.36 80.1609 127.36C80.7689 127.36 81.3235 127.467 81.8249 127.68C82.3369 127.893 82.7742 128.192 83.1369 128.576C83.4995 128.96 83.7822 129.424 83.9849 129.968C84.1875 130.512 84.2889 131.115 84.2889 131.776ZM81.8569 131.776C81.8569 131.04 81.7075 130.464 81.4089 130.048C81.1209 129.621 80.7049 129.408 80.1609 129.408C79.6169 129.408 79.1955 129.621 78.8969 130.048C78.5982 130.464 78.4489 131.04 78.4489 131.776C78.4489 132.512 78.5982 133.099 78.8969 133.536C79.1955 133.963 79.6169 134.176 80.1609 134.176C80.7049 134.176 81.1209 133.963 81.4089 133.536C81.7075 133.099 81.8569 132.512 81.8569 131.776ZM94.6034 131.536C94.6034 130.768 94.502 130.224 94.2994 129.904C94.1074 129.584 93.7714 129.424 93.2914 129.424C93.142 129.424 92.9874 129.435 92.8274 129.456C92.6674 129.467 92.5127 129.483 92.3634 129.504V136H89.9794V127.872C90.182 127.819 90.4167 127.765 90.6834 127.712C90.9607 127.648 91.2487 127.595 91.5474 127.552C91.8567 127.499 92.1714 127.461 92.4914 127.44C92.8114 127.408 93.126 127.392 93.4354 127.392C94.0434 127.392 94.534 127.472 94.9074 127.632C95.2914 127.781 95.606 127.963 95.8514 128.176C96.1927 127.931 96.582 127.739 97.0194 127.6C97.4674 127.461 97.878 127.392 98.2514 127.392C98.9234 127.392 99.4727 127.488 99.8994 127.68C100.337 127.861 100.683 128.123 100.939 128.464C101.195 128.805 101.371 129.211 101.467 129.68C101.563 130.149 101.611 130.672 101.611 131.248V136H99.2274V131.536C99.2274 130.768 99.126 130.224 98.9234 129.904C98.7314 129.584 98.3954 129.424 97.9154 129.424C97.7874 129.424 97.606 129.456 97.3714 129.52C97.1474 129.584 96.9607 129.664 96.8114 129.76C96.886 130.005 96.934 130.267 96.9554 130.544C96.9767 130.811 96.9874 131.099 96.9874 131.408V136H94.6034V131.536ZM103.376 131.856C103.376 131.109 103.488 130.459 103.712 129.904C103.947 129.339 104.251 128.869 104.624 128.496C104.998 128.123 105.424 127.84 105.904 127.648C106.395 127.456 106.896 127.36 107.408 127.36C108.603 127.36 109.547 127.728 110.24 128.464C110.934 129.189 111.28 130.261 111.28 131.68C111.28 131.819 111.275 131.973 111.264 132.144C111.254 132.304 111.243 132.448 111.232 132.576H105.824C105.878 133.067 106.107 133.456 106.512 133.744C106.918 134.032 107.462 134.176 108.144 134.176C108.582 134.176 109.008 134.139 109.424 134.064C109.851 133.979 110.198 133.877 110.464 133.76L110.784 135.696C110.656 135.76 110.486 135.824 110.272 135.888C110.059 135.952 109.819 136.005 109.552 136.048C109.296 136.101 109.019 136.144 108.72 136.176C108.422 136.208 108.123 136.224 107.824 136.224C107.067 136.224 106.406 136.112 105.84 135.888C105.286 135.664 104.822 135.36 104.448 134.976C104.086 134.581 103.814 134.117 103.632 133.584C103.462 133.051 103.376 132.475 103.376 131.856ZM108.976 130.944C108.966 130.741 108.928 130.544 108.864 130.352C108.811 130.16 108.72 129.989 108.592 129.84C108.475 129.691 108.32 129.568 108.128 129.472C107.947 129.376 107.718 129.328 107.44 129.328C107.174 129.328 106.944 129.376 106.752 129.472C106.56 129.557 106.4 129.675 106.272 129.824C106.144 129.973 106.043 130.149 105.968 130.352C105.904 130.544 105.856 130.741 105.824 130.944H108.976ZM109.344 124.56L106.704 126.784L105.616 125.808L107.888 123.216L109.344 124.56ZM115.152 131.728C115.152 132.464 115.317 133.056 115.648 133.504C115.979 133.952 116.469 134.176 117.12 134.176C117.333 134.176 117.531 134.171 117.712 134.16C117.893 134.139 118.043 134.117 118.16 134.096V129.76C118.011 129.664 117.813 129.584 117.568 129.52C117.333 129.456 117.093 129.424 116.848 129.424C115.717 129.424 115.152 130.192 115.152 131.728ZM120.544 135.728C120.331 135.792 120.085 135.856 119.808 135.92C119.531 135.973 119.237 136.021 118.928 136.064C118.629 136.107 118.32 136.139 118 136.16C117.691 136.192 117.392 136.208 117.104 136.208C116.411 136.208 115.792 136.107 115.248 135.904C114.704 135.701 114.245 135.413 113.872 135.04C113.499 134.656 113.211 134.197 113.008 133.664C112.816 133.12 112.72 132.512 112.72 131.84C112.72 131.157 112.805 130.544 112.976 130C113.147 129.445 113.392 128.976 113.712 128.592C114.032 128.208 114.421 127.915 114.88 127.712C115.349 127.509 115.883 127.408 116.48 127.408C116.811 127.408 117.104 127.44 117.36 127.504C117.627 127.568 117.893 127.659 118.16 127.776V123.968L120.544 123.584V135.728ZM125.16 136H122.776V127.584H125.16V136ZM125.384 125.152C125.384 125.589 125.24 125.936 124.952 126.192C124.675 126.437 124.344 126.56 123.96 126.56C123.576 126.56 123.24 126.437 122.952 126.192C122.675 125.936 122.536 125.589 122.536 125.152C122.536 124.715 122.675 124.373 122.952 124.128C123.24 123.872 123.576 123.744 123.96 123.744C124.344 123.744 124.675 123.872 124.952 124.128C125.24 124.373 125.384 124.715 125.384 125.152ZM127.001 131.792C127.001 131.184 127.097 130.613 127.289 130.08C127.492 129.536 127.78 129.067 128.153 128.672C128.527 128.267 128.98 127.947 129.513 127.712C130.047 127.477 130.655 127.36 131.337 127.36C131.785 127.36 132.196 127.403 132.569 127.488C132.943 127.563 133.305 127.675 133.657 127.824L133.161 129.728C132.937 129.643 132.692 129.568 132.425 129.504C132.159 129.44 131.86 129.408 131.529 129.408C130.825 129.408 130.297 129.627 129.945 130.064C129.604 130.501 129.433 131.077 129.433 131.792C129.433 132.549 129.593 133.136 129.913 133.552C130.244 133.968 130.815 134.176 131.625 134.176C131.913 134.176 132.223 134.149 132.553 134.096C132.884 134.043 133.188 133.957 133.465 133.84L133.801 135.792C133.524 135.909 133.177 136.011 132.761 136.096C132.345 136.181 131.887 136.224 131.385 136.224C130.617 136.224 129.956 136.112 129.401 135.888C128.847 135.653 128.388 135.339 128.025 134.944C127.673 134.549 127.412 134.085 127.241 133.552C127.081 133.008 127.001 132.421 127.001 131.792ZM138.211 134.336C138.446 134.336 138.67 134.331 138.883 134.32C139.096 134.309 139.267 134.293 139.395 134.272V132.464C139.299 132.443 139.155 132.421 138.963 132.4C138.771 132.379 138.595 132.368 138.435 132.368C138.211 132.368 137.998 132.384 137.795 132.416C137.603 132.437 137.432 132.485 137.283 132.56C137.134 132.635 137.016 132.736 136.931 132.864C136.846 132.992 136.803 133.152 136.803 133.344C136.803 133.717 136.926 133.979 137.171 134.128C137.427 134.267 137.774 134.336 138.211 134.336ZM138.019 127.36C138.723 127.36 139.31 127.44 139.779 127.6C140.248 127.76 140.622 127.989 140.899 128.288C141.187 128.587 141.39 128.949 141.507 129.376C141.624 129.803 141.683 130.277 141.683 130.8V135.76C141.342 135.835 140.867 135.92 140.259 136.016C139.651 136.123 138.915 136.176 138.051 136.176C137.507 136.176 137.011 136.128 136.563 136.032C136.126 135.936 135.747 135.781 135.427 135.568C135.107 135.344 134.862 135.056 134.691 134.704C134.52 134.352 134.435 133.92 134.435 133.408C134.435 132.917 134.531 132.501 134.723 132.16C134.926 131.819 135.192 131.547 135.523 131.344C135.854 131.141 136.232 130.997 136.659 130.912C137.086 130.816 137.528 130.768 137.987 130.768C138.296 130.768 138.568 130.784 138.803 130.816C139.048 130.837 139.246 130.869 139.395 130.912V130.688C139.395 130.283 139.272 129.957 139.027 129.712C138.782 129.467 138.355 129.344 137.747 129.344C137.342 129.344 136.942 129.376 136.547 129.44C136.152 129.493 135.811 129.573 135.523 129.68L135.219 127.76C135.358 127.717 135.528 127.675 135.731 127.632C135.944 127.579 136.174 127.536 136.419 127.504C136.664 127.461 136.92 127.429 137.187 127.408C137.464 127.376 137.742 127.36 138.019 127.36ZM35.056 152.856C35.056 151.885 34.816 151.139 34.336 150.616C33.856 150.093 33.216 149.832 32.416 149.832C31.968 149.832 31.616 149.848 31.36 149.88C31.1147 149.912 30.9173 149.949 30.768 149.992V155.24C30.9493 155.389 31.2107 155.533 31.552 155.672C31.8933 155.811 32.2667 155.88 32.672 155.88C33.0987 155.88 33.4613 155.805 33.76 155.656C34.0693 155.496 34.32 155.283 34.512 155.016C34.704 154.739 34.8427 154.419 34.928 154.056C35.0133 153.683 35.056 153.283 35.056 152.856ZM36.608 152.856C36.608 153.485 36.5227 154.067 36.352 154.6C36.192 155.133 35.952 155.592 35.632 155.976C35.312 156.36 34.9173 156.659 34.448 156.872C33.9893 157.085 33.4613 157.192 32.864 157.192C32.384 157.192 31.9573 157.128 31.584 157C31.2213 156.872 30.9493 156.749 30.768 156.632V159.96H29.28V148.936C29.632 148.851 30.0693 148.76 30.592 148.664C31.1253 148.557 31.7387 148.504 32.432 148.504C33.072 148.504 33.648 148.605 34.16 148.808C34.672 149.011 35.1093 149.299 35.472 149.672C35.8347 150.045 36.112 150.504 36.304 151.048C36.5067 151.581 36.608 152.184 36.608 152.856ZM46.0459 152.84C46.0459 153.501 45.9499 154.099 45.7579 154.632C45.5659 155.165 45.2939 155.624 44.9419 156.008C44.6005 156.392 44.1899 156.691 43.7099 156.904C43.2299 157.107 42.7072 157.208 42.1419 157.208C41.5765 157.208 41.0539 157.107 40.5739 156.904C40.0939 156.691 39.6779 156.392 39.3259 156.008C38.9845 155.624 38.7179 155.165 38.5259 154.632C38.3339 154.099 38.2379 153.501 38.2379 152.84C38.2379 152.189 38.3339 151.597 38.5259 151.064C38.7179 150.52 38.9845 150.056 39.3259 149.672C39.6779 149.288 40.0939 148.995 40.5739 148.792C41.0539 148.579 41.5765 148.472 42.1419 148.472C42.7072 148.472 43.2299 148.579 43.7099 148.792C44.1899 148.995 44.6005 149.288 44.9419 149.672C45.2939 150.056 45.5659 150.52 45.7579 151.064C45.9499 151.597 46.0459 152.189 46.0459 152.84ZM44.4939 152.84C44.4939 151.901 44.2805 151.16 43.8539 150.616C43.4379 150.061 42.8672 149.784 42.1419 149.784C41.4165 149.784 40.8405 150.061 40.4139 150.616C39.9979 151.16 39.7899 151.901 39.7899 152.84C39.7899 153.779 39.9979 154.525 40.4139 155.08C40.8405 155.624 41.4165 155.896 42.1419 155.896C42.8672 155.896 43.4379 155.624 43.8539 155.08C44.2805 154.525 44.4939 153.779 44.4939 152.84ZM51.2114 148.504C51.3394 148.504 51.4834 148.515 51.6434 148.536C51.814 148.547 51.9794 148.568 52.1394 148.6C52.2994 148.621 52.4434 148.648 52.5714 148.68C52.71 148.701 52.8114 148.723 52.8754 148.744L52.6194 150.04C52.502 149.997 52.3047 149.949 52.0274 149.896C51.7607 149.832 51.414 149.8 50.9874 149.8C50.71 149.8 50.4327 149.832 50.1554 149.896C49.8887 149.949 49.7127 149.987 49.6274 150.008V157H48.1394V149.032C48.4914 148.904 48.9287 148.787 49.4514 148.68C49.974 148.563 50.5607 148.504 51.2114 148.504ZM59.4064 148.68H62.5584V149.928H59.4064V153.768C59.4064 154.184 59.4384 154.531 59.5024 154.808C59.5664 155.075 59.6624 155.288 59.7904 155.448C59.9184 155.597 60.0784 155.704 60.2704 155.768C60.4624 155.832 60.6864 155.864 60.9424 155.864C61.3904 155.864 61.7477 155.816 62.0144 155.72C62.2917 155.613 62.4837 155.539 62.5904 155.496L62.8784 156.728C62.729 156.803 62.4677 156.893 62.0944 157C61.721 157.117 61.2944 157.176 60.8144 157.176C60.249 157.176 59.7797 157.107 59.4064 156.968C59.0437 156.819 58.7504 156.6 58.5264 156.312C58.3024 156.024 58.1424 155.672 58.0464 155.256C57.961 154.829 57.9184 154.339 57.9184 153.784V146.36L59.4064 146.104V148.68ZM63.8316 152.856C63.8316 152.12 63.9383 151.48 64.1516 150.936C64.365 150.381 64.6476 149.923 64.9996 149.56C65.3516 149.197 65.757 148.925 66.2156 148.744C66.6743 148.563 67.1436 148.472 67.6236 148.472C68.7436 148.472 69.6023 148.824 70.1996 149.528C70.797 150.221 71.0956 151.283 71.0956 152.712C71.0956 152.776 71.0956 152.861 71.0956 152.968C71.0956 153.064 71.0903 153.155 71.0796 153.24H65.3836C65.4476 154.104 65.6983 154.76 66.1356 155.208C66.573 155.656 67.2556 155.88 68.1836 155.88C68.7063 155.88 69.1436 155.837 69.4956 155.752C69.8583 155.656 70.1303 155.565 70.3116 155.48L70.5196 156.728C70.3383 156.824 70.0183 156.925 69.5596 157.032C69.1116 157.139 68.5996 157.192 68.0236 157.192C67.2983 157.192 66.669 157.085 66.1356 156.872C65.613 156.648 65.181 156.344 64.8396 155.96C64.4983 155.576 64.2423 155.123 64.0716 154.6C63.9116 154.067 63.8316 153.485 63.8316 152.856ZM69.5436 152.04C69.5543 151.368 69.3836 150.819 69.0316 150.392C68.6903 149.955 68.2156 149.736 67.6076 149.736C67.2663 149.736 66.9623 149.805 66.6956 149.944C66.4396 150.072 66.221 150.243 66.0396 150.456C65.8583 150.669 65.7143 150.915 65.6076 151.192C65.5116 151.469 65.4476 151.752 65.4156 152.04H69.5436ZM75.7291 157.16C74.8118 157.139 74.1611 156.941 73.7771 156.568C73.3931 156.195 73.2011 155.613 73.2011 154.824V144.84L74.6891 144.584V154.584C74.6891 154.829 74.7105 155.032 74.7531 155.192C74.7958 155.352 74.8651 155.48 74.9611 155.576C75.0571 155.672 75.1851 155.747 75.3451 155.8C75.5051 155.843 75.7025 155.88 75.9371 155.912L75.7291 157.16ZM77.1441 152.856C77.1441 152.12 77.2508 151.48 77.4641 150.936C77.6775 150.381 77.9601 149.923 78.3121 149.56C78.6641 149.197 79.0695 148.925 79.5281 148.744C79.9868 148.563 80.4561 148.472 80.9361 148.472C82.0561 148.472 82.9148 148.824 83.5121 149.528C84.1095 150.221 84.4081 151.283 84.4081 152.712C84.4081 152.776 84.4081 152.861 84.4081 152.968C84.4081 153.064 84.4028 153.155 84.3921 153.24H78.6961C78.7601 154.104 79.0108 154.76 79.4481 155.208C79.8855 155.656 80.5681 155.88 81.4961 155.88C82.0188 155.88 82.4561 155.837 82.8081 155.752C83.1708 155.656 83.4428 155.565 83.6241 155.48L83.8321 156.728C83.6508 156.824 83.3308 156.925 82.8721 157.032C82.4241 157.139 81.9121 157.192 81.3361 157.192C80.6108 157.192 79.9815 157.085 79.4481 156.872C78.9255 156.648 78.4935 156.344 78.1521 155.96C77.8108 155.576 77.5548 155.123 77.3841 154.6C77.2241 154.067 77.1441 153.485 77.1441 152.856ZM82.8561 152.04C82.8668 151.368 82.6961 150.819 82.3441 150.392C82.0028 149.955 81.5281 149.736 80.9201 149.736C80.5788 149.736 80.2748 149.805 80.0081 149.944C79.7521 150.072 79.5335 150.243 79.3521 150.456C79.1708 150.669 79.0268 150.915 78.9201 151.192C78.8241 151.469 78.7601 151.752 78.7281 152.04H82.8561ZM89.7936 144.584C90.231 144.584 90.6043 144.616 90.9136 144.68C91.2336 144.744 91.4576 144.803 91.5856 144.856L91.3136 146.136C91.1856 146.072 91.0043 146.013 90.7696 145.96C90.535 145.896 90.247 145.864 89.9056 145.864C89.2123 145.864 88.727 146.056 88.4496 146.44C88.1723 146.813 88.0336 147.32 88.0336 147.96V148.68H91.2336V149.928H88.0336V157H86.5456V147.928C86.5456 146.861 86.807 146.04 87.3296 145.464C87.8523 144.877 88.6736 144.584 89.7936 144.584ZM100.062 152.84C100.062 153.501 99.9655 154.099 99.7735 154.632C99.5815 155.165 99.3095 155.624 98.9575 156.008C98.6162 156.392 98.2055 156.691 97.7255 156.904C97.2455 157.107 96.7228 157.208 96.1575 157.208C95.5922 157.208 95.0695 157.107 94.5895 156.904C94.1095 156.691 93.6935 156.392 93.3415 156.008C93.0002 155.624 92.7335 155.165 92.5415 154.632C92.3495 154.099 92.2535 153.501 92.2535 152.84C92.2535 152.189 92.3495 151.597 92.5415 151.064C92.7335 150.52 93.0002 150.056 93.3415 149.672C93.6935 149.288 94.1095 148.995 94.5895 148.792C95.0695 148.579 95.5922 148.472 96.1575 148.472C96.7228 148.472 97.2455 148.579 97.7255 148.792C98.2055 148.995 98.6162 149.288 98.9575 149.672C99.3095 150.056 99.5815 150.52 99.7735 151.064C99.9655 151.597 100.062 152.189 100.062 152.84ZM98.5095 152.84C98.5095 151.901 98.2962 151.16 97.8695 150.616C97.4535 150.061 96.8828 149.784 96.1575 149.784C95.4322 149.784 94.8562 150.061 94.4295 150.616C94.0135 151.16 93.8055 151.901 93.8055 152.84C93.8055 153.779 94.0135 154.525 94.4295 155.08C94.8562 155.624 95.4322 155.896 96.1575 155.896C96.8828 155.896 97.4535 155.624 97.8695 155.08C98.2962 154.525 98.5095 153.779 98.5095 152.84ZM102.155 148.92C102.496 148.835 102.95 148.744 103.515 148.648C104.08 148.552 104.731 148.504 105.467 148.504C106.128 148.504 106.678 148.6 107.115 148.792C107.552 148.973 107.899 149.235 108.155 149.576C108.422 149.907 108.608 150.307 108.715 150.776C108.822 151.245 108.875 151.763 108.875 152.328V157H107.387V152.648C107.387 152.136 107.35 151.699 107.275 151.336C107.211 150.973 107.099 150.68 106.939 150.456C106.779 150.232 106.566 150.072 106.299 149.976C106.032 149.869 105.702 149.816 105.307 149.816C105.147 149.816 104.982 149.821 104.811 149.832C104.64 149.843 104.475 149.859 104.315 149.88C104.166 149.891 104.027 149.907 103.899 149.928C103.782 149.949 103.696 149.965 103.643 149.976V157H102.155V148.92ZM110.879 152.856C110.879 152.12 110.985 151.48 111.199 150.936C111.412 150.381 111.695 149.923 112.047 149.56C112.399 149.197 112.804 148.925 113.263 148.744C113.721 148.563 114.191 148.472 114.671 148.472C115.791 148.472 116.649 148.824 117.247 149.528C117.844 150.221 118.142 151.283 118.142 152.712C118.142 152.776 118.142 152.861 118.142 152.968C118.142 153.064 118.137 153.155 118.127 153.24H112.431C112.495 154.104 112.745 154.76 113.183 155.208C113.62 155.656 114.303 155.88 115.231 155.88C115.753 155.88 116.191 155.837 116.543 155.752C116.905 155.656 117.177 155.565 117.359 155.48L117.567 156.728C117.385 156.824 117.065 156.925 116.607 157.032C116.159 157.139 115.647 157.192 115.071 157.192C114.345 157.192 113.716 157.085 113.183 156.872C112.66 156.648 112.228 156.344 111.887 155.96C111.545 155.576 111.289 155.123 111.118 154.6C110.959 154.067 110.879 153.485 110.879 152.856ZM116.591 152.04C116.601 151.368 116.431 150.819 116.079 150.392C115.737 149.955 115.263 149.736 114.655 149.736C114.313 149.736 114.009 149.805 113.743 149.944C113.487 150.072 113.268 150.243 113.087 150.456C112.905 150.669 112.761 150.915 112.655 151.192C112.559 151.469 112.495 151.752 112.463 152.04H116.591Z" fill="#2F2F2F"/>
</svg>
