<svg width="91" height="162" viewBox="0 0 91 162" fill="none" xmlns="http://www.w3.org/2000/svg">
<circle cx="46.3269" cy="44.3259" r="40.4148" fill="#BADBFE"/>
<g clip-path="url(#clip0)">
<path d="M82.2656 70.454H81.8225C82.1085 69.647 82.2656 68.7795 82.2656 67.8759C82.2656 63.6112 78.7959 60.1415 74.5312 60.1415H58.4851L41.4567 43.1131C39.0256 40.6827 35.7869 39.3446 32.3359 39.3446H2V73.0321H21.9939L46.7439 85.9227H82.2656C86.5303 85.9227 90 82.453 90 78.1884C90 73.9237 86.5303 70.454 82.2656 70.454ZM77.1094 67.8759C77.1094 69.2972 75.9526 70.454 74.5312 70.454H62.5725C63.1586 68.7889 63.1553 66.9628 62.5692 65.2977H74.5312C75.9526 65.2977 77.1094 66.4545 77.1094 67.8759ZM7.15625 44.5009H12.3125V67.8759H7.15625V44.5009ZM82.2656 80.7665H48.0061L23.2561 67.8759H17.4688V44.5009H32.3359C34.4099 44.5009 36.3542 45.3032 37.8111 46.7594L57.1041 66.053C58.1091 67.0581 58.1091 68.6936 57.1041 69.6987C56.099 70.7037 54.4635 70.7037 53.4584 69.6987L34.1722 50.4131L30.5259 54.0587L49.8121 73.345C51.2979 74.8307 53.2436 75.5847 55.1953 75.6062C55.1953 75.6102 82.2656 75.6102 82.2656 75.6102C83.687 75.6102 84.8438 76.767 84.8438 78.1884C84.8438 79.6097 83.687 80.7665 82.2656 80.7665Z" fill="#00309E"/>
<path d="M61.2102 55.7097L84.8511 32.0681C91.7046 25.2153 91.7046 14.0642 84.8511 7.21069C81.531 3.89069 77.1174 2.0625 72.4223 2.0625C68.2799 2.0625 64.357 3.48584 61.2102 6.10089C58.0641 3.48584 54.1405 2.0625 49.9987 2.0625C45.3037 2.0625 40.8893 3.89069 37.5693 7.21069C30.7165 14.0642 30.7165 25.2153 37.5693 32.0688L61.2102 55.7097ZM41.2149 10.8563C43.5614 8.5105 46.6807 7.21875 49.998 7.21875C53.316 7.21875 56.4353 8.5105 58.7811 10.8563C58.9483 11.0235 59.1128 11.1987 59.2847 11.3914L61.2115 13.5553L63.1364 11.3907C63.3042 11.2021 63.4734 11.0228 63.6393 10.857C65.9851 8.51117 69.105 7.21875 72.4223 7.21875C75.7403 7.21875 78.8596 8.5105 81.2054 10.857C86.0481 15.6997 86.0481 23.5798 81.2054 28.4225L61.2102 48.4171L41.2149 28.4225C36.3722 23.5798 36.3722 15.6997 41.2149 10.8563Z" fill="#00309E"/>
</g>
<path d="M8.96181 136C8.84448 135.616 8.71115 135.221 8.56181 134.816C8.42315 134.411 8.28448 134.005 8.14581 133.6H3.82581C3.68715 134.005 3.54315 134.411 3.39381 134.816C3.25515 135.221 3.12715 135.616 3.00981 136H0.417813C0.833813 134.805 1.22848 133.701 1.60181 132.688C1.97515 131.675 2.33781 130.72 2.68981 129.824C3.05248 128.928 3.40448 128.08 3.74581 127.28C4.09781 126.469 4.46048 125.68 4.83381 124.912H7.21781C7.58048 125.68 7.93781 126.469 8.28981 127.28C8.64181 128.08 8.99381 128.928 9.34581 129.824C9.70848 130.72 10.0765 131.675 10.4498 132.688C10.8231 133.701 11.2178 134.805 11.6338 136H8.96181ZM5.96981 127.424C5.91648 127.584 5.83648 127.803 5.72981 128.08C5.62315 128.357 5.50048 128.677 5.36181 129.04C5.22315 129.403 5.06848 129.803 4.89781 130.24C4.73781 130.677 4.57248 131.136 4.40181 131.616H7.55381C7.38315 131.136 7.21781 130.677 7.05781 130.24C6.89781 129.803 6.74315 129.403 6.59381 129.04C6.45515 128.677 6.33248 128.357 6.22581 128.08C6.11915 127.803 6.03381 127.584 5.96981 127.424ZM15.4813 134.288C15.9186 134.288 16.228 134.245 16.4093 134.16C16.5906 134.075 16.6813 133.909 16.6813 133.664C16.6813 133.472 16.564 133.307 16.3293 133.168C16.0946 133.019 15.7373 132.853 15.2573 132.672C14.884 132.533 14.5426 132.389 14.2333 132.24C13.9346 132.091 13.6786 131.915 13.4653 131.712C13.252 131.499 13.0866 131.248 12.9693 130.96C12.852 130.672 12.7933 130.325 12.7933 129.92C12.7933 129.131 13.0866 128.507 13.6733 128.048C14.26 127.589 15.0653 127.36 16.0893 127.36C16.6013 127.36 17.092 127.408 17.5613 127.504C18.0306 127.589 18.404 127.685 18.6813 127.792L18.2653 129.648C17.988 129.552 17.684 129.467 17.3533 129.392C17.0333 129.317 16.6706 129.28 16.2653 129.28C15.5186 129.28 15.1453 129.488 15.1453 129.904C15.1453 130 15.1613 130.085 15.1933 130.16C15.2253 130.235 15.2893 130.309 15.3853 130.384C15.4813 130.448 15.6093 130.523 15.7693 130.608C15.94 130.683 16.1533 130.768 16.4093 130.864C16.932 131.056 17.364 131.248 17.7053 131.44C18.0466 131.621 18.3133 131.824 18.5053 132.048C18.708 132.261 18.8466 132.501 18.9213 132.768C19.0066 133.035 19.0493 133.344 19.0493 133.696C19.0493 134.528 18.7346 135.157 18.1053 135.584C17.4866 136.011 16.6066 136.224 15.4653 136.224C14.7186 136.224 14.0946 136.16 13.5933 136.032C13.1026 135.904 12.7613 135.797 12.5693 135.712L12.9693 133.776C13.3746 133.936 13.7906 134.064 14.2173 134.16C14.644 134.245 15.0653 134.288 15.4813 134.288ZM23.2469 134.288C23.6843 134.288 23.9936 134.245 24.1749 134.16C24.3563 134.075 24.4469 133.909 24.4469 133.664C24.4469 133.472 24.3296 133.307 24.0949 133.168C23.8603 133.019 23.5029 132.853 23.0229 132.672C22.6496 132.533 22.3083 132.389 21.9989 132.24C21.7003 132.091 21.4443 131.915 21.2309 131.712C21.0176 131.499 20.8523 131.248 20.7349 130.96C20.6176 130.672 20.5589 130.325 20.5589 129.92C20.5589 129.131 20.8523 128.507 21.4389 128.048C22.0256 127.589 22.8309 127.36 23.8549 127.36C24.3669 127.36 24.8576 127.408 25.3269 127.504C25.7963 127.589 26.1696 127.685 26.4469 127.792L26.0309 129.648C25.7536 129.552 25.4496 129.467 25.1189 129.392C24.7989 129.317 24.4363 129.28 24.0309 129.28C23.2843 129.28 22.9109 129.488 22.9109 129.904C22.9109 130 22.9269 130.085 22.9589 130.16C22.9909 130.235 23.0549 130.309 23.1509 130.384C23.2469 130.448 23.3749 130.523 23.5349 130.608C23.7056 130.683 23.9189 130.768 24.1749 130.864C24.6976 131.056 25.1296 131.248 25.4709 131.44C25.8123 131.621 26.0789 131.824 26.2709 132.048C26.4736 132.261 26.6123 132.501 26.6869 132.768C26.7723 133.035 26.8149 133.344 26.8149 133.696C26.8149 134.528 26.5003 135.157 25.8709 135.584C25.2523 136.011 24.3723 136.224 23.2309 136.224C22.4843 136.224 21.8603 136.16 21.3589 136.032C20.8683 135.904 20.5269 135.797 20.3349 135.712L20.7349 133.776C21.1403 133.936 21.5563 134.064 21.9829 134.16C22.4096 134.245 22.8309 134.288 23.2469 134.288ZM30.9806 136H28.5966V127.584H30.9806V136ZM31.2046 125.152C31.2046 125.589 31.0606 125.936 30.7726 126.192C30.4952 126.437 30.1646 126.56 29.7806 126.56C29.3966 126.56 29.0606 126.437 28.7726 126.192C28.4952 125.936 28.3566 125.589 28.3566 125.152C28.3566 124.715 28.4952 124.373 28.7726 124.128C29.0606 123.872 29.3966 123.744 29.7806 123.744C30.1646 123.744 30.4952 123.872 30.7726 124.128C31.0606 124.373 31.2046 124.715 31.2046 125.152ZM35.6376 134.288C36.0749 134.288 36.3842 134.245 36.5656 134.16C36.7469 134.075 36.8376 133.909 36.8376 133.664C36.8376 133.472 36.7202 133.307 36.4856 133.168C36.2509 133.019 35.8936 132.853 35.4136 132.672C35.0402 132.533 34.6989 132.389 34.3896 132.24C34.0909 132.091 33.8349 131.915 33.6216 131.712C33.4082 131.499 33.2429 131.248 33.1256 130.96C33.0082 130.672 32.9496 130.325 32.9496 129.92C32.9496 129.131 33.2429 128.507 33.8296 128.048C34.4162 127.589 35.2216 127.36 36.2456 127.36C36.7576 127.36 37.2482 127.408 37.7176 127.504C38.1869 127.589 38.5602 127.685 38.8376 127.792L38.4216 129.648C38.1442 129.552 37.8402 129.467 37.5096 129.392C37.1896 129.317 36.8269 129.28 36.4216 129.28C35.6749 129.28 35.3016 129.488 35.3016 129.904C35.3016 130 35.3176 130.085 35.3496 130.16C35.3816 130.235 35.4456 130.309 35.5416 130.384C35.6376 130.448 35.7656 130.523 35.9256 130.608C36.0962 130.683 36.3096 130.768 36.5656 130.864C37.0882 131.056 37.5202 131.248 37.8616 131.44C38.2029 131.621 38.4696 131.824 38.6616 132.048C38.8642 132.261 39.0029 132.501 39.0776 132.768C39.1629 133.035 39.2056 133.344 39.2056 133.696C39.2056 134.528 38.8909 135.157 38.2616 135.584C37.6429 136.011 36.7629 136.224 35.6216 136.224C34.8749 136.224 34.2509 136.16 33.7496 136.032C33.2589 135.904 32.9176 135.797 32.7256 135.712L33.1256 133.776C33.5309 133.936 33.9469 134.064 34.3736 134.16C34.8002 134.245 35.2216 134.288 35.6376 134.288ZM40.9072 125.488L43.2912 125.104V127.584H46.1552V129.568H43.2912V132.528C43.2912 133.029 43.3765 133.429 43.5472 133.728C43.7285 134.027 44.0859 134.176 44.6192 134.176C44.8752 134.176 45.1365 134.155 45.4032 134.112C45.6805 134.059 45.9312 133.989 46.1552 133.904L46.4912 135.76C46.2032 135.877 45.8832 135.979 45.5312 136.064C45.1792 136.149 44.7472 136.192 44.2352 136.192C43.5845 136.192 43.0459 136.107 42.6192 135.936C42.1925 135.755 41.8512 135.509 41.5952 135.2C41.3392 134.88 41.1579 134.496 41.0512 134.048C40.9552 133.6 40.9072 133.104 40.9072 132.56V125.488ZM47.3841 131.856C47.3841 131.109 47.4961 130.459 47.7201 129.904C47.9547 129.339 48.2587 128.869 48.6321 128.496C49.0054 128.123 49.4321 127.84 49.9121 127.648C50.4027 127.456 50.9041 127.36 51.4161 127.36C52.6107 127.36 53.5547 127.728 54.2481 128.464C54.9414 129.189 55.2881 130.261 55.2881 131.68C55.2881 131.819 55.2827 131.973 55.2721 132.144C55.2614 132.304 55.2507 132.448 55.2401 132.576H49.8321C49.8854 133.067 50.1147 133.456 50.5201 133.744C50.9254 134.032 51.4694 134.176 52.1521 134.176C52.5894 134.176 53.0161 134.139 53.4321 134.064C53.8587 133.979 54.2054 133.877 54.4721 133.76L54.7921 135.696C54.6641 135.76 54.4934 135.824 54.2801 135.888C54.0667 135.952 53.8267 136.005 53.5601 136.048C53.3041 136.101 53.0267 136.144 52.7281 136.176C52.4294 136.208 52.1307 136.224 51.8321 136.224C51.0747 136.224 50.4134 136.112 49.8481 135.888C49.2934 135.664 48.8294 135.36 48.4561 134.976C48.0934 134.581 47.8214 134.117 47.6401 133.584C47.4694 133.051 47.3841 132.475 47.3841 131.856ZM52.9841 130.944C52.9734 130.741 52.9361 130.544 52.8721 130.352C52.8187 130.16 52.7281 129.989 52.6001 129.84C52.4827 129.691 52.3281 129.568 52.1361 129.472C51.9547 129.376 51.7254 129.328 51.4481 129.328C51.1814 129.328 50.9521 129.376 50.7601 129.472C50.5681 129.557 50.4081 129.675 50.2801 129.824C50.1521 129.973 50.0507 130.149 49.9761 130.352C49.9121 130.544 49.8641 130.741 49.8321 130.944H52.9841ZM53.8161 125.68L52.9361 126.736L51.3361 125.504L49.7361 126.736L48.8241 125.68L51.3361 123.488L53.8161 125.68ZM57.1278 127.872C57.5331 127.755 58.0558 127.648 58.6958 127.552C59.3358 127.445 60.0078 127.392 60.7118 127.392C61.4265 127.392 62.0185 127.488 62.4878 127.68C62.9678 127.861 63.3465 128.123 63.6238 128.464C63.9011 128.805 64.0985 129.211 64.2158 129.68C64.3331 130.149 64.3918 130.672 64.3918 131.248V136H62.0078V131.536C62.0078 130.768 61.9065 130.224 61.7038 129.904C61.5011 129.584 61.1225 129.424 60.5678 129.424C60.3971 129.424 60.2158 129.435 60.0238 129.456C59.8318 129.467 59.6611 129.483 59.5118 129.504V136H57.1278V127.872ZM66.1497 131.792C66.1497 131.184 66.2457 130.613 66.4377 130.08C66.6404 129.536 66.9284 129.067 67.3017 128.672C67.675 128.267 68.1284 127.947 68.6617 127.712C69.195 127.477 69.803 127.36 70.4857 127.36C70.9337 127.36 71.3444 127.403 71.7177 127.488C72.091 127.563 72.4537 127.675 72.8057 127.824L72.3097 129.728C72.0857 129.643 71.8404 129.568 71.5737 129.504C71.307 129.44 71.0084 129.408 70.6777 129.408C69.9737 129.408 69.4457 129.627 69.0937 130.064C68.7524 130.501 68.5817 131.077 68.5817 131.792C68.5817 132.549 68.7417 133.136 69.0617 133.552C69.3924 133.968 69.963 134.176 70.7737 134.176C71.0617 134.176 71.371 134.149 71.7017 134.096C72.0324 134.043 72.3364 133.957 72.6137 133.84L72.9497 135.792C72.6724 135.909 72.3257 136.011 71.9097 136.096C71.4937 136.181 71.035 136.224 70.5337 136.224C69.7657 136.224 69.1044 136.112 68.5497 135.888C67.995 135.653 67.5364 135.339 67.1737 134.944C66.8217 134.549 66.5604 134.085 66.3897 133.552C66.2297 133.008 66.1497 132.421 66.1497 131.792ZM76.9337 136H74.5497V127.584H76.9337V136ZM77.1577 125.152C77.1577 125.589 77.0137 125.936 76.7257 126.192C76.4484 126.437 76.1177 126.56 75.7337 126.56C75.3497 126.56 75.0137 126.437 74.7257 126.192C74.4484 125.936 74.3097 125.589 74.3097 125.152C74.3097 124.715 74.4484 124.373 74.7257 124.128C75.0137 123.872 75.3497 123.744 75.7337 123.744C76.1177 123.744 76.4484 123.872 76.7257 124.128C77.0137 124.373 77.1577 124.715 77.1577 125.152ZM82.3907 134.336C82.6254 134.336 82.8494 134.331 83.0627 134.32C83.276 134.309 83.4467 134.293 83.5747 134.272V132.464C83.4787 132.443 83.3347 132.421 83.1427 132.4C82.9507 132.379 82.7747 132.368 82.6147 132.368C82.3907 132.368 82.1774 132.384 81.9747 132.416C81.7827 132.437 81.612 132.485 81.4627 132.56C81.3134 132.635 81.196 132.736 81.1107 132.864C81.0254 132.992 80.9827 133.152 80.9827 133.344C80.9827 133.717 81.1054 133.979 81.3507 134.128C81.6067 134.267 81.9534 134.336 82.3907 134.336ZM82.1987 127.36C82.9027 127.36 83.4894 127.44 83.9587 127.6C84.428 127.76 84.8014 127.989 85.0787 128.288C85.3667 128.587 85.5694 128.949 85.6867 129.376C85.804 129.803 85.8627 130.277 85.8627 130.8V135.76C85.5214 135.835 85.0467 135.92 84.4387 136.016C83.8307 136.123 83.0947 136.176 82.2307 136.176C81.6867 136.176 81.1907 136.128 80.7427 136.032C80.3054 135.936 79.9267 135.781 79.6067 135.568C79.2867 135.344 79.0414 135.056 78.8707 134.704C78.7 134.352 78.6147 133.92 78.6147 133.408C78.6147 132.917 78.7107 132.501 78.9027 132.16C79.1054 131.819 79.372 131.547 79.7027 131.344C80.0334 131.141 80.412 130.997 80.8387 130.912C81.2654 130.816 81.708 130.768 82.1667 130.768C82.476 130.768 82.748 130.784 82.9827 130.816C83.228 130.837 83.4254 130.869 83.5747 130.912V130.688C83.5747 130.283 83.452 129.957 83.2067 129.712C82.9614 129.467 82.5347 129.344 81.9267 129.344C81.5214 129.344 81.1214 129.376 80.7267 129.44C80.332 129.493 79.9907 129.573 79.7027 129.68L79.3987 127.76C79.5374 127.717 79.708 127.675 79.9107 127.632C80.124 127.579 80.3534 127.536 80.5987 127.504C80.844 127.461 81.1 127.429 81.3667 127.408C81.644 127.376 81.9214 127.36 82.1987 127.36ZM23.8327 144.584C24.27 144.584 24.6434 144.616 24.9527 144.68C25.2727 144.744 25.4967 144.803 25.6247 144.856L25.3527 146.136C25.2247 146.072 25.0434 146.013 24.8087 145.96C24.574 145.896 24.286 145.864 23.9447 145.864C23.2514 145.864 22.766 146.056 22.4887 146.44C22.2114 146.813 22.0727 147.32 22.0727 147.96V148.68H25.2727V149.928H22.0727V157H20.5847V147.928C20.5847 146.861 20.846 146.04 21.3687 145.464C21.8914 144.877 22.7127 144.584 23.8327 144.584ZM33.3806 156.76C33.0392 156.845 32.5859 156.936 32.0206 157.032C31.4659 157.128 30.8206 157.176 30.0846 157.176C29.4446 157.176 28.9059 157.085 28.4686 156.904C28.0312 156.712 27.6792 156.445 27.4126 156.104C27.1459 155.763 26.9539 155.363 26.8366 154.904C26.7192 154.435 26.6606 153.917 26.6606 153.352V148.68H28.1486V153.032C28.1486 154.045 28.3086 154.771 28.6286 155.208C28.9486 155.645 29.4872 155.864 30.2446 155.864C30.4046 155.864 30.5699 155.859 30.7406 155.848C30.9112 155.837 31.0712 155.827 31.2206 155.816C31.3699 155.795 31.5032 155.779 31.6206 155.768C31.7486 155.747 31.8392 155.725 31.8926 155.704V148.68H33.3806V156.76ZM35.9441 148.92C36.2854 148.835 36.7387 148.744 37.3041 148.648C37.8694 148.552 38.5201 148.504 39.2561 148.504C39.9174 148.504 40.4667 148.6 40.9041 148.792C41.3414 148.973 41.6881 149.235 41.9441 149.576C42.2107 149.907 42.3974 150.307 42.5041 150.776C42.6107 151.245 42.6641 151.763 42.6641 152.328V157H41.1761V152.648C41.1761 152.136 41.1387 151.699 41.0641 151.336C41.0001 150.973 40.8881 150.68 40.7281 150.456C40.5681 150.232 40.3547 150.072 40.0881 149.976C39.8214 149.869 39.4907 149.816 39.0961 149.816C38.9361 149.816 38.7707 149.821 38.6001 149.832C38.4294 149.843 38.2641 149.859 38.1041 149.88C37.9547 149.891 37.8161 149.907 37.6881 149.928C37.5707 149.949 37.4854 149.965 37.4321 149.976V157H35.9441V148.92ZM44.6676 152.856C44.6676 152.12 44.7742 151.48 44.9876 150.936C45.2009 150.381 45.4836 149.923 45.8356 149.56C46.1876 149.197 46.5929 148.925 47.0516 148.744C47.5102 148.563 47.9796 148.472 48.4596 148.472C49.5796 148.472 50.4382 148.824 51.0356 149.528C51.6329 150.221 51.9316 151.283 51.9316 152.712C51.9316 152.776 51.9316 152.861 51.9316 152.968C51.9316 153.064 51.9262 153.155 51.9156 153.24H46.2196C46.2836 154.104 46.5342 154.76 46.9716 155.208C47.4089 155.656 48.0916 155.88 49.0196 155.88C49.5422 155.88 49.9796 155.837 50.3316 155.752C50.6942 155.656 50.9662 155.565 51.1476 155.48L51.3556 156.728C51.1742 156.824 50.8542 156.925 50.3956 157.032C49.9476 157.139 49.4356 157.192 48.8596 157.192C48.1342 157.192 47.5049 157.085 46.9716 156.872C46.4489 156.648 46.0169 156.344 45.6756 155.96C45.3342 155.576 45.0782 155.123 44.9076 154.6C44.7476 154.067 44.6676 153.485 44.6676 152.856ZM50.3796 152.04C50.3902 151.368 50.2196 150.819 49.8676 150.392C49.5262 149.955 49.0516 149.736 48.4436 149.736C48.1022 149.736 47.7982 149.805 47.5316 149.944C47.2756 150.072 47.0569 150.243 46.8756 150.456C46.6942 150.669 46.5502 150.915 46.4436 151.192C46.3476 151.469 46.2836 151.752 46.2516 152.04H50.3796ZM57.1411 148.504C57.2691 148.504 57.4131 148.515 57.5731 148.536C57.7437 148.547 57.9091 148.568 58.0691 148.6C58.2291 148.621 58.3731 148.648 58.5011 148.68C58.6397 148.701 58.7411 148.723 58.8051 148.744L58.5491 150.04C58.4317 149.997 58.2344 149.949 57.9571 149.896C57.6904 149.832 57.3437 149.8 56.9171 149.8C56.6397 149.8 56.3624 149.832 56.0851 149.896C55.8184 149.949 55.6424 149.987 55.5571 150.008V157H54.0691V149.032C54.4211 148.904 54.8584 148.787 55.3811 148.68C55.9037 148.563 56.4904 148.504 57.1411 148.504ZM63.0569 155.928C63.4089 155.928 63.7183 155.923 63.9849 155.912C64.2623 155.891 64.4916 155.859 64.6729 155.816V153.336C64.5663 153.283 64.3903 153.24 64.1449 153.208C63.9103 153.165 63.6223 153.144 63.2809 153.144C63.0569 153.144 62.8169 153.16 62.5609 153.192C62.3156 153.224 62.0863 153.293 61.8729 153.4C61.6703 153.496 61.4996 153.635 61.3609 153.816C61.2223 153.987 61.1529 154.216 61.1529 154.504C61.1529 155.037 61.3236 155.411 61.6649 155.624C62.0063 155.827 62.4703 155.928 63.0569 155.928ZM62.9289 148.472C63.5263 148.472 64.0276 148.552 64.4329 148.712C64.8489 148.861 65.1796 149.08 65.4249 149.368C65.6809 149.645 65.8623 149.981 65.9689 150.376C66.0756 150.76 66.1289 151.187 66.1289 151.656V156.856C66.0009 156.877 65.8196 156.909 65.5849 156.952C65.3609 156.984 65.1049 157.016 64.8169 157.048C64.5289 157.08 64.2143 157.107 63.8729 157.128C63.5423 157.16 63.2116 157.176 62.8809 157.176C62.4116 157.176 61.9796 157.128 61.5849 157.032C61.1903 156.936 60.8489 156.787 60.5609 156.584C60.2729 156.371 60.0489 156.093 59.8889 155.752C59.7289 155.411 59.6489 155 59.6489 154.52C59.6489 154.061 59.7396 153.667 59.9209 153.336C60.1129 153.005 60.3689 152.739 60.6889 152.536C61.0089 152.333 61.3823 152.184 61.8089 152.088C62.2356 151.992 62.6836 151.944 63.1529 151.944C63.3023 151.944 63.4569 151.955 63.6169 151.976C63.7769 151.987 63.9263 152.008 64.0649 152.04C64.2143 152.061 64.3423 152.083 64.4489 152.104C64.5556 152.125 64.6303 152.141 64.6729 152.152V151.736C64.6729 151.491 64.6463 151.251 64.5929 151.016C64.5396 150.771 64.4436 150.557 64.3049 150.376C64.1663 150.184 63.9743 150.035 63.7289 149.928C63.4943 149.811 63.1849 149.752 62.8009 149.752C62.3103 149.752 61.8783 149.789 61.5049 149.864C61.1423 149.928 60.8703 149.997 60.6889 150.072L60.5129 148.84C60.7049 148.755 61.0249 148.675 61.4729 148.6C61.9209 148.515 62.4063 148.472 62.9289 148.472ZM71.0963 157.16C70.179 157.139 69.5283 156.941 69.1443 156.568C68.7603 156.195 68.5683 155.613 68.5683 154.824V144.84L70.0563 144.584V154.584C70.0563 154.829 70.0776 155.032 70.1203 155.192C70.163 155.352 70.2323 155.48 70.3283 155.576C70.4243 155.672 70.5523 155.747 70.7123 155.8C70.8723 155.843 71.0696 155.88 71.3043 155.912L71.0963 157.16Z" fill="#2F2F2F"/>
<defs>
<clipPath id="clip0">
<rect width="88" height="88" fill="white" transform="translate(2)"/>
</clipPath>
</defs>
</svg>
