<svg width="88" height="88" viewBox="0 0 88 88" fill="none" xmlns="http://www.w3.org/2000/svg">
<circle cx="44.3269" cy="44.3259" r="40.4148" fill="#BADBFE"/>
<path d="M66.5298 0H9.64062V88H78.3584V11.8285L66.5298 0ZM65.4616 6.22715L72.1312 12.8969H65.4614V6.22715H65.4616ZM14.7994 82.8412V5.15877H60.3027V18.0557H73.1996V82.8412H14.7994Z" fill="#00309E"/>
<path d="M22.5254 58.8099H27.6842V63.9687H22.5254V58.8099Z" fill="#00309E"/>
<path d="M22.5254 69.1274H27.6842V74.2862H22.5254V69.1274Z" fill="#00309E"/>
<path d="M32.8438 58.8099H65.4737V63.9687H32.8438V58.8099Z" fill="#00309E"/>
<path d="M22.5254 48.4924H27.6842V53.6512H22.5254V48.4924Z" fill="#00309E"/>
<path d="M32.8438 48.4924H65.4737V53.6512H32.8438V48.4924Z" fill="#00309E"/>
<path d="M32.8438 69.1274H65.4737V74.2862H32.8438V69.1274Z" fill="#00309E"/>
<path d="M34.762 40.2957H53.2363L56.3023 28.2537H58.2719V23.0949H57.6159H55.4104L46.0217 13.7567H41.9766L32.5881 23.0951H30.3826H29.7266V28.2539H31.6962L34.762 40.2957ZM49.2264 35.1369H38.7718L37.0195 28.2537H50.9788L49.2264 35.1369ZM43.9992 19.0211L48.0951 23.0951H39.9031L43.9992 19.0211Z" fill="#00309E"/>
</svg>
