<svg width="179" height="183" viewBox="0 0 179 183" fill="none" xmlns="http://www.w3.org/2000/svg">
<circle cx="90.3269" cy="44.3259" r="40.4148" fill="#BADBFE"/>
<path d="M123.372 61.187C120.606 57.4389 117.285 54.2429 113.523 51.6806L120.699 44.5765C125.92 39.6162 125.923 30.6804 120.699 25.7202C119.143 24.1792 118.285 22.1323 118.285 19.9566C118.285 8.95245 109.253 0 98.1513 0H81.6954C70.5934 0 61.5616 8.95245 61.5616 19.9566C61.5616 22.1323 60.7043 24.1792 59.1476 25.7202C53.9269 30.6797 53.9241 39.617 59.1478 44.5765C59.1476 44.5765 66.395 51.7507 66.395 51.7507C54.5764 59.7515 47.9173 73.7785 48.6734 88H131.345C131.739 78.3807 129.169 68.9318 123.372 61.187ZM110.634 69.9531C110.634 71.3747 109.478 72.5312 108.056 72.5312C104.636 72.3898 104.637 67.5159 108.056 67.375C109.478 67.375 110.634 68.5315 110.634 69.9531ZM62.775 40.9121C59.5792 37.8737 59.5764 32.423 62.7752 29.3848C65.3176 26.8678 66.7178 23.5195 66.7178 19.9566C66.7178 11.7958 73.4366 5.15625 81.6954 5.15625H98.1513C106.41 5.15625 113.129 11.7958 113.129 19.9566C113.129 23.5195 114.529 26.8678 117.072 29.3846C120.268 32.4222 120.27 37.8744 117.072 40.9119C117.072 40.9119 108.924 48.9772 108.924 48.9772C106.639 47.8192 104.188 46.886 101.696 46.1512C105.536 42.8392 107.97 37.9407 107.97 32.4842V16.1562H102.814C102.833 22.1346 95.5275 25.5093 90.4555 22.3297C90.4555 22.3298 88.3842 21.0686 88.3842 21.0686L86.9987 23.0588C85.5125 25.194 82.9844 26.4688 80.2365 26.4688C78.6513 26.4688 77.1176 26.0427 75.8012 25.2362L71.8765 22.8324C72.0002 32.1118 70.4733 39.4047 78.1965 46.1904C75.7036 46.9275 73.2626 47.8713 70.9805 49.0349L62.775 40.9121ZM89.9954 56.3585L84.7128 49.7631C88.0154 50.791 91.9327 50.7801 95.2276 49.7353L89.9954 56.3585ZM89.9233 45.375C82.3101 45.4116 76.4513 38.7668 77.0327 31.2505C81.5297 32.3637 86.6209 30.9667 89.7822 27.7355C93.9861 29.4525 99.2106 28.8454 102.814 26.1484V32.4844C102.814 39.5923 97.0314 45.375 89.9233 45.375ZM60.7957 64.2486C63.3334 60.8094 66.4078 57.9026 69.8999 55.6103V66.3527C66.8991 67.4051 64.7437 70.239 64.7437 73.5625V77.6875H69.8999V73.5625C69.8999 72.1884 71.0565 71.0703 72.478 71.0703C73.8996 71.0703 75.0562 72.1884 75.0562 73.5625V77.6875H80.2124V73.5625C80.2124 70.239 78.0569 67.4051 75.0562 66.3527V52.8086C76.4234 52.2046 77.8469 51.684 79.2953 51.2476L87.4312 61.4053V82.8438H53.9209C54.3994 76.1123 56.7517 69.7292 60.7957 64.2486ZM92.5874 82.8438V61.3956L100.628 51.2181C102.29 51.7162 103.922 52.3237 105.478 53.0415V62.6624C97.4039 65.6502 99.3388 77.5232 108.056 77.6877C116.775 77.5225 118.707 65.6487 110.634 62.6624V55.9546C119.483 61.9247 125.426 72.188 126.098 82.8439H92.5874V82.8438Z" fill="#00309E"/>
<path d="M7.19788 133.968C7.31521 133.979 7.44854 133.989 7.59788 134C7.75788 134 7.94454 134 8.15788 134C9.40588 134 10.3285 133.685 10.9259 133.056C11.5339 132.427 11.8379 131.557 11.8379 130.448C11.8379 129.285 11.5499 128.405 10.9739 127.808C10.3979 127.211 9.48588 126.912 8.23788 126.912C8.06721 126.912 7.89121 126.917 7.70988 126.928C7.52854 126.928 7.35788 126.939 7.19788 126.96V133.968ZM14.4139 130.448C14.4139 131.408 14.2645 132.245 13.9659 132.96C13.6672 133.675 13.2405 134.267 12.6859 134.736C12.1419 135.205 11.4752 135.557 10.6859 135.792C9.89654 136.027 9.01121 136.144 8.02988 136.144C7.58188 136.144 7.05921 136.123 6.46188 136.08C5.86454 136.048 5.27788 135.973 4.70188 135.856V125.056C5.27788 124.949 5.87521 124.88 6.49388 124.848C7.12321 124.805 7.66188 124.784 8.10988 124.784C9.05921 124.784 9.91788 124.891 10.6859 125.104C11.4645 125.317 12.1312 125.653 12.6859 126.112C13.2405 126.571 13.6672 127.157 13.9659 127.872C14.2645 128.587 14.4139 129.445 14.4139 130.448ZM15.9388 131.856C15.9388 131.109 16.0508 130.459 16.2747 129.904C16.5094 129.339 16.8134 128.869 17.1868 128.496C17.5601 128.123 17.9868 127.84 18.4668 127.648C18.9574 127.456 19.4588 127.36 19.9708 127.36C21.1654 127.36 22.1094 127.728 22.8028 128.464C23.4961 129.189 23.8428 130.261 23.8428 131.68C23.8428 131.819 23.8374 131.973 23.8268 132.144C23.8161 132.304 23.8054 132.448 23.7948 132.576H18.3868C18.4401 133.067 18.6694 133.456 19.0748 133.744C19.4801 134.032 20.0241 134.176 20.7068 134.176C21.1441 134.176 21.5708 134.139 21.9868 134.064C22.4134 133.979 22.7601 133.877 23.0268 133.76L23.3468 135.696C23.2188 135.76 23.0481 135.824 22.8348 135.888C22.6214 135.952 22.3814 136.005 22.1148 136.048C21.8588 136.101 21.5814 136.144 21.2828 136.176C20.9841 136.208 20.6854 136.224 20.3868 136.224C19.6294 136.224 18.9681 136.112 18.4028 135.888C17.8481 135.664 17.3841 135.36 17.0108 134.976C16.6481 134.581 16.3761 134.117 16.1948 133.584C16.0241 133.051 15.9388 132.475 15.9388 131.856ZM21.5388 130.944C21.5281 130.741 21.4908 130.544 21.4268 130.352C21.3734 130.16 21.2828 129.989 21.1548 129.84C21.0374 129.691 20.8828 129.568 20.6908 129.472C20.5094 129.376 20.2801 129.328 20.0028 129.328C19.7361 129.328 19.5068 129.376 19.3148 129.472C19.1228 129.557 18.9628 129.675 18.8348 129.824C18.7068 129.973 18.6054 130.149 18.5308 130.352C18.4668 130.544 18.4188 130.741 18.3868 130.944H21.5388ZM28.0985 134.288C28.5358 134.288 28.8452 134.245 29.0265 134.16C29.2078 134.075 29.2985 133.909 29.2985 133.664C29.2985 133.472 29.1812 133.307 28.9465 133.168C28.7118 133.019 28.3545 132.853 27.8745 132.672C27.5012 132.533 27.1598 132.389 26.8505 132.24C26.5518 132.091 26.2958 131.915 26.0825 131.712C25.8692 131.499 25.7038 131.248 25.5865 130.96C25.4692 130.672 25.4105 130.325 25.4105 129.92C25.4105 129.131 25.7038 128.507 26.2905 128.048C26.8772 127.589 27.6825 127.36 28.7065 127.36C29.2185 127.36 29.7092 127.408 30.1785 127.504C30.6478 127.589 31.0212 127.685 31.2985 127.792L30.8825 129.648C30.6052 129.552 30.3012 129.467 29.9705 129.392C29.6505 129.317 29.2878 129.28 28.8825 129.28C28.1358 129.28 27.7625 129.488 27.7625 129.904C27.7625 130 27.7785 130.085 27.8105 130.16C27.8425 130.235 27.9065 130.309 28.0025 130.384C28.0985 130.448 28.2265 130.523 28.3865 130.608C28.5572 130.683 28.7705 130.768 29.0265 130.864C29.5492 131.056 29.9812 131.248 30.3225 131.44C30.6638 131.621 30.9305 131.824 31.1225 132.048C31.3252 132.261 31.4638 132.501 31.5385 132.768C31.6238 133.035 31.6665 133.344 31.6665 133.696C31.6665 134.528 31.3518 135.157 30.7225 135.584C30.1038 136.011 29.2238 136.224 28.0825 136.224C27.3358 136.224 26.7118 136.16 26.2105 136.032C25.7198 135.904 25.3785 135.797 25.1865 135.712L25.5865 133.776C25.9918 133.936 26.4078 134.064 26.8345 134.16C27.2612 134.245 27.6825 134.288 28.0985 134.288ZM33.0481 131.792C33.0481 131.184 33.1441 130.613 33.3361 130.08C33.5388 129.536 33.8268 129.067 34.2001 128.672C34.5735 128.267 35.0268 127.947 35.5601 127.712C36.0935 127.477 36.7015 127.36 37.3841 127.36C37.8321 127.36 38.2428 127.403 38.6161 127.488C38.9895 127.563 39.3521 127.675 39.7041 127.824L39.2081 129.728C38.9841 129.643 38.7388 129.568 38.4721 129.504C38.2055 129.44 37.9068 129.408 37.5761 129.408C36.8721 129.408 36.3441 129.627 35.9921 130.064C35.6508 130.501 35.4801 131.077 35.4801 131.792C35.4801 132.549 35.6401 133.136 35.9601 133.552C36.2908 133.968 36.8615 134.176 37.6721 134.176C37.9601 134.176 38.2695 134.149 38.6001 134.096C38.9308 134.043 39.2348 133.957 39.5121 133.84L39.8481 135.792C39.5708 135.909 39.2241 136.011 38.8081 136.096C38.3921 136.181 37.9335 136.224 37.4321 136.224C36.6641 136.224 36.0028 136.112 35.4481 135.888C34.8935 135.653 34.4348 135.339 34.0721 134.944C33.7201 134.549 33.4588 134.085 33.2881 133.552C33.1281 133.008 33.0481 132.421 33.0481 131.792ZM48.9139 131.776C48.9139 132.437 48.8179 133.045 48.6259 133.6C48.4339 134.144 48.1565 134.613 47.7939 135.008C47.4312 135.392 46.9939 135.691 46.4819 135.904C45.9805 136.117 45.4152 136.224 44.7859 136.224C44.1672 136.224 43.6019 136.117 43.0899 135.904C42.5885 135.691 42.1565 135.392 41.7939 135.008C41.4312 134.613 41.1485 134.144 40.9459 133.6C40.7432 133.045 40.6419 132.437 40.6419 131.776C40.6419 131.115 40.7432 130.512 40.9459 129.968C41.1592 129.424 41.4472 128.96 41.8099 128.576C42.1832 128.192 42.6205 127.893 43.1219 127.68C43.6339 127.467 44.1885 127.36 44.7859 127.36C45.3939 127.36 45.9485 127.467 46.4499 127.68C46.9619 127.893 47.3992 128.192 47.7619 128.576C48.1245 128.96 48.4072 129.424 48.6099 129.968C48.8125 130.512 48.9139 131.115 48.9139 131.776ZM46.4819 131.776C46.4819 131.04 46.3325 130.464 46.0339 130.048C45.7459 129.621 45.3299 129.408 44.7859 129.408C44.2419 129.408 43.8205 129.621 43.5219 130.048C43.2232 130.464 43.0739 131.04 43.0739 131.776C43.0739 132.512 43.2232 133.099 43.5219 133.536C43.8205 133.963 44.2419 134.176 44.7859 134.176C45.3299 134.176 45.7459 133.963 46.0339 133.536C46.3325 133.099 46.4819 132.512 46.4819 131.776ZM50.7606 127.872C51.166 127.755 51.6886 127.648 52.3286 127.552C52.9686 127.445 53.6406 127.392 54.3446 127.392C55.0593 127.392 55.6513 127.488 56.1206 127.68C56.6006 127.861 56.9793 128.123 57.2566 128.464C57.534 128.805 57.7313 129.211 57.8486 129.68C57.966 130.149 58.0246 130.672 58.0246 131.248V136H55.6406V131.536C55.6406 130.768 55.5393 130.224 55.3366 129.904C55.134 129.584 54.7553 129.424 54.2006 129.424C54.03 129.424 53.8486 129.435 53.6566 129.456C53.4646 129.467 53.294 129.483 53.1446 129.504V136H50.7606V127.872ZM60.1025 125.488L62.4865 125.104V127.584H65.3505V129.568H62.4865V132.528C62.4865 133.029 62.5718 133.429 62.7425 133.728C62.9238 134.027 63.2812 134.176 63.8145 134.176C64.0705 134.176 64.3318 134.155 64.5985 134.112C64.8758 134.059 65.1265 133.989 65.3505 133.904L65.6865 135.76C65.3985 135.877 65.0785 135.979 64.7265 136.064C64.3745 136.149 63.9425 136.192 63.4305 136.192C62.7798 136.192 62.2412 136.107 61.8145 135.936C61.3878 135.755 61.0465 135.509 60.7905 135.2C60.5345 134.88 60.3532 134.496 60.2465 134.048C60.1505 133.6 60.1025 133.104 60.1025 132.56V125.488ZM74.8514 131.776C74.8514 132.437 74.7554 133.045 74.5634 133.6C74.3714 134.144 74.094 134.613 73.7314 135.008C73.3687 135.392 72.9314 135.691 72.4194 135.904C71.918 136.117 71.3527 136.224 70.7234 136.224C70.1047 136.224 69.5394 136.117 69.0274 135.904C68.526 135.691 68.094 135.392 67.7314 135.008C67.3687 134.613 67.086 134.144 66.8834 133.6C66.6807 133.045 66.5794 132.437 66.5794 131.776C66.5794 131.115 66.6807 130.512 66.8834 129.968C67.0967 129.424 67.3847 128.96 67.7474 128.576C68.1207 128.192 68.558 127.893 69.0594 127.68C69.5714 127.467 70.126 127.36 70.7234 127.36C71.3314 127.36 71.886 127.467 72.3874 127.68C72.8994 127.893 73.3367 128.192 73.6994 128.576C74.062 128.96 74.3447 129.424 74.5474 129.968C74.75 130.512 74.8514 131.115 74.8514 131.776ZM72.4194 131.776C72.4194 131.04 72.27 130.464 71.9714 130.048C71.6834 129.621 71.2674 129.408 70.7234 129.408C70.1794 129.408 69.758 129.621 69.4594 130.048C69.1607 130.464 69.0114 131.04 69.0114 131.776C69.0114 132.512 69.1607 133.099 69.4594 133.536C69.758 133.963 70.1794 134.176 70.7234 134.176C71.2674 134.176 71.6834 133.963 71.9714 133.536C72.27 133.099 72.4194 132.512 72.4194 131.776ZM79.1141 134.288C79.5515 134.288 79.8608 134.245 80.0421 134.16C80.2235 134.075 80.3141 133.909 80.3141 133.664C80.3141 133.472 80.1968 133.307 79.9621 133.168C79.7275 133.019 79.3701 132.853 78.8901 132.672C78.5168 132.533 78.1755 132.389 77.8661 132.24C77.5675 132.091 77.3115 131.915 77.0981 131.712C76.8848 131.499 76.7195 131.248 76.6021 130.96C76.4848 130.672 76.4261 130.325 76.4261 129.92C76.4261 129.131 76.7195 128.507 77.3061 128.048C77.8928 127.589 78.6981 127.36 79.7221 127.36C80.2341 127.36 80.7248 127.408 81.1941 127.504C81.6635 127.589 82.0368 127.685 82.3141 127.792L81.8981 129.648C81.6208 129.552 81.3168 129.467 80.9861 129.392C80.6661 129.317 80.3035 129.28 79.8981 129.28C79.1515 129.28 78.7781 129.488 78.7781 129.904C78.7781 130 78.7941 130.085 78.8261 130.16C78.8581 130.235 78.9221 130.309 79.0181 130.384C79.1141 130.448 79.2421 130.523 79.4021 130.608C79.5728 130.683 79.7861 130.768 80.0421 130.864C80.5648 131.056 80.9968 131.248 81.3381 131.44C81.6795 131.621 81.9461 131.824 82.1381 132.048C82.3408 132.261 82.4795 132.501 82.5541 132.768C82.6395 133.035 82.6821 133.344 82.6821 133.696C82.6821 134.528 82.3675 135.157 81.7381 135.584C81.1195 136.011 80.2395 136.224 79.0981 136.224C78.3515 136.224 77.7275 136.16 77.2261 136.032C76.7355 135.904 76.3941 135.797 76.2021 135.712L76.6021 133.776C77.0075 133.936 77.4235 134.064 77.8501 134.16C78.2768 134.245 78.6981 134.288 79.1141 134.288ZM90.3395 131.728C90.3395 132.464 90.5048 133.056 90.8355 133.504C91.1662 133.952 91.6568 134.176 92.3075 134.176C92.5208 134.176 92.7182 134.171 92.8995 134.16C93.0808 134.139 93.2302 134.117 93.3475 134.096V129.76C93.1982 129.664 93.0008 129.584 92.7555 129.52C92.5208 129.456 92.2808 129.424 92.0355 129.424C90.9048 129.424 90.3395 130.192 90.3395 131.728ZM95.7315 135.728C95.5182 135.792 95.2728 135.856 94.9955 135.92C94.7182 135.973 94.4248 136.021 94.1155 136.064C93.8168 136.107 93.5075 136.139 93.1875 136.16C92.8782 136.192 92.5795 136.208 92.2915 136.208C91.5982 136.208 90.9795 136.107 90.4355 135.904C89.8915 135.701 89.4328 135.413 89.0595 135.04C88.6862 134.656 88.3982 134.197 88.1955 133.664C88.0035 133.12 87.9075 132.512 87.9075 131.84C87.9075 131.157 87.9928 130.544 88.1635 130C88.3342 129.445 88.5795 128.976 88.8995 128.592C89.2195 128.208 89.6088 127.915 90.0675 127.712C90.5368 127.509 91.0702 127.408 91.6675 127.408C91.9982 127.408 92.2915 127.44 92.5475 127.504C92.8142 127.568 93.0808 127.659 93.3475 127.776V123.968L95.7315 123.584V135.728ZM97.5638 131.856C97.5638 131.109 97.6758 130.459 97.8997 129.904C98.1344 129.339 98.4384 128.869 98.8118 128.496C99.1851 128.123 99.6118 127.84 100.092 127.648C100.582 127.456 101.084 127.36 101.596 127.36C102.79 127.36 103.734 127.728 104.428 128.464C105.121 129.189 105.468 130.261 105.468 131.68C105.468 131.819 105.462 131.973 105.452 132.144C105.441 132.304 105.43 132.448 105.42 132.576H100.012C100.065 133.067 100.294 133.456 100.7 133.744C101.105 134.032 101.649 134.176 102.332 134.176C102.769 134.176 103.196 134.139 103.612 134.064C104.038 133.979 104.385 133.877 104.652 133.76L104.972 135.696C104.844 135.76 104.673 135.824 104.46 135.888C104.246 135.952 104.006 136.005 103.74 136.048C103.484 136.101 103.206 136.144 102.908 136.176C102.609 136.208 102.31 136.224 102.012 136.224C101.254 136.224 100.593 136.112 100.028 135.888C99.4731 135.664 99.0091 135.36 98.6358 134.976C98.2731 134.581 98.0011 134.117 97.8198 133.584C97.6491 133.051 97.5638 132.475 97.5638 131.856ZM103.164 130.944C103.153 130.741 103.116 130.544 103.052 130.352C102.998 130.16 102.908 129.989 102.78 129.84C102.662 129.691 102.508 129.568 102.316 129.472C102.134 129.376 101.905 129.328 101.628 129.328C101.361 129.328 101.132 129.376 100.94 129.472C100.748 129.557 100.588 129.675 100.46 129.824C100.332 129.973 100.23 130.149 100.156 130.352C100.092 130.544 100.044 130.741 100.012 130.944H103.164ZM114.367 134.336C114.602 134.336 114.826 134.331 115.039 134.32C115.253 134.309 115.423 134.293 115.551 134.272V132.464C115.455 132.443 115.311 132.421 115.119 132.4C114.927 132.379 114.751 132.368 114.591 132.368C114.367 132.368 114.154 132.384 113.951 132.416C113.759 132.437 113.589 132.485 113.439 132.56C113.29 132.635 113.173 132.736 113.087 132.864C113.002 132.992 112.959 133.152 112.959 133.344C112.959 133.717 113.082 133.979 113.327 134.128C113.583 134.267 113.93 134.336 114.367 134.336ZM114.175 127.36C114.879 127.36 115.466 127.44 115.935 127.6C116.405 127.76 116.778 127.989 117.055 128.288C117.343 128.587 117.546 128.949 117.663 129.376C117.781 129.803 117.839 130.277 117.839 130.8V135.76C117.498 135.835 117.023 135.92 116.415 136.016C115.807 136.123 115.071 136.176 114.207 136.176C113.663 136.176 113.167 136.128 112.719 136.032C112.282 135.936 111.903 135.781 111.583 135.568C111.263 135.344 111.018 135.056 110.847 134.704C110.677 134.352 110.591 133.92 110.591 133.408C110.591 132.917 110.687 132.501 110.879 132.16C111.082 131.819 111.349 131.547 111.679 131.344C112.01 131.141 112.389 130.997 112.815 130.912C113.242 130.816 113.685 130.768 114.143 130.768C114.453 130.768 114.725 130.784 114.959 130.816C115.205 130.837 115.402 130.869 115.551 130.912V130.688C115.551 130.283 115.429 129.957 115.183 129.712C114.938 129.467 114.511 129.344 113.903 129.344C113.498 129.344 113.098 129.376 112.703 129.44C112.309 129.493 111.967 129.573 111.679 129.68L111.375 127.76C111.514 127.717 111.685 127.675 111.887 127.632C112.101 127.579 112.33 127.536 112.575 127.504C112.821 127.461 113.077 127.429 113.343 127.408C113.621 127.376 113.898 127.36 114.175 127.36ZM119.915 125.488L122.299 125.104V127.584H125.163V129.568H122.299V132.528C122.299 133.029 122.384 133.429 122.555 133.728C122.736 134.027 123.094 134.176 123.627 134.176C123.883 134.176 124.144 134.155 124.411 134.112C124.688 134.059 124.939 133.989 125.163 133.904L125.499 135.76C125.211 135.877 124.891 135.979 124.539 136.064C124.187 136.149 123.755 136.192 123.243 136.192C122.592 136.192 122.054 136.107 121.627 135.936C121.2 135.755 120.859 135.509 120.603 135.2C120.347 134.88 120.166 134.496 120.059 134.048C119.963 133.6 119.915 133.104 119.915 132.56V125.488ZM126.392 131.856C126.392 131.109 126.504 130.459 126.728 129.904C126.963 129.339 127.267 128.869 127.64 128.496C128.013 128.123 128.44 127.84 128.92 127.648C129.411 127.456 129.912 127.36 130.424 127.36C131.619 127.36 132.563 127.728 133.256 128.464C133.949 129.189 134.296 130.261 134.296 131.68C134.296 131.819 134.291 131.973 134.28 132.144C134.269 132.304 134.259 132.448 134.248 132.576H128.84C128.893 133.067 129.123 133.456 129.528 133.744C129.933 134.032 130.477 134.176 131.16 134.176C131.597 134.176 132.024 134.139 132.44 134.064C132.867 133.979 133.213 133.877 133.48 133.76L133.8 135.696C133.672 135.76 133.501 135.824 133.288 135.888C133.075 135.952 132.835 136.005 132.568 136.048C132.312 136.101 132.035 136.144 131.736 136.176C131.437 136.208 131.139 136.224 130.84 136.224C130.083 136.224 129.421 136.112 128.856 135.888C128.301 135.664 127.837 135.36 127.464 134.976C127.101 134.581 126.829 134.117 126.648 133.584C126.477 133.051 126.392 132.475 126.392 131.856ZM131.992 130.944C131.981 130.741 131.944 130.544 131.88 130.352C131.827 130.16 131.736 129.989 131.608 129.84C131.491 129.691 131.336 129.568 131.144 129.472C130.963 129.376 130.733 129.328 130.456 129.328C130.189 129.328 129.96 129.376 129.768 129.472C129.576 129.557 129.416 129.675 129.288 129.824C129.16 129.973 129.059 130.149 128.984 130.352C128.92 130.544 128.872 130.741 128.84 130.944H131.992ZM132.36 124.56L129.72 126.784L128.632 125.808L130.904 123.216L132.36 124.56ZM141.131 136C141.195 135.221 141.329 134.411 141.531 133.568C141.734 132.725 141.979 131.899 142.267 131.088C142.566 130.277 142.897 129.515 143.259 128.8C143.622 128.075 143.99 127.451 144.363 126.928H139.547V124.896H147.307V126.624C146.966 126.997 146.587 127.515 146.171 128.176C145.766 128.837 145.377 129.589 145.003 130.432C144.641 131.264 144.321 132.16 144.043 133.12C143.777 134.08 143.611 135.04 143.547 136H141.131ZM156.497 130.432C156.497 132.299 156.14 133.733 155.425 134.736C154.721 135.728 153.745 136.224 152.497 136.224C151.249 136.224 150.268 135.728 149.553 134.736C148.849 133.733 148.497 132.299 148.497 130.432C148.497 129.504 148.588 128.683 148.769 127.968C148.961 127.253 149.233 126.651 149.585 126.16C149.937 125.669 150.358 125.296 150.849 125.04C151.34 124.784 151.889 124.656 152.497 124.656C153.745 124.656 154.721 125.157 155.425 126.16C156.14 127.152 156.497 128.576 156.497 130.432ZM154.065 130.432C154.065 129.877 154.038 129.376 153.985 128.928C153.932 128.469 153.846 128.075 153.729 127.744C153.612 127.413 153.452 127.157 153.249 126.976C153.046 126.795 152.796 126.704 152.497 126.704C152.198 126.704 151.948 126.795 151.745 126.976C151.553 127.157 151.393 127.413 151.265 127.744C151.148 128.075 151.062 128.469 151.009 128.928C150.956 129.376 150.929 129.877 150.929 130.432C150.929 130.987 150.956 131.493 151.009 131.952C151.062 132.411 151.148 132.805 151.265 133.136C151.393 133.467 151.553 133.723 151.745 133.904C151.948 134.085 152.198 134.176 152.497 134.176C152.796 134.176 153.046 134.085 153.249 133.904C153.452 133.723 153.612 133.467 153.729 133.136C153.846 132.805 153.932 132.411 153.985 131.952C154.038 131.493 154.065 130.987 154.065 130.432ZM163.271 127.76C163.271 128.763 163.015 129.531 162.503 130.064C161.991 130.597 161.303 130.864 160.439 130.864C159.575 130.864 158.887 130.597 158.375 130.064C157.863 129.531 157.607 128.763 157.607 127.76C157.607 126.757 157.863 125.989 158.375 125.456C158.887 124.923 159.575 124.656 160.439 124.656C161.303 124.656 161.991 124.923 162.503 125.456C163.015 125.989 163.271 126.757 163.271 127.76ZM161.463 127.76C161.463 127.216 161.367 126.821 161.175 126.576C160.983 126.331 160.738 126.208 160.439 126.208C160.13 126.208 159.879 126.331 159.687 126.576C159.506 126.821 159.415 127.216 159.415 127.76C159.415 128.304 159.506 128.704 159.687 128.96C159.879 129.205 160.13 129.328 160.439 129.328C160.738 129.328 160.983 129.205 161.175 128.96C161.367 128.704 161.463 128.304 161.463 127.76ZM166.391 124.912H168.615L162.359 136H160.135L166.391 124.912ZM171.175 133.152C171.175 134.155 170.919 134.923 170.407 135.456C169.895 135.989 169.207 136.256 168.343 136.256C167.479 136.256 166.791 135.989 166.279 135.456C165.767 134.923 165.511 134.155 165.511 133.152C165.511 132.149 165.767 131.381 166.279 130.848C166.791 130.315 167.479 130.048 168.343 130.048C169.207 130.048 169.895 130.315 170.407 130.848C170.919 131.381 171.175 132.149 171.175 133.152ZM169.367 133.152C169.367 132.608 169.271 132.213 169.079 131.968C168.887 131.723 168.642 131.6 168.343 131.6C168.034 131.6 167.783 131.723 167.591 131.968C167.41 132.213 167.319 132.608 167.319 133.152C167.319 133.696 167.41 134.096 167.591 134.352C167.783 134.597 168.034 134.72 168.343 134.72C168.642 134.72 168.887 134.597 169.079 134.352C169.271 134.096 169.367 133.696 169.367 133.152ZM11.441 152.856C11.441 152.12 11.5477 151.48 11.761 150.936C11.9743 150.381 12.257 149.923 12.609 149.56C12.961 149.197 13.3663 148.925 13.825 148.744C14.2837 148.563 14.753 148.472 15.233 148.472C16.353 148.472 17.2117 148.824 17.809 149.528C18.4063 150.221 18.705 151.283 18.705 152.712C18.705 152.776 18.705 152.861 18.705 152.968C18.705 153.064 18.6997 153.155 18.689 153.24H12.993C13.057 154.104 13.3077 154.76 13.745 155.208C14.1823 155.656 14.865 155.88 15.793 155.88C16.3157 155.88 16.753 155.837 17.105 155.752C17.4677 155.656 17.7397 155.565 17.921 155.48L18.129 156.728C17.9477 156.824 17.6277 156.925 17.169 157.032C16.721 157.139 16.209 157.192 15.633 157.192C14.9077 157.192 14.2783 157.085 13.745 156.872C13.2223 156.648 12.7903 156.344 12.449 155.96C12.1077 155.576 11.8517 155.123 11.681 154.6C11.521 154.067 11.441 153.485 11.441 152.856ZM17.153 152.04C17.1637 151.368 16.993 150.819 16.641 150.392C16.2997 149.955 15.825 149.736 15.217 149.736C14.8757 149.736 14.5717 149.805 14.305 149.944C14.049 150.072 13.8303 150.243 13.649 150.456C13.4677 150.669 13.3237 150.915 13.217 151.192C13.121 151.469 13.057 151.752 13.025 152.04H17.153ZM20.8425 148.92C21.1838 148.835 21.6318 148.744 22.1865 148.648C22.7518 148.552 23.4025 148.504 24.1385 148.504C24.6718 148.504 25.1198 148.579 25.4825 148.728C25.8452 148.867 26.1492 149.075 26.3945 149.352C26.4692 149.299 26.5865 149.224 26.7465 149.128C26.9065 149.032 27.1038 148.941 27.3385 148.856C27.5732 148.76 27.8345 148.68 28.1225 148.616C28.4105 148.541 28.7198 148.504 29.0505 148.504C29.6905 148.504 30.2132 148.6 30.6185 148.792C31.0238 148.973 31.3385 149.235 31.5625 149.576C31.7972 149.917 31.9518 150.323 32.0265 150.792C32.1118 151.261 32.1545 151.773 32.1545 152.328V157H30.6665V152.648C30.6665 152.157 30.6398 151.736 30.5865 151.384C30.5438 151.032 30.4532 150.739 30.3145 150.504C30.1865 150.269 30.0052 150.099 29.7705 149.992C29.5465 149.875 29.2532 149.816 28.8905 149.816C28.3892 149.816 27.9732 149.885 27.6425 150.024C27.3225 150.152 27.1038 150.269 26.9865 150.376C27.0718 150.653 27.1358 150.957 27.1785 151.288C27.2212 151.619 27.2425 151.965 27.2425 152.328V157H25.7545V152.648C25.7545 152.157 25.7278 151.736 25.6745 151.384C25.6212 151.032 25.5252 150.739 25.3865 150.504C25.2585 150.269 25.0772 150.099 24.8425 149.992C24.6185 149.875 24.3305 149.816 23.9785 149.816C23.8292 149.816 23.6692 149.821 23.4985 149.832C23.3278 149.843 23.1625 149.859 23.0025 149.88C22.8532 149.891 22.7145 149.907 22.5865 149.928C22.4585 149.949 22.3732 149.965 22.3305 149.976V157H20.8425V148.92ZM41.9429 157.192C41.2709 157.192 40.6789 157.085 40.1669 156.872C39.6655 156.659 39.2389 156.36 38.8869 155.976C38.5455 155.592 38.2895 155.139 38.1189 154.616C37.9482 154.083 37.8629 153.496 37.8629 152.856C37.8629 152.216 37.9535 151.629 38.1349 151.096C38.3269 150.563 38.5935 150.104 38.9349 149.72C39.2762 149.325 39.6922 149.021 40.1829 148.808C40.6842 148.584 41.2389 148.472 41.8469 148.472C42.2202 148.472 42.5935 148.504 42.9669 148.568C43.3402 148.632 43.6975 148.733 44.0389 148.872L43.7029 150.136C43.4789 150.029 43.2175 149.944 42.9189 149.88C42.6309 149.816 42.3215 149.784 41.9909 149.784C41.1589 149.784 40.5189 150.045 40.0709 150.568C39.6335 151.091 39.4149 151.853 39.4149 152.856C39.4149 153.304 39.4629 153.715 39.5589 154.088C39.6655 154.461 39.8255 154.781 40.0389 155.048C40.2629 155.315 40.5455 155.523 40.8869 155.672C41.2282 155.811 41.6442 155.88 42.1349 155.88C42.5295 155.88 42.8869 155.843 43.2069 155.768C43.5269 155.693 43.7775 155.613 43.9589 155.528L44.1669 156.776C44.0815 156.829 43.9589 156.883 43.7989 156.936C43.6389 156.979 43.4575 157.016 43.2549 157.048C43.0522 157.091 42.8335 157.123 42.5989 157.144C42.3749 157.176 42.1562 157.192 41.9429 157.192ZM52.9053 152.84C52.9053 153.501 52.8093 154.099 52.6173 154.632C52.4253 155.165 52.1533 155.624 51.8013 156.008C51.4599 156.392 51.0493 156.691 50.5693 156.904C50.0893 157.107 49.5666 157.208 49.0013 157.208C48.4359 157.208 47.9133 157.107 47.4333 156.904C46.9533 156.691 46.5373 156.392 46.1853 156.008C45.8439 155.624 45.5773 155.165 45.3853 154.632C45.1933 154.099 45.0973 153.501 45.0973 152.84C45.0973 152.189 45.1933 151.597 45.3853 151.064C45.5773 150.52 45.8439 150.056 46.1853 149.672C46.5373 149.288 46.9533 148.995 47.4333 148.792C47.9133 148.579 48.4359 148.472 49.0013 148.472C49.5666 148.472 50.0893 148.579 50.5693 148.792C51.0493 148.995 51.4599 149.288 51.8013 149.672C52.1533 150.056 52.4253 150.52 52.6173 151.064C52.8093 151.597 52.9053 152.189 52.9053 152.84ZM51.3533 152.84C51.3533 151.901 51.1399 151.16 50.7133 150.616C50.2973 150.061 49.7266 149.784 49.0013 149.784C48.2759 149.784 47.6999 150.061 47.2733 150.616C46.8573 151.16 46.6493 151.901 46.6493 152.84C46.6493 153.779 46.8573 154.525 47.2733 155.08C47.6999 155.624 48.2759 155.896 49.0013 155.896C49.7266 155.896 50.2973 155.624 50.7133 155.08C51.1399 154.525 51.3533 153.779 51.3533 152.84ZM54.9988 148.92C55.3401 148.835 55.7934 148.744 56.3588 148.648C56.9241 148.552 57.5748 148.504 58.3108 148.504C58.9721 148.504 59.5214 148.6 59.9588 148.792C60.3961 148.973 60.7428 149.235 60.9988 149.576C61.2654 149.907 61.4521 150.307 61.5588 150.776C61.6654 151.245 61.7188 151.763 61.7188 152.328V157H60.2308V152.648C60.2308 152.136 60.1934 151.699 60.1188 151.336C60.0548 150.973 59.9428 150.68 59.7828 150.456C59.6228 150.232 59.4094 150.072 59.1428 149.976C58.8761 149.869 58.5454 149.816 58.1508 149.816C57.9908 149.816 57.8254 149.821 57.6548 149.832C57.4841 149.843 57.3188 149.859 57.1588 149.88C57.0094 149.891 56.8708 149.907 56.7428 149.928C56.6254 149.949 56.5401 149.965 56.4868 149.976V157H54.9988V148.92ZM66.1223 155.928C66.7303 155.928 67.1783 155.848 67.4663 155.688C67.7649 155.528 67.9143 155.272 67.9143 154.92C67.9143 154.557 67.7703 154.269 67.4823 154.056C67.1943 153.843 66.7196 153.603 66.0583 153.336C65.7383 153.208 65.4289 153.08 65.1303 152.952C64.8423 152.813 64.5916 152.653 64.3783 152.472C64.1649 152.291 63.9943 152.072 63.8663 151.816C63.7383 151.56 63.6743 151.245 63.6743 150.872C63.6743 150.136 63.9463 149.555 64.4903 149.128C65.0343 148.691 65.7756 148.472 66.7143 148.472C66.9489 148.472 67.1836 148.488 67.4183 148.52C67.6529 148.541 67.8716 148.573 68.0743 148.616C68.2769 148.648 68.4529 148.685 68.6023 148.728C68.7623 148.771 68.8849 148.808 68.9703 148.84L68.6983 150.12C68.5383 150.035 68.2876 149.949 67.9463 149.864C67.6049 149.768 67.1943 149.72 66.7143 149.72C66.2983 149.72 65.9356 149.805 65.6263 149.976C65.3169 150.136 65.1623 150.392 65.1623 150.744C65.1623 150.925 65.1943 151.085 65.2582 151.224C65.3329 151.363 65.4396 151.491 65.5783 151.608C65.7276 151.715 65.9089 151.816 66.1223 151.912C66.3356 152.008 66.5916 152.109 66.8903 152.216C67.2849 152.365 67.6369 152.515 67.9463 152.664C68.2556 152.803 68.5169 152.968 68.7303 153.16C68.9543 153.352 69.1249 153.587 69.2423 153.864C69.3596 154.131 69.4183 154.461 69.4183 154.856C69.4183 155.624 69.1303 156.205 68.5543 156.6C67.9889 156.995 67.1783 157.192 66.1223 157.192C65.3863 157.192 64.8103 157.128 64.3943 157C63.9783 156.883 63.6956 156.792 63.5463 156.728L63.8183 155.448C63.9889 155.512 64.2609 155.608 64.6343 155.736C65.0076 155.864 65.5036 155.928 66.1223 155.928ZM77.9509 156.76C77.6095 156.845 77.1562 156.936 76.5909 157.032C76.0362 157.128 75.3909 157.176 74.6549 157.176C74.0149 157.176 73.4762 157.085 73.0389 156.904C72.6015 156.712 72.2495 156.445 71.9829 156.104C71.7162 155.763 71.5242 155.363 71.4069 154.904C71.2895 154.435 71.2309 153.917 71.2309 153.352V148.68H72.7189V153.032C72.7189 154.045 72.8789 154.771 73.1989 155.208C73.5189 155.645 74.0575 155.864 74.8149 155.864C74.9749 155.864 75.1402 155.859 75.3109 155.848C75.4815 155.837 75.6415 155.827 75.7909 155.816C75.9402 155.795 76.0735 155.779 76.1909 155.768C76.3189 155.747 76.4095 155.725 76.4629 155.704V148.68H77.9509V156.76ZM83.0104 157.16C82.093 157.139 81.4424 156.941 81.0584 156.568C80.6744 156.195 80.4824 155.613 80.4824 154.824V144.84L81.9704 144.584V154.584C81.9704 154.829 81.9917 155.032 82.0344 155.192C82.077 155.352 82.1464 155.48 82.2424 155.576C82.3384 155.672 82.4664 155.747 82.6264 155.8C82.7864 155.843 82.9837 155.88 83.2184 155.912L83.0104 157.16ZM86.2814 148.68H89.4334V149.928H86.2814V153.768C86.2814 154.184 86.3134 154.531 86.3774 154.808C86.4414 155.075 86.5374 155.288 86.6654 155.448C86.7934 155.597 86.9534 155.704 87.1454 155.768C87.3374 155.832 87.5614 155.864 87.8174 155.864C88.2654 155.864 88.6227 155.816 88.8894 155.72C89.1667 155.613 89.3587 155.539 89.4654 155.496L89.7534 156.728C89.604 156.803 89.3427 156.893 88.9694 157C88.596 157.117 88.1694 157.176 87.6894 157.176C87.124 157.176 86.6547 157.107 86.2814 156.968C85.9187 156.819 85.6254 156.6 85.4014 156.312C85.1774 156.024 85.0174 155.672 84.9214 155.256C84.836 154.829 84.7934 154.339 84.7934 153.784V146.36L86.2814 146.104V148.68ZM94.1429 155.928C94.4949 155.928 94.8042 155.923 95.0709 155.912C95.3482 155.891 95.5775 155.859 95.7589 155.816V153.336C95.6522 153.283 95.4762 153.24 95.2309 153.208C94.9962 153.165 94.7082 153.144 94.3669 153.144C94.1429 153.144 93.9029 153.16 93.6469 153.192C93.4015 153.224 93.1722 153.293 92.9589 153.4C92.7562 153.496 92.5855 153.635 92.4469 153.816C92.3082 153.987 92.2389 154.216 92.2389 154.504C92.2389 155.037 92.4095 155.411 92.7509 155.624C93.0922 155.827 93.5562 155.928 94.1429 155.928ZM94.0149 148.472C94.6122 148.472 95.1135 148.552 95.5189 148.712C95.9349 148.861 96.2655 149.08 96.5109 149.368C96.7669 149.645 96.9482 149.981 97.0549 150.376C97.1615 150.76 97.2149 151.187 97.2149 151.656V156.856C97.0869 156.877 96.9055 156.909 96.6709 156.952C96.4469 156.984 96.1909 157.016 95.9029 157.048C95.6149 157.08 95.3002 157.107 94.9589 157.128C94.6282 157.16 94.2975 157.176 93.9669 157.176C93.4975 157.176 93.0655 157.128 92.6709 157.032C92.2762 156.936 91.9349 156.787 91.6469 156.584C91.3589 156.371 91.1349 156.093 90.9749 155.752C90.8149 155.411 90.7349 155 90.7349 154.52C90.7349 154.061 90.8255 153.667 91.0069 153.336C91.1989 153.005 91.4549 152.739 91.7749 152.536C92.0949 152.333 92.4682 152.184 92.8949 152.088C93.3215 151.992 93.7695 151.944 94.2389 151.944C94.3882 151.944 94.5429 151.955 94.7029 151.976C94.8629 151.987 95.0122 152.008 95.1509 152.04C95.3002 152.061 95.4282 152.083 95.5349 152.104C95.6415 152.125 95.7162 152.141 95.7589 152.152V151.736C95.7589 151.491 95.7322 151.251 95.6789 151.016C95.6255 150.771 95.5295 150.557 95.3909 150.376C95.2522 150.184 95.0602 150.035 94.8149 149.928C94.5802 149.811 94.2709 149.752 93.8869 149.752C93.3962 149.752 92.9642 149.789 92.5909 149.864C92.2282 149.928 91.9562 149.997 91.7749 150.072L91.5989 148.84C91.7909 148.755 92.1109 148.675 92.5589 148.6C93.0069 148.515 93.4922 148.472 94.0149 148.472ZM101.622 155.928C102.23 155.928 102.678 155.848 102.966 155.688C103.265 155.528 103.414 155.272 103.414 154.92C103.414 154.557 103.27 154.269 102.982 154.056C102.694 153.843 102.22 153.603 101.558 153.336C101.238 153.208 100.929 153.08 100.63 152.952C100.342 152.813 100.092 152.653 99.8783 152.472C99.6649 152.291 99.4943 152.072 99.3663 151.816C99.2383 151.56 99.1743 151.245 99.1743 150.872C99.1743 150.136 99.4463 149.555 99.9903 149.128C100.534 148.691 101.276 148.472 102.214 148.472C102.449 148.472 102.684 148.488 102.918 148.52C103.153 148.541 103.372 148.573 103.574 148.616C103.777 148.648 103.953 148.685 104.102 148.728C104.262 148.771 104.385 148.808 104.47 148.84L104.198 150.12C104.038 150.035 103.788 149.949 103.446 149.864C103.105 149.768 102.694 149.72 102.214 149.72C101.798 149.72 101.436 149.805 101.126 149.976C100.817 150.136 100.662 150.392 100.662 150.744C100.662 150.925 100.694 151.085 100.758 151.224C100.833 151.363 100.94 151.491 101.078 151.608C101.228 151.715 101.409 151.816 101.622 151.912C101.836 152.008 102.092 152.109 102.39 152.216C102.785 152.365 103.137 152.515 103.446 152.664C103.756 152.803 104.017 152.968 104.23 153.16C104.454 153.352 104.625 153.587 104.742 153.864C104.86 154.131 104.918 154.461 104.918 154.856C104.918 155.624 104.63 156.205 104.054 156.6C103.489 156.995 102.678 157.192 101.622 157.192C100.886 157.192 100.31 157.128 99.8943 157C99.4783 156.883 99.1956 156.792 99.0463 156.728L99.3183 155.448C99.4889 155.512 99.7609 155.608 100.134 155.736C100.508 155.864 101.004 155.928 101.622 155.928ZM110.53 148.92C110.871 148.835 111.319 148.744 111.874 148.648C112.439 148.552 113.09 148.504 113.826 148.504C114.359 148.504 114.807 148.579 115.17 148.728C115.533 148.867 115.837 149.075 116.082 149.352C116.157 149.299 116.274 149.224 116.434 149.128C116.594 149.032 116.791 148.941 117.026 148.856C117.261 148.76 117.522 148.68 117.81 148.616C118.098 148.541 118.407 148.504 118.738 148.504C119.378 148.504 119.901 148.6 120.306 148.792C120.711 148.973 121.026 149.235 121.25 149.576C121.485 149.917 121.639 150.323 121.714 150.792C121.799 151.261 121.842 151.773 121.842 152.328V157H120.354V152.648C120.354 152.157 120.327 151.736 120.274 151.384C120.231 151.032 120.141 150.739 120.002 150.504C119.874 150.269 119.693 150.099 119.458 149.992C119.234 149.875 118.941 149.816 118.578 149.816C118.077 149.816 117.661 149.885 117.33 150.024C117.01 150.152 116.791 150.269 116.674 150.376C116.759 150.653 116.823 150.957 116.866 151.288C116.909 151.619 116.93 151.965 116.93 152.328V157H115.442V152.648C115.442 152.157 115.415 151.736 115.362 151.384C115.309 151.032 115.213 150.739 115.074 150.504C114.946 150.269 114.765 150.099 114.53 149.992C114.306 149.875 114.018 149.816 113.666 149.816C113.517 149.816 113.357 149.821 113.186 149.832C113.015 149.843 112.85 149.859 112.69 149.88C112.541 149.891 112.402 149.907 112.274 149.928C112.146 149.949 112.061 149.965 112.018 149.976V157H110.53V148.92ZM123.847 152.856C123.847 152.12 123.954 151.48 124.167 150.936C124.381 150.381 124.663 149.923 125.015 149.56C125.367 149.197 125.773 148.925 126.231 148.744C126.69 148.563 127.159 148.472 127.639 148.472C128.759 148.472 129.618 148.824 130.215 149.528C130.813 150.221 131.111 151.283 131.111 152.712C131.111 152.776 131.111 152.861 131.111 152.968C131.111 153.064 131.106 153.155 131.095 153.24H125.399C125.463 154.104 125.714 154.76 126.151 155.208C126.589 155.656 127.271 155.88 128.199 155.88C128.722 155.88 129.159 155.837 129.511 155.752C129.874 155.656 130.146 155.565 130.327 155.48L130.535 156.728C130.354 156.824 130.034 156.925 129.575 157.032C129.127 157.139 128.615 157.192 128.039 157.192C127.314 157.192 126.685 157.085 126.151 156.872C125.629 156.648 125.197 156.344 124.855 155.96C124.514 155.576 124.258 155.123 124.087 154.6C123.927 154.067 123.847 153.485 123.847 152.856ZM129.559 152.04C129.57 151.368 129.399 150.819 129.047 150.392C128.706 149.955 128.231 149.736 127.623 149.736C127.282 149.736 126.978 149.805 126.711 149.944C126.455 150.072 126.237 150.243 126.055 150.456C125.874 150.669 125.73 150.915 125.623 151.192C125.527 151.469 125.463 151.752 125.431 152.04H129.559ZM129.543 145.528L127.287 147.72L126.535 147.048L128.583 144.584L129.543 145.528ZM138.625 150.44C138.443 150.291 138.182 150.147 137.841 150.008C137.499 149.869 137.126 149.8 136.721 149.8C136.294 149.8 135.926 149.88 135.617 150.04C135.318 150.189 135.073 150.403 134.881 150.68C134.689 150.947 134.55 151.267 134.465 151.64C134.379 152.013 134.337 152.413 134.337 152.84C134.337 153.811 134.577 154.563 135.057 155.096C135.537 155.619 136.177 155.88 136.977 155.88C137.382 155.88 137.718 155.864 137.985 155.832C138.262 155.789 138.475 155.747 138.625 155.704V150.44ZM138.625 144.84L140.113 144.584V156.76C139.771 156.856 139.334 156.952 138.801 157.048C138.267 157.144 137.654 157.192 136.961 157.192C136.321 157.192 135.745 157.091 135.233 156.888C134.721 156.685 134.283 156.397 133.921 156.024C133.558 155.651 133.275 155.197 133.073 154.664C132.881 154.12 132.785 153.512 132.785 152.84C132.785 152.2 132.865 151.613 133.025 151.08C133.195 150.547 133.441 150.088 133.761 149.704C134.081 149.32 134.47 149.021 134.929 148.808C135.398 148.595 135.931 148.488 136.529 148.488C137.009 148.488 137.43 148.552 137.793 148.68C138.166 148.808 138.443 148.931 138.625 149.048V144.84ZM144.159 157H142.671V148.68H144.159V157ZM143.407 147.176C143.14 147.176 142.911 147.091 142.719 146.92C142.537 146.739 142.447 146.499 142.447 146.2C142.447 145.901 142.537 145.667 142.719 145.496C142.911 145.315 143.14 145.224 143.407 145.224C143.673 145.224 143.897 145.315 144.079 145.496C144.271 145.667 144.367 145.901 144.367 146.2C144.367 146.499 144.271 146.739 144.079 146.92C143.897 147.091 143.673 147.176 143.407 147.176ZM150.334 157.192C149.662 157.192 149.07 157.085 148.558 156.872C148.056 156.659 147.63 156.36 147.278 155.976C146.936 155.592 146.68 155.139 146.51 154.616C146.339 154.083 146.254 153.496 146.254 152.856C146.254 152.216 146.344 151.629 146.526 151.096C146.718 150.563 146.984 150.104 147.326 149.72C147.667 149.325 148.083 149.021 148.574 148.808C149.075 148.584 149.63 148.472 150.238 148.472C150.611 148.472 150.984 148.504 151.358 148.568C151.731 148.632 152.088 148.733 152.43 148.872L152.094 150.136C151.87 150.029 151.608 149.944 151.31 149.88C151.022 149.816 150.712 149.784 150.382 149.784C149.55 149.784 148.91 150.045 148.462 150.568C148.024 151.091 147.806 151.853 147.806 152.856C147.806 153.304 147.854 153.715 147.95 154.088C148.056 154.461 148.216 154.781 148.43 155.048C148.654 155.315 148.936 155.523 149.278 155.672C149.619 155.811 150.035 155.88 150.526 155.88C150.92 155.88 151.278 155.843 151.598 155.768C151.918 155.693 152.168 155.613 152.35 155.528L152.558 156.776C152.472 156.829 152.35 156.883 152.19 156.936C152.03 156.979 151.848 157.016 151.646 157.048C151.443 157.091 151.224 157.123 150.99 157.144C150.766 157.176 150.547 157.192 150.334 157.192ZM156.971 155.928C157.323 155.928 157.632 155.923 157.899 155.912C158.176 155.891 158.406 155.859 158.587 155.816V153.336C158.48 153.283 158.304 153.24 158.059 153.208C157.824 153.165 157.536 153.144 157.195 153.144C156.971 153.144 156.731 153.16 156.475 153.192C156.23 153.224 156 153.293 155.787 153.4C155.584 153.496 155.414 153.635 155.275 153.816C155.136 153.987 155.067 154.216 155.067 154.504C155.067 155.037 155.238 155.411 155.579 155.624C155.92 155.827 156.384 155.928 156.971 155.928ZM156.843 148.472C157.44 148.472 157.942 148.552 158.347 148.712C158.763 148.861 159.094 149.08 159.339 149.368C159.595 149.645 159.776 149.981 159.883 150.376C159.99 150.76 160.043 151.187 160.043 151.656V156.856C159.915 156.877 159.734 156.909 159.499 156.952C159.275 156.984 159.019 157.016 158.731 157.048C158.443 157.08 158.128 157.107 157.787 157.128C157.456 157.16 157.126 157.176 156.795 157.176C156.326 157.176 155.894 157.128 155.499 157.032C155.104 156.936 154.763 156.787 154.475 156.584C154.187 156.371 153.963 156.093 153.803 155.752C153.643 155.411 153.563 155 153.563 154.52C153.563 154.061 153.654 153.667 153.835 153.336C154.027 153.005 154.283 152.739 154.603 152.536C154.923 152.333 155.296 152.184 155.723 152.088C156.15 151.992 156.598 151.944 157.067 151.944C157.216 151.944 157.371 151.955 157.531 151.976C157.691 151.987 157.84 152.008 157.979 152.04C158.128 152.061 158.256 152.083 158.363 152.104C158.47 152.125 158.544 152.141 158.587 152.152V151.736C158.587 151.491 158.56 151.251 158.507 151.016C158.454 150.771 158.358 150.557 158.219 150.376C158.08 150.184 157.888 150.035 157.643 149.928C157.408 149.811 157.099 149.752 156.715 149.752C156.224 149.752 155.792 149.789 155.419 149.864C155.056 149.928 154.784 149.997 154.603 150.072L154.427 148.84C154.619 148.755 154.939 148.675 155.387 148.6C155.835 148.515 156.32 148.472 156.843 148.472ZM164.45 155.928C165.058 155.928 165.506 155.848 165.794 155.688C166.093 155.528 166.242 155.272 166.242 154.92C166.242 154.557 166.098 154.269 165.81 154.056C165.522 153.843 165.048 153.603 164.386 153.336C164.066 153.208 163.757 153.08 163.458 152.952C163.17 152.813 162.92 152.653 162.706 152.472C162.493 152.291 162.322 152.072 162.194 151.816C162.066 151.56 162.002 151.245 162.002 150.872C162.002 150.136 162.274 149.555 162.818 149.128C163.362 148.691 164.104 148.472 165.042 148.472C165.277 148.472 165.512 148.488 165.746 148.52C165.981 148.541 166.2 148.573 166.402 148.616C166.605 148.648 166.781 148.685 166.93 148.728C167.09 148.771 167.213 148.808 167.298 148.84L167.026 150.12C166.866 150.035 166.616 149.949 166.274 149.864C165.933 149.768 165.522 149.72 165.042 149.72C164.626 149.72 164.264 149.805 163.954 149.976C163.645 150.136 163.49 150.392 163.49 150.744C163.49 150.925 163.522 151.085 163.586 151.224C163.661 151.363 163.768 151.491 163.906 151.608C164.056 151.715 164.237 151.816 164.45 151.912C164.664 152.008 164.92 152.109 165.218 152.216C165.613 152.365 165.965 152.515 166.274 152.664C166.584 152.803 166.845 152.968 167.058 153.16C167.282 153.352 167.453 153.587 167.57 153.864C167.688 154.131 167.746 154.461 167.746 154.856C167.746 155.624 167.458 156.205 166.882 156.6C166.317 156.995 165.506 157.192 164.45 157.192C163.714 157.192 163.138 157.128 162.722 157C162.306 156.883 162.024 156.792 161.874 156.728L162.146 155.448C162.317 155.512 162.589 155.608 162.962 155.736C163.336 155.864 163.832 155.928 164.45 155.928ZM3.00163 173.216C3.00163 174.581 3.19896 175.845 3.59363 177.008C3.98829 178.171 4.56963 179.248 5.33763 180.24L4.28163 180.96C3.44963 179.947 2.77763 178.784 2.26562 177.472C1.76429 176.149 1.51363 174.731 1.51363 173.216C1.51363 171.701 1.76429 170.288 2.26562 168.976C2.77763 167.653 3.44963 166.485 4.28163 165.472L5.33763 166.192C4.56963 167.184 3.98829 168.261 3.59363 169.424C3.19896 170.587 3.00163 171.851 3.00163 173.216ZM10.3491 178.192C9.67713 178.192 9.08513 178.085 8.57313 177.872C8.07179 177.659 7.64513 177.36 7.29313 176.976C6.95179 176.592 6.69579 176.139 6.52513 175.616C6.35446 175.083 6.26913 174.496 6.26913 173.856C6.26913 173.216 6.35979 172.629 6.54113 172.096C6.73313 171.563 6.99979 171.104 7.34113 170.72C7.68246 170.325 8.09846 170.021 8.58913 169.808C9.09046 169.584 9.64513 169.472 10.2531 169.472C10.6265 169.472 10.9998 169.504 11.3731 169.568C11.7465 169.632 12.1038 169.733 12.4451 169.872L12.1091 171.136C11.8851 171.029 11.6238 170.944 11.3251 170.88C11.0371 170.816 10.7278 170.784 10.3971 170.784C9.56513 170.784 8.92513 171.045 8.47713 171.568C8.03979 172.091 7.82113 172.853 7.82113 173.856C7.82113 174.304 7.86913 174.715 7.96513 175.088C8.07179 175.461 8.23179 175.781 8.44513 176.048C8.66913 176.315 8.95179 176.523 9.29313 176.672C9.63446 176.811 10.0505 176.88 10.5411 176.88C10.9358 176.88 11.2931 176.843 11.6131 176.768C11.9331 176.693 12.1838 176.613 12.3651 176.528L12.5731 177.776C12.4878 177.829 12.3651 177.883 12.2051 177.936C12.0451 177.979 11.8638 178.016 11.6611 178.048C11.4585 178.091 11.2398 178.123 11.0051 178.144C10.7811 178.176 10.5625 178.192 10.3491 178.192ZM16.6666 178.16C15.7493 178.139 15.0986 177.941 14.7146 177.568C14.3306 177.195 14.1386 176.613 14.1386 175.824V165.84L15.6266 165.584V175.584C15.6266 175.829 15.648 176.032 15.6906 176.192C15.7333 176.352 15.8026 176.48 15.8986 176.576C15.9946 176.672 16.1226 176.747 16.2826 176.8C16.4426 176.843 16.64 176.88 16.8746 176.912L16.6666 178.16ZM20.0336 178H18.5456V169.68H20.0336V178ZM21.2336 166.528L18.9776 168.72L18.2256 168.048L20.2736 165.584L21.2336 166.528ZM22.5925 169.92C22.9338 169.835 23.3872 169.744 23.9525 169.648C24.5178 169.552 25.1685 169.504 25.9045 169.504C26.5658 169.504 27.1152 169.6 27.5525 169.792C27.9898 169.973 28.3365 170.235 28.5925 170.576C28.8592 170.907 29.0458 171.307 29.1525 171.776C29.2592 172.245 29.3125 172.763 29.3125 173.328V178H27.8245V173.648C27.8245 173.136 27.7872 172.699 27.7125 172.336C27.6485 171.973 27.5365 171.68 27.3765 171.456C27.2165 171.232 27.0032 171.072 26.7365 170.976C26.4698 170.869 26.1392 170.816 25.7445 170.816C25.5845 170.816 25.4192 170.821 25.2485 170.832C25.0778 170.843 24.9125 170.859 24.7525 170.88C24.6032 170.891 24.4645 170.907 24.3365 170.928C24.2192 170.949 24.1338 170.965 24.0805 170.976V178H22.5925V169.92ZM33.268 178H31.78V169.68H33.268V178ZM32.516 168.176C32.2493 168.176 32.02 168.091 31.828 167.92C31.6467 167.739 31.556 167.499 31.556 167.2C31.556 166.901 31.6467 166.667 31.828 166.496C32.02 166.315 32.2493 166.224 32.516 166.224C32.7827 166.224 33.0067 166.315 33.188 166.496C33.38 166.667 33.476 166.901 33.476 167.2C33.476 167.499 33.38 167.739 33.188 167.92C33.0067 168.091 32.7827 168.176 32.516 168.176ZM39.4429 178.192C38.7709 178.192 38.1789 178.085 37.6669 177.872C37.1655 177.659 36.7389 177.36 36.3869 176.976C36.0455 176.592 35.7895 176.139 35.6189 175.616C35.4482 175.083 35.3629 174.496 35.3629 173.856C35.3629 173.216 35.4535 172.629 35.6349 172.096C35.8269 171.563 36.0935 171.104 36.4349 170.72C36.7762 170.325 37.1922 170.021 37.6829 169.808C38.1842 169.584 38.7389 169.472 39.3469 169.472C39.7202 169.472 40.0935 169.504 40.4669 169.568C40.8402 169.632 41.1975 169.733 41.5389 169.872L41.2029 171.136C40.9789 171.029 40.7175 170.944 40.4189 170.88C40.1309 170.816 39.8215 170.784 39.4909 170.784C38.6589 170.784 38.0189 171.045 37.5709 171.568C37.1335 172.091 36.9149 172.853 36.9149 173.856C36.9149 174.304 36.9629 174.715 37.0589 175.088C37.1655 175.461 37.3255 175.781 37.5389 176.048C37.7629 176.315 38.0455 176.523 38.3869 176.672C38.7282 176.811 39.1442 176.88 39.6349 176.88C40.0295 176.88 40.3869 176.843 40.7069 176.768C41.0269 176.693 41.2775 176.613 41.4589 176.528L41.6669 177.776C41.5815 177.829 41.4589 177.883 41.2989 177.936C41.1389 177.979 40.9575 178.016 40.7549 178.048C40.5522 178.091 40.3335 178.123 40.0989 178.144C39.8749 178.176 39.6562 178.192 39.4429 178.192ZM50.4053 173.84C50.4053 174.501 50.3093 175.099 50.1173 175.632C49.9253 176.165 49.6533 176.624 49.3013 177.008C48.9599 177.392 48.5493 177.691 48.0693 177.904C47.5893 178.107 47.0666 178.208 46.5013 178.208C45.9359 178.208 45.4133 178.107 44.9333 177.904C44.4533 177.691 44.0373 177.392 43.6853 177.008C43.3439 176.624 43.0773 176.165 42.8853 175.632C42.6933 175.099 42.5973 174.501 42.5973 173.84C42.5973 173.189 42.6933 172.597 42.8853 172.064C43.0773 171.52 43.3439 171.056 43.6853 170.672C44.0373 170.288 44.4533 169.995 44.9333 169.792C45.4133 169.579 45.9359 169.472 46.5013 169.472C47.0666 169.472 47.5893 169.579 48.0693 169.792C48.5493 169.995 48.9599 170.288 49.3013 170.672C49.6533 171.056 49.9253 171.52 50.1173 172.064C50.3093 172.597 50.4053 173.189 50.4053 173.84ZM48.8533 173.84C48.8533 172.901 48.6399 172.16 48.2133 171.616C47.7973 171.061 47.2266 170.784 46.5013 170.784C45.7759 170.784 45.1999 171.061 44.7733 171.616C44.3573 172.16 44.1493 172.901 44.1493 173.84C44.1493 174.779 44.3573 175.525 44.7733 176.08C45.1999 176.624 45.7759 176.896 46.5013 176.896C47.2266 176.896 47.7973 176.624 48.2133 176.08C48.6399 175.525 48.8533 174.779 48.8533 173.84ZM55.7379 173.856C55.7379 173.12 55.8445 172.48 56.0579 171.936C56.2712 171.381 56.5539 170.923 56.9059 170.56C57.2579 170.197 57.6632 169.925 58.1219 169.744C58.5805 169.563 59.0499 169.472 59.5299 169.472C60.6499 169.472 61.5085 169.824 62.1059 170.528C62.7032 171.221 63.0019 172.283 63.0019 173.712C63.0019 173.776 63.0019 173.861 63.0019 173.968C63.0019 174.064 62.9965 174.155 62.9859 174.24H57.2899C57.3539 175.104 57.6045 175.76 58.0419 176.208C58.4792 176.656 59.1619 176.88 60.0899 176.88C60.6125 176.88 61.0499 176.837 61.4019 176.752C61.7645 176.656 62.0365 176.565 62.2179 176.48L62.4259 177.728C62.2445 177.824 61.9245 177.925 61.4659 178.032C61.0179 178.139 60.5059 178.192 59.9299 178.192C59.2045 178.192 58.5752 178.085 58.0419 177.872C57.5192 177.648 57.0872 177.344 56.7459 176.96C56.4045 176.576 56.1485 176.123 55.9779 175.6C55.8179 175.067 55.7379 174.485 55.7379 173.856ZM61.4499 173.04C61.4605 172.368 61.2899 171.819 60.9379 171.392C60.5965 170.955 60.1219 170.736 59.5139 170.736C59.1725 170.736 58.8685 170.805 58.6019 170.944C58.3459 171.072 58.1272 171.243 57.9459 171.456C57.7645 171.669 57.6205 171.915 57.5139 172.192C57.4179 172.469 57.3539 172.752 57.3219 173.04H61.4499ZM68.3785 173.856C68.3785 173.12 68.4852 172.48 68.6985 171.936C68.9118 171.381 69.1945 170.923 69.5465 170.56C69.8985 170.197 70.3038 169.925 70.7625 169.744C71.2212 169.563 71.6905 169.472 72.1705 169.472C73.2905 169.472 74.1492 169.824 74.7465 170.528C75.3438 171.221 75.6425 172.283 75.6425 173.712C75.6425 173.776 75.6425 173.861 75.6425 173.968C75.6425 174.064 75.6372 174.155 75.6265 174.24H69.9305C69.9945 175.104 70.2452 175.76 70.6825 176.208C71.1198 176.656 71.8025 176.88 72.7305 176.88C73.2532 176.88 73.6905 176.837 74.0425 176.752C74.4052 176.656 74.6772 176.565 74.8585 176.48L75.0665 177.728C74.8852 177.824 74.5652 177.925 74.1065 178.032C73.6585 178.139 73.1465 178.192 72.5705 178.192C71.8452 178.192 71.2158 178.085 70.6825 177.872C70.1598 177.648 69.7278 177.344 69.3865 176.96C69.0452 176.576 68.7892 176.123 68.6185 175.6C68.4585 175.067 68.3785 174.485 68.3785 173.856ZM74.0905 173.04C74.1012 172.368 73.9305 171.819 73.5785 171.392C73.2372 170.955 72.7625 170.736 72.1545 170.736C71.8132 170.736 71.5092 170.805 71.2425 170.944C70.9865 171.072 70.7678 171.243 70.5865 171.456C70.4052 171.669 70.2612 171.915 70.1545 172.192C70.0585 172.469 69.9945 172.752 69.9625 173.04H74.0905ZM79.716 176.928C80.324 176.928 80.772 176.848 81.06 176.688C81.3587 176.528 81.508 176.272 81.508 175.92C81.508 175.557 81.364 175.269 81.076 175.056C80.788 174.843 80.3133 174.603 79.652 174.336C79.332 174.208 79.0227 174.08 78.724 173.952C78.436 173.813 78.1853 173.653 77.972 173.472C77.7587 173.291 77.588 173.072 77.46 172.816C77.332 172.56 77.268 172.245 77.268 171.872C77.268 171.136 77.54 170.555 78.084 170.128C78.628 169.691 79.3693 169.472 80.308 169.472C80.5427 169.472 80.7773 169.488 81.012 169.52C81.2467 169.541 81.4653 169.573 81.668 169.616C81.8707 169.648 82.0467 169.685 82.196 169.728C82.356 169.771 82.4787 169.808 82.564 169.84L82.292 171.12C82.132 171.035 81.8813 170.949 81.54 170.864C81.1987 170.768 80.788 170.72 80.308 170.72C79.892 170.72 79.5293 170.805 79.22 170.976C78.9107 171.136 78.756 171.392 78.756 171.744C78.756 171.925 78.788 172.085 78.852 172.224C78.9267 172.363 79.0333 172.491 79.172 172.608C79.3213 172.715 79.5027 172.816 79.716 172.912C79.9293 173.008 80.1853 173.109 80.484 173.216C80.8787 173.365 81.2307 173.515 81.54 173.664C81.8493 173.803 82.1107 173.968 82.324 174.16C82.548 174.352 82.7187 174.587 82.836 174.864C82.9533 175.131 83.012 175.461 83.012 175.856C83.012 176.624 82.724 177.205 82.148 177.6C81.5827 177.995 80.772 178.192 79.716 178.192C78.98 178.192 78.404 178.128 77.988 178C77.572 177.883 77.2893 177.792 77.14 177.728L77.412 176.448C77.5827 176.512 77.8547 176.608 78.228 176.736C78.6013 176.864 79.0973 176.928 79.716 176.928ZM90.6966 173.856C90.6966 172.885 90.4566 172.139 89.9766 171.616C89.4966 171.093 88.8566 170.832 88.0566 170.832C87.6086 170.832 87.2566 170.848 87.0006 170.88C86.7553 170.912 86.558 170.949 86.4086 170.992V176.24C86.59 176.389 86.8513 176.533 87.1926 176.672C87.534 176.811 87.9073 176.88 88.3126 176.88C88.7393 176.88 89.102 176.805 89.4006 176.656C89.71 176.496 89.9606 176.283 90.1526 176.016C90.3446 175.739 90.4833 175.419 90.5686 175.056C90.654 174.683 90.6966 174.283 90.6966 173.856ZM92.2486 173.856C92.2486 174.485 92.1633 175.067 91.9926 175.6C91.8326 176.133 91.5926 176.592 91.2726 176.976C90.9526 177.36 90.558 177.659 90.0886 177.872C89.63 178.085 89.102 178.192 88.5046 178.192C88.0246 178.192 87.598 178.128 87.2246 178C86.862 177.872 86.59 177.749 86.4086 177.632V180.96H84.9206V169.936C85.2726 169.851 85.71 169.76 86.2326 169.664C86.766 169.557 87.3793 169.504 88.0726 169.504C88.7126 169.504 89.2886 169.605 89.8006 169.808C90.3126 170.011 90.75 170.299 91.1126 170.672C91.4753 171.045 91.7526 171.504 91.9446 172.048C92.1473 172.581 92.2486 173.184 92.2486 173.856ZM93.8785 173.856C93.8785 173.12 93.9852 172.48 94.1985 171.936C94.4118 171.381 94.6945 170.923 95.0465 170.56C95.3985 170.197 95.8038 169.925 96.2625 169.744C96.7212 169.563 97.1905 169.472 97.6705 169.472C98.7905 169.472 99.6492 169.824 100.247 170.528C100.844 171.221 101.142 172.283 101.142 173.712C101.142 173.776 101.142 173.861 101.142 173.968C101.142 174.064 101.137 174.155 101.127 174.24H95.4305C95.4945 175.104 95.7452 175.76 96.1825 176.208C96.6198 176.656 97.3025 176.88 98.2305 176.88C98.7532 176.88 99.1905 176.837 99.5425 176.752C99.9052 176.656 100.177 176.565 100.359 176.48L100.567 177.728C100.385 177.824 100.065 177.925 99.6065 178.032C99.1585 178.139 98.6465 178.192 98.0705 178.192C97.3452 178.192 96.7158 178.085 96.1825 177.872C95.6598 177.648 95.2278 177.344 94.8865 176.96C94.5452 176.576 94.2892 176.123 94.1185 175.6C93.9585 175.067 93.8785 174.485 93.8785 173.856ZM99.5905 173.04C99.6012 172.368 99.4305 171.819 99.0785 171.392C98.7372 170.955 98.2625 170.736 97.6545 170.736C97.3132 170.736 97.0092 170.805 96.7425 170.944C96.4865 171.072 96.2678 171.243 96.0865 171.456C95.9052 171.669 95.7612 171.915 95.6545 172.192C95.5585 172.469 95.4945 172.752 95.4625 173.04H99.5905ZM106.896 178.192C106.224 178.192 105.632 178.085 105.12 177.872C104.619 177.659 104.192 177.36 103.84 176.976C103.499 176.592 103.243 176.139 103.072 175.616C102.901 175.083 102.816 174.496 102.816 173.856C102.816 173.216 102.907 172.629 103.088 172.096C103.28 171.563 103.547 171.104 103.888 170.72C104.229 170.325 104.645 170.021 105.136 169.808C105.637 169.584 106.192 169.472 106.8 169.472C107.173 169.472 107.547 169.504 107.92 169.568C108.293 169.632 108.651 169.733 108.992 169.872L108.656 171.136C108.432 171.029 108.171 170.944 107.872 170.88C107.584 170.816 107.275 170.784 106.944 170.784C106.112 170.784 105.472 171.045 105.024 171.568C104.587 172.091 104.368 172.853 104.368 173.856C104.368 174.304 104.416 174.715 104.512 175.088C104.619 175.461 104.779 175.781 104.992 176.048C105.216 176.315 105.499 176.523 105.84 176.672C106.181 176.811 106.597 176.88 107.088 176.88C107.483 176.88 107.84 176.843 108.16 176.768C108.48 176.693 108.731 176.613 108.912 176.528L109.12 177.776C109.035 177.829 108.912 177.883 108.752 177.936C108.592 177.979 108.411 178.016 108.208 178.048C108.005 178.091 107.787 178.123 107.552 178.144C107.328 178.176 107.109 178.192 106.896 178.192ZM112.206 178H110.718V169.68H112.206V178ZM111.454 168.176C111.187 168.176 110.958 168.091 110.766 167.92C110.584 167.739 110.493 167.499 110.493 167.2C110.493 166.901 110.584 166.667 110.766 166.496C110.958 166.315 111.187 166.224 111.454 166.224C111.72 166.224 111.944 166.315 112.126 166.496C112.318 166.667 112.414 166.901 112.414 167.2C112.414 167.499 112.318 167.739 112.126 167.92C111.944 168.091 111.72 168.176 111.454 168.176ZM117.58 176.928C117.932 176.928 118.242 176.923 118.508 176.912C118.786 176.891 119.015 176.859 119.196 176.816V174.336C119.09 174.283 118.914 174.24 118.668 174.208C118.434 174.165 118.146 174.144 117.804 174.144C117.58 174.144 117.34 174.16 117.084 174.192C116.839 174.224 116.61 174.293 116.396 174.4C116.194 174.496 116.023 174.635 115.884 174.816C115.746 174.987 115.676 175.216 115.676 175.504C115.676 176.037 115.847 176.411 116.188 176.624C116.53 176.827 116.994 176.928 117.58 176.928ZM117.452 169.472C118.05 169.472 118.551 169.552 118.956 169.712C119.372 169.861 119.703 170.08 119.948 170.368C120.204 170.645 120.386 170.981 120.492 171.376C120.599 171.76 120.652 172.187 120.652 172.656V177.856C120.524 177.877 120.343 177.909 120.108 177.952C119.884 177.984 119.628 178.016 119.34 178.048C119.052 178.08 118.738 178.107 118.396 178.128C118.066 178.16 117.735 178.176 117.404 178.176C116.935 178.176 116.503 178.128 116.108 178.032C115.714 177.936 115.372 177.787 115.084 177.584C114.796 177.371 114.572 177.093 114.412 176.752C114.252 176.411 114.172 176 114.172 175.52C114.172 175.061 114.263 174.667 114.444 174.336C114.636 174.005 114.892 173.739 115.212 173.536C115.532 173.333 115.906 173.184 116.332 173.088C116.759 172.992 117.207 172.944 117.676 172.944C117.826 172.944 117.98 172.955 118.14 172.976C118.3 172.987 118.45 173.008 118.588 173.04C118.738 173.061 118.866 173.083 118.972 173.104C119.079 173.125 119.154 173.141 119.196 173.152V172.736C119.196 172.491 119.17 172.251 119.116 172.016C119.063 171.771 118.967 171.557 118.828 171.376C118.69 171.184 118.498 171.035 118.252 170.928C118.018 170.811 117.708 170.752 117.324 170.752C116.834 170.752 116.402 170.789 116.028 170.864C115.666 170.928 115.394 170.997 115.212 171.072L115.036 169.84C115.228 169.755 115.548 169.675 115.996 169.6C116.444 169.515 116.93 169.472 117.452 169.472ZM125.62 178.16C124.702 178.139 124.052 177.941 123.668 177.568C123.284 177.195 123.092 176.613 123.092 175.824V165.84L124.58 165.584V175.584C124.58 175.829 124.601 176.032 124.644 176.192C124.686 176.352 124.756 176.48 124.852 176.576C124.948 176.672 125.076 176.747 125.236 176.8C125.396 176.843 125.593 176.88 125.828 176.912L125.62 178.16ZM128.987 178H127.499V169.68H128.987V178ZM128.235 168.176C127.968 168.176 127.739 168.091 127.547 167.92C127.365 167.739 127.275 167.499 127.275 167.2C127.275 166.901 127.365 166.667 127.547 166.496C127.739 166.315 127.968 166.224 128.235 166.224C128.501 166.224 128.725 166.315 128.907 166.496C129.099 166.667 129.195 166.901 129.195 167.2C129.195 167.499 129.099 167.739 128.907 167.92C128.725 168.091 128.501 168.176 128.235 168.176ZM136.922 171.44C136.74 171.291 136.479 171.147 136.138 171.008C135.796 170.869 135.423 170.8 135.018 170.8C134.591 170.8 134.223 170.88 133.914 171.04C133.615 171.189 133.37 171.403 133.178 171.68C132.986 171.947 132.847 172.267 132.762 172.64C132.676 173.013 132.634 173.413 132.634 173.84C132.634 174.811 132.874 175.563 133.354 176.096C133.834 176.619 134.474 176.88 135.274 176.88C135.679 176.88 136.015 176.864 136.282 176.832C136.559 176.789 136.772 176.747 136.922 176.704V171.44ZM136.922 165.84L138.41 165.584V177.76C138.068 177.856 137.631 177.952 137.098 178.048C136.564 178.144 135.951 178.192 135.258 178.192C134.618 178.192 134.042 178.091 133.53 177.888C133.018 177.685 132.58 177.397 132.218 177.024C131.855 176.651 131.572 176.197 131.37 175.664C131.178 175.12 131.082 174.512 131.082 173.84C131.082 173.2 131.162 172.613 131.322 172.08C131.492 171.547 131.738 171.088 132.058 170.704C132.378 170.32 132.767 170.021 133.226 169.808C133.695 169.595 134.228 169.488 134.826 169.488C135.306 169.488 135.727 169.552 136.09 169.68C136.463 169.808 136.74 169.931 136.922 170.048V165.84ZM143.784 176.928C144.136 176.928 144.445 176.923 144.712 176.912C144.989 176.891 145.218 176.859 145.4 176.816V174.336C145.293 174.283 145.117 174.24 144.872 174.208C144.637 174.165 144.349 174.144 144.008 174.144C143.784 174.144 143.544 174.16 143.288 174.192C143.042 174.224 142.813 174.293 142.6 174.4C142.397 174.496 142.226 174.635 142.088 174.816C141.949 174.987 141.88 175.216 141.88 175.504C141.88 176.037 142.05 176.411 142.392 176.624C142.733 176.827 143.197 176.928 143.784 176.928ZM143.656 169.472C144.253 169.472 144.754 169.552 145.16 169.712C145.576 169.861 145.906 170.08 146.152 170.368C146.408 170.645 146.589 170.981 146.696 171.376C146.802 171.76 146.856 172.187 146.856 172.656V177.856C146.728 177.877 146.546 177.909 146.312 177.952C146.088 177.984 145.832 178.016 145.544 178.048C145.256 178.08 144.941 178.107 144.6 178.128C144.269 178.16 143.938 178.176 143.608 178.176C143.138 178.176 142.706 178.128 142.312 178.032C141.917 177.936 141.576 177.787 141.288 177.584C141 177.371 140.776 177.093 140.616 176.752C140.456 176.411 140.376 176 140.376 175.52C140.376 175.061 140.466 174.667 140.648 174.336C140.84 174.005 141.096 173.739 141.416 173.536C141.736 173.333 142.109 173.184 142.536 173.088C142.962 172.992 143.41 172.944 143.88 172.944C144.029 172.944 144.184 172.955 144.344 172.976C144.504 172.987 144.653 173.008 144.792 173.04C144.941 173.061 145.069 173.083 145.176 173.104C145.282 173.125 145.357 173.141 145.4 173.152V172.736C145.4 172.491 145.373 172.251 145.32 172.016C145.266 171.771 145.17 171.557 145.032 171.376C144.893 171.184 144.701 171.035 144.456 170.928C144.221 170.811 143.912 170.752 143.528 170.752C143.037 170.752 142.605 170.789 142.232 170.864C141.869 170.928 141.597 170.997 141.416 171.072L141.24 169.84C141.432 169.755 141.752 169.675 142.2 169.6C142.648 169.515 143.133 169.472 143.656 169.472ZM154.703 171.44C154.522 171.291 154.26 171.147 153.919 171.008C153.578 170.869 153.204 170.8 152.799 170.8C152.372 170.8 152.004 170.88 151.695 171.04C151.396 171.189 151.151 171.403 150.959 171.68C150.767 171.947 150.628 172.267 150.543 172.64C150.458 173.013 150.415 173.413 150.415 173.84C150.415 174.811 150.655 175.563 151.135 176.096C151.615 176.619 152.255 176.88 153.055 176.88C153.46 176.88 153.796 176.864 154.063 176.832C154.34 176.789 154.554 176.747 154.703 176.704V171.44ZM154.703 165.84L156.191 165.584V177.76C155.85 177.856 155.412 177.952 154.879 178.048C154.346 178.144 153.732 178.192 153.039 178.192C152.399 178.192 151.823 178.091 151.311 177.888C150.799 177.685 150.362 177.397 149.999 177.024C149.636 176.651 149.354 176.197 149.151 175.664C148.959 175.12 148.863 174.512 148.863 173.84C148.863 173.2 148.943 172.613 149.103 172.08C149.274 171.547 149.519 171.088 149.839 170.704C150.159 170.32 150.548 170.021 151.007 169.808C151.476 169.595 152.01 169.488 152.607 169.488C153.087 169.488 153.508 169.552 153.871 169.68C154.244 169.808 154.522 169.931 154.703 170.048V165.84ZM158.285 173.856C158.285 173.12 158.391 172.48 158.605 171.936C158.818 171.381 159.101 170.923 159.453 170.56C159.805 170.197 160.21 169.925 160.669 169.744C161.127 169.563 161.597 169.472 162.077 169.472C163.197 169.472 164.055 169.824 164.653 170.528C165.25 171.221 165.549 172.283 165.549 173.712C165.549 173.776 165.549 173.861 165.549 173.968C165.549 174.064 165.543 174.155 165.533 174.24H159.837C159.901 175.104 160.151 175.76 160.589 176.208C161.026 176.656 161.709 176.88 162.637 176.88C163.159 176.88 163.597 176.837 163.949 176.752C164.311 176.656 164.583 176.565 164.765 176.48L164.973 177.728C164.791 177.824 164.471 177.925 164.013 178.032C163.565 178.139 163.053 178.192 162.477 178.192C161.751 178.192 161.122 178.085 160.589 177.872C160.066 177.648 159.634 177.344 159.293 176.96C158.951 176.576 158.695 176.123 158.525 175.6C158.365 175.067 158.285 174.485 158.285 173.856ZM163.997 173.04C164.007 172.368 163.837 171.819 163.485 171.392C163.143 170.955 162.669 170.736 162.061 170.736C161.719 170.736 161.415 170.805 161.149 170.944C160.893 171.072 160.674 171.243 160.493 171.456C160.311 171.669 160.167 171.915 160.061 172.192C159.965 172.469 159.901 172.752 159.869 173.04H163.997ZM169.622 176.928C170.23 176.928 170.678 176.848 170.966 176.688C171.265 176.528 171.414 176.272 171.414 175.92C171.414 175.557 171.27 175.269 170.982 175.056C170.694 174.843 170.22 174.603 169.558 174.336C169.238 174.208 168.929 174.08 168.63 173.952C168.342 173.813 168.092 173.653 167.878 173.472C167.665 173.291 167.494 173.072 167.366 172.816C167.238 172.56 167.174 172.245 167.174 171.872C167.174 171.136 167.446 170.555 167.99 170.128C168.534 169.691 169.276 169.472 170.214 169.472C170.449 169.472 170.684 169.488 170.918 169.52C171.153 169.541 171.372 169.573 171.574 169.616C171.777 169.648 171.953 169.685 172.102 169.728C172.262 169.771 172.385 169.808 172.47 169.84L172.198 171.12C172.038 171.035 171.788 170.949 171.446 170.864C171.105 170.768 170.694 170.72 170.214 170.72C169.798 170.72 169.436 170.805 169.126 170.976C168.817 171.136 168.662 171.392 168.662 171.744C168.662 171.925 168.694 172.085 168.758 172.224C168.833 172.363 168.94 172.491 169.078 172.608C169.228 172.715 169.409 172.816 169.622 172.912C169.836 173.008 170.092 173.109 170.39 173.216C170.785 173.365 171.137 173.515 171.446 173.664C171.756 173.803 172.017 173.968 172.23 174.16C172.454 174.352 172.625 174.587 172.742 174.864C172.86 175.131 172.918 175.461 172.918 175.856C172.918 176.624 172.63 177.205 172.054 177.6C171.489 177.995 170.678 178.192 169.622 178.192C168.886 178.192 168.31 178.128 167.894 178C167.478 177.883 167.196 177.792 167.046 177.728L167.318 176.448C167.489 176.512 167.761 176.608 168.134 176.736C168.508 176.864 169.004 176.928 169.622 176.928ZM175.995 173.216C175.995 171.851 175.798 170.587 175.403 169.424C175.008 168.261 174.427 167.184 173.659 166.192L174.715 165.472C175.547 166.485 176.214 167.653 176.715 168.976C177.227 170.288 177.483 171.701 177.483 173.216C177.483 174.731 177.227 176.149 176.715 177.472C176.214 178.784 175.547 179.947 174.715 180.96L173.659 180.24C174.427 179.248 175.008 178.171 175.403 177.008C175.798 175.845 175.995 174.581 175.995 173.216Z" fill="#2F2F2F"/>
</svg>
