<svg width="88" height="84" viewBox="0 0 88 84" fill="none" xmlns="http://www.w3.org/2000/svg">
<circle cx="44.3269" cy="42.3259" r="40.4148" fill="#BADBFE"/>
<path d="M80.2656 68.454H79.8225C80.1085 67.647 80.2656 66.7795 80.2656 65.8759C80.2656 61.6112 76.7959 58.1415 72.5312 58.1415H56.4851L39.4567 41.1131C37.0256 38.6827 33.7869 37.3446 30.3359 37.3446H0V71.0321H19.9939L44.7439 83.9227H80.2656C84.5303 83.9227 88 80.453 88 76.1884C88 71.9237 84.5303 68.454 80.2656 68.454ZM75.1094 65.8759C75.1094 67.2972 73.9526 68.454 72.5312 68.454H60.5725C61.1586 66.7889 61.1553 64.9628 60.5692 63.2977H72.5312C73.9526 63.2977 75.1094 64.4545 75.1094 65.8759ZM5.15625 42.5009H10.3125V65.8759H5.15625V42.5009ZM80.2656 78.7665H46.0061L21.2561 65.8759H15.4688V42.5009H30.3359C32.4099 42.5009 34.3542 43.3032 35.8111 44.7594L55.1041 64.053C56.1091 65.0581 56.1091 66.6936 55.1041 67.6987C54.099 68.7037 52.4635 68.7037 51.4584 67.6987L32.1722 48.4131L28.5259 52.0587L47.8121 71.345C49.2979 72.8307 51.2436 73.5847 53.1953 73.6062C53.1953 73.6102 80.2656 73.6102 80.2656 73.6102C81.687 73.6102 82.8438 74.767 82.8438 76.1884C82.8438 77.6097 81.687 78.7665 80.2656 78.7665Z" fill="#00309E"/>
<path d="M59.2102 53.7097L82.8511 30.0681C89.7046 23.2153 89.7046 12.0642 82.8511 5.21069C79.531 1.89069 75.1174 0.0625 70.4223 0.0625C66.2799 0.0625 62.357 1.48584 59.2102 4.10089C56.0641 1.48584 52.1405 0.0625 47.9987 0.0625C43.3037 0.0625 38.8893 1.89069 35.5693 5.21069C28.7165 12.0642 28.7165 23.2153 35.5693 30.0688L59.2102 53.7097ZM39.2149 8.85632C41.5614 6.5105 44.6807 5.21875 47.998 5.21875C51.316 5.21875 54.4353 6.5105 56.7811 8.85632C56.9483 9.0235 57.1128 9.19873 57.2847 9.39142L59.2115 11.5553L61.1364 9.39075C61.3042 9.20209 61.4734 9.02283 61.6393 8.85699C63.9851 6.51117 67.105 5.21875 70.4223 5.21875C73.7403 5.21875 76.8596 6.5105 79.2054 8.85699C84.0481 13.6997 84.0481 21.5798 79.2054 26.4225L59.2102 46.4171L39.2149 26.4225C34.3722 21.5798 34.3722 13.6997 39.2149 8.85632Z" fill="#00309E"/>
</svg>
