<svg width="88" height="82" viewBox="0 0 88 82" fill="none" xmlns="http://www.w3.org/2000/svg">
<circle cx="44.3269" cy="41.3259" r="40.4148" fill="#BADBFE"/>
<path d="M88 39.6905L77.5537 11.3366H70.2225V8.40326C70.2225 3.93148 66.5844 0.293457 62.1126 0.293457C57.6409 0.293457 54.0028 3.93148 54.0028 8.40326V11.3366H0V74.4895H9.93986C10.9612 78.6281 14.7034 81.7067 19.1529 81.7067C23.6025 81.7067 27.3447 78.6281 28.366 74.4895H59.634C60.6553 78.6281 64.3975 81.7067 68.8471 81.7067C73.2966 81.7067 77.0388 78.6281 78.0601 74.4895H88V39.6905ZM65.9137 27.5562H78.0129L81.6999 37.564H65.9137V27.5562ZM59.1793 8.40326C59.1793 6.78579 60.4952 5.46993 62.1126 5.46993C63.7301 5.46993 65.046 6.78579 65.046 8.40326V11.3366H59.1793V8.40326ZM73.9443 16.5131L76.1057 22.3797H5.17647V16.5131H73.9443ZM19.1529 76.5301C16.7744 76.5301 14.8392 74.595 14.8392 72.2164C14.8392 69.8378 16.7744 67.9027 19.1529 67.9027C21.5315 67.9027 23.4667 69.8378 23.4667 72.2164C23.4667 74.595 21.5315 76.5301 19.1529 76.5301ZM68.8471 76.5301C66.4685 76.5301 64.5333 74.595 64.5333 72.2164C64.5333 69.8378 66.4685 67.9027 68.8471 67.9027C71.2256 67.9027 73.1608 69.8378 73.1608 72.2164C73.1608 74.595 71.2256 76.5301 68.8471 76.5301ZM77.8812 69.3131C76.6516 65.4963 73.0674 62.7264 68.8471 62.7264C64.6267 62.7264 61.0425 65.4963 59.8129 69.3131H28.1871C26.9575 65.4963 23.3733 62.7264 19.1529 62.7264C14.9326 62.7264 11.3484 65.4963 10.1188 69.3131H5.17647V49.6425H21.9137V44.466H5.17647V38.5993H21.9137V33.4229H5.17647V27.5562H60.7373V42.7405H82.8235V48.6072H77.1294V53.7837H82.8235V69.3131H77.8812Z" fill="#00309E"/>
<path d="M49.3486 33.4229H33.129V38.9444H27.6074V55.164H33.129V60.6856H49.3486V55.164H54.8702V38.9444H49.3486V33.4229ZM49.6937 44.1209V49.9876H44.1721V55.5091H38.3055V49.9876H32.7839V44.1209H38.3055V38.5993H44.1721V44.1209H49.6937Z" fill="#00309E"/>
</svg>
