<svg width="88" height="88" viewBox="0 0 88 88" fill="none" xmlns="http://www.w3.org/2000/svg">
<path d="M35.4062 21.4119H19.9375V36.8806H35.4062V21.4119ZM30.25 31.7244H25.0938V26.5681H30.25V31.7244Z" fill="#00309E"/>
<circle cx="44.325" cy="44.3259" r="40.4148" fill="#BADBFE"/>
<path d="M62.0469 5.08372V0H25.9531V5.08372H9.625V88H78.375V5.08372H62.0469ZM31.1094 5.15625H56.8906V10.24H31.1094V5.15625ZM73.2188 82.8438H14.7812V10.24H25.9531V15.3962H62.0469V10.24H73.2188V82.8438Z" fill="#00309E"/>
<path d="M43.9785 26.5681H68.0625V31.7244H43.9785V26.5681Z" fill="#00309E"/>
<path d="M35.4062 42.7244H19.9375V58.1931H35.4062V42.7244ZM30.25 53.0369H25.0938V47.8806H30.25V53.0369Z" fill="#00309E"/>
<path d="M43.9785 47.8806H68.0625V53.0369H43.9785V47.8806Z" fill="#00309E"/>
<path d="M43.9785 68.8494H68.0625V74.0056H43.9785V68.8494Z" fill="#00309E"/>
<path d="M25.61 71.3909L22.2767 68.0577L18.6309 71.7037L25.61 78.6829L36.8861 67.4069L33.2402 63.7609L25.61 71.3909Z" fill="#00309E"/>
</svg>
