<svg width="24" height="24" viewBox="0 0 24 24" fill="none" xmlns="http://www.w3.org/2000/svg">
<path d="M11.1818 23.9999H12.8181C13.871 23.9999 14.7273 23.1436 14.7273 22.0909V14.7273H22.091C23.1437 14.7273 24 13.8709 24 12.8182V11.1819C24 10.129 23.1437 9.27266 22.091 9.27266H14.7273V1.90902C14.7273 0.856334 13.871 0 12.8181 0H11.1818C10.1291 0 9.27273 0.856334 9.27273 1.90902V9.27266H1.90909C0.856401 9.27266 6.67572e-05 10.129 6.67572e-05 11.1819V12.8182C6.67572e-05 13.8709 0.856401 14.7273 1.90909 14.7273H9.27273V22.0909C9.27273 23.1436 10.1291 23.9999 11.1818 23.9999ZM22.091 10.909C22.2414 10.909 22.3636 11.0313 22.3636 11.1819V12.8182C22.3636 12.9687 22.2414 13.0909 22.091 13.0909H13.9092C13.4575 13.0909 13.091 13.4575 13.091 13.9091V22.0909C13.091 22.2415 12.9687 22.3636 12.8181 22.3636H11.1818C11.0313 22.3636 10.9091 22.2415 10.9091 22.0909V13.9091C10.9091 13.4575 10.5425 13.0909 10.0909 13.0909H1.90909C1.75848 13.0909 1.63643 12.9687 1.63643 12.8182V11.1819C1.63643 11.0313 1.75848 10.909 1.90909 10.909H10.0909C10.5425 10.909 10.9091 10.5425 10.9091 10.0908V1.90902C10.9091 1.75861 11.0313 1.63636 11.1818 1.63636H12.8181C12.9687 1.63636 13.091 1.75861 13.091 1.90902V10.0908C13.091 10.5425 13.4575 10.909 13.9092 10.909H22.091Z" fill="#75B7F0"/>
</svg>
