<svg width="104" height="189" viewBox="0 0 104 189" fill="none" xmlns="http://www.w3.org/2000/svg">
<circle cx="53.3269" cy="44.3259" r="40.4148" fill="#BADBFE"/>
<path d="M75.5298 0H18.6406V88H87.3584V11.8285L75.5298 0ZM74.4616 6.22715L81.1312 12.8969H74.4614V6.22715H74.4616ZM23.7994 82.8412V5.15877H69.3027V18.0557H82.1996V82.8412H23.7994Z" fill="#00309E"/>
<path d="M31.5254 58.8099H36.6842V63.9687H31.5254V58.8099Z" fill="#00309E"/>
<path d="M31.5254 69.1274H36.6842V74.2862H31.5254V69.1274Z" fill="#00309E"/>
<path d="M41.8438 58.8099H74.4737V63.9687H41.8438V58.8099Z" fill="#00309E"/>
<path d="M31.5254 48.4924H36.6842V53.6512H31.5254V48.4924Z" fill="#00309E"/>
<path d="M41.8438 48.4924H74.4737V53.6512H41.8438V48.4924Z" fill="#00309E"/>
<path d="M41.8438 69.1274H74.4737V74.2862H41.8438V69.1274Z" fill="#00309E"/>
<path d="M43.762 40.2957H62.2363L65.3023 28.2537H67.2719V23.0949H66.6159H64.4104L55.0217 13.7567H50.9766L41.5881 23.0951H39.3826H38.7266V28.2539H40.6962L43.762 40.2957ZM58.2264 35.1369H47.7718L46.0195 28.2537H59.9788L58.2264 35.1369ZM52.9992 19.0211L57.0951 23.0951H48.9031L52.9992 19.0211Z" fill="#00309E"/>
<path d="M13.5869 130.448C13.5869 130.992 13.6509 131.483 13.7789 131.92C13.9176 132.357 14.1096 132.736 14.3549 133.056C14.6109 133.365 14.9203 133.605 15.2829 133.776C15.6456 133.947 16.0616 134.032 16.5309 134.032C16.9896 134.032 17.4003 133.947 17.7629 133.776C18.1363 133.605 18.4456 133.365 18.6909 133.056C18.9469 132.736 19.1389 132.357 19.2669 131.92C19.4056 131.483 19.4749 130.992 19.4749 130.448C19.4749 129.904 19.4056 129.413 19.2669 128.976C19.1389 128.528 18.9469 128.149 18.6909 127.84C18.4456 127.52 18.1363 127.275 17.7629 127.104C17.4003 126.933 16.9896 126.848 16.5309 126.848C16.0616 126.848 15.6456 126.939 15.2829 127.12C14.9203 127.291 14.6109 127.536 14.3549 127.856C14.1096 128.165 13.9176 128.544 13.7789 128.992C13.6509 129.429 13.5869 129.915 13.5869 130.448ZM22.0509 130.448C22.0509 131.397 21.9069 132.235 21.6189 132.96C21.3416 133.675 20.9576 134.277 20.4669 134.768C19.9763 135.248 19.3896 135.611 18.7069 135.856C18.0349 136.101 17.3096 136.224 16.5309 136.224C15.7736 136.224 15.0589 136.101 14.3869 135.856C13.7149 135.611 13.1283 135.248 12.6269 134.768C12.1256 134.277 11.7309 133.675 11.4429 132.96C11.1549 132.235 11.0109 131.397 11.0109 130.448C11.0109 129.499 11.1603 128.667 11.4589 127.952C11.7576 127.227 12.1576 126.619 12.6589 126.128C13.1709 125.637 13.7576 125.269 14.4189 125.024C15.0909 124.779 15.7949 124.656 16.5309 124.656C17.2883 124.656 18.0029 124.779 18.6749 125.024C19.3469 125.269 19.9336 125.637 20.4349 126.128C20.9363 126.619 21.3309 127.227 21.6189 127.952C21.9069 128.667 22.0509 129.499 22.0509 130.448ZM29.0436 129.696C28.8302 129.643 28.5796 129.589 28.2916 129.536C28.0036 129.472 27.6942 129.44 27.3636 129.44C27.2142 129.44 27.0329 129.456 26.8196 129.488C26.6169 129.509 26.4622 129.536 26.3556 129.568V136H23.9716V128.032C24.3982 127.883 24.8996 127.744 25.4756 127.616C26.0622 127.477 26.7129 127.408 27.4276 127.408C27.5556 127.408 27.7102 127.419 27.8916 127.44C28.0729 127.451 28.2542 127.472 28.4356 127.504C28.6169 127.525 28.7982 127.557 28.9796 127.6C29.1609 127.632 29.3156 127.675 29.4436 127.728L29.0436 129.696ZM33.1056 136H30.7216V127.584H33.1056V136ZM33.3296 125.152C33.3296 125.589 33.1856 125.936 32.8976 126.192C32.6202 126.437 32.2896 126.56 31.9056 126.56C31.5216 126.56 31.1856 126.437 30.8976 126.192C30.6202 125.936 30.4816 125.589 30.4816 125.152C30.4816 124.715 30.6202 124.373 30.8976 124.128C31.1856 123.872 31.5216 123.744 31.9056 123.744C32.2896 123.744 32.6202 123.872 32.8976 124.128C33.1856 124.373 33.3296 124.715 33.3296 125.152ZM34.9466 131.856C34.9466 131.109 35.0586 130.459 35.2826 129.904C35.5172 129.339 35.8212 128.869 36.1946 128.496C36.5679 128.123 36.9946 127.84 37.4746 127.648C37.9652 127.456 38.4666 127.36 38.9786 127.36C40.1732 127.36 41.1172 127.728 41.8106 128.464C42.5039 129.189 42.8506 130.261 42.8506 131.68C42.8506 131.819 42.8452 131.973 42.8346 132.144C42.8239 132.304 42.8132 132.448 42.8026 132.576H37.3946C37.4479 133.067 37.6772 133.456 38.0826 133.744C38.4879 134.032 39.0319 134.176 39.7146 134.176C40.1519 134.176 40.5786 134.139 40.9946 134.064C41.4212 133.979 41.7679 133.877 42.0346 133.76L42.3546 135.696C42.2266 135.76 42.0559 135.824 41.8426 135.888C41.6292 135.952 41.3892 136.005 41.1226 136.048C40.8666 136.101 40.5892 136.144 40.2906 136.176C39.9919 136.208 39.6932 136.224 39.3946 136.224C38.6372 136.224 37.9759 136.112 37.4106 135.888C36.8559 135.664 36.3919 135.36 36.0186 134.976C35.6559 134.581 35.3839 134.117 35.2026 133.584C35.0319 133.051 34.9466 132.475 34.9466 131.856ZM40.5466 130.944C40.5359 130.741 40.4986 130.544 40.4346 130.352C40.3812 130.16 40.2906 129.989 40.1626 129.84C40.0452 129.691 39.8906 129.568 39.6986 129.472C39.5172 129.376 39.2879 129.328 39.0106 129.328C38.7439 129.328 38.5146 129.376 38.3226 129.472C38.1306 129.557 37.9706 129.675 37.8426 129.824C37.7146 129.973 37.6132 130.149 37.5386 130.352C37.4746 130.544 37.4266 130.741 37.3946 130.944H40.5466ZM44.6903 127.872C45.0956 127.755 45.6183 127.648 46.2583 127.552C46.8983 127.445 47.5703 127.392 48.2743 127.392C48.989 127.392 49.581 127.488 50.0503 127.68C50.5303 127.861 50.909 128.123 51.1863 128.464C51.4636 128.805 51.661 129.211 51.7783 129.68C51.8956 130.149 51.9543 130.672 51.9543 131.248V136H49.5703V131.536C49.5703 130.768 49.469 130.224 49.2663 129.904C49.0636 129.584 48.685 129.424 48.1303 129.424C47.9596 129.424 47.7783 129.435 47.5863 129.456C47.3943 129.467 47.2236 129.483 47.0743 129.504V136H44.6903V127.872ZM54.0322 125.488L56.4162 125.104V127.584H59.2802V129.568H56.4162V132.528C56.4162 133.029 56.5015 133.429 56.6722 133.728C56.8535 134.027 57.2109 134.176 57.7442 134.176C58.0002 134.176 58.2615 134.155 58.5282 134.112C58.8055 134.059 59.0562 133.989 59.2802 133.904L59.6162 135.76C59.3282 135.877 59.0082 135.979 58.6562 136.064C58.3042 136.149 57.8722 136.192 57.3602 136.192C56.7095 136.192 56.1709 136.107 55.7442 135.936C55.3175 135.755 54.9762 135.509 54.7202 135.2C54.4642 134.88 54.2829 134.496 54.1762 134.048C54.0802 133.6 54.0322 133.104 54.0322 132.56V125.488ZM64.1251 134.336C64.3597 134.336 64.5837 134.331 64.7971 134.32C65.0104 134.309 65.1811 134.293 65.3091 134.272V132.464C65.2131 132.443 65.0691 132.421 64.8771 132.4C64.6851 132.379 64.5091 132.368 64.3491 132.368C64.1251 132.368 63.9117 132.384 63.7091 132.416C63.5171 132.437 63.3464 132.485 63.1971 132.56C63.0477 132.635 62.9304 132.736 62.8451 132.864C62.7597 132.992 62.7171 133.152 62.7171 133.344C62.7171 133.717 62.8397 133.979 63.0851 134.128C63.3411 134.267 63.6877 134.336 64.1251 134.336ZM63.9331 127.36C64.6371 127.36 65.2237 127.44 65.6931 127.6C66.1624 127.76 66.5357 127.989 66.8131 128.288C67.1011 128.587 67.3037 128.949 67.4211 129.376C67.5384 129.803 67.5971 130.277 67.5971 130.8V135.76C67.2557 135.835 66.7811 135.92 66.1731 136.016C65.5651 136.123 64.8291 136.176 63.9651 136.176C63.4211 136.176 62.9251 136.128 62.4771 136.032C62.0397 135.936 61.6611 135.781 61.3411 135.568C61.0211 135.344 60.7757 135.056 60.6051 134.704C60.4344 134.352 60.3491 133.92 60.3491 133.408C60.3491 132.917 60.4451 132.501 60.6371 132.16C60.8397 131.819 61.1064 131.547 61.4371 131.344C61.7677 131.141 62.1464 130.997 62.5731 130.912C62.9997 130.816 63.4424 130.768 63.9011 130.768C64.2104 130.768 64.4824 130.784 64.7171 130.816C64.9624 130.837 65.1597 130.869 65.3091 130.912V130.688C65.3091 130.283 65.1864 129.957 64.9411 129.712C64.6957 129.467 64.2691 129.344 63.6611 129.344C63.2557 129.344 62.8557 129.376 62.4611 129.44C62.0664 129.493 61.7251 129.573 61.4371 129.68L61.1331 127.76C61.2717 127.717 61.4424 127.675 61.6451 127.632C61.8584 127.579 62.0877 127.536 62.3331 127.504C62.5784 127.461 62.8344 127.429 63.1011 127.408C63.3784 127.376 63.6557 127.36 63.9331 127.36ZM73.8808 136.64C74.2221 136.811 74.4568 137.013 74.5848 137.248C74.7128 137.483 74.7768 137.723 74.7768 137.968C74.7768 138.48 74.5741 138.869 74.1688 139.136C73.7635 139.403 73.2301 139.536 72.5688 139.536C72.3341 139.536 72.0995 139.515 71.8648 139.472C71.6301 139.44 71.3955 139.392 71.1608 139.328L71.4488 137.936C71.5235 137.957 71.6568 137.989 71.8488 138.032C72.0515 138.085 72.2488 138.112 72.4408 138.112C72.5901 138.112 72.7181 138.08 72.8248 138.016C72.9421 137.963 73.0061 137.861 73.0168 137.712C73.0275 137.584 72.9741 137.467 72.8568 137.36C72.7501 137.253 72.5741 137.173 72.3288 137.12L72.1368 137.072C72.1795 136.933 72.2381 136.773 72.3128 136.592C72.3875 136.421 72.4621 136.261 72.5368 136.112C71.9821 136.005 71.5021 135.824 71.0968 135.568C70.7021 135.301 70.3715 134.981 70.1048 134.608C69.8488 134.224 69.6568 133.792 69.5288 133.312C69.4115 132.832 69.3528 132.325 69.3528 131.792C69.3528 131.184 69.4488 130.613 69.6408 130.08C69.8435 129.536 70.1315 129.067 70.5048 128.672C70.8781 128.267 71.3315 127.947 71.8648 127.712C72.3981 127.477 73.0061 127.36 73.6888 127.36C74.1368 127.36 74.5475 127.403 74.9208 127.488C75.2941 127.563 75.6568 127.675 76.0088 127.824L75.5128 129.728C75.2888 129.643 75.0435 129.568 74.7768 129.504C74.5101 129.44 74.2115 129.408 73.8808 129.408C73.1768 129.408 72.6488 129.627 72.2968 130.064C71.9555 130.501 71.7848 131.077 71.7848 131.792C71.7848 132.549 71.9448 133.136 72.2648 133.552C72.5955 133.968 73.1661 134.176 73.9768 134.176C74.2648 134.176 74.5741 134.149 74.9048 134.096C75.2355 134.043 75.5395 133.957 75.8168 133.84L76.1528 135.792C75.9075 135.899 75.6035 135.989 75.2408 136.064C74.8888 136.139 74.4995 136.187 74.0728 136.208C74.0301 136.293 73.9928 136.373 73.9608 136.448C73.9288 136.523 73.9021 136.587 73.8808 136.64ZM80.5626 134.336C80.7972 134.336 81.0212 134.331 81.2346 134.32C81.4479 134.309 81.6186 134.293 81.7466 134.272V132.464C81.6506 132.443 81.5066 132.421 81.3146 132.4C81.1226 132.379 80.9466 132.368 80.7866 132.368C80.5626 132.368 80.3492 132.384 80.1466 132.416C79.9546 132.437 79.7839 132.485 79.6346 132.56C79.4852 132.635 79.3679 132.736 79.2826 132.864C79.1972 132.992 79.1546 133.152 79.1546 133.344C79.1546 133.717 79.2772 133.979 79.5226 134.128C79.7786 134.267 80.1252 134.336 80.5626 134.336ZM80.3706 127.36C81.0746 127.36 81.6612 127.44 82.1306 127.6C82.5999 127.76 82.9732 127.989 83.2506 128.288C83.5386 128.587 83.7412 128.949 83.8586 129.376C83.9759 129.803 84.0346 130.277 84.0346 130.8V135.76C83.6932 135.835 83.2186 135.92 82.6106 136.016C82.0026 136.123 81.2666 136.176 80.4026 136.176C79.8586 136.176 79.3626 136.128 78.9146 136.032C78.4772 135.936 78.0986 135.781 77.7786 135.568C77.4586 135.344 77.2132 135.056 77.0426 134.704C76.8719 134.352 76.7866 133.92 76.7866 133.408C76.7866 132.917 76.8826 132.501 77.0746 132.16C77.2772 131.819 77.5439 131.547 77.8746 131.344C78.2052 131.141 78.5839 130.997 79.0106 130.912C79.4372 130.816 79.8799 130.768 80.3386 130.768C80.6479 130.768 80.9199 130.784 81.1546 130.816C81.3999 130.837 81.5972 130.869 81.7466 130.912V130.688C81.7466 130.283 81.6239 129.957 81.3786 129.712C81.1332 129.467 80.7066 129.344 80.0986 129.344C79.6932 129.344 79.2932 129.376 78.8986 129.44C78.5039 129.493 78.1626 129.573 77.8746 129.68L77.5706 127.76C77.7092 127.717 77.8799 127.675 78.0826 127.632C78.2959 127.579 78.5252 127.536 78.7706 127.504C79.0159 127.461 79.2719 127.429 79.5386 127.408C79.8159 127.376 80.0932 127.36 80.3706 127.36ZM83.5066 124.656C83.4426 124.816 83.3519 124.992 83.2346 125.184C83.1279 125.376 82.9946 125.557 82.8346 125.728C82.6746 125.888 82.4932 126.021 82.2906 126.128C82.0879 126.235 81.8639 126.288 81.6186 126.288C81.4266 126.288 81.2452 126.261 81.0746 126.208C80.9146 126.144 80.7546 126.08 80.5946 126.016C80.4346 125.941 80.2746 125.877 80.1146 125.824C79.9546 125.76 79.7892 125.728 79.6186 125.728C79.4052 125.728 79.2292 125.797 79.0906 125.936C78.9519 126.075 78.8399 126.235 78.7546 126.416L77.5866 125.648C77.6506 125.488 77.7359 125.312 77.8426 125.12C77.9599 124.928 78.0986 124.752 78.2586 124.592C78.4186 124.421 78.5999 124.283 78.8026 124.176C79.0052 124.069 79.2292 124.016 79.4746 124.016C79.6666 124.016 79.8426 124.048 80.0026 124.112C80.1732 124.165 80.3386 124.229 80.4986 124.304C80.6586 124.368 80.8132 124.432 80.9626 124.496C81.1226 124.549 81.2932 124.576 81.4746 124.576C81.6879 124.576 81.8639 124.507 82.0026 124.368C82.1412 124.229 82.2532 124.069 82.3386 123.888L83.5066 124.656ZM94.0623 131.776C94.0623 132.437 93.9663 133.045 93.7743 133.6C93.5823 134.144 93.305 134.613 92.9423 135.008C92.5796 135.392 92.1423 135.691 91.6303 135.904C91.129 136.117 90.5636 136.224 89.9343 136.224C89.3156 136.224 88.7503 136.117 88.2383 135.904C87.737 135.691 87.305 135.392 86.9423 135.008C86.5796 134.613 86.297 134.144 86.0943 133.6C85.8916 133.045 85.7903 132.437 85.7903 131.776C85.7903 131.115 85.8916 130.512 86.0943 129.968C86.3076 129.424 86.5956 128.96 86.9583 128.576C87.3316 128.192 87.769 127.893 88.2703 127.68C88.7823 127.467 89.337 127.36 89.9343 127.36C90.5423 127.36 91.097 127.467 91.5983 127.68C92.1103 127.893 92.5476 128.192 92.9103 128.576C93.273 128.96 93.5556 129.424 93.7583 129.968C93.961 130.512 94.0623 131.115 94.0623 131.776ZM91.6303 131.776C91.6303 131.04 91.481 130.464 91.1823 130.048C90.8943 129.621 90.4783 129.408 89.9343 129.408C89.3903 129.408 88.969 129.621 88.6703 130.048C88.3716 130.464 88.2223 131.04 88.2223 131.776C88.2223 132.512 88.3716 133.099 88.6703 133.536C88.969 133.963 89.3903 134.176 89.9343 134.176C90.4783 134.176 90.8943 133.963 91.1823 133.536C91.481 133.099 91.6303 132.512 91.6303 131.776ZM17.4682 157C17.2335 156.605 16.9615 156.163 16.6522 155.672C16.3535 155.181 16.0282 154.675 15.6762 154.152C15.3242 153.619 14.9562 153.08 14.5722 152.536C14.1989 151.992 13.8255 151.469 13.4522 150.968C13.0789 150.456 12.7162 149.976 12.3642 149.528C12.0122 149.08 11.6869 148.685 11.3882 148.344V157H9.86819V145.912H11.1002C11.6015 146.445 12.1349 147.069 12.7002 147.784C13.2762 148.488 13.8415 149.219 14.3962 149.976C14.9615 150.723 15.4895 151.459 15.9802 152.184C16.4815 152.909 16.9029 153.555 17.2442 154.12V145.912H18.7642V157H17.4682ZM28.0368 156.76C27.6955 156.845 27.2421 156.936 26.6768 157.032C26.1221 157.128 25.4768 157.176 24.7408 157.176C24.1008 157.176 23.5621 157.085 23.1248 156.904C22.6875 156.712 22.3355 156.445 22.0688 156.104C21.8021 155.763 21.6101 155.363 21.4928 154.904C21.3755 154.435 21.3168 153.917 21.3168 153.352V148.68H22.8048V153.032C22.8048 154.045 22.9648 154.771 23.2848 155.208C23.6048 155.645 24.1435 155.864 24.9008 155.864C25.0608 155.864 25.2261 155.859 25.3968 155.848C25.5675 155.837 25.7275 155.827 25.8768 155.816C26.0261 155.795 26.1595 155.779 26.2768 155.768C26.4048 155.747 26.4955 155.725 26.5488 155.704V148.68H28.0368V156.76ZM31.9923 148.68H35.1443V149.928H31.9923V153.768C31.9923 154.184 32.0243 154.531 32.0883 154.808C32.1523 155.075 32.2483 155.288 32.3763 155.448C32.5043 155.597 32.6643 155.704 32.8563 155.768C33.0483 155.832 33.2723 155.864 33.5283 155.864C33.9763 155.864 34.3336 155.816 34.6003 155.72C34.8776 155.613 35.0696 155.539 35.1763 155.496L35.4643 156.728C35.315 156.803 35.0536 156.893 34.6803 157C34.307 157.117 33.8803 157.176 33.4003 157.176C32.835 157.176 32.3656 157.107 31.9923 156.968C31.6296 156.819 31.3363 156.6 31.1123 156.312C30.8883 156.024 30.7283 155.672 30.6323 155.256C30.547 154.829 30.5043 154.339 30.5043 153.784V146.36L31.9923 146.104V148.68ZM40.1098 148.504C40.2378 148.504 40.3818 148.515 40.5418 148.536C40.7125 148.547 40.8778 148.568 41.0378 148.6C41.1978 148.621 41.3418 148.648 41.4698 148.68C41.6085 148.701 41.7098 148.723 41.7738 148.744L41.5178 150.04C41.4005 149.997 41.2031 149.949 40.9258 149.896C40.6591 149.832 40.3125 149.8 39.8858 149.8C39.6085 149.8 39.3311 149.832 39.0538 149.896C38.7871 149.949 38.6111 149.987 38.5258 150.008V157H37.0378V149.032C37.3898 148.904 37.8271 148.787 38.3498 148.68C38.8725 148.563 39.4591 148.504 40.1098 148.504ZM44.6977 157H43.2097V148.68H44.6977V157ZM43.9457 147.176C43.679 147.176 43.4497 147.091 43.2577 146.92C43.0764 146.739 42.9857 146.499 42.9857 146.2C42.9857 145.901 43.0764 145.667 43.2577 145.496C43.4497 145.315 43.679 145.224 43.9457 145.224C44.2124 145.224 44.4364 145.315 44.6177 145.496C44.8097 145.667 44.9057 145.901 44.9057 146.2C44.9057 146.499 44.8097 146.739 44.6177 146.92C44.4364 147.091 44.2124 147.176 43.9457 147.176ZM50.8726 157.192C50.2006 157.192 49.6086 157.085 49.0966 156.872C48.5952 156.659 48.1686 156.36 47.8166 155.976C47.4752 155.592 47.2192 155.139 47.0486 154.616C46.8779 154.083 46.7926 153.496 46.7926 152.856C46.7926 152.216 46.8832 151.629 47.0646 151.096C47.2566 150.563 47.5232 150.104 47.8646 149.72C48.2059 149.325 48.6219 149.021 49.1126 148.808C49.6139 148.584 50.1686 148.472 50.7766 148.472C51.1499 148.472 51.5232 148.504 51.8966 148.568C52.2699 148.632 52.6272 148.733 52.9686 148.872L52.6326 150.136C52.4086 150.029 52.1472 149.944 51.8486 149.88C51.5606 149.816 51.2512 149.784 50.9206 149.784C50.0886 149.784 49.4486 150.045 49.0006 150.568C48.5632 151.091 48.3446 151.853 48.3446 152.856C48.3446 153.304 48.3926 153.715 48.4886 154.088C48.5952 154.461 48.7552 154.781 48.9686 155.048C49.1926 155.315 49.4752 155.523 49.8166 155.672C50.1579 155.811 50.5739 155.88 51.0646 155.88C51.4592 155.88 51.8166 155.843 52.1366 155.768C52.4566 155.693 52.7072 155.613 52.8886 155.528L53.0966 156.776C53.0112 156.829 52.8886 156.883 52.7286 156.936C52.5686 156.979 52.3872 157.016 52.1846 157.048C51.9819 157.091 51.7632 157.123 51.5286 157.144C51.3046 157.176 51.0859 157.192 50.8726 157.192ZM56.1821 157H54.6941V148.68H56.1821V157ZM55.4301 147.176C55.1634 147.176 54.9341 147.091 54.7421 146.92C54.5607 146.739 54.4701 146.499 54.4701 146.2C54.4701 145.901 54.5607 145.667 54.7421 145.496C54.9341 145.315 55.1634 145.224 55.4301 145.224C55.6967 145.224 55.9207 145.315 56.1021 145.496C56.2941 145.667 56.3901 145.901 56.3901 146.2C56.3901 146.499 56.2941 146.739 56.1021 146.92C55.9207 147.091 55.6967 147.176 55.4301 147.176ZM66.0849 152.84C66.0849 153.501 65.9889 154.099 65.7969 154.632C65.6049 155.165 65.3329 155.624 64.9809 156.008C64.6396 156.392 64.2289 156.691 63.7489 156.904C63.2689 157.107 62.7463 157.208 62.1809 157.208C61.6156 157.208 61.0929 157.107 60.6129 156.904C60.1329 156.691 59.7169 156.392 59.3649 156.008C59.0236 155.624 58.7569 155.165 58.5649 154.632C58.3729 154.099 58.2769 153.501 58.2769 152.84C58.2769 152.189 58.3729 151.597 58.5649 151.064C58.7569 150.52 59.0236 150.056 59.3649 149.672C59.7169 149.288 60.1329 148.995 60.6129 148.792C61.0929 148.579 61.6156 148.472 62.1809 148.472C62.7463 148.472 63.2689 148.579 63.7489 148.792C64.2289 148.995 64.6396 149.288 64.9809 149.672C65.3329 150.056 65.6049 150.52 65.7969 151.064C65.9889 151.597 66.0849 152.189 66.0849 152.84ZM64.5329 152.84C64.5329 151.901 64.3196 151.16 63.8929 150.616C63.4769 150.061 62.9063 149.784 62.1809 149.784C61.4556 149.784 60.8796 150.061 60.4529 150.616C60.0369 151.16 59.8289 151.901 59.8289 152.84C59.8289 153.779 60.0369 154.525 60.4529 155.08C60.8796 155.624 61.4556 155.896 62.1809 155.896C62.9063 155.896 63.4769 155.624 63.8929 155.08C64.3196 154.525 64.5329 153.779 64.5329 152.84ZM68.1784 148.92C68.5198 148.835 68.9731 148.744 69.5384 148.648C70.1038 148.552 70.7544 148.504 71.4904 148.504C72.1518 148.504 72.7011 148.6 73.1384 148.792C73.5758 148.973 73.9224 149.235 74.1784 149.576C74.4451 149.907 74.6318 150.307 74.7384 150.776C74.8451 151.245 74.8984 151.763 74.8984 152.328V157H73.4104V152.648C73.4104 152.136 73.3731 151.699 73.2984 151.336C73.2344 150.973 73.1224 150.68 72.9624 150.456C72.8024 150.232 72.5891 150.072 72.3224 149.976C72.0558 149.869 71.7251 149.816 71.3304 149.816C71.1704 149.816 71.0051 149.821 70.8344 149.832C70.6638 149.843 70.4984 149.859 70.3384 149.88C70.1891 149.891 70.0504 149.907 69.9224 149.928C69.8051 149.949 69.7198 149.965 69.6664 149.976V157H68.1784V148.92ZM80.1819 155.928C80.5339 155.928 80.8433 155.923 81.1099 155.912C81.3873 155.891 81.6166 155.859 81.7979 155.816V153.336C81.6913 153.283 81.5153 153.24 81.2699 153.208C81.0353 153.165 80.7473 153.144 80.4059 153.144C80.1819 153.144 79.9419 153.16 79.6859 153.192C79.4406 153.224 79.2113 153.293 78.9979 153.4C78.7953 153.496 78.6246 153.635 78.4859 153.816C78.3473 153.987 78.2779 154.216 78.2779 154.504C78.2779 155.037 78.4486 155.411 78.7899 155.624C79.1313 155.827 79.5953 155.928 80.1819 155.928ZM80.0539 148.472C80.6513 148.472 81.1526 148.552 81.5579 148.712C81.9739 148.861 82.3046 149.08 82.5499 149.368C82.8059 149.645 82.9873 149.981 83.0939 150.376C83.2006 150.76 83.2539 151.187 83.2539 151.656V156.856C83.1259 156.877 82.9446 156.909 82.7099 156.952C82.4859 156.984 82.2299 157.016 81.9419 157.048C81.6539 157.08 81.3393 157.107 80.9979 157.128C80.6673 157.16 80.3366 157.176 80.0059 157.176C79.5366 157.176 79.1046 157.128 78.7099 157.032C78.3153 156.936 77.9739 156.787 77.6859 156.584C77.3979 156.371 77.1739 156.093 77.0139 155.752C76.8539 155.411 76.7739 155 76.7739 154.52C76.7739 154.061 76.8646 153.667 77.0459 153.336C77.2379 153.005 77.4939 152.739 77.8139 152.536C78.1339 152.333 78.5073 152.184 78.9339 152.088C79.3606 151.992 79.8086 151.944 80.2779 151.944C80.4273 151.944 80.5819 151.955 80.7419 151.976C80.9019 151.987 81.0513 152.008 81.1899 152.04C81.3393 152.061 81.4673 152.083 81.5739 152.104C81.6806 152.125 81.7553 152.141 81.7979 152.152V151.736C81.7979 151.491 81.7713 151.251 81.7179 151.016C81.6646 150.771 81.5686 150.557 81.4299 150.376C81.2913 150.184 81.0993 150.035 80.8539 149.928C80.6193 149.811 80.3099 149.752 79.9259 149.752C79.4353 149.752 79.0033 149.789 78.6299 149.864C78.2673 149.928 77.9953 149.997 77.8139 150.072L77.6379 148.84C77.8299 148.755 78.1499 148.675 78.5979 148.6C79.0459 148.515 79.5313 148.472 80.0539 148.472ZM88.2213 157.16C87.304 157.139 86.6533 156.941 86.2693 156.568C85.8853 156.195 85.6933 155.613 85.6933 154.824V144.84L87.1813 144.584V154.584C87.1813 154.829 87.2026 155.032 87.2453 155.192C87.288 155.352 87.3573 155.48 87.4533 155.576C87.5493 155.672 87.6773 155.747 87.8373 155.8C87.9973 155.843 88.1946 155.88 88.4293 155.912L88.2213 157.16ZM93.3803 146.04C93.3803 146.488 93.3376 146.92 93.2523 147.336C93.1776 147.741 93.0976 148.163 93.0123 148.6C93.3963 148.387 93.775 148.179 94.1483 147.976C94.5216 147.773 94.927 147.597 95.3643 147.448L95.4603 147.416L95.9083 148.76L95.7803 148.808C95.3536 148.968 94.927 149.075 94.5003 149.128C94.0736 149.171 93.6363 149.208 93.1883 149.24C93.5403 149.539 93.871 149.832 94.1803 150.12C94.4896 150.397 94.7776 150.723 95.0443 151.096L95.1243 151.208L93.9563 152.024L93.8923 151.928C93.6363 151.544 93.4123 151.165 93.2203 150.792C93.039 150.408 92.8523 150.013 92.6603 149.608C92.4683 150.013 92.2763 150.408 92.0843 150.792C91.903 151.165 91.6843 151.544 91.4283 151.928L91.3643 152.024L90.1963 151.208L90.2763 151.096C90.543 150.723 90.831 150.397 91.1403 150.12C91.4496 149.832 91.7803 149.539 92.1323 149.24C91.6843 149.208 91.247 149.171 90.8203 149.128C90.3936 149.075 89.967 148.968 89.5403 148.808L89.4123 148.76L89.8603 147.416L89.9563 147.448C90.3936 147.597 90.799 147.773 91.1723 147.976C91.5456 148.179 91.9243 148.387 92.3083 148.6C92.223 148.163 92.1376 147.741 92.0523 147.336C91.9776 146.92 91.9403 146.488 91.9403 146.04V145.912H93.3803V146.04Z" fill="#2F2F2F"/>
<path d="M4.31031 174.41C4.31031 174.802 4.27298 175.18 4.19831 175.544C4.13298 175.899 4.06298 176.267 3.98831 176.65C4.32431 176.463 4.65565 176.281 4.98231 176.104C5.30898 175.927 5.66365 175.773 6.04631 175.642L6.13031 175.614L6.52231 176.79L6.41031 176.832C6.03698 176.972 5.66365 177.065 5.29031 177.112C4.91698 177.149 4.53431 177.182 4.14231 177.21C4.45031 177.471 4.73965 177.728 5.01031 177.98C5.28098 178.223 5.53298 178.507 5.76631 178.834L5.83631 178.932L4.81431 179.646L4.75831 179.562C4.53431 179.226 4.33831 178.895 4.17031 178.568C4.01165 178.232 3.84831 177.887 3.68031 177.532C3.51231 177.887 3.34431 178.232 3.17631 178.568C3.01765 178.895 2.82631 179.226 2.60231 179.562L2.54631 179.646L1.52431 178.932L1.59431 178.834C1.82765 178.507 2.07965 178.223 2.35031 177.98C2.62098 177.728 2.91031 177.471 3.21831 177.21C2.82631 177.182 2.44365 177.149 2.07031 177.112C1.69698 177.065 1.32365 176.972 0.950313 176.832L0.838313 176.79L1.23031 175.614L1.31431 175.642C1.69698 175.773 2.05165 175.927 2.37831 176.104C2.70498 176.281 3.03631 176.463 3.37231 176.65C3.29765 176.267 3.22298 175.899 3.14831 175.544C3.08298 175.18 3.05031 174.802 3.05031 174.41V174.298H4.31031V174.41ZM10.8269 174.2C12.1895 174.2 13.2349 174.461 13.9629 174.984C14.7002 175.497 15.0689 176.267 15.0689 177.294C15.0689 177.854 14.9662 178.335 14.7609 178.736C14.5649 179.128 14.2755 179.45 13.8929 179.702C13.5195 179.945 13.0622 180.122 12.5209 180.234C11.9795 180.346 11.3682 180.402 10.6869 180.402H9.60888V184H8.25088V174.438C8.63354 174.345 9.05821 174.284 9.52488 174.256C10.0009 174.219 10.4349 174.2 10.8269 174.2ZM10.9389 175.39C10.3602 175.39 9.91688 175.404 9.60888 175.432V179.24H10.6309C11.0975 179.24 11.5175 179.212 11.8909 179.156C12.2642 179.091 12.5769 178.988 12.8289 178.848C13.0902 178.699 13.2909 178.498 13.4309 178.246C13.5709 177.994 13.6409 177.672 13.6409 177.28C13.6409 176.907 13.5662 176.599 13.4169 176.356C13.2769 176.113 13.0809 175.922 12.8289 175.782C12.5862 175.633 12.3015 175.53 11.9749 175.474C11.6482 175.418 11.3029 175.39 10.9389 175.39ZM18.8685 184.14C18.0658 184.121 17.4965 183.949 17.1605 183.622C16.8245 183.295 16.6565 182.787 16.6565 182.096V173.36L17.9585 173.136V181.886C17.9585 182.101 17.9771 182.278 18.0145 182.418C18.0518 182.558 18.1125 182.67 18.1965 182.754C18.2805 182.838 18.3925 182.903 18.5325 182.95C18.6725 182.987 18.8451 183.02 19.0505 183.048L18.8685 184.14ZM22.9766 183.062C23.2846 183.062 23.5552 183.057 23.7886 183.048C24.0312 183.029 24.2319 183.001 24.3906 182.964V180.794C24.2972 180.747 24.1432 180.71 23.9286 180.682C23.7232 180.645 23.4712 180.626 23.1726 180.626C22.9766 180.626 22.7666 180.64 22.5426 180.668C22.3279 180.696 22.1272 180.757 21.9406 180.85C21.7632 180.934 21.6139 181.055 21.4926 181.214C21.3712 181.363 21.3106 181.564 21.3106 181.816C21.3106 182.283 21.4599 182.609 21.7586 182.796C22.0572 182.973 22.4632 183.062 22.9766 183.062ZM22.8646 176.538C23.3872 176.538 23.8259 176.608 24.1806 176.748C24.5446 176.879 24.8339 177.07 25.0486 177.322C25.2726 177.565 25.4312 177.859 25.5246 178.204C25.6179 178.54 25.6646 178.913 25.6646 179.324V183.874C25.5526 183.893 25.3939 183.921 25.1886 183.958C24.9926 183.986 24.7686 184.014 24.5166 184.042C24.2646 184.07 23.9892 184.093 23.6906 184.112C23.4012 184.14 23.1119 184.154 22.8226 184.154C22.4119 184.154 22.0339 184.112 21.6886 184.028C21.3432 183.944 21.0446 183.813 20.7926 183.636C20.5406 183.449 20.3446 183.207 20.2046 182.908C20.0646 182.609 19.9946 182.25 19.9946 181.83C19.9946 181.429 20.0739 181.083 20.2326 180.794C20.4006 180.505 20.6246 180.271 20.9046 180.094C21.1846 179.917 21.5112 179.786 21.8846 179.702C22.2579 179.618 22.6499 179.576 23.0606 179.576C23.1912 179.576 23.3266 179.585 23.4666 179.604C23.6066 179.613 23.7372 179.632 23.8586 179.66C23.9892 179.679 24.1012 179.697 24.1946 179.716C24.2879 179.735 24.3532 179.749 24.3906 179.758V179.394C24.3906 179.179 24.3672 178.969 24.3206 178.764C24.2739 178.549 24.1899 178.363 24.0686 178.204C23.9472 178.036 23.7792 177.905 23.5646 177.812C23.3592 177.709 23.0886 177.658 22.7526 177.658C22.3232 177.658 21.9452 177.691 21.6186 177.756C21.3012 177.812 21.0632 177.873 20.9046 177.938L20.7506 176.86C20.9186 176.785 21.1986 176.715 21.5906 176.65C21.9826 176.575 22.4072 176.538 22.8646 176.538ZM27.827 176.93C28.1257 176.855 28.5224 176.776 29.017 176.692C29.5117 176.608 30.081 176.566 30.725 176.566C31.3037 176.566 31.7844 176.65 32.167 176.818C32.5497 176.977 32.853 177.205 33.077 177.504C33.3104 177.793 33.4737 178.143 33.567 178.554C33.6604 178.965 33.707 179.417 33.707 179.912V184H32.405V180.192C32.405 179.744 32.3724 179.361 32.307 179.044C32.251 178.727 32.153 178.47 32.013 178.274C31.873 178.078 31.6864 177.938 31.453 177.854C31.2197 177.761 30.9304 177.714 30.585 177.714C30.445 177.714 30.3004 177.719 30.151 177.728C30.0017 177.737 29.857 177.751 29.717 177.77C29.5864 177.779 29.465 177.793 29.353 177.812C29.2504 177.831 29.1757 177.845 29.129 177.854V184H27.827V176.93ZM42.2921 180.36C42.2921 180.939 42.2081 181.461 42.0401 181.928C41.8721 182.395 41.6341 182.796 41.3261 183.132C41.0274 183.468 40.6681 183.729 40.2481 183.916C39.8281 184.093 39.3708 184.182 38.8761 184.182C38.3814 184.182 37.9241 184.093 37.5041 183.916C37.0841 183.729 36.7201 183.468 36.4121 183.132C36.1134 182.796 35.8801 182.395 35.7121 181.928C35.5441 181.461 35.4601 180.939 35.4601 180.36C35.4601 179.791 35.5441 179.273 35.7121 178.806C35.8801 178.33 36.1134 177.924 36.4121 177.588C36.7201 177.252 37.0841 176.995 37.5041 176.818C37.9241 176.631 38.3814 176.538 38.8761 176.538C39.3708 176.538 39.8281 176.631 40.2481 176.818C40.6681 176.995 41.0274 177.252 41.3261 177.588C41.6341 177.924 41.8721 178.33 42.0401 178.806C42.2081 179.273 42.2921 179.791 42.2921 180.36ZM40.9341 180.36C40.9341 179.539 40.7474 178.89 40.3741 178.414C40.0101 177.929 39.5108 177.686 38.8761 177.686C38.2414 177.686 37.7374 177.929 37.3641 178.414C37.0001 178.89 36.8181 179.539 36.8181 180.36C36.8181 181.181 37.0001 181.835 37.3641 182.32C37.7374 182.796 38.2414 183.034 38.8761 183.034C39.5108 183.034 40.0101 182.796 40.3741 182.32C40.7474 181.835 40.9341 181.181 40.9341 180.36ZM50.0241 174.2C51.3868 174.2 52.4321 174.461 53.1601 174.984C53.8975 175.497 54.2661 176.267 54.2661 177.294C54.2661 177.854 54.1635 178.335 53.9581 178.736C53.7621 179.128 53.4728 179.45 53.0901 179.702C52.7168 179.945 52.2595 180.122 51.7181 180.234C51.1768 180.346 50.5655 180.402 49.8841 180.402H48.8061V184H47.4481V174.438C47.8308 174.345 48.2555 174.284 48.7221 174.256C49.1981 174.219 49.6321 174.2 50.0241 174.2ZM50.1361 175.39C49.5575 175.39 49.1141 175.404 48.8061 175.432V179.24H49.8281C50.2948 179.24 50.7148 179.212 51.0881 179.156C51.4615 179.091 51.7741 178.988 52.0261 178.848C52.2875 178.699 52.4881 178.498 52.6281 178.246C52.7681 177.994 52.8381 177.672 52.8381 177.28C52.8381 176.907 52.7635 176.599 52.6141 176.356C52.4741 176.113 52.2781 175.922 52.0261 175.782C51.7835 175.633 51.4988 175.53 51.1721 175.474C50.8455 175.418 50.5001 175.39 50.1361 175.39ZM58.5697 176.566C58.6817 176.566 58.8077 176.575 58.9477 176.594C59.0971 176.603 59.2417 176.622 59.3817 176.65C59.5217 176.669 59.6477 176.692 59.7597 176.72C59.8811 176.739 59.9697 176.757 60.0257 176.776L59.8017 177.91C59.6991 177.873 59.5264 177.831 59.2837 177.784C59.0504 177.728 58.7471 177.7 58.3737 177.7C58.1311 177.7 57.8884 177.728 57.6457 177.784C57.4124 177.831 57.2584 177.863 57.1837 177.882V184H55.8817V177.028C56.1897 176.916 56.5724 176.813 57.0297 176.72C57.4871 176.617 58.0004 176.566 58.5697 176.566ZM60.8761 180.374C60.8761 179.73 60.9694 179.17 61.1561 178.694C61.3428 178.209 61.5901 177.807 61.8981 177.49C62.2061 177.173 62.5608 176.935 62.9621 176.776C63.3634 176.617 63.7741 176.538 64.1941 176.538C65.1741 176.538 65.9254 176.846 66.4481 177.462C66.9708 178.069 67.2321 178.997 67.2321 180.248C67.2321 180.304 67.2321 180.379 67.2321 180.472C67.2321 180.556 67.2274 180.635 67.2181 180.71H62.2341C62.2901 181.466 62.5094 182.04 62.8921 182.432C63.2748 182.824 63.8721 183.02 64.6841 183.02C65.1414 183.02 65.5241 182.983 65.8321 182.908C66.1494 182.824 66.3874 182.745 66.5461 182.67L66.7281 183.762C66.5694 183.846 66.2894 183.935 65.8881 184.028C65.4961 184.121 65.0481 184.168 64.5441 184.168C63.9094 184.168 63.3588 184.075 62.8921 183.888C62.4348 183.692 62.0568 183.426 61.7581 183.09C61.4594 182.754 61.2354 182.357 61.0861 181.9C60.9461 181.433 60.8761 180.925 60.8761 180.374ZM65.8741 179.66C65.8834 179.072 65.7341 178.591 65.4261 178.218C65.1274 177.835 64.7121 177.644 64.1801 177.644C63.8814 177.644 63.6154 177.705 63.3821 177.826C63.1581 177.938 62.9668 178.087 62.8081 178.274C62.6494 178.461 62.5234 178.675 62.4301 178.918C62.3461 179.161 62.2901 179.408 62.2621 179.66H65.8741ZM69.1024 176.93C69.4011 176.855 69.7931 176.776 70.2784 176.692C70.7731 176.608 71.3424 176.566 71.9864 176.566C72.4531 176.566 72.8451 176.631 73.1624 176.762C73.4798 176.883 73.7458 177.065 73.9604 177.308C74.0258 177.261 74.1284 177.196 74.2684 177.112C74.4084 177.028 74.5811 176.949 74.7864 176.874C74.9918 176.79 75.2204 176.72 75.4724 176.664C75.7244 176.599 75.9951 176.566 76.2844 176.566C76.8444 176.566 77.3018 176.65 77.6564 176.818C78.0111 176.977 78.2864 177.205 78.4824 177.504C78.6878 177.803 78.8231 178.157 78.8884 178.568C78.9631 178.979 79.0004 179.427 79.0004 179.912V184H77.6984V180.192C77.6984 179.763 77.6751 179.394 77.6284 179.086C77.5911 178.778 77.5118 178.521 77.3904 178.316C77.2784 178.111 77.1198 177.961 76.9144 177.868C76.7184 177.765 76.4618 177.714 76.1444 177.714C75.7058 177.714 75.3418 177.775 75.0524 177.896C74.7724 178.008 74.5811 178.111 74.4784 178.204C74.5531 178.447 74.6091 178.713 74.6464 179.002C74.6838 179.291 74.7024 179.595 74.7024 179.912V184H73.4004V180.192C73.4004 179.763 73.3771 179.394 73.3304 179.086C73.2838 178.778 73.1998 178.521 73.0784 178.316C72.9664 178.111 72.8078 177.961 72.6024 177.868C72.4064 177.765 72.1544 177.714 71.8464 177.714C71.7158 177.714 71.5758 177.719 71.4264 177.728C71.2771 177.737 71.1324 177.751 70.9924 177.77C70.8618 177.779 70.7404 177.793 70.6284 177.812C70.5164 177.831 70.4418 177.845 70.4044 177.854V184H69.1024V176.93ZM82.463 184H81.161V176.72H82.463V184ZM81.805 175.404C81.5717 175.404 81.371 175.329 81.203 175.18C81.0443 175.021 80.965 174.811 80.965 174.55C80.965 174.289 81.0443 174.083 81.203 173.934C81.371 173.775 81.5717 173.696 81.805 173.696C82.0383 173.696 82.2343 173.775 82.393 173.934C82.561 174.083 82.645 174.289 82.645 174.55C82.645 174.811 82.561 175.021 82.393 175.18C82.2343 175.329 82.0383 175.404 81.805 175.404ZM90.498 183.79C90.1994 183.865 89.8027 183.944 89.308 184.028C88.8227 184.112 88.258 184.154 87.614 184.154C87.054 184.154 86.5827 184.075 86.2 183.916C85.8174 183.748 85.5094 183.515 85.276 183.216C85.0427 182.917 84.8747 182.567 84.772 182.166C84.6694 181.755 84.618 181.303 84.618 180.808V176.72H85.92V180.528C85.92 181.415 86.06 182.049 86.34 182.432C86.62 182.815 87.0914 183.006 87.754 183.006C87.894 183.006 88.0387 183.001 88.188 182.992C88.3374 182.983 88.4774 182.973 88.608 182.964C88.7387 182.945 88.8554 182.931 88.958 182.922C89.07 182.903 89.1494 182.885 89.196 182.866V176.72H90.498V183.79ZM92.7411 176.93C93.0398 176.855 93.4318 176.776 93.9171 176.692C94.4118 176.608 94.9811 176.566 95.6251 176.566C96.0918 176.566 96.4838 176.631 96.8011 176.762C97.1184 176.883 97.3844 177.065 97.5991 177.308C97.6644 177.261 97.7671 177.196 97.9071 177.112C98.0471 177.028 98.2198 176.949 98.4251 176.874C98.6304 176.79 98.8591 176.72 99.1111 176.664C99.3631 176.599 99.6338 176.566 99.9231 176.566C100.483 176.566 100.94 176.65 101.295 176.818C101.65 176.977 101.925 177.205 102.121 177.504C102.326 177.803 102.462 178.157 102.527 178.568C102.602 178.979 102.639 179.427 102.639 179.912V184H101.337V180.192C101.337 179.763 101.314 179.394 101.267 179.086C101.23 178.778 101.15 178.521 101.029 178.316C100.917 178.111 100.758 177.961 100.553 177.868C100.357 177.765 100.1 177.714 99.7831 177.714C99.3444 177.714 98.9804 177.775 98.6911 177.896C98.4111 178.008 98.2198 178.111 98.1171 178.204C98.1918 178.447 98.2478 178.713 98.2851 179.002C98.3224 179.291 98.3411 179.595 98.3411 179.912V184H97.0391V180.192C97.0391 179.763 97.0158 179.394 96.9691 179.086C96.9224 178.778 96.8384 178.521 96.7171 178.316C96.6051 178.111 96.4464 177.961 96.2411 177.868C96.0451 177.765 95.7931 177.714 95.4851 177.714C95.3544 177.714 95.2144 177.719 95.0651 177.728C94.9158 177.737 94.7711 177.751 94.6311 177.77C94.5004 177.779 94.3791 177.793 94.2671 177.812C94.1551 177.831 94.0804 177.845 94.0431 177.854V184H92.7411V176.93Z" fill="#8A99A8"/>
</svg>
