<svg width="82" height="88" viewBox="0 0 82 88" fill="none" xmlns="http://www.w3.org/2000/svg">
<circle cx="41.3269" cy="44.3259" r="40.4148" fill="#BADBFE"/>
<path d="M79.7913 16.0908C77.4474 8.78873 72.4507 3.42967 66.0822 1.38745C54.3411 -2.37765 44.6863 2.46339 41.0005 4.78095C37.3141 2.46321 27.6592 -2.37765 15.9188 1.38745C9.54839 3.43018 4.55113 8.79131 2.20795 16.0962C-0.87325 25.7019 1.11655 36.5835 7.53127 45.2041C10.3201 48.9525 12.2057 53.0847 13.1356 57.4862C13.5486 59.4418 13.9077 61.5934 14.2026 63.8814C15.0883 70.7524 16.3926 76.2672 18.0797 80.2724C20.1007 85.0703 22.7078 87.6613 25.8287 87.9734C26.0065 87.9911 26.1819 87.9999 26.3564 87.9999C29.4281 87.9997 31.9954 85.2429 33.9926 79.7939C35.4692 75.7657 36.6331 70.3679 37.2703 64.5947C37.6264 61.3665 38.4595 58.7526 39.6791 57.0356C40.1158 56.421 40.7489 56.3546 41.0007 56.3546C41.2525 56.3546 41.8855 56.421 42.3222 57.0358C43.5418 58.7526 44.3749 61.3665 44.731 64.5948C45.3682 70.3679 46.5321 75.7658 48.0087 79.7941C50.0059 85.2432 52.5728 88.0002 55.6449 88.0001C55.8192 88.0001 55.9952 87.9911 56.1726 87.9736C59.2935 87.6615 61.9007 85.0705 63.9216 80.2726C65.6085 76.2674 66.913 70.7526 67.7987 63.8815C68.0937 61.5932 68.4527 59.4418 68.8655 57.4874C69.7947 53.0893 71.6831 48.953 74.4783 45.1932C80.8873 36.5727 82.8735 25.6932 79.7913 16.0908ZM70.3507 42.1246C67.1097 46.4842 64.9169 51.2953 63.8332 56.4244C63.392 58.5123 63.0099 60.8002 62.6975 63.2241C60.8947 77.2101 57.5354 82.6089 55.6931 82.8519C55.3062 82.7149 53.9827 81.4427 52.5599 77.2337C51.3541 73.6669 50.3895 68.978 49.8435 64.0306C49.3851 59.8758 48.2653 56.5203 46.5153 54.057C45.2494 52.275 43.1878 51.2111 41.0005 51.2111C38.8132 51.2111 36.7516 52.2748 35.4855 54.0572C33.7355 56.5207 32.6159 59.8762 32.1573 64.0307C31.6113 68.9781 30.6467 73.6671 29.441 77.2338C28.0182 81.4429 26.6946 82.7151 26.3077 82.8521C24.4656 82.609 21.1061 77.2103 19.3033 63.2243C18.9909 60.8009 18.6088 58.5127 18.1674 56.4235C17.083 51.2903 14.8927 46.4828 11.6573 42.1342C6.23172 34.8424 4.53033 25.6959 7.10553 17.6674C8.93514 11.9634 12.7198 7.81489 17.4892 6.28554C22.5241 4.67078 27.7159 4.77425 32.9203 6.59268C36.8954 7.98178 39.3898 9.90317 39.4084 9.9176L40.9967 11.1594L42.5862 9.92242C42.611 9.90317 45.1054 7.98178 49.0805 6.59268C54.2849 4.77407 59.4765 4.67078 64.5116 6.28554H64.5118C69.2796 7.81437 73.0639 11.9614 74.8941 17.663C77.47 25.6883 75.7717 34.8329 70.3507 42.1246Z" fill="#00309E"/>
</svg>
