<svg width="177" height="186" viewBox="0 0 177 186" fill="none" xmlns="http://www.w3.org/2000/svg">
<circle cx="88.3269" cy="41.3259" r="40.4148" fill="#BADBFE"/>
<path d="M132 39.6905L121.554 11.3366H114.222V8.40326C114.222 3.93148 110.584 0.293457 106.113 0.293457C101.641 0.293457 98.0028 3.93148 98.0028 8.40326V11.3366H44V74.4895H53.9399C54.9612 78.6281 58.7034 81.7067 63.1529 81.7067C67.6025 81.7067 71.3447 78.6281 72.366 74.4895H103.634C104.655 78.6281 108.398 81.7067 112.847 81.7067C117.297 81.7067 121.039 78.6281 122.06 74.4895H132V39.6905ZM109.914 27.5562H122.013L125.7 37.564H109.914V27.5562ZM103.179 8.40326C103.179 6.78579 104.495 5.46993 106.113 5.46993C107.73 5.46993 109.046 6.78579 109.046 8.40326V11.3366H103.179V8.40326ZM117.944 16.5131L120.106 22.3797H49.1765V16.5131H117.944ZM63.1529 76.5301C60.7744 76.5301 58.8392 74.595 58.8392 72.2164C58.8392 69.8378 60.7744 67.9027 63.1529 67.9027C65.5315 67.9027 67.4667 69.8378 67.4667 72.2164C67.4667 74.595 65.5315 76.5301 63.1529 76.5301ZM112.847 76.5301C110.468 76.5301 108.533 74.595 108.533 72.2164C108.533 69.8378 110.468 67.9027 112.847 67.9027C115.226 67.9027 117.161 69.8378 117.161 72.2164C117.161 74.595 115.226 76.5301 112.847 76.5301ZM121.881 69.3131C120.652 65.4963 117.067 62.7264 112.847 62.7264C108.627 62.7264 105.042 65.4963 103.813 69.3131H72.1871C70.9575 65.4963 67.3733 62.7264 63.1529 62.7264C58.9326 62.7264 55.3484 65.4963 54.1188 69.3131H49.1765V49.6425H65.9137V44.466H49.1765V38.5993H65.9137V33.4229H49.1765V27.5562H104.737V42.7405H126.824V48.6072H121.129V53.7837H126.824V69.3131H121.881Z" fill="#00309E"/>
<path d="M93.3486 33.4229H77.129V38.9444H71.6074V55.164H77.129V60.6856H93.3486V55.164H98.8702V38.9444H93.3486V33.4229ZM93.6937 44.1209V49.9876H88.1721V55.5091H82.3055V49.9876H76.7839V44.1209H82.3055V38.5993H88.1721V44.1209H93.6937Z" fill="#00309E"/>
<path d="M53.5552 130.856V133H46.1472V121.912H48.6432V130.856H53.5552ZM54.6028 128.856C54.6028 128.109 54.7148 127.459 54.9388 126.904C55.1735 126.339 55.4775 125.869 55.8508 125.496C56.2241 125.123 56.6508 124.84 57.1308 124.648C57.6215 124.456 58.1228 124.36 58.6348 124.36C59.8295 124.36 60.7735 124.728 61.4668 125.464C62.1601 126.189 62.5068 127.261 62.5068 128.68C62.5068 128.819 62.5015 128.973 62.4908 129.144C62.4801 129.304 62.4695 129.448 62.4588 129.576H57.0508C57.1041 130.067 57.3335 130.456 57.7388 130.744C58.1441 131.032 58.6881 131.176 59.3708 131.176C59.8081 131.176 60.2348 131.139 60.6508 131.064C61.0775 130.979 61.4241 130.877 61.6908 130.76L62.0108 132.696C61.8828 132.76 61.7121 132.824 61.4988 132.888C61.2855 132.952 61.0455 133.005 60.7788 133.048C60.5228 133.101 60.2455 133.144 59.9468 133.176C59.6481 133.208 59.3495 133.224 59.0508 133.224C58.2935 133.224 57.6321 133.112 57.0668 132.888C56.5121 132.664 56.0481 132.36 55.6748 131.976C55.3121 131.581 55.0401 131.117 54.8588 130.584C54.6881 130.051 54.6028 129.475 54.6028 128.856ZM60.2028 127.944C60.1921 127.741 60.1548 127.544 60.0908 127.352C60.0375 127.16 59.9468 126.989 59.8188 126.84C59.7015 126.691 59.5468 126.568 59.3548 126.472C59.1735 126.376 58.9441 126.328 58.6668 126.328C58.4001 126.328 58.1708 126.376 57.9788 126.472C57.7868 126.557 57.6268 126.675 57.4988 126.824C57.3708 126.973 57.2695 127.149 57.1948 127.352C57.1308 127.544 57.0828 127.741 57.0508 127.944H60.2028ZM66.6346 133C66.0906 131.933 65.5359 130.685 64.9706 129.256C64.4159 127.827 63.8879 126.269 63.3866 124.584H65.9146C66.0212 125 66.1439 125.453 66.2826 125.944C66.4319 126.424 66.5812 126.915 66.7306 127.416C66.8906 127.907 67.0452 128.387 67.1946 128.856C67.3546 129.325 67.5092 129.752 67.6586 130.136C67.7972 129.752 67.9466 129.325 68.1066 128.856C68.2666 128.387 68.4212 127.907 68.5706 127.416C68.7306 126.915 68.8799 126.424 69.0186 125.944C69.1679 125.453 69.2959 125 69.4026 124.584H71.8666C71.3652 126.269 70.8319 127.827 70.2666 129.256C69.7119 130.685 69.1626 131.933 68.6186 133H66.6346ZM76.2032 131.336C76.4379 131.336 76.6619 131.331 76.8752 131.32C77.0885 131.309 77.2592 131.293 77.3872 131.272V129.464C77.2912 129.443 77.1472 129.421 76.9552 129.4C76.7632 129.379 76.5872 129.368 76.4272 129.368C76.2032 129.368 75.9899 129.384 75.7872 129.416C75.5952 129.437 75.4245 129.485 75.2752 129.56C75.1259 129.635 75.0085 129.736 74.9232 129.864C74.8379 129.992 74.7952 130.152 74.7952 130.344C74.7952 130.717 74.9179 130.979 75.1632 131.128C75.4192 131.267 75.7659 131.336 76.2032 131.336ZM76.0112 124.36C76.7152 124.36 77.3019 124.44 77.7712 124.6C78.2405 124.76 78.6139 124.989 78.8912 125.288C79.1792 125.587 79.3819 125.949 79.4992 126.376C79.6165 126.803 79.6752 127.277 79.6752 127.8V132.76C79.3339 132.835 78.8592 132.92 78.2512 133.016C77.6432 133.123 76.9072 133.176 76.0432 133.176C75.4992 133.176 75.0032 133.128 74.5552 133.032C74.1179 132.936 73.7392 132.781 73.4192 132.568C73.0992 132.344 72.8539 132.056 72.6832 131.704C72.5125 131.352 72.4272 130.92 72.4272 130.408C72.4272 129.917 72.5232 129.501 72.7152 129.16C72.9179 128.819 73.1845 128.547 73.5152 128.344C73.8459 128.141 74.2245 127.997 74.6512 127.912C75.0779 127.816 75.5205 127.768 75.9792 127.768C76.2885 127.768 76.5605 127.784 76.7952 127.816C77.0405 127.837 77.2379 127.869 77.3872 127.912V127.688C77.3872 127.283 77.2645 126.957 77.0192 126.712C76.7739 126.467 76.3472 126.344 75.7392 126.344C75.3339 126.344 74.9339 126.376 74.5392 126.44C74.1445 126.493 73.8032 126.573 73.5152 126.68L73.2112 124.76C73.3499 124.717 73.5205 124.675 73.7232 124.632C73.9365 124.579 74.1659 124.536 74.4112 124.504C74.6565 124.461 74.9125 124.429 75.1792 124.408C75.4565 124.376 75.7339 124.36 76.0112 124.36ZM85.2747 128.856C85.2747 128.109 85.3867 127.459 85.6107 126.904C85.8454 126.339 86.1494 125.869 86.5227 125.496C86.896 125.123 87.3227 124.84 87.8027 124.648C88.2934 124.456 88.7947 124.36 89.3067 124.36C90.5014 124.36 91.4454 124.728 92.1387 125.464C92.832 126.189 93.1787 127.261 93.1787 128.68C93.1787 128.819 93.1734 128.973 93.1627 129.144C93.152 129.304 93.1414 129.448 93.1307 129.576H87.7227C87.776 130.067 88.0054 130.456 88.4107 130.744C88.816 131.032 89.36 131.176 90.0427 131.176C90.48 131.176 90.9067 131.139 91.3227 131.064C91.7494 130.979 92.096 130.877 92.3627 130.76L92.6827 132.696C92.5547 132.76 92.384 132.824 92.1707 132.888C91.9574 132.952 91.7174 133.005 91.4507 133.048C91.1947 133.101 90.9174 133.144 90.6187 133.176C90.32 133.208 90.0214 133.224 89.7227 133.224C88.9654 133.224 88.304 133.112 87.7387 132.888C87.184 132.664 86.72 132.36 86.3467 131.976C85.984 131.581 85.712 131.117 85.5307 130.584C85.36 130.051 85.2747 129.475 85.2747 128.856ZM90.8747 127.944C90.864 127.741 90.8267 127.544 90.7627 127.352C90.7094 127.16 90.6187 126.989 90.4907 126.84C90.3734 126.691 90.2187 126.568 90.0267 126.472C89.8454 126.376 89.616 126.328 89.3387 126.328C89.072 126.328 88.8427 126.376 88.6507 126.472C88.4587 126.557 88.2987 126.675 88.1707 126.824C88.0427 126.973 87.9414 127.149 87.8667 127.352C87.8027 127.544 87.7547 127.741 87.7227 127.944H90.8747ZM98.7822 122.488L101.166 122.104V124.584H104.03V126.568H101.166V129.528C101.166 130.029 101.252 130.429 101.422 130.728C101.604 131.027 101.961 131.176 102.494 131.176C102.75 131.176 103.012 131.155 103.278 131.112C103.556 131.059 103.806 130.989 104.03 130.904L104.366 132.76C104.078 132.877 103.758 132.979 103.406 133.064C103.054 133.149 102.622 133.192 102.11 133.192C101.46 133.192 100.921 133.107 100.494 132.936C100.068 132.755 99.7262 132.509 99.4702 132.2C99.2142 131.88 99.0329 131.496 98.9262 131.048C98.8302 130.6 98.7822 130.104 98.7822 129.56V122.488ZM111.044 126.696C110.83 126.643 110.58 126.589 110.292 126.536C110.004 126.472 109.694 126.44 109.364 126.44C109.214 126.44 109.033 126.456 108.82 126.488C108.617 126.509 108.462 126.536 108.356 126.568V133H105.972V125.032C106.398 124.883 106.9 124.744 107.476 124.616C108.062 124.477 108.713 124.408 109.428 124.408C109.556 124.408 109.71 124.419 109.892 124.44C110.073 124.451 110.254 124.472 110.436 124.504C110.617 124.525 110.798 124.557 110.98 124.6C111.161 124.632 111.316 124.675 111.444 124.728L111.044 126.696ZM115.781 131.336C116.016 131.336 116.24 131.331 116.453 131.32C116.667 131.309 116.837 131.293 116.965 131.272V129.464C116.869 129.443 116.725 129.421 116.533 129.4C116.341 129.379 116.165 129.368 116.005 129.368C115.781 129.368 115.568 129.384 115.365 129.416C115.173 129.437 115.003 129.485 114.853 129.56C114.704 129.635 114.587 129.736 114.501 129.864C114.416 129.992 114.373 130.152 114.373 130.344C114.373 130.717 114.496 130.979 114.741 131.128C114.997 131.267 115.344 131.336 115.781 131.336ZM115.589 124.36C116.293 124.36 116.88 124.44 117.349 124.6C117.819 124.76 118.192 124.989 118.469 125.288C118.757 125.587 118.96 125.949 119.077 126.376C119.195 126.803 119.253 127.277 119.253 127.8V132.76C118.912 132.835 118.437 132.92 117.829 133.016C117.221 133.123 116.485 133.176 115.621 133.176C115.077 133.176 114.581 133.128 114.133 133.032C113.696 132.936 113.317 132.781 112.997 132.568C112.677 132.344 112.432 132.056 112.261 131.704C112.091 131.352 112.005 130.92 112.005 130.408C112.005 129.917 112.101 129.501 112.293 129.16C112.496 128.819 112.763 128.547 113.093 128.344C113.424 128.141 113.803 127.997 114.229 127.912C114.656 127.816 115.099 127.768 115.557 127.768C115.867 127.768 116.139 127.784 116.373 127.816C116.619 127.837 116.816 127.869 116.965 127.912V127.688C116.965 127.283 116.843 126.957 116.597 126.712C116.352 126.467 115.925 126.344 115.317 126.344C114.912 126.344 114.512 126.376 114.117 126.44C113.723 126.493 113.381 126.573 113.093 126.68L112.789 124.76C112.928 124.717 113.099 124.675 113.301 124.632C113.515 124.579 113.744 124.536 113.989 124.504C114.235 124.461 114.491 124.429 114.757 124.408C115.035 124.376 115.312 124.36 115.589 124.36ZM127.729 126.184C127.537 126.397 127.276 126.685 126.945 127.048C126.625 127.411 126.278 127.811 125.905 128.248C125.532 128.685 125.153 129.144 124.769 129.624C124.396 130.104 124.054 130.568 123.745 131.016H127.809V133H120.849V131.592C121.073 131.208 121.34 130.797 121.649 130.36C121.969 129.912 122.3 129.464 122.641 129.016C122.993 128.568 123.34 128.136 123.681 127.72C124.022 127.293 124.337 126.909 124.625 126.568H121.041V124.584H127.729V126.184ZM0.823813 149.856C0.823813 149.12 0.930479 148.48 1.14381 147.936C1.35715 147.381 1.63981 146.923 1.99181 146.56C2.34381 146.197 2.74915 145.925 3.20781 145.744C3.66648 145.563 4.13581 145.472 4.61581 145.472C5.73581 145.472 6.59448 145.824 7.19181 146.528C7.78915 147.221 8.08781 148.283 8.08781 149.712C8.08781 149.776 8.08781 149.861 8.08781 149.968C8.08781 150.064 8.08248 150.155 8.07181 150.24H2.37581C2.43981 151.104 2.69048 151.76 3.12781 152.208C3.56515 152.656 4.24781 152.88 5.17581 152.88C5.69848 152.88 6.13581 152.837 6.48781 152.752C6.85048 152.656 7.12248 152.565 7.30381 152.48L7.51181 153.728C7.33048 153.824 7.01048 153.925 6.55181 154.032C6.10381 154.139 5.59181 154.192 5.01581 154.192C4.29048 154.192 3.66115 154.085 3.12781 153.872C2.60515 153.648 2.17315 153.344 1.83181 152.96C1.49048 152.576 1.23448 152.123 1.06381 151.6C0.903813 151.067 0.823813 150.485 0.823813 149.856ZM6.53581 149.04C6.54648 148.368 6.37581 147.819 6.02381 147.392C5.68248 146.955 5.20781 146.736 4.59981 146.736C4.25848 146.736 3.95448 146.805 3.68781 146.944C3.43181 147.072 3.21315 147.243 3.03181 147.456C2.85048 147.669 2.70648 147.915 2.59981 148.192C2.50381 148.469 2.43981 148.752 2.40781 149.04H6.53581ZM10.2253 145.92C10.5666 145.835 11.0146 145.744 11.5693 145.648C12.1346 145.552 12.7853 145.504 13.5213 145.504C14.0546 145.504 14.5026 145.579 14.8653 145.728C15.228 145.867 15.532 146.075 15.7773 146.352C15.852 146.299 15.9693 146.224 16.1293 146.128C16.2893 146.032 16.4866 145.941 16.7213 145.856C16.956 145.76 17.2173 145.68 17.5053 145.616C17.7933 145.541 18.1026 145.504 18.4333 145.504C19.0733 145.504 19.596 145.6 20.0013 145.792C20.4066 145.973 20.7213 146.235 20.9453 146.576C21.18 146.917 21.3346 147.323 21.4093 147.792C21.4946 148.261 21.5373 148.773 21.5373 149.328V154H20.0493V149.648C20.0493 149.157 20.0226 148.736 19.9693 148.384C19.9266 148.032 19.836 147.739 19.6973 147.504C19.5693 147.269 19.388 147.099 19.1533 146.992C18.9293 146.875 18.636 146.816 18.2733 146.816C17.772 146.816 17.356 146.885 17.0253 147.024C16.7053 147.152 16.4866 147.269 16.3693 147.376C16.4546 147.653 16.5186 147.957 16.5613 148.288C16.604 148.619 16.6253 148.965 16.6253 149.328V154H15.1373V149.648C15.1373 149.157 15.1106 148.736 15.0573 148.384C15.004 148.032 14.908 147.739 14.7693 147.504C14.6413 147.269 14.46 147.099 14.2253 146.992C14.0013 146.875 13.7133 146.816 13.3613 146.816C13.212 146.816 13.052 146.821 12.8813 146.832C12.7106 146.843 12.5453 146.859 12.3853 146.88C12.236 146.891 12.0973 146.907 11.9693 146.928C11.8413 146.949 11.756 146.965 11.7133 146.976V154H10.2253V145.92ZM31.3257 154.192C30.6537 154.192 30.0617 154.085 29.5497 153.872C29.0484 153.659 28.6217 153.36 28.2697 152.976C27.9284 152.592 27.6724 152.139 27.5017 151.616C27.331 151.083 27.2457 150.496 27.2457 149.856C27.2457 149.216 27.3364 148.629 27.5177 148.096C27.7097 147.563 27.9764 147.104 28.3177 146.72C28.659 146.325 29.075 146.021 29.5657 145.808C30.067 145.584 30.6217 145.472 31.2297 145.472C31.603 145.472 31.9764 145.504 32.3497 145.568C32.723 145.632 33.0804 145.733 33.4217 145.872L33.0857 147.136C32.8617 147.029 32.6004 146.944 32.3017 146.88C32.0137 146.816 31.7044 146.784 31.3737 146.784C30.5417 146.784 29.9017 147.045 29.4537 147.568C29.0164 148.091 28.7977 148.853 28.7977 149.856C28.7977 150.304 28.8457 150.715 28.9417 151.088C29.0484 151.461 29.2084 151.781 29.4217 152.048C29.6457 152.315 29.9284 152.523 30.2697 152.672C30.611 152.811 31.027 152.88 31.5177 152.88C31.9124 152.88 32.2697 152.843 32.5897 152.768C32.9097 152.693 33.1604 152.613 33.3417 152.528L33.5497 153.776C33.4644 153.829 33.3417 153.883 33.1817 153.936C33.0217 153.979 32.8404 154.016 32.6377 154.048C32.435 154.091 32.2164 154.123 31.9817 154.144C31.7577 154.176 31.539 154.192 31.3257 154.192ZM37.9632 152.928C38.3152 152.928 38.6245 152.923 38.8912 152.912C39.1685 152.891 39.3979 152.859 39.5792 152.816V150.336C39.4725 150.283 39.2965 150.24 39.0512 150.208C38.8165 150.165 38.5285 150.144 38.1872 150.144C37.9632 150.144 37.7232 150.16 37.4672 150.192C37.2219 150.224 36.9925 150.293 36.7792 150.4C36.5765 150.496 36.4059 150.635 36.2672 150.816C36.1285 150.987 36.0592 151.216 36.0592 151.504C36.0592 152.037 36.2299 152.411 36.5712 152.624C36.9125 152.827 37.3765 152.928 37.9632 152.928ZM37.8352 145.472C38.4325 145.472 38.9339 145.552 39.3392 145.712C39.7552 145.861 40.0859 146.08 40.3312 146.368C40.5872 146.645 40.7685 146.981 40.8752 147.376C40.9819 147.76 41.0352 148.187 41.0352 148.656V153.856C40.9072 153.877 40.7259 153.909 40.4912 153.952C40.2672 153.984 40.0112 154.016 39.7232 154.048C39.4352 154.08 39.1205 154.107 38.7792 154.128C38.4485 154.16 38.1179 154.176 37.7872 154.176C37.3179 154.176 36.8859 154.128 36.4912 154.032C36.0965 153.936 35.7552 153.787 35.4672 153.584C35.1792 153.371 34.9552 153.093 34.7952 152.752C34.6352 152.411 34.5552 152 34.5552 151.52C34.5552 151.061 34.6459 150.667 34.8272 150.336C35.0192 150.005 35.2752 149.739 35.5952 149.536C35.9152 149.333 36.2885 149.184 36.7152 149.088C37.1419 148.992 37.5899 148.944 38.0592 148.944C38.2085 148.944 38.3632 148.955 38.5232 148.976C38.6832 148.987 38.8325 149.008 38.9712 149.04C39.1205 149.061 39.2485 149.083 39.3552 149.104C39.4619 149.125 39.5365 149.141 39.5792 149.152V148.736C39.5792 148.491 39.5525 148.251 39.4992 148.016C39.4459 147.771 39.3499 147.557 39.2112 147.376C39.0725 147.184 38.8805 147.035 38.6352 146.928C38.4005 146.811 38.0912 146.752 37.7072 146.752C37.2165 146.752 36.7845 146.789 36.4112 146.864C36.0485 146.928 35.7765 146.997 35.5952 147.072L35.4192 145.84C35.6112 145.755 35.9312 145.675 36.3792 145.6C36.8272 145.515 37.3125 145.472 37.8352 145.472ZM45.4426 152.928C46.0506 152.928 46.4986 152.848 46.7866 152.688C47.0852 152.528 47.2346 152.272 47.2346 151.92C47.2346 151.557 47.0906 151.269 46.8026 151.056C46.5146 150.843 46.0399 150.603 45.3786 150.336C45.0586 150.208 44.7492 150.08 44.4506 149.952C44.1626 149.813 43.9119 149.653 43.6986 149.472C43.4852 149.291 43.3146 149.072 43.1866 148.816C43.0586 148.56 42.9946 148.245 42.9946 147.872C42.9946 147.136 43.2666 146.555 43.8106 146.128C44.3546 145.691 45.0959 145.472 46.0346 145.472C46.2692 145.472 46.5039 145.488 46.7386 145.52C46.9732 145.541 47.1919 145.573 47.3946 145.616C47.5972 145.648 47.7732 145.685 47.9226 145.728C48.0826 145.771 48.2052 145.808 48.2906 145.84L48.0186 147.12C47.8586 147.035 47.6079 146.949 47.2666 146.864C46.9252 146.768 46.5146 146.72 46.0346 146.72C45.6186 146.72 45.2559 146.805 44.9466 146.976C44.6372 147.136 44.4826 147.392 44.4826 147.744C44.4826 147.925 44.5146 148.085 44.5786 148.224C44.6532 148.363 44.7599 148.491 44.8986 148.608C45.0479 148.715 45.2292 148.816 45.4426 148.912C45.6559 149.008 45.9119 149.109 46.2106 149.216C46.6052 149.365 46.9572 149.515 47.2666 149.664C47.5759 149.803 47.8372 149.968 48.0506 150.16C48.2746 150.352 48.4452 150.587 48.5626 150.864C48.6799 151.131 48.7386 151.461 48.7386 151.856C48.7386 152.624 48.4506 153.205 47.8746 153.6C47.3092 153.995 46.4986 154.192 45.4426 154.192C44.7066 154.192 44.1306 154.128 43.7146 154C43.2986 153.883 43.0159 153.792 42.8666 153.728L43.1386 152.448C43.3092 152.512 43.5812 152.608 43.9546 152.736C44.3279 152.864 44.8239 152.928 45.4426 152.928ZM57.9912 149.84C57.9912 150.501 57.8952 151.099 57.7032 151.632C57.5112 152.165 57.2392 152.624 56.8872 153.008C56.5459 153.392 56.1352 153.691 55.6552 153.904C55.1752 154.107 54.6525 154.208 54.0872 154.208C53.5219 154.208 52.9992 154.107 52.5192 153.904C52.0392 153.691 51.6232 153.392 51.2712 153.008C50.9299 152.624 50.6632 152.165 50.4712 151.632C50.2792 151.099 50.1832 150.501 50.1832 149.84C50.1832 149.189 50.2792 148.597 50.4712 148.064C50.6632 147.52 50.9299 147.056 51.2712 146.672C51.6232 146.288 52.0392 145.995 52.5192 145.792C52.9992 145.579 53.5219 145.472 54.0872 145.472C54.6525 145.472 55.1752 145.579 55.6552 145.792C56.1352 145.995 56.5459 146.288 56.8872 146.672C57.2392 147.056 57.5112 147.52 57.7032 148.064C57.8952 148.597 57.9912 149.189 57.9912 149.84ZM56.4392 149.84C56.4392 148.901 56.2259 148.16 55.7992 147.616C55.3832 147.061 54.8125 146.784 54.0872 146.784C53.3619 146.784 52.7859 147.061 52.3592 147.616C51.9432 148.16 51.7352 148.901 51.7352 149.84C51.7352 150.779 51.9432 151.525 52.3592 152.08C52.7859 152.624 53.3619 152.896 54.0872 152.896C54.8125 152.896 55.3832 152.624 55.7992 152.08C56.2259 151.525 56.4392 150.779 56.4392 149.84ZM69.1638 147.44C68.9825 147.291 68.7211 147.147 68.3798 147.008C68.0385 146.869 67.6651 146.8 67.2598 146.8C66.8331 146.8 66.4651 146.88 66.1558 147.04C65.8571 147.189 65.6118 147.403 65.4198 147.68C65.2278 147.947 65.0891 148.267 65.0038 148.64C64.9185 149.013 64.8758 149.413 64.8758 149.84C64.8758 150.811 65.1158 151.563 65.5958 152.096C66.0758 152.619 66.7158 152.88 67.5158 152.88C67.9211 152.88 68.2571 152.864 68.5238 152.832C68.8011 152.789 69.0145 152.747 69.1638 152.704V147.44ZM69.1638 141.84L70.6518 141.584V153.76C70.3105 153.856 69.8731 153.952 69.3398 154.048C68.8065 154.144 68.1931 154.192 67.4998 154.192C66.8598 154.192 66.2838 154.091 65.7718 153.888C65.2598 153.685 64.8225 153.397 64.4598 153.024C64.0971 152.651 63.8145 152.197 63.6118 151.664C63.4198 151.12 63.3238 150.512 63.3238 149.84C63.3238 149.2 63.4038 148.613 63.5638 148.08C63.7345 147.547 63.9798 147.088 64.2998 146.704C64.6198 146.32 65.0091 146.021 65.4678 145.808C65.9371 145.595 66.4705 145.488 67.0678 145.488C67.5478 145.488 67.9691 145.552 68.3318 145.68C68.7051 145.808 68.9825 145.931 69.1638 146.048V141.84ZM72.7457 149.856C72.7457 149.12 72.8524 148.48 73.0657 147.936C73.279 147.381 73.5617 146.923 73.9137 146.56C74.2657 146.197 74.671 145.925 75.1297 145.744C75.5884 145.563 76.0577 145.472 76.5377 145.472C77.6577 145.472 78.5164 145.824 79.1137 146.528C79.711 147.221 80.0097 148.283 80.0097 149.712C80.0097 149.776 80.0097 149.861 80.0097 149.968C80.0097 150.064 80.0044 150.155 79.9937 150.24H74.2977C74.3617 151.104 74.6124 151.76 75.0497 152.208C75.487 152.656 76.1697 152.88 77.0977 152.88C77.6204 152.88 78.0577 152.837 78.4097 152.752C78.7724 152.656 79.0444 152.565 79.2257 152.48L79.4337 153.728C79.2524 153.824 78.9324 153.925 78.4737 154.032C78.0257 154.139 77.5137 154.192 76.9377 154.192C76.2124 154.192 75.583 154.085 75.0497 153.872C74.527 153.648 74.095 153.344 73.7537 152.96C73.4124 152.576 73.1564 152.123 72.9857 151.6C72.8257 151.067 72.7457 150.485 72.7457 149.856ZM78.4577 149.04C78.4684 148.368 78.2977 147.819 77.9457 147.392C77.6044 146.955 77.1297 146.736 76.5217 146.736C76.1804 146.736 75.8764 146.805 75.6097 146.944C75.3537 147.072 75.135 147.243 74.9537 147.456C74.7724 147.669 74.6284 147.915 74.5217 148.192C74.4257 148.469 74.3617 148.752 74.3297 149.04H78.4577ZM85.3863 149.856C85.3863 149.12 85.493 148.48 85.7063 147.936C85.9196 147.381 86.2023 146.923 86.5543 146.56C86.9063 146.197 87.3116 145.925 87.7703 145.744C88.229 145.563 88.6983 145.472 89.1783 145.472C90.2983 145.472 91.157 145.824 91.7543 146.528C92.3516 147.221 92.6503 148.283 92.6503 149.712C92.6503 149.776 92.6503 149.861 92.6503 149.968C92.6503 150.064 92.645 150.155 92.6343 150.24H86.9383C87.0023 151.104 87.253 151.76 87.6903 152.208C88.1276 152.656 88.8103 152.88 89.7383 152.88C90.261 152.88 90.6983 152.837 91.0503 152.752C91.413 152.656 91.685 152.565 91.8663 152.48L92.0743 153.728C91.893 153.824 91.573 153.925 91.1143 154.032C90.6663 154.139 90.1543 154.192 89.5783 154.192C88.853 154.192 88.2236 154.085 87.6903 153.872C87.1676 153.648 86.7356 153.344 86.3943 152.96C86.053 152.576 85.797 152.123 85.6263 151.6C85.4663 151.067 85.3863 150.485 85.3863 149.856ZM91.0983 149.04C91.109 148.368 90.9383 147.819 90.5863 147.392C90.245 146.955 89.7703 146.736 89.1623 146.736C88.821 146.736 88.517 146.805 88.2503 146.944C87.9943 147.072 87.7756 147.243 87.5943 147.456C87.413 147.669 87.269 147.915 87.1623 148.192C87.0663 148.469 87.0023 148.752 86.9703 149.04H91.0983ZM94.7878 145.92C95.1291 145.835 95.5771 145.744 96.1318 145.648C96.6971 145.552 97.3478 145.504 98.0838 145.504C98.6171 145.504 99.0651 145.579 99.4278 145.728C99.7905 145.867 100.094 146.075 100.34 146.352C100.414 146.299 100.532 146.224 100.692 146.128C100.852 146.032 101.049 145.941 101.284 145.856C101.518 145.76 101.78 145.68 102.068 145.616C102.356 145.541 102.665 145.504 102.996 145.504C103.636 145.504 104.158 145.6 104.564 145.792C104.969 145.973 105.284 146.235 105.508 146.576C105.742 146.917 105.897 147.323 105.972 147.792C106.057 148.261 106.1 148.773 106.1 149.328V154H104.612V149.648C104.612 149.157 104.585 148.736 104.532 148.384C104.489 148.032 104.398 147.739 104.26 147.504C104.132 147.269 103.95 147.099 103.716 146.992C103.492 146.875 103.198 146.816 102.836 146.816C102.334 146.816 101.918 146.885 101.588 147.024C101.268 147.152 101.049 147.269 100.932 147.376C101.017 147.653 101.081 147.957 101.124 148.288C101.166 148.619 101.188 148.965 101.188 149.328V154H99.6998V149.648C99.6998 149.157 99.6731 148.736 99.6198 148.384C99.5665 148.032 99.4705 147.739 99.3318 147.504C99.2038 147.269 99.0225 147.099 98.7878 146.992C98.5638 146.875 98.2758 146.816 97.9238 146.816C97.7745 146.816 97.6145 146.821 97.4438 146.832C97.2731 146.843 97.1078 146.859 96.9478 146.88C96.7985 146.891 96.6598 146.907 96.5318 146.928C96.4038 146.949 96.3185 146.965 96.2758 146.976V154H94.7878V145.92ZM108.105 149.856C108.105 149.12 108.212 148.48 108.425 147.936C108.638 147.381 108.921 146.923 109.273 146.56C109.625 146.197 110.03 145.925 110.489 145.744C110.948 145.563 111.417 145.472 111.897 145.472C113.017 145.472 113.876 145.824 114.473 146.528C115.07 147.221 115.369 148.283 115.369 149.712C115.369 149.776 115.369 149.861 115.369 149.968C115.369 150.064 115.364 150.155 115.353 150.24H109.657C109.721 151.104 109.972 151.76 110.409 152.208C110.846 152.656 111.529 152.88 112.457 152.88C112.98 152.88 113.417 152.837 113.769 152.752C114.132 152.656 114.404 152.565 114.585 152.48L114.793 153.728C114.612 153.824 114.292 153.925 113.833 154.032C113.385 154.139 112.873 154.192 112.297 154.192C111.572 154.192 110.942 154.085 110.409 153.872C109.886 153.648 109.454 153.344 109.113 152.96C108.772 152.576 108.516 152.123 108.345 151.6C108.185 151.067 108.105 150.485 108.105 149.856ZM113.817 149.04C113.828 148.368 113.657 147.819 113.305 147.392C112.964 146.955 112.489 146.736 111.881 146.736C111.54 146.736 111.236 146.805 110.969 146.944C110.713 147.072 110.494 147.243 110.313 147.456C110.132 147.669 109.988 147.915 109.881 148.192C109.785 148.469 109.721 148.752 109.689 149.04H113.817ZM120.579 145.504C120.707 145.504 120.851 145.515 121.011 145.536C121.181 145.547 121.347 145.568 121.507 145.6C121.667 145.621 121.811 145.648 121.939 145.68C122.077 145.701 122.179 145.723 122.243 145.744L121.987 147.04C121.869 146.997 121.672 146.949 121.395 146.896C121.128 146.832 120.781 146.8 120.355 146.8C120.077 146.8 119.8 146.832 119.523 146.896C119.256 146.949 119.08 146.987 118.995 147.008V154H117.507V146.032C117.859 145.904 118.296 145.787 118.819 145.68C119.341 145.563 119.928 145.504 120.579 145.504ZM128.894 153.168C128.766 153.253 128.516 153.365 128.142 153.504C127.78 153.632 127.353 153.696 126.862 153.696C126.361 153.696 125.886 153.616 125.438 153.456C125.001 153.296 124.617 153.051 124.286 152.72C123.956 152.379 123.694 151.957 123.502 151.456C123.31 150.955 123.214 150.357 123.214 149.664C123.214 149.056 123.305 148.501 123.486 148C123.668 147.488 123.929 147.051 124.27 146.688C124.622 146.315 125.049 146.027 125.55 145.824C126.052 145.611 126.617 145.504 127.246 145.504C127.94 145.504 128.542 145.557 129.054 145.664C129.577 145.76 130.014 145.851 130.366 145.936V153.36C130.366 154.64 130.036 155.568 129.374 156.144C128.713 156.72 127.71 157.008 126.366 157.008C125.844 157.008 125.348 156.965 124.878 156.88C124.42 156.795 124.02 156.693 123.678 156.576L123.95 155.28C124.249 155.397 124.612 155.499 125.038 155.584C125.476 155.68 125.929 155.728 126.398 155.728C127.284 155.728 127.918 155.552 128.302 155.2C128.697 154.848 128.894 154.288 128.894 153.52V153.168ZM128.878 146.992C128.729 146.949 128.526 146.912 128.27 146.88C128.025 146.837 127.689 146.816 127.262 146.816C126.462 146.816 125.844 147.077 125.406 147.6C124.98 148.123 124.766 148.816 124.766 149.68C124.766 150.16 124.825 150.571 124.942 150.912C125.07 151.253 125.236 151.536 125.438 151.76C125.652 151.984 125.892 152.149 126.158 152.256C126.436 152.363 126.718 152.416 127.006 152.416C127.401 152.416 127.764 152.363 128.094 152.256C128.425 152.139 128.686 152.005 128.878 151.856V146.992ZM132.464 149.856C132.464 149.12 132.571 148.48 132.784 147.936C132.998 147.381 133.28 146.923 133.632 146.56C133.984 146.197 134.39 145.925 134.848 145.744C135.307 145.563 135.776 145.472 136.256 145.472C137.376 145.472 138.235 145.824 138.832 146.528C139.43 147.221 139.728 148.283 139.728 149.712C139.728 149.776 139.728 149.861 139.728 149.968C139.728 150.064 139.723 150.155 139.712 150.24H134.016C134.08 151.104 134.331 151.76 134.768 152.208C135.206 152.656 135.888 152.88 136.816 152.88C137.339 152.88 137.776 152.837 138.128 152.752C138.491 152.656 138.763 152.565 138.944 152.48L139.152 153.728C138.971 153.824 138.651 153.925 138.192 154.032C137.744 154.139 137.232 154.192 136.656 154.192C135.931 154.192 135.302 154.085 134.768 153.872C134.246 153.648 133.814 153.344 133.472 152.96C133.131 152.576 132.875 152.123 132.704 151.6C132.544 151.067 132.464 150.485 132.464 149.856ZM138.176 149.04C138.187 148.368 138.016 147.819 137.664 147.392C137.323 146.955 136.848 146.736 136.24 146.736C135.899 146.736 135.595 146.805 135.328 146.944C135.072 147.072 134.854 147.243 134.672 147.456C134.491 147.669 134.347 147.915 134.24 148.192C134.144 148.469 134.08 148.752 134.048 149.04H138.176ZM136.224 141.696L138.4 143.984L137.776 144.688L136.224 143.28L134.672 144.688L134.048 143.984L136.224 141.696ZM141.866 145.92C142.207 145.835 142.661 145.744 143.226 145.648C143.791 145.552 144.442 145.504 145.178 145.504C145.839 145.504 146.389 145.6 146.826 145.792C147.263 145.973 147.61 146.235 147.866 146.576C148.133 146.907 148.319 147.307 148.426 147.776C148.533 148.245 148.586 148.763 148.586 149.328V154H147.098V149.648C147.098 149.136 147.061 148.699 146.986 148.336C146.922 147.973 146.81 147.68 146.65 147.456C146.49 147.232 146.277 147.072 146.01 146.976C145.743 146.869 145.413 146.816 145.018 146.816C144.858 146.816 144.693 146.821 144.522 146.832C144.351 146.843 144.186 146.859 144.026 146.88C143.877 146.891 143.738 146.907 143.61 146.928C143.493 146.949 143.407 146.965 143.354 146.976V154H141.866V145.92ZM154.669 154.192C153.997 154.192 153.405 154.085 152.893 153.872C152.392 153.659 151.965 153.36 151.613 152.976C151.272 152.592 151.016 152.139 150.845 151.616C150.675 151.083 150.589 150.496 150.589 149.856C150.589 149.216 150.68 148.629 150.861 148.096C151.053 147.563 151.32 147.104 151.661 146.72C152.003 146.325 152.419 146.021 152.909 145.808C153.411 145.584 153.965 145.472 154.573 145.472C154.947 145.472 155.32 145.504 155.693 145.568C156.067 145.632 156.424 145.733 156.765 145.872L156.429 147.136C156.205 147.029 155.944 146.944 155.645 146.88C155.357 146.816 155.048 146.784 154.717 146.784C153.885 146.784 153.245 147.045 152.797 147.568C152.36 148.091 152.141 148.853 152.141 149.856C152.141 150.304 152.189 150.715 152.285 151.088C152.392 151.461 152.552 151.781 152.765 152.048C152.989 152.315 153.272 152.523 153.613 152.672C153.955 152.811 154.371 152.88 154.861 152.88C155.256 152.88 155.613 152.843 155.933 152.768C156.253 152.693 156.504 152.613 156.685 152.528L156.893 153.776C156.808 153.829 156.685 153.883 156.525 153.936C156.365 153.979 156.184 154.016 155.981 154.048C155.779 154.091 155.56 154.123 155.325 154.144C155.101 154.176 154.883 154.192 154.669 154.192ZM159.979 154H158.491V145.68H159.979V154ZM159.227 144.176C158.96 144.176 158.731 144.091 158.539 143.92C158.358 143.739 158.267 143.499 158.267 143.2C158.267 142.901 158.358 142.667 158.539 142.496C158.731 142.315 158.96 142.224 159.227 142.224C159.494 142.224 159.718 142.315 159.899 142.496C160.091 142.667 160.187 142.901 160.187 143.2C160.187 143.499 160.091 143.739 159.899 143.92C159.718 144.091 159.494 144.176 159.227 144.176ZM165.354 152.928C165.706 152.928 166.015 152.923 166.282 152.912C166.559 152.891 166.788 152.859 166.97 152.816V150.336C166.863 150.283 166.687 150.24 166.442 150.208C166.207 150.165 165.919 150.144 165.578 150.144C165.354 150.144 165.114 150.16 164.858 150.192C164.612 150.224 164.383 150.293 164.17 150.4C163.967 150.496 163.796 150.635 163.658 150.816C163.519 150.987 163.45 151.216 163.45 151.504C163.45 152.037 163.62 152.411 163.962 152.624C164.303 152.827 164.767 152.928 165.354 152.928ZM165.226 145.472C165.823 145.472 166.324 145.552 166.73 145.712C167.146 145.861 167.476 146.08 167.722 146.368C167.978 146.645 168.159 146.981 168.266 147.376C168.372 147.76 168.426 148.187 168.426 148.656V153.856C168.298 153.877 168.116 153.909 167.882 153.952C167.658 153.984 167.402 154.016 167.114 154.048C166.826 154.08 166.511 154.107 166.17 154.128C165.839 154.16 165.508 154.176 165.178 154.176C164.708 154.176 164.276 154.128 163.882 154.032C163.487 153.936 163.146 153.787 162.858 153.584C162.57 153.371 162.346 153.093 162.186 152.752C162.026 152.411 161.946 152 161.946 151.52C161.946 151.061 162.036 150.667 162.218 150.336C162.41 150.005 162.666 149.739 162.986 149.536C163.306 149.333 163.679 149.184 164.106 149.088C164.532 148.992 164.98 148.944 165.45 148.944C165.599 148.944 165.754 148.955 165.914 148.976C166.074 148.987 166.223 149.008 166.362 149.04C166.511 149.061 166.639 149.083 166.746 149.104C166.852 149.125 166.927 149.141 166.97 149.152V148.736C166.97 148.491 166.943 148.251 166.89 148.016C166.836 147.771 166.74 147.557 166.602 147.376C166.463 147.184 166.271 147.035 166.026 146.928C165.791 146.811 165.482 146.752 165.098 146.752C164.607 146.752 164.175 146.789 163.802 146.864C163.439 146.928 163.167 146.997 162.986 147.072L162.81 145.84C163.002 145.755 163.322 145.675 163.77 145.6C164.218 145.515 164.703 145.472 165.226 145.472ZM173.865 143.04C173.865 143.488 173.822 143.92 173.737 144.336C173.662 144.741 173.582 145.163 173.497 145.6C173.881 145.387 174.259 145.179 174.633 144.976C175.006 144.773 175.411 144.597 175.849 144.448L175.945 144.416L176.393 145.76L176.265 145.808C175.838 145.968 175.411 146.075 174.985 146.128C174.558 146.171 174.121 146.208 173.673 146.24C174.025 146.539 174.355 146.832 174.665 147.12C174.974 147.397 175.262 147.723 175.529 148.096L175.609 148.208L174.441 149.024L174.377 148.928C174.121 148.544 173.897 148.165 173.705 147.792C173.523 147.408 173.337 147.013 173.145 146.608C172.953 147.013 172.761 147.408 172.569 147.792C172.387 148.165 172.169 148.544 171.913 148.928L171.849 149.024L170.681 148.208L170.761 148.096C171.027 147.723 171.315 147.397 171.625 147.12C171.934 146.832 172.265 146.539 172.617 146.24C172.169 146.208 171.731 146.171 171.305 146.128C170.878 146.075 170.451 145.968 170.025 145.808L169.897 145.76L170.345 144.416L170.441 144.448C170.878 144.597 171.283 144.773 171.657 144.976C172.03 145.179 172.409 145.387 172.793 145.6C172.707 145.163 172.622 144.741 172.537 144.336C172.462 143.92 172.425 143.488 172.425 143.04V142.912H173.865V143.04Z" fill="#2F2F2F"/>
<path d="M45.1423 171.41C45.1423 171.802 45.105 172.18 45.0303 172.544C44.965 172.899 44.895 173.267 44.8203 173.65C45.1563 173.463 45.4877 173.281 45.8143 173.104C46.141 172.927 46.4957 172.773 46.8783 172.642L46.9623 172.614L47.3543 173.79L47.2423 173.832C46.869 173.972 46.4957 174.065 46.1223 174.112C45.749 174.149 45.3663 174.182 44.9743 174.21C45.2823 174.471 45.5717 174.728 45.8423 174.98C46.113 175.223 46.365 175.507 46.5983 175.834L46.6683 175.932L45.6463 176.646L45.5903 176.562C45.3663 176.226 45.1703 175.895 45.0023 175.568C44.8437 175.232 44.6803 174.887 44.5123 174.532C44.3443 174.887 44.1763 175.232 44.0083 175.568C43.8497 175.895 43.6583 176.226 43.4343 176.562L43.3783 176.646L42.3563 175.932L42.4263 175.834C42.6597 175.507 42.9117 175.223 43.1823 174.98C43.453 174.728 43.7423 174.471 44.0503 174.21C43.6583 174.182 43.2757 174.149 42.9023 174.112C42.529 174.065 42.1557 173.972 41.7823 173.832L41.6703 173.79L42.0623 172.614L42.1463 172.642C42.529 172.773 42.8837 172.927 43.2103 173.104C43.537 173.281 43.8683 173.463 44.2043 173.65C44.1297 173.267 44.055 172.899 43.9803 172.544C43.915 172.18 43.8823 171.802 43.8823 171.41V171.298H45.1423V171.41ZM51.6589 171.2C53.0216 171.2 54.0669 171.461 54.7949 171.984C55.5322 172.497 55.9009 173.267 55.9009 174.294C55.9009 174.854 55.7982 175.335 55.5929 175.736C55.3969 176.128 55.1076 176.45 54.7249 176.702C54.3516 176.945 53.8942 177.122 53.3529 177.234C52.8116 177.346 52.2002 177.402 51.5189 177.402H50.4409V181H49.0829V171.438C49.4656 171.345 49.8902 171.284 50.3569 171.256C50.8329 171.219 51.2669 171.2 51.6589 171.2ZM51.7709 172.39C51.1922 172.39 50.7489 172.404 50.4409 172.432V176.24H51.4629C51.9296 176.24 52.3496 176.212 52.7229 176.156C53.0962 176.091 53.4089 175.988 53.6609 175.848C53.9222 175.699 54.1229 175.498 54.2629 175.246C54.4029 174.994 54.4729 174.672 54.4729 174.28C54.4729 173.907 54.3982 173.599 54.2489 173.356C54.1089 173.113 53.9129 172.922 53.6609 172.782C53.4182 172.633 53.1336 172.53 52.8069 172.474C52.4802 172.418 52.1349 172.39 51.7709 172.39ZM59.7005 181.14C58.8978 181.121 58.3285 180.949 57.9925 180.622C57.6565 180.295 57.4885 179.787 57.4885 179.096V170.36L58.7905 170.136V178.886C58.7905 179.101 58.8092 179.278 58.8465 179.418C58.8838 179.558 58.9445 179.67 59.0285 179.754C59.1125 179.838 59.2245 179.903 59.3645 179.95C59.5045 179.987 59.6772 180.02 59.8825 180.048L59.7005 181.14ZM63.8086 180.062C64.1166 180.062 64.3873 180.057 64.6206 180.048C64.8633 180.029 65.0639 180.001 65.2226 179.964V177.794C65.1293 177.747 64.9753 177.71 64.7606 177.682C64.5553 177.645 64.3033 177.626 64.0046 177.626C63.8086 177.626 63.5986 177.64 63.3746 177.668C63.1599 177.696 62.9593 177.757 62.7726 177.85C62.5953 177.934 62.4459 178.055 62.3246 178.214C62.2033 178.363 62.1426 178.564 62.1426 178.816C62.1426 179.283 62.2919 179.609 62.5906 179.796C62.8893 179.973 63.2953 180.062 63.8086 180.062ZM63.6966 173.538C64.2193 173.538 64.6579 173.608 65.0126 173.748C65.3766 173.879 65.6659 174.07 65.8806 174.322C66.1046 174.565 66.2633 174.859 66.3566 175.204C66.4499 175.54 66.4966 175.913 66.4966 176.324V180.874C66.3846 180.893 66.2259 180.921 66.0206 180.958C65.8246 180.986 65.6006 181.014 65.3486 181.042C65.0966 181.07 64.8213 181.093 64.5226 181.112C64.2333 181.14 63.9439 181.154 63.6546 181.154C63.2439 181.154 62.8659 181.112 62.5206 181.028C62.1753 180.944 61.8766 180.813 61.6246 180.636C61.3726 180.449 61.1766 180.207 61.0366 179.908C60.8966 179.609 60.8266 179.25 60.8266 178.83C60.8266 178.429 60.9059 178.083 61.0646 177.794C61.2326 177.505 61.4566 177.271 61.7366 177.094C62.0166 176.917 62.3433 176.786 62.7166 176.702C63.0899 176.618 63.4819 176.576 63.8926 176.576C64.0233 176.576 64.1586 176.585 64.2986 176.604C64.4386 176.613 64.5693 176.632 64.6906 176.66C64.8213 176.679 64.9333 176.697 65.0266 176.716C65.1199 176.735 65.1853 176.749 65.2226 176.758V176.394C65.2226 176.179 65.1993 175.969 65.1526 175.764C65.1059 175.549 65.0219 175.363 64.9006 175.204C64.7793 175.036 64.6113 174.905 64.3966 174.812C64.1913 174.709 63.9206 174.658 63.5846 174.658C63.1553 174.658 62.7773 174.691 62.4506 174.756C62.1333 174.812 61.8953 174.873 61.7366 174.938L61.5826 173.86C61.7506 173.785 62.0306 173.715 62.4226 173.65C62.8146 173.575 63.2393 173.538 63.6966 173.538ZM68.6591 173.93C68.9577 173.855 69.3544 173.776 69.8491 173.692C70.3437 173.608 70.9131 173.566 71.5571 173.566C72.1357 173.566 72.6164 173.65 72.9991 173.818C73.3817 173.977 73.6851 174.205 73.9091 174.504C74.1424 174.793 74.3057 175.143 74.3991 175.554C74.4924 175.965 74.5391 176.417 74.5391 176.912V181H73.2371V177.192C73.2371 176.744 73.2044 176.361 73.1391 176.044C73.0831 175.727 72.9851 175.47 72.8451 175.274C72.7051 175.078 72.5184 174.938 72.2851 174.854C72.0517 174.761 71.7624 174.714 71.4171 174.714C71.2771 174.714 71.1324 174.719 70.9831 174.728C70.8337 174.737 70.6891 174.751 70.5491 174.77C70.4184 174.779 70.2971 174.793 70.1851 174.812C70.0824 174.831 70.0077 174.845 69.9611 174.854V181H68.6591V173.93ZM83.1241 177.36C83.1241 177.939 83.0401 178.461 82.8721 178.928C82.7041 179.395 82.4661 179.796 82.1581 180.132C81.8595 180.468 81.5001 180.729 81.0801 180.916C80.6601 181.093 80.2028 181.182 79.7081 181.182C79.2135 181.182 78.7561 181.093 78.3361 180.916C77.9161 180.729 77.5521 180.468 77.2441 180.132C76.9455 179.796 76.7121 179.395 76.5441 178.928C76.3761 178.461 76.2921 177.939 76.2921 177.36C76.2921 176.791 76.3761 176.273 76.5441 175.806C76.7121 175.33 76.9455 174.924 77.2441 174.588C77.5521 174.252 77.9161 173.995 78.3361 173.818C78.7561 173.631 79.2135 173.538 79.7081 173.538C80.2028 173.538 80.6601 173.631 81.0801 173.818C81.5001 173.995 81.8595 174.252 82.1581 174.588C82.4661 174.924 82.7041 175.33 82.8721 175.806C83.0401 176.273 83.1241 176.791 83.1241 177.36ZM81.7661 177.36C81.7661 176.539 81.5795 175.89 81.2061 175.414C80.8421 174.929 80.3428 174.686 79.7081 174.686C79.0735 174.686 78.5695 174.929 78.1961 175.414C77.8321 175.89 77.6501 176.539 77.6501 177.36C77.6501 178.181 77.8321 178.835 78.1961 179.32C78.5695 179.796 79.0735 180.034 79.7081 180.034C80.3428 180.034 80.8421 179.796 81.2061 179.32C81.5795 178.835 81.7661 178.181 81.7661 177.36ZM90.5342 180.034C91.9528 180.034 92.6622 179.549 92.6622 178.578C92.6622 178.279 92.5968 178.027 92.4662 177.822C92.3448 177.607 92.1768 177.425 91.9622 177.276C91.7475 177.117 91.5002 176.982 91.2202 176.87C90.9495 176.758 90.6602 176.646 90.3522 176.534C89.9975 176.413 89.6615 176.277 89.3442 176.128C89.0268 175.969 88.7515 175.787 88.5182 175.582C88.2848 175.367 88.0982 175.115 87.9582 174.826C87.8275 174.537 87.7622 174.187 87.7622 173.776C87.7622 172.927 88.0515 172.264 88.6302 171.788C89.2088 171.312 90.0068 171.074 91.0242 171.074C91.6122 171.074 92.1442 171.139 92.6202 171.27C93.1055 171.391 93.4602 171.527 93.6842 171.676L93.2502 172.782C93.0542 172.661 92.7602 172.544 92.3682 172.432C91.9855 172.311 91.5375 172.25 91.0242 172.25C90.7628 172.25 90.5202 172.278 90.2962 172.334C90.0722 172.39 89.8762 172.474 89.7082 172.586C89.5402 172.698 89.4048 172.843 89.3022 173.02C89.2088 173.188 89.1622 173.389 89.1622 173.622C89.1622 173.883 89.2135 174.103 89.3162 174.28C89.4188 174.457 89.5635 174.616 89.7502 174.756C89.9368 174.887 90.1515 175.008 90.3942 175.12C90.6462 175.232 90.9215 175.344 91.2202 175.456C91.6402 175.624 92.0228 175.792 92.3682 175.96C92.7228 176.128 93.0262 176.329 93.2782 176.562C93.5395 176.795 93.7402 177.075 93.8802 177.402C94.0202 177.719 94.0902 178.107 94.0902 178.564C94.0902 179.413 93.7775 180.067 93.1522 180.524C92.5362 180.981 91.6635 181.21 90.5342 181.21C90.1515 181.21 89.7968 181.182 89.4702 181.126C89.1528 181.079 88.8682 181.023 88.6162 180.958C88.3642 180.883 88.1448 180.809 87.9582 180.734C87.7808 180.65 87.6408 180.58 87.5382 180.524L87.9442 179.404C88.1588 179.525 88.4855 179.661 88.9242 179.81C89.3628 179.959 89.8995 180.034 90.5342 180.034ZM98.1113 180.062C98.4193 180.062 98.69 180.057 98.9233 180.048C99.166 180.029 99.3667 180.001 99.5253 179.964V177.794C99.432 177.747 99.278 177.71 99.0633 177.682C98.858 177.645 98.606 177.626 98.3073 177.626C98.1113 177.626 97.9013 177.64 97.6773 177.668C97.4627 177.696 97.262 177.757 97.0753 177.85C96.898 177.934 96.7487 178.055 96.6273 178.214C96.506 178.363 96.4453 178.564 96.4453 178.816C96.4453 179.283 96.5947 179.609 96.8933 179.796C97.192 179.973 97.598 180.062 98.1113 180.062ZM97.9993 173.538C98.522 173.538 98.9607 173.608 99.3153 173.748C99.6793 173.879 99.9687 174.07 100.183 174.322C100.407 174.565 100.566 174.859 100.659 175.204C100.753 175.54 100.799 175.913 100.799 176.324V180.874C100.687 180.893 100.529 180.921 100.323 180.958C100.127 180.986 99.9033 181.014 99.6513 181.042C99.3993 181.07 99.124 181.093 98.8253 181.112C98.536 181.14 98.2467 181.154 97.9573 181.154C97.5467 181.154 97.1687 181.112 96.8233 181.028C96.478 180.944 96.1793 180.813 95.9273 180.636C95.6753 180.449 95.4793 180.207 95.3393 179.908C95.1993 179.609 95.1293 179.25 95.1293 178.83C95.1293 178.429 95.2087 178.083 95.3673 177.794C95.5353 177.505 95.7593 177.271 96.0393 177.094C96.3193 176.917 96.646 176.786 97.0193 176.702C97.3927 176.618 97.7847 176.576 98.1953 176.576C98.326 176.576 98.4613 176.585 98.6013 176.604C98.7413 176.613 98.872 176.632 98.9933 176.66C99.124 176.679 99.236 176.697 99.3293 176.716C99.4227 176.735 99.488 176.749 99.5253 176.758V176.394C99.5253 176.179 99.502 175.969 99.4553 175.764C99.4087 175.549 99.3247 175.363 99.2033 175.204C99.082 175.036 98.914 174.905 98.6993 174.812C98.494 174.709 98.2233 174.658 97.8873 174.658C97.458 174.658 97.08 174.691 96.7533 174.756C96.436 174.812 96.198 174.873 96.0393 174.938L95.8853 173.86C96.0533 173.785 96.3333 173.715 96.7253 173.65C97.1173 173.575 97.542 173.538 97.9993 173.538ZM108.758 180.79C108.459 180.865 108.062 180.944 107.568 181.028C107.082 181.112 106.518 181.154 105.874 181.154C105.314 181.154 104.842 181.075 104.46 180.916C104.077 180.748 103.769 180.515 103.536 180.216C103.302 179.917 103.134 179.567 103.032 179.166C102.929 178.755 102.878 178.303 102.878 177.808V173.72H104.18V177.528C104.18 178.415 104.32 179.049 104.6 179.432C104.88 179.815 105.351 180.006 106.014 180.006C106.154 180.006 106.298 180.001 106.448 179.992C106.597 179.983 106.737 179.973 106.868 179.964C106.998 179.945 107.115 179.931 107.218 179.922C107.33 179.903 107.409 179.885 107.456 179.866V173.72H108.758V180.79ZM107.512 170.962L105.538 172.88L104.88 172.292L106.672 170.136L107.512 170.962ZM115.705 175.26C115.546 175.129 115.318 175.003 115.019 174.882C114.72 174.761 114.394 174.7 114.039 174.7C113.666 174.7 113.344 174.77 113.073 174.91C112.812 175.041 112.597 175.227 112.429 175.47C112.261 175.703 112.14 175.983 112.065 176.31C111.99 176.637 111.953 176.987 111.953 177.36C111.953 178.209 112.163 178.867 112.583 179.334C113.003 179.791 113.563 180.02 114.263 180.02C114.618 180.02 114.912 180.006 115.145 179.978C115.388 179.941 115.574 179.903 115.705 179.866V175.26ZM115.705 170.36L117.007 170.136V180.79C116.708 180.874 116.326 180.958 115.859 181.042C115.392 181.126 114.856 181.168 114.249 181.168C113.689 181.168 113.185 181.079 112.737 180.902C112.289 180.725 111.906 180.473 111.589 180.146C111.272 179.819 111.024 179.423 110.847 178.956C110.679 178.48 110.595 177.948 110.595 177.36C110.595 176.8 110.665 176.287 110.805 175.82C110.954 175.353 111.169 174.952 111.449 174.616C111.729 174.28 112.07 174.019 112.471 173.832C112.882 173.645 113.348 173.552 113.871 173.552C114.291 173.552 114.66 173.608 114.977 173.72C115.304 173.832 115.546 173.939 115.705 174.042V170.36ZM118.839 177.374C118.839 176.73 118.932 176.17 119.119 175.694C119.306 175.209 119.553 174.807 119.861 174.49C120.169 174.173 120.524 173.935 120.925 173.776C121.326 173.617 121.737 173.538 122.157 173.538C123.137 173.538 123.888 173.846 124.411 174.462C124.934 175.069 125.195 175.997 125.195 177.248C125.195 177.304 125.195 177.379 125.195 177.472C125.195 177.556 125.19 177.635 125.181 177.71H120.197C120.253 178.466 120.472 179.04 120.855 179.432C121.238 179.824 121.835 180.02 122.647 180.02C123.104 180.02 123.487 179.983 123.795 179.908C124.112 179.824 124.35 179.745 124.509 179.67L124.691 180.762C124.532 180.846 124.252 180.935 123.851 181.028C123.459 181.121 123.011 181.168 122.507 181.168C121.872 181.168 121.322 181.075 120.855 180.888C120.398 180.692 120.02 180.426 119.721 180.09C119.422 179.754 119.198 179.357 119.049 178.9C118.909 178.433 118.839 177.925 118.839 177.374ZM123.837 176.66C123.846 176.072 123.697 175.591 123.389 175.218C123.09 174.835 122.675 174.644 122.143 174.644C121.844 174.644 121.578 174.705 121.345 174.826C121.121 174.938 120.93 175.087 120.771 175.274C120.612 175.461 120.486 175.675 120.393 175.918C120.309 176.161 120.253 176.408 120.225 176.66H123.837ZM126.687 176.254H129.333V173.37H130.453V176.254H133.099V177.36H130.453V180.258H129.333V177.36H126.687V176.254Z" fill="#8A99A8"/>
</svg>
