<svg width="130" height="189" viewBox="0 0 130 189" fill="none" xmlns="http://www.w3.org/2000/svg">
<circle cx="65.325" cy="44.3259" r="40.4148" fill="#BADBFE"/>
<path d="M83.0469 5.08372V0H46.9531V5.08372H30.625V88H99.375V5.08372H83.0469ZM52.1094 5.15625H77.8906V10.24H52.1094V5.15625ZM94.2188 82.8438H35.7812V10.24H46.9531V15.3962H83.0469V10.24H94.2188V82.8438Z" fill="#00309E"/>
<path d="M56.4062 21.4119H40.9375V36.8806H56.4062V21.4119ZM51.25 31.7244H46.0938V26.5681H51.25V31.7244Z" fill="#00309E"/>
<path d="M64.9785 26.5681H89.0625V31.7244H64.9785V26.5681Z" fill="#00309E"/>
<path d="M56.4062 42.7244H40.9375V58.1931H56.4062V42.7244ZM51.25 53.0369H46.0938V47.8806H51.25V53.0369Z" fill="#00309E"/>
<path d="M64.9785 47.8806H89.0625V53.0369H64.9785V47.8806Z" fill="#00309E"/>
<path d="M64.9785 68.8494H89.0625V74.0056H64.9785V68.8494Z" fill="#00309E"/>
<path d="M46.61 71.3909L43.2767 68.0577L39.6309 71.7037L46.61 78.6829L57.8861 67.4069L54.2402 63.7609L46.61 71.3909Z" fill="#00309E"/>
<path d="M6.65631 136.224C4.85365 136.224 3.47765 135.723 2.52831 134.72C1.58965 133.717 1.12031 132.293 1.12031 130.448C1.12031 129.531 1.26431 128.715 1.55231 128C1.84031 127.275 2.23498 126.667 2.73631 126.176C3.23765 125.675 3.83498 125.296 4.52831 125.04C5.22165 124.784 5.97365 124.656 6.78431 124.656C7.25365 124.656 7.68031 124.693 8.06431 124.768C8.44831 124.832 8.78431 124.912 9.07231 125.008C9.36031 125.093 9.60031 125.184 9.79231 125.28C9.98431 125.376 10.123 125.451 10.2083 125.504L9.48831 127.52C9.14698 127.339 8.74698 127.184 8.28831 127.056C7.84031 126.928 7.32831 126.864 6.75231 126.864C6.36831 126.864 5.98965 126.928 5.61631 127.056C5.25365 127.184 4.92831 127.392 4.64031 127.68C4.36298 127.957 4.13898 128.32 3.96831 128.768C3.79765 129.216 3.71231 129.76 3.71231 130.4C3.71231 130.912 3.76565 131.392 3.87231 131.84C3.98965 132.277 4.17098 132.656 4.41631 132.976C4.67231 133.296 5.00298 133.552 5.40831 133.744C5.81365 133.925 6.30431 134.016 6.88031 134.016C7.24298 134.016 7.56831 133.995 7.85631 133.952C8.14431 133.909 8.40031 133.861 8.62431 133.808C8.84831 133.744 9.04565 133.675 9.21631 133.6C9.38698 133.525 9.54165 133.456 9.68031 133.392L10.3683 135.392C10.0163 135.605 9.52031 135.797 8.88031 135.968C8.24031 136.139 7.49898 136.224 6.65631 136.224ZM11.8153 136V123.968L14.1993 123.584V127.616C14.3593 127.563 14.562 127.515 14.8073 127.472C15.0633 127.419 15.3086 127.392 15.5433 127.392C16.226 127.392 16.7913 127.488 17.2393 127.68C17.698 127.861 18.0606 128.123 18.3273 128.464C18.6046 128.805 18.7966 129.211 18.9033 129.68C19.0206 130.149 19.0793 130.672 19.0793 131.248V136H16.6953V131.536C16.6953 130.768 16.594 130.224 16.3913 129.904C16.1993 129.584 15.8366 129.424 15.3033 129.424C15.09 129.424 14.8873 129.445 14.6953 129.488C14.514 129.52 14.3486 129.557 14.1993 129.6V136H11.8153ZM20.8372 131.856C20.8372 131.109 20.9492 130.459 21.1732 129.904C21.4079 129.339 21.7119 128.869 22.0852 128.496C22.4585 128.123 22.8852 127.84 23.3652 127.648C23.8559 127.456 24.3572 127.36 24.8692 127.36C26.0639 127.36 27.0079 127.728 27.7012 128.464C28.3945 129.189 28.7412 130.261 28.7412 131.68C28.7412 131.819 28.7359 131.973 28.7252 132.144C28.7145 132.304 28.7039 132.448 28.6932 132.576H23.2852C23.3385 133.067 23.5679 133.456 23.9732 133.744C24.3785 134.032 24.9225 134.176 25.6052 134.176C26.0425 134.176 26.4692 134.139 26.8852 134.064C27.3119 133.979 27.6585 133.877 27.9252 133.76L28.2452 135.696C28.1172 135.76 27.9465 135.824 27.7332 135.888C27.5199 135.952 27.2799 136.005 27.0132 136.048C26.7572 136.101 26.4799 136.144 26.1812 136.176C25.8825 136.208 25.5839 136.224 25.2852 136.224C24.5279 136.224 23.8665 136.112 23.3012 135.888C22.7465 135.664 22.2825 135.36 21.9092 134.976C21.5465 134.581 21.2745 134.117 21.0932 133.584C20.9225 133.051 20.8372 132.475 20.8372 131.856ZM26.4372 130.944C26.4265 130.741 26.3892 130.544 26.3252 130.352C26.2719 130.16 26.1812 129.989 26.0532 129.84C25.9359 129.691 25.7812 129.568 25.5892 129.472C25.4079 129.376 25.1785 129.328 24.9012 129.328C24.6345 129.328 24.4052 129.376 24.2132 129.472C24.0212 129.557 23.8612 129.675 23.7332 129.824C23.6052 129.973 23.5039 130.149 23.4292 130.352C23.3652 130.544 23.3172 130.741 23.2852 130.944H26.4372ZM30.1809 131.792C30.1809 131.184 30.2769 130.613 30.4689 130.08C30.6716 129.536 30.9596 129.067 31.3329 128.672C31.7063 128.267 32.1596 127.947 32.6929 127.712C33.2263 127.477 33.8343 127.36 34.5169 127.36C34.9649 127.36 35.3756 127.403 35.7489 127.488C36.1223 127.563 36.4849 127.675 36.8369 127.824L36.3409 129.728C36.1169 129.643 35.8716 129.568 35.6049 129.504C35.3383 129.44 35.0396 129.408 34.7089 129.408C34.0049 129.408 33.4769 129.627 33.1249 130.064C32.7836 130.501 32.6129 131.077 32.6129 131.792C32.6129 132.549 32.7729 133.136 33.0929 133.552C33.4236 133.968 33.9943 134.176 34.8049 134.176C35.0929 134.176 35.4023 134.149 35.7329 134.096C36.0636 134.043 36.3676 133.957 36.6449 133.84L36.9809 135.792C36.7036 135.909 36.3569 136.011 35.9409 136.096C35.5249 136.181 35.0663 136.224 34.5649 136.224C33.7969 136.224 33.1356 136.112 32.5809 135.888C32.0263 135.653 31.5676 135.339 31.2049 134.944C30.8529 134.549 30.5916 134.085 30.4209 133.552C30.2609 133.008 30.1809 132.421 30.1809 131.792ZM40.9649 130.624C41.1996 130.368 41.4396 130.101 41.6849 129.824C41.9409 129.547 42.1863 129.275 42.4209 129.008C42.6556 128.731 42.8743 128.469 43.0769 128.224C43.2903 127.979 43.4716 127.765 43.6209 127.584H46.4529C45.8876 128.235 45.3329 128.859 44.7889 129.456C44.2556 130.043 43.6689 130.651 43.0289 131.28C43.3489 131.568 43.6796 131.915 44.0209 132.32C44.3623 132.715 44.6929 133.125 45.0129 133.552C45.3329 133.979 45.6263 134.405 45.8929 134.832C46.1596 135.259 46.3836 135.648 46.5649 136H43.8289C43.6583 135.723 43.4609 135.419 43.2369 135.088C43.0236 134.747 42.7943 134.411 42.5489 134.08C42.3036 133.739 42.0423 133.413 41.7649 133.104C41.4983 132.795 41.2316 132.533 40.9649 132.32V136H38.5809V123.968L40.9649 123.584V130.624ZM46.4234 130.144H51.0634V132.304H46.4234V130.144ZM59.7649 135.712C59.3596 135.829 58.8369 135.936 58.1969 136.032C57.5569 136.139 56.8849 136.192 56.1809 136.192C55.4663 136.192 54.8689 136.096 54.3889 135.904C53.9196 135.712 53.5463 135.445 53.2689 135.104C52.9916 134.752 52.7943 134.336 52.6769 133.856C52.5596 133.376 52.5009 132.848 52.5009 132.272V127.584H54.8849V131.984C54.8849 132.752 54.9863 133.307 55.1889 133.648C55.3916 133.989 55.7703 134.16 56.3249 134.16C56.4956 134.16 56.6769 134.155 56.8689 134.144C57.0609 134.123 57.2316 134.101 57.3809 134.08V127.584H59.7649V135.712ZM67.3948 131.856C67.3948 131.12 67.2295 130.533 66.8988 130.096C66.5681 129.648 66.0775 129.424 65.4268 129.424C65.2135 129.424 65.0161 129.435 64.8348 129.456C64.6535 129.467 64.5041 129.483 64.3868 129.504V133.808C64.5361 133.904 64.7281 133.984 64.9628 134.048C65.2081 134.112 65.4535 134.144 65.6988 134.144C66.8295 134.144 67.3948 133.381 67.3948 131.856ZM69.8268 131.792C69.8268 132.443 69.7468 133.035 69.5868 133.568C69.4268 134.101 69.1921 134.56 68.8828 134.944C68.5735 135.328 68.1895 135.627 67.7308 135.84C67.2721 136.053 66.7441 136.16 66.1468 136.16C65.8161 136.16 65.5068 136.128 65.2188 136.064C64.9308 136 64.6535 135.909 64.3868 135.792V138.96H62.0028V127.872C62.2161 127.808 62.4615 127.749 62.7388 127.696C63.0161 127.632 63.3041 127.579 63.6028 127.536C63.9121 127.493 64.2215 127.461 64.5308 127.44C64.8508 127.408 65.1548 127.392 65.4428 127.392C66.1361 127.392 66.7548 127.499 67.2988 127.712C67.8428 127.915 68.3015 128.208 68.6748 128.592C69.0481 128.965 69.3308 129.424 69.5228 129.968C69.7255 130.512 69.8268 131.12 69.8268 131.792ZM78.6068 124.912C78.7988 125.264 79.0175 125.701 79.2628 126.224C79.5188 126.736 79.7801 127.296 80.0468 127.904C80.3241 128.501 80.5961 129.115 80.8628 129.744C81.1295 130.373 81.3801 130.965 81.6148 131.52C81.8495 130.965 82.1001 130.373 82.3668 129.744C82.6335 129.115 82.9001 128.501 83.1668 127.904C83.4441 127.296 83.7055 126.736 83.9508 126.224C84.2068 125.701 84.4308 125.264 84.6228 124.912H86.8948C87.0015 125.648 87.0975 126.475 87.1828 127.392C87.2788 128.299 87.3588 129.248 87.4228 130.24C87.4975 131.221 87.5615 132.208 87.6148 133.2C87.6788 134.192 87.7321 135.125 87.7748 136H85.3428C85.3108 134.923 85.2681 133.749 85.2148 132.48C85.1615 131.211 85.0815 129.931 84.9748 128.64C84.7828 129.088 84.5695 129.584 84.3348 130.128C84.1001 130.672 83.8655 131.216 83.6308 131.76C83.4068 132.304 83.1881 132.827 82.9748 133.328C82.7615 133.819 82.5801 134.24 82.4308 134.592H80.6868C80.5375 134.24 80.3561 133.819 80.1428 133.328C79.9295 132.827 79.7055 132.304 79.4708 131.76C79.2468 131.216 79.0175 130.672 78.7828 130.128C78.5481 129.584 78.3348 129.088 78.1428 128.64C78.0361 129.931 77.9561 131.211 77.9028 132.48C77.8495 133.749 77.8068 134.923 77.7748 136H75.3428C75.3855 135.125 75.4335 134.192 75.4868 133.2C75.5508 132.208 75.6148 131.221 75.6788 130.24C75.7535 129.248 75.8335 128.299 75.9188 127.392C76.0148 126.475 76.1161 125.648 76.2228 124.912H78.6068ZM89.4622 131.856C89.4622 131.109 89.5742 130.459 89.7982 129.904C90.0329 129.339 90.3369 128.869 90.7102 128.496C91.0835 128.123 91.5102 127.84 91.9902 127.648C92.4809 127.456 92.9822 127.36 93.4942 127.36C94.6889 127.36 95.6329 127.728 96.3262 128.464C97.0195 129.189 97.3662 130.261 97.3662 131.68C97.3662 131.819 97.3609 131.973 97.3502 132.144C97.3395 132.304 97.3289 132.448 97.3182 132.576H91.9102C91.9635 133.067 92.1929 133.456 92.5982 133.744C93.0035 134.032 93.5475 134.176 94.2302 134.176C94.6675 134.176 95.0942 134.139 95.5102 134.064C95.9369 133.979 96.2835 133.877 96.5502 133.76L96.8702 135.696C96.7422 135.76 96.5715 135.824 96.3582 135.888C96.1449 135.952 95.9049 136.005 95.6382 136.048C95.3822 136.101 95.1049 136.144 94.8062 136.176C94.5075 136.208 94.2089 136.224 93.9102 136.224C93.1529 136.224 92.4915 136.112 91.9262 135.888C91.3715 135.664 90.9075 135.36 90.5342 134.976C90.1715 134.581 89.8995 134.117 89.7182 133.584C89.5475 133.051 89.4622 132.475 89.4622 131.856ZM95.0622 130.944C95.0515 130.741 95.0142 130.544 94.9502 130.352C94.8969 130.16 94.8062 129.989 94.6782 129.84C94.5609 129.691 94.4062 129.568 94.2142 129.472C94.0329 129.376 93.8035 129.328 93.5262 129.328C93.2595 129.328 93.0302 129.376 92.8382 129.472C92.6462 129.557 92.4862 129.675 92.3582 129.824C92.2302 129.973 92.1289 130.149 92.0542 130.352C91.9902 130.544 91.9422 130.741 91.9102 130.944H95.0622ZM95.4302 124.56L92.7902 126.784L91.7022 125.808L93.9742 123.216L95.4302 124.56ZM101.238 131.728C101.238 132.464 101.403 133.056 101.734 133.504C102.065 133.952 102.555 134.176 103.206 134.176C103.419 134.176 103.617 134.171 103.798 134.16C103.979 134.139 104.129 134.117 104.246 134.096V129.76C104.097 129.664 103.899 129.584 103.654 129.52C103.419 129.456 103.179 129.424 102.934 129.424C101.803 129.424 101.238 130.192 101.238 131.728ZM106.63 135.728C106.417 135.792 106.171 135.856 105.894 135.92C105.617 135.973 105.323 136.021 105.014 136.064C104.715 136.107 104.406 136.139 104.086 136.16C103.777 136.192 103.478 136.208 103.19 136.208C102.497 136.208 101.878 136.107 101.334 135.904C100.79 135.701 100.331 135.413 99.9579 135.04C99.5846 134.656 99.2966 134.197 99.0939 133.664C98.9019 133.12 98.8059 132.512 98.8059 131.84C98.8059 131.157 98.8913 130.544 99.0619 130C99.2326 129.445 99.4779 128.976 99.7979 128.592C100.118 128.208 100.507 127.915 100.966 127.712C101.435 127.509 101.969 127.408 102.566 127.408C102.897 127.408 103.19 127.44 103.446 127.504C103.713 127.568 103.979 127.659 104.246 127.776V123.968L106.63 123.584V135.728ZM111.246 136H108.862V127.584H111.246V136ZM111.47 125.152C111.47 125.589 111.326 125.936 111.038 126.192C110.761 126.437 110.43 126.56 110.046 126.56C109.662 126.56 109.326 126.437 109.038 126.192C108.761 125.936 108.622 125.589 108.622 125.152C108.622 124.715 108.761 124.373 109.038 124.128C109.326 123.872 109.662 123.744 110.046 123.744C110.43 123.744 110.761 123.872 111.038 124.128C111.326 124.373 111.47 124.715 111.47 125.152ZM113.087 131.792C113.087 131.184 113.183 130.613 113.375 130.08C113.578 129.536 113.866 129.067 114.239 128.672C114.613 128.267 115.066 127.947 115.599 127.712C116.133 127.477 116.741 127.36 117.423 127.36C117.871 127.36 118.282 127.403 118.655 127.488C119.029 127.563 119.391 127.675 119.743 127.824L119.247 129.728C119.023 129.643 118.778 129.568 118.511 129.504C118.245 129.44 117.946 129.408 117.615 129.408C116.911 129.408 116.383 129.627 116.031 130.064C115.69 130.501 115.519 131.077 115.519 131.792C115.519 132.549 115.679 133.136 115.999 133.552C116.33 133.968 116.901 134.176 117.711 134.176C117.999 134.176 118.309 134.149 118.639 134.096C118.97 134.043 119.274 133.957 119.551 133.84L119.887 135.792C119.61 135.909 119.263 136.011 118.847 136.096C118.431 136.181 117.973 136.224 117.471 136.224C116.703 136.224 116.042 136.112 115.487 135.888C114.933 135.653 114.474 135.339 114.111 134.944C113.759 134.549 113.498 134.085 113.327 133.552C113.167 133.008 113.087 132.421 113.087 131.792ZM128.953 131.776C128.953 132.437 128.857 133.045 128.665 133.6C128.473 134.144 128.196 134.613 127.833 135.008C127.47 135.392 127.033 135.691 126.521 135.904C126.02 136.117 125.454 136.224 124.825 136.224C124.206 136.224 123.641 136.117 123.129 135.904C122.628 135.691 122.196 135.392 121.833 135.008C121.47 134.613 121.188 134.144 120.985 133.6C120.782 133.045 120.681 132.437 120.681 131.776C120.681 131.115 120.782 130.512 120.985 129.968C121.198 129.424 121.486 128.96 121.849 128.576C122.222 128.192 122.66 127.893 123.161 127.68C123.673 127.467 124.228 127.36 124.825 127.36C125.433 127.36 125.988 127.467 126.489 127.68C127.001 127.893 127.438 128.192 127.801 128.576C128.164 128.96 128.446 129.424 128.649 129.968C128.852 130.512 128.953 131.115 128.953 131.776ZM126.521 131.776C126.521 131.04 126.372 130.464 126.073 130.048C125.785 129.621 125.369 129.408 124.825 129.408C124.281 129.408 123.86 129.621 123.561 130.048C123.262 130.464 123.113 131.04 123.113 131.776C123.113 132.512 123.262 133.099 123.561 133.536C123.86 133.963 124.281 134.176 124.825 134.176C125.369 134.176 125.785 133.963 126.073 133.536C126.372 133.099 126.521 132.512 126.521 131.776ZM45.5179 155.928C45.8699 155.928 46.1792 155.923 46.4459 155.912C46.7232 155.891 46.9525 155.859 47.1339 155.816V153.336C47.0272 153.283 46.8512 153.24 46.6059 153.208C46.3712 153.165 46.0832 153.144 45.7419 153.144C45.5179 153.144 45.2779 153.16 45.0219 153.192C44.7765 153.224 44.5472 153.293 44.3339 153.4C44.1312 153.496 43.9605 153.635 43.8219 153.816C43.6832 153.987 43.6139 154.216 43.6139 154.504C43.6139 155.037 43.7845 155.411 44.1259 155.624C44.4672 155.827 44.9312 155.928 45.5179 155.928ZM45.3899 148.472C45.9872 148.472 46.4885 148.552 46.8939 148.712C47.3099 148.861 47.6405 149.08 47.8859 149.368C48.1419 149.645 48.3232 149.981 48.4299 150.376C48.5365 150.76 48.5899 151.187 48.5899 151.656V156.856C48.4619 156.877 48.2805 156.909 48.0459 156.952C47.8219 156.984 47.5659 157.016 47.2779 157.048C46.9899 157.08 46.6752 157.107 46.3339 157.128C46.0032 157.16 45.6725 157.176 45.3419 157.176C44.8725 157.176 44.4405 157.128 44.0459 157.032C43.6512 156.936 43.3099 156.787 43.0219 156.584C42.7339 156.371 42.5099 156.093 42.3499 155.752C42.1899 155.411 42.1099 155 42.1099 154.52C42.1099 154.061 42.2005 153.667 42.3819 153.336C42.5739 153.005 42.8299 152.739 43.1499 152.536C43.4699 152.333 43.8432 152.184 44.2699 152.088C44.6965 151.992 45.1445 151.944 45.6139 151.944C45.7632 151.944 45.9179 151.955 46.0779 151.976C46.2379 151.987 46.3872 152.008 46.5259 152.04C46.6752 152.061 46.8032 152.083 46.9099 152.104C47.0165 152.125 47.0912 152.141 47.1339 152.152V151.736C47.1339 151.491 47.1072 151.251 47.0539 151.016C47.0005 150.771 46.9045 150.557 46.7659 150.376C46.6272 150.184 46.4352 150.035 46.1899 149.928C45.9552 149.811 45.6459 149.752 45.2619 149.752C44.7712 149.752 44.3392 149.789 43.9659 149.864C43.6032 149.928 43.3312 149.997 43.1499 150.072L42.9739 148.84C43.1659 148.755 43.4859 148.675 43.9339 148.6C44.3819 148.515 44.8672 148.472 45.3899 148.472ZM51.0613 148.92C51.4026 148.835 51.8559 148.744 52.4213 148.648C52.9866 148.552 53.6373 148.504 54.3733 148.504C55.0346 148.504 55.5839 148.6 56.0213 148.792C56.4586 148.973 56.8053 149.235 57.0613 149.576C57.3279 149.907 57.5146 150.307 57.6213 150.776C57.7279 151.245 57.7812 151.763 57.7812 152.328V157H56.2933V152.648C56.2933 152.136 56.2559 151.699 56.1813 151.336C56.1173 150.973 56.0053 150.68 55.8453 150.456C55.6853 150.232 55.4719 150.072 55.2053 149.976C54.9386 149.869 54.6079 149.816 54.2133 149.816C54.0533 149.816 53.8879 149.821 53.7173 149.832C53.5466 149.843 53.3813 149.859 53.2213 149.88C53.0719 149.891 52.9333 149.907 52.8053 149.928C52.6879 149.949 52.6026 149.965 52.5493 149.976V157H51.0613V148.92ZM66.8728 156.76C66.5314 156.845 66.0781 156.936 65.5128 157.032C64.9581 157.128 64.3128 157.176 63.5768 157.176C62.9368 157.176 62.3981 157.085 61.9608 156.904C61.5234 156.712 61.1714 156.445 60.9048 156.104C60.6381 155.763 60.4461 155.363 60.3288 154.904C60.2114 154.435 60.1528 153.917 60.1528 153.352V148.68H61.6408V153.032C61.6408 154.045 61.8008 154.771 62.1208 155.208C62.4408 155.645 62.9794 155.864 63.7368 155.864C63.8968 155.864 64.0621 155.859 64.2328 155.848C64.4034 155.837 64.5634 155.827 64.7128 155.816C64.8621 155.795 64.9954 155.779 65.1128 155.768C65.2408 155.747 65.3314 155.725 65.3848 155.704V148.68H66.8728V156.76ZM72.2523 155.928C72.6043 155.928 72.9136 155.923 73.1803 155.912C73.4576 155.891 73.6869 155.859 73.8683 155.816V153.336C73.7616 153.283 73.5856 153.24 73.3403 153.208C73.1056 153.165 72.8176 153.144 72.4763 153.144C72.2523 153.144 72.0123 153.16 71.7563 153.192C71.5109 153.224 71.2816 153.293 71.0683 153.4C70.8656 153.496 70.6949 153.635 70.5563 153.816C70.4176 153.987 70.3483 154.216 70.3483 154.504C70.3483 155.037 70.5189 155.411 70.8603 155.624C71.2016 155.827 71.6656 155.928 72.2523 155.928ZM72.1243 148.472C72.7216 148.472 73.2229 148.552 73.6283 148.712C74.0443 148.861 74.3749 149.08 74.6203 149.368C74.8763 149.645 75.0576 149.981 75.1643 150.376C75.2709 150.76 75.3243 151.187 75.3243 151.656V156.856C75.1963 156.877 75.0149 156.909 74.7803 156.952C74.5563 156.984 74.3003 157.016 74.0123 157.048C73.7243 157.08 73.4096 157.107 73.0683 157.128C72.7376 157.16 72.4069 157.176 72.0763 157.176C71.6069 157.176 71.1749 157.128 70.7803 157.032C70.3856 156.936 70.0443 156.787 69.7563 156.584C69.4683 156.371 69.2443 156.093 69.0843 155.752C68.9243 155.411 68.8443 155 68.8443 154.52C68.8443 154.061 68.9349 153.667 69.1163 153.336C69.3083 153.005 69.5643 152.739 69.8843 152.536C70.2043 152.333 70.5776 152.184 71.0043 152.088C71.4309 151.992 71.8789 151.944 72.3483 151.944C72.4976 151.944 72.6523 151.955 72.8123 151.976C72.9723 151.987 73.1216 152.008 73.2603 152.04C73.4096 152.061 73.5376 152.083 73.6443 152.104C73.7509 152.125 73.8256 152.141 73.8683 152.152V151.736C73.8683 151.491 73.8416 151.251 73.7883 151.016C73.7349 150.771 73.6389 150.557 73.5003 150.376C73.3616 150.184 73.1696 150.035 72.9243 149.928C72.6896 149.811 72.3803 149.752 71.9963 149.752C71.5056 149.752 71.0736 149.789 70.7003 149.864C70.3376 149.928 70.0656 149.997 69.8843 150.072L69.7083 148.84C69.9003 148.755 70.2203 148.675 70.6683 148.6C71.1163 148.515 71.6016 148.472 72.1243 148.472ZM80.2916 157.16C79.3743 157.139 78.7236 156.941 78.3396 156.568C77.9556 156.195 77.7636 155.613 77.7636 154.824V144.84L79.2516 144.584V154.584C79.2516 154.829 79.273 155.032 79.3156 155.192C79.3583 155.352 79.4276 155.48 79.5236 155.576C79.6196 155.672 79.7476 155.747 79.9076 155.8C80.0676 155.843 80.265 155.88 80.4996 155.912L80.2916 157.16ZM85.4506 146.04C85.4506 146.488 85.408 146.92 85.3226 147.336C85.248 147.741 85.168 148.163 85.0826 148.6C85.4666 148.387 85.8453 148.179 86.2186 147.976C86.592 147.773 86.9973 147.597 87.4346 147.448L87.5306 147.416L87.9786 148.76L87.8506 148.808C87.424 148.968 86.9973 149.075 86.5706 149.128C86.144 149.171 85.7066 149.208 85.2586 149.24C85.6106 149.539 85.9413 149.832 86.2506 150.12C86.56 150.397 86.848 150.723 87.1146 151.096L87.1946 151.208L86.0266 152.024L85.9626 151.928C85.7066 151.544 85.4826 151.165 85.2906 150.792C85.1093 150.408 84.9226 150.013 84.7306 149.608C84.5386 150.013 84.3466 150.408 84.1546 150.792C83.9733 151.165 83.7546 151.544 83.4986 151.928L83.4346 152.024L82.2666 151.208L82.3466 151.096C82.6133 150.723 82.9013 150.397 83.2106 150.12C83.52 149.832 83.8506 149.539 84.2026 149.24C83.7546 149.208 83.3173 149.171 82.8906 149.128C82.464 149.075 82.0373 148.968 81.6106 148.808L81.4826 148.76L81.9306 147.416L82.0266 147.448C82.464 147.597 82.8693 147.773 83.2426 147.976C83.616 148.179 83.9946 148.387 84.3786 148.6C84.2933 148.163 84.208 147.741 84.1226 147.336C84.048 146.92 84.0106 146.488 84.0106 146.04V145.912H85.4506V146.04Z" fill="#2F2F2F"/>
<path d="M22.1423 174.41C22.1423 174.802 22.105 175.18 22.0303 175.544C21.965 175.899 21.895 176.267 21.8203 176.65C22.1563 176.463 22.4877 176.281 22.8143 176.104C23.141 175.927 23.4957 175.773 23.8783 175.642L23.9623 175.614L24.3543 176.79L24.2423 176.832C23.869 176.972 23.4957 177.065 23.1223 177.112C22.749 177.149 22.3663 177.182 21.9743 177.21C22.2823 177.471 22.5717 177.728 22.8423 177.98C23.113 178.223 23.365 178.507 23.5983 178.834L23.6683 178.932L22.6463 179.646L22.5903 179.562C22.3663 179.226 22.1703 178.895 22.0023 178.568C21.8437 178.232 21.6803 177.887 21.5123 177.532C21.3443 177.887 21.1763 178.232 21.0083 178.568C20.8497 178.895 20.6583 179.226 20.4343 179.562L20.3783 179.646L19.3563 178.932L19.4263 178.834C19.6597 178.507 19.9117 178.223 20.1823 177.98C20.453 177.728 20.7423 177.471 21.0503 177.21C20.6583 177.182 20.2757 177.149 19.9023 177.112C19.529 177.065 19.1557 176.972 18.7823 176.832L18.6703 176.79L19.0623 175.614L19.1463 175.642C19.529 175.773 19.8837 175.927 20.2103 176.104C20.537 176.281 20.8683 176.463 21.2043 176.65C21.1297 176.267 21.055 175.899 20.9803 175.544C20.915 175.18 20.8823 174.802 20.8823 174.41V174.298H22.1423V174.41ZM28.6589 174.2C30.0216 174.2 31.0669 174.461 31.7949 174.984C32.5322 175.497 32.9009 176.267 32.9009 177.294C32.9009 177.854 32.7982 178.335 32.5929 178.736C32.3969 179.128 32.1076 179.45 31.7249 179.702C31.3516 179.945 30.8942 180.122 30.3529 180.234C29.8116 180.346 29.2002 180.402 28.5189 180.402H27.4409V184H26.0829V174.438C26.4656 174.345 26.8902 174.284 27.3569 174.256C27.8329 174.219 28.2669 174.2 28.6589 174.2ZM28.7709 175.39C28.1922 175.39 27.7489 175.404 27.4409 175.432V179.24H28.4629C28.9296 179.24 29.3496 179.212 29.7229 179.156C30.0962 179.091 30.4089 178.988 30.6609 178.848C30.9222 178.699 31.1229 178.498 31.2629 178.246C31.4029 177.994 31.4729 177.672 31.4729 177.28C31.4729 176.907 31.3982 176.599 31.2489 176.356C31.1089 176.113 30.9129 175.922 30.6609 175.782C30.4182 175.633 30.1336 175.53 29.8069 175.474C29.4802 175.418 29.1349 175.39 28.7709 175.39ZM36.7005 184.14C35.8978 184.121 35.3285 183.949 34.9925 183.622C34.6565 183.295 34.4885 182.787 34.4885 182.096V173.36L35.7905 173.136V181.886C35.7905 182.101 35.8092 182.278 35.8465 182.418C35.8838 182.558 35.9445 182.67 36.0285 182.754C36.1125 182.838 36.2245 182.903 36.3645 182.95C36.5045 182.987 36.6772 183.02 36.8825 183.048L36.7005 184.14ZM40.8086 183.062C41.1166 183.062 41.3873 183.057 41.6206 183.048C41.8633 183.029 42.0639 183.001 42.2226 182.964V180.794C42.1293 180.747 41.9753 180.71 41.7606 180.682C41.5553 180.645 41.3033 180.626 41.0046 180.626C40.8086 180.626 40.5986 180.64 40.3746 180.668C40.1599 180.696 39.9593 180.757 39.7726 180.85C39.5953 180.934 39.4459 181.055 39.3246 181.214C39.2033 181.363 39.1426 181.564 39.1426 181.816C39.1426 182.283 39.2919 182.609 39.5906 182.796C39.8893 182.973 40.2953 183.062 40.8086 183.062ZM40.6966 176.538C41.2193 176.538 41.6579 176.608 42.0126 176.748C42.3766 176.879 42.6659 177.07 42.8806 177.322C43.1046 177.565 43.2633 177.859 43.3566 178.204C43.4499 178.54 43.4966 178.913 43.4966 179.324V183.874C43.3846 183.893 43.2259 183.921 43.0206 183.958C42.8246 183.986 42.6006 184.014 42.3486 184.042C42.0966 184.07 41.8213 184.093 41.5226 184.112C41.2333 184.14 40.9439 184.154 40.6546 184.154C40.2439 184.154 39.8659 184.112 39.5206 184.028C39.1753 183.944 38.8766 183.813 38.6246 183.636C38.3726 183.449 38.1766 183.207 38.0366 182.908C37.8966 182.609 37.8266 182.25 37.8266 181.83C37.8266 181.429 37.9059 181.083 38.0646 180.794C38.2326 180.505 38.4566 180.271 38.7366 180.094C39.0166 179.917 39.3433 179.786 39.7166 179.702C40.0899 179.618 40.4819 179.576 40.8926 179.576C41.0233 179.576 41.1586 179.585 41.2986 179.604C41.4386 179.613 41.5693 179.632 41.6906 179.66C41.8213 179.679 41.9333 179.697 42.0266 179.716C42.1199 179.735 42.1853 179.749 42.2226 179.758V179.394C42.2226 179.179 42.1993 178.969 42.1526 178.764C42.1059 178.549 42.0219 178.363 41.9006 178.204C41.7793 178.036 41.6113 177.905 41.3966 177.812C41.1913 177.709 40.9206 177.658 40.5846 177.658C40.1553 177.658 39.7773 177.691 39.4506 177.756C39.1333 177.812 38.8953 177.873 38.7366 177.938L38.5826 176.86C38.7506 176.785 39.0306 176.715 39.4226 176.65C39.8146 176.575 40.2393 176.538 40.6966 176.538ZM45.6591 176.93C45.9577 176.855 46.3544 176.776 46.8491 176.692C47.3437 176.608 47.9131 176.566 48.5571 176.566C49.1357 176.566 49.6164 176.65 49.9991 176.818C50.3817 176.977 50.6851 177.205 50.9091 177.504C51.1424 177.793 51.3057 178.143 51.3991 178.554C51.4924 178.965 51.5391 179.417 51.5391 179.912V184H50.2371V180.192C50.2371 179.744 50.2044 179.361 50.1391 179.044C50.0831 178.727 49.9851 178.47 49.8451 178.274C49.7051 178.078 49.5184 177.938 49.2851 177.854C49.0517 177.761 48.7624 177.714 48.4171 177.714C48.2771 177.714 48.1324 177.719 47.9831 177.728C47.8337 177.737 47.6891 177.751 47.5491 177.77C47.4184 177.779 47.2971 177.793 47.1851 177.812C47.0824 177.831 47.0077 177.845 46.9611 177.854V184H45.6591V176.93ZM60.1241 180.36C60.1241 180.939 60.0401 181.461 59.8721 181.928C59.7041 182.395 59.4661 182.796 59.1581 183.132C58.8595 183.468 58.5001 183.729 58.0801 183.916C57.6601 184.093 57.2028 184.182 56.7081 184.182C56.2135 184.182 55.7561 184.093 55.3361 183.916C54.9161 183.729 54.5521 183.468 54.2441 183.132C53.9455 182.796 53.7121 182.395 53.5441 181.928C53.3761 181.461 53.2921 180.939 53.2921 180.36C53.2921 179.791 53.3761 179.273 53.5441 178.806C53.7121 178.33 53.9455 177.924 54.2441 177.588C54.5521 177.252 54.9161 176.995 55.3361 176.818C55.7561 176.631 56.2135 176.538 56.7081 176.538C57.2028 176.538 57.6601 176.631 58.0801 176.818C58.5001 176.995 58.8595 177.252 59.1581 177.588C59.4661 177.924 59.7041 178.33 59.8721 178.806C60.0401 179.273 60.1241 179.791 60.1241 180.36ZM58.7661 180.36C58.7661 179.539 58.5795 178.89 58.2061 178.414C57.8421 177.929 57.3428 177.686 56.7081 177.686C56.0735 177.686 55.5695 177.929 55.1961 178.414C54.8321 178.89 54.6501 179.539 54.6501 180.36C54.6501 181.181 54.8321 181.835 55.1961 182.32C55.5695 182.796 56.0735 183.034 56.7081 183.034C57.3428 183.034 57.8421 182.796 58.2061 182.32C58.5795 181.835 58.7661 181.181 58.7661 180.36ZM67.5342 183.034C68.9528 183.034 69.6622 182.549 69.6622 181.578C69.6622 181.279 69.5968 181.027 69.4662 180.822C69.3448 180.607 69.1768 180.425 68.9622 180.276C68.7475 180.117 68.5002 179.982 68.2202 179.87C67.9495 179.758 67.6602 179.646 67.3522 179.534C66.9975 179.413 66.6615 179.277 66.3442 179.128C66.0268 178.969 65.7515 178.787 65.5182 178.582C65.2848 178.367 65.0982 178.115 64.9582 177.826C64.8275 177.537 64.7622 177.187 64.7622 176.776C64.7622 175.927 65.0515 175.264 65.6302 174.788C66.2088 174.312 67.0068 174.074 68.0242 174.074C68.6122 174.074 69.1442 174.139 69.6202 174.27C70.1055 174.391 70.4602 174.527 70.6842 174.676L70.2502 175.782C70.0542 175.661 69.7602 175.544 69.3682 175.432C68.9855 175.311 68.5375 175.25 68.0242 175.25C67.7628 175.25 67.5202 175.278 67.2962 175.334C67.0722 175.39 66.8762 175.474 66.7082 175.586C66.5402 175.698 66.4048 175.843 66.3022 176.02C66.2088 176.188 66.1622 176.389 66.1622 176.622C66.1622 176.883 66.2135 177.103 66.3162 177.28C66.4188 177.457 66.5635 177.616 66.7502 177.756C66.9368 177.887 67.1515 178.008 67.3942 178.12C67.6462 178.232 67.9215 178.344 68.2202 178.456C68.6402 178.624 69.0228 178.792 69.3682 178.96C69.7228 179.128 70.0262 179.329 70.2782 179.562C70.5395 179.795 70.7402 180.075 70.8802 180.402C71.0202 180.719 71.0902 181.107 71.0902 181.564C71.0902 182.413 70.7775 183.067 70.1522 183.524C69.5362 183.981 68.6635 184.21 67.5342 184.21C67.1515 184.21 66.7968 184.182 66.4702 184.126C66.1528 184.079 65.8682 184.023 65.6162 183.958C65.3642 183.883 65.1448 183.809 64.9582 183.734C64.7808 183.65 64.6408 183.58 64.5382 183.524L64.9442 182.404C65.1588 182.525 65.4855 182.661 65.9242 182.81C66.3628 182.959 66.8995 183.034 67.5342 183.034ZM75.1113 183.062C75.4193 183.062 75.69 183.057 75.9233 183.048C76.166 183.029 76.3667 183.001 76.5253 182.964V180.794C76.432 180.747 76.278 180.71 76.0633 180.682C75.858 180.645 75.606 180.626 75.3073 180.626C75.1113 180.626 74.9013 180.64 74.6773 180.668C74.4627 180.696 74.262 180.757 74.0753 180.85C73.898 180.934 73.7487 181.055 73.6273 181.214C73.506 181.363 73.4453 181.564 73.4453 181.816C73.4453 182.283 73.5947 182.609 73.8933 182.796C74.192 182.973 74.598 183.062 75.1113 183.062ZM74.9993 176.538C75.522 176.538 75.9607 176.608 76.3153 176.748C76.6793 176.879 76.9687 177.07 77.1833 177.322C77.4073 177.565 77.566 177.859 77.6593 178.204C77.7527 178.54 77.7993 178.913 77.7993 179.324V183.874C77.6873 183.893 77.5287 183.921 77.3233 183.958C77.1273 183.986 76.9033 184.014 76.6513 184.042C76.3993 184.07 76.124 184.093 75.8253 184.112C75.536 184.14 75.2467 184.154 74.9573 184.154C74.5467 184.154 74.1687 184.112 73.8233 184.028C73.478 183.944 73.1793 183.813 72.9273 183.636C72.6753 183.449 72.4793 183.207 72.3393 182.908C72.1993 182.609 72.1293 182.25 72.1293 181.83C72.1293 181.429 72.2087 181.083 72.3673 180.794C72.5353 180.505 72.7593 180.271 73.0393 180.094C73.3193 179.917 73.646 179.786 74.0193 179.702C74.3927 179.618 74.7847 179.576 75.1953 179.576C75.326 179.576 75.4613 179.585 75.6013 179.604C75.7413 179.613 75.872 179.632 75.9933 179.66C76.124 179.679 76.236 179.697 76.3293 179.716C76.4227 179.735 76.488 179.749 76.5253 179.758V179.394C76.5253 179.179 76.502 178.969 76.4553 178.764C76.4087 178.549 76.3247 178.363 76.2033 178.204C76.082 178.036 75.914 177.905 75.6993 177.812C75.494 177.709 75.2233 177.658 74.8873 177.658C74.458 177.658 74.08 177.691 73.7533 177.756C73.436 177.812 73.198 177.873 73.0393 177.938L72.8853 176.86C73.0533 176.785 73.3333 176.715 73.7253 176.65C74.1173 176.575 74.542 176.538 74.9993 176.538ZM85.7578 183.79C85.4591 183.865 85.0625 183.944 84.5678 184.028C84.0825 184.112 83.5178 184.154 82.8738 184.154C82.3138 184.154 81.8425 184.075 81.4598 183.916C81.0771 183.748 80.7691 183.515 80.5358 183.216C80.3025 182.917 80.1345 182.567 80.0318 182.166C79.9291 181.755 79.8778 181.303 79.8778 180.808V176.72H81.1798V180.528C81.1798 181.415 81.3198 182.049 81.5998 182.432C81.8798 182.815 82.3511 183.006 83.0138 183.006C83.1538 183.006 83.2985 183.001 83.4478 182.992C83.5971 182.983 83.7371 182.973 83.8678 182.964C83.9985 182.945 84.1151 182.931 84.2178 182.922C84.3298 182.903 84.4091 182.885 84.4558 182.866V176.72H85.7578V183.79ZM84.5118 173.962L82.5378 175.88L81.8798 175.292L83.6718 173.136L84.5118 173.962ZM92.7049 178.26C92.5462 178.129 92.3175 178.003 92.0189 177.882C91.7202 177.761 91.3935 177.7 91.0389 177.7C90.6655 177.7 90.3435 177.77 90.0729 177.91C89.8115 178.041 89.5969 178.227 89.4289 178.47C89.2609 178.703 89.1395 178.983 89.0649 179.31C88.9902 179.637 88.9529 179.987 88.9529 180.36C88.9529 181.209 89.1629 181.867 89.5829 182.334C90.0029 182.791 90.5629 183.02 91.2629 183.02C91.6175 183.02 91.9115 183.006 92.1449 182.978C92.3875 182.941 92.5742 182.903 92.7049 182.866V178.26ZM92.7049 173.36L94.0069 173.136V183.79C93.7082 183.874 93.3255 183.958 92.8589 184.042C92.3922 184.126 91.8555 184.168 91.2489 184.168C90.6889 184.168 90.1849 184.079 89.7369 183.902C89.2889 183.725 88.9062 183.473 88.5889 183.146C88.2715 182.819 88.0242 182.423 87.8469 181.956C87.6789 181.48 87.5949 180.948 87.5949 180.36C87.5949 179.8 87.6649 179.287 87.8049 178.82C87.9542 178.353 88.1689 177.952 88.4489 177.616C88.7289 177.28 89.0695 177.019 89.4709 176.832C89.8815 176.645 90.3482 176.552 90.8709 176.552C91.2909 176.552 91.6595 176.608 91.9769 176.72C92.3035 176.832 92.5462 176.939 92.7049 177.042V173.36ZM95.839 180.374C95.839 179.73 95.9323 179.17 96.119 178.694C96.3057 178.209 96.553 177.807 96.861 177.49C97.169 177.173 97.5237 176.935 97.925 176.776C98.3263 176.617 98.737 176.538 99.157 176.538C100.137 176.538 100.888 176.846 101.411 177.462C101.934 178.069 102.195 178.997 102.195 180.248C102.195 180.304 102.195 180.379 102.195 180.472C102.195 180.556 102.19 180.635 102.181 180.71H97.197C97.253 181.466 97.4723 182.04 97.855 182.432C98.2377 182.824 98.835 183.02 99.647 183.02C100.104 183.02 100.487 182.983 100.795 182.908C101.112 182.824 101.35 182.745 101.509 182.67L101.691 183.762C101.532 183.846 101.252 183.935 100.851 184.028C100.459 184.121 100.011 184.168 99.507 184.168C98.8723 184.168 98.3217 184.075 97.855 183.888C97.3977 183.692 97.0197 183.426 96.721 183.09C96.4223 182.754 96.1983 182.357 96.049 181.9C95.909 181.433 95.839 180.925 95.839 180.374ZM100.837 179.66C100.846 179.072 100.697 178.591 100.389 178.218C100.09 177.835 99.675 177.644 99.143 177.644C98.8443 177.644 98.5783 177.705 98.345 177.826C98.121 177.938 97.9297 178.087 97.771 178.274C97.6123 178.461 97.4863 178.675 97.393 178.918C97.309 179.161 97.253 179.408 97.225 179.66H100.837ZM103.687 179.254H106.333V176.37H107.453V179.254H110.099V180.36H107.453V183.258H106.333V180.36H103.687V179.254Z" fill="#8A99A8"/>
</svg>
