<svg width="83" height="88" viewBox="0 0 83 88" fill="none" xmlns="http://www.w3.org/2000/svg">
<circle cx="41.7117" cy="44.3259" r="40.4148" fill="#BADBFE"/>
<path d="M74.7567 61.187C71.9911 57.4389 68.6694 54.2429 64.9076 51.6806L72.0842 44.5765C77.3047 39.6162 77.3075 30.6804 72.084 25.7202C70.5274 24.1792 69.6701 22.1323 69.6701 19.9566C69.6701 8.95245 60.638 0 49.5361 0H33.0801C21.9782 0 12.9463 8.95245 12.9463 19.9566C12.9463 22.1323 12.089 24.1792 10.5324 25.7202C5.31165 30.6797 5.3089 39.617 10.5325 44.5765C10.5324 44.5765 17.7798 51.7507 17.7798 51.7507C5.96117 59.7515 -0.697957 73.7785 0.0581215 88H82.73C83.1237 78.3807 80.5542 68.9318 74.7567 61.187ZM62.0191 69.9531C62.0191 71.3747 60.8625 72.5312 59.4409 72.5312C56.0206 72.3898 56.0216 67.5159 59.4409 67.375C60.8627 67.375 62.0191 68.5315 62.0191 69.9531ZM14.1598 40.9121C10.9639 37.8737 10.9612 32.423 14.1599 29.3848C16.7023 26.8678 18.1026 23.5195 18.1026 19.9566C18.1026 11.7958 24.8214 5.15625 33.0801 5.15625H49.5361C57.7949 5.15625 64.5138 11.7958 64.5138 19.9566C64.5138 23.5195 65.9141 26.8678 68.4566 29.3846C71.6526 32.4222 71.6549 37.8744 68.4565 40.9119C68.4566 40.9119 60.3089 48.9772 60.3089 48.9772C58.024 47.8192 55.5724 46.886 53.0809 46.1512C56.9204 42.8392 59.355 37.9407 59.355 32.4842V16.1562H54.1987C54.2176 22.1346 46.9123 25.5093 41.8402 22.3297C41.8402 22.3298 39.769 21.0686 39.769 21.0686L38.3835 23.0588C36.8973 25.194 34.3692 26.4688 31.6212 26.4688C30.036 26.4688 28.5024 26.0427 27.186 25.2362L23.2612 22.8324C23.385 32.1118 21.8581 39.4047 29.5813 46.1904C27.0884 46.9275 24.6474 47.8713 22.3653 49.0349L14.1598 40.9121ZM41.3801 56.3585L36.0976 49.7631C39.4001 50.791 43.3175 50.7801 46.6123 49.7353L41.3801 56.3585ZM41.3081 45.375C33.6949 45.4116 27.836 38.7668 28.4175 31.2505C32.9144 32.3637 38.0057 30.9667 41.167 27.7355C45.3709 29.4525 50.5954 28.8454 54.1987 26.1484V32.4844C54.1987 39.5923 48.4162 45.375 41.3081 45.375ZM12.1805 64.2486C14.7182 60.8094 17.7925 57.9026 21.2847 55.6103V66.3527C18.2839 67.4051 16.1284 70.239 16.1284 73.5625V77.6875H21.2847V73.5625C21.2847 72.1884 22.4412 71.0703 23.8628 71.0703C25.2844 71.0703 26.4409 72.1884 26.4409 73.5625V77.6875H31.5972V73.5625C31.5972 70.239 29.4417 67.4051 26.4409 66.3527V52.8086C27.8082 52.2046 29.2317 51.684 30.6801 51.2476L38.8159 61.4053V82.8438H5.30564C5.78414 76.1123 8.13642 69.7292 12.1805 64.2486ZM43.9722 82.8438V61.3956L52.0123 51.2181C53.6749 51.7162 55.3068 52.3237 56.8628 53.0415V62.6624C48.7886 65.6502 50.7236 77.5232 59.4411 77.6877C68.1598 77.5225 70.092 65.6487 62.0191 62.6624V55.9546C70.8675 61.9247 76.8106 72.188 77.4825 82.8439H43.9722V82.8438Z" fill="#00309E"/>
</svg>
