<svg width="207" height="183" viewBox="0 0 207 183" fill="none" xmlns="http://www.w3.org/2000/svg">
<circle cx="104.325" cy="44.3259" r="40.4148" fill="#BADBFE"/>
<path d="M70.3535 72.4706H101.412V46.5883H70.3535V72.4706ZM75.53 51.7647H96.2359V67.2941H75.53V51.7647Z" fill="#00309E"/>
<path d="M121.932 20.7059C123.496 9.82097 115.047 0 104 0C92.9712 0 84.5013 9.8013 86.068 20.7059H60V88H148V20.7059H121.932ZM142.824 31.0588H116.675C118.184 29.5844 119.444 27.8394 120.373 25.8824H142.824V31.0588ZM104 5.17647C111.136 5.17647 116.941 10.9819 116.941 18.1176C116.941 25.368 111.02 31.0588 104 31.0588C96.8342 31.0588 91.0588 25.223 91.0588 18.1176C91.0588 10.9819 96.8642 5.17647 104 5.17647ZM87.6272 25.8824C88.5562 27.8394 89.8165 29.5844 91.3251 31.0588H65.1765V25.8824H87.6272ZM111.765 82.8235V51.7647H132.471V82.8235H111.765ZM137.647 82.8235V46.5882H106.588V82.8235H65.1765V36.2353H142.824V82.8235H137.647Z" fill="#00309E"/>
<path d="M101.413 25.8823H106.589V20.7058H111.766V15.5294H106.589V10.3529H101.413V15.5294H96.2363V20.7058H101.413V25.8823Z" fill="#00309E"/>
<path d="M23.2077 124.784C24.8717 124.784 26.1464 125.083 27.0317 125.68C27.917 126.267 28.3597 127.184 28.3597 128.432C28.3597 129.211 28.1784 129.845 27.8157 130.336C27.4637 130.816 26.9517 131.195 26.2797 131.472C26.5037 131.749 26.7384 132.069 26.9837 132.432C27.229 132.784 27.469 133.157 27.7037 133.552C27.949 133.936 28.1837 134.341 28.4077 134.768C28.6317 135.184 28.8397 135.595 29.0317 136H26.2317C26.029 135.637 25.821 135.269 25.6077 134.896C25.405 134.523 25.1917 134.16 24.9677 133.808C24.7544 133.456 24.541 133.125 24.3277 132.816C24.1144 132.496 23.901 132.208 23.6877 131.952H22.4557V136H19.9597V125.072C20.5037 124.965 21.0637 124.891 21.6397 124.848C22.2264 124.805 22.749 124.784 23.2077 124.784ZM23.3517 126.912C23.1704 126.912 23.005 126.917 22.8557 126.928C22.717 126.939 22.5837 126.949 22.4557 126.96V129.968H23.1597C24.0984 129.968 24.7704 129.851 25.1757 129.616C25.581 129.381 25.7837 128.981 25.7837 128.416C25.7837 127.872 25.5757 127.488 25.1597 127.264C24.7544 127.029 24.1517 126.912 23.3517 126.912ZM29.6653 131.856C29.6653 131.109 29.7773 130.459 30.0013 129.904C30.236 129.339 30.54 128.869 30.9133 128.496C31.2866 128.123 31.7133 127.84 32.1933 127.648C32.684 127.456 33.1853 127.36 33.6973 127.36C34.892 127.36 35.836 127.728 36.5293 128.464C37.2226 129.189 37.5693 130.261 37.5693 131.68C37.5693 131.819 37.564 131.973 37.5533 132.144C37.5426 132.304 37.532 132.448 37.5213 132.576H32.1133C32.1666 133.067 32.396 133.456 32.8013 133.744C33.2066 134.032 33.7506 134.176 34.4333 134.176C34.8706 134.176 35.2973 134.139 35.7133 134.064C36.14 133.979 36.4866 133.877 36.7533 133.76L37.0733 135.696C36.9453 135.76 36.7746 135.824 36.5613 135.888C36.348 135.952 36.108 136.005 35.8413 136.048C35.5853 136.101 35.308 136.144 35.0093 136.176C34.7106 136.208 34.412 136.224 34.1133 136.224C33.356 136.224 32.6946 136.112 32.1293 135.888C31.5746 135.664 31.1106 135.36 30.7373 134.976C30.3746 134.581 30.1026 134.117 29.9213 133.584C29.7506 133.051 29.6653 132.475 29.6653 131.856ZM35.2653 130.944C35.2546 130.741 35.2173 130.544 35.1533 130.352C35.1 130.16 35.0093 129.989 34.8813 129.84C34.764 129.691 34.6093 129.568 34.4173 129.472C34.236 129.376 34.0066 129.328 33.7293 129.328C33.4626 129.328 33.2333 129.376 33.0413 129.472C32.8493 129.557 32.6893 129.675 32.5613 129.824C32.4333 129.973 32.332 130.149 32.2573 130.352C32.1933 130.544 32.1453 130.741 32.1133 130.944H35.2653ZM41.4411 131.728C41.4411 132.464 41.6064 133.056 41.9371 133.504C42.2677 133.952 42.7584 134.176 43.4091 134.176C43.6224 134.176 43.8197 134.171 44.0011 134.16C44.1824 134.139 44.3317 134.117 44.4491 134.096V129.76C44.2997 129.664 44.1024 129.584 43.8571 129.52C43.6224 129.456 43.3824 129.424 43.1371 129.424C42.0064 129.424 41.4411 130.192 41.4411 131.728ZM46.8331 135.728C46.6197 135.792 46.3744 135.856 46.0971 135.92C45.8197 135.973 45.5264 136.021 45.2171 136.064C44.9184 136.107 44.6091 136.139 44.2891 136.16C43.9797 136.192 43.6811 136.208 43.3931 136.208C42.6997 136.208 42.0811 136.107 41.5371 135.904C40.9931 135.701 40.5344 135.413 40.1611 135.04C39.7877 134.656 39.4997 134.197 39.2971 133.664C39.1051 133.12 39.0091 132.512 39.0091 131.84C39.0091 131.157 39.0944 130.544 39.2651 130C39.4357 129.445 39.6811 128.976 40.0011 128.592C40.3211 128.208 40.7104 127.915 41.1691 127.712C41.6384 127.509 42.1717 127.408 42.7691 127.408C43.0997 127.408 43.3931 127.44 43.6491 127.504C43.9157 127.568 44.1824 127.659 44.4491 127.776V123.968L46.8331 123.584V135.728ZM48.6653 131.856C48.6653 131.109 48.7773 130.459 49.0013 129.904C49.236 129.339 49.54 128.869 49.9133 128.496C50.2866 128.123 50.7133 127.84 51.1933 127.648C51.684 127.456 52.1853 127.36 52.6973 127.36C53.892 127.36 54.836 127.728 55.5293 128.464C56.2226 129.189 56.5693 130.261 56.5693 131.68C56.5693 131.819 56.564 131.973 56.5533 132.144C56.5426 132.304 56.532 132.448 56.5213 132.576H51.1133C51.1666 133.067 51.396 133.456 51.8013 133.744C52.2066 134.032 52.7506 134.176 53.4333 134.176C53.8706 134.176 54.2973 134.139 54.7133 134.064C55.14 133.979 55.4866 133.877 55.7533 133.76L56.0733 135.696C55.9453 135.76 55.7746 135.824 55.5613 135.888C55.348 135.952 55.108 136.005 54.8413 136.048C54.5853 136.101 54.308 136.144 54.0093 136.176C53.7106 136.208 53.412 136.224 53.1133 136.224C52.356 136.224 51.6946 136.112 51.1293 135.888C50.5746 135.664 50.1106 135.36 49.7373 134.976C49.3746 134.581 49.1026 134.117 48.9213 133.584C48.7506 133.051 48.6653 132.475 48.6653 131.856ZM54.2653 130.944C54.2546 130.741 54.2173 130.544 54.1533 130.352C54.1 130.16 54.0093 129.989 53.8813 129.84C53.764 129.691 53.6093 129.568 53.4173 129.472C53.236 129.376 53.0066 129.328 52.7293 129.328C52.4626 129.328 52.2333 129.376 52.0413 129.472C51.8493 129.557 51.6893 129.675 51.5613 129.824C51.4333 129.973 51.332 130.149 51.2573 130.352C51.1933 130.544 51.1453 130.741 51.1133 130.944H54.2653ZM64.2848 131.728C64.2848 132.464 64.4501 133.056 64.7808 133.504C65.1115 133.952 65.6021 134.176 66.2528 134.176C66.4661 134.176 66.6635 134.171 66.8448 134.16C67.0261 134.139 67.1755 134.117 67.2928 134.096V129.76C67.1435 129.664 66.9461 129.584 66.7008 129.52C66.4661 129.456 66.2261 129.424 65.9808 129.424C64.8501 129.424 64.2848 130.192 64.2848 131.728ZM69.6768 135.728C69.4635 135.792 69.2181 135.856 68.9408 135.92C68.6635 135.973 68.3701 136.021 68.0608 136.064C67.7621 136.107 67.4528 136.139 67.1328 136.16C66.8235 136.192 66.5248 136.208 66.2368 136.208C65.5435 136.208 64.9248 136.107 64.3808 135.904C63.8368 135.701 63.3781 135.413 63.0048 135.04C62.6315 134.656 62.3435 134.197 62.1408 133.664C61.9488 133.12 61.8528 132.512 61.8528 131.84C61.8528 131.157 61.9381 130.544 62.1088 130C62.2795 129.445 62.5248 128.976 62.8448 128.592C63.1648 128.208 63.5541 127.915 64.0128 127.712C64.4821 127.509 65.0155 127.408 65.6128 127.408C65.9435 127.408 66.2368 127.44 66.4928 127.504C66.7595 127.568 67.0261 127.659 67.2928 127.776V123.968L69.6768 123.584V135.728ZM71.5091 131.856C71.5091 131.109 71.6211 130.459 71.8451 129.904C72.0797 129.339 72.3837 128.869 72.7571 128.496C73.1304 128.123 73.5571 127.84 74.0371 127.648C74.5277 127.456 75.0291 127.36 75.5411 127.36C76.7357 127.36 77.6797 127.728 78.3731 128.464C79.0664 129.189 79.4131 130.261 79.4131 131.68C79.4131 131.819 79.4077 131.973 79.3971 132.144C79.3864 132.304 79.3757 132.448 79.3651 132.576H73.9571C74.0104 133.067 74.2397 133.456 74.6451 133.744C75.0504 134.032 75.5944 134.176 76.2771 134.176C76.7144 134.176 77.1411 134.139 77.5571 134.064C77.9837 133.979 78.3304 133.877 78.5971 133.76L78.9171 135.696C78.7891 135.76 78.6184 135.824 78.4051 135.888C78.1917 135.952 77.9517 136.005 77.6851 136.048C77.4291 136.101 77.1517 136.144 76.8531 136.176C76.5544 136.208 76.2557 136.224 75.9571 136.224C75.1997 136.224 74.5384 136.112 73.9731 135.888C73.4184 135.664 72.9544 135.36 72.5811 134.976C72.2184 134.581 71.9464 134.117 71.7651 133.584C71.5944 133.051 71.5091 132.475 71.5091 131.856ZM77.1091 130.944C77.0984 130.741 77.0611 130.544 76.9971 130.352C76.9437 130.16 76.8531 129.989 76.7251 129.84C76.6077 129.691 76.4531 129.568 76.2611 129.472C76.0797 129.376 75.8504 129.328 75.5731 129.328C75.3064 129.328 75.0771 129.376 74.8851 129.472C74.6931 129.557 74.5331 129.675 74.4051 129.824C74.2771 129.973 74.1757 130.149 74.1011 130.352C74.0371 130.544 73.9891 130.741 73.9571 130.944H77.1091ZM87.1286 131.728C87.1286 132.464 87.2939 133.056 87.6246 133.504C87.9552 133.952 88.4459 134.176 89.0966 134.176C89.3099 134.176 89.5072 134.171 89.6886 134.16C89.8699 134.139 90.0192 134.117 90.1366 134.096V129.76C89.9872 129.664 89.7899 129.584 89.5446 129.52C89.3099 129.456 89.0699 129.424 88.8246 129.424C87.6939 129.424 87.1286 130.192 87.1286 131.728ZM92.5206 135.728C92.3072 135.792 92.0619 135.856 91.7846 135.92C91.5072 135.973 91.2139 136.021 90.9046 136.064C90.6059 136.107 90.2966 136.139 89.9766 136.16C89.6672 136.192 89.3686 136.208 89.0806 136.208C88.3872 136.208 87.7686 136.107 87.2246 135.904C86.6806 135.701 86.2219 135.413 85.8486 135.04C85.4752 134.656 85.1872 134.197 84.9846 133.664C84.7926 133.12 84.6966 132.512 84.6966 131.84C84.6966 131.157 84.7819 130.544 84.9526 130C85.1232 129.445 85.3686 128.976 85.6886 128.592C86.0086 128.208 86.3979 127.915 86.8566 127.712C87.3259 127.509 87.8592 127.408 88.4566 127.408C88.7872 127.408 89.0806 127.44 89.3366 127.504C89.6032 127.568 89.8699 127.659 90.1366 127.776V123.968L92.5206 123.584V135.728ZM94.3528 131.856C94.3528 131.109 94.4648 130.459 94.6888 129.904C94.9235 129.339 95.2275 128.869 95.6008 128.496C95.9741 128.123 96.4008 127.84 96.8808 127.648C97.3715 127.456 97.8728 127.36 98.3848 127.36C99.5795 127.36 100.523 127.728 101.217 128.464C101.91 129.189 102.257 130.261 102.257 131.68C102.257 131.819 102.251 131.973 102.241 132.144C102.23 132.304 102.219 132.448 102.209 132.576H96.8008C96.8541 133.067 97.0835 133.456 97.4888 133.744C97.8941 134.032 98.4381 134.176 99.1208 134.176C99.5581 134.176 99.9848 134.139 100.401 134.064C100.827 133.979 101.174 133.877 101.441 133.76L101.761 135.696C101.633 135.76 101.462 135.824 101.249 135.888C101.035 135.952 100.795 136.005 100.529 136.048C100.273 136.101 99.9955 136.144 99.6968 136.176C99.3981 136.208 99.0995 136.224 98.8008 136.224C98.0435 136.224 97.3821 136.112 96.8168 135.888C96.2621 135.664 95.7981 135.36 95.4248 134.976C95.0621 134.581 94.7901 134.117 94.6088 133.584C94.4381 133.051 94.3528 132.475 94.3528 131.856ZM99.9528 130.944C99.9421 130.741 99.9048 130.544 99.8408 130.352C99.7875 130.16 99.6968 129.989 99.5688 129.84C99.4515 129.691 99.2968 129.568 99.1048 129.472C98.9235 129.376 98.6941 129.328 98.4168 129.328C98.1501 129.328 97.9208 129.376 97.7288 129.472C97.5368 129.557 97.3768 129.675 97.2488 129.824C97.1208 129.973 97.0195 130.149 96.9448 130.352C96.8808 130.544 96.8328 130.741 96.8008 130.944H99.9528ZM106.513 134.288C106.95 134.288 107.259 134.245 107.441 134.16C107.622 134.075 107.713 133.909 107.713 133.664C107.713 133.472 107.595 133.307 107.361 133.168C107.126 133.019 106.769 132.853 106.289 132.672C105.915 132.533 105.574 132.389 105.265 132.24C104.966 132.091 104.71 131.915 104.497 131.712C104.283 131.499 104.118 131.248 104.001 130.96C103.883 130.672 103.825 130.325 103.825 129.92C103.825 129.131 104.118 128.507 104.705 128.048C105.291 127.589 106.097 127.36 107.121 127.36C107.633 127.36 108.123 127.408 108.593 127.504C109.062 127.589 109.435 127.685 109.713 127.792L109.297 129.648C109.019 129.552 108.715 129.467 108.385 129.392C108.065 129.317 107.702 129.28 107.297 129.28C106.55 129.28 106.177 129.488 106.177 129.904C106.177 130 106.193 130.085 106.225 130.16C106.257 130.235 106.321 130.309 106.417 130.384C106.513 130.448 106.641 130.523 106.801 130.608C106.971 130.683 107.185 130.768 107.441 130.864C107.963 131.056 108.395 131.248 108.737 131.44C109.078 131.621 109.345 131.824 109.537 132.048C109.739 132.261 109.878 132.501 109.953 132.768C110.038 133.035 110.081 133.344 110.081 133.696C110.081 134.528 109.766 135.157 109.137 135.584C108.518 136.011 107.638 136.224 106.497 136.224C105.75 136.224 105.126 136.16 104.625 136.032C104.134 135.904 103.793 135.797 103.601 135.712L104.001 133.776C104.406 133.936 104.822 134.064 105.249 134.16C105.675 134.245 106.097 134.288 106.513 134.288ZM111.462 131.792C111.462 131.184 111.558 130.613 111.75 130.08C111.953 129.536 112.241 129.067 112.614 128.672C112.988 128.267 113.441 127.947 113.974 127.712C114.508 127.477 115.116 127.36 115.798 127.36C116.246 127.36 116.657 127.403 117.03 127.488C117.404 127.563 117.766 127.675 118.118 127.824L117.622 129.728C117.398 129.643 117.153 129.568 116.886 129.504C116.62 129.44 116.321 129.408 115.99 129.408C115.286 129.408 114.758 129.627 114.406 130.064C114.065 130.501 113.894 131.077 113.894 131.792C113.894 132.549 114.054 133.136 114.374 133.552C114.705 133.968 115.276 134.176 116.086 134.176C116.374 134.176 116.684 134.149 117.014 134.096C117.345 134.043 117.649 133.957 117.926 133.84L118.262 135.792C117.985 135.909 117.638 136.011 117.222 136.096C116.806 136.181 116.348 136.224 115.846 136.224C115.078 136.224 114.417 136.112 113.862 135.888C113.308 135.653 112.849 135.339 112.486 134.944C112.134 134.549 111.873 134.085 111.702 133.552C111.542 133.008 111.462 132.421 111.462 131.792ZM127.328 131.776C127.328 132.437 127.232 133.045 127.04 133.6C126.848 134.144 126.571 134.613 126.208 135.008C125.845 135.392 125.408 135.691 124.896 135.904C124.395 136.117 123.829 136.224 123.2 136.224C122.581 136.224 122.016 136.117 121.504 135.904C121.003 135.691 120.571 135.392 120.208 135.008C119.845 134.613 119.563 134.144 119.36 133.6C119.157 133.045 119.056 132.437 119.056 131.776C119.056 131.115 119.157 130.512 119.36 129.968C119.573 129.424 119.861 128.96 120.224 128.576C120.597 128.192 121.035 127.893 121.536 127.68C122.048 127.467 122.603 127.36 123.2 127.36C123.808 127.36 124.363 127.467 124.864 127.68C125.376 127.893 125.813 128.192 126.176 128.576C126.539 128.96 126.821 129.424 127.024 129.968C127.227 130.512 127.328 131.115 127.328 131.776ZM124.896 131.776C124.896 131.04 124.747 130.464 124.448 130.048C124.16 129.621 123.744 129.408 123.2 129.408C122.656 129.408 122.235 129.621 121.936 130.048C121.637 130.464 121.488 131.04 121.488 131.776C121.488 132.512 121.637 133.099 121.936 133.536C122.235 133.963 122.656 134.176 123.2 134.176C123.744 134.176 124.16 133.963 124.448 133.536C124.747 133.099 124.896 132.512 124.896 131.776ZM129.175 127.872C129.58 127.755 130.103 127.648 130.743 127.552C131.383 127.445 132.055 127.392 132.759 127.392C133.473 127.392 134.065 127.488 134.535 127.68C135.015 127.861 135.393 128.123 135.671 128.464C135.948 128.805 136.145 129.211 136.263 129.68C136.38 130.149 136.439 130.672 136.439 131.248V136H134.055V131.536C134.055 130.768 133.953 130.224 133.751 129.904C133.548 129.584 133.169 129.424 132.615 129.424C132.444 129.424 132.263 129.435 132.071 129.456C131.879 129.467 131.708 129.483 131.559 129.504V136H129.175V127.872ZM138.517 125.488L140.901 125.104V127.584H143.765V129.568H140.901V132.528C140.901 133.029 140.986 133.429 141.157 133.728C141.338 134.027 141.695 134.176 142.229 134.176C142.485 134.176 142.746 134.155 143.013 134.112C143.29 134.059 143.541 133.989 143.765 133.904L144.101 135.76C143.813 135.877 143.493 135.979 143.141 136.064C142.789 136.149 142.357 136.192 141.845 136.192C141.194 136.192 140.655 136.107 140.229 135.936C139.802 135.755 139.461 135.509 139.205 135.2C138.949 134.88 138.767 134.496 138.661 134.048C138.565 133.6 138.517 133.104 138.517 132.56V125.488ZM153.265 131.776C153.265 132.437 153.169 133.045 152.977 133.6C152.785 134.144 152.508 134.613 152.145 135.008C151.783 135.392 151.345 135.691 150.833 135.904C150.332 136.117 149.767 136.224 149.137 136.224C148.519 136.224 147.953 136.117 147.441 135.904C146.94 135.691 146.508 135.392 146.145 135.008C145.783 134.613 145.5 134.144 145.297 133.6C145.095 133.045 144.993 132.437 144.993 131.776C144.993 131.115 145.095 130.512 145.297 129.968C145.511 129.424 145.799 128.96 146.161 128.576C146.535 128.192 146.972 127.893 147.473 127.68C147.985 127.467 148.54 127.36 149.137 127.36C149.745 127.36 150.3 127.467 150.801 127.68C151.313 127.893 151.751 128.192 152.113 128.576C152.476 128.96 152.759 129.424 152.961 129.968C153.164 130.512 153.265 131.115 153.265 131.776ZM150.833 131.776C150.833 131.04 150.684 130.464 150.385 130.048C150.097 129.621 149.681 129.408 149.137 129.408C148.593 129.408 148.172 129.621 147.873 130.048C147.575 130.464 147.425 131.04 147.425 131.776C147.425 132.512 147.575 133.099 147.873 133.536C148.172 133.963 148.593 134.176 149.137 134.176C149.681 134.176 150.097 133.963 150.385 133.536C150.684 133.099 150.833 132.512 150.833 131.776ZM157.528 134.288C157.966 134.288 158.275 134.245 158.456 134.16C158.638 134.075 158.728 133.909 158.728 133.664C158.728 133.472 158.611 133.307 158.376 133.168C158.142 133.019 157.784 132.853 157.304 132.672C156.931 132.533 156.59 132.389 156.28 132.24C155.982 132.091 155.726 131.915 155.512 131.712C155.299 131.499 155.134 131.248 155.016 130.96C154.899 130.672 154.84 130.325 154.84 129.92C154.84 129.131 155.134 128.507 155.72 128.048C156.307 127.589 157.112 127.36 158.136 127.36C158.648 127.36 159.139 127.408 159.608 127.504C160.078 127.589 160.451 127.685 160.728 127.792L160.312 129.648C160.035 129.552 159.731 129.467 159.4 129.392C159.08 129.317 158.718 129.28 158.312 129.28C157.566 129.28 157.192 129.488 157.192 129.904C157.192 130 157.208 130.085 157.24 130.16C157.272 130.235 157.336 130.309 157.432 130.384C157.528 130.448 157.656 130.523 157.816 130.608C157.987 130.683 158.2 130.768 158.456 130.864C158.979 131.056 159.411 131.248 159.752 131.44C160.094 131.621 160.36 131.824 160.552 132.048C160.755 132.261 160.894 132.501 160.968 132.768C161.054 133.035 161.096 133.344 161.096 133.696C161.096 134.528 160.782 135.157 160.152 135.584C159.534 136.011 158.654 136.224 157.512 136.224C156.766 136.224 156.142 136.16 155.64 136.032C155.15 135.904 154.808 135.797 154.616 135.712L155.016 133.776C155.422 133.936 155.838 134.064 156.264 134.16C156.691 134.245 157.112 134.288 157.528 134.288ZM166.418 131.856C166.418 131.12 166.524 130.48 166.738 129.936C166.951 129.381 167.234 128.923 167.586 128.56C167.938 128.197 168.343 127.925 168.802 127.744C169.26 127.563 169.73 127.472 170.21 127.472C171.33 127.472 172.188 127.824 172.786 128.528C173.383 129.221 173.682 130.283 173.682 131.712C173.682 131.776 173.682 131.861 173.682 131.968C173.682 132.064 173.676 132.155 173.666 132.24H167.97C168.034 133.104 168.284 133.76 168.722 134.208C169.159 134.656 169.842 134.88 170.77 134.88C171.292 134.88 171.73 134.837 172.082 134.752C172.444 134.656 172.716 134.565 172.898 134.48L173.106 135.728C172.924 135.824 172.604 135.925 172.146 136.032C171.698 136.139 171.186 136.192 170.61 136.192C169.884 136.192 169.255 136.085 168.722 135.872C168.199 135.648 167.767 135.344 167.426 134.96C167.084 134.576 166.828 134.123 166.658 133.6C166.498 133.067 166.418 132.485 166.418 131.856ZM172.13 131.04C172.14 130.368 171.97 129.819 171.618 129.392C171.276 128.955 170.802 128.736 170.194 128.736C169.852 128.736 169.548 128.805 169.282 128.944C169.026 129.072 168.807 129.243 168.626 129.456C168.444 129.669 168.3 129.915 168.194 130.192C168.098 130.469 168.034 130.752 168.002 131.04H172.13ZM175.819 127.92C176.16 127.835 176.608 127.744 177.163 127.648C177.728 127.552 178.379 127.504 179.115 127.504C179.648 127.504 180.096 127.579 180.459 127.728C180.822 127.867 181.126 128.075 181.371 128.352C181.446 128.299 181.563 128.224 181.723 128.128C181.883 128.032 182.08 127.941 182.315 127.856C182.55 127.76 182.811 127.68 183.099 127.616C183.387 127.541 183.696 127.504 184.027 127.504C184.667 127.504 185.19 127.6 185.595 127.792C186 127.973 186.315 128.235 186.539 128.576C186.774 128.917 186.928 129.323 187.003 129.792C187.088 130.261 187.131 130.773 187.131 131.328V136H185.643V131.648C185.643 131.157 185.616 130.736 185.563 130.384C185.52 130.032 185.43 129.739 185.291 129.504C185.163 129.269 184.982 129.099 184.747 128.992C184.523 128.875 184.23 128.816 183.867 128.816C183.366 128.816 182.95 128.885 182.619 129.024C182.299 129.152 182.08 129.269 181.963 129.376C182.048 129.653 182.112 129.957 182.155 130.288C182.198 130.619 182.219 130.965 182.219 131.328V136H180.731V131.648C180.731 131.157 180.704 130.736 180.651 130.384C180.598 130.032 180.502 129.739 180.363 129.504C180.235 129.269 180.054 129.099 179.819 128.992C179.595 128.875 179.307 128.816 178.955 128.816C178.806 128.816 178.646 128.821 178.475 128.832C178.304 128.843 178.139 128.859 177.979 128.88C177.83 128.891 177.691 128.907 177.563 128.928C177.435 128.949 177.35 128.965 177.307 128.976V136H175.819V127.92ZM11.9138 150.44C11.7325 150.291 11.4711 150.147 11.1298 150.008C10.7885 149.869 10.4151 149.8 10.0098 149.8C9.58315 149.8 9.21515 149.88 8.90581 150.04C8.60715 150.189 8.36181 150.403 8.16981 150.68C7.97781 150.947 7.83915 151.267 7.75381 151.64C7.66848 152.013 7.62581 152.413 7.62581 152.84C7.62581 153.811 7.86581 154.563 8.34581 155.096C8.82581 155.619 9.46581 155.88 10.2658 155.88C10.6711 155.88 11.0071 155.864 11.2738 155.832C11.5511 155.789 11.7645 155.747 11.9138 155.704V150.44ZM11.9138 144.84L13.4018 144.584V156.76C13.0605 156.856 12.6231 156.952 12.0898 157.048C11.5565 157.144 10.9431 157.192 10.2498 157.192C9.60981 157.192 9.03381 157.091 8.52181 156.888C8.00981 156.685 7.57248 156.397 7.20981 156.024C6.84715 155.651 6.56448 155.197 6.36181 154.664C6.16981 154.12 6.07381 153.512 6.07381 152.84C6.07381 152.2 6.15381 151.613 6.31381 151.08C6.48448 150.547 6.72981 150.088 7.04981 149.704C7.36981 149.32 7.75915 149.021 8.21781 148.808C8.68715 148.595 9.22048 148.488 9.81781 148.488C10.2978 148.488 10.7191 148.552 11.0818 148.68C11.4551 148.808 11.7325 148.931 11.9138 149.048V144.84ZM17.4477 157H15.9597V148.68H17.4477V157ZM16.6957 147.176C16.429 147.176 16.1997 147.091 16.0077 146.92C15.8264 146.739 15.7357 146.499 15.7357 146.2C15.7357 145.901 15.8264 145.667 16.0077 145.496C16.1997 145.315 16.429 145.224 16.6957 145.224C16.9624 145.224 17.1864 145.315 17.3677 145.496C17.5597 145.667 17.6557 145.901 17.6557 146.2C17.6557 146.499 17.5597 146.739 17.3677 146.92C17.1864 147.091 16.9624 147.176 16.6957 147.176ZM26.5026 148.68C26.0866 150.237 25.5959 151.731 25.0306 153.16C24.4759 154.589 23.9372 155.869 23.4146 157H22.0706C21.5479 155.869 21.0039 154.589 20.4386 153.16C19.8839 151.731 19.3986 150.237 18.9826 148.68H20.5826C20.7106 149.203 20.8599 149.763 21.0306 150.36C21.2119 150.947 21.3986 151.533 21.5906 152.12C21.7932 152.696 21.9959 153.256 22.1986 153.8C22.4012 154.344 22.5932 154.829 22.7746 155.256C22.9559 154.829 23.1479 154.344 23.3506 153.8C23.5532 153.256 23.7506 152.696 23.9426 152.12C24.1452 151.533 24.3319 150.947 24.5026 150.36C24.6839 149.763 24.8386 149.203 24.9666 148.68H26.5026ZM27.3551 152.856C27.3551 152.12 27.4617 151.48 27.6751 150.936C27.8884 150.381 28.1711 149.923 28.5231 149.56C28.8751 149.197 29.2804 148.925 29.7391 148.744C30.1977 148.563 30.6671 148.472 31.1471 148.472C32.2671 148.472 33.1257 148.824 33.7231 149.528C34.3204 150.221 34.6191 151.283 34.6191 152.712C34.6191 152.776 34.6191 152.861 34.6191 152.968C34.6191 153.064 34.6137 153.155 34.6031 153.24H28.9071C28.9711 154.104 29.2217 154.76 29.6591 155.208C30.0964 155.656 30.7791 155.88 31.7071 155.88C32.2297 155.88 32.6671 155.837 33.0191 155.752C33.3817 155.656 33.6537 155.565 33.8351 155.48L34.0431 156.728C33.8617 156.824 33.5417 156.925 33.0831 157.032C32.6351 157.139 32.1231 157.192 31.5471 157.192C30.8217 157.192 30.1924 157.085 29.6591 156.872C29.1364 156.648 28.7044 156.344 28.3631 155.96C28.0217 155.576 27.7657 155.123 27.5951 154.6C27.4351 154.067 27.3551 153.485 27.3551 152.856ZM33.0671 152.04C33.0777 151.368 32.9071 150.819 32.5551 150.392C32.2137 149.955 31.7391 149.736 31.1311 149.736C30.7897 149.736 30.4857 149.805 30.2191 149.944C29.9631 150.072 29.7444 150.243 29.5631 150.456C29.3817 150.669 29.2377 150.915 29.1311 151.192C29.0351 151.469 28.9711 151.752 28.9391 152.04H33.0671ZM39.8286 148.504C39.9566 148.504 40.1006 148.515 40.2606 148.536C40.4312 148.547 40.5966 148.568 40.7566 148.6C40.9166 148.621 41.0606 148.648 41.1886 148.68C41.3272 148.701 41.4286 148.723 41.4926 148.744L41.2366 150.04C41.1192 149.997 40.9219 149.949 40.6446 149.896C40.3779 149.832 40.0312 149.8 39.6046 149.8C39.3272 149.8 39.0499 149.832 38.7726 149.896C38.5059 149.949 38.3299 149.987 38.2446 150.008V157H36.7566V149.032C37.1086 148.904 37.5459 148.787 38.0686 148.68C38.5912 148.563 39.1779 148.504 39.8286 148.504ZM44.8644 155.928C45.4724 155.928 45.9204 155.848 46.2084 155.688C46.5071 155.528 46.6564 155.272 46.6564 154.92C46.6564 154.557 46.5124 154.269 46.2244 154.056C45.9364 153.843 45.4618 153.603 44.8004 153.336C44.4804 153.208 44.1711 153.08 43.8724 152.952C43.5844 152.813 43.3338 152.653 43.1204 152.472C42.9071 152.291 42.7364 152.072 42.6084 151.816C42.4804 151.56 42.4164 151.245 42.4164 150.872C42.4164 150.136 42.6884 149.555 43.2324 149.128C43.7764 148.691 44.5178 148.472 45.4564 148.472C45.6911 148.472 45.9258 148.488 46.1604 148.52C46.3951 148.541 46.6138 148.573 46.8164 148.616C47.0191 148.648 47.1951 148.685 47.3444 148.728C47.5044 148.771 47.6271 148.808 47.7124 148.84L47.4404 150.12C47.2804 150.035 47.0298 149.949 46.6884 149.864C46.3471 149.768 45.9364 149.72 45.4564 149.72C45.0404 149.72 44.6778 149.805 44.3684 149.976C44.0591 150.136 43.9044 150.392 43.9044 150.744C43.9044 150.925 43.9364 151.085 44.0004 151.224C44.0751 151.363 44.1818 151.491 44.3204 151.608C44.4698 151.715 44.6511 151.816 44.8644 151.912C45.0778 152.008 45.3338 152.109 45.6324 152.216C46.0271 152.365 46.3791 152.515 46.6884 152.664C46.9978 152.803 47.2591 152.968 47.4724 153.16C47.6964 153.352 47.8671 153.587 47.9844 153.864C48.1018 154.131 48.1604 154.461 48.1604 154.856C48.1604 155.624 47.8724 156.205 47.2964 156.6C46.7311 156.995 45.9204 157.192 44.8644 157.192C44.1284 157.192 43.5524 157.128 43.1364 157C42.7204 156.883 42.4378 156.792 42.2884 156.728L42.5604 155.448C42.7311 155.512 43.0031 155.608 43.3764 155.736C43.7498 155.864 44.2458 155.928 44.8644 155.928ZM57.4131 152.84C57.4131 153.501 57.3171 154.099 57.1251 154.632C56.9331 155.165 56.6611 155.624 56.3091 156.008C55.9677 156.392 55.5571 156.691 55.0771 156.904C54.5971 157.107 54.0744 157.208 53.5091 157.208C52.9437 157.208 52.4211 157.107 51.9411 156.904C51.4611 156.691 51.0451 156.392 50.6931 156.008C50.3517 155.624 50.0851 155.165 49.8931 154.632C49.7011 154.099 49.6051 153.501 49.6051 152.84C49.6051 152.189 49.7011 151.597 49.8931 151.064C50.0851 150.52 50.3517 150.056 50.6931 149.672C51.0451 149.288 51.4611 148.995 51.9411 148.792C52.4211 148.579 52.9437 148.472 53.5091 148.472C54.0744 148.472 54.5971 148.579 55.0771 148.792C55.5571 148.995 55.9677 149.288 56.3091 149.672C56.6611 150.056 56.9331 150.52 57.1251 151.064C57.3171 151.597 57.4131 152.189 57.4131 152.84ZM55.8611 152.84C55.8611 151.901 55.6477 151.16 55.2211 150.616C54.8051 150.061 54.2344 149.784 53.5091 149.784C52.7837 149.784 52.2077 150.061 51.7811 150.616C51.3651 151.16 51.1571 151.901 51.1571 152.84C51.1571 153.779 51.3651 154.525 51.7811 155.08C52.2077 155.624 52.7837 155.896 53.5091 155.896C54.2344 155.896 54.8051 155.624 55.2211 155.08C55.6477 154.525 55.8611 153.779 55.8611 152.84ZM61.4426 155.928C62.0506 155.928 62.4986 155.848 62.7866 155.688C63.0852 155.528 63.2346 155.272 63.2346 154.92C63.2346 154.557 63.0906 154.269 62.8026 154.056C62.5146 153.843 62.0399 153.603 61.3786 153.336C61.0586 153.208 60.7492 153.08 60.4506 152.952C60.1626 152.813 59.9119 152.653 59.6986 152.472C59.4852 152.291 59.3146 152.072 59.1866 151.816C59.0586 151.56 58.9946 151.245 58.9946 150.872C58.9946 150.136 59.2666 149.555 59.8106 149.128C60.3546 148.691 61.0959 148.472 62.0346 148.472C62.2692 148.472 62.5039 148.488 62.7386 148.52C62.9732 148.541 63.1919 148.573 63.3946 148.616C63.5972 148.648 63.7732 148.685 63.9226 148.728C64.0826 148.771 64.2052 148.808 64.2906 148.84L64.0186 150.12C63.8586 150.035 63.6079 149.949 63.2666 149.864C62.9252 149.768 62.5146 149.72 62.0346 149.72C61.6186 149.72 61.2559 149.805 60.9466 149.976C60.6372 150.136 60.4826 150.392 60.4826 150.744C60.4826 150.925 60.5146 151.085 60.5786 151.224C60.6532 151.363 60.7599 151.491 60.8986 151.608C61.0479 151.715 61.2292 151.816 61.4426 151.912C61.6559 152.008 61.9119 152.109 62.2106 152.216C62.6052 152.365 62.9572 152.515 63.2666 152.664C63.5759 152.803 63.8372 152.968 64.0506 153.16C64.2746 153.352 64.4452 153.587 64.5626 153.864C64.6799 154.131 64.7386 154.461 64.7386 154.856C64.7386 155.624 64.4506 156.205 63.8746 156.6C63.3092 156.995 62.4986 157.192 61.4426 157.192C60.7066 157.192 60.1306 157.128 59.7146 157C59.2986 156.883 59.0159 156.792 58.8666 156.728L59.1386 155.448C59.3092 155.512 59.5812 155.608 59.9546 155.736C60.3279 155.864 60.8239 155.928 61.4426 155.928ZM69.8863 152.856C69.8863 152.12 69.993 151.48 70.2063 150.936C70.4196 150.381 70.7023 149.923 71.0543 149.56C71.4063 149.197 71.8116 148.925 72.2703 148.744C72.729 148.563 73.1983 148.472 73.6783 148.472C74.7983 148.472 75.657 148.824 76.2543 149.528C76.8516 150.221 77.1503 151.283 77.1503 152.712C77.1503 152.776 77.1503 152.861 77.1503 152.968C77.1503 153.064 77.145 153.155 77.1343 153.24H71.4383C71.5023 154.104 71.753 154.76 72.1903 155.208C72.6276 155.656 73.3103 155.88 74.2383 155.88C74.761 155.88 75.1983 155.837 75.5503 155.752C75.913 155.656 76.185 155.565 76.3663 155.48L76.5743 156.728C76.393 156.824 76.073 156.925 75.6143 157.032C75.1663 157.139 74.6543 157.192 74.0783 157.192C73.353 157.192 72.7236 157.085 72.1903 156.872C71.6676 156.648 71.2356 156.344 70.8943 155.96C70.553 155.576 70.297 155.123 70.1263 154.6C69.9663 154.067 69.8863 153.485 69.8863 152.856ZM75.5983 152.04C75.609 151.368 75.4383 150.819 75.0863 150.392C74.745 149.955 74.2703 149.736 73.6623 149.736C73.321 149.736 73.017 149.805 72.7503 149.944C72.4943 150.072 72.2756 150.243 72.0943 150.456C71.913 150.669 71.769 150.915 71.6623 151.192C71.5663 151.469 71.5023 151.752 71.4703 152.04H75.5983ZM81.2238 155.928C81.8318 155.928 82.2798 155.848 82.5678 155.688C82.8665 155.528 83.0158 155.272 83.0158 154.92C83.0158 154.557 82.8718 154.269 82.5838 154.056C82.2958 153.843 81.8211 153.603 81.1598 153.336C80.8398 153.208 80.5305 153.08 80.2318 152.952C79.9438 152.813 79.6931 152.653 79.4798 152.472C79.2665 152.291 79.0958 152.072 78.9678 151.816C78.8398 151.56 78.7758 151.245 78.7758 150.872C78.7758 150.136 79.0478 149.555 79.5918 149.128C80.1358 148.691 80.8771 148.472 81.8158 148.472C82.0505 148.472 82.2851 148.488 82.5198 148.52C82.7545 148.541 82.9731 148.573 83.1758 148.616C83.3785 148.648 83.5545 148.685 83.7038 148.728C83.8638 148.771 83.9865 148.808 84.0718 148.84L83.7998 150.12C83.6398 150.035 83.3891 149.949 83.0478 149.864C82.7065 149.768 82.2958 149.72 81.8158 149.72C81.3998 149.72 81.0371 149.805 80.7278 149.976C80.4185 150.136 80.2638 150.392 80.2638 150.744C80.2638 150.925 80.2958 151.085 80.3598 151.224C80.4345 151.363 80.5411 151.491 80.6798 151.608C80.8291 151.715 81.0105 151.816 81.2238 151.912C81.4371 152.008 81.6931 152.109 81.9918 152.216C82.3865 152.365 82.7385 152.515 83.0478 152.664C83.3571 152.803 83.6185 152.968 83.8318 153.16C84.0558 153.352 84.2265 153.587 84.3438 153.864C84.4611 154.131 84.5198 154.461 84.5198 154.856C84.5198 155.624 84.2318 156.205 83.6558 156.6C83.0905 156.995 82.2798 157.192 81.2238 157.192C80.4878 157.192 79.9118 157.128 79.4958 157C79.0798 156.883 78.7971 156.792 78.6478 156.728L78.9198 155.448C79.0905 155.512 79.3625 155.608 79.7358 155.736C80.1091 155.864 80.6051 155.928 81.2238 155.928ZM87.8204 148.68H90.9724V149.928H87.8204V153.768C87.8204 154.184 87.8524 154.531 87.9164 154.808C87.9804 155.075 88.0764 155.288 88.2044 155.448C88.3324 155.597 88.4924 155.704 88.6844 155.768C88.8764 155.832 89.1004 155.864 89.3564 155.864C89.8044 155.864 90.1618 155.816 90.4284 155.72C90.7058 155.613 90.8978 155.539 91.0044 155.496L91.2924 156.728C91.1431 156.803 90.8818 156.893 90.5084 157C90.1351 157.117 89.7084 157.176 89.2284 157.176C88.6631 157.176 88.1938 157.107 87.8204 156.968C87.4578 156.819 87.1644 156.6 86.9404 156.312C86.7164 156.024 86.5564 155.672 86.4604 155.256C86.3751 154.829 86.3324 154.339 86.3324 153.784V146.36L87.8204 146.104V148.68ZM95.6819 155.928C96.0339 155.928 96.3433 155.923 96.6099 155.912C96.8873 155.891 97.1166 155.859 97.2979 155.816V153.336C97.1913 153.283 97.0153 153.24 96.7699 153.208C96.5353 153.165 96.2473 153.144 95.9059 153.144C95.6819 153.144 95.4419 153.16 95.1859 153.192C94.9406 153.224 94.7113 153.293 94.4979 153.4C94.2953 153.496 94.1246 153.635 93.9859 153.816C93.8473 153.987 93.7779 154.216 93.7779 154.504C93.7779 155.037 93.9486 155.411 94.2899 155.624C94.6313 155.827 95.0953 155.928 95.6819 155.928ZM95.5539 148.472C96.1513 148.472 96.6526 148.552 97.0579 148.712C97.4739 148.861 97.8046 149.08 98.0499 149.368C98.3059 149.645 98.4873 149.981 98.5939 150.376C98.7006 150.76 98.7539 151.187 98.7539 151.656V156.856C98.6259 156.877 98.4446 156.909 98.2099 156.952C97.9859 156.984 97.7299 157.016 97.4419 157.048C97.1539 157.08 96.8393 157.107 96.4979 157.128C96.1673 157.16 95.8366 157.176 95.5059 157.176C95.0366 157.176 94.6046 157.128 94.2099 157.032C93.8153 156.936 93.4739 156.787 93.1859 156.584C92.8979 156.371 92.6739 156.093 92.5139 155.752C92.3539 155.411 92.2739 155 92.2739 154.52C92.2739 154.061 92.3646 153.667 92.5459 153.336C92.7379 153.005 92.9939 152.739 93.3139 152.536C93.6339 152.333 94.0073 152.184 94.4339 152.088C94.8606 151.992 95.3086 151.944 95.7779 151.944C95.9273 151.944 96.0819 151.955 96.2419 151.976C96.4019 151.987 96.5513 152.008 96.6899 152.04C96.8393 152.061 96.9673 152.083 97.0739 152.104C97.1806 152.125 97.2553 152.141 97.2979 152.152V151.736C97.2979 151.491 97.2713 151.251 97.2179 151.016C97.1646 150.771 97.0686 150.557 96.9299 150.376C96.7913 150.184 96.5993 150.035 96.3539 149.928C96.1193 149.811 95.8099 149.752 95.4259 149.752C94.9353 149.752 94.5033 149.789 94.1299 149.864C93.7673 149.928 93.4953 149.997 93.3139 150.072L93.1379 148.84C93.3299 148.755 93.6499 148.675 94.0979 148.6C94.5459 148.515 95.0313 148.472 95.5539 148.472ZM102.713 149.048C102.895 148.931 103.167 148.808 103.529 148.68C103.903 148.552 104.329 148.488 104.809 148.488C105.407 148.488 105.935 148.595 106.393 148.808C106.863 149.021 107.257 149.32 107.577 149.704C107.897 150.088 108.137 150.547 108.297 151.08C108.468 151.613 108.553 152.2 108.553 152.84C108.553 153.512 108.452 154.12 108.249 154.664C108.057 155.197 107.78 155.651 107.417 156.024C107.055 156.397 106.617 156.685 106.105 156.888C105.593 157.091 105.017 157.192 104.377 157.192C103.684 157.192 103.071 157.144 102.537 157.048C102.004 156.952 101.567 156.856 101.225 156.76V144.84L102.713 144.584V149.048ZM102.713 155.704C102.863 155.747 103.071 155.789 103.337 155.832C103.615 155.864 103.956 155.88 104.361 155.88C105.161 155.88 105.801 155.619 106.281 155.096C106.761 154.563 107.001 153.811 107.001 152.84C107.001 152.413 106.959 152.013 106.873 151.64C106.788 151.267 106.649 150.947 106.457 150.68C106.265 150.403 106.015 150.189 105.705 150.04C105.407 149.88 105.044 149.8 104.617 149.8C104.212 149.8 103.839 149.869 103.497 150.008C103.156 150.147 102.895 150.291 102.713 150.44V155.704ZM110.183 152.856C110.183 152.12 110.29 151.48 110.503 150.936C110.717 150.381 110.999 149.923 111.351 149.56C111.703 149.197 112.109 148.925 112.567 148.744C113.026 148.563 113.495 148.472 113.975 148.472C115.095 148.472 115.954 148.824 116.551 149.528C117.149 150.221 117.447 151.283 117.447 152.712C117.447 152.776 117.447 152.861 117.447 152.968C117.447 153.064 117.442 153.155 117.431 153.24H111.735C111.799 154.104 112.05 154.76 112.487 155.208C112.925 155.656 113.607 155.88 114.535 155.88C115.058 155.88 115.495 155.837 115.847 155.752C116.21 155.656 116.482 155.565 116.663 155.48L116.871 156.728C116.69 156.824 116.37 156.925 115.911 157.032C115.463 157.139 114.951 157.192 114.375 157.192C113.65 157.192 113.021 157.085 112.487 156.872C111.965 156.648 111.533 156.344 111.191 155.96C110.85 155.576 110.594 155.123 110.423 154.6C110.263 154.067 110.183 153.485 110.183 152.856ZM115.895 152.04C115.906 151.368 115.735 150.819 115.383 150.392C115.042 149.955 114.567 149.736 113.959 149.736C113.618 149.736 113.314 149.805 113.047 149.944C112.791 150.072 112.573 150.243 112.391 150.456C112.21 150.669 112.066 150.915 111.959 151.192C111.863 151.469 111.799 151.752 111.767 152.04H115.895ZM122.081 157.16C121.163 157.139 120.513 156.941 120.129 156.568C119.745 156.195 119.553 155.613 119.553 154.824V144.84L121.041 144.584V154.584C121.041 154.829 121.062 155.032 121.105 155.192C121.147 155.352 121.217 155.48 121.313 155.576C121.409 155.672 121.537 155.747 121.697 155.8C121.857 155.843 122.054 155.88 122.289 155.912L122.081 157.16ZM123.496 152.856C123.496 152.12 123.602 151.48 123.816 150.936C124.029 150.381 124.312 149.923 124.664 149.56C125.016 149.197 125.421 148.925 125.88 148.744C126.338 148.563 126.808 148.472 127.288 148.472C128.408 148.472 129.266 148.824 129.864 149.528C130.461 150.221 130.76 151.283 130.76 152.712C130.76 152.776 130.76 152.861 130.76 152.968C130.76 153.064 130.754 153.155 130.744 153.24H125.048C125.112 154.104 125.362 154.76 125.8 155.208C126.237 155.656 126.92 155.88 127.848 155.88C128.37 155.88 128.808 155.837 129.16 155.752C129.522 155.656 129.794 155.565 129.976 155.48L130.184 156.728C130.002 156.824 129.682 156.925 129.224 157.032C128.776 157.139 128.264 157.192 127.688 157.192C126.962 157.192 126.333 157.085 125.8 156.872C125.277 156.648 124.845 156.344 124.504 155.96C124.162 155.576 123.906 155.123 123.736 154.6C123.576 154.067 123.496 153.485 123.496 152.856ZM129.208 152.04C129.218 151.368 129.048 150.819 128.696 150.392C128.354 149.955 127.88 149.736 127.272 149.736C126.93 149.736 126.626 149.805 126.36 149.944C126.104 150.072 125.885 150.243 125.704 150.456C125.522 150.669 125.378 150.915 125.272 151.192C125.176 151.469 125.112 151.752 125.08 152.04H129.208ZM136.513 157.192C135.841 157.192 135.249 157.085 134.737 156.872C134.236 156.659 133.809 156.36 133.457 155.976C133.116 155.592 132.86 155.139 132.689 154.616C132.519 154.083 132.433 153.496 132.433 152.856C132.433 152.216 132.524 151.629 132.705 151.096C132.897 150.563 133.164 150.104 133.505 149.72C133.847 149.325 134.263 149.021 134.753 148.808C135.255 148.584 135.809 148.472 136.417 148.472C136.791 148.472 137.164 148.504 137.537 148.568C137.911 148.632 138.268 148.733 138.609 148.872L138.273 150.136C138.049 150.029 137.788 149.944 137.489 149.88C137.201 149.816 136.892 149.784 136.561 149.784C135.729 149.784 135.089 150.045 134.641 150.568C134.204 151.091 133.985 151.853 133.985 152.856C133.985 153.304 134.033 153.715 134.129 154.088C134.236 154.461 134.396 154.781 134.609 155.048C134.833 155.315 135.116 155.523 135.457 155.672C135.799 155.811 136.215 155.88 136.705 155.88C137.1 155.88 137.457 155.843 137.777 155.768C138.097 155.693 138.348 155.613 138.529 155.528L138.737 156.776C138.652 156.829 138.529 156.883 138.369 156.936C138.209 156.979 138.028 157.016 137.825 157.048C137.623 157.091 137.404 157.123 137.169 157.144C136.945 157.176 136.727 157.192 136.513 157.192ZM141.823 157H140.335V148.68H141.823V157ZM141.071 147.176C140.804 147.176 140.575 147.091 140.383 146.92C140.201 146.739 140.111 146.499 140.111 146.2C140.111 145.901 140.201 145.667 140.383 145.496C140.575 145.315 140.804 145.224 141.071 145.224C141.337 145.224 141.561 145.315 141.743 145.496C141.935 145.667 142.031 145.901 142.031 146.2C142.031 146.499 141.935 146.739 141.743 146.92C141.561 147.091 141.337 147.176 141.071 147.176ZM144.382 148.92C144.723 148.835 145.171 148.744 145.726 148.648C146.291 148.552 146.942 148.504 147.678 148.504C148.211 148.504 148.659 148.579 149.022 148.728C149.384 148.867 149.688 149.075 149.934 149.352C150.008 149.299 150.126 149.224 150.286 149.128C150.446 149.032 150.643 148.941 150.878 148.856C151.112 148.76 151.374 148.68 151.662 148.616C151.95 148.541 152.259 148.504 152.59 148.504C153.23 148.504 153.752 148.6 154.158 148.792C154.563 148.973 154.878 149.235 155.102 149.576C155.336 149.917 155.491 150.323 155.566 150.792C155.651 151.261 155.694 151.773 155.694 152.328V157H154.206V152.648C154.206 152.157 154.179 151.736 154.126 151.384C154.083 151.032 153.992 150.739 153.854 150.504C153.726 150.269 153.544 150.099 153.31 149.992C153.086 149.875 152.792 149.816 152.43 149.816C151.928 149.816 151.512 149.885 151.182 150.024C150.862 150.152 150.643 150.269 150.526 150.376C150.611 150.653 150.675 150.957 150.718 151.288C150.76 151.619 150.782 151.965 150.782 152.328V157H149.294V152.648C149.294 152.157 149.267 151.736 149.214 151.384C149.16 151.032 149.064 150.739 148.926 150.504C148.798 150.269 148.616 150.099 148.382 149.992C148.158 149.875 147.87 149.816 147.518 149.816C147.368 149.816 147.208 149.821 147.038 149.832C146.867 149.843 146.702 149.859 146.542 149.88C146.392 149.891 146.254 149.907 146.126 149.928C145.998 149.949 145.912 149.965 145.87 149.976V157H144.382V148.92ZM157.699 152.856C157.699 152.12 157.805 151.48 158.019 150.936C158.232 150.381 158.515 149.923 158.867 149.56C159.219 149.197 159.624 148.925 160.083 148.744C160.541 148.563 161.011 148.472 161.491 148.472C162.611 148.472 163.469 148.824 164.067 149.528C164.664 150.221 164.963 151.283 164.963 152.712C164.963 152.776 164.963 152.861 164.963 152.968C164.963 153.064 164.957 153.155 164.947 153.24H159.251C159.315 154.104 159.565 154.76 160.003 155.208C160.44 155.656 161.123 155.88 162.051 155.88C162.573 155.88 163.011 155.837 163.363 155.752C163.725 155.656 163.997 155.565 164.179 155.48L164.387 156.728C164.205 156.824 163.885 156.925 163.427 157.032C162.979 157.139 162.467 157.192 161.891 157.192C161.165 157.192 160.536 157.085 160.003 156.872C159.48 156.648 159.048 156.344 158.707 155.96C158.365 155.576 158.109 155.123 157.939 154.6C157.779 154.067 157.699 153.485 157.699 152.856ZM163.411 152.04C163.421 151.368 163.251 150.819 162.899 150.392C162.557 149.955 162.083 149.736 161.475 149.736C161.133 149.736 160.829 149.805 160.563 149.944C160.307 150.072 160.088 150.243 159.907 150.456C159.725 150.669 159.581 150.915 159.475 151.192C159.379 151.469 159.315 151.752 159.283 152.04H163.411ZM167.1 148.92C167.442 148.835 167.895 148.744 168.46 148.648C169.026 148.552 169.676 148.504 170.412 148.504C171.074 148.504 171.623 148.6 172.06 148.792C172.498 148.973 172.844 149.235 173.1 149.576C173.367 149.907 173.554 150.307 173.66 150.776C173.767 151.245 173.82 151.763 173.82 152.328V157H172.332V152.648C172.332 152.136 172.295 151.699 172.22 151.336C172.156 150.973 172.044 150.68 171.884 150.456C171.724 150.232 171.511 150.072 171.244 149.976C170.978 149.869 170.647 149.816 170.252 149.816C170.092 149.816 169.927 149.821 169.756 149.832C169.586 149.843 169.42 149.859 169.26 149.88C169.111 149.891 168.972 149.907 168.844 149.928C168.727 149.949 168.642 149.965 168.588 149.976V157H167.1V148.92ZM177.68 148.68H180.832V149.928H177.68V153.768C177.68 154.184 177.712 154.531 177.776 154.808C177.84 155.075 177.936 155.288 178.064 155.448C178.192 155.597 178.352 155.704 178.544 155.768C178.736 155.832 178.96 155.864 179.216 155.864C179.664 155.864 180.021 155.816 180.288 155.72C180.565 155.613 180.757 155.539 180.864 155.496L181.152 156.728C181.002 156.803 180.741 156.893 180.368 157C179.994 157.117 179.568 157.176 179.088 157.176C178.522 157.176 178.053 157.107 177.68 156.968C177.317 156.819 177.024 156.6 176.8 156.312C176.576 156.024 176.416 155.672 176.32 155.256C176.234 154.829 176.192 154.339 176.192 153.784V146.36L177.68 146.104V148.68ZM189.851 152.84C189.851 153.501 189.755 154.099 189.563 154.632C189.371 155.165 189.099 155.624 188.747 156.008C188.405 156.392 187.995 156.691 187.515 156.904C187.035 157.107 186.512 157.208 185.947 157.208C185.381 157.208 184.859 157.107 184.379 156.904C183.899 156.691 183.483 156.392 183.131 156.008C182.789 155.624 182.523 155.165 182.331 154.632C182.139 154.099 182.043 153.501 182.043 152.84C182.043 152.189 182.139 151.597 182.331 151.064C182.523 150.52 182.789 150.056 183.131 149.672C183.483 149.288 183.899 148.995 184.379 148.792C184.859 148.579 185.381 148.472 185.947 148.472C186.512 148.472 187.035 148.579 187.515 148.792C187.995 148.995 188.405 149.288 188.747 149.672C189.099 150.056 189.371 150.52 189.563 151.064C189.755 151.597 189.851 152.189 189.851 152.84ZM188.299 152.84C188.299 151.901 188.085 151.16 187.659 150.616C187.243 150.061 186.672 149.784 185.947 149.784C185.221 149.784 184.645 150.061 184.219 150.616C183.803 151.16 183.595 151.901 183.595 152.84C183.595 153.779 183.803 154.525 184.219 155.08C184.645 155.624 185.221 155.896 185.947 155.896C186.672 155.896 187.243 155.624 187.659 155.08C188.085 154.525 188.299 153.779 188.299 152.84ZM193.88 155.928C194.488 155.928 194.936 155.848 195.224 155.688C195.523 155.528 195.672 155.272 195.672 154.92C195.672 154.557 195.528 154.269 195.24 154.056C194.952 153.843 194.477 153.603 193.816 153.336C193.496 153.208 193.187 153.08 192.888 152.952C192.6 152.813 192.349 152.653 192.136 152.472C191.923 152.291 191.752 152.072 191.624 151.816C191.496 151.56 191.432 151.245 191.432 150.872C191.432 150.136 191.704 149.555 192.248 149.128C192.792 148.691 193.533 148.472 194.472 148.472C194.707 148.472 194.941 148.488 195.176 148.52C195.411 148.541 195.629 148.573 195.832 148.616C196.035 148.648 196.211 148.685 196.36 148.728C196.52 148.771 196.643 148.808 196.728 148.84L196.456 150.12C196.296 150.035 196.045 149.949 195.704 149.864C195.363 149.768 194.952 149.72 194.472 149.72C194.056 149.72 193.693 149.805 193.384 149.976C193.075 150.136 192.92 150.392 192.92 150.744C192.92 150.925 192.952 151.085 193.016 151.224C193.091 151.363 193.197 151.491 193.336 151.608C193.485 151.715 193.667 151.816 193.88 151.912C194.093 152.008 194.349 152.109 194.648 152.216C195.043 152.365 195.395 152.515 195.704 152.664C196.013 152.803 196.275 152.968 196.488 153.16C196.712 153.352 196.883 153.587 197 153.864C197.117 154.131 197.176 154.461 197.176 154.856C197.176 155.624 196.888 156.205 196.312 156.6C195.747 156.995 194.936 157.192 193.88 157.192C193.144 157.192 192.568 157.128 192.152 157C191.736 156.883 191.453 156.792 191.304 156.728L191.576 155.448C191.747 155.512 192.019 155.608 192.392 155.736C192.765 155.864 193.261 155.928 193.88 155.928ZM200.653 155.176C200.663 155.261 200.669 155.347 200.669 155.432C200.669 155.507 200.669 155.587 200.669 155.672C200.669 156.344 200.567 157.005 200.365 157.656C200.173 158.317 199.906 158.947 199.565 159.544L198.413 159.176C198.679 158.632 198.855 158.077 198.941 157.512C199.026 156.957 199.069 156.435 199.069 155.944C199.069 155.805 199.063 155.672 199.053 155.544C199.053 155.416 199.047 155.293 199.037 155.176H200.653ZM34.3696 178H32.8816V169.68H34.3696V178ZM33.6176 168.176C33.3509 168.176 33.1216 168.091 32.9296 167.92C32.7482 167.739 32.6576 167.499 32.6576 167.2C32.6576 166.901 32.7482 166.667 32.9296 166.496C33.1216 166.315 33.3509 166.224 33.6176 166.224C33.8842 166.224 34.1082 166.315 34.2896 166.496C34.4816 166.667 34.5776 166.901 34.5776 167.2C34.5776 167.499 34.4816 167.739 34.2896 167.92C34.1082 168.091 33.8842 168.176 33.6176 168.176ZM36.9284 169.92C37.2698 169.835 37.7231 169.744 38.2884 169.648C38.8538 169.552 39.5044 169.504 40.2404 169.504C40.9018 169.504 41.4511 169.6 41.8884 169.792C42.3258 169.973 42.6724 170.235 42.9284 170.576C43.1951 170.907 43.3818 171.307 43.4884 171.776C43.5951 172.245 43.6484 172.763 43.6484 173.328V178H42.1604V173.648C42.1604 173.136 42.1231 172.699 42.0484 172.336C41.9844 171.973 41.8724 171.68 41.7124 171.456C41.5524 171.232 41.3391 171.072 41.0724 170.976C40.8058 170.869 40.4751 170.816 40.0804 170.816C39.9204 170.816 39.7551 170.821 39.5844 170.832C39.4138 170.843 39.2484 170.859 39.0884 170.88C38.9391 170.891 38.8004 170.907 38.6724 170.928C38.5551 170.949 38.4698 170.965 38.4164 170.976V178H36.9284V169.92ZM49.7319 178.192C49.0599 178.192 48.4679 178.085 47.9559 177.872C47.4546 177.659 47.0279 177.36 46.6759 176.976C46.3346 176.592 46.0786 176.139 45.9079 175.616C45.7373 175.083 45.6519 174.496 45.6519 173.856C45.6519 173.216 45.7426 172.629 45.9239 172.096C46.1159 171.563 46.3826 171.104 46.7239 170.72C47.0653 170.325 47.4813 170.021 47.9719 169.808C48.4733 169.584 49.0279 169.472 49.6359 169.472C50.0093 169.472 50.3826 169.504 50.7559 169.568C51.1293 169.632 51.4866 169.733 51.8279 169.872L51.4919 171.136C51.2679 171.029 51.0066 170.944 50.7079 170.88C50.4199 170.816 50.1106 170.784 49.7799 170.784C48.9479 170.784 48.3079 171.045 47.8599 171.568C47.4226 172.091 47.2039 172.853 47.2039 173.856C47.2039 174.304 47.2519 174.715 47.3479 175.088C47.4546 175.461 47.6146 175.781 47.8279 176.048C48.0519 176.315 48.3346 176.523 48.6759 176.672C49.0173 176.811 49.4333 176.88 49.9239 176.88C50.3186 176.88 50.6759 176.843 50.9959 176.768C51.3159 176.693 51.5666 176.613 51.7479 176.528L51.9559 177.776C51.8706 177.829 51.7479 177.883 51.5879 177.936C51.4279 177.979 51.2466 178.016 51.0439 178.048C50.8413 178.091 50.6226 178.123 50.3879 178.144C50.1639 178.176 49.9453 178.192 49.7319 178.192ZM56.0494 178.16C55.1321 178.139 54.4814 177.941 54.0974 177.568C53.7134 177.195 53.5214 176.613 53.5214 175.824V165.84L55.0094 165.584V175.584C55.0094 175.829 55.0308 176.032 55.0734 176.192C55.1161 176.352 55.1854 176.48 55.2814 176.576C55.3774 176.672 55.5054 176.747 55.6654 176.8C55.8254 176.843 56.0228 176.88 56.2574 176.912L56.0494 178.16ZM64.5524 177.76C64.2111 177.845 63.7578 177.936 63.1924 178.032C62.6378 178.128 61.9924 178.176 61.2564 178.176C60.6164 178.176 60.0778 178.085 59.6404 177.904C59.2031 177.712 58.8511 177.445 58.5844 177.104C58.3178 176.763 58.1258 176.363 58.0084 175.904C57.8911 175.435 57.8324 174.917 57.8324 174.352V169.68H59.3204V174.032C59.3204 175.045 59.4804 175.771 59.8004 176.208C60.1204 176.645 60.6591 176.864 61.4164 176.864C61.5764 176.864 61.7418 176.859 61.9124 176.848C62.0831 176.837 62.2431 176.827 62.3924 176.816C62.5418 176.795 62.6751 176.779 62.7924 176.768C62.9204 176.747 63.0111 176.725 63.0644 176.704V169.68H64.5524V177.76ZM68.6039 178H67.1159V169.68H68.6039V178ZM67.8519 168.176C67.5853 168.176 67.3559 168.091 67.1639 167.92C66.9826 167.739 66.8919 167.499 66.8919 167.2C66.8919 166.901 66.9826 166.667 67.1639 166.496C67.3559 166.315 67.5853 166.224 67.8519 166.224C68.1186 166.224 68.3426 166.315 68.5239 166.496C68.7159 166.667 68.8119 166.901 68.8119 167.2C68.8119 167.499 68.7159 167.739 68.5239 167.92C68.3426 168.091 68.1186 168.176 67.8519 168.176ZM71.1628 169.92C71.5041 169.835 71.9575 169.744 72.5228 169.648C73.0881 169.552 73.7388 169.504 74.4748 169.504C75.1361 169.504 75.6855 169.6 76.1228 169.792C76.5601 169.973 76.9068 170.235 77.1628 170.576C77.4295 170.907 77.6161 171.307 77.7228 171.776C77.8295 172.245 77.8828 172.763 77.8828 173.328V178H76.3948V173.648C76.3948 173.136 76.3575 172.699 76.2828 172.336C76.2188 171.973 76.1068 171.68 75.9468 171.456C75.7868 171.232 75.5735 171.072 75.3068 170.976C75.0401 170.869 74.7095 170.816 74.3148 170.816C74.1548 170.816 73.9895 170.821 73.8188 170.832C73.6481 170.843 73.4828 170.859 73.3228 170.88C73.1735 170.891 73.0348 170.907 72.9068 170.928C72.7895 170.949 72.7041 170.965 72.6508 170.976V178H71.1628V169.92ZM85.7263 171.44C85.545 171.291 85.2836 171.147 84.9423 171.008C84.601 170.869 84.2276 170.8 83.8223 170.8C83.3956 170.8 83.0276 170.88 82.7183 171.04C82.4196 171.189 82.1743 171.403 81.9823 171.68C81.7903 171.947 81.6516 172.267 81.5663 172.64C81.481 173.013 81.4383 173.413 81.4383 173.84C81.4383 174.811 81.6783 175.563 82.1583 176.096C82.6383 176.619 83.2783 176.88 84.0783 176.88C84.4836 176.88 84.8196 176.864 85.0863 176.832C85.3636 176.789 85.577 176.747 85.7263 176.704V171.44ZM85.7263 165.84L87.2143 165.584V177.76C86.873 177.856 86.4356 177.952 85.9023 178.048C85.369 178.144 84.7556 178.192 84.0623 178.192C83.4223 178.192 82.8463 178.091 82.3343 177.888C81.8223 177.685 81.385 177.397 81.0223 177.024C80.6596 176.651 80.377 176.197 80.1743 175.664C79.9823 175.12 79.8863 174.512 79.8863 173.84C79.8863 173.2 79.9663 172.613 80.1263 172.08C80.297 171.547 80.5423 171.088 80.8623 170.704C81.1823 170.32 81.5716 170.021 82.0303 169.808C82.4996 169.595 83.033 169.488 83.6303 169.488C84.1103 169.488 84.5316 169.552 84.8943 169.68C85.2676 169.808 85.545 169.931 85.7263 170.048V165.84ZM97.1162 173.84C97.1162 174.501 97.0202 175.099 96.8282 175.632C96.6362 176.165 96.3642 176.624 96.0122 177.008C95.6709 177.392 95.2602 177.691 94.7802 177.904C94.3002 178.107 93.7775 178.208 93.2122 178.208C92.6469 178.208 92.1242 178.107 91.6442 177.904C91.1642 177.691 90.7482 177.392 90.3962 177.008C90.0549 176.624 89.7882 176.165 89.5962 175.632C89.4042 175.099 89.3082 174.501 89.3082 173.84C89.3082 173.189 89.4042 172.597 89.5962 172.064C89.7882 171.52 90.0549 171.056 90.3962 170.672C90.7482 170.288 91.1642 169.995 91.6442 169.792C92.1242 169.579 92.6469 169.472 93.2122 169.472C93.7775 169.472 94.3002 169.579 94.7802 169.792C95.2602 169.995 95.6709 170.288 96.0122 170.672C96.3642 171.056 96.6362 171.52 96.8282 172.064C97.0202 172.597 97.1162 173.189 97.1162 173.84ZM95.5642 173.84C95.5642 172.901 95.3509 172.16 94.9242 171.616C94.5082 171.061 93.9375 170.784 93.2122 170.784C92.4869 170.784 91.9109 171.061 91.4842 171.616C91.0682 172.16 90.8602 172.901 90.8602 173.84C90.8602 174.779 91.0682 175.525 91.4842 176.08C91.9109 176.624 92.4869 176.896 93.2122 176.896C93.9375 176.896 94.5082 176.624 94.9242 176.08C95.3509 175.525 95.5642 174.779 95.5642 173.84ZM106.161 165.584C106.598 165.584 106.971 165.616 107.281 165.68C107.601 165.744 107.825 165.803 107.953 165.856L107.681 167.136C107.553 167.072 107.371 167.013 107.137 166.96C106.902 166.896 106.614 166.864 106.273 166.864C105.579 166.864 105.094 167.056 104.817 167.44C104.539 167.813 104.401 168.32 104.401 168.96V169.68H107.601V170.928H104.401V178H102.913V168.928C102.913 167.861 103.174 167.04 103.697 166.464C104.219 165.877 105.041 165.584 106.161 165.584ZM111.901 176.928C112.253 176.928 112.562 176.923 112.829 176.912C113.106 176.891 113.335 176.859 113.517 176.816V174.336C113.41 174.283 113.234 174.24 112.989 174.208C112.754 174.165 112.466 174.144 112.125 174.144C111.901 174.144 111.661 174.16 111.405 174.192C111.159 174.224 110.93 174.293 110.717 174.4C110.514 174.496 110.343 174.635 110.205 174.816C110.066 174.987 109.997 175.216 109.997 175.504C109.997 176.037 110.167 176.411 110.509 176.624C110.85 176.827 111.314 176.928 111.901 176.928ZM111.773 169.472C112.37 169.472 112.871 169.552 113.277 169.712C113.693 169.861 114.023 170.08 114.269 170.368C114.525 170.645 114.706 170.981 114.813 171.376C114.919 171.76 114.973 172.187 114.973 172.656V177.856C114.845 177.877 114.663 177.909 114.429 177.952C114.205 177.984 113.949 178.016 113.661 178.048C113.373 178.08 113.058 178.107 112.717 178.128C112.386 178.16 112.055 178.176 111.725 178.176C111.255 178.176 110.823 178.128 110.429 178.032C110.034 177.936 109.693 177.787 109.405 177.584C109.117 177.371 108.893 177.093 108.733 176.752C108.573 176.411 108.493 176 108.493 175.52C108.493 175.061 108.583 174.667 108.765 174.336C108.957 174.005 109.213 173.739 109.533 173.536C109.853 173.333 110.226 173.184 110.653 173.088C111.079 172.992 111.527 172.944 111.997 172.944C112.146 172.944 112.301 172.955 112.461 172.976C112.621 172.987 112.77 173.008 112.909 173.04C113.058 173.061 113.186 173.083 113.293 173.104C113.399 173.125 113.474 173.141 113.517 173.152V172.736C113.517 172.491 113.49 172.251 113.437 172.016C113.383 171.771 113.287 171.557 113.149 171.376C113.01 171.184 112.818 171.035 112.573 170.928C112.338 170.811 112.029 170.752 111.645 170.752C111.154 170.752 110.722 170.789 110.349 170.864C109.986 170.928 109.714 170.997 109.533 171.072L109.357 169.84C109.549 169.755 109.869 169.675 110.317 169.6C110.765 169.515 111.25 169.472 111.773 169.472ZM120.516 169.504C120.644 169.504 120.788 169.515 120.948 169.536C121.119 169.547 121.284 169.568 121.444 169.6C121.604 169.621 121.748 169.648 121.876 169.68C122.015 169.701 122.116 169.723 122.18 169.744L121.924 171.04C121.807 170.997 121.609 170.949 121.332 170.896C121.065 170.832 120.719 170.8 120.292 170.8C120.015 170.8 119.737 170.832 119.46 170.896C119.193 170.949 119.017 170.987 118.932 171.008V178H117.444V170.032C117.796 169.904 118.233 169.787 118.756 169.68C119.279 169.563 119.865 169.504 120.516 169.504ZM123.616 169.92C123.957 169.835 124.405 169.744 124.96 169.648C125.525 169.552 126.176 169.504 126.912 169.504C127.445 169.504 127.893 169.579 128.256 169.728C128.619 169.867 128.923 170.075 129.168 170.352C129.243 170.299 129.36 170.224 129.52 170.128C129.68 170.032 129.877 169.941 130.112 169.856C130.347 169.76 130.608 169.68 130.896 169.616C131.184 169.541 131.493 169.504 131.824 169.504C132.464 169.504 132.987 169.6 133.392 169.792C133.797 169.973 134.112 170.235 134.336 170.576C134.571 170.917 134.725 171.323 134.8 171.792C134.885 172.261 134.928 172.773 134.928 173.328V178H133.44V173.648C133.44 173.157 133.413 172.736 133.36 172.384C133.317 172.032 133.227 171.739 133.088 171.504C132.96 171.269 132.779 171.099 132.544 170.992C132.32 170.875 132.027 170.816 131.664 170.816C131.163 170.816 130.747 170.885 130.416 171.024C130.096 171.152 129.877 171.269 129.76 171.376C129.845 171.653 129.909 171.957 129.952 172.288C129.995 172.619 130.016 172.965 130.016 173.328V178H128.528V173.648C128.528 173.157 128.501 172.736 128.448 172.384C128.395 172.032 128.299 171.739 128.16 171.504C128.032 171.269 127.851 171.099 127.616 170.992C127.392 170.875 127.104 170.816 126.752 170.816C126.603 170.816 126.443 170.821 126.272 170.832C126.101 170.843 125.936 170.859 125.776 170.88C125.627 170.891 125.488 170.907 125.36 170.928C125.232 170.949 125.147 170.965 125.104 170.976V178H123.616V169.92ZM140.213 176.928C140.565 176.928 140.875 176.923 141.141 176.912C141.419 176.891 141.648 176.859 141.829 176.816V174.336C141.723 174.283 141.547 174.24 141.301 174.208C141.067 174.165 140.779 174.144 140.437 174.144C140.213 174.144 139.973 174.16 139.717 174.192C139.472 174.224 139.243 174.293 139.029 174.4C138.827 174.496 138.656 174.635 138.517 174.816C138.379 174.987 138.309 175.216 138.309 175.504C138.309 176.037 138.48 176.411 138.821 176.624C139.163 176.827 139.627 176.928 140.213 176.928ZM140.085 169.472C140.683 169.472 141.184 169.552 141.589 169.712C142.005 169.861 142.336 170.08 142.581 170.368C142.837 170.645 143.019 170.981 143.125 171.376C143.232 171.76 143.285 172.187 143.285 172.656V177.856C143.157 177.877 142.976 177.909 142.741 177.952C142.517 177.984 142.261 178.016 141.973 178.048C141.685 178.08 141.371 178.107 141.029 178.128C140.699 178.16 140.368 178.176 140.037 178.176C139.568 178.176 139.136 178.128 138.741 178.032C138.347 177.936 138.005 177.787 137.717 177.584C137.429 177.371 137.205 177.093 137.045 176.752C136.885 176.411 136.805 176 136.805 175.52C136.805 175.061 136.896 174.667 137.077 174.336C137.269 174.005 137.525 173.739 137.845 173.536C138.165 173.333 138.539 173.184 138.965 173.088C139.392 172.992 139.84 172.944 140.309 172.944C140.459 172.944 140.613 172.955 140.773 172.976C140.933 172.987 141.083 173.008 141.221 173.04C141.371 173.061 141.499 173.083 141.605 173.104C141.712 173.125 141.787 173.141 141.829 173.152V172.736C141.829 172.491 141.803 172.251 141.749 172.016C141.696 171.771 141.6 171.557 141.461 171.376C141.323 171.184 141.131 171.035 140.885 170.928C140.651 170.811 140.341 170.752 139.957 170.752C139.467 170.752 139.035 170.789 138.661 170.864C138.299 170.928 138.027 170.997 137.845 171.072L137.669 169.84C137.861 169.755 138.181 169.675 138.629 169.6C139.077 169.515 139.563 169.472 140.085 169.472ZM142.261 166.528L140.005 168.72L139.253 168.048L141.301 165.584L142.261 166.528ZM149.373 178.192C148.701 178.192 148.109 178.085 147.597 177.872C147.095 177.659 146.669 177.36 146.317 176.976C145.975 176.592 145.719 176.139 145.549 175.616C145.378 175.083 145.293 174.496 145.293 173.856C145.293 173.216 145.383 172.629 145.565 172.096C145.757 171.563 146.023 171.104 146.365 170.72C146.706 170.325 147.122 170.021 147.613 169.808C148.114 169.584 148.669 169.472 149.277 169.472C149.65 169.472 150.023 169.504 150.397 169.568C150.77 169.632 151.127 169.733 151.469 169.872L151.133 171.136C150.909 171.029 150.647 170.944 150.349 170.88C150.061 170.816 149.751 170.784 149.421 170.784C148.589 170.784 147.949 171.045 147.501 171.568C147.063 172.091 146.845 172.853 146.845 173.856C146.845 174.304 146.893 174.715 146.989 175.088C147.095 175.461 147.255 175.781 147.469 176.048C147.693 176.315 147.975 176.523 148.317 176.672C148.658 176.811 149.074 176.88 149.565 176.88C149.959 176.88 150.317 176.843 150.637 176.768C150.957 176.693 151.207 176.613 151.389 176.528L151.597 177.776C151.511 177.829 151.389 177.883 151.229 177.936C151.069 177.979 150.887 178.016 150.685 178.048C150.482 178.091 150.263 178.123 150.029 178.144C149.805 178.176 149.586 178.192 149.373 178.192ZM154.682 178H153.194V169.68H154.682V178ZM153.93 168.176C153.663 168.176 153.434 168.091 153.242 167.92C153.061 167.739 152.97 167.499 152.97 167.2C152.97 166.901 153.061 166.667 153.242 166.496C153.434 166.315 153.663 166.224 153.93 166.224C154.197 166.224 154.421 166.315 154.602 166.496C154.794 166.667 154.89 166.901 154.89 167.2C154.89 167.499 154.794 167.739 154.602 167.92C154.421 168.091 154.197 168.176 153.93 168.176ZM160.057 176.928C160.409 176.928 160.718 176.923 160.985 176.912C161.262 176.891 161.492 176.859 161.673 176.816V174.336C161.566 174.283 161.39 174.24 161.145 174.208C160.91 174.165 160.622 174.144 160.281 174.144C160.057 174.144 159.817 174.16 159.561 174.192C159.316 174.224 159.086 174.293 158.873 174.4C158.67 174.496 158.5 174.635 158.361 174.816C158.222 174.987 158.153 175.216 158.153 175.504C158.153 176.037 158.324 176.411 158.665 176.624C159.006 176.827 159.47 176.928 160.057 176.928ZM159.929 169.472C160.526 169.472 161.028 169.552 161.433 169.712C161.849 169.861 162.18 170.08 162.425 170.368C162.681 170.645 162.862 170.981 162.969 171.376C163.076 171.76 163.129 172.187 163.129 172.656V177.856C163.001 177.877 162.82 177.909 162.585 177.952C162.361 177.984 162.105 178.016 161.817 178.048C161.529 178.08 161.214 178.107 160.873 178.128C160.542 178.16 160.212 178.176 159.881 178.176C159.412 178.176 158.98 178.128 158.585 178.032C158.19 177.936 157.849 177.787 157.561 177.584C157.273 177.371 157.049 177.093 156.889 176.752C156.729 176.411 156.649 176 156.649 175.52C156.649 175.061 156.74 174.667 156.921 174.336C157.113 174.005 157.369 173.739 157.689 173.536C158.009 173.333 158.382 173.184 158.809 173.088C159.236 172.992 159.684 172.944 160.153 172.944C160.302 172.944 160.457 172.955 160.617 172.976C160.777 172.987 160.926 173.008 161.065 173.04C161.214 173.061 161.342 173.083 161.449 173.104C161.556 173.125 161.63 173.141 161.673 173.152V172.736C161.673 172.491 161.646 172.251 161.593 172.016C161.54 171.771 161.444 171.557 161.305 171.376C161.166 171.184 160.974 171.035 160.729 170.928C160.494 170.811 160.185 170.752 159.801 170.752C159.31 170.752 158.878 170.789 158.505 170.864C158.142 170.928 157.87 170.997 157.689 171.072L157.513 169.84C157.705 169.755 158.025 169.675 158.473 169.6C158.921 169.515 159.406 169.472 159.929 169.472ZM167.536 176.928C168.144 176.928 168.592 176.848 168.88 176.688C169.179 176.528 169.328 176.272 169.328 175.92C169.328 175.557 169.184 175.269 168.896 175.056C168.608 174.843 168.134 174.603 167.472 174.336C167.152 174.208 166.843 174.08 166.544 173.952C166.256 173.813 166.006 173.653 165.792 173.472C165.579 173.291 165.408 173.072 165.28 172.816C165.152 172.56 165.088 172.245 165.088 171.872C165.088 171.136 165.36 170.555 165.904 170.128C166.448 169.691 167.19 169.472 168.128 169.472C168.363 169.472 168.598 169.488 168.832 169.52C169.067 169.541 169.286 169.573 169.488 169.616C169.691 169.648 169.867 169.685 170.016 169.728C170.176 169.771 170.299 169.808 170.384 169.84L170.112 171.12C169.952 171.035 169.702 170.949 169.36 170.864C169.019 170.768 168.608 170.72 168.128 170.72C167.712 170.72 167.35 170.805 167.04 170.976C166.731 171.136 166.576 171.392 166.576 171.744C166.576 171.925 166.608 172.085 166.672 172.224C166.747 172.363 166.854 172.491 166.992 172.608C167.142 172.715 167.323 172.816 167.536 172.912C167.75 173.008 168.006 173.109 168.304 173.216C168.699 173.365 169.051 173.515 169.36 173.664C169.67 173.803 169.931 173.968 170.144 174.16C170.368 174.352 170.539 174.587 170.656 174.864C170.774 175.131 170.832 175.461 170.832 175.856C170.832 176.624 170.544 177.205 169.968 177.6C169.403 177.995 168.592 178.192 167.536 178.192C166.8 178.192 166.224 178.128 165.808 178C165.392 177.883 165.11 177.792 164.96 177.728L165.232 176.448C165.403 176.512 165.675 176.608 166.048 176.736C166.422 176.864 166.918 176.928 167.536 176.928ZM174.501 177.136C174.501 177.424 174.405 177.675 174.213 177.888C174.021 178.101 173.76 178.208 173.429 178.208C173.098 178.208 172.837 178.101 172.645 177.888C172.453 177.675 172.357 177.424 172.357 177.136C172.357 176.848 172.453 176.597 172.645 176.384C172.837 176.171 173.098 176.064 173.429 176.064C173.76 176.064 174.021 176.171 174.213 176.384C174.405 176.597 174.501 176.848 174.501 177.136Z" fill="#2F2F2F"/>
</svg>
