<svg width="88" height="82" viewBox="0 0 88 82" fill="none" xmlns="http://www.w3.org/2000/svg">
<circle cx="44.325" cy="41.3259" r="40.4148" fill="#BADBFE"/>
<path d="M80.9574 36.094C81.8216 33.7331 82.2748 31.2192 82.2748 28.6559C82.2748 16.7302 72.5725 7.02783 60.6466 7.02783C54.1535 7.02783 48.069 9.94953 44 14.849C39.931 9.94953 33.8463 7.02783 27.3532 7.02783C15.4273 7.02783 5.72498 16.7302 5.72498 28.6559C5.72498 33.5035 7.34164 38.175 10.3049 41.9664H0V47.1227H15.1982C23.5776 55.4369 41.3041 72.3943 42.218 73.2683L44 74.9721L45.782 73.2679C46.9007 72.1979 73.2243 47.0166 76.7363 43.1094C77.2709 42.5147 77.7688 41.8935 78.2301 41.25H88V36.0938H80.9574V36.094ZM44 67.8353C39.929 63.9341 29.7497 54.1646 22.5479 47.1225H32.5849L37.3149 39.6265L46.2327 52.1113L54.9215 41.2502H71.3821C65.8274 46.8915 49.4464 62.616 44 67.8353ZM75.3428 36.094H52.4432L46.4654 43.5662L37.0497 30.3843L29.7416 41.9664H17.3272C16.2898 40.9242 15.5145 40.1256 15.0985 39.6628C12.379 36.6373 10.8812 32.7281 10.8812 28.6559C10.8812 19.5732 18.2705 12.1841 27.3532 12.1841C33.3211 12.1841 38.8369 15.4263 41.7484 20.6455L44 24.6815L46.2516 20.6455C49.1631 15.4263 54.6789 12.1841 60.6468 12.1841C69.7295 12.1841 77.1188 19.5733 77.1188 28.6559C77.1188 31.2658 76.5005 33.8077 75.3428 36.094Z" fill="#00309E"/>
</svg>
