<svg width="88" height="88" viewBox="0 0 88 88" fill="none" xmlns="http://www.w3.org/2000/svg">
<circle cx="44.325" cy="44.3259" r="40.4148" fill="#BADBFE"/>
<path d="M10.3535 72.4706H41.4123V46.5883H10.3535V72.4706ZM15.53 51.7647H36.2359V67.2941H15.53V51.7647Z" fill="#00309E"/>
<path d="M61.932 20.7059C63.4958 9.82097 55.0471 0 44 0C32.9712 0 24.5013 9.8013 26.068 20.7059H0V88H88V20.7059H61.932ZM82.8235 31.0588H56.6749C58.1835 29.5844 59.4438 27.8394 60.3728 25.8824H82.8235V31.0588ZM44 5.17647C51.1358 5.17647 56.9412 10.9819 56.9412 18.1176C56.9412 25.368 51.0198 31.0588 44 31.0588C36.8342 31.0588 31.0588 25.223 31.0588 18.1176C31.0588 10.9819 36.8642 5.17647 44 5.17647ZM27.6272 25.8824C28.5562 27.8394 29.8165 29.5844 31.3251 31.0588H5.17647V25.8824H27.6272ZM51.7647 82.8235V51.7647H72.4706V82.8235H51.7647ZM77.6471 82.8235V46.5882H46.5882V82.8235H5.17647V36.2353H82.8235V82.8235H77.6471Z" fill="#00309E"/>
<path d="M41.4128 25.8823H46.5893V20.7058H51.7657V15.5294H46.5893V10.3529H41.4128V15.5294H36.2363V20.7058H41.4128V25.8823Z" fill="#00309E"/>
</svg>
