<svg width="749" height="475" viewBox="0 0 749 475" fill="none" xmlns="http://www.w3.org/2000/svg">
<path d="M455.856 331.263C421.823 405.799 274.3 421.061 186.153 380.813C98.0052 340.565 68.5006 269.316 102.534 194.78C136.567 120.244 257.673 74.4816 345.82 114.73C433.968 154.978 489.889 256.727 455.856 331.263Z" fill="white"/>
<path d="M620.911 334.696C666.108 323.815 718.374 261.246 710.05 197.398" stroke="#FFFE06" stroke-width="7.00076" stroke-linecap="round" stroke-linejoin="round"/>
<ellipse cx="522.657" cy="189.73" rx="172.972" ry="151.41" transform="rotate(14.4266 522.657 189.73)" fill="#00309E"/>
<path d="M367.994 165.655C370.082 157.542 378.35 152.657 386.463 154.744L485.729 180.28C493.342 182.238 498.197 189.689 496.915 197.444L484.307 273.706C483.151 280.694 477.313 285.953 470.242 286.373L355.644 293.187C345.376 293.797 337.491 284.228 340.054 274.266L367.994 165.655Z" fill="#00309E"/>
<path d="M428.085 145.574C428.649 145.574 429.112 145.531 429.471 145.445C429.847 145.343 430.147 145.214 430.369 145.06C430.592 144.889 430.746 144.692 430.831 144.47C430.917 144.248 430.96 143.999 430.96 143.726C430.96 143.144 430.686 142.665 430.138 142.288C429.591 141.894 428.649 141.475 427.315 141.03C426.733 140.825 426.151 140.594 425.569 140.337C424.987 140.063 424.465 139.73 424.003 139.336C423.541 138.925 423.165 138.438 422.874 137.873C422.583 137.291 422.437 136.589 422.437 135.768C422.437 134.947 422.592 134.211 422.9 133.56C423.208 132.893 423.644 132.328 424.209 131.866C424.773 131.404 425.458 131.053 426.262 130.814C427.067 130.557 427.974 130.429 428.983 130.429C430.181 130.429 431.216 130.557 432.089 130.814C432.962 131.071 433.681 131.353 434.245 131.661L433.09 134.818C432.594 134.562 432.038 134.339 431.422 134.151C430.823 133.946 430.096 133.843 429.24 133.843C428.282 133.843 427.588 133.98 427.161 134.254C426.75 134.51 426.545 134.912 426.545 135.46C426.545 135.785 426.622 136.059 426.776 136.281C426.93 136.504 427.144 136.709 427.417 136.897C427.708 137.069 428.033 137.231 428.393 137.385C428.769 137.522 429.18 137.668 429.625 137.822C430.549 138.164 431.353 138.506 432.038 138.848C432.722 139.174 433.287 139.559 433.732 140.003C434.194 140.448 434.536 140.97 434.759 141.569C434.981 142.168 435.093 142.896 435.093 143.751C435.093 145.411 434.511 146.703 433.347 147.627C432.183 148.534 430.429 148.988 428.085 148.988C427.298 148.988 426.587 148.936 425.954 148.834C425.321 148.748 424.756 148.637 424.26 148.5C423.781 148.363 423.362 148.218 423.002 148.064C422.66 147.91 422.369 147.764 422.129 147.627L423.259 144.444C423.789 144.735 424.44 145 425.21 145.24C425.997 145.463 426.955 145.574 428.085 145.574ZM443.377 145.959C443.754 145.959 444.113 145.95 444.455 145.933C444.798 145.916 445.072 145.89 445.277 145.856V142.955C445.123 142.921 444.892 142.887 444.584 142.853C444.276 142.819 443.993 142.801 443.737 142.801C443.377 142.801 443.035 142.827 442.71 142.878C442.402 142.913 442.128 142.99 441.889 143.109C441.649 143.229 441.461 143.392 441.324 143.597C441.187 143.803 441.118 144.059 441.118 144.367C441.118 144.966 441.315 145.386 441.709 145.625C442.12 145.848 442.676 145.959 443.377 145.959ZM443.069 134.767C444.199 134.767 445.14 134.895 445.893 135.152C446.646 135.409 447.245 135.777 447.69 136.256C448.152 136.735 448.477 137.317 448.665 138.001C448.853 138.686 448.948 139.447 448.948 140.286V148.243C448.4 148.363 447.638 148.5 446.663 148.654C445.688 148.825 444.507 148.911 443.121 148.911C442.248 148.911 441.452 148.834 440.733 148.68C440.032 148.526 439.424 148.278 438.911 147.935C438.397 147.576 438.004 147.114 437.73 146.549C437.456 145.984 437.319 145.291 437.319 144.47C437.319 143.683 437.473 143.015 437.781 142.468C438.107 141.92 438.534 141.484 439.065 141.159C439.595 140.833 440.203 140.602 440.887 140.466C441.572 140.312 442.282 140.235 443.018 140.235C443.514 140.235 443.951 140.26 444.327 140.312C444.721 140.346 445.037 140.397 445.277 140.466V140.106C445.277 139.456 445.08 138.934 444.686 138.54C444.293 138.147 443.608 137.95 442.633 137.95C441.983 137.95 441.341 138.001 440.708 138.104C440.075 138.19 439.527 138.318 439.065 138.489L438.577 135.409C438.8 135.34 439.073 135.272 439.399 135.203C439.741 135.118 440.109 135.049 440.502 134.998C440.896 134.929 441.307 134.878 441.734 134.844C442.179 134.793 442.624 134.767 443.069 134.767ZM461.057 141.775C461.057 139.31 460.15 138.078 458.336 138.078C457.942 138.078 457.549 138.13 457.155 138.232C456.779 138.335 456.47 138.463 456.231 138.617V145.574C456.419 145.608 456.659 145.642 456.95 145.676C457.241 145.694 457.557 145.702 457.899 145.702C458.943 145.702 459.731 145.343 460.261 144.624C460.792 143.905 461.057 142.955 461.057 141.775ZM464.959 141.877C464.959 142.955 464.796 143.931 464.471 144.804C464.163 145.676 463.709 146.421 463.11 147.037C462.511 147.653 461.775 148.132 460.903 148.474C460.03 148.8 459.037 148.962 457.925 148.962C457.463 148.962 456.975 148.936 456.462 148.885C455.966 148.851 455.469 148.8 454.973 148.731C454.494 148.663 454.032 148.586 453.587 148.5C453.142 148.397 452.748 148.295 452.406 148.192V129.325L456.231 128.709V135.434C456.659 135.246 457.104 135.101 457.566 134.998C458.028 134.895 458.524 134.844 459.055 134.844C460.013 134.844 460.86 135.015 461.596 135.357C462.332 135.682 462.948 136.153 463.444 136.769C463.94 137.385 464.317 138.13 464.573 139.002C464.83 139.858 464.959 140.816 464.959 141.877ZM471.723 148.628H467.898V135.126H471.723V148.628ZM472.082 131.225C472.082 131.926 471.851 132.482 471.389 132.893C470.944 133.287 470.414 133.483 469.798 133.483C469.182 133.483 468.642 133.287 468.18 132.893C467.735 132.482 467.513 131.926 467.513 131.225C467.513 130.523 467.735 129.975 468.18 129.582C468.642 129.171 469.182 128.966 469.798 128.966C470.414 128.966 470.944 129.171 471.389 129.582C471.851 129.975 472.082 130.523 472.082 131.225ZM480.478 145.959C480.854 145.959 481.214 145.95 481.556 145.933C481.898 145.916 482.172 145.89 482.377 145.856V142.955C482.223 142.921 481.992 142.887 481.684 142.853C481.376 142.819 481.094 142.801 480.837 142.801C480.478 142.801 480.135 142.827 479.81 142.878C479.502 142.913 479.228 142.99 478.989 143.109C478.749 143.229 478.561 143.392 478.424 143.597C478.287 143.803 478.219 144.059 478.219 144.367C478.219 144.966 478.416 145.386 478.809 145.625C479.22 145.848 479.776 145.959 480.478 145.959ZM480.17 134.767C481.299 134.767 482.24 134.895 482.993 135.152C483.746 135.409 484.345 135.777 484.79 136.256C485.252 136.735 485.577 137.317 485.766 138.001C485.954 138.686 486.048 139.447 486.048 140.286V148.243C485.5 148.363 484.739 148.5 483.763 148.654C482.788 148.825 481.607 148.911 480.221 148.911C479.348 148.911 478.552 148.834 477.834 148.68C477.132 148.526 476.525 148.278 476.011 147.935C475.498 147.576 475.104 147.114 474.83 146.549C474.557 145.984 474.42 145.291 474.42 144.47C474.42 143.683 474.574 143.015 474.882 142.468C475.207 141.92 475.635 141.484 476.165 141.159C476.696 140.833 477.303 140.602 477.988 140.466C478.672 140.312 479.382 140.235 480.118 140.235C480.615 140.235 481.051 140.26 481.427 140.312C481.821 140.346 482.138 140.397 482.377 140.466V140.106C482.377 139.456 482.18 138.934 481.787 138.54C481.393 138.147 480.709 137.95 479.733 137.95C479.083 137.95 478.441 138.001 477.808 138.104C477.175 138.19 476.627 138.318 476.165 138.489L475.678 135.409C475.9 135.34 476.174 135.272 476.499 135.203C476.841 135.118 477.209 135.049 477.603 134.998C477.996 134.929 478.407 134.878 478.835 134.844C479.28 134.793 479.725 134.767 480.17 134.767Z" fill="#FFFE06"/>
<path d="M498.933 141.98C498.933 144.427 499.84 145.651 501.654 145.651C502.048 145.651 502.433 145.599 502.809 145.497C503.203 145.394 503.519 145.266 503.759 145.112V138.207C503.571 138.172 503.331 138.147 503.04 138.13C502.749 138.095 502.433 138.078 502.091 138.078C501.047 138.078 500.259 138.438 499.729 139.156C499.198 139.858 498.933 140.799 498.933 141.98ZM495.031 141.877C495.031 140.833 495.185 139.884 495.494 139.028C495.819 138.155 496.281 137.411 496.88 136.795C497.479 136.162 498.214 135.674 499.087 135.332C499.96 134.989 500.953 134.818 502.065 134.818C502.527 134.818 503.006 134.844 503.502 134.895C504.016 134.929 504.512 134.981 504.991 135.049C505.487 135.118 505.958 135.203 506.403 135.306C506.848 135.392 507.242 135.486 507.584 135.588V153.377H503.759V148.295C503.331 148.483 502.886 148.628 502.424 148.731C501.962 148.834 501.466 148.885 500.935 148.885C499.019 148.885 497.556 148.26 496.546 147.011C495.536 145.745 495.031 144.034 495.031 141.877ZM522.691 148.166C522.04 148.355 521.202 148.526 520.175 148.68C519.148 148.851 518.07 148.936 516.941 148.936C515.794 148.936 514.836 148.782 514.066 148.474C513.313 148.166 512.714 147.739 512.269 147.191C511.824 146.626 511.507 145.959 511.319 145.189C511.131 144.419 511.037 143.572 511.037 142.647V135.126H514.861V142.185C514.861 143.418 515.024 144.307 515.349 144.855C515.674 145.403 516.282 145.676 517.172 145.676C517.446 145.676 517.736 145.668 518.045 145.651C518.353 145.617 518.626 145.582 518.866 145.548V135.126H522.691V148.166ZM525.639 141.98C525.639 140.782 525.819 139.738 526.178 138.848C526.555 137.941 527.043 137.188 527.641 136.589C528.24 135.99 528.925 135.537 529.695 135.229C530.482 134.921 531.287 134.767 532.108 134.767C534.025 134.767 535.539 135.357 536.651 136.538C537.764 137.702 538.32 139.422 538.32 141.698C538.32 141.92 538.311 142.168 538.294 142.442C538.277 142.699 538.26 142.93 538.243 143.135H529.567C529.652 143.922 530.02 144.547 530.67 145.009C531.321 145.471 532.194 145.702 533.289 145.702C533.99 145.702 534.675 145.642 535.342 145.522C536.027 145.386 536.583 145.223 537.011 145.035L537.524 148.141C537.319 148.243 537.045 148.346 536.703 148.449C536.361 148.551 535.975 148.637 535.548 148.705C535.137 148.791 534.692 148.859 534.213 148.911C533.734 148.962 533.255 148.988 532.775 148.988C531.56 148.988 530.499 148.808 529.592 148.449C528.702 148.089 527.958 147.602 527.359 146.986C526.777 146.352 526.341 145.608 526.05 144.752C525.776 143.897 525.639 142.973 525.639 141.98ZM534.624 140.517C534.606 140.192 534.547 139.875 534.444 139.567C534.358 139.259 534.213 138.985 534.007 138.746C533.819 138.506 533.571 138.309 533.263 138.155C532.972 138.001 532.604 137.924 532.159 137.924C531.731 137.924 531.364 138.001 531.055 138.155C530.747 138.292 530.491 138.48 530.285 138.72C530.08 138.96 529.917 139.242 529.798 139.567C529.695 139.875 529.618 140.192 529.567 140.517H534.624ZM547.438 135.588C548.089 135.4 548.927 135.229 549.954 135.075C550.981 134.904 552.059 134.818 553.188 134.818C554.335 134.818 555.285 134.972 556.037 135.28C556.808 135.571 557.415 135.99 557.86 136.538C558.305 137.086 558.622 137.736 558.81 138.489C558.998 139.242 559.092 140.08 559.092 141.005V148.628H555.267V141.467C555.267 140.235 555.105 139.362 554.78 138.848C554.455 138.335 553.847 138.078 552.957 138.078C552.683 138.078 552.392 138.095 552.084 138.13C551.776 138.147 551.503 138.172 551.263 138.207V148.628H547.438V135.588ZM575.183 141.852C575.183 142.913 575.029 143.888 574.721 144.778C574.413 145.651 573.968 146.404 573.387 147.037C572.805 147.653 572.103 148.132 571.282 148.474C570.477 148.817 569.57 148.988 568.561 148.988C567.568 148.988 566.661 148.817 565.84 148.474C565.035 148.132 564.342 147.653 563.761 147.037C563.179 146.404 562.725 145.651 562.4 144.778C562.075 143.888 561.912 142.913 561.912 141.852C561.912 140.791 562.075 139.824 562.4 138.951C562.742 138.078 563.204 137.334 563.786 136.718C564.385 136.102 565.087 135.623 565.891 135.28C566.713 134.938 567.602 134.767 568.561 134.767C569.536 134.767 570.426 134.938 571.23 135.28C572.052 135.623 572.753 136.102 573.335 136.718C573.917 137.334 574.371 138.078 574.696 138.951C575.021 139.824 575.183 140.791 575.183 141.852ZM571.282 141.852C571.282 140.671 571.042 139.747 570.563 139.079C570.101 138.395 569.434 138.053 568.561 138.053C567.688 138.053 567.012 138.395 566.533 139.079C566.054 139.747 565.814 140.671 565.814 141.852C565.814 143.032 566.054 143.974 566.533 144.675C567.012 145.36 567.688 145.702 568.561 145.702C569.434 145.702 570.101 145.36 570.563 144.675C571.042 143.974 571.282 143.032 571.282 141.852ZM428.085 178.574C428.649 178.574 429.112 178.531 429.471 178.445C429.847 178.343 430.147 178.214 430.369 178.06C430.592 177.889 430.746 177.692 430.831 177.47C430.917 177.248 430.96 176.999 430.96 176.726C430.96 176.144 430.686 175.665 430.138 175.288C429.591 174.894 428.649 174.475 427.315 174.03C426.733 173.825 426.151 173.594 425.569 173.337C424.987 173.063 424.465 172.73 424.003 172.336C423.541 171.925 423.165 171.438 422.874 170.873C422.583 170.291 422.437 169.589 422.437 168.768C422.437 167.947 422.592 167.211 422.9 166.56C423.208 165.893 423.644 165.328 424.209 164.866C424.773 164.404 425.458 164.053 426.262 163.814C427.067 163.557 427.974 163.429 428.983 163.429C430.181 163.429 431.216 163.557 432.089 163.814C432.962 164.071 433.681 164.353 434.245 164.661L433.09 167.818C432.594 167.562 432.038 167.339 431.422 167.151C430.823 166.946 430.096 166.843 429.24 166.843C428.282 166.843 427.588 166.98 427.161 167.254C426.75 167.51 426.545 167.912 426.545 168.46C426.545 168.785 426.622 169.059 426.776 169.281C426.93 169.504 427.144 169.709 427.417 169.897C427.708 170.069 428.033 170.231 428.393 170.385C428.769 170.522 429.18 170.668 429.625 170.822C430.549 171.164 431.353 171.506 432.038 171.848C432.722 172.174 433.287 172.559 433.732 173.003C434.194 173.448 434.536 173.97 434.759 174.569C434.981 175.168 435.093 175.896 435.093 176.751C435.093 178.411 434.511 179.703 433.347 180.627C432.183 181.534 430.429 181.988 428.085 181.988C427.298 181.988 426.587 181.936 425.954 181.834C425.321 181.748 424.756 181.637 424.26 181.5C423.781 181.363 423.362 181.218 423.002 181.064C422.66 180.91 422.369 180.764 422.129 180.627L423.259 177.444C423.789 177.735 424.44 178 425.21 178.24C425.997 178.463 426.955 178.574 428.085 178.574ZM449.443 181.166C448.792 181.355 447.954 181.526 446.927 181.68C445.9 181.851 444.822 181.936 443.693 181.936C442.546 181.936 441.588 181.782 440.818 181.474C440.065 181.166 439.466 180.739 439.021 180.191C438.576 179.626 438.259 178.959 438.071 178.189C437.883 177.419 437.789 176.572 437.789 175.647V168.126H441.613V175.185C441.613 176.418 441.776 177.307 442.101 177.855C442.426 178.403 443.034 178.676 443.924 178.676C444.197 178.676 444.488 178.668 444.796 178.651C445.104 178.617 445.378 178.582 445.618 178.548V168.126H449.443V181.166ZM461.683 174.98C461.683 173.799 461.418 172.858 460.888 172.156C460.357 171.438 459.57 171.078 458.526 171.078C458.184 171.078 457.867 171.095 457.576 171.13C457.285 171.147 457.046 171.172 456.858 171.207V178.112C457.097 178.266 457.405 178.394 457.782 178.497C458.175 178.599 458.569 178.651 458.962 178.651C460.776 178.651 461.683 177.427 461.683 174.98ZM465.585 174.877C465.585 175.921 465.457 176.871 465.2 177.727C464.943 178.582 464.567 179.318 464.071 179.934C463.574 180.55 462.958 181.029 462.223 181.372C461.487 181.714 460.64 181.885 459.681 181.885C459.151 181.885 458.654 181.834 458.192 181.731C457.73 181.628 457.285 181.483 456.858 181.295V186.377H453.033V168.588C453.375 168.486 453.769 168.392 454.214 168.306C454.659 168.203 455.121 168.118 455.6 168.049C456.096 167.981 456.592 167.929 457.089 167.895C457.602 167.844 458.09 167.818 458.552 167.818C459.664 167.818 460.657 167.989 461.529 168.332C462.402 168.657 463.138 169.127 463.737 169.743C464.336 170.342 464.789 171.078 465.097 171.951C465.423 172.824 465.585 173.799 465.585 174.877ZM467.883 174.98C467.883 173.782 468.063 172.738 468.422 171.848C468.799 170.941 469.286 170.188 469.885 169.589C470.484 168.99 471.169 168.537 471.939 168.229C472.726 167.921 473.53 167.767 474.352 167.767C476.268 167.767 477.783 168.357 478.895 169.538C480.008 170.702 480.564 172.422 480.564 174.698C480.564 174.92 480.555 175.168 480.538 175.442C480.521 175.699 480.504 175.93 480.487 176.135H471.81C471.896 176.922 472.264 177.547 472.914 178.009C473.565 178.471 474.437 178.702 475.533 178.702C476.234 178.702 476.919 178.642 477.586 178.522C478.271 178.386 478.827 178.223 479.255 178.035L479.768 181.141C479.563 181.243 479.289 181.346 478.947 181.449C478.604 181.551 478.219 181.637 477.791 181.705C477.381 181.791 476.936 181.859 476.457 181.911C475.977 181.962 475.498 181.988 475.019 181.988C473.804 181.988 472.743 181.808 471.836 181.449C470.946 181.089 470.202 180.602 469.603 179.986C469.021 179.352 468.585 178.608 468.294 177.752C468.02 176.897 467.883 175.973 467.883 174.98ZM476.867 173.517C476.85 173.192 476.79 172.875 476.688 172.567C476.602 172.259 476.457 171.985 476.251 171.746C476.063 171.506 475.815 171.309 475.507 171.155C475.216 171.001 474.848 170.924 474.403 170.924C473.975 170.924 473.607 171.001 473.299 171.155C472.991 171.292 472.735 171.48 472.529 171.72C472.324 171.96 472.161 172.242 472.041 172.567C471.939 172.875 471.862 173.192 471.81 173.517H476.867ZM491.653 171.515C491.31 171.429 490.908 171.344 490.446 171.258C489.984 171.155 489.488 171.104 488.957 171.104C488.718 171.104 488.427 171.13 488.084 171.181C487.759 171.215 487.511 171.258 487.34 171.309V181.628H483.515V168.845C484.2 168.605 485.004 168.383 485.928 168.178C486.869 167.955 487.913 167.844 489.06 167.844C489.265 167.844 489.513 167.861 489.804 167.895C490.095 167.912 490.386 167.947 490.677 167.998C490.968 168.032 491.259 168.084 491.55 168.152C491.841 168.203 492.089 168.272 492.294 168.357L491.653 171.515ZM512.679 181.628C512.49 181.012 512.276 180.379 512.037 179.729C511.814 179.079 511.592 178.428 511.369 177.778H504.439C504.216 178.428 503.985 179.079 503.746 179.729C503.523 180.379 503.318 181.012 503.13 181.628H498.971C499.639 179.712 500.272 177.941 500.871 176.315C501.47 174.689 502.051 173.158 502.616 171.72C503.198 170.283 503.763 168.922 504.31 167.639C504.875 166.338 505.457 165.072 506.056 163.839H509.881C510.462 165.072 511.036 166.338 511.6 167.639C512.165 168.922 512.73 170.283 513.295 171.72C513.876 173.158 514.467 174.689 515.066 176.315C515.665 177.941 516.298 179.712 516.965 181.628H512.679ZM507.878 167.87C507.793 168.126 507.664 168.477 507.493 168.922C507.322 169.367 507.125 169.88 506.903 170.462C506.68 171.044 506.432 171.686 506.159 172.387C505.902 173.089 505.637 173.825 505.363 174.595H510.42C510.146 173.825 509.881 173.089 509.624 172.387C509.367 171.686 509.119 171.044 508.88 170.462C508.657 169.88 508.46 169.367 508.289 168.922C508.118 168.477 507.981 168.126 507.878 167.87ZM530.537 181.166C529.887 181.355 529.048 181.526 528.021 181.68C526.995 181.851 525.916 181.936 524.787 181.936C523.64 181.936 522.682 181.782 521.912 181.474C521.159 181.166 520.56 180.739 520.115 180.191C519.67 179.626 519.354 178.959 519.165 178.189C518.977 177.419 518.883 176.572 518.883 175.647V168.126H522.708V175.185C522.708 176.418 522.87 177.307 523.195 177.855C523.521 178.403 524.128 178.676 525.018 178.676C525.292 178.676 525.583 178.668 525.891 178.651C526.199 178.617 526.473 178.582 526.712 178.548V168.126H530.537V181.166ZM533.999 164.764L537.824 164.148V168.126H542.418V171.309H537.824V176.058C537.824 176.862 537.961 177.504 538.234 177.983C538.525 178.463 539.099 178.702 539.954 178.702C540.365 178.702 540.784 178.668 541.212 178.599C541.657 178.514 542.059 178.403 542.418 178.266L542.957 181.243C542.495 181.432 541.982 181.594 541.417 181.731C540.853 181.868 540.16 181.936 539.338 181.936C538.294 181.936 537.43 181.8 536.745 181.526C536.061 181.235 535.513 180.841 535.103 180.345C534.692 179.832 534.401 179.215 534.23 178.497C534.076 177.778 533.999 176.982 533.999 176.109V164.764ZM557.661 174.852C557.661 175.913 557.507 176.888 557.199 177.778C556.891 178.651 556.446 179.404 555.864 180.037C555.282 180.653 554.581 181.132 553.759 181.474C552.955 181.817 552.048 181.988 551.038 181.988C550.046 181.988 549.139 181.817 548.317 181.474C547.513 181.132 546.82 180.653 546.238 180.037C545.656 179.404 545.203 178.651 544.878 177.778C544.553 176.888 544.39 175.913 544.39 174.852C544.39 173.791 544.553 172.824 544.878 171.951C545.22 171.078 545.682 170.334 546.264 169.718C546.863 169.102 547.564 168.623 548.369 168.28C549.19 167.938 550.08 167.767 551.038 167.767C552.014 167.767 552.904 167.938 553.708 168.28C554.529 168.623 555.231 169.102 555.813 169.718C556.395 170.334 556.848 171.078 557.173 171.951C557.498 172.824 557.661 173.791 557.661 174.852ZM553.759 174.852C553.759 173.671 553.52 172.747 553.041 172.079C552.579 171.395 551.911 171.053 551.038 171.053C550.166 171.053 549.49 171.395 549.01 172.079C548.531 172.747 548.292 173.671 548.292 174.852C548.292 176.032 548.531 176.974 549.01 177.675C549.49 178.36 550.166 178.702 551.038 178.702C551.911 178.702 552.579 178.36 553.041 177.675C553.52 176.974 553.759 176.032 553.759 174.852ZM563.466 177.727C563.5 178.137 563.518 178.428 563.518 178.599C563.535 178.771 563.543 178.916 563.543 179.036C563.543 179.549 563.492 180.097 563.389 180.679C563.304 181.243 563.175 181.817 563.004 182.399C562.833 182.98 562.619 183.562 562.362 184.144C562.106 184.726 561.815 185.282 561.49 185.813L558.486 185.068C558.88 183.939 559.154 182.878 559.308 181.885C559.462 180.893 559.539 180.071 559.539 179.421C559.539 179.318 559.53 179.19 559.513 179.036C559.513 178.865 559.505 178.694 559.487 178.522C559.487 178.351 559.479 178.189 559.462 178.035C559.462 177.881 559.462 177.778 559.462 177.727H563.466ZM576.001 181.628C575.129 179.917 574.239 177.915 573.332 175.622C572.442 173.329 571.595 170.83 570.79 168.126H574.846C575.017 168.794 575.214 169.521 575.437 170.308C575.676 171.078 575.916 171.865 576.155 172.67C576.412 173.457 576.66 174.227 576.9 174.98C577.156 175.733 577.405 176.418 577.644 177.034C577.867 176.418 578.106 175.733 578.363 174.98C578.62 174.227 578.868 173.457 579.107 172.67C579.364 171.865 579.604 171.078 579.826 170.308C580.066 169.521 580.271 168.794 580.442 168.126H584.395C583.591 170.83 582.735 173.329 581.828 175.622C580.938 177.915 580.057 179.917 579.184 181.628H576.001ZM598.722 174.852C598.722 175.913 598.568 176.888 598.26 177.778C597.952 178.651 597.507 179.404 596.925 180.037C596.343 180.653 595.642 181.132 594.82 181.474C594.016 181.817 593.109 181.988 592.099 181.988C591.107 181.988 590.2 181.817 589.378 181.474C588.574 181.132 587.881 180.653 587.299 180.037C586.717 179.404 586.264 178.651 585.939 177.778C585.614 176.888 585.451 175.913 585.451 174.852C585.451 173.791 585.614 172.824 585.939 171.951C586.281 171.078 586.743 170.334 587.325 169.718C587.924 169.102 588.625 168.623 589.43 168.28C590.251 167.938 591.141 167.767 592.099 167.767C593.075 167.767 593.965 167.938 594.769 168.28C595.59 168.623 596.292 169.102 596.874 169.718C597.456 170.334 597.909 171.078 598.234 171.951C598.56 172.824 598.722 173.791 598.722 174.852ZM594.82 174.852C594.82 173.671 594.581 172.747 594.102 172.079C593.64 171.395 592.972 171.053 592.099 171.053C591.227 171.053 590.551 171.395 590.072 172.079C589.592 172.747 589.353 173.671 589.353 174.852C589.353 176.032 589.592 176.974 590.072 177.675C590.551 178.36 591.227 178.702 592.099 178.702C592.972 178.702 593.64 178.36 594.102 177.675C594.581 176.974 594.82 176.032 594.82 174.852ZM601.043 174.877C601.043 173.902 601.197 172.986 601.505 172.131C601.83 171.258 602.292 170.505 602.891 169.872C603.49 169.222 604.218 168.708 605.073 168.332C605.929 167.955 606.904 167.767 608 167.767C608.718 167.767 609.377 167.835 609.976 167.972C610.575 168.092 611.157 168.272 611.722 168.511L610.926 171.566C610.567 171.429 610.173 171.309 609.745 171.207C609.317 171.104 608.838 171.053 608.308 171.053C607.178 171.053 606.331 171.403 605.766 172.105C605.219 172.807 604.945 173.731 604.945 174.877C604.945 176.092 605.202 177.034 605.715 177.701C606.246 178.368 607.161 178.702 608.462 178.702C608.924 178.702 609.42 178.659 609.951 178.574C610.481 178.488 610.969 178.351 611.414 178.163L611.953 181.295C611.508 181.483 610.952 181.646 610.284 181.782C609.617 181.919 608.881 181.988 608.077 181.988C606.845 181.988 605.784 181.808 604.894 181.449C604.004 181.072 603.268 180.567 602.686 179.934C602.121 179.301 601.702 178.557 601.428 177.701C601.172 176.828 601.043 175.887 601.043 174.877ZM613.226 174.98C613.226 173.782 613.406 172.738 613.765 171.848C614.142 170.941 614.629 170.188 615.228 169.589C615.827 168.99 616.512 168.537 617.282 168.229C618.069 167.921 618.873 167.767 619.695 167.767C621.612 167.767 623.126 168.357 624.238 169.538C625.351 170.702 625.907 172.422 625.907 174.698C625.907 174.92 625.898 175.168 625.881 175.442C625.864 175.699 625.847 175.93 625.83 176.135H617.154C617.239 176.922 617.607 177.547 618.257 178.009C618.908 178.471 619.78 178.702 620.876 178.702C621.577 178.702 622.262 178.642 622.929 178.522C623.614 178.386 624.17 178.223 624.598 178.035L625.111 181.141C624.906 181.243 624.632 181.346 624.29 181.449C623.947 181.551 623.562 181.637 623.135 181.705C622.724 181.791 622.279 181.859 621.8 181.911C621.321 181.962 620.841 181.988 620.362 181.988C619.147 181.988 618.086 181.808 617.179 181.449C616.289 181.089 615.545 180.602 614.946 179.986C614.364 179.352 613.928 178.608 613.637 177.752C613.363 176.897 613.226 175.973 613.226 174.98ZM622.21 173.517C622.193 173.192 622.133 172.875 622.031 172.567C621.945 172.259 621.8 171.985 621.594 171.746C621.406 171.506 621.158 171.309 620.85 171.155C620.559 171.001 620.191 170.924 619.746 170.924C619.318 170.924 618.95 171.001 618.642 171.155C618.334 171.292 618.078 171.48 617.872 171.72C617.667 171.96 617.504 172.242 617.385 172.567C617.282 172.875 617.205 173.192 617.154 173.517H622.21ZM623.545 165.072L622.133 166.766L619.567 164.789L617 166.766L615.536 165.072L619.567 161.555L623.545 165.072ZM422.848 197.764L426.673 197.148V201.126H431.268V204.309H426.673V209.058C426.673 209.862 426.81 210.504 427.084 210.983C427.375 211.463 427.948 211.702 428.804 211.702C429.214 211.702 429.633 211.668 430.061 211.599C430.506 211.514 430.908 211.403 431.268 211.266L431.807 214.243C431.345 214.432 430.831 214.594 430.267 214.731C429.702 214.868 429.009 214.936 428.187 214.936C427.144 214.936 426.279 214.8 425.595 214.526C424.91 214.235 424.363 213.841 423.952 213.345C423.541 212.832 423.25 212.215 423.079 211.497C422.925 210.778 422.848 209.982 422.848 209.109V197.764ZM433.239 207.98C433.239 206.782 433.419 205.738 433.778 204.848C434.155 203.941 434.643 203.188 435.242 202.589C435.84 201.99 436.525 201.537 437.295 201.229C438.082 200.921 438.887 200.767 439.708 200.767C441.625 200.767 443.139 201.357 444.251 202.538C445.364 203.702 445.92 205.422 445.92 207.698C445.92 207.92 445.911 208.168 445.894 208.442C445.877 208.699 445.86 208.93 445.843 209.135H437.167C437.252 209.922 437.62 210.547 438.271 211.009C438.921 211.471 439.794 211.702 440.889 211.702C441.59 211.702 442.275 211.642 442.942 211.522C443.627 211.386 444.183 211.223 444.611 211.035L445.124 214.141C444.919 214.243 444.645 214.346 444.303 214.449C443.961 214.551 443.576 214.637 443.148 214.705C442.737 214.791 442.292 214.859 441.813 214.911C441.334 214.962 440.855 214.988 440.375 214.988C439.16 214.988 438.099 214.808 437.192 214.449C436.303 214.089 435.558 213.602 434.959 212.986C434.377 212.352 433.941 211.608 433.65 210.752C433.376 209.897 433.239 208.973 433.239 207.98ZM442.224 206.517C442.206 206.192 442.147 205.875 442.044 205.567C441.958 205.259 441.813 204.985 441.608 204.746C441.419 204.506 441.171 204.309 440.863 204.155C440.572 204.001 440.204 203.924 439.759 203.924C439.332 203.924 438.964 204.001 438.656 204.155C438.348 204.292 438.091 204.48 437.885 204.72C437.68 204.96 437.518 205.242 437.398 205.567C437.295 205.875 437.218 206.192 437.167 206.517H442.224ZM443.558 198.072L442.147 199.766L439.58 197.789L437.013 199.766L435.55 198.072L439.58 194.555L443.558 198.072ZM456.29 207.467C456.29 206.235 456.127 205.362 455.802 204.848C455.494 204.335 454.955 204.078 454.185 204.078C453.946 204.078 453.697 204.095 453.441 204.13C453.184 204.147 452.936 204.172 452.696 204.207V214.628H448.872V201.588C449.197 201.503 449.573 201.417 450.001 201.332C450.446 201.229 450.908 201.143 451.387 201.075C451.883 200.989 452.388 200.929 452.902 200.895C453.415 200.844 453.92 200.818 454.416 200.818C455.392 200.818 456.179 200.947 456.778 201.203C457.394 201.443 457.899 201.734 458.292 202.076C458.84 201.682 459.465 201.374 460.166 201.152C460.885 200.929 461.544 200.818 462.143 200.818C463.221 200.818 464.102 200.972 464.787 201.28C465.488 201.571 466.044 201.99 466.455 202.538C466.866 203.086 467.148 203.736 467.302 204.489C467.456 205.242 467.533 206.08 467.533 207.005V214.628H463.709V207.467C463.709 206.235 463.546 205.362 463.221 204.848C462.913 204.335 462.374 204.078 461.604 204.078C461.398 204.078 461.107 204.13 460.731 204.232C460.372 204.335 460.072 204.463 459.832 204.617C459.952 205.011 460.029 205.43 460.063 205.875C460.098 206.303 460.115 206.765 460.115 207.261V214.628H456.29V207.467ZM485.824 207.775C485.824 205.31 484.917 204.078 483.103 204.078C482.709 204.078 482.316 204.13 481.922 204.232C481.546 204.335 481.237 204.463 480.998 204.617V211.574C481.186 211.608 481.426 211.642 481.717 211.676C482.008 211.694 482.324 211.702 482.666 211.702C483.71 211.702 484.497 211.343 485.028 210.624C485.558 209.905 485.824 208.955 485.824 207.775ZM489.726 207.877C489.726 208.955 489.563 209.931 489.238 210.804C488.93 211.676 488.476 212.421 487.877 213.037C487.278 213.653 486.542 214.132 485.67 214.474C484.797 214.8 483.804 214.962 482.692 214.962C482.23 214.962 481.742 214.936 481.229 214.885C480.733 214.851 480.236 214.8 479.74 214.731C479.261 214.663 478.799 214.586 478.354 214.5C477.909 214.397 477.515 214.295 477.173 214.192V195.325L480.998 194.709V201.434C481.426 201.246 481.871 201.101 482.333 200.998C482.795 200.895 483.291 200.844 483.822 200.844C484.78 200.844 485.627 201.015 486.363 201.357C487.099 201.682 487.715 202.153 488.211 202.769C488.707 203.385 489.084 204.13 489.34 205.002C489.597 205.858 489.726 206.816 489.726 207.877ZM492.023 207.98C492.023 206.782 492.203 205.738 492.562 204.848C492.939 203.941 493.427 203.188 494.026 202.589C494.624 201.99 495.309 201.537 496.079 201.229C496.866 200.921 497.671 200.767 498.492 200.767C500.409 200.767 501.923 201.357 503.036 202.538C504.148 203.702 504.704 205.422 504.704 207.698C504.704 207.92 504.695 208.168 504.678 208.442C504.661 208.699 504.644 208.93 504.627 209.135H495.951C496.036 209.922 496.404 210.547 497.055 211.009C497.705 211.471 498.578 211.702 499.673 211.702C500.374 211.702 501.059 211.642 501.726 211.522C502.411 211.386 502.967 211.223 503.395 211.035L503.908 214.141C503.703 214.243 503.429 214.346 503.087 214.449C502.745 214.551 502.36 214.637 501.932 214.705C501.521 214.791 501.076 214.859 500.597 214.911C500.118 214.962 499.639 214.988 499.159 214.988C497.944 214.988 496.883 214.808 495.976 214.449C495.087 214.089 494.342 213.602 493.743 212.986C493.161 212.352 492.725 211.608 492.434 210.752C492.16 209.897 492.023 208.973 492.023 207.98ZM501.008 206.517C500.991 206.192 500.931 205.875 500.828 205.567C500.742 205.259 500.597 204.985 500.392 204.746C500.203 204.506 499.955 204.309 499.647 204.155C499.356 204.001 498.988 203.924 498.543 203.924C498.116 203.924 497.748 204.001 497.44 204.155C497.132 204.292 496.875 204.48 496.669 204.72C496.464 204.96 496.302 205.242 496.182 205.567C496.079 205.875 496.002 206.192 495.951 206.517H501.008ZM507.656 201.588C508.306 201.4 509.144 201.229 510.171 201.075C511.198 200.904 512.276 200.818 513.406 200.818C514.552 200.818 515.502 200.972 516.255 201.28C517.025 201.571 517.632 201.99 518.077 202.538C518.522 203.086 518.839 203.736 519.027 204.489C519.215 205.242 519.31 206.08 519.31 207.005V214.628H515.485V207.467C515.485 206.235 515.322 205.362 514.997 204.848C514.672 204.335 514.064 204.078 513.175 204.078C512.901 204.078 512.61 204.095 512.302 204.13C511.994 204.147 511.72 204.172 511.48 204.207V214.628H507.656V201.588ZM522.13 207.98C522.13 206.782 522.309 205.738 522.669 204.848C523.045 203.941 523.533 203.188 524.132 202.589C524.731 201.99 525.415 201.537 526.186 201.229C526.973 200.921 527.777 200.767 528.598 200.767C530.515 200.767 532.03 201.357 533.142 202.538C534.254 203.702 534.81 205.422 534.81 207.698C534.81 207.92 534.802 208.168 534.785 208.442C534.768 208.699 534.751 208.93 534.733 209.135H526.057C526.143 209.922 526.511 210.547 527.161 211.009C527.811 211.471 528.684 211.702 529.779 211.702C530.481 211.702 531.165 211.642 531.833 211.522C532.517 211.386 533.073 211.223 533.501 211.035L534.015 214.141C533.809 214.243 533.536 214.346 533.193 214.449C532.851 214.551 532.466 214.637 532.038 214.705C531.627 214.791 531.183 214.859 530.703 214.911C530.224 214.962 529.745 214.988 529.266 214.988C528.051 214.988 526.99 214.808 526.083 214.449C525.193 214.089 524.449 213.602 523.85 212.986C523.268 212.352 522.831 211.608 522.54 210.752C522.267 209.897 522.13 208.973 522.13 207.98ZM531.114 206.517C531.097 206.192 531.037 205.875 530.934 205.567C530.849 205.259 530.703 204.985 530.498 204.746C530.31 204.506 530.062 204.309 529.754 204.155C529.463 204.001 529.095 203.924 528.65 203.924C528.222 203.924 527.854 204.001 527.546 204.155C527.238 204.292 526.981 204.48 526.776 204.72C526.571 204.96 526.408 205.242 526.288 205.567C526.186 205.875 526.109 206.192 526.057 206.517H531.114ZM543.615 194.709C544.333 194.709 544.992 194.786 545.591 194.94C546.19 195.077 546.652 195.214 546.977 195.351L546.233 198.405C545.891 198.251 545.514 198.14 545.103 198.072C544.71 197.986 544.342 197.943 544 197.943C543.538 197.943 543.144 198.012 542.819 198.149C542.511 198.268 542.263 198.44 542.075 198.662C541.903 198.884 541.775 199.15 541.689 199.458C541.621 199.766 541.587 200.1 541.587 200.459V201.126H546.31V204.309H541.587V214.628H537.762V200.408C537.762 198.662 538.25 197.276 539.225 196.249C540.218 195.222 541.681 194.709 543.615 194.709ZM552.717 214.628H548.892V201.126H552.717V214.628ZM554.129 196.275L549.893 199.843L548.148 198.277L551.793 194.119L554.129 196.275ZM555.67 207.877C555.67 206.902 555.824 205.986 556.133 205.131C556.458 204.258 556.92 203.505 557.519 202.872C558.118 202.222 558.845 201.708 559.701 201.332C560.556 200.955 561.532 200.767 562.627 200.767C563.346 200.767 564.004 200.835 564.603 200.972C565.202 201.092 565.784 201.272 566.349 201.511L565.553 204.566C565.194 204.429 564.8 204.309 564.372 204.207C563.945 204.104 563.465 204.053 562.935 204.053C561.805 204.053 560.958 204.403 560.394 205.105C559.846 205.807 559.572 206.731 559.572 207.877C559.572 209.092 559.829 210.034 560.342 210.701C560.873 211.368 561.788 211.702 563.089 211.702C563.551 211.702 564.047 211.659 564.578 211.574C565.108 211.488 565.596 211.351 566.041 211.163L566.58 214.295C566.135 214.483 565.579 214.646 564.911 214.782C564.244 214.919 563.508 214.988 562.704 214.988C561.472 214.988 560.411 214.808 559.521 214.449C558.631 214.072 557.895 213.567 557.313 212.934C556.749 212.301 556.329 211.557 556.056 210.701C555.799 209.828 555.67 208.887 555.67 207.877ZM572.972 214.628H569.147V201.126H572.972V214.628ZM573.331 197.225C573.331 197.926 573.1 198.482 572.638 198.893C572.193 199.287 571.663 199.483 571.046 199.483C570.43 199.483 569.891 199.287 569.429 198.893C568.984 198.482 568.762 197.926 568.762 197.225C568.762 196.523 568.984 195.975 569.429 195.582C569.891 195.171 570.43 194.966 571.046 194.966C571.663 194.966 572.193 195.171 572.638 195.582C573.1 195.975 573.331 196.523 573.331 197.225ZM589.196 207.852C589.196 208.913 589.042 209.888 588.734 210.778C588.426 211.651 587.981 212.404 587.4 213.037C586.818 213.653 586.116 214.132 585.295 214.474C584.49 214.817 583.583 214.988 582.574 214.988C581.581 214.988 580.674 214.817 579.853 214.474C579.048 214.132 578.355 213.653 577.773 213.037C577.192 212.404 576.738 211.651 576.413 210.778C576.088 209.888 575.925 208.913 575.925 207.852C575.925 206.791 576.088 205.824 576.413 204.951C576.755 204.078 577.217 203.334 577.799 202.718C578.398 202.102 579.1 201.623 579.904 201.28C580.725 200.938 581.615 200.767 582.574 200.767C583.549 200.767 584.439 200.938 585.243 201.28C586.065 201.623 586.766 202.102 587.348 202.718C587.93 203.334 588.384 204.078 588.709 204.951C589.034 205.824 589.196 206.791 589.196 207.852ZM585.295 207.852C585.295 206.671 585.055 205.747 584.576 205.079C584.114 204.395 583.446 204.053 582.574 204.053C581.701 204.053 581.025 204.395 580.546 205.079C580.067 205.747 579.827 206.671 579.827 207.852C579.827 209.032 580.067 209.974 580.546 210.675C581.025 211.36 581.701 211.702 582.574 211.702C583.446 211.702 584.114 211.36 584.576 210.675C585.055 209.974 585.295 209.032 585.295 207.852ZM596.035 211.882C596.737 211.882 597.233 211.813 597.524 211.676C597.815 211.54 597.96 211.274 597.96 210.881C597.96 210.573 597.772 210.307 597.396 210.085C597.019 209.845 596.446 209.58 595.676 209.289C595.077 209.067 594.529 208.836 594.033 208.596C593.554 208.357 593.143 208.074 592.801 207.749C592.459 207.407 592.193 207.005 592.005 206.543C591.817 206.08 591.723 205.524 591.723 204.874C591.723 203.608 592.193 202.607 593.135 201.871C594.076 201.135 595.368 200.767 597.011 200.767C597.832 200.767 598.619 200.844 599.372 200.998C600.125 201.135 600.724 201.289 601.169 201.46L600.502 204.438C600.057 204.284 599.569 204.147 599.039 204.027C598.525 203.907 597.943 203.847 597.293 203.847C596.095 203.847 595.496 204.181 595.496 204.848C595.496 205.002 595.522 205.139 595.573 205.259C595.625 205.379 595.727 205.499 595.881 205.618C596.035 205.721 596.241 205.841 596.497 205.978C596.771 206.098 597.113 206.235 597.524 206.389C598.363 206.697 599.056 207.005 599.603 207.313C600.151 207.604 600.579 207.929 600.887 208.288C601.212 208.63 601.434 209.015 601.554 209.443C601.691 209.871 601.76 210.367 601.76 210.932C601.76 212.267 601.255 213.276 600.245 213.961C599.253 214.646 597.841 214.988 596.01 214.988C594.812 214.988 593.811 214.885 593.006 214.68C592.219 214.474 591.671 214.303 591.363 214.166L592.005 211.06C592.655 211.317 593.323 211.522 594.007 211.676C594.692 211.813 595.368 211.882 596.035 211.882ZM614.045 207.775C614.045 208.955 614.31 209.905 614.84 210.624C615.371 211.343 616.158 211.702 617.202 211.702C617.544 211.702 617.861 211.694 618.152 211.676C618.443 211.642 618.682 211.608 618.87 211.574V204.617C618.631 204.463 618.314 204.335 617.921 204.232C617.544 204.13 617.159 204.078 616.766 204.078C614.952 204.078 614.045 205.31 614.045 207.775ZM622.695 214.192C622.353 214.295 621.959 214.397 621.514 214.5C621.069 214.586 620.599 214.663 620.103 214.731C619.623 214.8 619.127 214.851 618.614 214.885C618.117 214.936 617.638 214.962 617.176 214.962C616.064 214.962 615.071 214.8 614.199 214.474C613.326 214.149 612.59 213.687 611.991 213.088C611.392 212.472 610.93 211.736 610.605 210.881C610.297 210.008 610.143 209.032 610.143 207.954C610.143 206.859 610.28 205.875 610.554 205.002C610.827 204.113 611.221 203.36 611.734 202.743C612.248 202.127 612.872 201.657 613.608 201.332C614.361 201.007 615.217 200.844 616.175 200.844C616.706 200.844 617.176 200.895 617.587 200.998C618.015 201.101 618.443 201.246 618.87 201.434V195.325L622.695 194.709V214.192ZM638.906 207.852C638.906 208.913 638.752 209.888 638.444 210.778C638.136 211.651 637.691 212.404 637.109 213.037C636.527 213.653 635.826 214.132 635.004 214.474C634.2 214.817 633.293 214.988 632.283 214.988C631.291 214.988 630.384 214.817 629.562 214.474C628.758 214.132 628.065 213.653 627.483 213.037C626.901 212.404 626.448 211.651 626.122 210.778C625.797 209.888 625.635 208.913 625.635 207.852C625.635 206.791 625.797 205.824 626.122 204.951C626.465 204.078 626.927 203.334 627.509 202.718C628.108 202.102 628.809 201.623 629.614 201.28C630.435 200.938 631.325 200.767 632.283 200.767C633.259 200.767 634.148 200.938 634.953 201.28C635.774 201.623 636.476 202.102 637.058 202.718C637.639 203.334 638.093 204.078 638.418 204.951C638.743 205.824 638.906 206.791 638.906 207.852ZM635.004 207.852C635.004 206.671 634.765 205.747 634.285 205.079C633.823 204.395 633.156 204.053 632.283 204.053C631.41 204.053 630.734 204.395 630.255 205.079C629.776 205.747 629.536 206.671 629.536 207.852C629.536 209.032 629.776 209.974 630.255 210.675C630.734 211.36 631.41 211.702 632.283 211.702C633.156 211.702 633.823 211.36 634.285 210.675C634.765 209.974 635.004 209.032 635.004 207.852ZM428.085 244.574C428.649 244.574 429.112 244.531 429.471 244.445C429.847 244.343 430.147 244.214 430.369 244.06C430.592 243.889 430.746 243.692 430.831 243.47C430.917 243.248 430.96 242.999 430.96 242.726C430.96 242.144 430.686 241.665 430.138 241.288C429.591 240.894 428.649 240.475 427.315 240.03C426.733 239.825 426.151 239.594 425.569 239.337C424.987 239.063 424.465 238.73 424.003 238.336C423.541 237.925 423.165 237.438 422.874 236.873C422.583 236.291 422.437 235.589 422.437 234.768C422.437 233.947 422.592 233.211 422.9 232.56C423.208 231.893 423.644 231.328 424.209 230.866C424.773 230.404 425.458 230.053 426.262 229.814C427.067 229.557 427.974 229.429 428.983 229.429C430.181 229.429 431.216 229.557 432.089 229.814C432.962 230.071 433.681 230.353 434.245 230.661L433.09 233.818C432.594 233.562 432.038 233.339 431.422 233.151C430.823 232.946 430.096 232.843 429.24 232.843C428.282 232.843 427.588 232.98 427.161 233.254C426.75 233.51 426.545 233.912 426.545 234.46C426.545 234.785 426.622 235.059 426.776 235.281C426.93 235.504 427.144 235.709 427.417 235.897C427.708 236.069 428.033 236.231 428.393 236.385C428.769 236.522 429.18 236.668 429.625 236.822C430.549 237.164 431.353 237.506 432.038 237.848C432.722 238.174 433.287 238.559 433.732 239.003C434.194 239.448 434.536 239.97 434.759 240.569C434.981 241.168 435.093 241.896 435.093 242.751C435.093 244.411 434.511 245.703 433.347 246.627C432.183 247.534 430.429 247.988 428.085 247.988C427.298 247.988 426.587 247.936 425.954 247.834C425.321 247.748 424.756 247.637 424.26 247.5C423.781 247.363 423.362 247.218 423.002 247.064C422.66 246.91 422.369 246.764 422.129 246.627L423.259 243.444C423.789 243.735 424.44 244 425.21 244.24C425.997 244.463 426.955 244.574 428.085 244.574ZM449.443 247.166C448.792 247.355 447.954 247.526 446.927 247.68C445.9 247.851 444.822 247.936 443.693 247.936C442.546 247.936 441.588 247.782 440.818 247.474C440.065 247.166 439.466 246.739 439.021 246.191C438.576 245.626 438.259 244.959 438.071 244.189C437.883 243.419 437.789 242.572 437.789 241.647V234.126H441.613V241.185C441.613 242.418 441.776 243.307 442.101 243.855C442.426 244.403 443.034 244.676 443.924 244.676C444.197 244.676 444.488 244.668 444.796 244.651C445.104 244.617 445.378 244.582 445.618 244.548V234.126H449.443V247.166ZM461.683 240.98C461.683 239.799 461.418 238.858 460.888 238.156C460.357 237.438 459.57 237.078 458.526 237.078C458.184 237.078 457.867 237.095 457.576 237.13C457.285 237.147 457.046 237.172 456.858 237.207V244.112C457.097 244.266 457.405 244.394 457.782 244.497C458.175 244.599 458.569 244.651 458.962 244.651C460.776 244.651 461.683 243.427 461.683 240.98ZM465.585 240.877C465.585 241.921 465.457 242.871 465.2 243.727C464.943 244.582 464.567 245.318 464.071 245.934C463.574 246.55 462.958 247.029 462.223 247.372C461.487 247.714 460.64 247.885 459.681 247.885C459.151 247.885 458.654 247.834 458.192 247.731C457.73 247.628 457.285 247.483 456.858 247.295V252.377H453.033V234.588C453.375 234.486 453.769 234.392 454.214 234.306C454.659 234.203 455.121 234.118 455.6 234.049C456.096 233.981 456.592 233.929 457.089 233.895C457.602 233.844 458.09 233.818 458.552 233.818C459.664 233.818 460.657 233.989 461.529 234.332C462.402 234.657 463.138 235.127 463.737 235.743C464.336 236.342 464.789 237.078 465.097 237.951C465.423 238.824 465.585 239.799 465.585 240.877ZM467.883 240.98C467.883 239.782 468.063 238.738 468.422 237.848C468.799 236.941 469.286 236.188 469.885 235.589C470.484 234.99 471.169 234.537 471.939 234.229C472.726 233.921 473.53 233.767 474.352 233.767C476.268 233.767 477.783 234.357 478.895 235.538C480.008 236.702 480.564 238.422 480.564 240.698C480.564 240.92 480.555 241.168 480.538 241.442C480.521 241.699 480.504 241.93 480.487 242.135H471.81C471.896 242.922 472.264 243.547 472.914 244.009C473.565 244.471 474.437 244.702 475.533 244.702C476.234 244.702 476.919 244.642 477.586 244.522C478.271 244.386 478.827 244.223 479.255 244.035L479.768 247.141C479.563 247.243 479.289 247.346 478.947 247.449C478.604 247.551 478.219 247.637 477.791 247.705C477.381 247.791 476.936 247.859 476.457 247.911C475.977 247.962 475.498 247.988 475.019 247.988C473.804 247.988 472.743 247.808 471.836 247.449C470.946 247.089 470.202 246.602 469.603 245.986C469.021 245.352 468.585 244.608 468.294 243.752C468.02 242.897 467.883 241.973 467.883 240.98ZM476.867 239.517C476.85 239.192 476.79 238.875 476.688 238.567C476.602 238.259 476.457 237.985 476.251 237.746C476.063 237.506 475.815 237.309 475.507 237.155C475.216 237.001 474.848 236.924 474.403 236.924C473.975 236.924 473.607 237.001 473.299 237.155C472.991 237.292 472.735 237.48 472.529 237.72C472.324 237.96 472.161 238.242 472.041 238.567C471.939 238.875 471.862 239.192 471.81 239.517H476.867ZM491.653 237.515C491.31 237.429 490.908 237.344 490.446 237.258C489.984 237.155 489.488 237.104 488.957 237.104C488.718 237.104 488.427 237.13 488.084 237.181C487.759 237.215 487.511 237.258 487.34 237.309V247.628H483.515V234.845C484.2 234.605 485.004 234.383 485.928 234.178C486.869 233.955 487.913 233.844 489.06 233.844C489.265 233.844 489.513 233.861 489.804 233.895C490.095 233.912 490.386 233.947 490.677 233.998C490.968 234.032 491.259 234.084 491.55 234.152C491.841 234.203 492.089 234.272 492.294 234.357L491.653 237.515ZM505.619 244.574C506.184 244.574 506.646 244.531 507.006 244.445C507.382 244.343 507.682 244.214 507.904 244.06C508.127 243.889 508.281 243.692 508.366 243.47C508.452 243.248 508.494 242.999 508.494 242.726C508.494 242.144 508.221 241.665 507.673 241.288C507.125 240.894 506.184 240.475 504.849 240.03C504.268 239.825 503.686 239.594 503.104 239.337C502.522 239.063 502 238.73 501.538 238.336C501.076 237.925 500.7 237.438 500.409 236.873C500.118 236.291 499.972 235.589 499.972 234.768C499.972 233.947 500.126 233.211 500.434 232.56C500.742 231.893 501.179 231.328 501.743 230.866C502.308 230.404 502.993 230.053 503.797 229.814C504.601 229.557 505.508 229.429 506.518 229.429C507.716 229.429 508.751 229.557 509.624 229.814C510.497 230.071 511.215 230.353 511.78 230.661L510.625 233.818C510.129 233.562 509.573 233.339 508.957 233.151C508.358 232.946 507.63 232.843 506.775 232.843C505.816 232.843 505.123 232.98 504.695 233.254C504.285 233.51 504.079 233.912 504.079 234.46C504.079 234.785 504.156 235.059 504.31 235.281C504.464 235.504 504.678 235.709 504.952 235.897C505.243 236.069 505.568 236.231 505.928 236.385C506.304 236.522 506.715 236.668 507.16 236.822C508.084 237.164 508.888 237.506 509.573 237.848C510.257 238.174 510.822 238.559 511.267 239.003C511.729 239.448 512.071 239.97 512.294 240.569C512.516 241.168 512.627 241.896 512.627 242.751C512.627 244.411 512.045 245.703 510.882 246.627C509.718 247.534 507.964 247.988 505.619 247.988C504.832 247.988 504.122 247.936 503.489 247.834C502.856 247.748 502.291 247.637 501.795 247.5C501.316 247.363 500.896 247.218 500.537 247.064C500.195 246.91 499.904 246.764 499.664 246.627L500.794 243.444C501.324 243.735 501.974 244 502.745 244.24C503.532 244.463 504.49 244.574 505.619 244.574ZM520.912 244.959C521.289 244.959 521.648 244.95 521.99 244.933C522.332 244.916 522.606 244.89 522.812 244.856V241.955C522.658 241.921 522.427 241.887 522.119 241.853C521.81 241.819 521.528 241.801 521.271 241.801C520.912 241.801 520.57 241.827 520.245 241.878C519.937 241.913 519.663 241.99 519.423 242.109C519.184 242.229 518.995 242.392 518.859 242.597C518.722 242.803 518.653 243.059 518.653 243.367C518.653 243.966 518.85 244.386 519.244 244.625C519.654 244.848 520.21 244.959 520.912 244.959ZM520.604 233.767C521.733 233.767 522.675 233.895 523.428 234.152C524.181 234.409 524.78 234.777 525.225 235.256C525.687 235.735 526.012 236.317 526.2 237.001C526.388 237.686 526.482 238.447 526.482 239.286V247.243C525.935 247.363 525.173 247.5 524.198 247.654C523.222 247.825 522.042 247.911 520.655 247.911C519.783 247.911 518.987 247.834 518.268 247.68C517.566 247.526 516.959 247.278 516.446 246.935C515.932 246.576 515.539 246.114 515.265 245.549C514.991 244.984 514.854 244.291 514.854 243.47C514.854 242.683 515.008 242.015 515.316 241.468C515.641 240.92 516.069 240.484 516.6 240.159C517.13 239.833 517.738 239.602 518.422 239.466C519.107 239.312 519.817 239.235 520.553 239.235C521.049 239.235 521.485 239.26 521.862 239.312C522.255 239.346 522.572 239.397 522.812 239.466V239.106C522.812 238.456 522.615 237.934 522.221 237.54C521.828 237.147 521.143 236.95 520.168 236.95C519.517 236.95 518.876 237.001 518.242 237.104C517.609 237.19 517.062 237.318 516.6 237.489L516.112 234.409C516.334 234.34 516.608 234.272 516.933 234.203C517.276 234.118 517.643 234.049 518.037 233.998C518.431 233.929 518.841 233.878 519.269 233.844C519.714 233.793 520.159 233.767 520.604 233.767ZM541.466 247.166C540.816 247.355 539.978 247.526 538.951 247.68C537.924 247.851 536.846 247.936 535.717 247.936C534.57 247.936 533.612 247.782 532.842 247.474C532.089 247.166 531.49 246.739 531.045 246.191C530.6 245.626 530.283 244.959 530.095 244.189C529.907 243.419 529.813 242.572 529.813 241.647V234.126H533.637V241.185C533.637 242.418 533.8 243.307 534.125 243.855C534.45 244.403 535.058 244.676 535.948 244.676C536.221 244.676 536.512 244.668 536.82 244.651C537.128 244.617 537.402 244.582 537.642 244.548V234.126H541.466V247.166ZM538.925 229.275L534.69 232.843L532.944 231.277L536.589 227.119L538.925 229.275ZM548.317 240.775C548.317 241.955 548.582 242.905 549.113 243.624C549.643 244.343 550.43 244.702 551.474 244.702C551.816 244.702 552.133 244.694 552.424 244.676C552.715 244.642 552.954 244.608 553.143 244.574V237.617C552.903 237.463 552.586 237.335 552.193 237.232C551.816 237.13 551.431 237.078 551.038 237.078C549.224 237.078 548.317 238.31 548.317 240.775ZM556.967 247.192C556.625 247.295 556.232 247.397 555.787 247.5C555.342 247.586 554.871 247.663 554.375 247.731C553.896 247.8 553.399 247.851 552.886 247.885C552.39 247.936 551.911 247.962 551.448 247.962C550.336 247.962 549.344 247.8 548.471 247.474C547.598 247.149 546.862 246.687 546.263 246.088C545.664 245.472 545.202 244.736 544.877 243.881C544.569 243.008 544.415 242.032 544.415 240.954C544.415 239.859 544.552 238.875 544.826 238.002C545.1 237.113 545.493 236.36 546.007 235.743C546.52 235.127 547.145 234.657 547.88 234.332C548.633 234.007 549.489 233.844 550.447 233.844C550.978 233.844 551.448 233.895 551.859 233.998C552.287 234.101 552.715 234.246 553.143 234.434V228.325L556.967 227.709V247.192ZM559.907 240.98C559.907 239.782 560.087 238.738 560.446 237.848C560.822 236.941 561.31 236.188 561.909 235.589C562.508 234.99 563.193 234.537 563.963 234.229C564.75 233.921 565.554 233.767 566.376 233.767C568.292 233.767 569.807 234.357 570.919 235.538C572.031 236.702 572.588 238.422 572.588 240.698C572.588 240.92 572.579 241.168 572.562 241.442C572.545 241.699 572.528 241.93 572.511 242.135H563.834C563.92 242.922 564.288 243.547 564.938 244.009C565.588 244.471 566.461 244.702 567.556 244.702C568.258 244.702 568.943 244.642 569.61 244.522C570.295 244.386 570.851 244.223 571.279 244.035L571.792 247.141C571.587 247.243 571.313 247.346 570.97 247.449C570.628 247.551 570.243 247.637 569.815 247.705C569.405 247.791 568.96 247.859 568.481 247.911C568.001 247.962 567.522 247.988 567.043 247.988C565.828 247.988 564.767 247.808 563.86 247.449C562.97 247.089 562.226 246.602 561.627 245.986C561.045 245.352 560.609 244.608 560.318 243.752C560.044 242.897 559.907 241.973 559.907 240.98ZM568.891 239.517C568.874 239.192 568.814 238.875 568.712 238.567C568.626 238.259 568.481 237.985 568.275 237.746C568.087 237.506 567.839 237.309 567.531 237.155C567.24 237.001 566.872 236.924 566.427 236.924C565.999 236.924 565.631 237.001 565.323 237.155C565.015 237.292 564.758 237.48 564.553 237.72C564.348 237.96 564.185 238.242 564.065 238.567C563.963 238.875 563.886 239.192 563.834 239.517H568.891ZM578.902 232.689C578.286 232.689 577.704 232.766 577.156 232.92C576.609 233.074 576.001 233.322 575.334 233.664L574.256 230.764C574.923 230.336 575.71 230.011 576.617 229.788C577.524 229.549 578.414 229.429 579.287 229.429C580.382 229.429 581.281 229.574 581.982 229.865C582.701 230.156 583.266 230.524 583.676 230.969C584.087 231.414 584.37 231.902 584.524 232.432C584.695 232.963 584.78 233.467 584.78 233.947C584.78 234.426 584.703 234.871 584.549 235.281C584.412 235.675 584.233 236.043 584.01 236.385C583.788 236.727 583.531 237.053 583.24 237.361C582.949 237.669 582.667 237.96 582.393 238.233C582.188 238.439 581.974 238.661 581.751 238.901C581.529 239.123 581.323 239.363 581.135 239.62C580.964 239.876 580.819 240.15 580.699 240.441C580.579 240.715 580.519 240.997 580.519 241.288C580.519 241.357 580.519 241.459 580.519 241.596C580.519 241.733 580.528 241.853 580.545 241.955H577.156C577.122 241.784 577.097 241.596 577.079 241.391C577.079 241.168 577.079 240.98 577.079 240.826C577.079 240.347 577.139 239.919 577.259 239.543C577.379 239.149 577.533 238.79 577.721 238.464C577.926 238.122 578.158 237.806 578.414 237.515C578.671 237.224 578.936 236.941 579.21 236.668C579.604 236.274 579.963 235.889 580.288 235.512C580.613 235.119 580.776 234.674 580.776 234.178C580.776 233.767 580.613 233.416 580.288 233.125C579.98 232.834 579.518 232.689 578.902 232.689ZM581.289 245.601C581.289 246.354 581.041 246.935 580.545 247.346C580.066 247.757 579.518 247.962 578.902 247.962C578.286 247.962 577.73 247.757 577.233 247.346C576.754 246.935 576.515 246.354 576.515 245.601C576.515 244.848 576.754 244.266 577.233 243.855C577.73 243.444 578.286 243.239 578.902 243.239C579.518 243.239 580.066 243.444 580.545 243.855C581.041 244.266 581.289 244.848 581.289 245.601Z" fill="white"/>
<g clip-path="url(#clip0)">
<path d="M179.477 316.657C178.588 319.944 178.292 322.917 178.403 325.576C169.181 315.955 156.644 307.405 140.904 306.869C130.274 306.519 119.719 310.858 108.442 315.9C105.201 313.296 102.664 311.412 101.146 310.766C96.9792 308.993 84.924 317.95 75.0539 328.457C54.4619 333.092 30.4071 330.525 -0.0179596 305.669C-0.0179596 305.669 52.8138 307.405 65.869 284.691C78.9427 261.976 78.5723 255.993 105.442 254.664C132.293 253.334 148.478 222.236 144.515 199.411C144.515 199.411 219.568 238.413 220.957 296.842C210.161 310.138 195.958 323.877 179.477 316.657Z" fill="#00309E"/>
<path d="M101.145 310.766C102.664 311.412 105.201 313.314 108.441 315.9C98.1084 320.516 87.1828 325.724 75.0535 328.457C84.9421 317.95 96.9788 308.993 101.145 310.766Z" fill="#00309E"/>
<path d="M206.55 243.473C208.105 256.64 211.068 267.627 214.309 276.344C220.346 292.595 227.253 300.942 227.253 300.942L255.326 274.922C255.085 272.115 254.808 269.271 254.493 266.427C249.66 221.774 236.308 172.634 223.809 170.787C210.513 168.811 202.124 205.652 206.55 243.473Z" fill="#F8AF59"/>
<path d="M251.381 277.36C251.381 277.36 239.566 207.111 228.715 201.221C217.882 195.33 213.938 252.3 234.622 283.25C243.992 283.269 251.381 277.36 251.381 277.36Z" fill="#FEDFBA"/>
<path d="M265.677 263.38C265.64 266.039 265.64 268.735 265.677 271.468L289.806 271.967C289.806 271.967 292.454 264.673 295.769 253.98C297.639 248.034 299.676 241.035 301.62 233.667C307.046 213.039 300.139 162.421 293.25 166.373C286.658 170.104 266.547 205.32 265.677 263.38Z" fill="#F8AF59"/>
<path d="M274.53 269.511C275.03 230.712 284.881 197.305 291.27 194.849C297.677 192.393 299.159 247.905 281.418 274.423C275.03 277.359 274.53 269.511 274.53 269.511Z" fill="#FEDFBA"/>
<path opacity="0.2" d="M295.77 253.98C287.77 256.972 276.955 260.259 265.659 263.38C265.622 266.039 265.622 268.735 265.659 271.468L289.788 271.967C289.807 271.967 292.455 264.673 295.77 253.98Z" fill="#BF7B2A"/>
<path opacity="0.2" d="M214.309 276.325C220.346 292.595 227.253 300.942 227.253 300.942L255.326 274.922C255.085 272.115 254.808 269.271 254.493 266.427C238.104 270.73 222.364 274.479 214.309 276.325Z" fill="#BF7B2A"/>
<path d="M143.014 406.554L126.756 416.877C126.756 416.877 145.477 425.224 144.496 432.112C143.514 438.982 117.904 438.003 112.978 435.067C108.053 432.112 101.645 419.831 101.164 415.916C100.664 411.983 110.515 399.222 110.515 399.222L143.014 406.554Z" fill="#CF9C7A"/>
<path d="M229.716 392.316C230.698 393.793 243.012 420.312 248.438 424.245C253.864 428.179 260.252 432.112 258.289 435.048C256.327 438.003 231.698 436.526 224.309 436.526C216.92 436.526 195.254 409.01 192.791 400.183C190.31 391.337 204.106 375.123 229.716 392.316Z" fill="#CF9C7A"/>
<path d="M92.1634 386.185C92.8856 387.459 93.8115 388.77 95.0152 390.137C97.3855 392.851 100.83 395.714 105.589 398.705C106.293 398.964 106.978 399.241 107.681 399.499C120.089 404.227 131.866 408.234 143.032 411.614C146.736 412.74 150.384 413.793 153.939 414.79C162.865 417.264 171.383 419.314 179.476 420.976C182.827 421.678 186.105 422.306 189.327 422.86C233.4 430.634 264.436 426.793 283.899 418.834C285.361 418.225 286.75 417.634 288.065 417.024C288.454 416.858 288.824 416.692 289.176 416.507C290.88 415.713 292.454 414.882 293.954 414.07C294.602 413.719 295.232 413.349 295.861 412.98C298.954 411.152 301.602 409.287 304.046 407.329C304.305 407.108 304.583 406.886 304.842 406.664C307.213 404.707 309.416 402.676 311.583 400.533C311.842 400.275 312.064 400.053 312.305 399.813C312.787 399.333 313.287 398.834 313.768 398.354C314.027 398.096 314.249 397.874 314.509 397.616C315.064 397.062 315.62 396.489 316.175 395.917C316.398 395.677 316.638 395.437 316.879 395.215C317.564 394.513 318.286 393.793 319.009 393.091C319.249 392.833 319.49 392.611 319.731 392.371C322.194 389.933 324.897 387.403 328.027 384.707C328.656 384.153 329.305 383.618 329.971 383.064C331.471 381.826 333.045 380.552 334.749 379.241C336.064 378.225 337.471 377.191 338.934 376.139C340.286 375.16 341.693 374.181 343.193 373.184C344.86 372.058 346.6 370.894 348.471 369.712L342.323 354.883L330.73 326.98C330.73 326.98 318.36 322.788 303.12 317.986C282.621 311.578 256.881 304.081 248.974 304.376C241.511 304.635 231.456 318.688 219.974 333.314C210.234 345.761 199.475 358.595 188.383 363.803C177.846 368.733 159.976 369.361 143.217 368.512C121.551 367.404 101.7 363.803 101.7 363.803C101.7 363.803 84.6636 372.741 92.1634 386.185Z" fill="#FEDFBA"/>
<path opacity="0.2" d="M174.05 409.508L179.457 420.976C182.809 421.678 186.087 422.306 189.309 422.86C233.381 430.635 264.418 426.793 283.88 418.834C285.343 418.225 286.732 417.634 288.047 417.024C288.435 416.858 288.806 416.692 289.158 416.507C290.861 415.713 292.435 414.882 293.935 414.07C294.583 413.719 295.213 413.35 295.843 412.98C298.935 411.152 301.583 409.287 304.028 407.329C304.287 407.108 304.565 406.886 304.824 406.665C307.194 404.707 309.398 402.676 311.564 400.533C311.824 400.275 312.046 400.053 312.287 399.813C312.768 399.333 313.268 398.835 313.75 398.354C314.009 398.096 314.231 397.874 314.49 397.616C279.954 427.68 174.05 409.508 174.05 409.508Z" fill="#BF7B2A"/>
<path opacity="0.2" d="M277.01 344.173C277.01 344.173 300.157 375.511 334.712 379.241C336.027 378.226 337.434 377.191 338.897 376.139C340.249 375.16 341.656 374.181 343.156 373.184C344.823 372.058 346.563 370.894 348.434 369.712L277.01 344.173Z" fill="#BF7B2A"/>
<path d="M273.548 337.303C290.788 341.236 328.713 367.274 328.713 367.274C317.898 368.253 305.102 364.209 294.529 358.226C283.788 355.363 275.455 356.73 273.048 353.535C270.103 349.583 273.548 337.303 273.548 337.303Z" fill="#81684B"/>
<path opacity="0.2" d="M51.1088 412.334C57.6641 410.284 69.8489 413.571 80.7745 420.33C80.5894 420.145 80.4227 419.924 80.219 419.739C80.0338 419.554 79.8672 419.37 79.682 419.185C77.9228 417.357 76.2932 415.953 75.5154 415.307C75.3673 415.178 75.2377 415.085 75.1636 415.011C75.071 414.938 75.034 414.901 75.034 414.901C75.034 414.901 99.6629 410.487 107.552 399.665C107.589 399.61 107.644 399.555 107.663 399.481C120.07 404.208 131.847 408.216 143.013 411.595C148.902 423.155 161.42 439.942 167.198 439.942C170.087 439.942 175.642 440.163 181.42 440.274C183.031 440.311 184.679 440.311 186.29 440.311C179.494 431.632 166.698 414.494 169.624 411.946C173.568 408.493 179.975 408.991 189.327 422.841C233.4 430.616 264.436 426.775 283.898 418.816C285.361 418.206 286.75 417.615 288.065 417.006C288.454 416.84 288.824 416.673 289.176 416.489C290.879 415.695 292.454 414.864 293.953 414.051C294.602 413.7 295.231 413.331 295.861 412.962C298.953 411.133 301.601 409.268 304.046 407.311C304.305 407.089 304.583 406.868 304.842 406.646C307.212 404.688 309.416 402.657 311.583 400.515C311.823 400.256 312.064 400.035 312.305 399.795C312.786 399.315 313.286 398.816 313.768 398.336C314.008 398.077 314.249 397.837 314.508 397.597C315.064 397.043 315.619 396.471 316.175 395.898C316.416 395.658 316.638 395.418 316.879 395.196C317.564 394.495 318.286 393.774 319.008 393.073C319.249 392.814 319.49 392.593 319.73 392.353C322.193 389.915 324.897 387.385 328.027 384.689C328.656 384.135 329.304 383.599 329.971 383.045C332.619 380.829 335.563 378.539 338.934 376.12C340.285 375.141 341.693 374.163 343.193 373.165C361.6 375.178 379.766 367.053 391.562 356.638C394.71 353.849 397.413 350.913 399.543 347.958C389.858 355.197 371.266 359.592 342.322 354.865C307.601 351.245 273.584 337.266 273.584 337.266C273.584 337.266 254.603 337.155 233.659 335.013C229.141 334.533 224.511 333.96 219.974 333.295C200.493 330.396 182.494 325.355 179.512 316.62C174.568 334.791 187.882 343.138 187.882 343.138C187.882 343.138 172.624 350.987 154.402 346.573C152.384 346.093 150.254 345.299 148.032 344.283C162.439 358.614 154.698 365.335 143.217 368.475C131.532 371.67 115.977 371.134 115.977 371.134C115.977 371.134 115.811 371.448 115.496 371.984C113.588 375.381 105.94 387.699 95.0519 390.063C91.3668 390.875 87.2928 390.543 82.9411 388.327C63.738 378.502 61.2751 348.531 61.2751 348.531C56.8493 362.769 62.7566 394.218 62.7566 394.218C62.7566 394.218 62.4788 394.532 61.9788 395.086C61.8862 395.196 61.7936 395.326 61.664 395.455C60.3863 396.951 58.1085 399.684 55.979 402.879C55.8123 403.137 55.6457 403.359 55.4975 403.617C54.8494 404.615 54.2198 405.649 53.6272 406.701C53.3309 407.237 53.0531 407.754 52.7939 408.271C52.6457 408.603 52.4791 408.917 52.3495 409.231C52.1087 409.73 51.8865 410.247 51.6828 410.746C51.4606 411.337 51.2754 411.835 51.1088 412.334Z" fill="#BF7B2A"/>
<path d="M255.325 353.018C256.788 363.249 268.066 366.13 279.843 358.872C283.898 356.361 288.009 352.63 291.787 347.607L281.436 339.26C281.436 339.26 271.251 339.26 263.584 342.27C258.51 344.228 254.547 347.533 255.325 353.018Z" fill="#EE754C"/>
<path opacity="0.3" d="M279.843 358.872C283.898 356.361 288.009 352.63 291.787 347.607L281.436 339.26C281.436 339.26 271.251 339.26 263.584 342.27C273.788 342.769 288.954 345.982 279.843 358.872Z" fill="#C85C37"/>
<path d="M139.923 403.617C140.237 405.557 141.367 408.382 143.015 411.614C148.904 423.174 161.422 439.96 167.2 439.96C170.088 439.96 175.644 440.182 181.421 440.293C190.384 440.44 199.958 440.274 201.365 438.501C203.68 435.547 197.736 431.613 192.773 427.68C191.773 426.886 190.569 425.15 189.31 422.86C186.588 417.948 183.57 410.524 181.292 404.689C177.996 396.286 170.663 389.915 161.718 388.475C153.7 387.2 147.497 390.026 143.774 393.904C140.867 396.988 139.46 400.7 139.923 403.617Z" fill="#FEDFBA"/>
<path opacity="0.2" d="M92.1633 386.185C94.3114 390.007 98.4594 394.236 105.589 398.705C118.755 403.784 131.236 408.049 143.014 411.613C148.902 423.174 161.42 439.96 167.198 439.96C170.087 439.96 175.642 440.182 181.42 440.293C168.42 434.937 159.606 424.43 153.921 414.79C147.421 403.747 144.977 393.793 144.977 393.793C144.977 393.793 144.551 393.848 143.773 393.922C139.125 394.347 121.94 395.196 108.033 385.926C102.033 381.956 96.2373 382.639 92.1633 386.185Z" fill="#BF7B2A"/>
<path d="M51.1089 412.334C51.4238 411.337 51.8126 410.321 52.3126 409.305C52.4422 408.991 52.6089 408.677 52.757 408.345C53.0163 407.81 53.3126 407.292 53.5904 406.775C54.1644 405.723 54.794 404.689 55.4607 403.691C55.6273 403.433 55.794 403.211 55.9421 402.953C58.0902 399.758 60.3494 397.006 61.6271 395.529C61.7383 395.4 61.8494 395.271 61.942 395.16C62.4419 394.606 62.7197 394.292 62.7197 394.292C62.7197 394.292 56.8125 362.843 61.2383 348.605C62.9975 342.954 68.5529 335.382 75.0342 328.476C87.1635 325.743 98.0891 320.535 108.422 315.918C118.274 323.804 134.551 338.245 147.958 344.357C150.18 345.373 152.31 346.149 154.328 346.647C172.55 351.061 187.809 343.212 187.809 343.212C187.809 343.212 178.902 337.598 178.383 325.595C190.809 338.577 197.216 353.535 197.216 353.535L219.641 313.462C220.678 307.553 221.067 302.031 220.937 296.861C223.363 293.869 225.622 290.914 227.696 288.2C239.066 273.444 279.454 265.079 286.361 266.076C293.269 267.055 309.509 276.399 314.935 281.293C320.36 286.205 330.693 326.98 330.693 326.98C330.693 326.98 243.011 322.566 239.066 325.023C238.029 325.65 236.085 329.565 233.622 335.05C226.567 350.691 215.215 379.075 209.03 380.534C189.253 385.169 117.403 371.208 115.94 371.208C115.755 371.208 115.607 371.504 115.459 372.058C114.552 375.677 114.403 390.118 107.663 399.518C107.626 399.573 107.589 399.629 107.552 399.703C99.6816 410.524 75.0342 414.938 75.0342 414.938C75.0342 414.938 75.0712 414.975 75.1638 415.049C75.2379 415.122 75.3675 415.215 75.5156 415.344C76.2934 415.99 77.923 417.394 79.6822 419.222C79.8674 419.407 80.034 419.591 80.2192 419.776C80.4044 419.961 80.5896 420.182 80.7747 420.367C84.7746 424.781 88.8115 431.004 85.3857 435.584C82.8488 438.963 66.1826 439.019 57.3125 436.064C48.4424 433.109 49.9238 424.762 50.4053 415.916C50.4608 414.753 50.7201 413.553 51.1089 412.334Z" fill="#F8AF59"/>
<path d="M219.661 313.444L197.236 353.517C197.236 353.517 190.829 338.559 178.403 325.576C178.292 322.917 178.57 319.962 179.477 316.657C195.958 323.877 210.161 310.138 220.976 296.823C221.087 302.013 220.698 307.534 219.661 313.444Z" fill="#F8AF59"/>
<path d="M293.75 316.177C303.009 308.827 293.509 286.74 281.862 281.81C278.658 280.443 275.269 280.369 272.084 282.29C257.288 291.117 279.454 327.46 293.75 316.177Z" fill="white"/>
<path d="M312.139 311.689C314.195 313.555 316.065 314.422 317.38 313.702C327.306 308.255 315.362 290.674 306.64 283.934C306.621 283.915 306.602 283.897 306.584 283.878C302.788 280.96 299.603 280.111 299.158 283.25C298.066 291.025 305.899 306.002 312.139 311.689Z" fill="white"/>
<path d="M278.548 302.216C281.844 311.615 288.622 317.82 293.751 316.177L293.77 316.158C303.01 308.827 293.51 286.74 281.863 281.81C281.844 281.81 281.826 281.828 281.826 281.828C276.678 283.62 275.215 292.761 278.548 302.216Z" fill="#453727"/>
<path d="M312.14 311.689C312.492 311.653 312.844 311.542 313.158 311.394C316.806 309.677 316.492 301.33 312.436 292.742C310.77 289.197 308.733 286.168 306.64 283.952C306.622 283.934 306.603 283.915 306.585 283.897C302.788 280.979 299.603 280.13 299.159 283.269C298.066 291.025 305.899 306.002 312.14 311.689Z" fill="#453727"/>
<path d="M239.067 325.023L273.547 337.303C273.547 337.303 292.75 356.952 332.175 370.71C335.805 371.984 339.49 372.796 343.156 373.184C361.563 375.197 379.729 367.072 391.525 356.656C394.673 353.868 397.377 350.932 399.506 347.977C405.025 340.35 406.71 332.649 402.617 327.46C398.469 322.197 382.1 319.335 361.174 318.079C350.971 317.47 339.656 317.248 328.138 317.359C319.787 317.414 311.342 317.636 303.083 317.987C274.825 319.187 249.196 321.883 239.807 324.782C239.548 324.875 239.289 324.949 239.067 325.023Z" fill="#FEDFBA"/>
<path d="M361.157 318.097C364.416 344.653 382.656 356.749 391.508 356.656C398.915 350.119 403.804 342.714 404.711 336.343C405.192 333 404.563 329.935 402.6 327.46C398.748 322.566 384.36 319.759 365.545 318.374C364.12 318.282 362.657 318.19 361.157 318.097Z" fill="#453727"/>
<path d="M365.563 318.393C369.193 326.629 396.544 345.613 404.729 336.361C405.21 333.019 404.58 329.953 402.617 327.479C398.747 322.566 384.377 319.759 365.563 318.393Z" fill="#453727"/>
<path d="M279.456 335.826C280.863 340.756 267.641 341.772 267.641 339.759C267.641 338.282 278.474 332.391 279.456 335.826Z" fill="#81684B"/>
<path d="M282.658 294.367C282.103 298.042 278.788 296.399 278.603 294.367C278.418 292.354 283.214 290.692 282.658 294.367Z" fill="white"/>
<path d="M304.824 291.431C304.269 295.106 300.954 293.463 300.769 291.431C300.584 289.4 305.38 287.738 304.824 291.431Z" fill="white"/>
<path d="M321.399 392.371C321.399 392.371 230.291 381.291 187.847 343.194C187.847 343.194 225.624 404.412 321.399 412.925C321.399 412.925 336.269 406.646 321.399 392.371Z" fill="#00309E"/>
</g>
<defs>
<clipPath id="clip0">
<rect width="404.877" height="274.196" fill="white" transform="matrix(-1 0 0 1 404.877 166.133)"/>
</clipPath>
</defs>
</svg>
