<svg width="489" height="111" viewBox="0 0 489 111" fill="none" xmlns="http://www.w3.org/2000/svg">
<path d="M124.195 68.0461C120.832 67.083 118.171 65.7962 116.213 64.2015L119.217 57.8308C121.133 59.2597 123.484 60.428 126.271 61.328C129.057 62.2358 131.852 62.6858 134.655 62.6858C138.127 62.6858 140.721 62.1569 142.436 61.1069C144.152 60.057 145.013 58.6676 145.013 56.9466C145.013 55.6835 144.537 54.6415 143.574 53.8283C142.612 53.0073 141.399 52.3679 139.934 51.9021C138.462 51.4442 136.462 50.9153 133.918 50.3233C130.354 49.5259 127.467 48.7286 125.266 47.9234C123.057 47.126 121.166 45.8708 119.585 44.1736C118.004 42.4684 117.209 40.1711 117.209 37.266C117.209 34.8266 117.911 32.6083 119.317 30.6111C120.723 28.6138 122.84 27.027 125.668 25.8508C128.496 24.6745 131.96 24.0824 136.06 24.0824C138.914 24.0824 141.717 24.4219 144.478 25.0929C147.239 25.7639 149.624 26.7349 151.632 27.9901L148.888 34.3609C146.838 33.2241 144.704 32.3636 142.47 31.7794C140.244 31.1873 138.077 30.8953 135.985 30.8953C132.554 30.8953 130.002 31.44 128.329 32.5373C126.655 33.6346 125.819 35.0793 125.819 36.8871C125.819 38.1502 126.296 39.1764 127.258 39.9738C128.212 40.7711 129.433 41.4026 130.898 41.8684C132.37 42.3342 134.37 42.8552 136.914 43.4473C140.386 44.2051 143.24 44.9946 145.465 45.8156C147.691 46.6366 149.599 47.8839 151.18 49.5654C152.762 51.2469 153.557 53.5205 153.557 56.3782C153.557 58.8176 152.854 61.0201 151.448 63.0016C150.042 64.9752 147.917 66.554 145.064 67.7303C142.21 68.9066 138.738 69.4986 134.638 69.4986C131.048 69.4907 127.559 69.0092 124.195 68.0461Z" fill="#00309E"/>
<path d="M167.205 64.3516C163.598 60.9255 161.791 56.0231 161.791 49.6287V24.722H170.476V49.3129C170.476 57.973 174.443 62.2991 182.375 62.2991C190.257 62.2991 194.206 57.973 194.206 49.3129V24.722H202.758V49.6287C202.758 56.0152 200.967 60.9255 197.378 64.3516C193.788 67.7778 188.768 69.4908 182.308 69.4908C175.848 69.4908 170.811 67.7778 167.205 64.3516Z" fill="#00309E"/>
<path d="M244.754 26.6167C247.758 27.8798 250.067 29.6876 251.674 32.0401C253.28 34.3926 254.084 37.1872 254.084 40.4239C254.084 43.6211 253.28 46.4078 251.674 48.7761C250.067 51.1523 247.766 52.968 244.754 54.2311C241.75 55.4942 238.219 56.1257 234.161 56.1257H223.601V68.8593H214.916V24.722H234.161C238.219 24.722 241.75 25.3536 244.754 26.6167ZM242.386 46.9209C244.344 45.4052 245.323 43.2422 245.323 40.4239C245.323 37.6056 244.344 35.4425 242.386 33.9268C240.428 32.4111 237.55 31.6533 233.768 31.6533H223.61V49.1787H233.768C237.55 49.1866 240.428 48.4366 242.386 46.9209Z" fill="#00309E"/>
<path d="M297.852 61.9912V68.8672H262.768V24.722H296.915V31.598H271.453V43.0764H294.045V49.826H271.453V61.9991H297.852V61.9912Z" fill="#00309E"/>
<path d="M338.151 68.8593L328.595 55.9363C328.194 55.9757 327.591 55.9994 326.788 55.9994H316.228V68.8593H307.543V24.722H326.788C330.838 24.722 334.377 25.3536 337.381 26.6167C340.385 27.8798 342.694 29.6876 344.301 32.0401C345.908 34.3926 346.711 37.1872 346.711 40.4239C346.711 43.7474 345.849 46.6051 344.134 48.9971C342.418 51.3891 339.958 53.1811 336.745 54.3574L347.506 68.8593H338.151ZM335.013 33.9347C333.055 32.419 330.177 31.6611 326.395 31.6611H316.237V49.2498H326.395C330.185 49.2498 333.055 48.484 335.013 46.9446C336.971 45.4131 337.95 43.2343 337.95 40.416C337.95 37.6135 336.971 35.4425 335.013 33.9347Z" fill="#00309E"/>
<path d="M48.8307 44.1222L48.9395 44.0749C48.906 44.0275 48.8726 43.9722 48.8474 43.9249C48.814 43.9328 48.7721 43.9328 48.7303 43.9407L24.6155 54.0928C20.9756 55.6243 16.6999 54.077 15.0766 50.6508C13.4533 47.2247 15.0934 43.1828 18.7248 41.6513L42.8564 31.4992L37.0578 19.2314L37.108 19.2077C37.0494 19.1603 36.9908 19.1129 36.949 19.0577L12.8425 29.2019C1.92307 33.7964 -2.9886 45.9063 1.88123 56.2085C6.75106 66.5027 19.595 71.1446 30.5061 66.5501L54.6377 56.39L48.8307 44.1222Z" fill="#75B7F0"/>
<path d="M59.6576 68.6765L26.1055 82.7986L31.7438 94.7225L65.2959 80.6004L59.6576 68.6765Z" fill="#75B7F0"/>
<path d="M95.3692 32.4227C91.7043 24.2678 83.0106 19.5628 74.1328 20.147C74.1244 17.534 73.5805 14.8736 72.4342 12.3237C67.8237 2.06104 55.2224 -2.74662 44.3448 1.60317L31.5762 6.71081L37.1572 19.1207L49.9259 14.0131C53.549 12.5605 57.7494 14.1631 59.2806 17.5813C60.8202 20.9996 59.1216 24.9625 55.4986 26.4072L42.7299 31.5149L48.311 43.9248L56.3353 40.7118L72.8609 34.0963C76.484 32.6437 80.6844 34.2463 82.2157 37.6645C83.7553 41.0828 82.0567 45.0458 78.4336 46.4904L53.9171 56.311L59.4982 68.7209L84.0063 58.9161C94.8839 54.5663 99.9797 42.6775 95.3692 32.4227Z" fill="#75B7F0"/>
<path d="M362.406 88.9421C360.188 88.9421 358.037 88.6481 355.952 88.0602C353.895 87.4456 352.238 86.6573 350.982 85.6952L353.186 80.8049C354.389 81.6868 355.819 82.3949 357.475 82.9294C359.132 83.4639 360.789 83.7311 362.446 83.7311C364.29 83.7311 365.653 83.4639 366.534 82.9294C367.416 82.3682 367.857 81.6333 367.857 80.7248C367.857 80.0567 367.59 79.5089 367.056 79.0813C366.548 78.627 365.88 78.2663 365.051 77.999C364.25 77.7318 363.154 77.4378 361.764 77.1172C359.627 76.6094 357.876 76.1017 356.513 75.594C355.151 75.0862 353.975 74.2712 352.986 73.1488C352.024 72.0264 351.543 70.53 351.543 68.6594C351.543 67.0293 351.984 65.5595 352.866 64.2501C353.748 62.9139 355.07 61.8584 356.834 61.0834C358.625 60.3084 360.802 59.9209 363.368 59.9209C365.158 59.9209 366.909 60.1347 368.619 60.5623C370.329 60.9899 371.826 61.6045 373.108 62.4062L371.104 67.3366C368.512 65.8668 365.92 65.1319 363.328 65.1319C361.511 65.1319 360.161 65.4259 359.279 66.0138C358.424 66.6017 357.997 67.3766 357.997 68.3387C357.997 69.3007 358.491 70.0222 359.48 70.5032C360.495 70.9575 362.032 71.4118 364.089 71.8661C366.227 72.3738 367.978 72.8816 369.34 73.3893C370.703 73.8971 371.866 74.6987 372.828 75.7944C373.817 76.89 374.311 78.3731 374.311 80.2438C374.311 81.8471 373.857 83.3169 372.948 84.653C372.066 85.9625 370.73 87.0047 368.94 87.7796C367.149 88.5546 364.971 88.9421 362.406 88.9421ZM387.005 66.575C390.346 66.575 392.911 67.3767 394.702 68.98C396.492 70.5567 397.387 72.9484 397.387 76.1551V88.4611H391.535V85.7754C390.359 87.7796 388.168 88.7817 384.961 88.7817C383.304 88.7817 381.861 88.5011 380.632 87.94C379.429 87.3788 378.508 86.6038 377.866 85.6151C377.225 84.6263 376.904 83.504 376.904 82.248C376.904 80.2438 377.652 78.6671 379.149 77.518C380.672 76.3689 383.01 75.7944 386.164 75.7944H391.134C391.134 74.4315 390.72 73.3893 389.892 72.6678C389.063 71.9196 387.82 71.5454 386.164 71.5454C385.015 71.5454 383.879 71.7325 382.756 72.1066C381.661 72.454 380.726 72.935 379.951 73.5497L377.706 69.1804C378.882 68.352 380.285 67.7107 381.915 67.2564C383.572 66.8021 385.268 66.575 387.005 66.575ZM386.524 84.5729C387.593 84.5729 388.542 84.3324 389.37 83.8514C390.199 83.3436 390.787 82.6087 391.134 81.6467V79.4421H386.845C384.28 79.4421 382.997 80.2838 382.997 81.9674C382.997 82.7691 383.304 83.4104 383.919 83.8914C384.56 84.3457 385.429 84.5729 386.524 84.5729ZM424.772 66.8956V88.4611H418.84V85.8957C418.012 86.831 417.023 87.5525 415.874 88.0602C414.725 88.5412 413.482 88.7817 412.146 88.7817C409.313 88.7817 407.069 87.9667 405.412 86.3366C403.755 84.7065 402.926 82.2881 402.926 79.0813V66.8956H409.18V78.1594C409.18 81.6333 410.636 83.3703 413.549 83.3703C415.045 83.3703 416.248 82.8893 417.156 81.9273C418.065 80.9385 418.519 79.4821 418.519 77.5581V66.8956H424.772ZM415.593 58.3577H422.327L415.072 64.1298H410.182L415.593 58.3577ZM452.532 58.7184V88.4611H446.559V85.9758C445.009 87.8464 442.765 88.7817 439.825 88.7817C437.794 88.7817 435.95 88.3274 434.293 87.4189C432.663 86.5103 431.381 85.2142 430.445 83.5307C429.51 81.8471 429.042 79.8964 429.042 77.6783C429.042 75.4603 429.51 73.5096 430.445 71.826C431.381 70.1425 432.663 68.8464 434.293 67.9378C435.95 67.0293 437.794 66.575 439.825 66.575C442.578 66.575 444.729 67.4435 446.279 69.1804V58.7184H452.532ZM440.907 83.6509C442.484 83.6509 443.793 83.1165 444.836 82.0476C445.878 80.9519 446.399 79.4955 446.399 77.6783C446.399 75.8612 445.878 74.4181 444.836 73.3492C443.793 72.2536 442.484 71.7058 440.907 71.7058C439.304 71.7058 437.981 72.2536 436.939 73.3492C435.897 74.4181 435.376 75.8612 435.376 77.6783C435.376 79.4955 435.897 80.9519 436.939 82.0476C437.981 83.1165 439.304 83.6509 440.907 83.6509ZM479.444 77.7585C479.444 77.8387 479.404 78.3999 479.324 79.4421H463.009C463.303 80.7782 463.998 81.8338 465.094 82.6087C466.189 83.3837 467.552 83.7712 469.182 83.7712C470.305 83.7712 471.293 83.6108 472.149 83.2902C473.03 82.9428 473.845 82.4083 474.594 81.6868L477.921 85.2944C475.89 87.6193 472.923 88.7817 469.022 88.7817C466.59 88.7817 464.439 88.3141 462.568 87.3788C460.698 86.4168 459.255 85.094 458.239 83.4104C457.224 81.7269 456.716 79.8162 456.716 77.6783C456.716 75.5672 457.21 73.6699 458.199 71.9864C459.215 70.2761 460.591 68.9533 462.328 68.018C464.092 67.056 466.056 66.575 468.22 66.575C470.331 66.575 472.242 67.0293 473.952 67.9378C475.663 68.8464 476.999 70.1558 477.961 71.8661C478.95 73.5497 479.444 75.5138 479.444 77.7585ZM468.26 71.3049C466.844 71.3049 465.655 71.7058 464.693 72.5075C463.731 73.3091 463.143 74.4048 462.929 75.7944H473.551C473.338 74.4315 472.75 73.3492 471.788 72.5475C470.826 71.7191 469.65 71.3049 468.26 71.3049Z" fill="#75B7F0"/>
</svg>
