<svg width="294" height="67" viewBox="0 0 294 67" fill="none" xmlns="http://www.w3.org/2000/svg">
<path d="M74.6099 41.1536C72.5892 40.575 70.9907 39.802 69.8145 38.844L71.619 35.0168C72.7701 35.8752 74.1826 36.5771 75.8565 37.1177C77.5304 37.6631 79.2093 37.9335 80.8932 37.9335C82.9793 37.9335 84.5376 37.6157 85.568 36.985C86.5985 36.3542 87.1163 35.5195 87.1163 34.4857C87.1163 33.7269 86.8297 33.1009 86.2517 32.6124C85.6736 32.1192 84.9447 31.735 84.0651 31.4552C83.1804 31.1801 81.979 30.8624 80.4509 30.5067C78.3095 30.0277 76.5753 29.5487 75.2533 29.065C73.9263 28.586 72.7902 27.8319 71.8402 26.8123C70.8902 25.7879 70.4126 24.4079 70.4126 22.6626C70.4126 21.1972 70.8349 19.8646 71.6794 18.6647C72.5238 17.4649 73.7956 16.5116 75.4946 15.805C77.1936 15.0984 79.2747 14.7427 81.7377 14.7427C83.4518 14.7427 85.1358 14.9466 86.7946 15.3497C88.4534 15.7528 89.886 16.3362 91.0924 17.0902L89.4436 20.9174C88.2121 20.2345 86.9303 19.7175 85.5882 19.3666C84.2511 19.0109 82.9492 18.8354 81.6925 18.8354C79.6315 18.8354 78.0984 19.1627 77.0931 19.8219C76.0877 20.4811 75.5851 21.349 75.5851 22.435C75.5851 23.1938 75.8716 23.8103 76.4497 24.2893C77.0227 24.7683 77.7566 25.1477 78.6363 25.4275C79.521 25.7073 80.7223 26.0203 82.2504 26.376C84.3365 26.8313 86.0506 27.3055 87.3877 27.7988C88.7248 28.292 89.8709 29.0413 90.8209 30.0514C91.771 31.0616 92.2485 32.4274 92.2485 34.1442C92.2485 35.6096 91.8263 36.9328 90.9818 38.1232C90.1373 39.3088 88.8605 40.2573 87.1464 40.9639C85.4323 41.6705 83.3463 42.0262 80.8832 42.0262C78.7267 42.0215 76.6306 41.7322 74.6099 41.1536Z" fill="#00309E"/>
<path d="M100.448 38.9342C98.2811 36.876 97.1953 33.9309 97.1953 30.0895V15.127H102.413V29.8998C102.413 35.1023 104.796 37.7012 109.561 37.7012C114.296 37.7012 116.669 35.1023 116.669 29.8998V15.127H121.806V30.0895C121.806 33.9262 120.73 36.876 118.574 38.9342C116.417 40.9925 113.401 42.0216 109.521 42.0216C105.64 42.0216 102.614 40.9925 100.448 38.9342Z" fill="#00309E"/>
<path d="M147.034 16.2651C148.839 17.0239 150.226 18.11 151.192 19.5232C152.157 20.9365 152.639 22.6153 152.639 24.5598C152.639 26.4805 152.157 28.1546 151.192 29.5773C150.226 31.0048 148.844 32.0956 147.034 32.8544C145.23 33.6132 143.109 33.9926 140.671 33.9926H134.327V41.6422H129.109V15.127H140.671C143.109 15.127 145.23 15.5064 147.034 16.2651ZM145.612 28.4628C146.788 27.5523 147.376 26.2528 147.376 24.5598C147.376 22.8667 146.788 21.5673 145.612 20.6567C144.436 19.7461 142.706 19.2909 140.434 19.2909H134.332V29.8192H140.434C142.706 29.8239 144.436 29.3734 145.612 28.4628Z" fill="#00309E"/>
<path d="M178.934 37.5162V41.647H157.857V15.127H178.371V19.2577H163.075V26.1532H176.647V30.2081H163.075V37.521H178.934V37.5162Z" fill="#00309E"/>
<path d="M203.141 41.6422L197.401 33.8788C197.16 33.9025 196.798 33.9167 196.315 33.9167H189.972V41.6422H184.754V15.127H196.315C198.748 15.127 200.874 15.5064 202.679 16.2651C204.484 17.0239 205.871 18.11 206.836 19.5232C207.801 20.9365 208.284 22.6153 208.284 24.5598C208.284 26.5564 207.766 28.2731 206.736 29.7101C205.705 31.1471 204.227 32.2236 202.297 32.9303L208.761 41.6422H203.141ZM201.256 20.6614C200.08 19.7509 198.351 19.2956 196.079 19.2956H189.977V29.8619H196.079C198.356 29.8619 200.08 29.4018 201.256 28.4771C202.433 27.557 203.021 26.2481 203.021 24.555C203.021 22.8714 202.433 21.5673 201.256 20.6614Z" fill="#00309E"/>
<path d="M29.3348 26.7815L29.4001 26.7531C29.38 26.7246 29.3599 26.6914 29.3449 26.663C29.3247 26.6677 29.2996 26.6677 29.2745 26.6724L14.7876 32.7713C12.601 33.6913 10.0324 32.7618 9.0572 30.7036C8.08203 28.6453 9.06726 26.2172 11.2488 25.2971L25.7458 19.1983L22.2623 11.8285L22.2924 11.8142C22.2572 11.7858 22.2221 11.7573 22.1969 11.7241L7.71508 17.8182C1.15527 20.5783 -1.79538 27.8533 1.13014 34.0423C4.05566 40.2265 11.7716 43.0151 18.3264 40.2549L32.8233 34.1513L29.3348 26.7815Z" fill="#00ACE2"/>
<path d="M35.8379 41.5325L15.6816 50.0164L19.0688 57.1796L39.2251 48.6958L35.8379 41.5325Z" fill="#00ACE2"/>
<path d="M57.294 19.7532C55.0924 14.8542 49.8696 12.0276 44.5363 12.3786C44.5313 10.8088 44.2046 9.21061 43.5159 7.67879C40.7462 1.51355 33.1761 -1.37462 26.6414 1.23849L18.9707 4.30688L22.3235 11.7621L29.9942 8.69368C32.1707 7.82106 34.6941 8.78379 35.614 10.8373C36.5389 12.8908 35.5185 15.2715 33.342 16.1394L25.6713 19.2078L29.024 26.663L33.8446 24.7328L43.7723 20.7586C45.9488 19.886 48.4722 20.8487 49.3921 22.9022C50.317 24.9557 49.2966 27.3364 47.1201 28.2043L32.3919 34.1039L35.7447 41.5591L50.4678 35.669C57.0025 33.0558 60.0637 25.9137 57.294 19.7532Z" fill="#00ACE2"/>
<path d="M223.276 49.7685H215.449L213.956 53.3806H209.959L217.472 36.5243H221.325L228.862 53.3806H224.769L223.276 49.7685ZM222.047 46.8066L219.375 40.3531L216.702 46.8066H222.047ZM243.163 40.4253V53.3806H239.599V51.8395C239.101 52.4013 238.507 52.8348 237.817 53.1398C237.127 53.4288 236.38 53.5733 235.577 53.5733C233.876 53.5733 232.527 53.0836 231.532 52.1043C230.536 51.1251 230.039 49.6722 230.039 47.7458V40.4253H233.795V47.1919C233.795 49.2789 234.67 50.3224 236.42 50.3224C237.319 50.3224 238.042 50.0334 238.587 49.4555C239.133 48.8615 239.406 47.9866 239.406 46.8307V40.4253H243.163ZM254.999 52.7545C254.63 53.0274 254.172 53.2361 253.626 53.3806C253.096 53.509 252.535 53.5733 251.941 53.5733C250.399 53.5733 249.203 53.1799 248.353 52.3933C247.518 51.6067 247.1 50.4508 247.1 48.9257V43.6039H245.102V40.7143H247.1V37.5597H250.857V40.7143H254.084V43.6039H250.857V48.8776C250.857 49.4234 250.993 49.8488 251.266 50.1538C251.555 50.4428 251.957 50.5873 252.47 50.5873C253.064 50.5873 253.57 50.4267 253.987 50.1057L254.999 52.7545ZM262.872 53.5733C261.508 53.5733 260.28 53.2923 259.188 52.7304C258.112 52.1525 257.27 51.3579 256.66 50.3465C256.05 49.3351 255.745 48.1873 255.745 46.903C255.745 45.6187 256.05 44.4708 256.66 43.4594C257.27 42.4481 258.112 41.6614 259.188 41.0996C260.28 40.5216 261.508 40.2327 262.872 40.2327C264.237 40.2327 265.457 40.5216 266.533 41.0996C267.608 41.6614 268.451 42.4481 269.061 43.4594C269.671 44.4708 269.976 45.6187 269.976 46.903C269.976 48.1873 269.671 49.3351 269.061 50.3465C268.451 51.3579 267.608 52.1525 266.533 52.7304C265.457 53.2923 264.237 53.5733 262.872 53.5733ZM262.872 50.491C263.836 50.491 264.622 50.1699 265.232 49.5277C265.858 48.8695 266.171 47.9946 266.171 46.903C266.171 45.8113 265.858 44.9444 265.232 44.3023C264.622 43.6441 263.836 43.315 262.872 43.315C261.909 43.315 261.115 43.6441 260.488 44.3023C259.862 44.9444 259.549 45.8113 259.549 46.903C259.549 47.9946 259.862 48.8695 260.488 49.5277C261.115 50.1699 261.909 50.491 262.872 50.491Z" fill="#00ACE2"/>
</svg>
