<svg width="489" height="111" viewBox="0 0 489 111" fill="none" xmlns="http://www.w3.org/2000/svg">
<path d="M124.195 68.0461C120.832 67.083 118.171 65.7962 116.213 64.2015L119.217 57.8308C121.133 59.2597 123.484 60.428 126.271 61.328C129.057 62.2358 131.852 62.6858 134.655 62.6858C138.127 62.6858 140.721 62.1569 142.436 61.1069C144.152 60.057 145.013 58.6676 145.013 56.9466C145.013 55.6835 144.537 54.6415 143.574 53.8283C142.612 53.0073 141.399 52.3679 139.934 51.9021C138.462 51.4443 136.462 50.9153 133.918 50.3233C130.354 49.5259 127.467 48.7286 125.266 47.9234C123.057 47.126 121.166 45.8708 119.585 44.1736C118.004 42.4684 117.209 40.1711 117.209 37.266C117.209 34.8266 117.911 32.6083 119.317 30.6111C120.723 28.6138 122.84 27.027 125.668 25.8508C128.496 24.6745 131.96 24.0824 136.06 24.0824C138.914 24.0824 141.717 24.4219 144.478 25.0929C147.239 25.7639 149.624 26.7349 151.632 27.9901L148.888 34.3609C146.838 33.2241 144.704 32.3636 142.47 31.7794C140.244 31.1873 138.077 30.8953 135.985 30.8953C132.554 30.8953 130.002 31.44 128.329 32.5373C126.655 33.6346 125.819 35.0793 125.819 36.8871C125.819 38.1502 126.296 39.1764 127.258 39.9738C128.212 40.7711 129.433 41.4026 130.898 41.8684C132.37 42.3342 134.37 42.8552 136.914 43.4473C140.386 44.2051 143.24 44.9946 145.465 45.8156C147.691 46.6366 149.599 47.8839 151.18 49.5654C152.762 51.2469 153.557 53.5205 153.557 56.3782C153.557 58.8176 152.854 61.0201 151.448 63.0016C150.042 64.9752 147.917 66.554 145.064 67.7303C142.21 68.9066 138.738 69.4986 134.638 69.4986C131.048 69.4907 127.559 69.0092 124.195 68.0461Z" fill="#00309E"/>
<path d="M167.205 64.3516C163.598 60.9255 161.791 56.0231 161.791 49.6287V24.722H170.476V49.3129C170.476 57.973 174.443 62.2991 182.375 62.2991C190.257 62.2991 194.206 57.973 194.206 49.3129V24.722H202.758V49.6287C202.758 56.0152 200.967 60.9255 197.378 64.3516C193.788 67.7778 188.768 69.4908 182.308 69.4908C175.848 69.4908 170.811 67.7778 167.205 64.3516Z" fill="#00309E"/>
<path d="M244.754 26.6167C247.758 27.8798 250.067 29.6876 251.674 32.0401C253.28 34.3926 254.084 37.1872 254.084 40.4239C254.084 43.6211 253.28 46.4078 251.674 48.7761C250.067 51.1523 247.766 52.968 244.754 54.2311C241.75 55.4942 238.219 56.1257 234.161 56.1257H223.601V68.8593H214.916V24.722H234.161C238.219 24.722 241.75 25.3536 244.754 26.6167ZM242.386 46.9209C244.344 45.4052 245.323 43.2422 245.323 40.4239C245.323 37.6056 244.344 35.4425 242.386 33.9268C240.428 32.4111 237.55 31.6533 233.768 31.6533H223.61V49.1787H233.768C237.55 49.1866 240.428 48.4366 242.386 46.9209Z" fill="#00309E"/>
<path d="M297.852 61.9912V68.8672H262.768V24.722H296.915V31.598H271.453V43.0764H294.045V49.826H271.453V61.9991H297.852V61.9912Z" fill="#00309E"/>
<path d="M338.151 68.8593L328.595 55.9363C328.194 55.9757 327.591 55.9994 326.788 55.9994H316.228V68.8593H307.543V24.722H326.788C330.838 24.722 334.377 25.3536 337.381 26.6167C340.385 27.8798 342.694 29.6876 344.301 32.0401C345.908 34.3926 346.711 37.1872 346.711 40.4239C346.711 43.7474 345.849 46.6051 344.134 48.9971C342.418 51.3891 339.958 53.1811 336.745 54.3574L347.506 68.8593H338.151ZM335.013 33.9347C333.055 32.419 330.177 31.6611 326.395 31.6611H316.237V49.2498H326.395C330.185 49.2498 333.055 48.484 335.013 46.9446C336.971 45.4131 337.95 43.2343 337.95 40.416C337.95 37.6135 336.971 35.4425 335.013 33.9347Z" fill="#00309E"/>
<path d="M48.8307 44.1222L48.9395 44.0749C48.906 44.0275 48.8726 43.9722 48.8475 43.9249C48.814 43.9328 48.7721 43.9328 48.7303 43.9407L24.6155 54.0928C20.9756 55.6243 16.6999 54.077 15.0766 50.6508C13.4533 47.2247 15.0934 43.1828 18.7248 41.6513L42.8564 31.4992L37.0578 19.2314L37.108 19.2077C37.0494 19.1603 36.9908 19.1129 36.949 19.0577L12.8425 29.2019C1.92307 33.7964 -2.9886 45.9063 1.88123 56.2085C6.75106 66.5027 19.595 71.1446 30.5061 66.5501L54.6377 56.39L48.8307 44.1222Z" fill="#75B7F0"/>
<path d="M59.6576 68.6765L26.1055 82.7986L31.7438 94.7225L65.2959 80.6004L59.6576 68.6765Z" fill="#75B7F0"/>
<path d="M95.3692 32.4227C91.7043 24.2678 83.0106 19.5628 74.1328 20.147C74.1244 17.534 73.5805 14.8736 72.4342 12.3237C67.8237 2.06104 55.2224 -2.74662 44.3448 1.60317L31.5762 6.71081L37.1572 19.1207L49.9259 14.0131C53.549 12.5605 57.7494 14.1631 59.2806 17.5813C60.8202 20.9996 59.1216 24.9625 55.4986 26.4072L42.7299 31.5149L48.311 43.9248L56.3353 40.7118L72.8609 34.0963C76.484 32.6437 80.6844 34.2463 82.2157 37.6645C83.7553 41.0828 82.0567 45.0458 78.4336 46.4904L53.9171 56.311L59.4982 68.7209L84.0063 58.9161C94.8839 54.5663 99.9797 42.6775 95.3692 32.4227Z" fill="#75B7F0"/>
<path d="M380.163 60.402L368.018 88.4611H361.604L349.499 60.402H356.513L365.051 80.4442L373.71 60.402H380.163ZM382.456 66.8956H388.71V88.4611H382.456V66.8956ZM385.583 63.8893C384.434 63.8893 383.499 63.5553 382.777 62.8872C382.056 62.2191 381.695 61.3907 381.695 60.402C381.695 59.4132 382.056 58.5848 382.777 57.9167C383.499 57.2487 384.434 56.9146 385.583 56.9146C386.732 56.9146 387.667 57.2353 388.389 57.8766C389.11 58.518 389.471 59.3197 389.471 60.2817C389.471 61.3239 389.11 62.1924 388.389 62.8872C387.667 63.5553 386.732 63.8893 385.583 63.8893ZM416.479 58.7184V88.4611H410.507V85.9758C408.957 87.8464 406.712 88.7817 403.773 88.7817C401.742 88.7817 399.898 88.3274 398.241 87.4189C396.611 86.5103 395.328 85.2142 394.393 83.5307C393.458 81.8471 392.99 79.8964 392.99 77.6783C392.99 75.4603 393.458 73.5096 394.393 71.826C395.328 70.1425 396.611 68.8464 398.241 67.9378C399.898 67.0293 401.742 66.575 403.773 66.575C406.525 66.575 408.676 67.4435 410.226 69.1804V58.7184H416.479ZM404.855 83.6509C406.432 83.6509 407.741 83.1165 408.783 82.0476C409.825 80.9519 410.346 79.4955 410.346 77.6783C410.346 75.8612 409.825 74.4181 408.783 73.3492C407.741 72.2536 406.432 71.7058 404.855 71.7058C403.252 71.7058 401.929 72.2536 400.887 73.3492C399.844 74.4181 399.323 75.8612 399.323 77.6783C399.323 79.4955 399.844 80.9519 400.887 82.0476C401.929 83.1165 403.252 83.6509 404.855 83.6509ZM430.965 66.575C434.306 66.575 436.871 67.3767 438.661 68.98C440.452 70.5567 441.347 72.9484 441.347 76.1551V88.4611H435.495V85.7754C434.319 87.7796 432.128 88.7817 428.921 88.7817C427.264 88.7817 425.821 88.5011 424.592 87.94C423.389 87.3788 422.467 86.6038 421.826 85.6151C421.185 84.6263 420.864 83.504 420.864 82.248C420.864 80.2438 421.612 78.6671 423.109 77.518C424.632 76.3689 426.97 75.7944 430.123 75.7944H435.094C435.094 74.4315 434.68 73.3893 433.851 72.6678C433.023 71.9196 431.78 71.5454 430.123 71.5454C428.974 71.5454 427.839 71.7325 426.716 72.1066C425.621 72.454 424.685 72.935 423.91 73.5497L421.666 69.1804C422.841 68.352 424.244 67.7107 425.874 67.2564C427.531 66.8021 429.228 66.575 430.965 66.575ZM430.484 84.5729C431.553 84.5729 432.502 84.3324 433.33 83.8514C434.159 83.3436 434.747 82.6087 435.094 81.6467V79.4421H430.805C428.239 79.4421 426.957 80.2838 426.957 81.9674C426.957 82.7691 427.264 83.4104 427.879 83.8914C428.52 84.3457 429.389 84.5729 430.484 84.5729Z" fill="#75B7F0"/>
</svg>
