<svg width="159" height="159" viewBox="0 0 159 159" fill="none" xmlns="http://www.w3.org/2000/svg">
<circle cx="36.719" cy="3.16892" r="2.56788" transform="rotate(15.7637 36.719 3.16892)" fill="#BADBFE"/>
<circle cx="31.1272" cy="22.977" r="2.56788" transform="rotate(15.7637 31.1272 22.977)" fill="#BADBFE"/>
<circle cx="25.5354" cy="42.785" r="2.56788" transform="rotate(15.7637 25.5354 42.785)" fill="#BADBFE"/>
<circle cx="19.9436" cy="62.593" r="2.56788" transform="rotate(15.7637 19.9436 62.593)" fill="#BADBFE"/>
<circle cx="14.3518" cy="82.4011" r="2.56788" transform="rotate(15.7637 14.3518 82.4011)" fill="#BADBFE"/>
<circle cx="8.76001" cy="102.209" r="2.56788" transform="rotate(15.7637 8.76001 102.209)" fill="#BADBFE"/>
<circle cx="3.16821" cy="122.017" r="2.56788" transform="rotate(15.7637 3.16821 122.017)" fill="#BADBFE"/>
<circle cx="56.5276" cy="8.76035" r="2.56788" transform="rotate(15.7637 56.5276 8.76035)" fill="#BADBFE"/>
<circle cx="50.9358" cy="28.5686" r="2.56788" transform="rotate(15.7637 50.9358 28.5686)" fill="#BADBFE"/>
<circle cx="45.344" cy="48.3766" r="2.56788" transform="rotate(15.7637 45.344 48.3766)" fill="#BADBFE"/>
<circle cx="39.7522" cy="68.1847" r="2.56788" transform="rotate(15.7637 39.7522 68.1847)" fill="#BADBFE"/>
<circle cx="34.1604" cy="87.9926" r="2.56788" transform="rotate(15.7637 34.1604 87.9926)" fill="#BADBFE"/>
<circle cx="28.5686" cy="107.801" r="2.56788" transform="rotate(15.7637 28.5686 107.801)" fill="#BADBFE"/>
<circle cx="22.9768" cy="127.609" r="2.56788" transform="rotate(15.7637 22.9768 127.609)" fill="#BADBFE"/>
<circle cx="76.3342" cy="14.352" r="2.56788" transform="rotate(15.7637 76.3342 14.352)" fill="#BADBFE"/>
<circle cx="70.7424" cy="34.1601" r="2.56788" transform="rotate(15.7637 70.7424 34.1601)" fill="#BADBFE"/>
<circle cx="65.1506" cy="53.9682" r="2.56788" transform="rotate(15.7637 65.1506 53.9682)" fill="#BADBFE"/>
<circle cx="59.5608" cy="73.7762" r="2.56788" transform="rotate(15.7637 59.5608 73.7762)" fill="#BADBFE"/>
<circle cx="53.969" cy="93.5843" r="2.56788" transform="rotate(15.7637 53.969 93.5843)" fill="#BADBFE"/>
<circle cx="48.3772" cy="113.392" r="2.56788" transform="rotate(15.7637 48.3772 113.392)" fill="#BADBFE"/>
<circle cx="42.7854" cy="133.2" r="2.56788" transform="rotate(15.7637 42.7854 133.2)" fill="#BADBFE"/>
<circle cx="96.1428" cy="19.9436" r="2.56788" transform="rotate(15.7637 96.1428 19.9436)" fill="#BADBFE"/>
<circle cx="90.551" cy="39.7517" r="2.56788" transform="rotate(15.7637 90.551 39.7517)" fill="#BADBFE"/>
<circle cx="84.9592" cy="59.5597" r="2.56788" transform="rotate(15.7637 84.9592 59.5597)" fill="#BADBFE"/>
<circle cx="79.3674" cy="79.3679" r="2.56788" transform="rotate(15.7637 79.3674 79.3679)" fill="#BADBFE"/>
<circle cx="73.7756" cy="99.1759" r="2.56788" transform="rotate(15.7637 73.7756 99.1759)" fill="#BADBFE"/>
<circle cx="68.1858" cy="118.984" r="2.56788" transform="rotate(15.7637 68.1858 118.984)" fill="#BADBFE"/>
<circle cx="62.594" cy="138.792" r="2.56788" transform="rotate(15.7637 62.594 138.792)" fill="#BADBFE"/>
<circle cx="115.951" cy="25.5352" r="2.56788" transform="rotate(15.7637 115.951 25.5352)" fill="#BADBFE"/>
<circle cx="110.36" cy="45.3432" r="2.56788" transform="rotate(15.7637 110.36 45.3432)" fill="#BADBFE"/>
<circle cx="104.768" cy="65.1512" r="2.56788" transform="rotate(15.7637 104.768 65.1512)" fill="#BADBFE"/>
<circle cx="99.176" cy="84.9593" r="2.56788" transform="rotate(15.7637 99.176 84.9593)" fill="#BADBFE"/>
<circle cx="93.5842" cy="104.767" r="2.56788" transform="rotate(15.7637 93.5842 104.767)" fill="#BADBFE"/>
<circle cx="87.9924" cy="124.576" r="2.56788" transform="rotate(15.7637 87.9924 124.576)" fill="#BADBFE"/>
<circle cx="82.4006" cy="144.384" r="2.56788" transform="rotate(15.7637 82.4006 144.384)" fill="#BADBFE"/>
<circle cx="135.758" cy="31.1268" r="2.56788" transform="rotate(15.7637 135.758 31.1268)" fill="#BADBFE"/>
<circle cx="130.168" cy="50.9348" r="2.56788" transform="rotate(15.7637 130.168 50.9348)" fill="#BADBFE"/>
<circle cx="124.576" cy="70.7429" r="2.56788" transform="rotate(15.7637 124.576 70.7429)" fill="#BADBFE"/>
<circle cx="118.985" cy="90.5509" r="2.56788" transform="rotate(15.7637 118.985 90.5509)" fill="#BADBFE"/>
<circle cx="113.393" cy="110.359" r="2.56788" transform="rotate(15.7637 113.393 110.359)" fill="#BADBFE"/>
<circle cx="107.801" cy="130.167" r="2.56788" transform="rotate(15.7637 107.801 130.167)" fill="#BADBFE"/>
<circle cx="102.209" cy="149.975" r="2.56788" transform="rotate(15.7637 102.209 149.975)" fill="#BADBFE"/>
<circle cx="155.567" cy="36.7182" r="2.56788" transform="rotate(15.7637 155.567 36.7182)" fill="#BADBFE"/>
<circle cx="149.975" cy="56.5265" r="2.56788" transform="rotate(15.7637 149.975 56.5265)" fill="#BADBFE"/>
<circle cx="144.383" cy="76.3344" r="2.56788" transform="rotate(15.7637 144.383 76.3344)" fill="#BADBFE"/>
<circle cx="138.791" cy="96.1425" r="2.56788" transform="rotate(15.7637 138.791 96.1425)" fill="#BADBFE"/>
<circle cx="133.201" cy="115.951" r="2.56788" transform="rotate(15.7637 133.201 115.951)" fill="#BADBFE"/>
<circle cx="127.61" cy="135.759" r="2.56788" transform="rotate(15.7637 127.61 135.759)" fill="#BADBFE"/>
<circle cx="122.018" cy="155.567" r="2.56788" transform="rotate(15.7637 122.018 155.567)" fill="#BADBFE"/>
</svg>
