<svg width="799" height="236" viewBox="0 0 799 236" fill="none" xmlns="http://www.w3.org/2000/svg">
<line x1="10.9841" y1="13.1" x2="34.3277" y2="30.3068" stroke="#BADBFE" stroke-width="4" stroke-linecap="round"/>
<path d="M31.6797 9.96808L13.5235 34.5997" stroke="#BADBFE" stroke-width="4" stroke-linecap="round"/>
<circle cx="95" cy="24" r="4" fill="#73E4EC"/>
<circle cx="548" cy="143.482" r="4" fill="#BADBFE"/>
<circle cx="70" cy="114" r="4" fill="#73E4EC"/>
<circle cx="243" cy="81.4816" r="4" fill="#73E4EC"/>
<circle cx="665" cy="114.482" r="4" fill="#73E4EC"/>
<circle cx="235" cy="191.482" r="4" fill="#73E4EC"/>
<circle cx="355" cy="111.482" r="8" fill="#BADBFE"/>
<circle r="6" transform="matrix(-1 0 0 1 168 30)" fill="#BADBFE"/>
<circle r="6" transform="matrix(-1 0 0 1 793 113.482)" fill="#BADBFE"/>
<circle r="6" transform="matrix(-1 0 0 1 378 31.4816)" fill="#FFFE06"/>
<circle r="4" transform="matrix(-1 0 0 1 156 122)" fill="#FFFE06"/>
<circle r="4" transform="matrix(-1 0 0 1 94 231.482)" fill="#FFFE06"/>
<circle r="4" transform="matrix(-1 0 0 1 465 85.4816)" fill="#FFFE06"/>
</svg>
