<svg width="258" height="31" viewBox="0 0 258 31" fill="none" xmlns="http://www.w3.org/2000/svg">
<path d="M9.1735 24.384C7.40283 24.384 5.70683 24.1493 4.0855 23.68C2.46417 23.2107 1.16283 22.6133 0.1815 21.888L2.2935 17.888C3.3175 18.6347 4.4695 19.2107 5.7495 19.616C7.0295 20.0213 8.3415 20.224 9.6855 20.224C11.1148 20.224 12.2455 19.9893 13.0775 19.52C13.9095 19.0507 14.3255 18.4107 14.3255 17.6C14.3255 16.9387 13.9948 16.4373 13.3335 16.096C12.6722 15.7333 11.6162 15.3493 10.1655 14.944C8.71483 14.5173 7.53083 14.112 6.6135 13.728C5.69617 13.3227 4.89617 12.7253 4.2135 11.936C3.55217 11.1467 3.2215 10.1013 3.2215 8.8C3.2215 7.28533 3.6375 5.952 4.4695 4.8C5.32283 3.648 6.5175 2.76267 8.0535 2.144C9.61083 1.52533 11.4135 1.216 13.4615 1.216C14.9762 1.216 16.4055 1.38667 17.7495 1.728C19.0935 2.048 20.2455 2.51733 21.2055 3.136L19.2535 7.104C18.4215 6.528 17.4828 6.10133 16.4375 5.824C15.3922 5.52533 14.3042 5.376 13.1735 5.376C11.7015 5.376 10.5388 5.632 9.6855 6.144C8.83217 6.656 8.4055 7.31733 8.4055 8.128C8.4055 8.61867 8.58683 9.03467 8.9495 9.376C9.31217 9.696 9.77083 9.96267 10.3255 10.176C10.8802 10.368 11.6588 10.6027 12.6615 10.88C14.0908 11.264 15.2642 11.6587 16.1815 12.064C17.0988 12.448 17.8775 13.024 18.5175 13.792C19.1788 14.5387 19.5095 15.5307 19.5095 16.768C19.5095 18.304 19.0828 19.648 18.2295 20.8C17.3762 21.9307 16.1708 22.816 14.6135 23.456C13.0562 24.0747 11.2428 24.384 9.1735 24.384ZM42.2198 6.784L38.7958 24H34.0598L34.4118 22.144C33.6651 22.848 32.8118 23.3813 31.8518 23.744C30.8918 24.0853 29.8784 24.256 28.8118 24.256C26.9344 24.256 25.4304 23.744 24.2998 22.72C23.1904 21.696 22.6358 20.256 22.6358 18.4C22.6358 17.696 22.7104 17.0027 22.8598 16.32L24.7478 6.784H29.7398L27.9158 16C27.8304 16.4053 27.7878 16.8213 27.7878 17.248C27.7878 19.04 28.7478 19.936 30.6678 19.936C31.9264 19.936 32.9611 19.5733 33.7718 18.848C34.6038 18.1013 35.1691 16.992 35.4678 15.52L37.2278 6.784H42.2198ZM56.5085 6.528C57.8525 6.528 59.0898 6.83733 60.2205 7.456C61.3725 8.07467 62.2792 8.97067 62.9405 10.144C63.6232 11.296 63.9645 12.6613 63.9645 14.24C63.9645 16.1387 63.5378 17.856 62.6845 19.392C61.8525 20.9067 60.7112 22.1013 59.2605 22.976C57.8098 23.8293 56.1992 24.256 54.4285 24.256C51.8045 24.256 49.9485 23.4027 48.8605 21.696L47.1645 30.208H42.1725L46.8445 6.784H51.5805L51.2285 8.48C52.6578 7.17867 54.4178 6.528 56.5085 6.528ZM53.8525 20.128C54.8338 20.128 55.7085 19.8933 56.4765 19.424C57.2445 18.9333 57.8418 18.2613 58.2685 17.408C58.6952 16.5547 58.9085 15.5733 58.9085 14.464C58.9085 13.2907 58.5565 12.3627 57.8525 11.68C57.1698 10.9973 56.2098 10.656 54.9725 10.656C54.0125 10.656 53.1485 10.9013 52.3805 11.392C51.6125 11.8613 51.0152 12.5227 50.5885 13.376C50.1618 14.2293 49.9485 15.2107 49.9485 16.32C49.9485 17.4933 50.2898 18.4213 50.9725 19.104C51.6552 19.7867 52.6152 20.128 53.8525 20.128ZM84.2023 14.112C84.2023 14.9013 84.1063 15.776 83.9143 16.736H70.7303C70.9009 19.0827 72.3836 20.256 75.1783 20.256C76.0529 20.256 76.8849 20.1173 77.6743 19.84C78.4849 19.5627 79.1889 19.168 79.7863 18.656L81.8663 21.952C80.9063 22.72 79.8076 23.296 78.5703 23.68C77.3329 24.064 76.0316 24.256 74.6663 24.256C72.8956 24.256 71.3383 23.9467 69.9943 23.328C68.6716 22.688 67.6476 21.7813 66.9223 20.608C66.2183 19.4347 65.8663 18.08 65.8663 16.544C65.8663 14.6453 66.2929 12.9387 67.1463 11.424C68.0209 9.888 69.2263 8.69333 70.7623 7.84C72.2983 6.96533 74.0476 6.528 76.0103 6.528C77.6743 6.528 79.1143 6.83733 80.3303 7.456C81.5676 8.07467 82.5169 8.96 83.1783 10.112C83.8609 11.264 84.2023 12.5973 84.2023 14.112ZM75.7863 10.272C74.6129 10.272 73.6209 10.592 72.8103 11.232C71.9996 11.8507 71.4236 12.7147 71.0823 13.824H79.6263C79.6263 12.7147 79.2743 11.8507 78.5703 11.232C77.8876 10.592 76.9596 10.272 75.7863 10.272ZM93.352 8.832C94.0987 8.02133 94.9947 7.43467 96.04 7.072C97.1067 6.70933 98.3547 6.528 99.784 6.528L98.888 11.136C98.2907 11.0933 97.9067 11.072 97.736 11.072C96.2213 11.072 95.0053 11.4453 94.088 12.192C93.192 12.9387 92.584 14.1013 92.264 15.68L90.6 24H85.608L89.032 6.784H93.768L93.352 8.832ZM115.54 3.648L113.94 11.616H125.556L125.172 13.632H113.556L111.892 21.952H125.364L124.948 24H109.14L113.62 1.6H128.98L128.564 3.648H115.54ZM134.713 24.16C133.369 24.16 132.078 23.968 130.841 23.584C129.625 23.2 128.686 22.7093 128.024 22.112L129.113 20.32C129.753 20.8747 130.595 21.3227 131.641 21.664C132.686 22.0053 133.785 22.176 134.937 22.176C136.537 22.176 137.763 21.92 138.617 21.408C139.491 20.8747 139.929 20.128 139.929 19.168C139.929 18.6347 139.747 18.208 139.385 17.888C139.043 17.568 138.617 17.3227 138.105 17.152C137.593 16.9813 136.846 16.7893 135.865 16.576C134.691 16.32 133.742 16.064 133.016 15.808C132.291 15.552 131.673 15.1467 131.161 14.592C130.649 14.0373 130.393 13.2693 130.393 12.288C130.393 10.688 131.054 9.41867 132.377 8.48C133.699 7.52 135.47 7.04 137.689 7.04C138.777 7.04 139.833 7.18933 140.857 7.488C141.902 7.76533 142.745 8.13867 143.385 8.608L142.425 10.432C141.785 9.96267 141.027 9.61067 140.153 9.376C139.299 9.12 138.414 8.992 137.497 8.992C135.961 8.992 134.766 9.26933 133.913 9.824C133.059 10.3787 132.633 11.1253 132.633 12.064C132.633 12.6187 132.814 13.0667 133.177 13.408C133.539 13.7493 133.987 14.0053 134.521 14.176C135.075 14.3467 135.822 14.528 136.76 14.72C137.913 14.976 138.841 15.232 139.545 15.488C140.27 15.7227 140.889 16.1173 141.401 16.672C141.913 17.2267 142.169 17.9733 142.169 18.912C142.169 20.5547 141.486 21.8453 140.121 22.784C138.777 23.7013 136.974 24.16 134.713 24.16ZM150.369 24.16C149.025 24.16 147.734 23.968 146.497 23.584C145.281 23.2 144.342 22.7093 143.681 22.112L144.769 20.32C145.409 20.8747 146.251 21.3227 147.297 21.664C148.342 22.0053 149.441 22.176 150.593 22.176C152.193 22.176 153.419 21.92 154.273 21.408C155.147 20.8747 155.585 20.128 155.585 19.168C155.585 18.6347 155.403 18.208 155.041 17.888C154.699 17.568 154.273 17.3227 153.761 17.152C153.249 16.9813 152.502 16.7893 151.521 16.576C150.347 16.32 149.398 16.064 148.673 15.808C147.947 15.552 147.329 15.1467 146.817 14.592C146.305 14.0373 146.049 13.2693 146.049 12.288C146.049 10.688 146.71 9.41867 148.033 8.48C149.355 7.52 151.126 7.04 153.345 7.04C154.433 7.04 155.489 7.18933 156.513 7.488C157.558 7.76533 158.401 8.13867 159.041 8.608L158.081 10.432C157.441 9.96267 156.683 9.61067 155.809 9.376C154.955 9.12 154.07 8.992 153.153 8.992C151.617 8.992 150.422 9.26933 149.569 9.824C148.715 10.3787 148.289 11.1253 148.289 12.064C148.289 12.6187 148.47 13.0667 148.833 13.408C149.195 13.7493 149.643 14.0053 150.177 14.176C150.731 14.3467 151.478 14.528 152.417 14.72C153.569 14.976 154.497 15.232 155.201 15.488C155.926 15.7227 156.545 16.1173 157.057 16.672C157.569 17.2267 157.825 17.9733 157.825 18.912C157.825 20.5547 157.142 21.8453 155.777 22.784C154.433 23.7013 152.63 24.16 150.369 24.16ZM163.241 16.224C163.22 16.3733 163.209 16.5973 163.209 16.896C163.209 18.6027 163.689 19.904 164.649 20.8C165.63 21.696 167.081 22.144 169.001 22.144C170.11 22.144 171.145 21.9627 172.105 21.6C173.086 21.216 173.886 20.6933 174.505 20.032L175.529 21.664C174.74 22.4533 173.748 23.072 172.553 23.52C171.38 23.9467 170.132 24.16 168.809 24.16C166.377 24.16 164.457 23.52 163.049 22.24C161.662 20.96 160.969 19.2107 160.969 16.992C160.969 15.1147 161.364 13.4187 162.153 11.904C162.964 10.3893 164.073 9.20533 165.481 8.352C166.91 7.47733 168.51 7.04 170.281 7.04C172.521 7.04 174.302 7.68 175.625 8.96C176.948 10.2187 177.609 11.9573 177.609 14.176C177.609 14.7947 177.534 15.4773 177.385 16.224H163.241ZM170.217 8.96C168.532 8.96 167.092 9.46133 165.897 10.464C164.702 11.4667 163.892 12.8213 163.465 14.528H175.465C175.486 14.3787 175.497 14.176 175.497 13.92C175.497 12.3413 175.017 11.1253 174.057 10.272C173.097 9.39733 171.817 8.96 170.217 8.96ZM191.994 7.04C193.892 7.04 195.364 7.53067 196.41 8.512C197.476 9.472 198.01 10.8053 198.01 12.512C198.01 13.1093 197.946 13.7493 197.818 14.432L195.898 24H193.626L195.546 14.4C195.652 13.8027 195.706 13.2907 195.706 12.864C195.706 11.648 195.332 10.72 194.586 10.08C193.86 9.41867 192.783 9.088 191.354 9.088C189.54 9.088 188.047 9.58933 186.874 10.592C185.7 11.5733 184.911 13.0347 184.506 14.976L182.714 24H180.442L183.77 7.168H185.946L185.402 9.856C187.002 7.97867 189.199 7.04 191.994 7.04ZM209.776 24.16C208.198 24.16 206.822 23.872 205.648 23.296C204.475 22.6987 203.568 21.8667 202.928 20.8C202.31 19.712 202 18.4533 202 17.024C202 15.1253 202.416 13.4187 203.248 11.904C204.08 10.3893 205.243 9.20533 206.736 8.352C208.23 7.47733 209.915 7.04 211.792 7.04C213.35 7.04 214.683 7.328 215.792 7.904C216.923 8.45867 217.798 9.29067 218.416 10.4L216.496 11.52C215.536 9.856 213.904 9.024 211.6 9.024C210.214 9.024 208.955 9.36533 207.824 10.048C206.715 10.7307 205.84 11.6693 205.2 12.864C204.582 14.0587 204.272 15.4133 204.272 16.928C204.272 18.5707 204.752 19.8507 205.712 20.768C206.694 21.6853 208.08 22.144 209.872 22.144C210.96 22.144 211.963 21.9413 212.88 21.536C213.819 21.1093 214.587 20.5013 215.184 19.712L216.816 20.96C216.07 21.9627 215.067 22.752 213.808 23.328C212.571 23.8827 211.227 24.16 209.776 24.16ZM223.52 7.168H225.792L222.464 24H220.192L223.52 7.168ZM225.632 3.488C225.184 3.488 224.81 3.33867 224.512 3.04C224.234 2.74133 224.096 2.38933 224.096 1.984C224.096 1.49333 224.256 1.088 224.576 0.768C224.917 0.426666 225.344 0.255999 225.856 0.255999C226.304 0.255999 226.677 0.405332 226.976 0.703999C227.274 0.981332 227.424 1.312 227.424 1.696C227.424 2.208 227.253 2.63467 226.911 2.976C226.57 3.31733 226.144 3.488 225.632 3.488ZM247.505 7.168L244.145 24H241.969L242.513 21.344C241.703 22.24 240.743 22.9333 239.633 23.424C238.524 23.9147 237.297 24.16 235.953 24.16C234.524 24.16 233.255 23.872 232.145 23.296C231.036 22.72 230.172 21.8987 229.553 20.832C228.935 19.744 228.625 18.4747 228.625 17.024C228.625 15.1253 229.031 13.4187 229.841 11.904C230.673 10.3893 231.815 9.20533 233.265 8.352C234.716 7.47733 236.337 7.04 238.129 7.04C239.729 7.04 241.073 7.36 242.161 8C243.249 8.61867 244.039 9.51467 244.529 10.688L245.233 7.168H247.505ZM236.433 22.144C237.82 22.144 239.068 21.8133 240.177 21.152C241.287 20.4693 242.151 19.5307 242.769 18.336C243.409 17.12 243.729 15.7653 243.729 14.272C243.729 12.6293 243.239 11.3493 242.257 10.432C241.297 9.49333 239.943 9.024 238.193 9.024C236.807 9.024 235.559 9.36533 234.449 10.048C233.34 10.7307 232.465 11.68 231.825 12.896C231.207 14.0907 230.897 15.4347 230.897 16.928C230.897 18.5707 231.377 19.8507 232.337 20.768C233.319 21.6853 234.684 22.144 236.433 22.144ZM255.209 0.255999H257.481L252.745 24H250.473L255.209 0.255999Z" fill="white"/>
</svg>
