<svg width="229" height="31" viewBox="0 0 229 31" fill="none" xmlns="http://www.w3.org/2000/svg">
<path d="M9.736 24.384C7.96533 24.384 6.26933 24.1493 4.648 23.68C3.02667 23.2107 1.72533 22.6133 0.744 21.888L2.856 17.888C3.88 18.6347 5.032 19.2107 6.312 19.616C7.592 20.0213 8.904 20.224 10.248 20.224C11.6773 20.224 12.808 19.9893 13.64 19.52C14.472 19.0507 14.888 18.4107 14.888 17.6C14.888 16.9387 14.5573 16.4373 13.896 16.096C13.2347 15.7333 12.1787 15.3493 10.728 14.944C9.27733 14.5173 8.09333 14.112 7.176 13.728C6.25867 13.3227 5.45867 12.7253 4.776 11.936C4.11467 11.1467 3.784 10.1013 3.784 8.8C3.784 7.28533 4.2 5.952 5.032 4.8C5.88533 3.648 7.08 2.76267 8.616 2.144C10.1733 1.52533 11.976 1.216 14.024 1.216C15.5387 1.216 16.968 1.38667 18.312 1.728C19.656 2.048 20.808 2.51733 21.768 3.136L19.816 7.104C18.984 6.528 18.0453 6.10133 17 5.824C15.9547 5.52533 14.8667 5.376 13.736 5.376C12.264 5.376 11.1013 5.632 10.248 6.144C9.39467 6.656 8.968 7.31733 8.968 8.128C8.968 8.61867 9.14933 9.03467 9.512 9.376C9.87467 9.696 10.3333 9.96267 10.888 10.176C11.4427 10.368 12.2213 10.6027 13.224 10.88C14.6533 11.264 15.8267 11.6587 16.744 12.064C17.6613 12.448 18.44 13.024 19.08 13.792C19.7413 14.5387 20.072 15.5307 20.072 16.768C20.072 18.304 19.6453 19.648 18.792 20.8C17.9387 21.9307 16.7333 22.816 15.176 23.456C13.6187 24.0747 11.8053 24.384 9.736 24.384ZM42.7823 6.784L39.3583 24H34.6223L34.9743 22.144C34.2276 22.848 33.3743 23.3813 32.4143 23.744C31.4543 24.0853 30.4409 24.256 29.3743 24.256C27.4969 24.256 25.9929 23.744 24.8623 22.72C23.7529 21.696 23.1983 20.256 23.1983 18.4C23.1983 17.696 23.2729 17.0027 23.4223 16.32L25.3103 6.784H30.3023L28.4783 16C28.3929 16.4053 28.3503 16.8213 28.3503 17.248C28.3503 19.04 29.3103 19.936 31.2303 19.936C32.4889 19.936 33.5236 19.5733 34.3343 18.848C35.1663 18.1013 35.7316 16.992 36.0303 15.52L37.7903 6.784H42.7823ZM57.071 6.528C58.415 6.528 59.6523 6.83733 60.783 7.456C61.935 8.07467 62.8417 8.97067 63.503 10.144C64.1857 11.296 64.527 12.6613 64.527 14.24C64.527 16.1387 64.1003 17.856 63.247 19.392C62.415 20.9067 61.2737 22.1013 59.823 22.976C58.3723 23.8293 56.7617 24.256 54.991 24.256C52.367 24.256 50.511 23.4027 49.423 21.696L47.727 30.208H42.735L47.407 6.784H52.143L51.791 8.48C53.2203 7.17867 54.9803 6.528 57.071 6.528ZM54.415 20.128C55.3963 20.128 56.271 19.8933 57.039 19.424C57.807 18.9333 58.4043 18.2613 58.831 17.408C59.2577 16.5547 59.471 15.5733 59.471 14.464C59.471 13.2907 59.119 12.3627 58.415 11.68C57.7323 10.9973 56.7723 10.656 55.535 10.656C54.575 10.656 53.711 10.9013 52.943 11.392C52.175 11.8613 51.5777 12.5227 51.151 13.376C50.7243 14.2293 50.511 15.2107 50.511 16.32C50.511 17.4933 50.8523 18.4213 51.535 19.104C52.2177 19.7867 53.1777 20.128 54.415 20.128ZM84.7648 14.112C84.7648 14.9013 84.6688 15.776 84.4768 16.736H71.2928C71.4634 19.0827 72.9461 20.256 75.7408 20.256C76.6154 20.256 77.4474 20.1173 78.2368 19.84C79.0474 19.5627 79.7514 19.168 80.3488 18.656L82.4288 21.952C81.4688 22.72 80.3701 23.296 79.1328 23.68C77.8954 24.064 76.5941 24.256 75.2288 24.256C73.4581 24.256 71.9008 23.9467 70.5568 23.328C69.2341 22.688 68.2101 21.7813 67.4848 20.608C66.7808 19.4347 66.4288 18.08 66.4288 16.544C66.4288 14.6453 66.8554 12.9387 67.7088 11.424C68.5834 9.888 69.7888 8.69333 71.3248 7.84C72.8608 6.96533 74.6101 6.528 76.5728 6.528C78.2368 6.528 79.6768 6.83733 80.8928 7.456C82.1301 8.07467 83.0794 8.96 83.7408 10.112C84.4234 11.264 84.7648 12.5973 84.7648 14.112ZM76.3488 10.272C75.1754 10.272 74.1834 10.592 73.3728 11.232C72.5621 11.8507 71.9861 12.7147 71.6448 13.824H80.1888C80.1888 12.7147 79.8368 11.8507 79.1328 11.232C78.4501 10.592 77.5221 10.272 76.3488 10.272ZM93.9145 8.832C94.6612 8.02133 95.5572 7.43467 96.6025 7.072C97.6692 6.70933 98.9172 6.528 100.347 6.528L99.4505 11.136C98.8532 11.0933 98.4692 11.072 98.2985 11.072C96.7838 11.072 95.5678 11.4453 94.6505 12.192C93.7545 12.9387 93.1465 14.1013 92.8265 15.68L91.1625 24H86.1705L89.5945 6.784H94.3305L93.9145 8.832ZM116.231 24.192C114.588 24.192 113.009 23.9253 111.495 23.392C110.001 22.8587 108.871 22.176 108.103 21.344L109.255 19.488C110.001 20.2987 111.036 20.9493 112.359 21.44C113.681 21.9307 115.047 22.176 116.455 22.176C118.439 22.176 120.028 21.792 121.223 21.024C122.439 20.2347 123.047 19.1467 123.047 17.76C123.047 17.0133 122.823 16.4053 122.375 15.936C121.927 15.4667 121.361 15.0933 120.679 14.816C119.996 14.5173 119.068 14.1973 117.895 13.856C116.508 13.4507 115.377 13.0667 114.503 12.704C113.649 12.32 112.913 11.7653 112.295 11.04C111.697 10.2933 111.399 9.33333 111.399 8.16C111.399 6.77333 111.772 5.57867 112.519 4.576C113.287 3.552 114.343 2.77333 115.687 2.24C117.052 1.68533 118.609 1.408 120.359 1.408C121.703 1.408 122.983 1.57867 124.199 1.92C125.415 2.24 126.449 2.70933 127.303 3.328L126.311 5.248C125.5 4.65067 124.572 4.20267 123.527 3.904C122.481 3.584 121.383 3.424 120.231 3.424C118.268 3.424 116.689 3.82933 115.495 4.64C114.3 5.45067 113.703 6.54933 113.703 7.936C113.703 8.704 113.937 9.33333 114.407 9.824C114.876 10.3147 115.452 10.7093 116.135 11.008C116.839 11.2853 117.777 11.5947 118.951 11.936C120.337 12.3413 121.457 12.736 122.311 13.12C123.164 13.4827 123.889 14.016 124.487 14.72C125.084 15.4027 125.383 16.3093 125.383 17.44C125.383 18.848 124.988 20.064 124.199 21.088C123.431 22.0907 122.353 22.8587 120.967 23.392C119.601 23.9253 118.023 24.192 116.231 24.192ZM147.63 7.168L144.27 24H142.094L142.638 21.344C141.828 22.24 140.868 22.9333 139.758 23.424C138.649 23.9147 137.422 24.16 136.078 24.16C134.649 24.16 133.38 23.872 132.27 23.296C131.161 22.72 130.297 21.8987 129.678 20.832C129.06 19.744 128.75 18.4747 128.75 17.024C128.75 15.1253 129.156 13.4187 129.966 11.904C130.798 10.3893 131.94 9.20533 133.39 8.352C134.841 7.47733 136.462 7.04 138.254 7.04C139.854 7.04 141.198 7.36 142.286 8C143.374 8.61867 144.164 9.51467 144.654 10.688L145.358 7.168H147.63ZM136.558 22.144C137.945 22.144 139.193 21.8133 140.302 21.152C141.412 20.4693 142.276 19.5307 142.894 18.336C143.534 17.12 143.854 15.7653 143.854 14.272C143.854 12.6293 143.364 11.3493 142.382 10.432C141.422 9.49333 140.068 9.024 138.318 9.024C136.932 9.024 135.684 9.36533 134.574 10.048C133.465 10.7307 132.59 11.68 131.95 12.896C131.332 14.0907 131.022 15.4347 131.022 16.928C131.022 18.5707 131.502 19.8507 132.462 20.768C133.444 21.6853 134.809 22.144 136.558 22.144ZM169.126 7.168L165.766 24H163.59L164.134 21.312C162.555 23.2107 160.39 24.16 157.638 24.16C155.76 24.16 154.288 23.68 153.222 22.72C152.176 21.7387 151.654 20.384 151.654 18.656C151.654 18.0587 151.718 17.4293 151.846 16.768L153.766 7.168H156.038L154.118 16.768C154.011 17.3653 153.958 17.8667 153.958 18.272C153.958 19.5093 154.31 20.4587 155.014 21.12C155.739 21.7813 156.816 22.112 158.246 22.112C160.038 22.112 161.52 21.6107 162.694 20.608C163.867 19.6053 164.656 18.144 165.062 16.224L166.854 7.168H169.126ZM164.678 0.575998H167.782L162.182 4.544H159.814L164.678 0.575998ZM192.225 0.255999L187.489 24H185.313L185.857 21.344C185.046 22.24 184.086 22.9333 182.977 23.424C181.868 23.9147 180.641 24.16 179.297 24.16C177.868 24.16 176.598 23.872 175.489 23.296C174.38 22.72 173.516 21.8987 172.897 20.832C172.278 19.744 171.969 18.4747 171.969 17.024C171.969 15.1253 172.374 13.4187 173.185 11.904C174.017 10.3893 175.158 9.20533 176.609 8.352C178.06 7.47733 179.681 7.04 181.473 7.04C183.052 7.04 184.385 7.36 185.473 8C186.582 8.61867 187.382 9.51467 187.873 10.688L189.953 0.255999H192.225ZM179.777 22.144C181.164 22.144 182.412 21.8133 183.521 21.152C184.63 20.4693 185.494 19.5307 186.113 18.336C186.753 17.12 187.073 15.7653 187.073 14.272C187.073 12.6293 186.582 11.3493 185.601 10.432C184.641 9.49333 183.286 9.024 181.537 9.024C180.15 9.024 178.902 9.36533 177.793 10.048C176.684 10.7307 175.809 11.68 175.169 12.896C174.55 14.0907 174.241 15.4347 174.241 16.928C174.241 18.5707 174.721 19.8507 175.681 20.768C176.662 21.6853 178.028 22.144 179.777 22.144ZM195.929 16.224C195.907 16.3733 195.897 16.5973 195.897 16.896C195.897 18.6027 196.377 19.904 197.337 20.8C198.318 21.696 199.769 22.144 201.689 22.144C202.798 22.144 203.833 21.9627 204.793 21.6C205.774 21.216 206.574 20.6933 207.193 20.032L208.217 21.664C207.427 22.4533 206.435 23.072 205.241 23.52C204.067 23.9467 202.819 24.16 201.497 24.16C199.065 24.16 197.145 23.52 195.737 22.24C194.35 20.96 193.657 19.2107 193.657 16.992C193.657 15.1147 194.051 13.4187 194.841 11.904C195.651 10.3893 196.761 9.20533 198.169 8.352C199.598 7.47733 201.198 7.04 202.969 7.04C205.209 7.04 206.99 7.68 208.312 8.96C209.635 10.2187 210.297 11.9573 210.297 14.176C210.297 14.7947 210.222 15.4773 210.073 16.224H195.929ZM202.905 8.96C201.219 8.96 199.779 9.46133 198.585 10.464C197.39 11.4667 196.579 12.8213 196.153 14.528H208.153C208.174 14.3787 208.185 14.176 208.185 13.92C208.185 12.3413 207.705 11.1253 206.745 10.272C205.785 9.39733 204.505 8.96 202.905 8.96ZM228.482 13.76H222.498L221.345 19.584H219.33L220.482 13.76H214.53L214.914 11.872H220.866L222.05 6.016H224.066L222.882 11.872H228.866L228.482 13.76Z" fill="white"/>
</svg>
