<svg width="258" height="31" viewBox="0 0 258 31" fill="none" xmlns="http://www.w3.org/2000/svg">
<path d="M9.736 24.384C7.96533 24.384 6.26933 24.1493 4.648 23.68C3.02667 23.2107 1.72533 22.6133 0.744 21.888L2.856 17.888C3.88 18.6347 5.032 19.2107 6.312 19.616C7.592 20.0213 8.904 20.224 10.248 20.224C11.6773 20.224 12.808 19.9893 13.64 19.52C14.472 19.0507 14.888 18.4107 14.888 17.6C14.888 16.9387 14.5573 16.4373 13.896 16.096C13.2347 15.7333 12.1787 15.3493 10.728 14.944C9.27733 14.5173 8.09333 14.112 7.176 13.728C6.25867 13.3227 5.45867 12.7253 4.776 11.936C4.11467 11.1467 3.784 10.1013 3.784 8.8C3.784 7.28533 4.2 5.952 5.032 4.8C5.88533 3.648 7.08 2.76267 8.616 2.144C10.1733 1.52533 11.976 1.216 14.024 1.216C15.5387 1.216 16.968 1.38667 18.312 1.728C19.656 2.048 20.808 2.51733 21.768 3.136L19.816 7.104C18.984 6.528 18.0453 6.10133 17 5.824C15.9547 5.52533 14.8667 5.376 13.736 5.376C12.264 5.376 11.1013 5.632 10.248 6.144C9.39467 6.656 8.968 7.31733 8.968 8.128C8.968 8.61867 9.14933 9.03467 9.512 9.376C9.87467 9.696 10.3333 9.96267 10.888 10.176C11.4427 10.368 12.2213 10.6027 13.224 10.88C14.6533 11.264 15.8267 11.6587 16.744 12.064C17.6613 12.448 18.44 13.024 19.08 13.792C19.7413 14.5387 20.072 15.5307 20.072 16.768C20.072 18.304 19.6453 19.648 18.792 20.8C17.9387 21.9307 16.7333 22.816 15.176 23.456C13.6187 24.0747 11.8053 24.384 9.736 24.384ZM42.7823 6.784L39.3583 24H34.6223L34.9743 22.144C34.2276 22.848 33.3743 23.3813 32.4143 23.744C31.4543 24.0853 30.4409 24.256 29.3743 24.256C27.4969 24.256 25.9929 23.744 24.8623 22.72C23.7529 21.696 23.1983 20.256 23.1983 18.4C23.1983 17.696 23.2729 17.0027 23.4223 16.32L25.3103 6.784H30.3023L28.4783 16C28.3929 16.4053 28.3503 16.8213 28.3503 17.248C28.3503 19.04 29.3103 19.936 31.2303 19.936C32.4889 19.936 33.5236 19.5733 34.3343 18.848C35.1663 18.1013 35.7316 16.992 36.0303 15.52L37.7903 6.784H42.7823ZM57.071 6.528C58.415 6.528 59.6523 6.83733 60.783 7.456C61.935 8.07467 62.8417 8.97067 63.503 10.144C64.1857 11.296 64.527 12.6613 64.527 14.24C64.527 16.1387 64.1003 17.856 63.247 19.392C62.415 20.9067 61.2737 22.1013 59.823 22.976C58.3723 23.8293 56.7617 24.256 54.991 24.256C52.367 24.256 50.511 23.4027 49.423 21.696L47.727 30.208H42.735L47.407 6.784H52.143L51.791 8.48C53.2203 7.17867 54.9803 6.528 57.071 6.528ZM54.415 20.128C55.3963 20.128 56.271 19.8933 57.039 19.424C57.807 18.9333 58.4043 18.2613 58.831 17.408C59.2577 16.5547 59.471 15.5733 59.471 14.464C59.471 13.2907 59.119 12.3627 58.415 11.68C57.7323 10.9973 56.7723 10.656 55.535 10.656C54.575 10.656 53.711 10.9013 52.943 11.392C52.175 11.8613 51.5777 12.5227 51.151 13.376C50.7243 14.2293 50.511 15.2107 50.511 16.32C50.511 17.4933 50.8523 18.4213 51.535 19.104C52.2177 19.7867 53.1777 20.128 54.415 20.128ZM84.7648 14.112C84.7648 14.9013 84.6688 15.776 84.4768 16.736H71.2928C71.4634 19.0827 72.9461 20.256 75.7408 20.256C76.6154 20.256 77.4474 20.1173 78.2368 19.84C79.0474 19.5627 79.7514 19.168 80.3488 18.656L82.4288 21.952C81.4688 22.72 80.3701 23.296 79.1328 23.68C77.8954 24.064 76.5941 24.256 75.2288 24.256C73.4581 24.256 71.9008 23.9467 70.5568 23.328C69.2341 22.688 68.2101 21.7813 67.4848 20.608C66.7808 19.4347 66.4288 18.08 66.4288 16.544C66.4288 14.6453 66.8554 12.9387 67.7088 11.424C68.5834 9.888 69.7888 8.69333 71.3248 7.84C72.8608 6.96533 74.6101 6.528 76.5728 6.528C78.2368 6.528 79.6768 6.83733 80.8928 7.456C82.1301 8.07467 83.0794 8.96 83.7408 10.112C84.4234 11.264 84.7648 12.5973 84.7648 14.112ZM76.3488 10.272C75.1754 10.272 74.1834 10.592 73.3728 11.232C72.5621 11.8507 71.9861 12.7147 71.6448 13.824H80.1888C80.1888 12.7147 79.8368 11.8507 79.1328 11.232C78.4501 10.592 77.5221 10.272 76.3488 10.272ZM93.9145 8.832C94.6612 8.02133 95.5572 7.43467 96.6025 7.072C97.6692 6.70933 98.9172 6.528 100.347 6.528L99.4505 11.136C98.8532 11.0933 98.4692 11.072 98.2985 11.072C96.7838 11.072 95.5678 11.4453 94.6505 12.192C93.7545 12.9387 93.1465 14.1013 92.8265 15.68L91.1625 24H86.1705L89.5945 6.784H94.3305L93.9145 8.832ZM122.215 1.6C124.732 1.6 126.695 2.15467 128.103 3.264C129.511 4.37333 130.215 5.93067 130.215 7.936C130.215 10.7947 129.287 13.0133 127.431 14.592C125.596 16.1493 123.057 16.928 119.815 16.928H113.479L112.039 24H109.703L114.183 1.6H122.215ZM119.847 14.848C122.407 14.848 124.38 14.2827 125.767 13.152C127.153 12.0213 127.847 10.3573 127.847 8.16C127.847 6.688 127.345 5.568 126.343 4.8C125.34 4.032 123.9 3.648 122.023 3.648H116.135L113.863 14.848H119.847ZM136.37 10.24C137.116 9.152 138.055 8.352 139.186 7.84C140.316 7.30667 141.682 7.04 143.282 7.04L142.866 9.248L142.226 9.216C140.412 9.216 138.919 9.73867 137.746 10.784C136.594 11.8293 135.815 13.3867 135.41 15.456L133.714 24H131.442L134.77 7.168H136.946L136.37 10.24ZM145.991 16.224C145.97 16.3733 145.959 16.5973 145.959 16.896C145.959 18.6027 146.439 19.904 147.399 20.8C148.38 21.696 149.831 22.144 151.751 22.144C152.86 22.144 153.895 21.9627 154.855 21.6C155.836 21.216 156.636 20.6933 157.255 20.032L158.279 21.664C157.49 22.4533 156.498 23.072 155.303 23.52C154.13 23.9467 152.882 24.16 151.559 24.16C149.127 24.16 147.207 23.52 145.799 22.24C144.412 20.96 143.719 19.2107 143.719 16.992C143.719 15.1147 144.114 13.4187 144.903 11.904C145.714 10.3893 146.823 9.20533 148.231 8.352C149.66 7.47733 151.26 7.04 153.031 7.04C155.271 7.04 157.052 7.68 158.375 8.96C159.698 10.2187 160.359 11.9573 160.359 14.176C160.359 14.7947 160.284 15.4773 160.135 16.224H145.991ZM152.967 8.96C151.282 8.96 149.842 9.46133 148.647 10.464C147.452 11.4667 146.642 12.8213 146.215 14.528H158.215C158.236 14.3787 158.247 14.176 158.247 13.92C158.247 12.3413 157.767 11.1253 156.807 10.272C155.847 9.39733 154.567 8.96 152.967 8.96ZM187.128 7.04C189.026 7.04 190.488 7.52 191.512 8.48C192.557 9.41867 193.08 10.7413 193.08 12.448C193.08 12.9387 193.005 13.6 192.856 14.432L190.936 24H188.664L190.584 14.4C190.69 13.9093 190.744 13.3867 190.744 12.832C190.744 11.6373 190.392 10.72 189.688 10.08C188.984 9.41867 187.949 9.088 186.584 9.088C184.877 9.088 183.458 9.568 182.328 10.528C181.197 11.4667 180.44 12.864 180.056 14.72L178.2 24H175.928L177.847 14.4C177.954 13.8027 178.008 13.2907 178.008 12.864C178.008 11.648 177.656 10.72 176.952 10.08C176.269 9.41867 175.234 9.088 173.848 9.088C172.12 9.088 170.69 9.58933 169.56 10.592C168.429 11.5733 167.661 13.0347 167.256 14.976L165.464 24H163.192L166.52 7.168H168.696L168.152 9.856C169.688 7.97867 171.81 7.04 174.52 7.04C175.928 7.04 177.101 7.328 178.04 7.904C179 8.48 179.661 9.312 180.024 10.4C180.856 9.29067 181.869 8.45867 183.064 7.904C184.28 7.328 185.634 7.04 187.128 7.04ZM200.457 7.168H202.729L199.401 24H197.129L200.457 7.168ZM202.569 3.488C202.121 3.488 201.748 3.33867 201.449 3.04C201.172 2.74133 201.033 2.38933 201.033 1.984C201.033 1.49333 201.193 1.088 201.513 0.768C201.854 0.426666 202.281 0.255999 202.793 0.255999C203.241 0.255999 203.614 0.405332 203.913 0.703999C204.212 0.981332 204.361 1.312 204.361 1.696C204.361 2.208 204.19 2.63467 203.849 2.976C203.508 3.31733 203.081 3.488 202.569 3.488ZM224.251 7.168L220.891 24H218.715L219.259 21.312C217.68 23.2107 215.515 24.16 212.763 24.16C210.885 24.16 209.413 23.68 208.347 22.72C207.301 21.7387 206.779 20.384 206.779 18.656C206.779 18.0587 206.843 17.4293 206.971 16.768L208.891 7.168H211.163L209.243 16.768C209.136 17.3653 209.083 17.8667 209.083 18.272C209.083 19.5093 209.435 20.4587 210.139 21.12C210.864 21.7813 211.941 22.112 213.371 22.112C215.163 22.112 216.645 21.6107 217.819 20.608C218.992 19.6053 219.781 18.144 220.187 16.224L221.979 7.168H224.251ZM251.19 7.04C253.089 7.04 254.55 7.52 255.574 8.48C256.619 9.41867 257.142 10.7413 257.142 12.448C257.142 12.9387 257.067 13.6 256.918 14.432L254.998 24H252.726L254.646 14.4C254.753 13.9093 254.806 13.3867 254.806 12.832C254.806 11.6373 254.454 10.72 253.75 10.08C253.046 9.41867 252.011 9.088 250.646 9.088C248.939 9.088 247.521 9.568 246.39 10.528C245.259 11.4667 244.502 12.864 244.118 14.72L242.262 24H239.99L241.91 14.4C242.017 13.8027 242.07 13.2907 242.07 12.864C242.07 11.648 241.718 10.72 241.014 10.08C240.331 9.41867 239.297 9.088 237.91 9.088C236.182 9.088 234.753 9.58933 233.622 10.592C232.491 11.5733 231.723 13.0347 231.318 14.976L229.526 24H227.254L230.582 7.168H232.758L232.214 9.856C233.75 7.97867 235.873 7.04 238.582 7.04C239.99 7.04 241.163 7.328 242.102 7.904C243.062 8.48 243.723 9.312 244.086 10.4C244.918 9.29067 245.931 8.45867 247.126 7.904C248.342 7.328 249.697 7.04 251.19 7.04Z" fill="white"/>
</svg>
