<svg width="175" height="63" viewBox="0 0 175 63" fill="none" xmlns="http://www.w3.org/2000/svg">
<path d="M165.561 63H31.4056C14.0603 63 0 48.9002 0 31.5018C0 14.1034 14.0603 0 31.4056 0H165.561C170.777 0 175 4.24 175 9.46815V53.5319C175 58.76 170.773 63 165.561 63Z" fill="#00309E"/>
<path d="M66.7589 36.0616C65.3618 35.634 64.2585 35.0698 63.4453 34.3656L64.6919 31.5557C65.4872 32.1881 66.4616 32.7019 67.6186 33.1008C68.7721 33.4996 69.9328 33.7008 71.1006 33.7008C72.5442 33.7008 73.6189 33.4673 74.3318 33.0037C75.0446 32.5402 75.3993 31.9294 75.3993 31.1676C75.3993 30.6107 75.2022 30.1507 74.8046 29.7914C74.407 29.4285 73.9019 29.1482 73.2929 28.9434C72.6839 28.7386 71.8493 28.5086 70.7961 28.2463C69.3166 27.8942 68.1201 27.542 67.2031 27.1899C66.2896 26.8378 65.5015 26.2844 64.846 25.5334C64.1904 24.7824 63.8609 23.7656 63.8609 22.4864C63.8609 21.412 64.151 20.4311 64.7349 19.5507C65.3152 18.6704 66.1965 17.9697 67.3715 17.4487C68.5464 16.9313 69.9829 16.6689 71.6845 16.6689C72.8666 16.6689 74.0308 16.8163 75.1807 17.1145C76.3271 17.4127 77.3158 17.8367 78.1504 18.3937L77.0113 21.2036C76.1623 20.7041 75.2739 20.3233 74.3497 20.0645C73.4255 19.8058 72.5263 19.6765 71.6594 19.6765C70.2372 19.6765 69.1769 19.9172 68.4819 20.3987C67.787 20.8802 67.4431 21.5198 67.4431 22.3175C67.4431 22.8744 67.6401 23.3272 68.0377 23.6793C68.4354 24.0315 68.9405 24.3081 69.5495 24.513C70.1584 24.7178 70.9931 24.9477 72.0463 25.21C73.4899 25.5442 74.6721 25.8928 75.5963 26.2521C76.5205 26.615 77.3122 27.1648 77.9677 27.9086C78.6233 28.6523 78.9529 29.6513 78.9529 30.9125C78.9529 31.9869 78.6627 32.9606 78.0788 33.8338C77.4949 34.7069 76.6137 35.4004 75.4315 35.9214C74.2494 36.4389 72.8057 36.7012 71.1042 36.7012C69.6032 36.7012 68.156 36.4892 66.7589 36.0616Z" fill="white"/>
<path d="M84.6094 34.4338C83.112 32.9211 82.3633 30.758 82.3633 27.9373V16.9492H85.9706V27.8008C85.9706 31.6204 87.6149 33.5319 90.9069 33.5319C94.1811 33.5319 95.8182 31.6204 95.8182 27.8008V16.9492H99.3682V27.9373C99.3682 30.758 98.6231 32.9211 97.1365 34.4338C95.6463 35.9466 93.5614 36.7012 90.8819 36.7012C88.1952 36.7012 86.1067 35.9466 84.6094 34.4338Z" fill="white"/>
<path d="M116.799 17.7828C118.046 18.3398 119.006 19.1375 119.669 20.1759C120.335 21.2144 120.668 22.4469 120.668 23.877C120.668 25.2855 120.335 26.5144 119.669 27.5636C119.002 28.6128 118.046 29.4141 116.799 29.9711C115.553 30.528 114.084 30.8047 112.404 30.8047H108.023V36.4245H104.416V16.9492H112.404C114.084 16.9492 115.549 17.2259 116.799 17.7828ZM115.814 26.7408C116.627 26.0724 117.036 25.1166 117.036 23.877C117.036 22.6337 116.627 21.6779 115.814 21.0096C115.001 20.3412 113.808 20.0071 112.236 20.0071H108.019V27.7433H112.236C113.808 27.7433 114.997 27.4091 115.814 26.7408Z" fill="white"/>
<path d="M138.834 33.3918V36.4245H124.272V16.9492H138.447V19.9819H127.879V25.0448H137.254V28.0235H127.879V33.3918H138.834Z" fill="white"/>
<path d="M155.559 36.4246L151.594 30.7221C151.429 30.7401 151.178 30.7509 150.845 30.7509H146.464V36.4282H142.856V16.9529H150.845C152.529 16.9529 153.994 17.2296 155.24 17.7865C156.487 18.3435 157.447 19.1412 158.11 20.1796C158.776 21.218 159.109 22.4505 159.109 23.8806C159.109 25.3467 158.751 26.6079 158.042 27.6643C157.329 28.7207 156.308 29.5112 154.979 30.0286L159.442 36.4282H155.559V36.4246ZM154.259 21.0096C153.446 20.3413 152.253 20.0071 150.68 20.0071H146.464V27.7685H150.68C152.253 27.7685 153.442 27.4307 154.259 26.7516C155.072 26.0761 155.48 25.1167 155.48 23.8734C155.477 22.6338 155.068 21.678 154.259 21.0096Z" fill="white"/>
<path d="M68.2672 44.9296C68.4857 45.1919 68.5967 45.526 68.5967 45.9357C68.5967 46.4639 68.4033 46.8699 68.0128 47.1538C67.6224 47.4376 67.0492 47.5814 66.2933 47.5814H63.4741V41.4333H66.1178C66.802 41.4333 67.3322 41.5699 67.7083 41.8466C68.0845 42.1232 68.2743 42.5113 68.2743 43.0144C68.2743 43.3557 68.1919 43.6432 68.0236 43.8803C67.8552 44.1175 67.6259 44.2936 67.3358 44.4121C67.737 44.4948 68.0487 44.6673 68.2672 44.9296ZM64.1189 41.9616V44.1929H66.0713C66.5656 44.1929 66.9489 44.0995 67.2176 43.9091C67.4862 43.7186 67.6188 43.442 67.6188 43.079C67.6188 42.7161 67.4827 42.4395 67.2176 42.249C66.9489 42.0586 66.5656 41.9651 66.0713 41.9651H64.1189V41.9616ZM67.5292 46.7585C67.8086 46.5717 67.9483 46.277 67.9483 45.8782C67.9483 45.1128 67.3931 44.7283 66.2862 44.7283H64.1225V47.0388H66.2862C66.8307 47.0424 67.2462 46.949 67.5292 46.7585Z" fill="#FFFE06"/>
<path d="M78.8096 47.0137V47.5743H74.4751V41.4263H78.6807V41.9868H75.1235V44.1751H78.2938V44.7284H75.1235V47.0137H78.8096Z" fill="#FFFE06"/>
<path d="M89.8536 41.4263V47.5743H89.3198L85.3793 42.5833V47.5743H84.731V41.4263H85.2647L89.2159 46.4173V41.4263H89.8536Z" fill="#FFFE06"/>
<path d="M100.583 47.0137V47.5743H96.248V41.4263H100.454V41.9868H96.8964V44.1751H100.067V44.7284H96.8964V47.0137H100.583Z" fill="#FFFE06"/>
<path d="M107.149 41.9904V44.4051H110.319V44.9656H107.149V47.5743H106.5V41.4263H110.702V41.9868H107.149V41.9904Z" fill="#FFFE06"/>
<path d="M117.398 39.8381H118.229L116.81 40.9269H116.198L117.398 39.8381ZM116.441 41.4263H117.09V47.5743H116.441V41.4263Z" fill="#FFFE06"/>
<path d="M124.505 47.2257C124.018 46.9562 123.634 46.5825 123.358 46.1046C123.083 45.6267 122.943 45.0914 122.943 44.5021C122.943 43.9092 123.083 43.3774 123.358 42.8995C123.638 42.4216 124.021 42.0479 124.508 41.7784C124.999 41.5089 125.547 41.376 126.156 41.376C126.611 41.376 127.034 41.4514 127.417 41.6059C127.804 41.7569 128.13 41.9796 128.399 42.2743L127.987 42.6875C127.507 42.2024 126.905 41.9581 126.174 41.9581C125.69 41.9581 125.25 42.0695 124.852 42.2922C124.455 42.515 124.143 42.8204 123.917 43.2049C123.692 43.593 123.581 44.0242 123.581 44.5057C123.581 44.9872 123.692 45.4183 123.917 45.8064C124.143 46.1945 124.455 46.4963 124.852 46.7191C125.25 46.9419 125.69 47.0533 126.174 47.0533C126.908 47.0533 127.514 46.8089 127.987 46.3166L128.399 46.7299C128.13 47.0209 127.8 47.2473 127.413 47.4018C127.027 47.5563 126.604 47.6354 126.149 47.6354C125.54 47.6282 124.992 47.4952 124.505 47.2257Z" fill="#FFFE06"/>
<path d="M134.177 41.4263H134.825V47.5743H134.177V41.4263Z" fill="#FFFE06"/>
<path d="M142.247 47.2221C141.753 46.949 141.37 46.5753 141.09 46.101C140.811 45.6267 140.675 45.0949 140.675 44.502C140.675 43.9091 140.815 43.3773 141.09 42.903C141.366 42.4287 141.753 42.055 142.247 41.7819C142.742 41.5089 143.29 41.3723 143.899 41.3723C144.508 41.3723 145.052 41.5089 145.539 41.7748C146.027 42.0442 146.41 42.4179 146.689 42.8958C146.969 43.3737 147.109 43.9091 147.109 44.4984C147.109 45.0913 146.969 45.6231 146.689 46.101C146.41 46.5789 146.027 46.9526 145.539 47.2221C145.052 47.4916 144.504 47.6245 143.899 47.6245C143.293 47.6245 142.742 47.4952 142.247 47.2221ZM145.214 46.719C145.604 46.4998 145.912 46.1944 146.134 45.8064C146.356 45.4183 146.467 44.9835 146.467 44.502C146.467 44.0205 146.356 43.5857 146.134 43.1977C145.912 42.8096 145.604 42.5042 145.214 42.285C144.823 42.0658 144.386 41.9544 143.899 41.9544C143.415 41.9544 142.975 42.0658 142.581 42.285C142.187 42.5042 141.878 42.8096 141.653 43.1977C141.427 43.5857 141.316 44.0205 141.316 44.502C141.316 44.9835 141.427 45.4183 141.653 45.8064C141.878 46.1944 142.187 46.4998 142.581 46.719C142.975 46.9382 143.415 47.0496 143.899 47.0496C144.382 47.0496 144.819 46.9418 145.214 46.719Z" fill="#FFFE06"/>
<path d="M153.346 47.4089C152.93 47.2616 152.608 47.0712 152.378 46.8304L152.633 46.331C152.855 46.5537 153.149 46.7334 153.518 46.8699C153.887 47.0065 154.266 47.0748 154.657 47.0748C155.205 47.0748 155.617 46.9741 155.893 46.7729C156.168 46.5717 156.305 46.3094 156.305 45.986C156.305 45.7417 156.229 45.544 156.082 45.3967C155.932 45.2494 155.749 45.138 155.534 45.059C155.319 44.9799 155.019 44.8937 154.632 44.8002C154.17 44.6817 153.804 44.5703 153.528 44.4625C153.252 44.3547 153.02 44.1894 152.823 43.9666C152.629 43.7438 152.529 43.442 152.529 43.0611C152.529 42.7521 152.611 42.4682 152.772 42.2131C152.937 41.958 153.188 41.7532 153.525 41.6023C153.861 41.4514 154.284 41.3723 154.786 41.3723C155.137 41.3723 155.477 41.419 155.814 41.516C156.151 41.6131 156.441 41.746 156.684 41.9149L156.466 42.4323C156.208 42.2634 155.936 42.1341 155.642 42.0514C155.348 41.9688 155.065 41.9257 154.786 41.9257C154.248 41.9257 153.844 42.0299 153.571 42.2383C153.299 42.4467 153.163 42.7126 153.163 43.0432C153.163 43.2875 153.238 43.4851 153.385 43.636C153.535 43.787 153.722 43.8983 153.944 43.9774C154.166 44.0565 154.47 44.1427 154.85 44.2361C155.298 44.3475 155.663 44.4589 155.939 44.5667C156.215 44.6745 156.451 44.8398 156.645 45.059C156.838 45.2781 156.935 45.5764 156.935 45.9501C156.935 46.2591 156.853 46.543 156.684 46.7981C156.516 47.0532 156.262 47.2544 155.918 47.4053C155.574 47.5562 155.151 47.6281 154.65 47.6281C154.198 47.6281 153.761 47.5562 153.346 47.4089Z" fill="#FFFE06"/>
<path d="M35.4787 30.9952L35.5252 30.9736C35.5109 30.9521 35.5002 30.9305 35.4858 30.9053C35.4715 30.9089 35.4536 30.9089 35.4393 30.9125L25.4305 35.3969C23.9223 36.0724 22.1456 35.3897 21.4721 33.8769C20.7986 32.3642 21.4793 30.582 22.9874 29.9064L33.0033 25.4257L30.5925 20.0107L30.614 19.9999C30.5889 19.9784 30.5674 19.9568 30.5459 19.9316L20.5407 24.4124C16.0127 26.439 13.9709 31.7857 15.9912 36.3275C18.0116 40.8729 23.342 42.9175 27.8736 40.8909L37.8895 36.4102L35.4787 30.9952Z" fill="#FFFE06"/>
<path d="M39.9738 41.8303L26.0479 48.062L28.3873 53.322L42.3132 47.0903L39.9738 41.8303Z" fill="#FFFE06"/>
<path d="M54.7941 25.8317C53.2752 22.2349 49.6643 20.1616 45.9818 20.4167C45.9782 19.2633 45.7525 18.0919 45.2761 16.9636C43.3632 12.4362 38.1331 10.3126 33.6194 12.2349L28.3213 14.4879L30.6354 19.964L35.9336 17.711C37.4381 17.0714 39.1791 17.7793 39.8167 19.2848C40.4544 20.794 39.7487 22.5403 38.2477 23.1799L32.9496 25.4329L35.2637 30.9089L38.5952 29.4932L45.4552 26.5755C46.9597 25.9359 48.7007 26.6438 49.3383 28.1493C49.976 29.6585 49.2703 31.4048 47.7693 32.0444L37.5957 36.3706L39.9099 41.8467L50.0835 37.5205C54.5935 35.6053 56.7106 30.3592 54.7941 25.8317Z" fill="#FFFE06"/>
</svg>
