<svg width="203" height="59" viewBox="0 0 203 59" fill="none" xmlns="http://www.w3.org/2000/svg">
<g clip-path="url(#clip0)">
<path d="M72.5497 34.6359C70.5848 34.036 69.0305 33.2345 67.8867 32.2413L69.6414 28.2732C70.7607 29.1632 72.1342 29.8909 73.7619 30.4515C75.3895 31.0169 77.022 31.2972 78.6594 31.2972C80.6879 31.2972 82.2031 30.9677 83.2051 30.3138C84.2071 29.6598 84.7105 28.7944 84.7105 27.7225C84.7105 26.9357 84.4319 26.2867 83.8698 25.7802C83.3077 25.2689 82.599 24.8706 81.7436 24.5805C80.8834 24.2953 79.7152 23.9658 78.2293 23.597C76.1471 23.1004 74.4608 22.6038 73.1753 22.1023C71.8849 21.6056 70.7803 20.8238 69.8565 19.7666C68.9327 18.7046 68.4684 17.2737 68.4684 15.4642C68.4684 13.9448 68.8789 12.5631 69.7001 11.3191C70.5212 10.0751 71.7579 9.08676 73.4099 8.35411C75.062 7.62147 77.0856 7.25269 79.4806 7.25269C81.1473 7.25269 82.7847 7.46412 84.3977 7.88207C86.0107 8.30002 87.4037 8.90482 88.5768 9.68664L86.9736 13.6547C85.7761 12.9467 84.5297 12.4107 83.2246 12.0468C81.9245 11.6781 80.6585 11.4961 79.4366 11.4961C77.4326 11.4961 75.9418 11.8354 74.9642 12.5189C73.9867 13.2023 73.4979 14.1022 73.4979 15.2282C73.4979 16.0149 73.7765 16.6541 74.3386 17.1508C74.8958 17.6474 75.6094 18.0408 76.4648 18.3309C77.3251 18.621 78.4932 18.9455 79.9791 19.3143C82.0076 19.7863 83.6743 20.278 84.9745 20.7894C86.2746 21.3008 87.389 22.0777 88.3128 23.125C89.2366 24.1723 89.701 25.5885 89.701 27.3684C89.701 28.8878 89.2904 30.2597 88.4692 31.4939C87.6481 32.7231 86.4066 33.7066 84.7398 34.4392C83.0731 35.1718 81.0447 35.5406 78.6496 35.5406C76.5528 35.5357 74.5146 35.2358 72.5497 34.6359Z" fill="white"/>
<path d="M97.6731 32.3347C95.5665 30.2007 94.5107 27.1472 94.5107 23.1643V7.65097H99.5843V22.9677C99.5843 28.3617 101.901 31.0563 106.535 31.0563C111.139 31.0563 113.446 28.3617 113.446 22.9677V7.65097H118.441V23.1643C118.441 27.1423 117.395 30.2007 115.299 32.3347C113.202 34.4687 110.269 35.5357 106.496 35.5357C102.722 35.5357 99.7798 34.4687 97.6731 32.3347Z" fill="white"/>
<path d="M142.973 8.83107C144.728 9.6178 146.077 10.7438 147.015 12.2091C147.953 13.6744 148.423 15.415 148.423 17.431C148.423 19.4225 147.953 21.1582 147.015 22.6333C146.077 24.1133 144.732 25.2443 142.973 26.031C141.218 26.8177 139.155 27.2111 136.785 27.2111H130.617V35.1423H125.543V7.65097H136.785C139.155 7.65097 141.218 8.04434 142.973 8.83107ZM141.59 21.4778C142.733 20.5337 143.305 19.1864 143.305 17.431C143.305 15.6756 142.733 14.3284 141.59 13.3843C140.446 12.4402 138.764 11.9682 136.555 11.9682H130.621V22.8841H136.555C138.764 22.889 140.446 22.4219 141.59 21.4778Z" fill="white"/>
<path d="M173.991 30.8645V35.1473H153.497V7.65097H173.444V11.9337H158.57V19.0832H171.767V23.2873H158.57V30.8694H173.991V30.8645Z" fill="white"/>
<path d="M197.53 35.1423L191.949 27.0931C191.714 27.1177 191.362 27.1324 190.893 27.1324H184.724V35.1423H179.651V7.65097H190.893C193.259 7.65097 195.326 8.04434 197.081 8.83107C198.835 9.6178 200.185 10.7438 201.123 12.2091C202.061 13.6744 202.531 15.415 202.531 17.431C202.531 19.5011 202.027 21.2811 201.025 22.771C200.023 24.2609 198.586 25.377 196.709 26.1097L202.995 35.1423H197.53ZM195.698 13.3892C194.554 12.4451 192.872 11.9731 190.663 11.9731H184.729V22.9283H190.663C192.877 22.9283 194.554 22.4514 195.698 21.4925C196.841 20.5386 197.413 19.1815 197.413 17.4261C197.413 15.6806 196.841 14.3284 195.698 13.3892Z" fill="white"/>
<path d="M74.671 47.1499C74.9789 47.5186 75.1353 47.9907 75.1353 48.5709C75.1353 49.3134 74.8616 49.8887 74.3141 50.2869C73.7667 50.6852 72.9602 50.8868 71.8898 50.8868H67.9209V42.2082H71.6454C72.6083 42.2082 73.3512 42.4049 73.884 42.7933C74.4119 43.1818 74.6807 43.7325 74.6807 44.4405C74.6807 44.9224 74.5634 45.3256 74.3288 45.66C74.0942 45.9943 73.7716 46.2451 73.361 46.4123C73.928 46.5352 74.363 46.7811 74.671 47.1499ZM68.8349 42.9654V46.1173H71.5819C72.2808 46.1173 72.8185 45.9845 73.1948 45.7141C73.5712 45.4436 73.7618 45.0552 73.7618 44.5438C73.7618 44.0324 73.5712 43.6391 73.1948 43.3735C72.8185 43.1031 72.2759 42.9703 71.5819 42.9703H68.8349V42.9654ZM73.6298 49.7362C74.0258 49.4707 74.2213 49.0577 74.2213 48.4971C74.2213 47.4154 73.4392 46.8745 71.88 46.8745H68.8349V50.1345H71.88C72.6523 50.1296 73.2339 49.9968 73.6298 49.7362Z" fill="#FFFE06"/>
<path d="M89.5052 50.0952V50.8868H83.4053V42.2082H89.3244V42.9998H84.3193V46.0878H88.7819V46.8696H84.3193V50.0952H89.5052Z" fill="#FFFE06"/>
<path d="M105.054 42.2082V50.8868H104.301L98.7534 43.8456V50.8868H97.8394V42.2082H98.5921L104.149 49.2494V42.2082H105.054Z" fill="#FFFE06"/>
<path d="M120.152 50.0952V50.8868H114.052V42.2082H119.971V42.9998H114.961V46.0878H119.423V46.8696H114.961V50.0952H120.152Z" fill="#FFFE06"/>
<path d="M129.395 42.9998V46.4074H133.858V47.2039H129.395V50.8868H128.481V42.2082H134.4V42.9998H129.395Z" fill="#FFFE06"/>
<path d="M143.819 39.9611H144.992L142.997 41.5001H142.132L143.819 39.9611ZM142.474 42.2082H143.388V50.8868H142.474V42.2082Z" fill="#FFFE06"/>
<path d="M153.824 50.3902C153.14 50.0116 152.597 49.4855 152.211 48.8069C151.82 48.1333 151.625 47.381 151.625 46.545C151.625 45.7091 151.82 44.9568 152.211 44.2832C152.602 43.6096 153.14 43.0834 153.834 42.7048C154.523 42.3262 155.295 42.1344 156.151 42.1344C156.791 42.1344 157.382 42.2426 157.925 42.459C158.467 42.6753 158.927 42.99 159.308 43.403L158.726 43.9882C158.052 43.2998 157.201 42.9605 156.175 42.9605C155.491 42.9605 154.87 43.1178 154.313 43.4325C153.756 43.7472 153.316 44.175 152.998 44.7208C152.68 45.2666 152.524 45.8763 152.524 46.5549C152.524 47.2334 152.68 47.8432 152.998 48.389C153.316 48.9347 153.751 49.3625 154.313 49.6772C154.87 49.9919 155.491 50.1493 156.175 50.1493C157.211 50.1493 158.062 49.8002 158.726 49.1068L159.308 49.692C158.932 50.105 158.467 50.4197 157.92 50.641C157.373 50.8622 156.781 50.9704 156.141 50.9704C155.276 50.9606 154.508 50.7737 153.824 50.3902Z" fill="#FFFE06"/>
<path d="M167.437 42.2082H168.351V50.8868H167.437V42.2082Z" fill="#FFFE06"/>
<path d="M178.796 50.3853C178.102 50.0017 177.559 49.4756 177.168 48.802C176.777 48.1333 176.582 47.3809 176.582 46.545C176.582 45.7091 176.777 44.9568 177.168 44.2881C177.559 43.6194 178.102 43.0933 178.796 42.7097C179.49 42.3262 180.267 42.1344 181.117 42.1344C181.973 42.1344 182.745 42.3262 183.429 42.7048C184.114 43.0834 184.656 43.6096 185.052 44.2832C185.448 44.9568 185.644 45.7141 185.644 46.545C185.644 47.3809 185.448 48.1333 185.052 48.8069C184.656 49.4805 184.119 50.0067 183.429 50.3902C182.745 50.7688 181.973 50.9606 181.117 50.9606C180.262 50.9606 179.49 50.7688 178.796 50.3853ZM182.97 49.6772C183.522 49.3674 183.952 48.9397 184.265 48.389C184.578 47.8382 184.734 47.2236 184.734 46.545C184.734 45.8665 184.578 45.2519 184.265 44.7011C183.952 44.1504 183.522 43.7226 182.97 43.4129C182.418 43.1031 181.802 42.9457 181.122 42.9457C180.443 42.9457 179.822 43.1031 179.27 43.4129C178.718 43.7226 178.278 44.1504 177.965 44.7011C177.647 45.2519 177.491 45.8665 177.491 46.545C177.491 47.2236 177.647 47.8382 177.965 48.389C178.283 48.9397 178.718 49.3674 179.27 49.6772C179.822 49.987 180.443 50.1443 181.122 50.1443C181.802 50.1443 182.418 49.987 182.97 49.6772Z" fill="#FFFE06"/>
<path d="M194.412 50.6508C193.826 50.4443 193.371 50.1738 193.048 49.8346L193.405 49.1265C193.718 49.4412 194.133 49.6969 194.652 49.8887C195.17 50.0853 195.702 50.1788 196.255 50.1788C197.027 50.1788 197.609 50.0362 197.995 49.751C198.381 49.4658 198.576 49.097 198.576 48.6397C198.576 48.2906 198.474 48.0153 198.264 47.8087C198.053 47.6022 197.794 47.4449 197.491 47.3318C197.188 47.2187 196.763 47.1007 196.221 46.9679C195.57 46.8007 195.052 46.6434 194.666 46.491C194.28 46.3385 193.948 46.1025 193.674 45.7927C193.4 45.478 193.263 45.0552 193.263 44.5143C193.263 44.0767 193.381 43.6784 193.61 43.3194C193.84 42.9605 194.192 42.6704 194.671 42.459C195.145 42.2426 195.742 42.1344 196.445 42.1344C196.939 42.1344 197.423 42.2033 197.892 42.3409C198.361 42.4786 198.772 42.6655 199.119 42.9064L198.811 43.6391C198.449 43.3981 198.063 43.2211 197.653 43.0982C197.242 42.9802 196.841 42.9162 196.445 42.9162C195.688 42.9162 195.121 43.0638 194.74 43.3588C194.358 43.6538 194.168 44.0324 194.168 44.4946C194.168 44.8437 194.27 45.1191 194.48 45.3305C194.691 45.542 194.955 45.7042 195.267 45.8124C195.585 45.9255 196.01 46.0435 196.543 46.1763C197.174 46.3336 197.687 46.486 198.078 46.6434C198.469 46.7958 198.801 47.0269 199.07 47.3367C199.339 47.6465 199.476 48.0644 199.476 48.5955C199.476 49.0331 199.359 49.4314 199.124 49.7903C198.889 50.1493 198.532 50.4345 198.044 50.6459C197.56 50.8573 196.963 50.9606 196.255 50.9606C195.614 50.9606 194.999 50.8573 194.412 50.6508Z" fill="#FFFE06"/>
<path d="M28.5253 27.4815L28.5889 27.452C28.5693 27.4225 28.5498 27.3881 28.5351 27.3586C28.5156 27.3635 28.4911 27.3635 28.4667 27.3684L14.38 33.6918C12.2538 34.6457 9.75618 33.682 8.80795 31.548C7.85972 29.4139 8.81773 26.8964 10.939 25.9425L25.0354 19.6191L21.6482 11.978L21.6775 11.9632C21.6433 11.9337 21.6091 11.9042 21.5847 11.8698L7.50291 18.1883C1.12433 21.05 -1.7448 28.5928 1.09989 35.0096C3.94459 41.4214 11.4474 44.3127 17.8211 41.4509L31.9175 35.1227L28.5253 27.4815Z" fill="#FFFE06"/>
<path d="M34.8494 42.7755L15.25 51.5716L18.5436 58.9985L38.143 50.2024L34.8494 42.7755Z" fill="#FFFE06"/>
<path d="M55.7113 20.1944C53.5705 15.1151 48.4921 12.1845 43.3061 12.5484C43.3012 10.9208 42.9835 9.26376 42.3139 7.67554C39.6207 1.28334 32.2597 -1.71115 25.9056 0.998154L18.4468 4.1795L21.7069 11.9091L29.1657 8.7278C31.2821 7.82306 33.7358 8.82122 34.6303 10.9503C35.5296 13.0794 34.5374 15.5478 32.421 16.4476L24.9622 19.629L28.2224 27.3586L32.9098 25.3573L42.5632 21.2368C44.6796 20.3321 47.1333 21.3303 48.0277 23.4594C48.9271 25.5885 47.9349 28.0568 45.8184 28.9566L31.4972 35.0735L34.7574 42.8031L49.0737 36.6961C55.4279 33.9868 58.4045 26.5817 55.7113 20.1944Z" fill="#FFFE06"/>
</g>
<defs>
<clipPath id="clip0">
<rect width="203" height="59" fill="white"/>
</clipPath>
</defs>
</svg>
