<svg width="200" height="136" viewBox="0 0 200 136" fill="none" xmlns="http://www.w3.org/2000/svg">
<path d="M57.3425 130V118.912H64.8305V121.008H59.8385V123.184H64.2705V125.232H59.8385V127.904H65.1985V130H57.3425ZM66.8856 121.872C67.291 121.755 67.8136 121.648 68.4536 121.552C69.0936 121.445 69.7656 121.392 70.4696 121.392C71.1843 121.392 71.7763 121.488 72.2456 121.68C72.7256 121.861 73.1043 122.123 73.3816 122.464C73.659 122.805 73.8563 123.211 73.9736 123.68C74.091 124.149 74.1496 124.672 74.1496 125.248V130H71.7656V125.536C71.7656 124.768 71.6643 124.224 71.4616 123.904C71.259 123.584 70.8803 123.424 70.3256 123.424C70.155 123.424 69.9736 123.435 69.7816 123.456C69.5896 123.467 69.419 123.483 69.2696 123.504V130H66.8856V121.872ZM78.3395 125.728C78.3395 126.464 78.5048 127.056 78.8355 127.504C79.1662 127.952 79.6568 128.176 80.3075 128.176C80.5208 128.176 80.7182 128.171 80.8995 128.16C81.0808 128.139 81.2302 128.117 81.3475 128.096V123.76C81.1982 123.664 81.0008 123.584 80.7555 123.52C80.5208 123.456 80.2808 123.424 80.0355 123.424C78.9048 123.424 78.3395 124.192 78.3395 125.728ZM83.7315 129.728C83.5182 129.792 83.2728 129.856 82.9955 129.92C82.7182 129.973 82.4248 130.021 82.1155 130.064C81.8168 130.107 81.5075 130.139 81.1875 130.16C80.8782 130.192 80.5795 130.208 80.2915 130.208C79.5982 130.208 78.9795 130.107 78.4355 129.904C77.8915 129.701 77.4328 129.413 77.0595 129.04C76.6862 128.656 76.3982 128.197 76.1955 127.664C76.0035 127.12 75.9075 126.512 75.9075 125.84C75.9075 125.157 75.9928 124.544 76.1635 124C76.3342 123.445 76.5795 122.976 76.8995 122.592C77.2195 122.208 77.6088 121.915 78.0675 121.712C78.5368 121.509 79.0702 121.408 79.6675 121.408C79.9982 121.408 80.2915 121.44 80.5475 121.504C80.8142 121.568 81.0808 121.659 81.3475 121.776V117.968L83.7315 117.584V129.728ZM93.8358 125.776C93.8358 126.437 93.7398 127.045 93.5478 127.6C93.3558 128.144 93.0784 128.613 92.7158 129.008C92.3531 129.392 91.9158 129.691 91.4038 129.904C90.9024 130.117 90.3371 130.224 89.7078 130.224C89.0891 130.224 88.5238 130.117 88.0118 129.904C87.5104 129.691 87.0784 129.392 86.7158 129.008C86.3531 128.613 86.0704 128.144 85.8678 127.6C85.6651 127.045 85.5638 126.437 85.5638 125.776C85.5638 125.115 85.6651 124.512 85.8678 123.968C86.0811 123.424 86.3691 122.96 86.7318 122.576C87.1051 122.192 87.5424 121.893 88.0438 121.68C88.5558 121.467 89.1104 121.36 89.7078 121.36C90.3158 121.36 90.8704 121.467 91.3718 121.68C91.8838 121.893 92.3211 122.192 92.6838 122.576C93.0464 122.96 93.3291 123.424 93.5318 123.968C93.7344 124.512 93.8358 125.115 93.8358 125.776ZM91.4038 125.776C91.4038 125.04 91.2544 124.464 90.9558 124.048C90.6678 123.621 90.2518 123.408 89.7078 123.408C89.1638 123.408 88.7424 123.621 88.4438 124.048C88.1451 124.464 87.9958 125.04 87.9958 125.776C87.9958 126.512 88.1451 127.099 88.4438 127.536C88.7424 127.963 89.1638 128.176 89.7078 128.176C90.2518 128.176 90.6678 127.963 90.9558 127.536C91.2544 127.099 91.4038 126.512 91.4038 125.776ZM97.7145 125.728C97.7145 126.464 97.8798 127.056 98.2105 127.504C98.5412 127.952 99.0318 128.176 99.6825 128.176C99.8958 128.176 100.093 128.171 100.275 128.16C100.456 128.139 100.605 128.117 100.723 128.096V123.76C100.573 123.664 100.376 123.584 100.131 123.52C99.8958 123.456 99.6558 123.424 99.4105 123.424C98.2798 123.424 97.7145 124.192 97.7145 125.728ZM103.107 129.728C102.893 129.792 102.648 129.856 102.371 129.92C102.093 129.973 101.8 130.021 101.491 130.064C101.192 130.107 100.883 130.139 100.563 130.16C100.253 130.192 99.9545 130.208 99.6665 130.208C98.9732 130.208 98.3545 130.107 97.8105 129.904C97.2665 129.701 96.8078 129.413 96.4345 129.04C96.0612 128.656 95.7732 128.197 95.5705 127.664C95.3785 127.12 95.2825 126.512 95.2825 125.84C95.2825 125.157 95.3678 124.544 95.5385 124C95.7092 123.445 95.9545 122.976 96.2745 122.592C96.5945 122.208 96.9838 121.915 97.4425 121.712C97.9118 121.509 98.4452 121.408 99.0425 121.408C99.3732 121.408 99.6665 121.44 99.9225 121.504C100.189 121.568 100.456 121.659 100.723 121.776V117.968L103.107 117.584V129.728ZM113.211 125.776C113.211 126.437 113.115 127.045 112.923 127.6C112.731 128.144 112.453 128.613 112.091 129.008C111.728 129.392 111.291 129.691 110.779 129.904C110.277 130.117 109.712 130.224 109.083 130.224C108.464 130.224 107.899 130.117 107.387 129.904C106.885 129.691 106.453 129.392 106.091 129.008C105.728 128.613 105.445 128.144 105.243 127.6C105.04 127.045 104.939 126.437 104.939 125.776C104.939 125.115 105.04 124.512 105.243 123.968C105.456 123.424 105.744 122.96 106.107 122.576C106.48 122.192 106.917 121.893 107.419 121.68C107.931 121.467 108.485 121.36 109.083 121.36C109.691 121.36 110.245 121.467 110.747 121.68C111.259 121.893 111.696 122.192 112.059 122.576C112.421 122.96 112.704 123.424 112.907 123.968C113.109 124.512 113.211 125.115 113.211 125.776ZM110.779 125.776C110.779 125.04 110.629 124.464 110.331 124.048C110.043 123.621 109.627 123.408 109.083 123.408C108.539 123.408 108.117 123.621 107.819 124.048C107.52 124.464 107.371 125.04 107.371 125.776C107.371 126.512 107.52 127.099 107.819 127.536C108.117 127.963 108.539 128.176 109.083 128.176C109.627 128.176 110.043 127.963 110.331 127.536C110.629 127.099 110.779 126.512 110.779 125.776ZM115.058 121.872C115.463 121.755 115.986 121.648 116.626 121.552C117.266 121.445 117.938 121.392 118.641 121.392C119.356 121.392 119.948 121.488 120.418 121.68C120.898 121.861 121.276 122.123 121.554 122.464C121.831 122.805 122.028 123.211 122.146 123.68C122.263 124.149 122.322 124.672 122.322 125.248V130H119.938V125.536C119.938 124.768 119.836 124.224 119.634 123.904C119.431 123.584 119.052 123.424 118.498 123.424C118.327 123.424 118.146 123.435 117.954 123.456C117.762 123.467 117.591 123.483 117.442 123.504V130H115.058V121.872ZM124.399 119.488L126.783 119.104V121.584H129.647V123.568H126.783V126.528C126.783 127.029 126.869 127.429 127.039 127.728C127.221 128.027 127.578 128.176 128.111 128.176C128.367 128.176 128.629 128.155 128.895 128.112C129.173 128.059 129.423 127.989 129.647 127.904L129.983 129.76C129.695 129.877 129.375 129.979 129.023 130.064C128.671 130.149 128.239 130.192 127.727 130.192C127.077 130.192 126.538 130.107 126.111 129.936C125.685 129.755 125.343 129.509 125.087 129.2C124.831 128.88 124.65 128.496 124.543 128.048C124.447 127.6 124.399 127.104 124.399 126.56V119.488ZM133.973 130H131.589V121.584H133.973V130ZM134.197 119.152C134.197 119.589 134.053 119.936 133.765 120.192C133.487 120.437 133.157 120.56 132.773 120.56C132.389 120.56 132.053 120.437 131.765 120.192C131.487 119.936 131.349 119.589 131.349 119.152C131.349 118.715 131.487 118.373 131.765 118.128C132.053 117.872 132.389 117.744 132.773 117.744C133.157 117.744 133.487 117.872 133.765 118.128C134.053 118.373 134.197 118.715 134.197 119.152ZM139.43 128.336C139.664 128.336 139.888 128.331 140.102 128.32C140.315 128.309 140.486 128.293 140.614 128.272V126.464C140.518 126.443 140.374 126.421 140.182 126.4C139.99 126.379 139.814 126.368 139.654 126.368C139.43 126.368 139.216 126.384 139.014 126.416C138.822 126.437 138.651 126.485 138.502 126.56C138.352 126.635 138.235 126.736 138.15 126.864C138.064 126.992 138.022 127.152 138.022 127.344C138.022 127.717 138.144 127.979 138.39 128.128C138.646 128.267 138.992 128.336 139.43 128.336ZM139.238 121.36C139.942 121.36 140.528 121.44 140.998 121.6C141.467 121.76 141.84 121.989 142.118 122.288C142.406 122.587 142.608 122.949 142.726 123.376C142.843 123.803 142.902 124.277 142.902 124.8V129.76C142.56 129.835 142.086 129.92 141.478 130.016C140.87 130.123 140.134 130.176 139.27 130.176C138.726 130.176 138.23 130.128 137.782 130.032C137.344 129.936 136.966 129.781 136.646 129.568C136.326 129.344 136.08 129.056 135.91 128.704C135.739 128.352 135.654 127.92 135.654 127.408C135.654 126.917 135.75 126.501 135.942 126.16C136.144 125.819 136.411 125.547 136.742 125.344C137.072 125.141 137.451 124.997 137.878 124.912C138.304 124.816 138.747 124.768 139.206 124.768C139.515 124.768 139.787 124.784 140.022 124.816C140.267 124.837 140.464 124.869 140.614 124.912V124.688C140.614 124.283 140.491 123.957 140.246 123.712C140 123.467 139.574 123.344 138.966 123.344C138.56 123.344 138.16 123.376 137.766 123.44C137.371 123.493 137.03 123.573 136.742 123.68L136.438 121.76C136.576 121.717 136.747 121.675 136.95 121.632C137.163 121.579 137.392 121.536 137.638 121.504C137.883 121.461 138.139 121.429 138.406 121.408C138.683 121.376 138.96 121.36 139.238 121.36Z" fill="#2F2F2F"/>
<g clip-path="url(#clip0)">
<circle cx="100.415" cy="44.4148" r="40.4148" fill="#E5F2FF"/>
<path d="M131.377 6.90235C126.649 2.32484 120.4 -0.120349 113.771 0.00452882C108.824 0.101209 104.007 1.70582 99.996 4.5619C95.9852 1.70582 91.168 0.101209 86.2212 0.00452882C79.5912 -0.121692 73.3427 2.32484 68.6154 6.90168C63.8922 11.4745 61.2443 17.6365 61.1583 24.2537C61.0462 32.926 65.4774 40.947 72.8015 45.4809L79.1569 81.3363C79.8417 85.1974 83.1838 87.9998 87.1054 87.9998H87.9581C92.21 87.9998 95.7488 84.6751 96.014 80.4319L97.0856 63.2982C97.1816 61.7654 98.4599 60.5643 99.996 60.5643C101.532 60.5643 102.81 61.7654 102.906 63.2982L103.978 80.4319C104.243 84.6751 107.782 87.9998 112.034 87.9998H112.887C116.808 87.9998 120.15 85.1974 120.835 81.3363L127.191 45.4809C134.514 40.947 138.946 32.926 138.833 24.2537C138.748 17.6372 136.1 11.4752 131.377 6.90235ZM72.202 10.6064C75.9355 6.99232 80.8736 5.05873 86.1205 5.16011C90.5886 5.24672 94.9224 6.89161 98.3236 9.78999L99.996 11.2153L101.668 9.78999C105.07 6.89161 109.404 5.24672 113.872 5.16011C114.003 5.15742 114.134 5.15608 114.266 5.15608C119.361 5.15608 124.151 7.08363 127.79 10.6071C131.454 14.154 133.535 18.9175 133.671 24.0462C132.787 23.8435 131.769 23.7166 130.566 23.7166C126.937 23.7166 124.978 24.866 123.405 25.7898C122.055 26.5814 121.081 27.1541 118.853 27.1541C116.626 27.1541 115.651 26.5814 114.303 25.7898C112.728 24.866 110.77 23.7166 107.141 23.7166C103.512 23.7166 101.554 24.866 99.9799 25.7898C98.6311 26.5814 97.6562 27.1541 95.4293 27.1541C93.2023 27.1541 92.2274 26.5814 90.8786 25.7898C89.3049 24.866 87.3464 23.7166 83.7176 23.7166C80.0894 23.7166 78.1303 24.866 76.5566 25.7898C75.2078 26.5814 74.2329 27.1541 72.0059 27.1541C69.7789 27.1541 68.8041 26.5814 67.4553 25.7898C67.1041 25.5837 66.7302 25.3655 66.3233 25.1506C66.3152 24.8747 66.3106 24.5981 66.3139 24.3208C66.3817 19.0873 68.4731 14.2171 72.202 10.6064ZM123.615 41.6003L122.536 42.1945L115.758 80.4366C115.51 81.8311 114.303 82.8436 112.887 82.8436H112.034C110.498 82.8436 109.22 81.6431 109.124 80.1097L108.052 62.9759C107.787 58.7327 104.248 55.408 99.996 55.408C95.7441 55.408 92.2053 58.7327 91.9394 62.9759L90.8679 80.1097C90.7719 81.6431 89.4935 82.8436 87.9581 82.8436H87.1054C85.6888 82.8436 84.4816 81.8311 84.2346 80.4366L77.4556 42.1945L76.3767 41.6003C72.3027 39.3545 69.2526 35.7914 67.6298 31.6101C68.7745 32.0183 70.1784 32.3096 72.0059 32.3096C75.6348 32.3096 77.5939 31.1602 79.1676 30.2364C80.5164 29.4448 81.4906 28.8721 83.7183 28.8721C85.9453 28.8721 86.9194 29.4442 88.2689 30.2364C89.842 31.1602 91.8011 32.3096 95.4293 32.3096C99.0581 32.3096 101.017 31.1602 102.59 30.2364C103.94 29.4448 104.914 28.8721 107.142 28.8721C109.369 28.8721 110.343 29.4442 111.692 30.2364C113.266 31.1602 115.225 32.3096 118.853 32.3096C122.482 32.3096 124.441 31.1602 126.015 30.2364C127.364 29.4448 128.339 28.8721 130.566 28.8721C131.645 28.8721 132.436 29.0125 133.111 29.2407C131.829 34.4332 128.441 38.9409 123.615 41.6003Z" fill="#00D5E2"/>
<mask id="mask0" mask-type="alpha" maskUnits="userSpaceOnUse" x="60" y="4" width="81" height="81">
<circle cx="100.415" cy="44.4148" r="40.4148" fill="#E5F2FF"/>
</mask>
<g mask="url(#mask0)">
</g>
</g>
<defs>
<clipPath id="clip0">
<rect width="88" height="88" fill="white" transform="translate(56)"/>
</clipPath>
</defs>
</svg>
