<svg width="200" height="136" viewBox="0 0 200 136" fill="none" xmlns="http://www.w3.org/2000/svg">
<path d="M19.3816 130V118.912H26.8696V121.008H21.8776V123.184H26.3096V125.232H21.8776V127.904H27.2376V130H19.3816ZM33.5487 125.536C33.5487 124.768 33.4474 124.224 33.2447 123.904C33.0527 123.584 32.7167 123.424 32.2367 123.424C32.0874 123.424 31.9327 123.435 31.7727 123.456C31.6127 123.467 31.458 123.483 31.3087 123.504V130H28.9247V121.872C29.1274 121.819 29.362 121.765 29.6287 121.712C29.906 121.648 30.194 121.595 30.4927 121.552C30.802 121.499 31.1167 121.461 31.4367 121.44C31.7567 121.408 32.0714 121.392 32.3807 121.392C32.9887 121.392 33.4794 121.472 33.8527 121.632C34.2367 121.781 34.5514 121.963 34.7967 122.176C35.138 121.931 35.5274 121.739 35.9647 121.6C36.4127 121.461 36.8234 121.392 37.1967 121.392C37.8687 121.392 38.418 121.488 38.8447 121.68C39.282 121.861 39.6287 122.123 39.8847 122.464C40.1407 122.805 40.3167 123.211 40.4127 123.68C40.5087 124.149 40.5567 124.672 40.5567 125.248V130H38.1727V125.536C38.1727 124.768 38.0714 124.224 37.8687 123.904C37.6767 123.584 37.3407 123.424 36.8607 123.424C36.7327 123.424 36.5514 123.456 36.3167 123.52C36.0927 123.584 35.906 123.664 35.7567 123.76C35.8314 124.005 35.8794 124.267 35.9007 124.544C35.922 124.811 35.9327 125.099 35.9327 125.408V130H33.5487V125.536ZM42.3216 125.856C42.3216 125.109 42.4336 124.459 42.6576 123.904C42.8922 123.339 43.1962 122.869 43.5696 122.496C43.9429 122.123 44.3696 121.84 44.8496 121.648C45.3402 121.456 45.8416 121.36 46.3536 121.36C47.5482 121.36 48.4922 121.728 49.1856 122.464C49.8789 123.189 50.2256 124.261 50.2256 125.68C50.2256 125.819 50.2202 125.973 50.2096 126.144C50.1989 126.304 50.1882 126.448 50.1776 126.576H44.7696C44.8229 127.067 45.0522 127.456 45.4576 127.744C45.8629 128.032 46.4069 128.176 47.0896 128.176C47.5269 128.176 47.9536 128.139 48.3696 128.064C48.7962 127.979 49.1429 127.877 49.4096 127.76L49.7296 129.696C49.6016 129.76 49.4309 129.824 49.2176 129.888C49.0042 129.952 48.7642 130.005 48.4976 130.048C48.2416 130.101 47.9642 130.144 47.6656 130.176C47.3669 130.208 47.0682 130.224 46.7696 130.224C46.0122 130.224 45.3509 130.112 44.7856 129.888C44.2309 129.664 43.7669 129.36 43.3936 128.976C43.0309 128.581 42.7589 128.117 42.5776 127.584C42.4069 127.051 42.3216 126.475 42.3216 125.856ZM47.9216 124.944C47.9109 124.741 47.8736 124.544 47.8096 124.352C47.7562 124.16 47.6656 123.989 47.5376 123.84C47.4202 123.691 47.2656 123.568 47.0736 123.472C46.8922 123.376 46.6629 123.328 46.3856 123.328C46.1189 123.328 45.8896 123.376 45.6976 123.472C45.5056 123.557 45.3456 123.675 45.2176 123.824C45.0896 123.973 44.9882 124.149 44.9136 124.352C44.8496 124.544 44.8016 124.741 44.7696 124.944H47.9216ZM57.1373 123.696C56.924 123.643 56.6733 123.589 56.3853 123.536C56.0973 123.472 55.788 123.44 55.4573 123.44C55.308 123.44 55.1266 123.456 54.9133 123.488C54.7106 123.509 54.556 123.536 54.4493 123.568V130H52.0653V122.032C52.492 121.883 52.9933 121.744 53.5693 121.616C54.156 121.477 54.8066 121.408 55.5213 121.408C55.6493 121.408 55.804 121.419 55.9853 121.44C56.1666 121.451 56.348 121.472 56.5293 121.504C56.7106 121.525 56.892 121.557 57.0733 121.6C57.2546 121.632 57.4093 121.675 57.5373 121.728L57.1373 123.696ZM60.6911 125.52C60.6911 126.853 61.2297 127.52 62.3071 127.52C62.5524 127.52 62.7817 127.488 62.9951 127.424C63.2084 127.36 63.3897 127.285 63.5391 127.2V123.392C63.4217 123.371 63.2831 123.355 63.1231 123.344C62.9631 123.323 62.7764 123.312 62.5631 123.312C61.9337 123.312 61.4644 123.52 61.1551 123.936C60.8457 124.352 60.6911 124.88 60.6911 125.52ZM65.9231 128.944C65.9231 130.32 65.5711 131.339 64.8671 132C64.1737 132.672 63.0964 133.008 61.6351 133.008C61.1231 133.008 60.6111 132.96 60.0991 132.864C59.5871 132.779 59.1124 132.661 58.6751 132.512L59.0911 130.512C59.4644 130.661 59.8537 130.779 60.2591 130.864C60.6751 130.949 61.1444 130.992 61.6671 130.992C62.3497 130.992 62.8297 130.843 63.1071 130.544C63.3951 130.245 63.5391 129.861 63.5391 129.392V129.088C63.2831 129.205 63.0164 129.296 62.7391 129.36C62.4724 129.413 62.1791 129.44 61.8591 129.44C60.6964 129.44 59.8057 129.099 59.1871 128.416C58.5684 127.723 58.2591 126.757 58.2591 125.52C58.2591 124.901 58.3551 124.341 58.5471 123.84C58.7391 123.328 59.0164 122.891 59.3791 122.528C59.7524 122.165 60.2057 121.888 60.7391 121.696C61.2724 121.493 61.8751 121.392 62.5471 121.392C62.8351 121.392 63.1284 121.408 63.4271 121.44C63.7364 121.461 64.0404 121.493 64.3391 121.536C64.6377 121.579 64.9204 121.632 65.1871 121.696C65.4644 121.749 65.7097 121.808 65.9231 121.872V128.944ZM67.7591 125.856C67.7591 125.109 67.8711 124.459 68.0951 123.904C68.3297 123.339 68.6337 122.869 69.0071 122.496C69.3804 122.123 69.8071 121.84 70.2871 121.648C70.7777 121.456 71.2791 121.36 71.7911 121.36C72.9857 121.36 73.9297 121.728 74.6231 122.464C75.3164 123.189 75.6631 124.261 75.6631 125.68C75.6631 125.819 75.6577 125.973 75.6471 126.144C75.6364 126.304 75.6257 126.448 75.6151 126.576H70.2071C70.2604 127.067 70.4897 127.456 70.8951 127.744C71.3004 128.032 71.8444 128.176 72.5271 128.176C72.9644 128.176 73.3911 128.139 73.8071 128.064C74.2337 127.979 74.5804 127.877 74.8471 127.76L75.1671 129.696C75.0391 129.76 74.8684 129.824 74.6551 129.888C74.4417 129.952 74.2017 130.005 73.9351 130.048C73.6791 130.101 73.4017 130.144 73.1031 130.176C72.8044 130.208 72.5057 130.224 72.2071 130.224C71.4497 130.224 70.7884 130.112 70.2231 129.888C69.6684 129.664 69.2044 129.36 68.8311 128.976C68.4684 128.581 68.1964 128.117 68.0151 127.584C67.8444 127.051 67.7591 126.475 67.7591 125.856ZM73.3591 124.944C73.3484 124.741 73.3111 124.544 73.2471 124.352C73.1937 124.16 73.1031 123.989 72.9751 123.84C72.8577 123.691 72.7031 123.568 72.5111 123.472C72.3297 123.376 72.1004 123.328 71.8231 123.328C71.5564 123.328 71.3271 123.376 71.1351 123.472C70.9431 123.557 70.7831 123.675 70.6551 123.824C70.5271 123.973 70.4257 124.149 70.3511 124.352C70.2871 124.544 70.2391 124.741 70.2071 124.944H73.3591ZM74.1911 119.68L73.3111 120.736L71.7111 119.504L70.1111 120.736L69.1991 119.68L71.7111 117.488L74.1911 119.68ZM77.5028 121.872C77.9081 121.755 78.4308 121.648 79.0708 121.552C79.7108 121.445 80.3828 121.392 81.0868 121.392C81.8015 121.392 82.3935 121.488 82.8628 121.68C83.3428 121.861 83.7215 122.123 83.9988 122.464C84.2761 122.805 84.4735 123.211 84.5908 123.68C84.7081 124.149 84.7668 124.672 84.7668 125.248V130H82.3828V125.536C82.3828 124.768 82.2815 124.224 82.0788 123.904C81.8761 123.584 81.4975 123.424 80.9428 123.424C80.7721 123.424 80.5908 123.435 80.3988 123.456C80.2068 123.467 80.0361 123.483 79.8868 123.504V130H77.5028V121.872ZM86.5247 125.792C86.5247 125.184 86.6207 124.613 86.8127 124.08C87.0154 123.536 87.3034 123.067 87.6767 122.672C88.05 122.267 88.5034 121.947 89.0367 121.712C89.57 121.477 90.178 121.36 90.8607 121.36C91.3087 121.36 91.7194 121.403 92.0927 121.488C92.466 121.563 92.8287 121.675 93.1807 121.824L92.6847 123.728C92.4607 123.643 92.2154 123.568 91.9487 123.504C91.682 123.44 91.3834 123.408 91.0527 123.408C90.3487 123.408 89.8207 123.627 89.4687 124.064C89.1274 124.501 88.9567 125.077 88.9567 125.792C88.9567 126.549 89.1167 127.136 89.4367 127.552C89.7674 127.968 90.338 128.176 91.1487 128.176C91.4367 128.176 91.746 128.149 92.0767 128.096C92.4074 128.043 92.7114 127.957 92.9887 127.84L93.3247 129.792C93.0474 129.909 92.7007 130.011 92.2847 130.096C91.8687 130.181 91.41 130.224 90.9087 130.224C90.1407 130.224 89.4794 130.112 88.9247 129.888C88.37 129.653 87.9114 129.339 87.5487 128.944C87.1967 128.549 86.9354 128.085 86.7647 127.552C86.6047 127.008 86.5247 126.421 86.5247 125.792ZM97.3087 130H94.9247V121.584H97.3087V130ZM97.5327 119.152C97.5327 119.589 97.3887 119.936 97.1007 120.192C96.8234 120.437 96.4927 120.56 96.1087 120.56C95.7247 120.56 95.3887 120.437 95.1007 120.192C94.8234 119.936 94.6847 119.589 94.6847 119.152C94.6847 118.715 94.8234 118.373 95.1007 118.128C95.3887 117.872 95.7247 117.744 96.1087 117.744C96.4927 117.744 96.8234 117.872 97.1007 118.128C97.3887 118.373 97.5327 118.715 97.5327 119.152ZM102.766 128.336C103 128.336 103.224 128.331 103.438 128.32C103.651 128.309 103.822 128.293 103.95 128.272V126.464C103.854 126.443 103.71 126.421 103.518 126.4C103.326 126.379 103.15 126.368 102.99 126.368C102.766 126.368 102.552 126.384 102.35 126.416C102.158 126.437 101.987 126.485 101.838 126.56C101.688 126.635 101.571 126.736 101.486 126.864C101.4 126.992 101.358 127.152 101.358 127.344C101.358 127.717 101.48 127.979 101.726 128.128C101.982 128.267 102.328 128.336 102.766 128.336ZM102.574 121.36C103.278 121.36 103.864 121.44 104.334 121.6C104.803 121.76 105.176 121.989 105.454 122.288C105.742 122.587 105.944 122.949 106.062 123.376C106.179 123.803 106.238 124.277 106.238 124.8V129.76C105.896 129.835 105.422 129.92 104.814 130.016C104.206 130.123 103.47 130.176 102.606 130.176C102.062 130.176 101.566 130.128 101.118 130.032C100.68 129.936 100.302 129.781 99.9817 129.568C99.6617 129.344 99.4164 129.056 99.2457 128.704C99.075 128.352 98.9897 127.92 98.9897 127.408C98.9897 126.917 99.0857 126.501 99.2777 126.16C99.4804 125.819 99.747 125.547 100.078 125.344C100.408 125.141 100.787 124.997 101.214 124.912C101.64 124.816 102.083 124.768 102.542 124.768C102.851 124.768 103.123 124.784 103.358 124.816C103.603 124.837 103.8 124.869 103.95 124.912V124.688C103.95 124.283 103.827 123.957 103.582 123.712C103.336 123.467 102.91 123.344 102.302 123.344C101.896 123.344 101.496 123.376 101.102 123.44C100.707 123.493 100.366 123.573 100.078 123.68L99.7737 121.76C99.9124 121.717 100.083 121.675 100.286 121.632C100.499 121.579 100.728 121.536 100.974 121.504C101.219 121.461 101.475 121.429 101.742 121.408C102.019 121.376 102.296 121.36 102.574 121.36ZM109.321 132.96H106.873L112.249 117.472H114.665L109.321 132.96ZM119.874 130.224C119.095 130.224 118.423 130.117 117.858 129.904C117.292 129.68 116.823 129.376 116.45 128.992C116.087 128.597 115.815 128.133 115.634 127.6C115.463 127.056 115.378 126.459 115.378 125.808V118.912H117.874V125.6C117.874 126.048 117.922 126.432 118.018 126.752C118.124 127.061 118.263 127.317 118.434 127.52C118.615 127.712 118.828 127.851 119.074 127.936C119.33 128.021 119.607 128.064 119.906 128.064C120.514 128.064 121.004 127.877 121.378 127.504C121.762 127.131 121.954 126.496 121.954 125.6V118.912H124.45V125.808C124.45 126.459 124.359 127.056 124.178 127.6C123.996 128.144 123.719 128.613 123.346 129.008C122.972 129.392 122.498 129.691 121.922 129.904C121.346 130.117 120.663 130.224 119.874 130.224ZM131.762 123.696C131.549 123.643 131.298 123.589 131.01 123.536C130.722 123.472 130.413 123.44 130.082 123.44C129.933 123.44 129.752 123.456 129.538 123.488C129.336 123.509 129.181 123.536 129.074 123.568V130H126.69V122.032C127.117 121.883 127.618 121.744 128.194 121.616C128.781 121.477 129.432 121.408 130.146 121.408C130.274 121.408 130.429 121.419 130.61 121.44C130.792 121.451 130.973 121.472 131.154 121.504C131.336 121.525 131.517 121.557 131.698 121.6C131.88 121.632 132.034 121.675 132.162 121.728L131.762 123.696ZM135.316 125.52C135.316 126.853 135.855 127.52 136.932 127.52C137.177 127.52 137.407 127.488 137.62 127.424C137.833 127.36 138.015 127.285 138.164 127.2V123.392C138.047 123.371 137.908 123.355 137.748 123.344C137.588 123.323 137.401 123.312 137.188 123.312C136.559 123.312 136.089 123.52 135.78 123.936C135.471 124.352 135.316 124.88 135.316 125.52ZM140.548 128.944C140.548 130.32 140.196 131.339 139.492 132C138.799 132.672 137.721 133.008 136.26 133.008C135.748 133.008 135.236 132.96 134.724 132.864C134.212 132.779 133.737 132.661 133.3 132.512L133.716 130.512C134.089 130.661 134.479 130.779 134.884 130.864C135.3 130.949 135.769 130.992 136.292 130.992C136.975 130.992 137.455 130.843 137.732 130.544C138.02 130.245 138.164 129.861 138.164 129.392V129.088C137.908 129.205 137.641 129.296 137.364 129.36C137.097 129.413 136.804 129.44 136.484 129.44C135.321 129.44 134.431 129.099 133.812 128.416C133.193 127.723 132.884 126.757 132.884 125.52C132.884 124.901 132.98 124.341 133.172 123.84C133.364 123.328 133.641 122.891 134.004 122.528C134.377 122.165 134.831 121.888 135.364 121.696C135.897 121.493 136.5 121.392 137.172 121.392C137.46 121.392 137.753 121.408 138.052 121.44C138.361 121.461 138.665 121.493 138.964 121.536C139.263 121.579 139.545 121.632 139.812 121.696C140.089 121.749 140.335 121.808 140.548 121.872V128.944ZM142.384 125.856C142.384 125.109 142.496 124.459 142.72 123.904C142.955 123.339 143.259 122.869 143.632 122.496C144.005 122.123 144.432 121.84 144.912 121.648C145.403 121.456 145.904 121.36 146.416 121.36C147.611 121.36 148.555 121.728 149.248 122.464C149.941 123.189 150.288 124.261 150.288 125.68C150.288 125.819 150.283 125.973 150.272 126.144C150.261 126.304 150.251 126.448 150.24 126.576H144.832C144.885 127.067 145.115 127.456 145.52 127.744C145.925 128.032 146.469 128.176 147.152 128.176C147.589 128.176 148.016 128.139 148.432 128.064C148.859 127.979 149.205 127.877 149.472 127.76L149.792 129.696C149.664 129.76 149.493 129.824 149.28 129.888C149.067 129.952 148.827 130.005 148.56 130.048C148.304 130.101 148.027 130.144 147.728 130.176C147.429 130.208 147.131 130.224 146.832 130.224C146.075 130.224 145.413 130.112 144.848 129.888C144.293 129.664 143.829 129.36 143.456 128.976C143.093 128.581 142.821 128.117 142.64 127.584C142.469 127.051 142.384 126.475 142.384 125.856ZM147.984 124.944C147.973 124.741 147.936 124.544 147.872 124.352C147.819 124.16 147.728 123.989 147.6 123.84C147.483 123.691 147.328 123.568 147.136 123.472C146.955 123.376 146.725 123.328 146.448 123.328C146.181 123.328 145.952 123.376 145.76 123.472C145.568 123.557 145.408 123.675 145.28 123.824C145.152 123.973 145.051 124.149 144.976 124.352C144.912 124.544 144.864 124.741 144.832 124.944H147.984ZM148.816 119.68L147.936 120.736L146.336 119.504L144.736 120.736L143.824 119.68L146.336 117.488L148.816 119.68ZM152.128 121.872C152.533 121.755 153.056 121.648 153.696 121.552C154.336 121.445 155.008 121.392 155.712 121.392C156.426 121.392 157.018 121.488 157.488 121.68C157.968 121.861 158.346 122.123 158.624 122.464C158.901 122.805 159.098 123.211 159.216 123.68C159.333 124.149 159.392 124.672 159.392 125.248V130H157.008V125.536C157.008 124.768 156.906 124.224 156.704 123.904C156.501 123.584 156.122 123.424 155.568 123.424C155.397 123.424 155.216 123.435 155.024 123.456C154.832 123.467 154.661 123.483 154.512 123.504V130H152.128V121.872ZM161.15 125.792C161.15 125.184 161.246 124.613 161.438 124.08C161.64 123.536 161.928 123.067 162.302 122.672C162.675 122.267 163.128 121.947 163.662 121.712C164.195 121.477 164.803 121.36 165.486 121.36C165.934 121.36 166.344 121.403 166.718 121.488C167.091 121.563 167.454 121.675 167.806 121.824L167.31 123.728C167.086 123.643 166.84 123.568 166.574 123.504C166.307 123.44 166.008 123.408 165.678 123.408C164.974 123.408 164.446 123.627 164.094 124.064C163.752 124.501 163.582 125.077 163.582 125.792C163.582 126.549 163.742 127.136 164.062 127.552C164.392 127.968 164.963 128.176 165.774 128.176C166.062 128.176 166.371 128.149 166.702 128.096C167.032 128.043 167.336 127.957 167.614 127.84L167.95 129.792C167.672 129.909 167.326 130.011 166.91 130.096C166.494 130.181 166.035 130.224 165.534 130.224C164.766 130.224 164.104 130.112 163.55 129.888C162.995 129.653 162.536 129.339 162.174 128.944C161.822 128.549 161.56 128.085 161.39 127.552C161.23 127.008 161.15 126.421 161.15 125.792ZM171.934 130H169.55V121.584H171.934V130ZM172.158 119.152C172.158 119.589 172.014 119.936 171.726 120.192C171.448 120.437 171.118 120.56 170.734 120.56C170.35 120.56 170.014 120.437 169.726 120.192C169.448 119.936 169.31 119.589 169.31 119.152C169.31 118.715 169.448 118.373 169.726 118.128C170.014 117.872 170.35 117.744 170.734 117.744C171.118 117.744 171.448 117.872 171.726 118.128C172.014 118.373 172.158 118.715 172.158 119.152ZM177.391 128.336C177.625 128.336 177.849 128.331 178.063 128.32C178.276 128.309 178.447 128.293 178.575 128.272V126.464C178.479 126.443 178.335 126.421 178.143 126.4C177.951 126.379 177.775 126.368 177.615 126.368C177.391 126.368 177.177 126.384 176.975 126.416C176.783 126.437 176.612 126.485 176.463 126.56C176.313 126.635 176.196 126.736 176.111 126.864C176.025 126.992 175.983 127.152 175.983 127.344C175.983 127.717 176.105 127.979 176.351 128.128C176.607 128.267 176.953 128.336 177.391 128.336ZM177.199 121.36C177.903 121.36 178.489 121.44 178.959 121.6C179.428 121.76 179.801 121.989 180.079 122.288C180.367 122.587 180.569 122.949 180.687 123.376C180.804 123.803 180.863 124.277 180.863 124.8V129.76C180.521 129.835 180.047 129.92 179.439 130.016C178.831 130.123 178.095 130.176 177.231 130.176C176.687 130.176 176.191 130.128 175.743 130.032C175.305 129.936 174.927 129.781 174.607 129.568C174.287 129.344 174.041 129.056 173.871 128.704C173.7 128.352 173.615 127.92 173.615 127.408C173.615 126.917 173.711 126.501 173.903 126.16C174.105 125.819 174.372 125.547 174.703 125.344C175.033 125.141 175.412 124.997 175.839 124.912C176.265 124.816 176.708 124.768 177.167 124.768C177.476 124.768 177.748 124.784 177.983 124.816C178.228 124.837 178.425 124.869 178.575 124.912V124.688C178.575 124.283 178.452 123.957 178.207 123.712C177.961 123.467 177.535 123.344 176.927 123.344C176.521 123.344 176.121 123.376 175.727 123.44C175.332 123.493 174.991 123.573 174.703 123.68L174.399 121.76C174.537 121.717 174.708 121.675 174.911 121.632C175.124 121.579 175.353 121.536 175.599 121.504C175.844 121.461 176.1 121.429 176.367 121.408C176.644 121.376 176.921 121.36 177.199 121.36Z" fill="#2F2F2F"/>
<g clip-path="url(#clip0)">
<circle cx="100.415" cy="44.4148" r="40.4148" fill="#E5F2FF"/>
<path d="M129.533 5.99541C125.484 2.02304 120.145 -0.105462 114.515 0.00402285C109.415 0.102163 104.543 2.06532 100.798 5.53152C100.351 5.94523 99.6507 5.94523 99.2037 5.53152C95.4582 2.06549 90.5867 0.102507 85.4865 0.00402285C85.349 0.00144472 85.2125 6.97234e-05 85.0752 6.97234e-05C79.5927 6.97234e-05 74.4189 2.11998 70.4684 5.99524C66.4747 9.91262 64.2754 15.1124 64.2754 20.6368C64.2754 27.8165 67.0385 31.9845 69.2589 35.3333C70.7265 37.5469 71.7867 39.1463 71.7867 41.0724C71.7867 72.6348 85.3137 84.0896 85.8899 84.5615L90.0831 88.0001V82.5771C90.0831 76.1505 91.097 70.4733 92.9381 66.5905C94.705 62.8642 97.0812 60.9746 100.001 60.9746C103.084 60.9746 105.403 62.7965 107.091 66.5449C108.803 70.3456 109.707 75.8894 109.707 82.5771V87.9836L113.896 84.5653C114.326 84.2147 124.448 75.7239 127.34 53.3618C127.916 49.2708 128.208 44.9466 128.208 40.5095C128.208 38.8034 129.071 37.5236 130.596 35.4082C132.761 32.4059 135.726 28.2943 135.726 20.6364C135.726 15.1122 133.526 9.91262 129.533 5.99541ZM126.433 32.4062C124.782 34.6956 123.075 37.063 123.075 40.5095C123.075 44.7132 122.799 48.8012 122.255 52.66L122.252 52.6894C120.888 63.2446 117.798 70.2767 115.445 74.3169C115.131 74.8556 114.822 75.3568 114.521 75.8215C113.233 63.0294 108.1 55.8419 100.001 55.8419C92.0533 55.8419 86.6833 63.3496 85.3022 75.8568C81.7178 70.3002 76.9192 59.432 76.9192 41.0722C76.9192 37.5993 75.1996 35.0055 73.5365 32.497C71.5067 29.4354 69.4077 26.2696 69.4077 20.6366C69.4077 16.502 71.0608 12.6035 74.0625 9.65944C77.0452 6.73327 80.9464 5.13277 85.0781 5.13277C85.1809 5.13277 85.284 5.1338 85.3875 5.13587C89.2279 5.21012 92.8967 6.68859 95.7177 9.29902C98.1193 11.5215 101.882 11.5214 104.284 9.29885C107.105 6.68841 110.773 5.20994 114.614 5.13587C118.859 5.05096 122.882 6.66057 125.939 9.65944C128.941 12.6035 130.594 16.502 130.594 20.6366C130.593 26.6369 128.478 29.5698 126.433 32.4062Z" fill="#00D5E2"/>
<path d="M113.174 20.8968C105.91 13.6328 94.0903 13.6327 86.8262 20.8968C83.3072 24.4156 81.3691 29.0942 81.3691 34.0707C81.3691 39.0471 83.307 43.7259 86.8262 47.2447C90.4582 50.8768 95.229 52.6928 100 52.6928C104.771 52.6928 109.542 50.8769 113.174 47.2447C116.693 43.7259 118.631 39.0471 118.631 34.0707C118.631 29.0942 116.693 24.4156 113.174 20.8968ZM109.545 43.6152C104.282 48.8779 95.7185 48.8779 90.4555 43.6152C87.9061 41.0658 86.502 37.6761 86.502 34.0705C86.502 30.4651 87.9061 27.0753 90.4555 24.5259C93.0871 21.8945 96.5435 20.579 100 20.579C103.457 20.579 106.913 21.8947 109.545 24.5259C112.094 27.0753 113.498 30.4651 113.498 34.0705C113.498 37.6761 112.094 41.0658 109.545 43.6152Z" fill="#00D5E2"/>
<path d="M102.566 31.5043V25.8326H97.433V31.5043H91.8555V36.637H97.433V42.2148H102.566V36.637H108.144V31.5043H102.566Z" fill="#00D5E2"/>
</g>
<defs>
<clipPath id="clip0">
<rect width="88" height="88" fill="white" transform="translate(56)"/>
</clipPath>
</defs>
</svg>
