<svg width="200" height="136" viewBox="0 0 200 136" fill="none" xmlns="http://www.w3.org/2000/svg">
<path d="M58.4166 127.968C58.534 127.979 58.6673 127.989 58.8166 128C58.9766 128 59.1633 128 59.3766 128C60.6246 128 61.5473 127.685 62.1446 127.056C62.7526 126.427 63.0566 125.557 63.0566 124.448C63.0566 123.285 62.7686 122.405 62.1926 121.808C61.6166 121.211 60.7046 120.912 59.4566 120.912C59.286 120.912 59.11 120.917 58.9286 120.928C58.7473 120.928 58.5766 120.939 58.4166 120.96V127.968ZM65.6326 124.448C65.6326 125.408 65.4833 126.245 65.1846 126.96C64.886 127.675 64.4593 128.267 63.9046 128.736C63.3606 129.205 62.694 129.557 61.9046 129.792C61.1153 130.027 60.23 130.144 59.2486 130.144C58.8006 130.144 58.278 130.123 57.6806 130.08C57.0833 130.048 56.4966 129.973 55.9206 129.856V119.056C56.4966 118.949 57.094 118.88 57.7126 118.848C58.342 118.805 58.8806 118.784 59.3286 118.784C60.278 118.784 61.1366 118.891 61.9046 119.104C62.6833 119.317 63.35 119.653 63.9046 120.112C64.4593 120.571 64.886 121.157 65.1846 121.872C65.4833 122.587 65.6326 123.445 65.6326 124.448ZM69.9415 130H67.5575V121.584H69.9415V130ZM70.1655 119.152C70.1655 119.589 70.0215 119.936 69.7335 120.192C69.4562 120.437 69.1255 120.56 68.7415 120.56C68.3575 120.56 68.0215 120.437 67.7335 120.192C67.4562 119.936 67.3175 119.589 67.3175 119.152C67.3175 118.715 67.4562 118.373 67.7335 118.128C68.0215 117.872 68.3575 117.744 68.7415 117.744C69.1255 117.744 69.4562 117.872 69.7335 118.128C70.0215 118.373 70.1655 118.715 70.1655 119.152ZM75.3985 128.336C75.6332 128.336 75.8572 128.331 76.0705 128.32C76.2838 128.309 76.4545 128.293 76.5825 128.272V126.464C76.4865 126.443 76.3425 126.421 76.1505 126.4C75.9585 126.379 75.7825 126.368 75.6225 126.368C75.3985 126.368 75.1852 126.384 74.9825 126.416C74.7905 126.437 74.6198 126.485 74.4705 126.56C74.3212 126.635 74.2038 126.736 74.1185 126.864C74.0332 126.992 73.9905 127.152 73.9905 127.344C73.9905 127.717 74.1132 127.979 74.3585 128.128C74.6145 128.267 74.9612 128.336 75.3985 128.336ZM75.2065 121.36C75.9105 121.36 76.4972 121.44 76.9665 121.6C77.4358 121.76 77.8092 121.989 78.0865 122.288C78.3745 122.587 78.5772 122.949 78.6945 123.376C78.8118 123.803 78.8705 124.277 78.8705 124.8V129.76C78.5292 129.835 78.0545 129.92 77.4465 130.016C76.8385 130.123 76.1025 130.176 75.2385 130.176C74.6945 130.176 74.1985 130.128 73.7505 130.032C73.3132 129.936 72.9345 129.781 72.6145 129.568C72.2945 129.344 72.0492 129.056 71.8785 128.704C71.7078 128.352 71.6225 127.92 71.6225 127.408C71.6225 126.917 71.7185 126.501 71.9105 126.16C72.1132 125.819 72.3798 125.547 72.7105 125.344C73.0412 125.141 73.4198 124.997 73.8465 124.912C74.2732 124.816 74.7158 124.768 75.1745 124.768C75.4838 124.768 75.7558 124.784 75.9905 124.816C76.2358 124.837 76.4332 124.869 76.5825 124.912V124.688C76.5825 124.283 76.4598 123.957 76.2145 123.712C75.9692 123.467 75.5425 123.344 74.9345 123.344C74.5292 123.344 74.1292 123.376 73.7345 123.44C73.3398 123.493 72.9985 123.573 72.7105 123.68L72.4065 121.76C72.5452 121.717 72.7158 121.675 72.9185 121.632C73.1318 121.579 73.3612 121.536 73.6065 121.504C73.8518 121.461 74.1078 121.429 74.3745 121.408C74.6518 121.376 74.9292 121.36 75.2065 121.36ZM83.0583 125.52C83.0583 126.853 83.5969 127.52 84.6743 127.52C84.9196 127.52 85.1489 127.488 85.3623 127.424C85.5756 127.36 85.7569 127.285 85.9063 127.2V123.392C85.7889 123.371 85.6503 123.355 85.4903 123.344C85.3303 123.323 85.1436 123.312 84.9303 123.312C84.3009 123.312 83.8316 123.52 83.5223 123.936C83.2129 124.352 83.0583 124.88 83.0583 125.52ZM88.2903 128.944C88.2903 130.32 87.9383 131.339 87.2343 132C86.5409 132.672 85.4636 133.008 84.0023 133.008C83.4903 133.008 82.9783 132.96 82.4663 132.864C81.9543 132.779 81.4796 132.661 81.0423 132.512L81.4583 130.512C81.8316 130.661 82.2209 130.779 82.6263 130.864C83.0423 130.949 83.5116 130.992 84.0343 130.992C84.7169 130.992 85.1969 130.843 85.4743 130.544C85.7623 130.245 85.9063 129.861 85.9063 129.392V129.088C85.6503 129.205 85.3836 129.296 85.1063 129.36C84.8396 129.413 84.5463 129.44 84.2263 129.44C83.0636 129.44 82.1729 129.099 81.5543 128.416C80.9356 127.723 80.6263 126.757 80.6263 125.52C80.6263 124.901 80.7223 124.341 80.9143 123.84C81.1063 123.328 81.3836 122.891 81.7463 122.528C82.1196 122.165 82.5729 121.888 83.1063 121.696C83.6396 121.493 84.2423 121.392 84.9143 121.392C85.2023 121.392 85.4956 121.408 85.7943 121.44C86.1036 121.461 86.4076 121.493 86.7063 121.536C87.0049 121.579 87.2876 121.632 87.5543 121.696C87.8316 121.749 88.0769 121.808 88.2903 121.872V128.944ZM90.5263 121.872C90.9316 121.755 91.4543 121.648 92.0943 121.552C92.7343 121.445 93.4063 121.392 94.1102 121.392C94.8249 121.392 95.4169 121.488 95.8863 121.68C96.3663 121.861 96.7449 122.123 97.0223 122.464C97.2996 122.805 97.4969 123.211 97.6143 123.68C97.7316 124.149 97.7903 124.672 97.7903 125.248V130H95.4063V125.536C95.4063 124.768 95.3049 124.224 95.1023 123.904C94.8996 123.584 94.5209 123.424 93.9663 123.424C93.7956 123.424 93.6143 123.435 93.4223 123.456C93.2303 123.467 93.0596 123.483 92.9103 123.504V130H90.5263V121.872ZM107.82 125.776C107.82 126.437 107.724 127.045 107.532 127.6C107.34 128.144 107.063 128.613 106.7 129.008C106.337 129.392 105.9 129.691 105.388 129.904C104.887 130.117 104.321 130.224 103.692 130.224C103.073 130.224 102.508 130.117 101.996 129.904C101.495 129.691 101.063 129.392 100.7 129.008C100.337 128.613 100.055 128.144 99.8521 127.6C99.6495 127.045 99.5481 126.437 99.5481 125.776C99.5481 125.115 99.6495 124.512 99.8521 123.968C100.065 123.424 100.353 122.96 100.716 122.576C101.089 122.192 101.527 121.893 102.028 121.68C102.54 121.467 103.095 121.36 103.692 121.36C104.3 121.36 104.855 121.467 105.356 121.68C105.868 121.893 106.305 122.192 106.668 122.576C107.031 122.96 107.313 123.424 107.516 123.968C107.719 124.512 107.82 125.115 107.82 125.776ZM105.388 125.776C105.388 125.04 105.239 124.464 104.94 124.048C104.652 123.621 104.236 123.408 103.692 123.408C103.148 123.408 102.727 123.621 102.428 124.048C102.129 124.464 101.98 125.04 101.98 125.776C101.98 126.512 102.129 127.099 102.428 127.536C102.727 127.963 103.148 128.176 103.692 128.176C104.236 128.176 104.652 127.963 104.94 127.536C105.239 127.099 105.388 126.512 105.388 125.776ZM105.66 118.56L103.02 120.784L101.932 119.808L104.204 117.216L105.66 118.56ZM112.083 128.288C112.52 128.288 112.83 128.245 113.011 128.16C113.192 128.075 113.283 127.909 113.283 127.664C113.283 127.472 113.166 127.307 112.931 127.168C112.696 127.019 112.339 126.853 111.859 126.672C111.486 126.533 111.144 126.389 110.835 126.24C110.536 126.091 110.28 125.915 110.067 125.712C109.854 125.499 109.688 125.248 109.571 124.96C109.454 124.672 109.395 124.325 109.395 123.92C109.395 123.131 109.688 122.507 110.275 122.048C110.862 121.589 111.667 121.36 112.691 121.36C113.203 121.36 113.694 121.408 114.163 121.504C114.632 121.589 115.006 121.685 115.283 121.792L114.867 123.648C114.59 123.552 114.286 123.467 113.955 123.392C113.635 123.317 113.272 123.28 112.867 123.28C112.12 123.28 111.747 123.488 111.747 123.904C111.747 124 111.763 124.085 111.795 124.16C111.827 124.235 111.891 124.309 111.987 124.384C112.083 124.448 112.211 124.523 112.371 124.608C112.542 124.683 112.755 124.768 113.011 124.864C113.534 125.056 113.966 125.248 114.307 125.44C114.648 125.621 114.915 125.824 115.107 126.048C115.31 126.261 115.448 126.501 115.523 126.768C115.608 127.035 115.651 127.344 115.651 127.696C115.651 128.528 115.336 129.157 114.707 129.584C114.088 130.011 113.208 130.224 112.067 130.224C111.32 130.224 110.696 130.16 110.195 130.032C109.704 129.904 109.363 129.797 109.171 129.712L109.571 127.776C109.976 127.936 110.392 128.064 110.819 128.16C111.246 128.245 111.667 128.288 112.083 128.288ZM117.353 119.488L119.737 119.104V121.584H122.601V123.568H119.737V126.528C119.737 127.029 119.822 127.429 119.993 127.728C120.174 128.027 120.531 128.176 121.065 128.176C121.321 128.176 121.582 128.155 121.849 128.112C122.126 128.059 122.377 127.989 122.601 127.904L122.937 129.76C122.649 129.877 122.329 129.979 121.977 130.064C121.625 130.149 121.193 130.192 120.681 130.192C120.03 130.192 119.491 130.107 119.065 129.936C118.638 129.755 118.297 129.509 118.041 129.2C117.785 128.88 117.603 128.496 117.497 128.048C117.401 127.6 117.353 127.104 117.353 126.56V119.488ZM126.926 130H124.542V121.584H126.926V130ZM127.15 119.152C127.15 119.589 127.006 119.936 126.718 120.192C126.441 120.437 126.11 120.56 125.726 120.56C125.342 120.56 125.006 120.437 124.718 120.192C124.441 119.936 124.302 119.589 124.302 119.152C124.302 118.715 124.441 118.373 124.718 118.128C125.006 117.872 125.342 117.744 125.726 117.744C126.11 117.744 126.441 117.872 126.718 118.128C127.006 118.373 127.15 118.715 127.15 119.152ZM128.767 125.792C128.767 125.184 128.863 124.613 129.055 124.08C129.258 123.536 129.546 123.067 129.919 122.672C130.292 122.267 130.746 121.947 131.279 121.712C131.812 121.477 132.42 121.36 133.103 121.36C133.551 121.36 133.962 121.403 134.335 121.488C134.708 121.563 135.071 121.675 135.423 121.824L134.927 123.728C134.703 123.643 134.458 123.568 134.191 123.504C133.924 123.44 133.626 123.408 133.295 123.408C132.591 123.408 132.063 123.627 131.711 124.064C131.37 124.501 131.199 125.077 131.199 125.792C131.199 126.549 131.359 127.136 131.679 127.552C132.01 127.968 132.58 128.176 133.391 128.176C133.679 128.176 133.988 128.149 134.319 128.096C134.65 128.043 134.954 127.957 135.231 127.84L135.567 129.792C135.29 129.909 134.943 130.011 134.527 130.096C134.111 130.181 133.652 130.224 133.151 130.224C132.383 130.224 131.722 130.112 131.167 129.888C130.612 129.653 130.154 129.339 129.791 128.944C129.439 128.549 129.178 128.085 129.007 127.552C128.847 127.008 128.767 126.421 128.767 125.792ZM144.633 125.776C144.633 126.437 144.537 127.045 144.345 127.6C144.153 128.144 143.875 128.613 143.513 129.008C143.15 129.392 142.713 129.691 142.201 129.904C141.699 130.117 141.134 130.224 140.505 130.224C139.886 130.224 139.321 130.117 138.809 129.904C138.307 129.691 137.875 129.392 137.513 129.008C137.15 128.613 136.867 128.144 136.665 127.6C136.462 127.045 136.361 126.437 136.361 125.776C136.361 125.115 136.462 124.512 136.665 123.968C136.878 123.424 137.166 122.96 137.529 122.576C137.902 122.192 138.339 121.893 138.841 121.68C139.353 121.467 139.907 121.36 140.505 121.36C141.113 121.36 141.667 121.467 142.169 121.68C142.681 121.893 143.118 122.192 143.481 122.576C143.843 122.96 144.126 123.424 144.329 123.968C144.531 124.512 144.633 125.115 144.633 125.776ZM142.201 125.776C142.201 125.04 142.051 124.464 141.753 124.048C141.465 123.621 141.049 123.408 140.505 123.408C139.961 123.408 139.539 123.621 139.241 124.048C138.942 124.464 138.793 125.04 138.793 125.776C138.793 126.512 138.942 127.099 139.241 127.536C139.539 127.963 139.961 128.176 140.505 128.176C141.049 128.176 141.465 127.963 141.753 127.536C142.051 127.099 142.201 126.512 142.201 125.776Z" fill="#2F2F2F"/>
<circle cx="100.415" cy="44.4148" r="40.4148" fill="#E5F2FF"/>
<path d="M72.0383 33.4977V35.7919C72.0383 40.6164 74.6321 45.1158 78.8071 47.5336L82.8277 49.8619H90.6262L94.6467 47.5336C98.8217 45.1158 101.416 40.6164 101.416 35.7919V33.4979C104.105 31.1451 105.635 27.7253 105.563 24.1013C105.433 17.5818 100.022 12.2365 93.4998 12.1854C93.4671 12.1852 93.435 12.1851 93.4025 12.1851C90.9985 12.1851 88.6947 12.881 86.7271 14.1781C84.7591 12.8808 82.4558 12.1851 80.0516 12.1851C80.0193 12.1851 79.9868 12.1852 79.9545 12.1854C73.4324 12.2365 68.0207 17.5818 67.8911 24.1012C67.8189 27.7251 69.3488 31.1448 72.0383 33.4977ZM79.9946 17.3415C81.8498 17.3253 83.6012 18.0298 84.931 19.3213L86.7271 21.0653L88.523 19.3211C89.8523 18.0298 91.608 17.3217 93.4594 17.3415C97.2161 17.3707 100.333 20.4492 100.408 24.2036C100.455 26.5657 99.3204 28.7774 97.3737 30.1199L96.2593 30.8885V35.7917C96.2593 38.7829 94.6514 41.5724 92.0626 43.0713L89.3052 44.6682V34.1725H84.1489V44.6682L81.3914 43.0713C78.8026 41.5722 77.1947 38.7829 77.1947 35.7917V30.8887L76.0804 30.12C74.1336 28.7772 72.9994 26.5657 73.0465 24.2036C73.1208 20.4493 76.2379 17.3707 79.9946 17.3415Z" fill="#00D5E2"/>
<path d="M144 73.3906V0H56V73.3906H88.8783V76.4844C88.8783 79.991 86.0255 82.8438 82.5189 82.8438H75.0209V88H124.979V82.8438H117.481C113.974 82.8438 111.122 79.991 111.122 76.4844V73.3906H144ZM138.844 5.15625V56.375H61.1562V5.15625H138.844ZM61.1562 68.2344V61.5312H138.844V68.2344H61.1562ZM107.887 82.8438H92.1132C93.3259 81.0202 94.0346 78.8339 94.0346 76.4844V73.3906H105.965V76.4844C105.965 78.8339 106.674 81.0202 107.887 82.8438Z" fill="#00D5E2"/>
<path d="M111.688 17.8564H132.141V23.0126H111.688V17.8564Z" fill="#00D5E2"/>
<path d="M111.688 28.4267H132.141V33.5829H111.688V28.4267Z" fill="#00D5E2"/>
<path d="M111.688 38.997H132.141V44.1532H111.688V38.997Z" fill="#00D5E2"/>
</svg>
