<svg width="200" height="160" viewBox="0 0 200 160" fill="none" xmlns="http://www.w3.org/2000/svg">
<path d="M58.4774 130C58.3601 129.616 58.2268 129.221 58.0774 128.816C57.9388 128.411 57.8001 128.005 57.6614 127.6H53.3414C53.2028 128.005 53.0588 128.411 52.9094 128.816C52.7708 129.221 52.6428 129.616 52.5254 130H49.9334C50.3494 128.805 50.7441 127.701 51.1174 126.688C51.4908 125.675 51.8534 124.72 52.2054 123.824C52.5681 122.928 52.9201 122.08 53.2614 121.28C53.6134 120.469 53.9761 119.68 54.3494 118.912H56.7334C57.0961 119.68 57.4534 120.469 57.8054 121.28C58.1574 122.08 58.5094 122.928 58.8614 123.824C59.2241 124.72 59.5921 125.675 59.9654 126.688C60.3388 127.701 60.7334 128.805 61.1494 130H58.4774ZM55.4854 121.424C55.4321 121.584 55.3521 121.803 55.2454 122.08C55.1388 122.357 55.0161 122.677 54.8774 123.04C54.7388 123.403 54.5841 123.803 54.4134 124.24C54.2534 124.677 54.0881 125.136 53.9174 125.616H57.0694C56.8988 125.136 56.7334 124.677 56.5734 124.24C56.4134 123.803 56.2588 123.403 56.1094 123.04C55.9708 122.677 55.8481 122.357 55.7414 122.08C55.6348 121.803 55.5494 121.584 55.4854 121.424ZM62.3447 119.488L64.7287 119.104V121.584H67.5927V123.568H64.7287V126.528C64.7287 127.029 64.814 127.429 64.9847 127.728C65.166 128.027 65.5234 128.176 66.0567 128.176C66.3127 128.176 66.574 128.155 66.8407 128.112C67.118 128.059 67.3687 127.989 67.5927 127.904L67.9287 129.76C67.6407 129.877 67.3207 129.979 66.9687 130.064C66.6167 130.149 66.1847 130.192 65.6727 130.192C65.022 130.192 64.4834 130.107 64.0567 129.936C63.63 129.755 63.2887 129.509 63.0327 129.2C62.7767 128.88 62.5954 128.496 62.4887 128.048C62.3927 127.6 62.3447 127.104 62.3447 126.56V119.488ZM68.8216 125.856C68.8216 125.109 68.9336 124.459 69.1576 123.904C69.3922 123.339 69.6962 122.869 70.0696 122.496C70.4429 122.123 70.8696 121.84 71.3496 121.648C71.8402 121.456 72.3416 121.36 72.8536 121.36C74.0482 121.36 74.9922 121.728 75.6856 122.464C76.3789 123.189 76.7256 124.261 76.7256 125.68C76.7256 125.819 76.7202 125.973 76.7096 126.144C76.6989 126.304 76.6882 126.448 76.6776 126.576H71.2696C71.3229 127.067 71.5522 127.456 71.9576 127.744C72.3629 128.032 72.9069 128.176 73.5896 128.176C74.0269 128.176 74.4536 128.139 74.8696 128.064C75.2962 127.979 75.6429 127.877 75.9096 127.76L76.2296 129.696C76.1016 129.76 75.9309 129.824 75.7176 129.888C75.5042 129.952 75.2642 130.005 74.9976 130.048C74.7416 130.101 74.4642 130.144 74.1656 130.176C73.8669 130.208 73.5682 130.224 73.2696 130.224C72.5122 130.224 71.8509 130.112 71.2856 129.888C70.7309 129.664 70.2669 129.36 69.8936 128.976C69.5309 128.581 69.2589 128.117 69.0776 127.584C68.9069 127.051 68.8216 126.475 68.8216 125.856ZM74.4216 124.944C74.4109 124.741 74.3736 124.544 74.3096 124.352C74.2562 124.16 74.1656 123.989 74.0376 123.84C73.9202 123.691 73.7656 123.568 73.5736 123.472C73.3922 123.376 73.1629 123.328 72.8856 123.328C72.6189 123.328 72.3896 123.376 72.1976 123.472C72.0056 123.557 71.8456 123.675 71.7176 123.824C71.5896 123.973 71.4882 124.149 71.4136 124.352C71.3496 124.544 71.3016 124.741 71.2696 124.944H74.4216ZM78.5653 121.872C78.9706 121.755 79.4933 121.648 80.1333 121.552C80.7733 121.445 81.4453 121.392 82.1493 121.392C82.864 121.392 83.456 121.488 83.9253 121.68C84.4053 121.861 84.784 122.123 85.0613 122.464C85.3386 122.805 85.536 123.211 85.6533 123.68C85.7706 124.149 85.8293 124.672 85.8293 125.248V130H83.4453V125.536C83.4453 124.768 83.344 124.224 83.1413 123.904C82.9386 123.584 82.56 123.424 82.0053 123.424C81.8346 123.424 81.6533 123.435 81.4613 123.456C81.2693 123.467 81.0986 123.483 80.9493 123.504V130H78.5653V121.872ZM90.0192 125.728C90.0192 126.464 90.1845 127.056 90.5152 127.504C90.8459 127.952 91.3365 128.176 91.9872 128.176C92.2005 128.176 92.3979 128.171 92.5792 128.16C92.7605 128.139 92.9099 128.117 93.0272 128.096V123.76C92.8779 123.664 92.6805 123.584 92.4352 123.52C92.2005 123.456 91.9605 123.424 91.7152 123.424C90.5845 123.424 90.0192 124.192 90.0192 125.728ZM95.4112 129.728C95.1979 129.792 94.9525 129.856 94.6752 129.92C94.3979 129.973 94.1045 130.021 93.7952 130.064C93.4965 130.107 93.1872 130.139 92.8672 130.16C92.5579 130.192 92.2592 130.208 91.9712 130.208C91.2779 130.208 90.6592 130.107 90.1152 129.904C89.5712 129.701 89.1125 129.413 88.7392 129.04C88.3659 128.656 88.0779 128.197 87.8752 127.664C87.6832 127.12 87.5872 126.512 87.5872 125.84C87.5872 125.157 87.6725 124.544 87.8432 124C88.0139 123.445 88.2592 122.976 88.5792 122.592C88.8992 122.208 89.2885 121.915 89.7472 121.712C90.2165 121.509 90.7499 121.408 91.3472 121.408C91.6779 121.408 91.9712 121.44 92.2272 121.504C92.4939 121.568 92.7605 121.659 93.0272 121.776V117.968L95.4112 117.584V129.728ZM100.027 130H97.6434V121.584H100.027V130ZM100.251 119.152C100.251 119.589 100.107 119.936 99.8194 120.192C99.5421 120.437 99.2114 120.56 98.8274 120.56C98.4434 120.56 98.1074 120.437 97.8194 120.192C97.5421 119.936 97.4034 119.589 97.4034 119.152C97.4034 118.715 97.5421 118.373 97.8194 118.128C98.1074 117.872 98.4434 117.744 98.8274 117.744C99.2114 117.744 99.5421 117.872 99.8194 118.128C100.107 118.373 100.251 118.715 100.251 119.152ZM106.892 125.536C106.892 124.768 106.791 124.224 106.588 123.904C106.396 123.584 106.06 123.424 105.58 123.424C105.431 123.424 105.276 123.435 105.116 123.456C104.956 123.467 104.802 123.483 104.652 123.504V130H102.268V121.872C102.471 121.819 102.706 121.765 102.972 121.712C103.25 121.648 103.538 121.595 103.836 121.552C104.146 121.499 104.46 121.461 104.78 121.44C105.1 121.408 105.415 121.392 105.724 121.392C106.332 121.392 106.823 121.472 107.196 121.632C107.58 121.781 107.895 121.963 108.14 122.176C108.482 121.931 108.871 121.739 109.308 121.6C109.756 121.461 110.167 121.392 110.54 121.392C111.212 121.392 111.762 121.488 112.188 121.68C112.626 121.861 112.972 122.123 113.228 122.464C113.484 122.805 113.66 123.211 113.756 123.68C113.852 124.149 113.9 124.672 113.9 125.248V130H111.516V125.536C111.516 124.768 111.415 124.224 111.212 123.904C111.02 123.584 110.684 123.424 110.204 123.424C110.076 123.424 109.895 123.456 109.66 123.52C109.436 123.584 109.25 123.664 109.1 123.76C109.175 124.005 109.223 124.267 109.244 124.544C109.266 124.811 109.276 125.099 109.276 125.408V130H106.892V125.536ZM115.665 125.856C115.665 125.109 115.777 124.459 116.001 123.904C116.236 123.339 116.54 122.869 116.913 122.496C117.287 122.123 117.713 121.84 118.193 121.648C118.684 121.456 119.185 121.36 119.697 121.36C120.892 121.36 121.836 121.728 122.529 122.464C123.223 123.189 123.569 124.261 123.569 125.68C123.569 125.819 123.564 125.973 123.553 126.144C123.543 126.304 123.532 126.448 123.521 126.576H118.113C118.167 127.067 118.396 127.456 118.801 127.744C119.207 128.032 119.751 128.176 120.433 128.176C120.871 128.176 121.297 128.139 121.713 128.064C122.14 127.979 122.487 127.877 122.753 127.76L123.073 129.696C122.945 129.76 122.775 129.824 122.561 129.888C122.348 129.952 122.108 130.005 121.841 130.048C121.585 130.101 121.308 130.144 121.009 130.176C120.711 130.208 120.412 130.224 120.113 130.224C119.356 130.224 118.695 130.112 118.129 129.888C117.575 129.664 117.111 129.36 116.737 128.976C116.375 128.581 116.103 128.117 115.921 127.584C115.751 127.051 115.665 126.475 115.665 125.856ZM121.265 124.944C121.255 124.741 121.217 124.544 121.153 124.352C121.1 124.16 121.009 123.989 120.881 123.84C120.764 123.691 120.609 123.568 120.417 123.472C120.236 123.376 120.007 123.328 119.729 123.328C119.463 123.328 119.233 123.376 119.041 123.472C118.849 123.557 118.689 123.675 118.561 123.824C118.433 123.973 118.332 124.149 118.257 124.352C118.193 124.544 118.145 124.741 118.113 124.944H121.265ZM125.409 121.872C125.814 121.755 126.337 121.648 126.977 121.552C127.617 121.445 128.289 121.392 128.993 121.392C129.708 121.392 130.3 121.488 130.769 121.68C131.249 121.861 131.628 122.123 131.905 122.464C132.182 122.805 132.38 123.211 132.497 123.68C132.614 124.149 132.673 124.672 132.673 125.248V130H130.289V125.536C130.289 124.768 130.188 124.224 129.985 123.904C129.782 123.584 129.404 123.424 128.849 123.424C128.678 123.424 128.497 123.435 128.305 123.456C128.113 123.467 127.942 123.483 127.793 123.504V130H125.409V121.872ZM134.751 119.488L137.135 119.104V121.584H139.999V123.568H137.135V126.528C137.135 127.029 137.22 127.429 137.391 127.728C137.572 128.027 137.93 128.176 138.463 128.176C138.719 128.176 138.98 128.155 139.247 128.112C139.524 128.059 139.775 127.989 139.999 127.904L140.335 129.76C140.047 129.877 139.727 129.979 139.375 130.064C139.023 130.149 138.591 130.192 138.079 130.192C137.428 130.192 136.89 130.107 136.463 129.936C136.036 129.755 135.695 129.509 135.439 129.2C135.183 128.88 135.002 128.496 134.895 128.048C134.799 127.6 134.751 127.104 134.751 126.56V119.488ZM149.5 125.776C149.5 126.437 149.404 127.045 149.212 127.6C149.02 128.144 148.742 128.613 148.38 129.008C148.017 129.392 147.58 129.691 147.068 129.904C146.566 130.117 146.001 130.224 145.372 130.224C144.753 130.224 144.188 130.117 143.676 129.904C143.174 129.691 142.742 129.392 142.38 129.008C142.017 128.613 141.734 128.144 141.532 127.6C141.329 127.045 141.228 126.437 141.228 125.776C141.228 125.115 141.329 124.512 141.532 123.968C141.745 123.424 142.033 122.96 142.396 122.576C142.769 122.192 143.206 121.893 143.708 121.68C144.22 121.467 144.774 121.36 145.372 121.36C145.98 121.36 146.534 121.467 147.036 121.68C147.548 121.893 147.985 122.192 148.348 122.576C148.71 122.96 148.993 123.424 149.196 123.968C149.398 124.512 149.5 125.115 149.5 125.776ZM147.068 125.776C147.068 125.04 146.918 124.464 146.62 124.048C146.332 123.621 145.916 123.408 145.372 123.408C144.828 123.408 144.406 123.621 144.108 124.048C143.809 124.464 143.66 125.04 143.66 125.776C143.66 126.512 143.809 127.099 144.108 127.536C144.406 127.963 144.828 128.176 145.372 128.176C145.916 128.176 146.332 127.963 146.62 127.536C146.918 127.099 147.068 126.512 147.068 125.776ZM62.9283 142.784C64.5816 142.784 65.851 143.077 66.7363 143.664C67.6216 144.24 68.0643 145.189 68.0643 146.512C68.0643 147.845 67.6163 148.811 66.7203 149.408C65.8243 149.995 64.5443 150.288 62.8803 150.288H62.0963V154H59.6003V143.072C60.1443 142.965 60.7203 142.891 61.3283 142.848C61.9363 142.805 62.4696 142.784 62.9283 142.784ZM63.0883 144.912C62.907 144.912 62.7256 144.917 62.5443 144.928C62.3736 144.939 62.2243 144.949 62.0963 144.96V148.16H62.8803C63.7443 148.16 64.395 148.043 64.8323 147.808C65.2696 147.573 65.4883 147.136 65.4883 146.496C65.4883 146.187 65.4296 145.931 65.3123 145.728C65.2056 145.525 65.0456 145.365 64.8323 145.248C64.6296 145.12 64.379 145.035 64.0803 144.992C63.7816 144.939 63.451 144.912 63.0883 144.912ZM74.8092 147.696C74.5959 147.643 74.3452 147.589 74.0572 147.536C73.7692 147.472 73.4599 147.44 73.1292 147.44C72.9799 147.44 72.7985 147.456 72.5852 147.488C72.3825 147.509 72.2279 147.536 72.1212 147.568V154H69.7372V146.032C70.1639 145.883 70.6652 145.744 71.2412 145.616C71.8279 145.477 72.4785 145.408 73.1932 145.408C73.3212 145.408 73.4759 145.419 73.6572 145.44C73.8385 145.451 74.0199 145.472 74.2012 145.504C74.3825 145.525 74.5639 145.557 74.7452 145.6C74.9265 145.632 75.0812 145.675 75.2092 145.728L74.8092 147.696ZM75.9309 149.856C75.9309 149.109 76.0429 148.459 76.2669 147.904C76.5016 147.339 76.8056 146.869 77.1789 146.496C77.5523 146.123 77.9789 145.84 78.4589 145.648C78.9496 145.456 79.4509 145.36 79.9629 145.36C81.1576 145.36 82.1016 145.728 82.7949 146.464C83.4883 147.189 83.8349 148.261 83.8349 149.68C83.8349 149.819 83.8296 149.973 83.8189 150.144C83.8083 150.304 83.7976 150.448 83.7869 150.576H78.3789C78.4323 151.067 78.6616 151.456 79.0669 151.744C79.4723 152.032 80.0163 152.176 80.6989 152.176C81.1363 152.176 81.5629 152.139 81.9789 152.064C82.4056 151.979 82.7523 151.877 83.0189 151.76L83.3389 153.696C83.2109 153.76 83.0403 153.824 82.8269 153.888C82.6136 153.952 82.3736 154.005 82.1069 154.048C81.8509 154.101 81.5736 154.144 81.2749 154.176C80.9763 154.208 80.6776 154.224 80.3789 154.224C79.6216 154.224 78.9603 154.112 78.3949 153.888C77.8403 153.664 77.3763 153.36 77.0029 152.976C76.6403 152.581 76.3683 152.117 76.1869 151.584C76.0163 151.051 75.9309 150.475 75.9309 149.856ZM81.5309 148.944C81.5203 148.741 81.4829 148.544 81.4189 148.352C81.3656 148.16 81.2749 147.989 81.1469 147.84C81.0296 147.691 80.8749 147.568 80.6829 147.472C80.5016 147.376 80.2723 147.328 79.9949 147.328C79.7283 147.328 79.4989 147.376 79.3069 147.472C79.1149 147.557 78.9549 147.675 78.8269 147.824C78.6989 147.973 78.5976 148.149 78.5229 148.352C78.4589 148.544 78.4109 148.741 78.3789 148.944H81.5309ZM87.9627 154C87.4187 152.933 86.864 151.685 86.2987 150.256C85.744 148.827 85.216 147.269 84.7147 145.584H87.2427C87.3494 146 87.472 146.453 87.6107 146.944C87.76 147.424 87.9094 147.915 88.0587 148.416C88.2187 148.907 88.3734 149.387 88.5227 149.856C88.6827 150.325 88.8374 150.752 88.9867 151.136C89.1254 150.752 89.2747 150.325 89.4347 149.856C89.5947 149.387 89.7494 148.907 89.8987 148.416C90.0587 147.915 90.208 147.424 90.3467 146.944C90.496 146.453 90.624 146 90.7307 145.584H93.1947C92.6934 147.269 92.16 148.827 91.5947 150.256C91.04 151.685 90.4907 152.933 89.9467 154H87.9627ZM93.8528 149.856C93.8528 149.109 93.9648 148.459 94.1888 147.904C94.4235 147.339 94.7275 146.869 95.1008 146.496C95.4741 146.123 95.9008 145.84 96.3808 145.648C96.8715 145.456 97.3728 145.36 97.8848 145.36C99.0795 145.36 100.023 145.728 100.717 146.464C101.41 147.189 101.757 148.261 101.757 149.68C101.757 149.819 101.751 149.973 101.741 150.144C101.73 150.304 101.719 150.448 101.709 150.576H96.3008C96.3541 151.067 96.5835 151.456 96.9888 151.744C97.3941 152.032 97.9381 152.176 98.6208 152.176C99.0581 152.176 99.4848 152.139 99.9008 152.064C100.327 151.979 100.674 151.877 100.941 151.76L101.261 153.696C101.133 153.76 100.962 153.824 100.749 153.888C100.535 153.952 100.295 154.005 100.029 154.048C99.7728 154.101 99.4955 154.144 99.1968 154.176C98.8981 154.208 98.5995 154.224 98.3008 154.224C97.5435 154.224 96.8821 154.112 96.3168 153.888C95.7621 153.664 95.2981 153.36 94.9248 152.976C94.5621 152.581 94.2901 152.117 94.1088 151.584C93.9381 151.051 93.8528 150.475 93.8528 149.856ZM99.4528 148.944C99.4421 148.741 99.4048 148.544 99.3408 148.352C99.2875 148.16 99.1968 147.989 99.0688 147.84C98.9515 147.691 98.7968 147.568 98.6048 147.472C98.4235 147.376 98.1941 147.328 97.9168 147.328C97.6501 147.328 97.4208 147.376 97.2288 147.472C97.0368 147.557 96.8768 147.675 96.7488 147.824C96.6208 147.973 96.5195 148.149 96.4448 148.352C96.3808 148.544 96.3328 148.741 96.3008 148.944H99.4528ZM103.597 145.872C104.002 145.755 104.525 145.648 105.165 145.552C105.805 145.445 106.477 145.392 107.181 145.392C107.895 145.392 108.487 145.488 108.957 145.68C109.437 145.861 109.815 146.123 110.093 146.464C110.37 146.805 110.567 147.211 110.685 147.68C110.802 148.149 110.861 148.672 110.861 149.248V154H108.477V149.536C108.477 148.768 108.375 148.224 108.173 147.904C107.97 147.584 107.591 147.424 107.037 147.424C106.866 147.424 106.685 147.435 106.493 147.456C106.301 147.467 106.13 147.483 105.981 147.504V154H103.597V145.872ZM112.938 143.488L115.322 143.104V145.584H118.186V147.568H115.322V150.528C115.322 151.029 115.408 151.429 115.578 151.728C115.76 152.027 116.117 152.176 116.65 152.176C116.906 152.176 117.168 152.155 117.434 152.112C117.712 152.059 117.962 151.989 118.186 151.904L118.522 153.76C118.234 153.877 117.914 153.979 117.562 154.064C117.21 154.149 116.778 154.192 116.266 154.192C115.616 154.192 115.077 154.107 114.65 153.936C114.224 153.755 113.882 153.509 113.626 153.2C113.37 152.88 113.189 152.496 113.082 152.048C112.986 151.6 112.938 151.104 112.938 150.56V143.488ZM122.512 154H120.128V145.584H122.512V154ZM122.736 143.152C122.736 143.589 122.592 143.936 122.304 144.192C122.026 144.437 121.696 144.56 121.312 144.56C120.928 144.56 120.592 144.437 120.304 144.192C120.026 143.936 119.888 143.589 119.888 143.152C119.888 142.715 120.026 142.373 120.304 142.128C120.592 141.872 120.928 141.744 121.312 141.744C121.696 141.744 122.026 141.872 122.304 142.128C122.592 142.373 122.736 142.715 122.736 143.152ZM126.791 154C126.247 152.933 125.692 151.685 125.127 150.256C124.572 148.827 124.044 147.269 123.543 145.584H126.071C126.177 146 126.3 146.453 126.439 146.944C126.588 147.424 126.737 147.915 126.887 148.416C127.047 148.907 127.201 149.387 127.351 149.856C127.511 150.325 127.665 150.752 127.815 151.136C127.953 150.752 128.103 150.325 128.263 149.856C128.423 149.387 128.577 148.907 128.727 148.416C128.887 147.915 129.036 147.424 129.175 146.944C129.324 146.453 129.452 146 129.559 145.584H132.023C131.521 147.269 130.988 148.827 130.423 150.256C129.868 151.685 129.319 152.933 128.775 154H126.791ZM140.953 149.776C140.953 150.437 140.857 151.045 140.665 151.6C140.473 152.144 140.196 152.613 139.833 153.008C139.47 153.392 139.033 153.691 138.521 153.904C138.02 154.117 137.454 154.224 136.825 154.224C136.206 154.224 135.641 154.117 135.129 153.904C134.628 153.691 134.196 153.392 133.833 153.008C133.47 152.613 133.188 152.144 132.985 151.6C132.782 151.045 132.681 150.437 132.681 149.776C132.681 149.115 132.782 148.512 132.985 147.968C133.198 147.424 133.486 146.96 133.849 146.576C134.222 146.192 134.66 145.893 135.161 145.68C135.673 145.467 136.228 145.36 136.825 145.36C137.433 145.36 137.988 145.467 138.489 145.68C139.001 145.893 139.438 146.192 139.801 146.576C140.164 146.96 140.446 147.424 140.649 147.968C140.852 148.512 140.953 149.115 140.953 149.776ZM138.521 149.776C138.521 149.04 138.372 148.464 138.073 148.048C137.785 147.621 137.369 147.408 136.825 147.408C136.281 147.408 135.86 147.621 135.561 148.048C135.262 148.464 135.113 149.04 135.113 149.776C135.113 150.512 135.262 151.099 135.561 151.536C135.86 151.963 136.281 152.176 136.825 152.176C137.369 152.176 137.785 151.963 138.073 151.536C138.372 151.099 138.521 150.512 138.521 149.776Z" fill="#2F2F2F"/>
<circle cx="100.5" cy="44.5" r="40.5" fill="#E5F2FF"/>
<path d="M136.069 51.151L126.388 46.7503V0H109.908L103.268 6.64073C97.8083 2.32169 90.0459 1.90884 84.1349 5.8257L82.9808 6.59038L82.9806 13.039L100.469 31.0723H107.462L108.227 29.9181C112.276 23.8069 111.698 15.7173 106.961 10.2393L112.044 5.15625H121.231V45.25H91.3294L76.696 32.8678C73.9465 30.5413 70.4559 29.4248 66.8663 29.7239C63.277 30.023 60.0191 31.702 57.6926 34.4515L56.0273 36.4196L83.5 59.6657L88.2764 72.0844C81.9965 73.2748 77.2314 78.8007 77.2314 85.4219V88H133.721V85.4219C133.721 77.935 127.63 71.8438 120.143 71.8438H119.375L115.324 61.3121H119.608L141.698 71.3532L142.765 69.0061C145.842 62.2375 142.838 54.2276 136.069 51.151ZM104.598 25.9162H102.651L88.1372 10.9495L88.1374 9.45536C92.3758 7.32978 97.6118 8.11714 101.029 11.5349L102.519 13.0238C105.936 16.4414 106.723 21.6774 104.598 25.9162ZM138.766 64.3565L120.725 56.1559H87.3347L63.6033 36.0755C64.7063 35.3915 65.9638 34.9733 67.2948 34.8624C69.5113 34.678 71.6675 35.3674 73.3656 36.8041L89.4409 50.4063H121.97L133.936 55.8453C137.297 57.3731 139.155 60.8711 138.766 64.3565ZM82.7912 82.8438C83.8826 79.457 87.0645 77 90.8095 77H120.143C123.888 77 127.07 79.457 128.161 82.8438H82.7912ZM93.7084 71.8438L89.6576 61.3121H109.8L113.851 71.8438H93.7084Z" fill="#00D5E2"/>
<mask id="mask0" mask-type="alpha" maskUnits="userSpaceOnUse" x="60" y="4" width="81" height="81">
<circle cx="100.5" cy="44.5" r="40.5" fill="#E5F2FF"/>
</mask>
<g mask="url(#mask0)">
</g>
</svg>
