<svg width="200" height="136" viewBox="0 0 200 136" fill="none" xmlns="http://www.w3.org/2000/svg">
<path d="M70.7955 118.784C72.4488 118.784 73.7182 119.077 74.6035 119.664C75.4888 120.24 75.9315 121.189 75.9315 122.512C75.9315 123.845 75.4835 124.811 74.5875 125.408C73.6915 125.995 72.4115 126.288 70.7475 126.288H69.9635V130H67.4675V119.072C68.0115 118.965 68.5875 118.891 69.1955 118.848C69.8035 118.805 70.3368 118.784 70.7955 118.784ZM70.9555 120.912C70.7742 120.912 70.5928 120.917 70.4115 120.928C70.2408 120.939 70.0915 120.949 69.9635 120.96V124.16H70.7475C71.6115 124.16 72.2622 124.043 72.6995 123.808C73.1368 123.573 73.3555 123.136 73.3555 122.496C73.3555 122.187 73.2968 121.931 73.1795 121.728C73.0728 121.525 72.9128 121.365 72.6995 121.248C72.4968 121.12 72.2462 121.035 71.9475 120.992C71.6488 120.939 71.3182 120.912 70.9555 120.912ZM82.6764 123.696C82.463 123.643 82.2124 123.589 81.9244 123.536C81.6364 123.472 81.327 123.44 80.9964 123.44C80.847 123.44 80.6657 123.456 80.4524 123.488C80.2497 123.509 80.095 123.536 79.9884 123.568V130H77.6044V122.032C78.031 121.883 78.5324 121.744 79.1084 121.616C79.695 121.477 80.3457 121.408 81.0604 121.408C81.1884 121.408 81.343 121.419 81.5244 121.44C81.7057 121.451 81.887 121.472 82.0684 121.504C82.2497 121.525 82.431 121.557 82.6124 121.6C82.7937 121.632 82.9484 121.675 83.0764 121.728L82.6764 123.696ZM92.0701 125.776C92.0701 126.437 91.9741 127.045 91.7821 127.6C91.5901 128.144 91.3128 128.613 90.9501 129.008C90.5875 129.392 90.1501 129.691 89.6381 129.904C89.1368 130.117 88.5715 130.224 87.9421 130.224C87.3235 130.224 86.7581 130.117 86.2461 129.904C85.7448 129.691 85.3128 129.392 84.9501 129.008C84.5875 128.613 84.3048 128.144 84.1021 127.6C83.8995 127.045 83.7981 126.437 83.7981 125.776C83.7981 125.115 83.8995 124.512 84.1021 123.968C84.3155 123.424 84.6035 122.96 84.9661 122.576C85.3395 122.192 85.7768 121.893 86.2781 121.68C86.7901 121.467 87.3448 121.36 87.9421 121.36C88.5501 121.36 89.1048 121.467 89.6061 121.68C90.1181 121.893 90.5555 122.192 90.9181 122.576C91.2808 122.96 91.5635 123.424 91.7661 123.968C91.9688 124.512 92.0701 125.115 92.0701 125.776ZM89.6381 125.776C89.6381 125.04 89.4888 124.464 89.1901 124.048C88.9021 123.621 88.4861 123.408 87.9421 123.408C87.3981 123.408 86.9768 123.621 86.6781 124.048C86.3795 124.464 86.2301 125.04 86.2301 125.776C86.2301 126.512 86.3795 127.099 86.6781 127.536C86.9768 127.963 87.3981 128.176 87.9421 128.176C88.4861 128.176 88.9021 127.963 89.1901 127.536C89.4888 127.099 89.6381 126.512 89.6381 125.776ZM89.9101 118.56L87.2701 120.784L86.1821 119.808L88.4541 117.216L89.9101 118.56ZM93.8369 119.488L96.2209 119.104V121.584H99.0849V123.568H96.2209V126.528C96.2209 127.029 96.3062 127.429 96.4769 127.728C96.6582 128.027 97.0155 128.176 97.5489 128.176C97.8049 128.176 98.0662 128.155 98.3329 128.112C98.6102 128.059 98.8609 127.989 99.0849 127.904L99.4209 129.76C99.1329 129.877 98.8129 129.979 98.4609 130.064C98.1089 130.149 97.6769 130.192 97.1649 130.192C96.5142 130.192 95.9755 130.107 95.5489 129.936C95.1222 129.755 94.7809 129.509 94.5249 129.2C94.2689 128.88 94.0875 128.496 93.9809 128.048C93.8849 127.6 93.8369 127.104 93.8369 126.56V119.488ZM100.314 125.856C100.314 125.109 100.426 124.459 100.65 123.904C100.884 123.339 101.188 122.869 101.562 122.496C101.935 122.123 102.362 121.84 102.842 121.648C103.332 121.456 103.834 121.36 104.346 121.36C105.54 121.36 106.484 121.728 107.178 122.464C107.871 123.189 108.218 124.261 108.218 125.68C108.218 125.819 108.212 125.973 108.202 126.144C108.191 126.304 108.18 126.448 108.17 126.576H102.762C102.815 127.067 103.044 127.456 103.45 127.744C103.855 128.032 104.399 128.176 105.082 128.176C105.519 128.176 105.946 128.139 106.362 128.064C106.788 127.979 107.135 127.877 107.402 127.76L107.722 129.696C107.594 129.76 107.423 129.824 107.21 129.888C106.996 129.952 106.756 130.005 106.49 130.048C106.234 130.101 105.956 130.144 105.658 130.176C105.359 130.208 105.06 130.224 104.762 130.224C104.004 130.224 103.343 130.112 102.778 129.888C102.223 129.664 101.759 129.36 101.386 128.976C101.023 128.581 100.751 128.117 100.57 127.584C100.399 127.051 100.314 126.475 100.314 125.856ZM105.914 124.944C105.903 124.741 105.866 124.544 105.802 124.352C105.748 124.16 105.658 123.989 105.53 123.84C105.412 123.691 105.258 123.568 105.066 123.472C104.884 123.376 104.655 123.328 104.378 123.328C104.111 123.328 103.882 123.376 103.69 123.472C103.498 123.557 103.338 123.675 103.21 123.824C103.082 123.973 102.98 124.149 102.906 124.352C102.842 124.544 102.794 124.741 102.762 124.944H105.914ZM112.474 128.288C112.911 128.288 113.22 128.245 113.402 128.16C113.583 128.075 113.674 127.909 113.674 127.664C113.674 127.472 113.556 127.307 113.322 127.168C113.087 127.019 112.73 126.853 112.25 126.672C111.876 126.533 111.535 126.389 111.226 126.24C110.927 126.091 110.671 125.915 110.458 125.712C110.244 125.499 110.079 125.248 109.962 124.96C109.844 124.672 109.786 124.325 109.786 123.92C109.786 123.131 110.079 122.507 110.666 122.048C111.252 121.589 112.058 121.36 113.082 121.36C113.594 121.36 114.084 121.408 114.554 121.504C115.023 121.589 115.396 121.685 115.674 121.792L115.258 123.648C114.98 123.552 114.676 123.467 114.346 123.392C114.026 123.317 113.663 123.28 113.258 123.28C112.511 123.28 112.138 123.488 112.138 123.904C112.138 124 112.154 124.085 112.186 124.16C112.218 124.235 112.282 124.309 112.378 124.384C112.474 124.448 112.602 124.523 112.762 124.608C112.932 124.683 113.146 124.768 113.402 124.864C113.924 125.056 114.356 125.248 114.698 125.44C115.039 125.621 115.306 125.824 115.498 126.048C115.7 126.261 115.839 126.501 115.914 126.768C115.999 127.035 116.042 127.344 116.042 127.696C116.042 128.528 115.727 129.157 115.098 129.584C114.479 130.011 113.599 130.224 112.458 130.224C111.711 130.224 111.087 130.16 110.586 130.032C110.095 129.904 109.754 129.797 109.562 129.712L109.962 127.776C110.367 127.936 110.783 128.064 111.21 128.16C111.636 128.245 112.058 128.288 112.474 128.288ZM117.423 125.856C117.423 125.109 117.535 124.459 117.759 123.904C117.994 123.339 118.298 122.869 118.671 122.496C119.044 122.123 119.471 121.84 119.951 121.648C120.442 121.456 120.943 121.36 121.455 121.36C122.65 121.36 123.594 121.728 124.287 122.464C124.98 123.189 125.327 124.261 125.327 125.68C125.327 125.819 125.322 125.973 125.311 126.144C125.3 126.304 125.29 126.448 125.279 126.576H119.871C119.924 127.067 120.154 127.456 120.559 127.744C120.964 128.032 121.508 128.176 122.191 128.176C122.628 128.176 123.055 128.139 123.471 128.064C123.898 127.979 124.244 127.877 124.511 127.76L124.831 129.696C124.703 129.76 124.532 129.824 124.319 129.888C124.106 129.952 123.866 130.005 123.599 130.048C123.343 130.101 123.066 130.144 122.767 130.176C122.468 130.208 122.17 130.224 121.871 130.224C121.114 130.224 120.452 130.112 119.887 129.888C119.332 129.664 118.868 129.36 118.495 128.976C118.132 128.581 117.86 128.117 117.679 127.584C117.508 127.051 117.423 126.475 117.423 125.856ZM123.023 124.944C123.012 124.741 122.975 124.544 122.911 124.352C122.858 124.16 122.767 123.989 122.639 123.84C122.522 123.691 122.367 123.568 122.175 123.472C121.994 123.376 121.764 123.328 121.487 123.328C121.22 123.328 120.991 123.376 120.799 123.472C120.607 123.557 120.447 123.675 120.319 123.824C120.191 123.973 120.09 124.149 120.015 124.352C119.951 124.544 119.903 124.741 119.871 124.944H123.023ZM129.583 128.288C130.02 128.288 130.33 128.245 130.511 128.16C130.692 128.075 130.783 127.909 130.783 127.664C130.783 127.472 130.666 127.307 130.431 127.168C130.196 127.019 129.839 126.853 129.359 126.672C128.986 126.533 128.644 126.389 128.335 126.24C128.036 126.091 127.78 125.915 127.567 125.712C127.354 125.499 127.188 125.248 127.071 124.96C126.954 124.672 126.895 124.325 126.895 123.92C126.895 123.131 127.188 122.507 127.775 122.048C128.362 121.589 129.167 121.36 130.191 121.36C130.703 121.36 131.194 121.408 131.663 121.504C132.132 121.589 132.506 121.685 132.783 121.792L132.367 123.648C132.09 123.552 131.786 123.467 131.455 123.392C131.135 123.317 130.772 123.28 130.367 123.28C129.62 123.28 129.247 123.488 129.247 123.904C129.247 124 129.263 124.085 129.295 124.16C129.327 124.235 129.391 124.309 129.487 124.384C129.583 124.448 129.711 124.523 129.871 124.608C130.042 124.683 130.255 124.768 130.511 124.864C131.034 125.056 131.466 125.248 131.807 125.44C132.148 125.621 132.415 125.824 132.607 126.048C132.81 126.261 132.948 126.501 133.023 126.768C133.108 127.035 133.151 127.344 133.151 127.696C133.151 128.528 132.836 129.157 132.207 129.584C131.588 130.011 130.708 130.224 129.567 130.224C128.82 130.224 128.196 130.16 127.695 130.032C127.204 129.904 126.863 129.797 126.671 129.712L127.071 127.776C127.476 127.936 127.892 128.064 128.319 128.16C128.746 128.245 129.167 128.288 129.583 128.288Z" fill="#2F2F2F"/>
<g clip-path="url(#clip0)">
<circle cx="100.415" cy="44.4148" r="40.4148" fill="#E5F2FF"/>
<path d="M129.384 5.97015C125.352 2.01479 120.045 -0.106147 114.429 0.00402532C109.35 0.101994 104.498 2.0569 100.769 5.50849C100.33 5.91412 99.6686 5.91429 99.23 5.50849C95.5001 2.05673 90.6489 0.101994 85.57 0.00402532C79.9537 -0.107006 74.6472 2.01462 70.6147 5.96998C66.6375 9.87103 64.4473 15.0493 64.4473 20.551C64.4473 29.9878 70.583 40.4099 70.8441 40.8491L71.5959 42.1127H77.5527L79.6467 48.0888H74.7457V53.2602H81.4584L83.2703 58.4316H79.1414V63.6029H85.0822L86.8941 68.7743H83.2786V73.9457H88.706L91.5815 82.1527C92.8281 85.7107 96.0755 87.9999 99.8667 87.9999C99.8875 87.9999 99.9092 87.9999 99.9302 87.9997C103.748 87.9741 106.993 85.6358 108.197 82.0424L110.912 73.9457H116.72V68.7743H112.646L114.38 63.6029H120.857V58.4316H116.114L117.848 53.2602H125.252V48.0888H119.583L121.587 42.1125H128.306L129.076 40.9859C129.341 40.599 135.551 31.387 135.551 20.5506C135.551 15.0494 133.361 9.87137 129.384 5.97015ZM103.294 80.3984C102.698 82.1773 101.148 82.8201 99.8953 82.8285C98.6401 82.8448 97.0827 82.2146 96.4619 80.4429L94.1854 73.9458H105.458L103.294 80.3984ZM107.192 68.7745H92.3737L90.5618 63.6031H108.926L107.192 68.7745ZM110.66 58.4317H88.75L86.9381 53.2604H112.394L110.66 58.4317ZM114.128 48.0891H85.1264L83.0325 42.1129H116.132L114.128 48.0891ZM125.499 36.9413H74.5906C74.043 35.9065 73.2416 34.2998 72.4384 32.3619C70.5939 27.9105 69.6188 23.8264 69.6188 20.551C69.6188 16.4495 71.2587 12.5825 74.2361 9.66185C77.269 6.68704 81.2589 5.09359 85.4705 5.17437C89.2803 5.24776 92.9194 6.71454 95.7179 9.30418C98.1188 11.5257 101.88 11.526 104.281 9.30418C107.079 6.71454 110.719 5.24793 114.529 5.17437C118.739 5.09187 122.73 6.68687 125.763 9.66185C128.74 12.5825 130.38 16.4494 130.38 20.5506C130.38 27.7603 126.993 34.3754 125.499 36.9413Z" fill="#00D5E2"/>
</g>
<defs>
<clipPath id="clip0">
<rect width="88" height="88" fill="white" transform="translate(56)"/>
</clipPath>
</defs>
</svg>
