<svg width="200" height="160" viewBox="0 0 200 160" fill="none" xmlns="http://www.w3.org/2000/svg">
<path d="M45.9853 119.488L48.3693 119.104V121.584H51.2333V123.568H48.3693V126.528C48.3693 127.029 48.4546 127.429 48.6253 127.728C48.8066 128.027 49.164 128.176 49.6973 128.176C49.9533 128.176 50.2146 128.155 50.4813 128.112C50.7586 128.059 51.0093 127.989 51.2333 127.904L51.5693 129.76C51.2813 129.877 50.9613 129.979 50.6093 130.064C50.2573 130.149 49.8253 130.192 49.3133 130.192C48.6626 130.192 48.124 130.107 47.6973 129.936C47.2706 129.755 46.9293 129.509 46.6733 129.2C46.4173 128.88 46.236 128.496 46.1293 128.048C46.0333 127.6 45.9853 127.104 45.9853 126.56V119.488ZM58.2467 123.696C58.0334 123.643 57.7827 123.589 57.4947 123.536C57.2067 123.472 56.8974 123.44 56.5667 123.44C56.4174 123.44 56.236 123.456 56.0227 123.488C55.82 123.509 55.6654 123.536 55.5587 123.568V130H53.1747V122.032C53.6014 121.883 54.1027 121.744 54.6787 121.616C55.2654 121.477 55.916 121.408 56.6307 121.408C56.7587 121.408 56.9134 121.419 57.0947 121.44C57.276 121.451 57.4574 121.472 57.6387 121.504C57.82 121.525 58.0014 121.557 58.1827 121.6C58.364 121.632 58.5187 121.675 58.6467 121.728L58.2467 123.696ZM62.9844 128.336C63.2191 128.336 63.4431 128.331 63.6564 128.32C63.8698 128.309 64.0404 128.293 64.1684 128.272V126.464C64.0724 126.443 63.9284 126.421 63.7364 126.4C63.5444 126.379 63.3684 126.368 63.2084 126.368C62.9844 126.368 62.7711 126.384 62.5684 126.416C62.3764 126.437 62.2058 126.485 62.0564 126.56C61.9071 126.635 61.7898 126.736 61.7044 126.864C61.6191 126.992 61.5764 127.152 61.5764 127.344C61.5764 127.717 61.6991 127.979 61.9444 128.128C62.2004 128.267 62.5471 128.336 62.9844 128.336ZM62.7924 121.36C63.4964 121.36 64.0831 121.44 64.5524 121.6C65.0218 121.76 65.3951 121.989 65.6724 122.288C65.9604 122.587 66.1631 122.949 66.2804 123.376C66.3978 123.803 66.4564 124.277 66.4564 124.8V129.76C66.1151 129.835 65.6404 129.92 65.0324 130.016C64.4244 130.123 63.6884 130.176 62.8244 130.176C62.2804 130.176 61.7844 130.128 61.3364 130.032C60.8991 129.936 60.5204 129.781 60.2004 129.568C59.8804 129.344 59.6351 129.056 59.4644 128.704C59.2938 128.352 59.2084 127.92 59.2084 127.408C59.2084 126.917 59.3044 126.501 59.4964 126.16C59.6991 125.819 59.9658 125.547 60.2964 125.344C60.6271 125.141 61.0058 124.997 61.4324 124.912C61.8591 124.816 62.3018 124.768 62.7604 124.768C63.0698 124.768 63.3418 124.784 63.5764 124.816C63.8218 124.837 64.0191 124.869 64.1684 124.912V124.688C64.1684 124.283 64.0458 123.957 63.8004 123.712C63.5551 123.467 63.1284 123.344 62.5204 123.344C62.1151 123.344 61.7151 123.376 61.3204 123.44C60.9258 123.493 60.5844 123.573 60.2964 123.68L59.9924 121.76C60.1311 121.717 60.3018 121.675 60.5044 121.632C60.7178 121.579 60.9471 121.536 61.1924 121.504C61.4378 121.461 61.6938 121.429 61.9604 121.408C62.2378 121.376 62.5151 121.36 62.7924 121.36ZM68.5322 119.488L70.9162 119.104V121.584H73.7802V123.568H70.9162V126.528C70.9162 127.029 71.0015 127.429 71.1722 127.728C71.3535 128.027 71.7109 128.176 72.2442 128.176C72.5002 128.176 72.7615 128.155 73.0282 128.112C73.3055 128.059 73.5562 127.989 73.7802 127.904L74.1162 129.76C73.8282 129.877 73.5082 129.979 73.1562 130.064C72.8042 130.149 72.3722 130.192 71.8602 130.192C71.2095 130.192 70.6709 130.107 70.2442 129.936C69.8175 129.755 69.4762 129.509 69.2202 129.2C68.9642 128.88 68.7829 128.496 68.6762 128.048C68.5802 127.6 68.5322 127.104 68.5322 126.56V119.488ZM78.6251 128.336C78.8597 128.336 79.0837 128.331 79.2971 128.32C79.5104 128.309 79.6811 128.293 79.8091 128.272V126.464C79.7131 126.443 79.5691 126.421 79.3771 126.4C79.1851 126.379 79.0091 126.368 78.8491 126.368C78.6251 126.368 78.4117 126.384 78.2091 126.416C78.0171 126.437 77.8464 126.485 77.6971 126.56C77.5477 126.635 77.4304 126.736 77.3451 126.864C77.2597 126.992 77.2171 127.152 77.2171 127.344C77.2171 127.717 77.3397 127.979 77.5851 128.128C77.8411 128.267 78.1877 128.336 78.6251 128.336ZM78.4331 121.36C79.1371 121.36 79.7237 121.44 80.1931 121.6C80.6624 121.76 81.0357 121.989 81.3131 122.288C81.6011 122.587 81.8037 122.949 81.9211 123.376C82.0384 123.803 82.0971 124.277 82.0971 124.8V129.76C81.7557 129.835 81.2811 129.92 80.6731 130.016C80.0651 130.123 79.3291 130.176 78.4651 130.176C77.9211 130.176 77.4251 130.128 76.9771 130.032C76.5397 129.936 76.1611 129.781 75.8411 129.568C75.5211 129.344 75.2757 129.056 75.1051 128.704C74.9344 128.352 74.8491 127.92 74.8491 127.408C74.8491 126.917 74.9451 126.501 75.1371 126.16C75.3397 125.819 75.6064 125.547 75.9371 125.344C76.2677 125.141 76.6464 124.997 77.0731 124.912C77.4997 124.816 77.9424 124.768 78.4011 124.768C78.7104 124.768 78.9824 124.784 79.2171 124.816C79.4624 124.837 79.6597 124.869 79.8091 124.912V124.688C79.8091 124.283 79.6864 123.957 79.4411 123.712C79.1957 123.467 78.7691 123.344 78.1611 123.344C77.7557 123.344 77.3557 123.376 76.9611 123.44C76.5664 123.493 76.2251 123.573 75.9371 123.68L75.6331 121.76C75.7717 121.717 75.9424 121.675 76.1451 121.632C76.3584 121.579 76.5877 121.536 76.8331 121.504C77.0784 121.461 77.3344 121.429 77.6011 121.408C77.8784 121.376 78.1557 121.36 78.4331 121.36ZM88.8768 125.536C88.8768 124.768 88.7755 124.224 88.5728 123.904C88.3808 123.584 88.0448 123.424 87.5648 123.424C87.4155 123.424 87.2608 123.435 87.1008 123.456C86.9408 123.467 86.7861 123.483 86.6368 123.504V130H84.2528V121.872C84.4555 121.819 84.6901 121.765 84.9568 121.712C85.2341 121.648 85.5221 121.595 85.8208 121.552C86.1301 121.499 86.4448 121.461 86.7648 121.44C87.0848 121.408 87.3995 121.392 87.7088 121.392C88.3168 121.392 88.8075 121.472 89.1808 121.632C89.5648 121.781 89.8795 121.963 90.1248 122.176C90.4661 121.931 90.8555 121.739 91.2928 121.6C91.7408 121.461 92.1515 121.392 92.5248 121.392C93.1968 121.392 93.7461 121.488 94.1728 121.68C94.6101 121.861 94.9568 122.123 95.2128 122.464C95.4688 122.805 95.6448 123.211 95.7408 123.68C95.8368 124.149 95.8848 124.672 95.8848 125.248V130H93.5008V125.536C93.5008 124.768 93.3995 124.224 93.1968 123.904C93.0048 123.584 92.6688 123.424 92.1888 123.424C92.0608 123.424 91.8795 123.456 91.6448 123.52C91.4208 123.584 91.2341 123.664 91.0848 123.76C91.1595 124.005 91.2075 124.267 91.2288 124.544C91.2501 124.811 91.2608 125.099 91.2608 125.408V130H88.8768V125.536ZM97.6497 125.856C97.6497 125.109 97.7617 124.459 97.9857 123.904C98.2204 123.339 98.5244 122.869 98.8977 122.496C99.271 122.123 99.6977 121.84 100.178 121.648C100.668 121.456 101.17 121.36 101.682 121.36C102.876 121.36 103.82 121.728 104.514 122.464C105.207 123.189 105.554 124.261 105.554 125.68C105.554 125.819 105.548 125.973 105.538 126.144C105.527 126.304 105.516 126.448 105.506 126.576H100.098C100.151 127.067 100.38 127.456 100.786 127.744C101.191 128.032 101.735 128.176 102.418 128.176C102.855 128.176 103.282 128.139 103.698 128.064C104.124 127.979 104.471 127.877 104.738 127.76L105.058 129.696C104.93 129.76 104.759 129.824 104.546 129.888C104.332 129.952 104.092 130.005 103.826 130.048C103.57 130.101 103.292 130.144 102.994 130.176C102.695 130.208 102.396 130.224 102.098 130.224C101.34 130.224 100.679 130.112 100.114 129.888C99.559 129.664 99.095 129.36 98.7217 128.976C98.359 128.581 98.087 128.117 97.9057 127.584C97.735 127.051 97.6497 126.475 97.6497 125.856ZM103.25 124.944C103.239 124.741 103.202 124.544 103.138 124.352C103.084 124.16 102.994 123.989 102.866 123.84C102.748 123.691 102.594 123.568 102.402 123.472C102.22 123.376 101.991 123.328 101.714 123.328C101.447 123.328 101.218 123.376 101.026 123.472C100.834 123.557 100.674 123.675 100.546 123.824C100.418 123.973 100.316 124.149 100.242 124.352C100.178 124.544 100.13 124.741 100.098 124.944H103.25ZM107.393 121.872C107.799 121.755 108.321 121.648 108.961 121.552C109.601 121.445 110.273 121.392 110.977 121.392C111.692 121.392 112.284 121.488 112.753 121.68C113.233 121.861 113.612 122.123 113.889 122.464C114.167 122.805 114.364 123.211 114.481 123.68C114.599 124.149 114.657 124.672 114.657 125.248V130H112.273V125.536C112.273 124.768 112.172 124.224 111.969 123.904C111.767 123.584 111.388 123.424 110.833 123.424C110.663 123.424 110.481 123.435 110.289 123.456C110.097 123.467 109.927 123.483 109.777 123.504V130H107.393V121.872ZM116.735 119.488L119.119 119.104V121.584H121.983V123.568H119.119V126.528C119.119 127.029 119.205 127.429 119.375 127.728C119.557 128.027 119.914 128.176 120.447 128.176C120.703 128.176 120.965 128.155 121.231 128.112C121.509 128.059 121.759 127.989 121.983 127.904L122.319 129.76C122.031 129.877 121.711 129.979 121.359 130.064C121.007 130.149 120.575 130.192 120.063 130.192C119.413 130.192 118.874 130.107 118.447 129.936C118.021 129.755 117.679 129.509 117.423 129.2C117.167 128.88 116.986 128.496 116.879 128.048C116.783 127.6 116.735 127.104 116.735 126.56V119.488ZM131.484 125.776C131.484 126.437 131.388 127.045 131.196 127.6C131.004 128.144 130.727 128.613 130.364 129.008C130.002 129.392 129.564 129.691 129.052 129.904C128.551 130.117 127.986 130.224 127.356 130.224C126.738 130.224 126.172 130.117 125.66 129.904C125.159 129.691 124.727 129.392 124.364 129.008C124.002 128.613 123.719 128.144 123.516 127.6C123.314 127.045 123.212 126.437 123.212 125.776C123.212 125.115 123.314 124.512 123.516 123.968C123.73 123.424 124.018 122.96 124.38 122.576C124.754 122.192 125.191 121.893 125.692 121.68C126.204 121.467 126.759 121.36 127.356 121.36C127.964 121.36 128.519 121.467 129.02 121.68C129.532 121.893 129.97 122.192 130.332 122.576C130.695 122.96 130.978 123.424 131.18 123.968C131.383 124.512 131.484 125.115 131.484 125.776ZM129.052 125.776C129.052 125.04 128.903 124.464 128.604 124.048C128.316 123.621 127.9 123.408 127.356 123.408C126.812 123.408 126.391 123.621 126.092 124.048C125.794 124.464 125.644 125.04 125.644 125.776C125.644 126.512 125.794 127.099 126.092 127.536C126.391 127.963 126.812 128.176 127.356 128.176C127.9 128.176 128.316 127.963 128.604 127.536C128.903 127.099 129.052 126.512 129.052 125.776ZM139.207 125.728C139.207 126.464 139.372 127.056 139.703 127.504C140.033 127.952 140.524 128.176 141.175 128.176C141.388 128.176 141.585 128.171 141.767 128.16C141.948 128.139 142.097 128.117 142.215 128.096V123.76C142.065 123.664 141.868 123.584 141.623 123.52C141.388 123.456 141.148 123.424 140.903 123.424C139.772 123.424 139.207 124.192 139.207 125.728ZM144.599 129.728C144.385 129.792 144.14 129.856 143.863 129.92C143.585 129.973 143.292 130.021 142.983 130.064C142.684 130.107 142.375 130.139 142.055 130.16C141.745 130.192 141.447 130.208 141.159 130.208C140.465 130.208 139.847 130.107 139.303 129.904C138.759 129.701 138.3 129.413 137.927 129.04C137.553 128.656 137.265 128.197 137.063 127.664C136.871 127.12 136.775 126.512 136.775 125.84C136.775 125.157 136.86 124.544 137.031 124C137.201 123.445 137.447 122.976 137.767 122.592C138.087 122.208 138.476 121.915 138.935 121.712C139.404 121.509 139.937 121.408 140.535 121.408C140.865 121.408 141.159 121.44 141.415 121.504C141.681 121.568 141.948 121.659 142.215 121.776V117.968L144.599 117.584V129.728ZM146.431 125.856C146.431 125.109 146.543 124.459 146.767 123.904C147.002 123.339 147.306 122.869 147.679 122.496C148.052 122.123 148.479 121.84 148.959 121.648C149.45 121.456 149.951 121.36 150.463 121.36C151.658 121.36 152.602 121.728 153.295 122.464C153.988 123.189 154.335 124.261 154.335 125.68C154.335 125.819 154.33 125.973 154.319 126.144C154.308 126.304 154.298 126.448 154.287 126.576H148.879C148.932 127.067 149.162 127.456 149.567 127.744C149.972 128.032 150.516 128.176 151.199 128.176C151.636 128.176 152.063 128.139 152.479 128.064C152.906 127.979 153.252 127.877 153.519 127.76L153.839 129.696C153.711 129.76 153.54 129.824 153.327 129.888C153.114 129.952 152.874 130.005 152.607 130.048C152.351 130.101 152.074 130.144 151.775 130.176C151.476 130.208 151.178 130.224 150.879 130.224C150.122 130.224 149.46 130.112 148.895 129.888C148.34 129.664 147.876 129.36 147.503 128.976C147.14 128.581 146.868 128.117 146.687 127.584C146.516 127.051 146.431 126.475 146.431 125.856ZM152.031 124.944C152.02 124.741 151.983 124.544 151.919 124.352C151.866 124.16 151.775 123.989 151.647 123.84C151.53 123.691 151.375 123.568 151.183 123.472C151.002 123.376 150.772 123.328 150.495 123.328C150.228 123.328 149.999 123.376 149.807 123.472C149.615 123.557 149.455 123.675 149.327 123.824C149.199 123.973 149.098 124.149 149.023 124.352C148.959 124.544 148.911 124.741 148.879 124.944H152.031ZM46.2501 154.224C44.4474 154.224 43.0714 153.723 42.1221 152.72C41.1834 151.717 40.7141 150.293 40.7141 148.448C40.7141 147.531 40.8581 146.715 41.1461 146C41.4341 145.275 41.8287 144.667 42.3301 144.176C42.8314 143.675 43.4287 143.296 44.1221 143.04C44.8154 142.784 45.5674 142.656 46.3781 142.656C46.8474 142.656 47.2741 142.693 47.6581 142.768C48.0421 142.832 48.3781 142.912 48.6661 143.008C48.9541 143.093 49.1941 143.184 49.3861 143.28C49.5781 143.376 49.7167 143.451 49.8021 143.504L49.0821 145.52C48.7407 145.339 48.3407 145.184 47.8821 145.056C47.4341 144.928 46.9221 144.864 46.3461 144.864C45.9621 144.864 45.5834 144.928 45.2101 145.056C44.8474 145.184 44.5221 145.392 44.2341 145.68C43.9567 145.957 43.7327 146.32 43.5621 146.768C43.3914 147.216 43.3061 147.76 43.3061 148.4C43.3061 148.912 43.3594 149.392 43.4661 149.84C43.5834 150.277 43.7647 150.656 44.0101 150.976C44.2661 151.296 44.5967 151.552 45.0021 151.744C45.4074 151.925 45.8981 152.016 46.4741 152.016C46.8367 152.016 47.1621 151.995 47.4501 151.952C47.7381 151.909 47.9941 151.861 48.2181 151.808C48.4421 151.744 48.6394 151.675 48.8101 151.6C48.9807 151.525 49.1354 151.456 49.2741 151.392L49.9621 153.392C49.6101 153.605 49.1141 153.797 48.4741 153.968C47.8341 154.139 47.0927 154.224 46.2501 154.224ZM54.7813 152.336C55.016 152.336 55.24 152.331 55.4533 152.32C55.6666 152.309 55.8373 152.293 55.9653 152.272V150.464C55.8693 150.443 55.7253 150.421 55.5333 150.4C55.3413 150.379 55.1653 150.368 55.0053 150.368C54.7813 150.368 54.568 150.384 54.3653 150.416C54.1733 150.437 54.0026 150.485 53.8533 150.56C53.704 150.635 53.5866 150.736 53.5013 150.864C53.416 150.992 53.3733 151.152 53.3733 151.344C53.3733 151.717 53.496 151.979 53.7413 152.128C53.9973 152.267 54.344 152.336 54.7813 152.336ZM54.5893 145.36C55.2933 145.36 55.88 145.44 56.3493 145.6C56.8186 145.76 57.192 145.989 57.4693 146.288C57.7573 146.587 57.96 146.949 58.0773 147.376C58.1946 147.803 58.2533 148.277 58.2533 148.8V153.76C57.912 153.835 57.4373 153.92 56.8293 154.016C56.2213 154.123 55.4853 154.176 54.6213 154.176C54.0773 154.176 53.5813 154.128 53.1333 154.032C52.696 153.936 52.3173 153.781 51.9973 153.568C51.6773 153.344 51.432 153.056 51.2613 152.704C51.0906 152.352 51.0053 151.92 51.0053 151.408C51.0053 150.917 51.1013 150.501 51.2933 150.16C51.496 149.819 51.7626 149.547 52.0933 149.344C52.424 149.141 52.8026 148.997 53.2293 148.912C53.656 148.816 54.0986 148.768 54.5573 148.768C54.8666 148.768 55.1386 148.784 55.3733 148.816C55.6186 148.837 55.816 148.869 55.9653 148.912V148.688C55.9653 148.283 55.8426 147.957 55.5973 147.712C55.352 147.467 54.9253 147.344 54.3173 147.344C53.912 147.344 53.512 147.376 53.1173 147.44C52.7226 147.493 52.3813 147.573 52.0933 147.68L51.7893 145.76C51.928 145.717 52.0986 145.675 52.3013 145.632C52.5146 145.579 52.744 145.536 52.9893 145.504C53.2346 145.461 53.4906 145.429 53.7573 145.408C54.0346 145.376 54.312 145.36 54.5893 145.36ZM56.7973 142.56L54.1573 144.784L53.0693 143.808L55.3413 141.216L56.7973 142.56ZM65.4811 147.696C65.2677 147.643 65.0171 147.589 64.7291 147.536C64.4411 147.472 64.1317 147.44 63.8011 147.44C63.6517 147.44 63.4704 147.456 63.2571 147.488C63.0544 147.509 62.8997 147.536 62.7931 147.568V154H60.4091V146.032C60.8357 145.883 61.3371 145.744 61.9131 145.616C62.4997 145.477 63.1504 145.408 63.8651 145.408C63.9931 145.408 64.1477 145.419 64.3291 145.44C64.5104 145.451 64.6917 145.472 64.8731 145.504C65.0544 145.525 65.2357 145.557 65.4171 145.6C65.5984 145.632 65.7531 145.675 65.8811 145.728L65.4811 147.696ZM69.5431 154H67.1591V145.584H69.5431V154ZM69.7671 143.152C69.7671 143.589 69.6231 143.936 69.3351 144.192C69.0577 144.437 68.7271 144.56 68.3431 144.56C67.9591 144.56 67.6231 144.437 67.3351 144.192C67.0577 143.936 66.9191 143.589 66.9191 143.152C66.9191 142.715 67.0577 142.373 67.3351 142.128C67.6231 141.872 67.9591 141.744 68.3431 141.744C68.7271 141.744 69.0577 141.872 69.3351 142.128C69.6231 142.373 69.7671 142.715 69.7671 143.152ZM71.3841 149.856C71.3841 149.109 71.4961 148.459 71.7201 147.904C71.9547 147.339 72.2587 146.869 72.6321 146.496C73.0054 146.123 73.4321 145.84 73.9121 145.648C74.4027 145.456 74.9041 145.36 75.4161 145.36C76.6107 145.36 77.5547 145.728 78.2481 146.464C78.9414 147.189 79.2881 148.261 79.2881 149.68C79.2881 149.819 79.2827 149.973 79.2721 150.144C79.2614 150.304 79.2507 150.448 79.2401 150.576H73.8321C73.8854 151.067 74.1147 151.456 74.5201 151.744C74.9254 152.032 75.4694 152.176 76.1521 152.176C76.5894 152.176 77.0161 152.139 77.4321 152.064C77.8587 151.979 78.2054 151.877 78.4721 151.76L78.7921 153.696C78.6641 153.76 78.4934 153.824 78.2801 153.888C78.0667 153.952 77.8267 154.005 77.5601 154.048C77.3041 154.101 77.0267 154.144 76.7281 154.176C76.4294 154.208 76.1307 154.224 75.8321 154.224C75.0747 154.224 74.4134 154.112 73.8481 153.888C73.2934 153.664 72.8294 153.36 72.4561 152.976C72.0934 152.581 71.8214 152.117 71.6401 151.584C71.4694 151.051 71.3841 150.475 71.3841 149.856ZM76.9841 148.944C76.9734 148.741 76.9361 148.544 76.8721 148.352C76.8187 148.16 76.7281 147.989 76.6001 147.84C76.4827 147.691 76.3281 147.568 76.1361 147.472C75.9547 147.376 75.7254 147.328 75.4481 147.328C75.1814 147.328 74.9521 147.376 74.7601 147.472C74.5681 147.557 74.4081 147.675 74.2801 147.824C74.1521 147.973 74.0507 148.149 73.9761 148.352C73.9121 148.544 73.8641 148.741 73.8321 148.944H76.9841ZM84.5716 149.856C84.5716 149.109 84.6836 148.459 84.9076 147.904C85.1422 147.339 85.4462 146.869 85.8196 146.496C86.1929 146.123 86.6196 145.84 87.0996 145.648C87.5902 145.456 88.0916 145.36 88.6036 145.36C89.7982 145.36 90.7422 145.728 91.4356 146.464C92.1289 147.189 92.4756 148.261 92.4756 149.68C92.4756 149.819 92.4702 149.973 92.4596 150.144C92.4489 150.304 92.4382 150.448 92.4276 150.576H87.0196C87.0729 151.067 87.3022 151.456 87.7076 151.744C88.1129 152.032 88.6569 152.176 89.3396 152.176C89.7769 152.176 90.2036 152.139 90.6196 152.064C91.0462 151.979 91.3929 151.877 91.6596 151.76L91.9796 153.696C91.8516 153.76 91.6809 153.824 91.4676 153.888C91.2542 153.952 91.0142 154.005 90.7476 154.048C90.4916 154.101 90.2142 154.144 89.9156 154.176C89.6169 154.208 89.3182 154.224 89.0196 154.224C88.2622 154.224 87.6009 154.112 87.0356 153.888C86.4809 153.664 86.0169 153.36 85.6436 152.976C85.2809 152.581 85.0089 152.117 84.8276 151.584C84.6569 151.051 84.5716 150.475 84.5716 149.856ZM90.1716 148.944C90.1609 148.741 90.1236 148.544 90.0596 148.352C90.0062 148.16 89.9156 147.989 89.7876 147.84C89.6702 147.691 89.5156 147.568 89.3236 147.472C89.1422 147.376 88.9129 147.328 88.6356 147.328C88.3689 147.328 88.1396 147.376 87.9476 147.472C87.7556 147.557 87.5956 147.675 87.4676 147.824C87.3396 147.973 87.2382 148.149 87.1636 148.352C87.0996 148.544 87.0516 148.741 87.0196 148.944H90.1716ZM105.727 151.856V154H98.3191V142.912H100.815V151.856H105.727ZM109.559 154H107.175V145.584H109.559V154ZM109.783 143.152C109.783 143.589 109.639 143.936 109.351 144.192C109.073 144.437 108.743 144.56 108.359 144.56C107.975 144.56 107.639 144.437 107.351 144.192C107.073 143.936 106.935 143.589 106.935 143.152C106.935 142.715 107.073 142.373 107.351 142.128C107.639 141.872 107.975 141.744 108.359 141.744C108.743 141.744 109.073 141.872 109.351 142.128C109.639 142.373 109.783 142.715 109.783 143.152ZM116.424 149.536C116.424 148.768 116.322 148.224 116.12 147.904C115.928 147.584 115.592 147.424 115.112 147.424C114.962 147.424 114.808 147.435 114.648 147.456C114.488 147.467 114.333 147.483 114.184 147.504V154H111.8V145.872C112.002 145.819 112.237 145.765 112.504 145.712C112.781 145.648 113.069 145.595 113.368 145.552C113.677 145.499 113.992 145.461 114.312 145.44C114.632 145.408 114.946 145.392 115.256 145.392C115.864 145.392 116.354 145.472 116.728 145.632C117.112 145.781 117.426 145.963 117.672 146.176C118.013 145.931 118.402 145.739 118.84 145.6C119.288 145.461 119.698 145.392 120.072 145.392C120.744 145.392 121.293 145.488 121.72 145.68C122.157 145.861 122.504 146.123 122.76 146.464C123.016 146.805 123.192 147.211 123.288 147.68C123.384 148.149 123.432 148.672 123.432 149.248V154H121.048V149.536C121.048 148.768 120.946 148.224 120.744 147.904C120.552 147.584 120.216 147.424 119.736 147.424C119.608 147.424 119.426 147.456 119.192 147.52C118.968 147.584 118.781 147.664 118.632 147.76C118.706 148.005 118.754 148.267 118.776 148.544C118.797 148.811 118.808 149.099 118.808 149.408V154H116.424V149.536ZM130.989 149.856C130.989 149.12 130.823 148.533 130.493 148.096C130.162 147.648 129.671 147.424 129.021 147.424C128.807 147.424 128.61 147.435 128.429 147.456C128.247 147.467 128.098 147.483 127.981 147.504V151.808C128.13 151.904 128.322 151.984 128.557 152.048C128.802 152.112 129.047 152.144 129.293 152.144C130.423 152.144 130.989 151.381 130.989 149.856ZM133.421 149.792C133.421 150.443 133.341 151.035 133.181 151.568C133.021 152.101 132.786 152.56 132.477 152.944C132.167 153.328 131.783 153.627 131.325 153.84C130.866 154.053 130.338 154.16 129.741 154.16C129.41 154.16 129.101 154.128 128.813 154.064C128.525 154 128.247 153.909 127.981 153.792V156.96H125.597V145.872C125.81 145.808 126.055 145.749 126.333 145.696C126.61 145.632 126.898 145.579 127.197 145.536C127.506 145.493 127.815 145.461 128.125 145.44C128.445 145.408 128.749 145.392 129.037 145.392C129.73 145.392 130.349 145.499 130.893 145.712C131.437 145.915 131.895 146.208 132.269 146.592C132.642 146.965 132.925 147.424 133.117 147.968C133.319 148.512 133.421 149.12 133.421 149.792ZM134.853 149.856C134.853 149.109 134.965 148.459 135.189 147.904C135.423 147.339 135.727 146.869 136.101 146.496C136.474 146.123 136.901 145.84 137.381 145.648C137.871 145.456 138.373 145.36 138.885 145.36C140.079 145.36 141.023 145.728 141.717 146.464C142.41 147.189 142.757 148.261 142.757 149.68C142.757 149.819 142.751 149.973 142.741 150.144C142.73 150.304 142.719 150.448 142.709 150.576H137.301C137.354 151.067 137.583 151.456 137.989 151.744C138.394 152.032 138.938 152.176 139.621 152.176C140.058 152.176 140.485 152.139 140.901 152.064C141.327 151.979 141.674 151.877 141.941 151.76L142.261 153.696C142.133 153.76 141.962 153.824 141.749 153.888C141.535 153.952 141.295 154.005 141.029 154.048C140.773 154.101 140.495 154.144 140.197 154.176C139.898 154.208 139.599 154.224 139.301 154.224C138.543 154.224 137.882 154.112 137.317 153.888C136.762 153.664 136.298 153.36 135.925 152.976C135.562 152.581 135.29 152.117 135.109 151.584C134.938 151.051 134.853 150.475 134.853 149.856ZM140.453 148.944C140.442 148.741 140.405 148.544 140.341 148.352C140.287 148.16 140.197 147.989 140.069 147.84C139.951 147.691 139.797 147.568 139.605 147.472C139.423 147.376 139.194 147.328 138.917 147.328C138.65 147.328 138.421 147.376 138.229 147.472C138.037 147.557 137.877 147.675 137.749 147.824C137.621 147.973 137.519 148.149 137.445 148.352C137.381 148.544 137.333 148.741 137.301 148.944H140.453ZM150.917 147.184C150.725 147.397 150.463 147.685 150.133 148.048C149.813 148.411 149.466 148.811 149.093 149.248C148.719 149.685 148.341 150.144 147.957 150.624C147.583 151.104 147.242 151.568 146.933 152.016H150.997V154H144.037V152.592C144.261 152.208 144.527 151.797 144.837 151.36C145.157 150.912 145.487 150.464 145.829 150.016C146.181 149.568 146.527 149.136 146.869 148.72C147.21 148.293 147.525 147.909 147.813 147.568H144.229V145.584H150.917V147.184ZM155.578 152.336C155.813 152.336 156.037 152.331 156.25 152.32C156.464 152.309 156.634 152.293 156.762 152.272V150.464C156.666 150.443 156.522 150.421 156.33 150.4C156.138 150.379 155.962 150.368 155.802 150.368C155.578 150.368 155.365 150.384 155.162 150.416C154.97 150.437 154.8 150.485 154.65 150.56C154.501 150.635 154.384 150.736 154.298 150.864C154.213 150.992 154.17 151.152 154.17 151.344C154.17 151.717 154.293 151.979 154.538 152.128C154.794 152.267 155.141 152.336 155.578 152.336ZM155.386 145.36C156.09 145.36 156.677 145.44 157.146 145.6C157.616 145.76 157.989 145.989 158.266 146.288C158.554 146.587 158.757 146.949 158.874 147.376C158.992 147.803 159.05 148.277 159.05 148.8V153.76C158.709 153.835 158.234 153.92 157.626 154.016C157.018 154.123 156.282 154.176 155.418 154.176C154.874 154.176 154.378 154.128 153.93 154.032C153.493 153.936 153.114 153.781 152.794 153.568C152.474 153.344 152.229 153.056 152.058 152.704C151.888 152.352 151.802 151.92 151.802 151.408C151.802 150.917 151.898 150.501 152.09 150.16C152.293 149.819 152.56 149.547 152.89 149.344C153.221 149.141 153.6 148.997 154.026 148.912C154.453 148.816 154.896 148.768 155.354 148.768C155.664 148.768 155.936 148.784 156.17 148.816C156.416 148.837 156.613 148.869 156.762 148.912V148.688C156.762 148.283 156.64 147.957 156.394 147.712C156.149 147.467 155.722 147.344 155.114 147.344C154.709 147.344 154.309 147.376 153.914 147.44C153.52 147.493 153.178 147.573 152.89 147.68L152.586 145.76C152.725 145.717 152.896 145.675 153.098 145.632C153.312 145.579 153.541 145.536 153.786 145.504C154.032 145.461 154.288 145.429 154.554 145.408C154.832 145.376 155.109 145.36 155.386 145.36Z" fill="#2F2F2F"/>
<g clip-path="url(#clip0)">
<circle cx="100.415" cy="44.4148" r="40.4148" fill="#E5F2FF"/>
<path d="M138.606 15.5319C137.399 12.0293 135.563 8.98765 133.257 6.57539C130.951 4.16313 128.173 2.37838 125.082 1.38735C113.341 -2.37773 103.687 2.46398 100.001 4.78205C96.3143 2.46415 86.6586 -2.37773 74.9192 1.38735C68.7351 3.37113 63.806 8.52823 61.3937 15.5405C58.2202 24.7611 59.8181 35.3977 65.6679 43.9908C69.5753 49.7326 72.1264 56.2118 73.047 62.7286C73.1001 63.1058 73.1516 63.4898 73.203 63.8824C74.0877 70.7524 75.3924 76.2678 77.0795 80.2728C79.1009 85.07 81.7069 87.6605 84.829 87.9727C85.0055 87.9916 85.1822 88 85.3553 88C88.4277 88 90.9958 85.2431 92.9916 79.7945C94.4696 75.7654 95.6337 70.3682 96.2698 64.5937C96.6265 61.3654 97.4597 58.7524 98.6786 57.0345C99.1159 56.4208 99.7486 56.3539 100.001 56.3539C100.252 56.3539 100.885 56.4208 101.322 57.0345C102.541 58.7524 103.375 61.3654 103.731 64.5937C104.367 70.3682 105.531 75.7654 107.009 79.7945C109.007 85.2433 111.574 88.0002 114.646 88.0002C114.819 88.0002 114.996 87.9916 115.172 87.9728C118.294 87.6607 120.9 85.0702 122.922 80.273C124.609 76.268 125.914 70.7525 126.798 63.8825C126.848 63.5037 126.898 63.1333 126.949 62.7698C127.866 56.2427 130.426 49.7414 134.347 43.9722C140.188 35.379 141.779 24.7474 138.606 15.5319ZM130.094 41.0813C125.732 47.4986 122.882 54.7493 121.855 62.0529C121.802 62.4352 121.749 62.8262 121.698 63.2239C119.896 77.209 116.535 82.6079 114.694 82.8515C114.307 82.7143 112.983 81.4421 111.56 77.2331C110.354 73.667 109.389 68.9778 108.844 64.0298C108.385 59.8756 107.265 56.5203 105.514 54.0566C104.249 52.2753 102.187 51.2106 100.001 51.2106C97.8148 51.2106 95.7521 52.2753 94.487 54.0566C92.7364 56.5203 91.6168 59.8756 91.1574 64.0298C90.6122 68.9778 89.647 73.667 88.4416 77.2331C87.0187 81.4421 85.6951 82.7143 85.3075 82.8515C83.4662 82.6079 80.1074 77.209 78.3038 63.2239C78.2506 62.8107 78.1956 62.4061 78.1391 62.0101C77.1104 54.7166 74.2678 47.4867 69.9199 41.0968C64.9787 33.8376 63.6088 24.9086 66.256 17.2139C68.1369 11.7516 71.8658 7.76872 76.4898 6.28578C81.5252 4.67067 86.7167 4.77535 91.9202 6.59275C95.8962 7.9815 98.3906 9.9034 98.4078 9.91715L98.466 9.96338L98.4746 9.96854L100.045 11.1361L106.2 15.7086L99.4603 27.2608L109.398 33.7416L112.206 29.433L106.37 25.6268L112.96 14.3249L104.576 8.09442C108.358 6.14845 115.374 3.67621 123.511 6.28561C128.132 7.767 131.861 11.748 133.742 17.2086C136.391 24.8965 135.026 33.8222 130.094 41.0813Z" fill="#00D5E2"/>
<mask id="mask0" mask-type="alpha" maskUnits="userSpaceOnUse" x="60" y="4" width="81" height="81">
<circle cx="100.415" cy="44.4148" r="40.4148" fill="#E5F2FF"/>
</mask>
<g mask="url(#mask0)">
</g>
</g>
<defs>
<clipPath id="clip0">
<rect width="88" height="88" fill="white" transform="translate(56)"/>
</clipPath>
</defs>
</svg>
