<svg width="200" height="136" viewBox="0 0 200 136" fill="none" xmlns="http://www.w3.org/2000/svg">
<path d="M39.6729 124.448C39.6729 124.992 39.7369 125.483 39.8649 125.92C40.0035 126.357 40.1955 126.736 40.4409 127.056C40.6969 127.365 41.0062 127.605 41.3689 127.776C41.7315 127.947 42.1475 128.032 42.6169 128.032C43.0755 128.032 43.4862 127.947 43.8489 127.776C44.2222 127.605 44.5315 127.365 44.7769 127.056C45.0329 126.736 45.2249 126.357 45.3529 125.92C45.4915 125.483 45.5609 124.992 45.5609 124.448C45.5609 123.904 45.4915 123.413 45.3529 122.976C45.2249 122.528 45.0329 122.149 44.7769 121.84C44.5315 121.52 44.2222 121.275 43.8489 121.104C43.4862 120.933 43.0755 120.848 42.6169 120.848C42.1475 120.848 41.7315 120.939 41.3689 121.12C41.0062 121.291 40.6969 121.536 40.4409 121.856C40.1955 122.165 40.0035 122.544 39.8649 122.992C39.7369 123.429 39.6729 123.915 39.6729 124.448ZM48.1369 124.448C48.1369 125.397 47.9929 126.235 47.7049 126.96C47.4275 127.675 47.0435 128.277 46.5529 128.768C46.0622 129.248 45.4755 129.611 44.7929 129.856C44.1209 130.101 43.3955 130.224 42.6169 130.224C41.8595 130.224 41.1449 130.101 40.4729 129.856C39.8009 129.611 39.2142 129.248 38.7129 128.768C38.2115 128.277 37.8169 127.675 37.5289 126.96C37.2409 126.235 37.0969 125.397 37.0969 124.448C37.0969 123.499 37.2462 122.667 37.5449 121.952C37.8435 121.227 38.2435 120.619 38.7449 120.128C39.2569 119.637 39.8435 119.269 40.5049 119.024C41.1769 118.779 41.8809 118.656 42.6169 118.656C43.3742 118.656 44.0889 118.779 44.7609 119.024C45.4329 119.269 46.0195 119.637 46.5209 120.128C47.0222 120.619 47.4169 121.227 47.7049 121.952C47.9929 122.667 48.1369 123.499 48.1369 124.448ZM52.0895 125.728C52.0895 126.464 52.2548 127.056 52.5855 127.504C52.9162 127.952 53.4068 128.176 54.0575 128.176C54.2708 128.176 54.4682 128.171 54.6495 128.16C54.8308 128.139 54.9802 128.117 55.0975 128.096V123.76C54.9482 123.664 54.7508 123.584 54.5055 123.52C54.2708 123.456 54.0308 123.424 53.7855 123.424C52.6548 123.424 52.0895 124.192 52.0895 125.728ZM57.4815 129.728C57.2682 129.792 57.0228 129.856 56.7455 129.92C56.4682 129.973 56.1748 130.021 55.8655 130.064C55.5668 130.107 55.2575 130.139 54.9375 130.16C54.6282 130.192 54.3295 130.208 54.0415 130.208C53.3482 130.208 52.7295 130.107 52.1855 129.904C51.6415 129.701 51.1828 129.413 50.8095 129.04C50.4362 128.656 50.1482 128.197 49.9455 127.664C49.7535 127.12 49.6575 126.512 49.6575 125.84C49.6575 125.157 49.7428 124.544 49.9135 124C50.0842 123.445 50.3295 122.976 50.6495 122.592C50.9695 122.208 51.3588 121.915 51.8175 121.712C52.2868 121.509 52.8202 121.408 53.4175 121.408C53.7482 121.408 54.0415 121.44 54.2975 121.504C54.5642 121.568 54.8308 121.659 55.0975 121.776V117.968L57.4815 117.584V129.728ZM67.5858 125.776C67.5858 126.437 67.4898 127.045 67.2978 127.6C67.1058 128.144 66.8284 128.613 66.4658 129.008C66.1031 129.392 65.6658 129.691 65.1538 129.904C64.6524 130.117 64.0871 130.224 63.4578 130.224C62.8391 130.224 62.2738 130.117 61.7618 129.904C61.2604 129.691 60.8284 129.392 60.4658 129.008C60.1031 128.613 59.8204 128.144 59.6178 127.6C59.4151 127.045 59.3138 126.437 59.3138 125.776C59.3138 125.115 59.4151 124.512 59.6178 123.968C59.8311 123.424 60.1191 122.96 60.4818 122.576C60.8551 122.192 61.2924 121.893 61.7938 121.68C62.3058 121.467 62.8604 121.36 63.4578 121.36C64.0658 121.36 64.6204 121.467 65.1218 121.68C65.6338 121.893 66.0711 122.192 66.4338 122.576C66.7964 122.96 67.0791 123.424 67.2818 123.968C67.4844 124.512 67.5858 125.115 67.5858 125.776ZM65.1538 125.776C65.1538 125.04 65.0044 124.464 64.7058 124.048C64.4178 123.621 64.0018 123.408 63.4578 123.408C62.9138 123.408 62.4924 123.621 62.1938 124.048C61.8951 124.464 61.7458 125.04 61.7458 125.776C61.7458 126.512 61.8951 127.099 62.1938 127.536C62.4924 127.963 62.9138 128.176 63.4578 128.176C64.0018 128.176 64.4178 127.963 64.7058 127.536C65.0044 127.099 65.1538 126.512 65.1538 125.776ZM69.4325 121.872C69.8378 121.755 70.3605 121.648 71.0005 121.552C71.6405 121.445 72.3125 121.392 73.0165 121.392C73.7312 121.392 74.3232 121.488 74.7925 121.68C75.2725 121.861 75.6512 122.123 75.9285 122.464C76.2058 122.805 76.4032 123.211 76.5205 123.68C76.6378 124.149 76.6965 124.672 76.6965 125.248V130H74.3125V125.536C74.3125 124.768 74.2112 124.224 74.0085 123.904C73.8058 123.584 73.4272 123.424 72.8725 123.424C72.7018 123.424 72.5205 123.435 72.3285 123.456C72.1365 123.467 71.9658 123.483 71.8165 123.504V130H69.4325V121.872ZM78.7744 119.488L81.1584 119.104V121.584H84.0224V123.568H81.1584V126.528C81.1584 127.029 81.2437 127.429 81.4144 127.728C81.5957 128.027 81.953 128.176 82.4864 128.176C82.7424 128.176 83.0037 128.155 83.2704 128.112C83.5477 128.059 83.7984 127.989 84.0224 127.904L84.3584 129.76C84.0704 129.877 83.7504 129.979 83.3984 130.064C83.0464 130.149 82.6144 130.192 82.1024 130.192C81.4517 130.192 80.913 130.107 80.4864 129.936C80.0597 129.755 79.7184 129.509 79.4624 129.2C79.2064 128.88 79.025 128.496 78.9184 128.048C78.8224 127.6 78.7744 127.104 78.7744 126.56V119.488ZM93.5233 125.776C93.5233 126.437 93.4273 127.045 93.2353 127.6C93.0433 128.144 92.7659 128.613 92.4033 129.008C92.0406 129.392 91.6033 129.691 91.0913 129.904C90.5899 130.117 90.0246 130.224 89.3953 130.224C88.7766 130.224 88.2113 130.117 87.6993 129.904C87.1979 129.691 86.7659 129.392 86.4033 129.008C86.0406 128.613 85.7579 128.144 85.5553 127.6C85.3526 127.045 85.2513 126.437 85.2513 125.776C85.2513 125.115 85.3526 124.512 85.5553 123.968C85.7686 123.424 86.0566 122.96 86.4193 122.576C86.7926 122.192 87.2299 121.893 87.7313 121.68C88.2433 121.467 88.7979 121.36 89.3953 121.36C90.0033 121.36 90.5579 121.467 91.0593 121.68C91.5713 121.893 92.0086 122.192 92.3713 122.576C92.7339 122.96 93.0166 123.424 93.2193 123.968C93.4219 124.512 93.5233 125.115 93.5233 125.776ZM91.0913 125.776C91.0913 125.04 90.9419 124.464 90.6433 124.048C90.3553 123.621 89.9393 123.408 89.3953 123.408C88.8513 123.408 88.4299 123.621 88.1313 124.048C87.8326 124.464 87.6833 125.04 87.6833 125.776C87.6833 126.512 87.8326 127.099 88.1313 127.536C88.4299 127.963 88.8513 128.176 89.3953 128.176C89.9393 128.176 90.3553 127.963 90.6433 127.536C90.9419 127.099 91.0913 126.512 91.0913 125.776ZM100.762 125.856C100.762 125.12 100.597 124.533 100.266 124.096C99.9353 123.648 99.4447 123.424 98.794 123.424C98.5807 123.424 98.3833 123.435 98.202 123.456C98.0207 123.467 97.8713 123.483 97.754 123.504V127.808C97.9033 127.904 98.0953 127.984 98.33 128.048C98.5753 128.112 98.8207 128.144 99.066 128.144C100.197 128.144 100.762 127.381 100.762 125.856ZM103.194 125.792C103.194 126.443 103.114 127.035 102.954 127.568C102.794 128.101 102.559 128.56 102.25 128.944C101.941 129.328 101.557 129.627 101.098 129.84C100.639 130.053 100.111 130.16 99.514 130.16C99.1833 130.16 98.874 130.128 98.586 130.064C98.298 130 98.0207 129.909 97.754 129.792V132.96H95.37V121.872C95.5833 121.808 95.8287 121.749 96.106 121.696C96.3833 121.632 96.6713 121.579 96.97 121.536C97.2793 121.493 97.5887 121.461 97.898 121.44C98.218 121.408 98.522 121.392 98.81 121.392C99.5033 121.392 100.122 121.499 100.666 121.712C101.21 121.915 101.669 122.208 102.042 122.592C102.415 122.965 102.698 123.424 102.89 123.968C103.093 124.512 103.194 125.12 103.194 125.792ZM104.626 125.856C104.626 125.109 104.738 124.459 104.962 123.904C105.197 123.339 105.501 122.869 105.874 122.496C106.248 122.123 106.674 121.84 107.154 121.648C107.645 121.456 108.146 121.36 108.658 121.36C109.853 121.36 110.797 121.728 111.49 122.464C112.184 123.189 112.53 124.261 112.53 125.68C112.53 125.819 112.525 125.973 112.514 126.144C112.504 126.304 112.493 126.448 112.482 126.576H107.074C107.128 127.067 107.357 127.456 107.762 127.744C108.168 128.032 108.712 128.176 109.394 128.176C109.832 128.176 110.258 128.139 110.674 128.064C111.101 127.979 111.448 127.877 111.714 127.76L112.034 129.696C111.906 129.76 111.736 129.824 111.522 129.888C111.309 129.952 111.069 130.005 110.802 130.048C110.546 130.101 110.269 130.144 109.97 130.176C109.672 130.208 109.373 130.224 109.074 130.224C108.317 130.224 107.656 130.112 107.09 129.888C106.536 129.664 106.072 129.36 105.698 128.976C105.336 128.581 105.064 128.117 104.882 127.584C104.712 127.051 104.626 126.475 104.626 125.856ZM110.226 124.944C110.216 124.741 110.178 124.544 110.114 124.352C110.061 124.16 109.97 123.989 109.842 123.84C109.725 123.691 109.57 123.568 109.378 123.472C109.197 123.376 108.968 123.328 108.69 123.328C108.424 123.328 108.194 123.376 108.002 123.472C107.81 123.557 107.65 123.675 107.522 123.824C107.394 123.973 107.293 124.149 107.218 124.352C107.154 124.544 107.106 124.741 107.074 124.944H110.226ZM116.402 125.728C116.402 126.464 116.567 127.056 116.898 127.504C117.229 127.952 117.719 128.176 118.37 128.176C118.583 128.176 118.781 128.171 118.962 128.16C119.143 128.139 119.293 128.117 119.41 128.096V123.76C119.261 123.664 119.063 123.584 118.818 123.52C118.583 123.456 118.343 123.424 118.098 123.424C116.967 123.424 116.402 124.192 116.402 125.728ZM121.794 129.728C121.581 129.792 121.335 129.856 121.058 129.92C120.781 129.973 120.487 130.021 120.178 130.064C119.879 130.107 119.57 130.139 119.25 130.16C118.941 130.192 118.642 130.208 118.354 130.208C117.661 130.208 117.042 130.107 116.498 129.904C115.954 129.701 115.495 129.413 115.122 129.04C114.749 128.656 114.461 128.197 114.258 127.664C114.066 127.12 113.97 126.512 113.97 125.84C113.97 125.157 114.055 124.544 114.226 124C114.397 123.445 114.642 122.976 114.962 122.592C115.282 122.208 115.671 121.915 116.13 121.712C116.599 121.509 117.133 121.408 117.73 121.408C118.061 121.408 118.354 121.44 118.61 121.504C118.877 121.568 119.143 121.659 119.41 121.776V117.968L121.794 117.584V129.728ZM126.41 130H124.026V121.584H126.41V130ZM126.634 119.152C126.634 119.589 126.49 119.936 126.202 120.192C125.925 120.437 125.594 120.56 125.21 120.56C124.826 120.56 124.49 120.437 124.202 120.192C123.925 119.936 123.786 119.589 123.786 119.152C123.786 118.715 123.925 118.373 124.202 118.128C124.49 117.872 124.826 117.744 125.21 117.744C125.594 117.744 125.925 117.872 126.202 118.128C126.49 118.373 126.634 118.715 126.634 119.152ZM131.867 128.336C132.102 128.336 132.326 128.331 132.539 128.32C132.753 128.309 132.923 128.293 133.051 128.272V126.464C132.955 126.443 132.811 126.421 132.619 126.4C132.427 126.379 132.251 126.368 132.091 126.368C131.867 126.368 131.654 126.384 131.451 126.416C131.259 126.437 131.089 126.485 130.939 126.56C130.79 126.635 130.673 126.736 130.587 126.864C130.502 126.992 130.459 127.152 130.459 127.344C130.459 127.717 130.582 127.979 130.827 128.128C131.083 128.267 131.43 128.336 131.867 128.336ZM131.675 121.36C132.379 121.36 132.966 121.44 133.435 121.6C133.905 121.76 134.278 121.989 134.555 122.288C134.843 122.587 135.046 122.949 135.163 123.376C135.281 123.803 135.339 124.277 135.339 124.8V129.76C134.998 129.835 134.523 129.92 133.915 130.016C133.307 130.123 132.571 130.176 131.707 130.176C131.163 130.176 130.667 130.128 130.219 130.032C129.782 129.936 129.403 129.781 129.083 129.568C128.763 129.344 128.518 129.056 128.347 128.704C128.177 128.352 128.091 127.92 128.091 127.408C128.091 126.917 128.187 126.501 128.379 126.16C128.582 125.819 128.849 125.547 129.179 125.344C129.51 125.141 129.889 124.997 130.315 124.912C130.742 124.816 131.185 124.768 131.643 124.768C131.953 124.768 132.225 124.784 132.459 124.816C132.705 124.837 132.902 124.869 133.051 124.912V124.688C133.051 124.283 132.929 123.957 132.683 123.712C132.438 123.467 132.011 123.344 131.403 123.344C130.998 123.344 130.598 123.376 130.203 123.44C129.809 123.493 129.467 123.573 129.179 123.68L128.875 121.76C129.014 121.717 129.185 121.675 129.387 121.632C129.601 121.579 129.83 121.536 130.075 121.504C130.321 121.461 130.577 121.429 130.843 121.408C131.121 121.376 131.398 121.36 131.675 121.36ZM137.415 119.488L139.799 119.104V121.584H142.663V123.568H139.799V126.528C139.799 127.029 139.884 127.429 140.055 127.728C140.236 128.027 140.594 128.176 141.127 128.176C141.383 128.176 141.644 128.155 141.911 128.112C142.188 128.059 142.439 127.989 142.663 127.904L142.999 129.76C142.711 129.877 142.391 129.979 142.039 130.064C141.687 130.149 141.255 130.192 140.743 130.192C140.092 130.192 139.554 130.107 139.127 129.936C138.7 129.755 138.359 129.509 138.103 129.2C137.847 128.88 137.666 128.496 137.559 128.048C137.463 127.6 137.415 127.104 137.415 126.56V119.488ZM149.676 123.696C149.463 123.643 149.212 123.589 148.924 123.536C148.636 123.472 148.327 123.44 147.996 123.44C147.847 123.44 147.666 123.456 147.452 123.488C147.25 123.509 147.095 123.536 146.988 123.568V130H144.604V122.032C145.031 121.883 145.532 121.744 146.108 121.616C146.695 121.477 147.346 121.408 148.06 121.408C148.188 121.408 148.343 121.419 148.524 121.44C148.706 121.451 148.887 121.472 149.068 121.504C149.25 121.525 149.431 121.557 149.612 121.6C149.794 121.632 149.948 121.675 150.076 121.728L149.676 123.696ZM153.738 130H151.354V121.584H153.738V130ZM153.962 119.152C153.962 119.589 153.818 119.936 153.53 120.192C153.253 120.437 152.922 120.56 152.538 120.56C152.154 120.56 151.818 120.437 151.53 120.192C151.253 119.936 151.114 119.589 151.114 119.152C151.114 118.715 151.253 118.373 151.53 118.128C151.818 117.872 152.154 117.744 152.538 117.744C152.922 117.744 153.253 117.872 153.53 118.128C153.818 118.373 153.962 118.715 153.962 119.152ZM159.195 128.336C159.43 128.336 159.654 128.331 159.867 128.32C160.081 128.309 160.251 128.293 160.379 128.272V126.464C160.283 126.443 160.139 126.421 159.947 126.4C159.755 126.379 159.579 126.368 159.419 126.368C159.195 126.368 158.982 126.384 158.779 126.416C158.587 126.437 158.417 126.485 158.267 126.56C158.118 126.635 158.001 126.736 157.915 126.864C157.83 126.992 157.787 127.152 157.787 127.344C157.787 127.717 157.91 127.979 158.155 128.128C158.411 128.267 158.758 128.336 159.195 128.336ZM159.003 121.36C159.707 121.36 160.294 121.44 160.763 121.6C161.233 121.76 161.606 121.989 161.883 122.288C162.171 122.587 162.374 122.949 162.491 123.376C162.609 123.803 162.667 124.277 162.667 124.8V129.76C162.326 129.835 161.851 129.92 161.243 130.016C160.635 130.123 159.899 130.176 159.035 130.176C158.491 130.176 157.995 130.128 157.547 130.032C157.11 129.936 156.731 129.781 156.411 129.568C156.091 129.344 155.846 129.056 155.675 128.704C155.505 128.352 155.419 127.92 155.419 127.408C155.419 126.917 155.515 126.501 155.707 126.16C155.91 125.819 156.177 125.547 156.507 125.344C156.838 125.141 157.217 124.997 157.643 124.912C158.07 124.816 158.513 124.768 158.971 124.768C159.281 124.768 159.553 124.784 159.787 124.816C160.033 124.837 160.23 124.869 160.379 124.912V124.688C160.379 124.283 160.257 123.957 160.011 123.712C159.766 123.467 159.339 123.344 158.731 123.344C158.326 123.344 157.926 123.376 157.531 123.44C157.137 123.493 156.795 123.573 156.507 123.68L156.203 121.76C156.342 121.717 156.513 121.675 156.715 121.632C156.929 121.579 157.158 121.536 157.403 121.504C157.649 121.461 157.905 121.429 158.171 121.408C158.449 121.376 158.726 121.36 159.003 121.36Z" fill="#2F2F2F"/>
<circle cx="100.415" cy="44.4148" r="40.4148" fill="#E5F2FF"/>
<path d="M143.997 36.1882C141.242 39.8819 135.75 42.9962 128.641 44.9383C129.504 40.8379 129.339 36.6067 128.069 32.6522C126.229 26.9198 122.292 22.708 117.268 21.0967C108.467 18.2748 101.164 21.6595 98.0569 23.5325C94.9498 21.6594 87.6461 18.2746 78.8462 21.0967C73.8203 22.7085 69.8829 26.9215 68.0434 32.656C66.4441 37.6414 66.6001 43.0649 68.3581 48.1122C66.9318 48.6711 65.5072 49.2959 64.0871 49.9903C60.7897 51.6028 58.0438 53.3164 56.002 54.7294V61.1627C57.4151 60.0146 61.2139 57.1176 66.4846 54.5577C67.7053 53.9649 69.0605 53.3664 70.5256 52.8037C71.0251 53.6564 71.5739 54.4886 72.1737 55.295C74.2338 58.0639 75.6265 61.1149 76.3128 64.3632C76.6227 65.8301 76.8922 67.4449 77.1136 69.1631C78.6625 81.1791 81.8171 87.5089 86.4897 87.9761C89.3176 88.2581 91.6205 86.0348 93.3324 81.3651C94.4689 78.2645 95.3636 74.119 95.8523 69.6923C96.1788 66.7335 96.9648 65.1024 97.5669 64.2552C97.7149 64.0468 97.9151 64.0031 98.0571 64.0031C98.1991 64.0031 98.3993 64.0468 98.5475 64.2552C99.1494 65.1026 99.9354 66.7337 100.262 69.6923C100.75 74.1188 101.645 78.2643 102.782 81.3651C104.397 85.7715 106.537 88.0003 109.15 88C109.306 88 109.465 87.9921 109.624 87.9761C114.297 87.5088 117.452 81.1791 119 69.1631C119.222 67.4444 119.491 65.8294 119.801 64.364C120.487 61.1183 121.881 58.0643 123.947 55.2864C125.025 53.8358 125.941 52.3025 126.692 50.7147C126.788 50.6943 126.884 50.675 126.98 50.6542C133.993 49.1228 139.824 46.6141 143.998 43.3937L143.997 36.1882ZM119.808 52.2106C117.296 55.5896 115.597 59.3202 114.756 63.2988C114.418 64.8981 114.126 66.6496 113.886 68.5043C112.525 79.0673 110.15 82.2575 109.305 82.7691C108.915 82.3831 108.105 81.1934 107.254 78.5087C106.431 75.9147 105.767 72.5829 105.386 69.1272C105.027 65.8695 104.14 63.226 102.75 61.2698C101.673 59.7528 99.9182 58.8474 98.0564 58.8475C96.195 58.8475 94.4403 59.7531 93.3628 61.2698C91.9732 63.2257 91.0865 65.8695 90.727 69.1274C90.3456 72.5831 89.6823 75.9149 88.8595 78.5089C88.0079 81.1934 87.198 82.3831 86.8084 82.7693C85.9633 82.2575 83.5885 79.0675 82.2269 68.5045C81.9878 66.6505 81.6953 64.8989 81.357 63.2982C80.5157 59.3162 78.8177 55.5883 76.3097 52.2178C76.0553 51.8757 75.8123 51.5282 75.5803 51.1759C80.4688 49.9045 86.115 49.3217 92.0129 50.4722C101.765 52.3752 111.344 52.8156 120.11 51.7931C120.011 51.9328 119.911 52.0724 119.808 52.2106ZM122.971 46.1781C116.025 47.3513 105.835 47.9156 93.0007 45.4113C86.703 44.1823 79.9987 44.552 73.2412 46.4636C71.8312 42.4487 71.6937 38.1563 72.9528 34.2312C74.2775 30.1014 76.9993 27.1037 80.4205 26.0066C82.1512 25.4515 83.9076 25.1742 85.6797 25.1742C87.6659 25.1742 89.6716 25.5228 91.6804 26.2197C94.6089 27.2357 96.4509 28.6483 96.4609 28.6559L98.0349 29.9309L99.6444 28.6623C99.6628 28.6482 101.505 27.2355 104.433 26.2196C108.234 24.9009 112.023 24.8293 115.693 26.0064C119.113 27.1032 121.835 30.0998 123.16 34.2279C124.39 38.0611 124.289 42.2447 122.971 46.1781Z" fill="#00D5E2"/>
<path d="M100.634 0H95.4785V10.7245H100.634V0Z" fill="#00D5E2"/>
<path d="M112.264 2.80771L106.873 12.0793L111.331 14.6714L116.722 5.39976L112.264 2.80771Z" fill="#00D5E2"/>
<path d="M84.6254 2.80897L80.168 5.40094L85.5594 14.6726L90.0168 12.0806L84.6254 2.80897Z" fill="#00D5E2"/>
</svg>
