<svg width="200" height="136" viewBox="0 0 200 136" fill="none" xmlns="http://www.w3.org/2000/svg">
<path d="M59.6705 118.784C61.3238 118.784 62.5932 119.077 63.4785 119.664C64.3638 120.24 64.8065 121.189 64.8065 122.512C64.8065 123.845 64.3585 124.811 63.4625 125.408C62.5665 125.995 61.2865 126.288 59.6225 126.288H58.8385V130H56.3425V119.072C56.8865 118.965 57.4625 118.891 58.0705 118.848C58.6785 118.805 59.2118 118.784 59.6705 118.784ZM59.8305 120.912C59.6492 120.912 59.4678 120.917 59.2865 120.928C59.1158 120.939 58.9665 120.949 58.8385 120.96V124.16H59.6225C60.4865 124.16 61.1372 124.043 61.5745 123.808C62.0118 123.573 62.2305 123.136 62.2305 122.496C62.2305 122.187 62.1718 121.931 62.0545 121.728C61.9478 121.525 61.7878 121.365 61.5745 121.248C61.3718 121.12 61.1212 121.035 60.8225 120.992C60.5238 120.939 60.1932 120.912 59.8305 120.912ZM65.845 125.856C65.845 125.109 65.957 124.459 66.181 123.904C66.4157 123.339 66.7197 122.869 67.093 122.496C67.4663 122.123 67.893 121.84 68.373 121.648C68.8637 121.456 69.365 121.36 69.877 121.36C71.0717 121.36 72.0157 121.728 72.709 122.464C73.4023 123.189 73.749 124.261 73.749 125.68C73.749 125.819 73.7437 125.973 73.733 126.144C73.7223 126.304 73.7117 126.448 73.701 126.576H68.293C68.3463 127.067 68.5757 127.456 68.981 127.744C69.3863 128.032 69.9303 128.176 70.613 128.176C71.0503 128.176 71.477 128.139 71.893 128.064C72.3197 127.979 72.6663 127.877 72.933 127.76L73.253 129.696C73.125 129.76 72.9543 129.824 72.741 129.888C72.5277 129.952 72.2877 130.005 72.021 130.048C71.765 130.101 71.4877 130.144 71.189 130.176C70.8903 130.208 70.5917 130.224 70.293 130.224C69.5357 130.224 68.8743 130.112 68.309 129.888C67.7543 129.664 67.2903 129.36 66.917 128.976C66.5543 128.581 66.2823 128.117 66.101 127.584C65.9303 127.051 65.845 126.475 65.845 125.856ZM71.445 124.944C71.4343 124.741 71.397 124.544 71.333 124.352C71.2797 124.16 71.189 123.989 71.061 123.84C70.9437 123.691 70.789 123.568 70.597 123.472C70.4157 123.376 70.1863 123.328 69.909 123.328C69.6423 123.328 69.413 123.376 69.221 123.472C69.029 123.557 68.869 123.675 68.741 123.824C68.613 123.973 68.5117 124.149 68.437 124.352C68.373 124.544 68.325 124.741 68.293 124.944H71.445ZM80.6608 123.696C80.4474 123.643 80.1968 123.589 79.9088 123.536C79.6208 123.472 79.3114 123.44 78.9808 123.44C78.8314 123.44 78.6501 123.456 78.4368 123.488C78.2341 123.509 78.0794 123.536 77.9728 123.568V130H75.5888V122.032C76.0154 121.883 76.5168 121.744 77.0928 121.616C77.6794 121.477 78.3301 121.408 79.0448 121.408C79.1728 121.408 79.3274 121.419 79.5088 121.44C79.6901 121.451 79.8714 121.472 80.0528 121.504C80.2341 121.525 80.4154 121.557 80.5968 121.6C80.7781 121.632 80.9328 121.675 81.0608 121.728L80.6608 123.696ZM84.7228 130H82.3388V121.584H84.7228V130ZM84.9468 119.152C84.9468 119.589 84.8028 119.936 84.5148 120.192C84.2374 120.437 83.9068 120.56 83.5228 120.56C83.1388 120.56 82.8028 120.437 82.5148 120.192C82.2374 119.936 82.0988 119.589 82.0988 119.152C82.0988 118.715 82.2374 118.373 82.5148 118.128C82.8028 117.872 83.1388 117.744 83.5228 117.744C83.9068 117.744 84.2374 117.872 84.5148 118.128C84.8028 118.373 84.9468 118.715 84.9468 119.152ZM94.8358 125.776C94.8358 126.437 94.7398 127.045 94.5478 127.6C94.3558 128.144 94.0784 128.613 93.7158 129.008C93.3531 129.392 92.9158 129.691 92.4038 129.904C91.9024 130.117 91.3371 130.224 90.7078 130.224C90.0891 130.224 89.5238 130.117 89.0118 129.904C88.5104 129.691 88.0784 129.392 87.7158 129.008C87.3531 128.613 87.0704 128.144 86.8678 127.6C86.6651 127.045 86.5638 126.437 86.5638 125.776C86.5638 125.115 86.6651 124.512 86.8678 123.968C87.0811 123.424 87.3691 122.96 87.7318 122.576C88.1051 122.192 88.5424 121.893 89.0438 121.68C89.5558 121.467 90.1104 121.36 90.7078 121.36C91.3158 121.36 91.8704 121.467 92.3718 121.68C92.8838 121.893 93.3211 122.192 93.6838 122.576C94.0464 122.96 94.3291 123.424 94.5318 123.968C94.7344 124.512 94.8358 125.115 94.8358 125.776ZM92.4038 125.776C92.4038 125.04 92.2544 124.464 91.9558 124.048C91.6678 123.621 91.2518 123.408 90.7078 123.408C90.1638 123.408 89.7424 123.621 89.4438 124.048C89.1451 124.464 88.9958 125.04 88.9958 125.776C88.9958 126.512 89.1451 127.099 89.4438 127.536C89.7424 127.963 90.1638 128.176 90.7078 128.176C91.2518 128.176 91.6678 127.963 91.9558 127.536C92.2544 127.099 92.4038 126.512 92.4038 125.776ZM98.7145 125.728C98.7145 126.464 98.8798 127.056 99.2105 127.504C99.5412 127.952 100.032 128.176 100.683 128.176C100.896 128.176 101.093 128.171 101.275 128.16C101.456 128.139 101.605 128.117 101.723 128.096V123.76C101.573 123.664 101.376 123.584 101.131 123.52C100.896 123.456 100.656 123.424 100.411 123.424C99.2798 123.424 98.7145 124.192 98.7145 125.728ZM104.107 129.728C103.893 129.792 103.648 129.856 103.371 129.92C103.093 129.973 102.8 130.021 102.491 130.064C102.192 130.107 101.883 130.139 101.563 130.16C101.253 130.192 100.955 130.208 100.667 130.208C99.9732 130.208 99.3545 130.107 98.8105 129.904C98.2665 129.701 97.8078 129.413 97.4345 129.04C97.0612 128.656 96.7732 128.197 96.5705 127.664C96.3785 127.12 96.2825 126.512 96.2825 125.84C96.2825 125.157 96.3678 124.544 96.5385 124C96.7092 123.445 96.9545 122.976 97.2745 122.592C97.5945 122.208 97.9838 121.915 98.4425 121.712C98.9118 121.509 99.4452 121.408 100.043 121.408C100.373 121.408 100.667 121.44 100.923 121.504C101.189 121.568 101.456 121.659 101.723 121.776V117.968L104.107 117.584V129.728ZM114.211 125.776C114.211 126.437 114.115 127.045 113.923 127.6C113.731 128.144 113.453 128.613 113.091 129.008C112.728 129.392 112.291 129.691 111.779 129.904C111.277 130.117 110.712 130.224 110.083 130.224C109.464 130.224 108.899 130.117 108.387 129.904C107.885 129.691 107.453 129.392 107.091 129.008C106.728 128.613 106.445 128.144 106.243 127.6C106.04 127.045 105.939 126.437 105.939 125.776C105.939 125.115 106.04 124.512 106.243 123.968C106.456 123.424 106.744 122.96 107.107 122.576C107.48 122.192 107.917 121.893 108.419 121.68C108.931 121.467 109.485 121.36 110.083 121.36C110.691 121.36 111.245 121.467 111.747 121.68C112.259 121.893 112.696 122.192 113.059 122.576C113.421 122.96 113.704 123.424 113.907 123.968C114.109 124.512 114.211 125.115 114.211 125.776ZM111.779 125.776C111.779 125.04 111.629 124.464 111.331 124.048C111.043 123.621 110.627 123.408 110.083 123.408C109.539 123.408 109.117 123.621 108.819 124.048C108.52 124.464 108.371 125.04 108.371 125.776C108.371 126.512 108.52 127.099 108.819 127.536C109.117 127.963 109.539 128.176 110.083 128.176C110.627 128.176 111.043 127.963 111.331 127.536C111.629 127.099 111.779 126.512 111.779 125.776ZM116.058 121.872C116.463 121.755 116.986 121.648 117.626 121.552C118.266 121.445 118.938 121.392 119.641 121.392C120.356 121.392 120.948 121.488 121.418 121.68C121.898 121.861 122.276 122.123 122.554 122.464C122.831 122.805 123.028 123.211 123.146 123.68C123.263 124.149 123.322 124.672 123.322 125.248V130H120.938V125.536C120.938 124.768 120.836 124.224 120.634 123.904C120.431 123.584 120.052 123.424 119.498 123.424C119.327 123.424 119.146 123.435 118.954 123.456C118.762 123.467 118.591 123.483 118.442 123.504V130H116.058V121.872ZM125.399 119.488L127.783 119.104V121.584H130.647V123.568H127.783V126.528C127.783 127.029 127.869 127.429 128.039 127.728C128.221 128.027 128.578 128.176 129.111 128.176C129.367 128.176 129.629 128.155 129.895 128.112C130.173 128.059 130.423 127.989 130.647 127.904L130.983 129.76C130.695 129.877 130.375 129.979 130.023 130.064C129.671 130.149 129.239 130.192 128.727 130.192C128.077 130.192 127.538 130.107 127.111 129.936C126.685 129.755 126.343 129.509 126.087 129.2C125.831 128.88 125.65 128.496 125.543 128.048C125.447 127.6 125.399 127.104 125.399 126.56V119.488ZM134.973 130H132.589V121.584H134.973V130ZM135.197 119.152C135.197 119.589 135.053 119.936 134.765 120.192C134.487 120.437 134.157 120.56 133.773 120.56C133.389 120.56 133.053 120.437 132.765 120.192C132.487 119.936 132.349 119.589 132.349 119.152C132.349 118.715 132.487 118.373 132.765 118.128C133.053 117.872 133.389 117.744 133.773 117.744C134.157 117.744 134.487 117.872 134.765 118.128C135.053 118.373 135.197 118.715 135.197 119.152ZM140.43 128.336C140.664 128.336 140.888 128.331 141.102 128.32C141.315 128.309 141.486 128.293 141.614 128.272V126.464C141.518 126.443 141.374 126.421 141.182 126.4C140.99 126.379 140.814 126.368 140.654 126.368C140.43 126.368 140.216 126.384 140.014 126.416C139.822 126.437 139.651 126.485 139.502 126.56C139.352 126.635 139.235 126.736 139.15 126.864C139.064 126.992 139.022 127.152 139.022 127.344C139.022 127.717 139.144 127.979 139.39 128.128C139.646 128.267 139.992 128.336 140.43 128.336ZM140.238 121.36C140.942 121.36 141.528 121.44 141.998 121.6C142.467 121.76 142.84 121.989 143.118 122.288C143.406 122.587 143.608 122.949 143.726 123.376C143.843 123.803 143.902 124.277 143.902 124.8V129.76C143.56 129.835 143.086 129.92 142.478 130.016C141.87 130.123 141.134 130.176 140.27 130.176C139.726 130.176 139.23 130.128 138.782 130.032C138.344 129.936 137.966 129.781 137.646 129.568C137.326 129.344 137.08 129.056 136.91 128.704C136.739 128.352 136.654 127.92 136.654 127.408C136.654 126.917 136.75 126.501 136.942 126.16C137.144 125.819 137.411 125.547 137.742 125.344C138.072 125.141 138.451 124.997 138.878 124.912C139.304 124.816 139.747 124.768 140.206 124.768C140.515 124.768 140.787 124.784 141.022 124.816C141.267 124.837 141.464 124.869 141.614 124.912V124.688C141.614 124.283 141.491 123.957 141.246 123.712C141 123.467 140.574 123.344 139.966 123.344C139.56 123.344 139.16 123.376 138.766 123.44C138.371 123.493 138.03 123.573 137.742 123.68L137.438 121.76C137.576 121.717 137.747 121.675 137.95 121.632C138.163 121.579 138.392 121.536 138.638 121.504C138.883 121.461 139.139 121.429 139.406 121.408C139.683 121.376 139.96 121.36 140.238 121.36Z" fill="#2F2F2F"/>
<circle cx="100.415" cy="44.4148" r="40.4148" fill="#E5F2FF"/>
<path d="M135.876 13.8793C131.396 13.8793 127.752 17.5237 127.752 22.0036V43.0777L126.178 44.7051C125.765 43.7508 125.167 42.8603 124.384 42.0898C121.121 38.8785 115.841 38.9081 112.614 42.1555L100 54.8477L87.3863 42.1553C84.159 38.9075 78.8786 38.8783 75.6154 42.0896C74.8325 42.86 74.2344 43.7506 73.8217 44.7051L72.2482 43.0776V22.0036C72.2482 17.5239 68.6036 13.8793 64.124 13.8793C59.6444 13.8793 56 17.5237 56 22.0036V47.7136C56 50.3628 56.7171 52.9659 58.0735 55.2413L58.113 55.3078L73.3924 77.7623L71.6391 88H128.361L126.607 77.7621L141.843 55.3716L141.926 55.2413C143.283 52.9657 144 50.3628 144 47.7134V22.0036C144 17.5237 140.356 13.8793 135.876 13.8793ZM97.4219 82.8438H77.7535L78.8262 76.5817L62.4656 52.5384C61.6088 51.0759 61.1562 49.4093 61.1562 47.7134V22.0036C61.1562 20.3672 62.4876 19.0355 64.1242 19.0355C65.7608 19.0355 67.0921 20.367 67.0921 22.0036V45.1628L84.4391 63.127L84.4505 63.116L84.6859 63.3595L88.3928 59.7752L79.0371 50.0992C77.9692 48.8409 78.04 46.9379 79.232 45.765C80.4786 44.5382 82.4959 44.5497 83.7289 45.7901L97.4219 59.5683V82.8438ZM138.844 47.7134C138.844 49.4091 138.391 51.0758 137.534 52.5383L121.174 76.5817L122.246 82.8438H102.578V59.5683L116.271 45.7899C117.504 44.5492 119.521 44.5382 120.768 45.7648C121.96 46.9377 122.031 48.8407 120.963 50.099L111.607 59.7751L115.314 63.3593L115.55 63.1158L115.561 63.1268L132.908 45.1626V22.0036C132.908 20.3672 134.239 19.0355 135.876 19.0355C137.512 19.0355 138.844 20.367 138.844 22.0036V47.7134Z" fill="#00D5E2"/>
<path d="M85.3121 21.3125V23.6069C85.3121 28.4314 87.9056 32.9307 92.0808 35.3485L96.1013 37.6769H103.9L107.92 35.3485C112.095 32.9307 114.689 28.4316 114.689 23.6069V21.3127C117.378 18.9599 118.908 15.5402 118.836 11.9163C118.707 5.3967 113.296 0.0513906 106.773 0.00034375C106.741 0.000171875 106.709 0 106.676 0C104.272 0 101.968 0.695922 100 1.99289C98.0327 0.69575 95.7294 0 93.3252 0C93.2929 0 93.2604 0.000171875 93.2279 0.00034375C86.7056 0.0512188 81.294 5.39653 81.1645 11.9161C81.0925 15.5401 82.6224 18.9597 85.3121 21.3125ZM93.2681 5.15659C93.2869 5.15642 93.3054 5.15625 93.3242 5.15625C95.1572 5.15625 96.8884 5.85819 98.2042 7.13625L100 8.88061L101.797 7.13625C103.113 5.85819 104.844 5.15625 106.677 5.15625C106.696 5.15625 106.714 5.15642 106.733 5.15659C110.49 5.18581 113.607 8.26427 113.681 12.0187C113.728 14.3806 112.594 16.5923 110.647 17.9348L109.533 18.7034V23.6069C109.533 26.598 107.925 29.3875 105.336 30.8865L102.579 32.4835V21.9878H97.4224V32.4835L94.6648 30.8865C92.0762 29.3874 90.4681 26.598 90.4681 23.6069V18.7034L89.3537 17.9348C87.4069 16.5923 86.2727 14.3806 86.3198 12.0185C86.3944 8.26409 89.5113 5.18581 93.2681 5.15659Z" fill="#00D5E2"/>
<mask id="mask0" mask-type="alpha" maskUnits="userSpaceOnUse" x="60" y="4" width="81" height="81">
<circle cx="100.415" cy="44.4148" r="40.4148" fill="#E5F2FF"/>
</mask>
<g mask="url(#mask0)">
</g>
</svg>
