<svg width="200" height="136" viewBox="0 0 200 136" fill="none" xmlns="http://www.w3.org/2000/svg">
<path d="M72.086 130.224C70.2833 130.224 68.9073 129.723 67.958 128.72C67.0193 127.717 66.55 126.293 66.55 124.448C66.55 123.531 66.694 122.715 66.982 122C67.27 121.275 67.6647 120.667 68.166 120.176C68.6673 119.675 69.2647 119.296 69.958 119.04C70.6513 118.784 71.4033 118.656 72.214 118.656C72.6833 118.656 73.11 118.693 73.494 118.768C73.878 118.832 74.214 118.912 74.502 119.008C74.79 119.093 75.03 119.184 75.222 119.28C75.414 119.376 75.5527 119.451 75.638 119.504L74.918 121.52C74.5767 121.339 74.1767 121.184 73.718 121.056C73.27 120.928 72.758 120.864 72.182 120.864C71.798 120.864 71.4193 120.928 71.046 121.056C70.6833 121.184 70.358 121.392 70.07 121.68C69.7927 121.957 69.5687 122.32 69.398 122.768C69.2273 123.216 69.142 123.76 69.142 124.4C69.142 124.912 69.1953 125.392 69.302 125.84C69.4193 126.277 69.6007 126.656 69.846 126.976C70.102 127.296 70.4327 127.552 70.838 127.744C71.2433 127.925 71.734 128.016 72.31 128.016C72.6727 128.016 72.998 127.995 73.286 127.952C73.574 127.909 73.83 127.861 74.054 127.808C74.278 127.744 74.4753 127.675 74.646 127.6C74.8167 127.525 74.9713 127.456 75.11 127.392L75.798 129.392C75.446 129.605 74.95 129.797 74.31 129.968C73.67 130.139 72.9287 130.224 72.086 130.224ZM79.629 130H77.245V121.584H79.629V130ZM79.853 119.152C79.853 119.589 79.709 119.936 79.421 120.192C79.1437 120.437 78.813 120.56 78.429 120.56C78.045 120.56 77.709 120.437 77.421 120.192C77.1437 119.936 77.005 119.589 77.005 119.152C77.005 118.715 77.1437 118.373 77.421 118.128C77.709 117.872 78.045 117.744 78.429 117.744C78.813 117.744 79.1437 117.872 79.421 118.128C79.709 118.373 79.853 118.715 79.853 119.152ZM86.942 123.696C86.7287 123.643 86.478 123.589 86.19 123.536C85.902 123.472 85.5927 123.44 85.262 123.44C85.1127 123.44 84.9313 123.456 84.718 123.488C84.5153 123.509 84.3607 123.536 84.254 123.568V130H81.87V122.032C82.2967 121.883 82.798 121.744 83.374 121.616C83.9607 121.477 84.6113 121.408 85.326 121.408C85.454 121.408 85.6087 121.419 85.79 121.44C85.9713 121.451 86.1527 121.472 86.334 121.504C86.5153 121.525 86.6967 121.557 86.878 121.6C87.0593 121.632 87.214 121.675 87.342 121.728L86.942 123.696ZM95.804 129.712C95.3987 129.829 94.876 129.936 94.236 130.032C93.596 130.139 92.924 130.192 92.22 130.192C91.5053 130.192 90.908 130.096 90.428 129.904C89.9587 129.712 89.5853 129.445 89.308 129.104C89.0307 128.752 88.8333 128.336 88.716 127.856C88.5987 127.376 88.54 126.848 88.54 126.272V121.584H90.924V125.984C90.924 126.752 91.0253 127.307 91.228 127.648C91.4307 127.989 91.8093 128.16 92.364 128.16C92.5347 128.16 92.716 128.155 92.908 128.144C93.1 128.123 93.2707 128.101 93.42 128.08V121.584H95.804V129.712ZM103.114 123.696C102.901 123.643 102.65 123.589 102.362 123.536C102.074 123.472 101.765 123.44 101.434 123.44C101.285 123.44 101.103 123.456 100.89 123.488C100.687 123.509 100.533 123.536 100.426 123.568V130H98.0419V122.032C98.4685 121.883 98.9699 121.744 99.5459 121.616C100.133 121.477 100.783 121.408 101.498 121.408C101.626 121.408 101.781 121.419 101.962 121.44C102.143 121.451 102.325 121.472 102.506 121.504C102.687 121.525 102.869 121.557 103.05 121.6C103.231 121.632 103.386 121.675 103.514 121.728L103.114 123.696ZM106.668 125.52C106.668 126.853 107.206 127.52 108.284 127.52C108.529 127.52 108.758 127.488 108.972 127.424C109.185 127.36 109.366 127.285 109.516 127.2V123.392C109.398 123.371 109.26 123.355 109.1 123.344C108.94 123.323 108.753 123.312 108.54 123.312C107.91 123.312 107.441 123.52 107.132 123.936C106.822 124.352 106.668 124.88 106.668 125.52ZM111.9 128.944C111.9 130.32 111.548 131.339 110.844 132C110.15 132.672 109.073 133.008 107.612 133.008C107.1 133.008 106.588 132.96 106.076 132.864C105.564 132.779 105.089 132.661 104.652 132.512L105.068 130.512C105.441 130.661 105.83 130.779 106.236 130.864C106.652 130.949 107.121 130.992 107.644 130.992C108.326 130.992 108.806 130.843 109.084 130.544C109.372 130.245 109.516 129.861 109.516 129.392V129.088C109.26 129.205 108.993 129.296 108.716 129.36C108.449 129.413 108.156 129.44 107.836 129.44C106.673 129.44 105.782 129.099 105.164 128.416C104.545 127.723 104.236 126.757 104.236 125.52C104.236 124.901 104.332 124.341 104.524 123.84C104.716 123.328 104.993 122.891 105.356 122.528C105.729 122.165 106.182 121.888 106.716 121.696C107.249 121.493 107.852 121.392 108.524 121.392C108.812 121.392 109.105 121.408 109.404 121.44C109.713 121.461 110.017 121.493 110.316 121.536C110.614 121.579 110.897 121.632 111.164 121.696C111.441 121.749 111.686 121.808 111.9 121.872V128.944ZM116.52 130H114.136V121.584H116.52V130ZM116.744 119.152C116.744 119.589 116.6 119.936 116.312 120.192C116.034 120.437 115.704 120.56 115.32 120.56C114.936 120.56 114.6 120.437 114.312 120.192C114.034 119.936 113.896 119.589 113.896 119.152C113.896 118.715 114.034 118.373 114.312 118.128C114.6 117.872 114.936 117.744 115.32 117.744C115.704 117.744 116.034 117.872 116.312 118.128C116.6 118.373 116.744 118.715 116.744 119.152ZM121.977 128.336C122.211 128.336 122.435 128.331 122.649 128.32C122.862 128.309 123.033 128.293 123.161 128.272V126.464C123.065 126.443 122.921 126.421 122.729 126.4C122.537 126.379 122.361 126.368 122.201 126.368C121.977 126.368 121.763 126.384 121.561 126.416C121.369 126.437 121.198 126.485 121.049 126.56C120.899 126.635 120.782 126.736 120.697 126.864C120.611 126.992 120.569 127.152 120.569 127.344C120.569 127.717 120.691 127.979 120.937 128.128C121.193 128.267 121.539 128.336 121.977 128.336ZM121.785 121.36C122.489 121.36 123.075 121.44 123.545 121.6C124.014 121.76 124.387 121.989 124.665 122.288C124.953 122.587 125.155 122.949 125.273 123.376C125.39 123.803 125.449 124.277 125.449 124.8V129.76C125.107 129.835 124.633 129.92 124.025 130.016C123.417 130.123 122.681 130.176 121.817 130.176C121.273 130.176 120.777 130.128 120.329 130.032C119.891 129.936 119.513 129.781 119.193 129.568C118.873 129.344 118.627 129.056 118.457 128.704C118.286 128.352 118.201 127.92 118.201 127.408C118.201 126.917 118.297 126.501 118.489 126.16C118.691 125.819 118.958 125.547 119.289 125.344C119.619 125.141 119.998 124.997 120.425 124.912C120.851 124.816 121.294 124.768 121.753 124.768C122.062 124.768 122.334 124.784 122.569 124.816C122.814 124.837 123.011 124.869 123.161 124.912V124.688C123.161 124.283 123.038 123.957 122.793 123.712C122.547 123.467 122.121 123.344 121.513 123.344C121.107 123.344 120.707 123.376 120.313 123.44C119.918 123.493 119.577 123.573 119.289 123.68L118.985 121.76C119.123 121.717 119.294 121.675 119.497 121.632C119.71 121.579 119.939 121.536 120.185 121.504C120.43 121.461 120.686 121.429 120.953 121.408C121.23 121.376 121.507 121.36 121.785 121.36ZM130.02 128.288C130.458 128.288 130.767 128.245 130.948 128.16C131.13 128.075 131.22 127.909 131.22 127.664C131.22 127.472 131.103 127.307 130.868 127.168C130.634 127.019 130.276 126.853 129.796 126.672C129.423 126.533 129.082 126.389 128.772 126.24C128.474 126.091 128.218 125.915 128.004 125.712C127.791 125.499 127.626 125.248 127.508 124.96C127.391 124.672 127.332 124.325 127.332 123.92C127.332 123.131 127.626 122.507 128.212 122.048C128.799 121.589 129.604 121.36 130.628 121.36C131.14 121.36 131.631 121.408 132.1 121.504C132.57 121.589 132.943 121.685 133.22 121.792L132.804 123.648C132.527 123.552 132.223 123.467 131.892 123.392C131.572 123.317 131.21 123.28 130.804 123.28C130.058 123.28 129.684 123.488 129.684 123.904C129.684 124 129.7 124.085 129.732 124.16C129.764 124.235 129.828 124.309 129.924 124.384C130.02 124.448 130.148 124.523 130.308 124.608C130.479 124.683 130.692 124.768 130.948 124.864C131.471 125.056 131.903 125.248 132.244 125.44C132.586 125.621 132.852 125.824 133.044 126.048C133.247 126.261 133.386 126.501 133.46 126.768C133.546 127.035 133.588 127.344 133.588 127.696C133.588 128.528 133.274 129.157 132.644 129.584C132.026 130.011 131.146 130.224 130.004 130.224C129.258 130.224 128.634 130.16 128.132 130.032C127.642 129.904 127.3 129.797 127.108 129.712L127.508 127.776C127.914 127.936 128.33 128.064 128.756 128.16C129.183 128.245 129.604 128.288 130.02 128.288Z" fill="#2F2F2F"/>
<circle cx="100.415" cy="44.4148" r="40.4148" fill="#E5F2FF"/>
<path d="M56 0.0652466V68.0382H97.5061C98.2342 72.9659 100.512 77.513 104.099 81.0998C108.656 85.6571 114.64 87.935 120.626 87.935C126.611 87.935 132.598 85.6561 137.154 81.0998C141.485 76.7686 143.756 71.1462 143.971 65.4601H144V0.0652466H56ZM84.793 37.2315L86.9176 33.5587L93.1236 49.5912L100.571 31.4207L106.057 43.2396L111.997 34.2405L113.985 38.7311H128.531V42.5787C120.281 39.6285 110.694 41.4495 104.099 48.0445C102.721 49.4219 101.537 50.9409 100.559 52.5688H71.4694V37.2315H84.793ZM71.4694 32.0751V16.5659H128.531V33.5747H117.341L112.892 23.5236L106.844 32.6875L100.277 18.5415L93.2603 35.6607L87.8419 21.6629L81.8187 32.0751H71.4694ZM133.508 77.4539C126.405 84.5568 114.848 84.5566 107.745 77.4539C100.642 70.3508 100.642 58.7936 107.745 51.6905C111.297 48.1387 115.961 46.3634 120.626 46.3634C125.291 46.3634 129.957 48.1395 133.508 51.6905C140.611 58.7934 140.611 70.351 133.508 77.4539ZM138.844 49.9279C138.32 49.2775 137.758 48.6481 137.154 48.0445C136.073 46.9631 134.91 46.0117 133.687 45.1869V11.4097H66.3132V57.725H98.2666C97.7596 59.3884 97.4382 61.1158 97.3129 62.882H61.1562V5.2215H138.844V49.9279Z" fill="#00D5E2"/>
<path d="M131.431 59.5633C131.218 55.8446 128.257 52.8375 124.543 52.5685C123.177 52.4707 121.823 52.7502 120.625 53.3572C119.428 52.7504 118.075 52.469 116.71 52.5685C113.045 52.8325 110.086 55.7956 109.826 59.461C109.72 60.9567 110.057 62.4183 110.786 63.6904C110.18 67.2463 110.742 72.8601 115.987 76.1933L118.724 77.9323L120.559 72.724L122.435 78.0466L125.208 76.1425C130.214 72.705 130.825 67.198 130.355 63.8787C131.142 62.5955 131.519 61.104 131.431 59.5633ZM125.695 61.5352L124.743 62.5856L125.12 63.9518C125.13 63.9872 125.756 66.4998 124.703 68.9695L123.647 65.9749C123.187 64.6675 121.945 63.7889 120.559 63.7889C119.172 63.7889 117.931 64.6673 117.47 65.9749L116.362 69.1192C115.255 66.652 115.98 64.013 116.024 63.8592L116.403 62.5316L115.509 61.4802C115.118 61.0206 114.926 60.4328 114.969 59.8253C115.047 58.7194 115.975 57.7909 117.08 57.7112C117.138 57.7071 117.196 57.705 117.254 57.705C117.85 57.705 118.408 57.9283 118.84 58.3433L120.625 60.0547L122.409 58.3433C122.884 57.888 123.51 57.6641 124.17 57.7112C125.291 57.7923 126.218 58.7352 126.283 59.8579V59.8581C126.319 60.4813 126.11 61.0767 125.695 61.5352Z" fill="#00D5E2"/>
</svg>
