<svg width="200" height="136" viewBox="0 0 200 136" fill="none" xmlns="http://www.w3.org/2000/svg">
<path d="M60.4186 118.784C62.0826 118.784 63.3573 119.083 64.2426 119.68C65.128 120.267 65.5706 121.184 65.5706 122.432C65.5706 123.211 65.3893 123.845 65.0266 124.336C64.6746 124.816 64.1626 125.195 63.4906 125.472C63.7146 125.749 63.9493 126.069 64.1946 126.432C64.44 126.784 64.68 127.157 64.9146 127.552C65.16 127.936 65.3946 128.341 65.6186 128.768C65.8426 129.184 66.0506 129.595 66.2426 130H63.4426C63.24 129.637 63.032 129.269 62.8186 128.896C62.616 128.523 62.4026 128.16 62.1786 127.808C61.9653 127.456 61.752 127.125 61.5386 126.816C61.3253 126.496 61.112 126.208 60.8986 125.952H59.6666V130H57.1706V119.072C57.7146 118.965 58.2746 118.891 58.8506 118.848C59.4373 118.805 59.96 118.784 60.4186 118.784ZM60.5626 120.912C60.3813 120.912 60.216 120.917 60.0666 120.928C59.928 120.939 59.7946 120.949 59.6666 120.96V123.968H60.3706C61.3093 123.968 61.9813 123.851 62.3866 123.616C62.792 123.381 62.9946 122.981 62.9946 122.416C62.9946 121.872 62.7866 121.488 62.3706 121.264C61.9653 121.029 61.3626 120.912 60.5626 120.912ZM70.4923 128.336C70.7269 128.336 70.9509 128.331 71.1643 128.32C71.3776 128.309 71.5483 128.293 71.6763 128.272V126.464C71.5803 126.443 71.4363 126.421 71.2443 126.4C71.0523 126.379 70.8763 126.368 70.7163 126.368C70.4923 126.368 70.2789 126.384 70.0763 126.416C69.8843 126.437 69.7136 126.485 69.5643 126.56C69.4149 126.635 69.2976 126.736 69.2123 126.864C69.1269 126.992 69.0843 127.152 69.0843 127.344C69.0843 127.717 69.2069 127.979 69.4523 128.128C69.7083 128.267 70.0549 128.336 70.4923 128.336ZM70.3003 121.36C71.0043 121.36 71.5909 121.44 72.0603 121.6C72.5296 121.76 72.9029 121.989 73.1803 122.288C73.4683 122.587 73.6709 122.949 73.7883 123.376C73.9056 123.803 73.9643 124.277 73.9643 124.8V129.76C73.6229 129.835 73.1483 129.92 72.5403 130.016C71.9323 130.123 71.1963 130.176 70.3323 130.176C69.7883 130.176 69.2923 130.128 68.8443 130.032C68.4069 129.936 68.0283 129.781 67.7083 129.568C67.3883 129.344 67.1429 129.056 66.9723 128.704C66.8016 128.352 66.7163 127.92 66.7163 127.408C66.7163 126.917 66.8123 126.501 67.0043 126.16C67.2069 125.819 67.4736 125.547 67.8043 125.344C68.1349 125.141 68.5136 124.997 68.9403 124.912C69.3669 124.816 69.8096 124.768 70.2682 124.768C70.5776 124.768 70.8496 124.784 71.0843 124.816C71.3296 124.837 71.5269 124.869 71.6763 124.912V124.688C71.6763 124.283 71.5536 123.957 71.3083 123.712C71.0629 123.467 70.6363 123.344 70.0283 123.344C69.6229 123.344 69.2229 123.376 68.8283 123.44C68.4336 123.493 68.0923 123.573 67.8043 123.68L67.5003 121.76C67.6389 121.717 67.8096 121.675 68.0123 121.632C68.2256 121.579 68.4549 121.536 68.7003 121.504C68.9456 121.461 69.2016 121.429 69.4683 121.408C69.7456 121.376 70.0229 121.36 70.3003 121.36ZM78.152 125.728C78.152 126.464 78.3173 127.056 78.648 127.504C78.9787 127.952 79.4693 128.176 80.12 128.176C80.3333 128.176 80.5307 128.171 80.712 128.16C80.8933 128.139 81.0427 128.117 81.16 128.096V123.76C81.0107 123.664 80.8133 123.584 80.568 123.52C80.3333 123.456 80.0933 123.424 79.848 123.424C78.7173 123.424 78.152 124.192 78.152 125.728ZM83.544 129.728C83.3307 129.792 83.0853 129.856 82.808 129.92C82.5307 129.973 82.2373 130.021 81.928 130.064C81.6293 130.107 81.32 130.139 81 130.16C80.6907 130.192 80.392 130.208 80.104 130.208C79.4107 130.208 78.792 130.107 78.248 129.904C77.704 129.701 77.2453 129.413 76.872 129.04C76.4987 128.656 76.2107 128.197 76.008 127.664C75.816 127.12 75.72 126.512 75.72 125.84C75.72 125.157 75.8053 124.544 75.976 124C76.1467 123.445 76.392 122.976 76.712 122.592C77.032 122.208 77.4213 121.915 77.88 121.712C78.3493 121.509 78.8827 121.408 79.48 121.408C79.8107 121.408 80.104 121.44 80.36 121.504C80.6267 121.568 80.8933 121.659 81.16 121.776V117.968L83.544 117.584V129.728ZM88.1603 130H85.7763V121.584H88.1603V130ZM88.3843 119.152C88.3843 119.589 88.2403 119.936 87.9523 120.192C87.6749 120.437 87.3443 120.56 86.9603 120.56C86.5763 120.56 86.2403 120.437 85.9523 120.192C85.6749 119.936 85.5363 119.589 85.5363 119.152C85.5363 118.715 85.6749 118.373 85.9523 118.128C86.2403 117.872 86.5763 117.744 86.9603 117.744C87.3443 117.744 87.6749 117.872 87.9523 118.128C88.2403 118.373 88.3843 118.715 88.3843 119.152ZM98.2733 125.776C98.2733 126.437 98.1773 127.045 97.9853 127.6C97.7933 128.144 97.5159 128.613 97.1533 129.008C96.7906 129.392 96.3533 129.691 95.8413 129.904C95.3399 130.117 94.7746 130.224 94.1453 130.224C93.5266 130.224 92.9613 130.117 92.4493 129.904C91.9479 129.691 91.5159 129.392 91.1533 129.008C90.7906 128.613 90.5079 128.144 90.3053 127.6C90.1026 127.045 90.0013 126.437 90.0013 125.776C90.0013 125.115 90.1026 124.512 90.3053 123.968C90.5186 123.424 90.8066 122.96 91.1693 122.576C91.5426 122.192 91.9799 121.893 92.4813 121.68C92.9933 121.467 93.5479 121.36 94.1453 121.36C94.7533 121.36 95.3079 121.467 95.8093 121.68C96.3213 121.893 96.7586 122.192 97.1213 122.576C97.4839 122.96 97.7666 123.424 97.9693 123.968C98.1719 124.512 98.2733 125.115 98.2733 125.776ZM95.8413 125.776C95.8413 125.04 95.6919 124.464 95.3933 124.048C95.1053 123.621 94.6893 123.408 94.1453 123.408C93.6013 123.408 93.1799 123.621 92.8813 124.048C92.5826 124.464 92.4333 125.04 92.4333 125.776C92.4333 126.512 92.5826 127.099 92.8813 127.536C93.1799 127.963 93.6013 128.176 94.1453 128.176C94.6893 128.176 95.1053 127.963 95.3933 127.536C95.6919 127.099 95.8413 126.512 95.8413 125.776ZM102.152 125.52C102.152 126.853 102.691 127.52 103.768 127.52C104.013 127.52 104.243 127.488 104.456 127.424C104.669 127.36 104.851 127.285 105 127.2V123.392C104.883 123.371 104.744 123.355 104.584 123.344C104.424 123.323 104.237 123.312 104.024 123.312C103.395 123.312 102.925 123.52 102.616 123.936C102.307 124.352 102.152 124.88 102.152 125.52ZM107.384 128.944C107.384 130.32 107.032 131.339 106.328 132C105.635 132.672 104.557 133.008 103.096 133.008C102.584 133.008 102.072 132.96 101.56 132.864C101.048 132.779 100.573 132.661 100.136 132.512L100.552 130.512C100.925 130.661 101.315 130.779 101.72 130.864C102.136 130.949 102.605 130.992 103.128 130.992C103.811 130.992 104.291 130.843 104.568 130.544C104.856 130.245 105 129.861 105 129.392V129.088C104.744 129.205 104.477 129.296 104.2 129.36C103.933 129.413 103.64 129.44 103.32 129.44C102.157 129.44 101.267 129.099 100.648 128.416C100.029 127.723 99.72 126.757 99.72 125.52C99.72 124.901 99.816 124.341 100.008 123.84C100.2 123.328 100.477 122.891 100.84 122.528C101.213 122.165 101.667 121.888 102.2 121.696C102.733 121.493 103.336 121.392 104.008 121.392C104.296 121.392 104.589 121.408 104.888 121.44C105.197 121.461 105.501 121.493 105.8 121.536C106.099 121.579 106.381 121.632 106.648 121.696C106.925 121.749 107.171 121.808 107.384 121.872V128.944ZM114.692 123.696C114.479 123.643 114.228 123.589 113.94 123.536C113.652 123.472 113.343 123.44 113.012 123.44C112.863 123.44 112.681 123.456 112.468 123.488C112.265 123.509 112.111 123.536 112.004 123.568V130H109.62V122.032C110.047 121.883 110.548 121.744 111.124 121.616C111.711 121.477 112.361 121.408 113.076 121.408C113.204 121.408 113.359 121.419 113.54 121.44C113.721 121.451 113.903 121.472 114.084 121.504C114.265 121.525 114.447 121.557 114.628 121.6C114.809 121.632 114.964 121.675 115.092 121.728L114.692 123.696ZM119.43 128.336C119.664 128.336 119.888 128.331 120.102 128.32C120.315 128.309 120.486 128.293 120.614 128.272V126.464C120.518 126.443 120.374 126.421 120.182 126.4C119.99 126.379 119.814 126.368 119.654 126.368C119.43 126.368 119.216 126.384 119.014 126.416C118.822 126.437 118.651 126.485 118.502 126.56C118.352 126.635 118.235 126.736 118.15 126.864C118.064 126.992 118.022 127.152 118.022 127.344C118.022 127.717 118.144 127.979 118.39 128.128C118.646 128.267 118.992 128.336 119.43 128.336ZM119.238 121.36C119.942 121.36 120.528 121.44 120.998 121.6C121.467 121.76 121.84 121.989 122.118 122.288C122.406 122.587 122.608 122.949 122.726 123.376C122.843 123.803 122.902 124.277 122.902 124.8V129.76C122.56 129.835 122.086 129.92 121.478 130.016C120.87 130.123 120.134 130.176 119.27 130.176C118.726 130.176 118.23 130.128 117.782 130.032C117.344 129.936 116.966 129.781 116.646 129.568C116.326 129.344 116.08 129.056 115.91 128.704C115.739 128.352 115.654 127.92 115.654 127.408C115.654 126.917 115.75 126.501 115.942 126.16C116.144 125.819 116.411 125.547 116.742 125.344C117.072 125.141 117.451 124.997 117.878 124.912C118.304 124.816 118.747 124.768 119.206 124.768C119.515 124.768 119.787 124.784 120.022 124.816C120.267 124.837 120.464 124.869 120.614 124.912V124.688C120.614 124.283 120.491 123.957 120.246 123.712C120 123.467 119.574 123.344 118.966 123.344C118.56 123.344 118.16 123.376 117.766 123.44C117.371 123.493 117.03 123.573 116.742 123.68L116.438 121.76C116.576 121.717 116.747 121.675 116.95 121.632C117.163 121.579 117.392 121.536 117.638 121.504C117.883 121.461 118.139 121.429 118.406 121.408C118.683 121.376 118.96 121.36 119.238 121.36ZM128.706 117.584C129.154 117.584 129.522 117.621 129.81 117.696C130.108 117.771 130.359 117.851 130.562 117.936L130.146 119.808C129.975 119.733 129.783 119.68 129.57 119.648C129.367 119.616 129.159 119.6 128.946 119.6C128.658 119.6 128.412 119.643 128.21 119.728C128.018 119.803 127.863 119.909 127.746 120.048C127.639 120.187 127.559 120.352 127.506 120.544C127.463 120.736 127.442 120.944 127.442 121.168V121.584H130.386V123.568H127.442V130H125.058V121.136C125.058 120.048 125.362 119.184 125.97 118.544C126.588 117.904 127.5 117.584 128.706 117.584ZM134.146 130H131.762V121.584H134.146V130ZM134.37 119.152C134.37 119.589 134.226 119.936 133.938 120.192C133.66 120.437 133.33 120.56 132.946 120.56C132.562 120.56 132.226 120.437 131.938 120.192C131.66 119.936 131.522 119.589 131.522 119.152C131.522 118.715 131.66 118.373 131.938 118.128C132.226 117.872 132.562 117.744 132.946 117.744C133.33 117.744 133.66 117.872 133.938 118.128C134.226 118.373 134.37 118.715 134.37 119.152ZM139.602 128.336C139.836 128.336 140.06 128.331 140.274 128.32C140.487 128.309 140.658 128.293 140.786 128.272V126.464C140.69 126.443 140.546 126.421 140.354 126.4C140.162 126.379 139.986 126.368 139.826 126.368C139.602 126.368 139.388 126.384 139.186 126.416C138.994 126.437 138.823 126.485 138.674 126.56C138.524 126.635 138.407 126.736 138.322 126.864C138.236 126.992 138.194 127.152 138.194 127.344C138.194 127.717 138.316 127.979 138.562 128.128C138.818 128.267 139.164 128.336 139.602 128.336ZM139.41 121.36C140.114 121.36 140.7 121.44 141.17 121.6C141.639 121.76 142.012 121.989 142.29 122.288C142.578 122.587 142.78 122.949 142.898 123.376C143.015 123.803 143.074 124.277 143.074 124.8V129.76C142.732 129.835 142.258 129.92 141.65 130.016C141.042 130.123 140.306 130.176 139.442 130.176C138.898 130.176 138.402 130.128 137.954 130.032C137.516 129.936 137.138 129.781 136.818 129.568C136.498 129.344 136.252 129.056 136.082 128.704C135.911 128.352 135.826 127.92 135.826 127.408C135.826 126.917 135.922 126.501 136.114 126.16C136.316 125.819 136.583 125.547 136.914 125.344C137.244 125.141 137.623 124.997 138.05 124.912C138.476 124.816 138.919 124.768 139.378 124.768C139.687 124.768 139.959 124.784 140.194 124.816C140.439 124.837 140.636 124.869 140.786 124.912V124.688C140.786 124.283 140.663 123.957 140.418 123.712C140.172 123.467 139.746 123.344 139.138 123.344C138.732 123.344 138.332 123.376 137.938 123.44C137.543 123.493 137.202 123.573 136.914 123.68L136.61 121.76C136.748 121.717 136.919 121.675 137.122 121.632C137.335 121.579 137.564 121.536 137.81 121.504C138.055 121.461 138.311 121.429 138.578 121.408C138.855 121.376 139.132 121.36 139.41 121.36Z" fill="#2F2F2F"/>
<circle cx="100.415" cy="44.4148" r="40.4148" fill="#E5F2FF"/>
<path d="M73.2034 26.0115H68.0332V31.1817H73.2034V26.0115Z" fill="#00D5E2"/>
<path d="M91.2114 36.3519H68.0332V41.5221H91.2114V36.3519Z" fill="#00D5E2"/>
<path d="M91.2114 46.6943H68.0332V51.8645H91.2114V46.6943Z" fill="#00D5E2"/>
<path d="M133.659 25.796V15.4554H56V62.2042H66.3405V72.5448H144V25.796H133.659ZM61.1702 57.0341V20.6258H128.489V57.0341H61.1702ZM138.83 67.3744H71.5107V62.2042H133.659V30.9661H138.83V67.3744H138.83Z" fill="#00D5E2"/>
<path d="M121.214 33.1182C121.001 29.3891 118.032 26.3739 114.308 26.1045C112.938 26.0061 111.58 26.2864 110.379 26.8952C109.179 26.2869 107.821 26.0059 106.453 26.1044C102.778 26.3691 99.8108 29.3401 99.5504 33.0155C99.444 34.5154 99.7821 35.981 100.513 37.2565C99.9052 40.8219 100.469 46.4509 105.728 49.7932L108.472 51.5369L110.313 46.3143L112.195 51.6515L114.975 49.7423C119.995 46.2954 120.607 40.7736 120.136 37.4452C120.925 36.1585 121.303 34.6631 121.214 33.1182ZM115.463 35.0952L114.508 36.1486L114.887 37.5186C114.896 37.5542 115.524 40.0735 114.469 42.5499L113.41 39.5472C112.948 38.2362 111.703 37.3553 110.313 37.3553C108.923 37.3553 107.679 38.2362 107.216 39.5472L106.105 42.7001C104.995 40.2263 105.722 37.5801 105.766 37.4258L106.146 36.0944L105.249 35.0402C104.857 34.5792 104.665 33.9898 104.708 33.3807C104.786 32.2719 105.716 31.3409 106.825 31.261C106.883 31.2568 106.941 31.2548 106.999 31.2548C107.596 31.2548 108.156 31.4786 108.59 31.8947L110.379 33.611L112.168 31.8948C112.644 31.4383 113.271 31.2132 113.934 31.2611C115.058 31.3424 115.988 32.2879 116.053 33.4137C116.089 34.0386 115.879 34.6357 115.463 35.0952Z" fill="#00D5E2"/>
</svg>
