<svg width="540" height="129" viewBox="0 0 540 129" fill="none" xmlns="http://www.w3.org/2000/svg">
<path d="M124.195 76.9557C120.832 75.8665 118.171 74.4113 116.213 72.6078L119.217 65.4029C121.133 67.0189 123.484 68.3402 126.271 69.358C129.057 70.3847 131.852 70.8936 134.655 70.8936C138.127 70.8936 140.721 70.2954 142.436 69.108C144.152 67.9206 145.013 66.3493 145.013 64.403C145.013 62.9745 144.537 61.796 143.574 60.8764C142.612 59.9479 141.399 59.2247 139.934 58.698C138.462 58.1802 136.462 57.582 133.918 56.9124C130.354 56.0107 127.467 55.1089 125.266 54.1983C123.057 53.2965 121.166 51.877 119.585 49.9575C118.004 48.029 117.209 45.431 117.209 42.1455C117.209 39.3867 117.911 36.878 119.317 34.6192C120.723 32.3604 122.84 30.5659 125.668 29.2356C128.496 27.9053 131.96 27.2357 136.06 27.2357C138.914 27.2357 141.717 27.6196 144.478 28.3785C147.239 29.1374 149.624 30.2355 151.632 31.6551L148.888 38.86C146.838 37.5743 144.704 36.6012 142.47 35.9405C140.244 35.2709 138.077 34.9406 135.985 34.9406C132.554 34.9406 130.002 35.5566 128.329 36.7976C126.655 38.0386 125.819 39.6724 125.819 41.7169C125.819 43.1454 126.296 44.306 127.258 45.2078C128.212 46.1095 129.433 46.8237 130.898 47.3505C132.37 47.8772 134.37 48.4665 136.914 49.1361C140.386 49.9932 143.24 50.886 145.465 51.8145C147.691 52.743 149.599 54.1536 151.18 56.0553C152.762 57.957 153.557 60.5282 153.557 63.7602C153.557 66.5189 152.854 69.0098 151.448 71.2507C150.042 73.4827 147.917 75.2683 145.064 76.5986C142.21 77.9289 138.738 78.5985 134.638 78.5985C131.048 78.5896 127.559 78.0449 124.195 76.9557Z" fill="#00309E"/>
<path d="M167.205 72.7776C163.598 68.9028 161.791 63.3585 161.791 56.1269V27.959H170.476V55.7697C170.476 65.5637 174.443 70.4563 182.375 70.4563C190.257 70.4563 194.206 65.5637 194.206 55.7697V27.959H202.758V56.1269C202.758 63.3496 200.967 68.9028 197.378 72.7776C193.788 76.6523 188.768 78.5897 182.308 78.5897C175.848 78.5897 170.811 76.6523 167.205 72.7776Z" fill="#00309E"/>
<path d="M244.754 30.1017C247.758 31.5302 250.067 33.5747 251.674 36.2353C253.28 38.8958 254.084 42.0563 254.084 45.7168C254.084 49.3326 253.28 52.4842 251.674 55.1626C250.067 57.85 247.766 59.9034 244.754 61.3319C241.75 62.7604 238.219 63.4746 234.161 63.4746H223.601V77.8755H214.916V27.959H234.161C238.219 27.959 241.75 28.6733 244.754 30.1017ZM242.386 53.0645C244.344 51.3504 245.323 48.9041 245.323 45.7168C245.323 42.5295 244.344 40.0832 242.386 38.3691C240.428 36.6549 237.55 35.7978 233.768 35.7978H223.61V55.618H233.768C237.55 55.6269 240.428 54.7787 242.386 53.0645Z" fill="#00309E"/>
<path d="M297.852 70.1081V77.8844H262.768V27.959H296.915V35.7353H271.453V48.7166H294.045V56.3501H271.453V70.117H297.852V70.1081Z" fill="#00309E"/>
<path d="M338.151 77.8755L328.595 63.2603C328.194 63.305 327.591 63.3317 326.788 63.3317H316.228V77.8755H307.543V27.959H326.788C330.838 27.959 334.377 28.6733 337.381 30.1017C340.385 31.5302 342.694 33.5747 344.301 36.2353C345.908 38.8958 346.711 42.0563 346.711 45.7168C346.711 49.4755 345.849 52.7074 344.134 55.4126C342.418 58.1178 339.958 60.1444 336.745 61.4747L347.506 77.8755H338.151ZM335.013 38.378C333.055 36.6638 330.177 35.8067 326.395 35.8067H316.237V55.6983H326.395C330.185 55.6983 333.055 54.8323 335.013 53.0913C336.971 51.3593 337.95 48.8952 337.95 45.7079C337.95 42.5384 336.971 40.0832 335.013 38.378Z" fill="#00309E"/>
<path d="M48.8307 49.8994L48.9395 49.8458C48.906 49.7922 48.8726 49.7297 48.8475 49.6762C48.814 49.6851 48.7721 49.6851 48.7303 49.694L24.6155 61.1754C20.9756 62.9075 16.6999 61.1576 15.0766 57.2828C13.4533 53.4081 15.0934 48.8369 18.7248 47.1049L42.8564 35.6235L37.0578 21.7494L37.108 21.7226C37.0494 21.6691 36.9908 21.6155 36.949 21.553L12.8425 33.0255C1.92307 38.2216 -2.9886 51.9171 1.88123 63.5681C6.75106 75.2102 19.595 80.4599 30.5061 75.2638L54.6377 63.7735L48.8307 49.8994Z" fill="#00D5E2"/>
<path d="M59.6576 77.6686L26.1055 93.6399L31.7438 107.125L65.2959 91.1538L59.6576 77.6686Z" fill="#00D5E2"/>
<path d="M95.3692 36.668C91.7043 27.4454 83.0106 22.1243 74.1328 22.7849C74.1244 19.8298 73.5805 16.821 72.4342 13.9373C67.8237 2.3309 55.2224 -3.10624 44.3448 1.81308L31.5762 7.58949L37.1572 21.6243L49.9259 15.8479C53.549 14.2051 57.7494 16.0175 59.2806 19.8833C60.8202 23.7492 59.1216 28.231 55.4986 29.8648L42.7299 35.6413L48.311 49.6761L56.3353 46.0424L72.8609 38.5607C76.484 36.918 80.6844 38.7303 82.2157 42.5962C83.7553 46.462 82.0567 50.9438 78.4336 52.5777L53.9171 63.6841L59.4982 77.7189L84.0063 66.6303C94.8839 61.711 99.9797 48.2654 95.3692 36.668Z" fill="#00D5E2"/>
<path d="M366.916 106.559C364.003 106.559 361.371 105.931 359.019 104.675C356.694 103.419 354.864 101.695 353.527 99.5038C352.218 97.2858 351.563 94.8006 351.563 92.0481C351.563 89.2956 352.218 86.8237 353.527 84.6325C354.864 82.4145 356.694 80.6775 359.019 79.4215C361.371 78.1655 364.003 77.5375 366.916 77.5375C369.828 77.5375 372.447 78.1655 374.772 79.4215C377.097 80.6775 378.928 82.4145 380.264 84.6325C381.6 86.8237 382.268 89.2956 382.268 92.0481C382.268 94.8006 381.6 97.2858 380.264 99.5038C378.928 101.695 377.097 103.419 374.772 104.675C372.447 105.931 369.828 106.559 366.916 106.559ZM366.916 101.027C368.572 101.027 370.069 100.653 371.405 99.9046C372.741 99.1297 373.783 98.0608 374.532 96.6979C375.307 95.335 375.694 93.7851 375.694 92.0481C375.694 90.3111 375.307 88.7612 374.532 87.3983C373.783 86.0354 372.741 84.9799 371.405 84.2316C370.069 83.4567 368.572 83.0692 366.916 83.0692C365.259 83.0692 363.762 83.4567 362.426 84.2316C361.09 84.9799 360.034 86.0354 359.26 87.3983C358.511 88.7612 358.137 90.3111 358.137 92.0481C358.137 93.7851 358.511 95.335 359.26 96.6979C360.034 98.0608 361.09 99.1297 362.426 99.9046C363.762 100.653 365.259 101.027 366.916 101.027ZM408.674 76.335V106.078H402.701V103.592C401.151 105.463 398.906 106.398 395.967 106.398C393.936 106.398 392.092 105.944 390.435 105.035C388.805 104.127 387.522 102.831 386.587 101.147C385.652 99.4637 385.184 97.5129 385.184 95.2949C385.184 93.0769 385.652 91.1261 386.587 89.4426C387.522 87.7591 388.805 86.463 390.435 85.5544C392.092 84.6458 393.936 84.1915 395.967 84.1915C398.719 84.1915 400.87 85.06 402.42 86.797V76.335H408.674ZM397.049 101.268C398.626 101.268 399.935 100.733 400.977 99.6641C402.02 98.5685 402.541 97.1121 402.541 95.2949C402.541 93.4778 402.02 92.0347 400.977 90.9658C399.935 89.8702 398.626 89.3223 397.049 89.3223C395.446 89.3223 394.123 89.8702 393.081 90.9658C392.039 92.0347 391.517 93.4778 391.517 95.2949C391.517 97.1121 392.039 98.5685 393.081 99.6641C394.123 100.733 395.446 101.268 397.049 101.268ZM424.723 106.398C422.451 106.398 420.407 105.931 418.59 104.995C416.799 104.033 415.396 102.711 414.381 101.027C413.365 99.3435 412.858 97.4328 412.858 95.2949C412.858 93.1571 413.365 91.2464 414.381 89.5629C415.396 87.8793 416.799 86.5699 418.59 85.6346C420.407 84.6726 422.451 84.1915 424.723 84.1915C426.994 84.1915 429.025 84.6726 430.816 85.6346C432.606 86.5699 434.009 87.8793 435.024 89.5629C436.04 91.2464 436.548 93.1571 436.548 95.2949C436.548 97.4328 436.04 99.3435 435.024 101.027C434.009 102.711 432.606 104.033 430.816 104.995C429.025 105.931 426.994 106.398 424.723 106.398ZM424.723 101.268C426.326 101.268 427.635 100.733 428.651 99.6641C429.693 98.5685 430.214 97.1121 430.214 95.2949C430.214 93.4778 429.693 92.0347 428.651 90.9658C427.635 89.8702 426.326 89.3223 424.723 89.3223C423.119 89.3223 421.797 89.8702 420.754 90.9658C419.712 92.0347 419.191 93.4778 419.191 95.2949C419.191 97.1121 419.712 98.5685 420.754 99.6641C421.797 100.733 423.119 101.268 424.723 101.268ZM453.835 84.1915C456.507 84.1915 458.658 84.9932 460.289 86.5966C461.945 88.2 462.774 90.5783 462.774 93.7316V106.078H456.521V94.6937C456.521 92.9834 456.146 91.714 455.398 90.8856C454.65 90.0305 453.568 89.6029 452.151 89.6029C450.575 89.6029 449.319 90.0973 448.383 91.0861C447.448 92.0481 446.981 93.4911 446.981 95.4152V106.078H440.727V84.5122H446.7V87.0375C447.528 86.129 448.557 85.4342 449.786 84.9531C451.016 84.4454 452.365 84.1915 453.835 84.1915ZM482.351 105.035C481.737 105.49 480.975 105.837 480.066 106.078C479.185 106.291 478.249 106.398 477.261 106.398C474.695 106.398 472.704 105.744 471.288 104.434C469.898 103.125 469.204 101.201 469.204 98.662V89.8034H465.877V84.9932H469.204V79.7422H475.457V84.9932H480.828V89.8034H475.457V98.5818C475.457 99.4904 475.684 100.199 476.138 100.706C476.619 101.187 477.287 101.428 478.142 101.428C479.131 101.428 479.973 101.161 480.668 100.626L482.351 105.035ZM495.458 106.398C493.186 106.398 491.142 105.931 489.325 104.995C487.534 104.033 486.131 102.711 485.116 101.027C484.1 99.3435 483.593 97.4328 483.593 95.2949C483.593 93.1571 484.1 91.2464 485.116 89.5629C486.131 87.8793 487.534 86.5699 489.325 85.6346C491.142 84.6726 493.186 84.1915 495.458 84.1915C497.729 84.1915 499.76 84.6726 501.55 85.6346C503.341 86.5699 504.744 87.8793 505.759 89.5629C506.775 91.2464 507.283 93.1571 507.283 95.2949C507.283 97.4328 506.775 99.3435 505.759 101.027C504.744 102.711 503.341 104.033 501.55 104.995C499.76 105.931 497.729 106.398 495.458 106.398ZM495.458 101.268C497.061 101.268 498.37 100.733 499.386 99.6641C500.428 98.5685 500.949 97.1121 500.949 95.2949C500.949 93.4778 500.428 92.0347 499.386 90.9658C498.37 89.8702 497.061 89.3223 495.458 89.3223C493.854 89.3223 492.531 89.8702 491.489 90.9658C490.447 92.0347 489.926 93.4778 489.926 95.2949C489.926 97.1121 490.447 98.5685 491.489 99.6641C492.531 100.733 493.854 101.268 495.458 101.268Z" fill="#00D5E2"/>
</svg>
