<svg width="24" height="24" viewBox="0 0 24 24" fill="none" xmlns="http://www.w3.org/2000/svg">
<path fill-rule="evenodd" clip-rule="evenodd" d="M12 2C12.5523 2 13 2.44772 13 3L13 19C13 19.5523 12.5523 20 12 20C11.4477 20 11 19.5523 11 19L11 3C11 2.44772 11.4477 2 12 2Z" fill="#00309E"/>
<path fill-rule="evenodd" clip-rule="evenodd" d="M19.7071 13.2929C20.0976 13.6834 20.0976 14.3166 19.7071 14.7071L12.7071 21.7071C12.3166 22.0976 11.6834 22.0976 11.2929 21.7071L4.29289 14.7071C3.90237 14.3166 3.90237 13.6834 4.29289 13.2929C4.68342 12.9024 5.31658 12.9024 5.7071 13.2929L12 19.5858L18.2929 13.2929C18.6834 12.9024 19.3166 12.9024 19.7071 13.2929Z" fill="#00309E"/>
</svg>
