<svg width="266" height="318" viewBox="0 0 266 318" fill="none" xmlns="http://www.w3.org/2000/svg">
<circle cx="133.646" cy="100.979" r="92.0688" fill="#00ACE2"/>
<path d="M208.928 139.39C202.628 130.851 195.06 123.57 186.491 117.733L202.84 101.549C214.733 90.2494 214.739 69.8928 202.839 58.5932C199.293 55.0825 197.34 50.4196 197.34 45.463C197.34 20.3945 176.764 0 151.473 0H113.985C88.6934 0 68.118 20.3945 68.118 45.463C68.118 50.4196 66.165 55.0825 62.6187 58.5932C50.7255 69.8913 50.7192 90.2513 62.6191 101.549C62.6187 101.549 79.1291 117.893 79.1291 117.893C52.2051 136.12 37.035 168.075 38.7574 200.472H227.092C227.989 178.559 222.135 157.033 208.928 139.39ZM179.91 159.36C179.91 162.598 177.276 165.233 174.037 165.233C166.245 164.911 166.248 153.808 174.037 153.487C177.276 153.487 179.91 156.121 179.91 159.36ZM70.8823 93.2017C63.6019 86.2799 63.5956 73.8627 70.8827 66.9413C76.6745 61.2075 79.8644 53.5798 79.8644 45.463C79.8644 26.8719 95.1704 11.7464 113.985 11.7464H151.473C170.287 11.7464 185.594 26.8719 185.594 45.463C185.594 53.5798 188.784 61.2075 194.576 66.9409C201.857 73.8608 201.862 86.2814 194.575 93.2013C194.576 93.2013 176.014 111.575 176.014 111.575C170.809 108.937 165.224 106.811 159.548 105.137C168.295 97.5917 173.841 86.4326 173.841 74.0021V36.8055H162.095C162.138 50.4247 145.496 58.1127 133.941 50.8691C133.941 50.8695 129.223 47.9963 129.223 47.9963L126.066 52.53C122.681 57.3942 116.921 60.2983 110.661 60.2983C107.05 60.2983 103.556 59.3277 100.557 57.4905L91.6163 52.0144C91.8982 73.1536 88.4197 89.7678 106.014 105.226C100.335 106.905 94.7742 109.055 89.5752 111.706L70.8823 93.2017ZM132.893 128.39L120.859 113.365C128.382 115.707 137.306 115.682 144.812 113.302L132.893 128.39ZM132.729 103.369C115.385 103.452 102.038 88.3144 103.363 71.1916C113.607 73.7276 125.206 70.5451 132.407 63.184C141.984 67.0956 153.886 65.7127 162.095 59.5685V74.0025C162.095 90.195 148.922 103.369 132.729 103.369ZM66.3733 146.364C72.1545 138.53 79.1581 131.908 87.1135 126.686V151.158C80.2775 153.555 75.3671 160.011 75.3671 167.582V176.98H87.1135V167.582C87.1135 164.452 89.7483 161.905 92.9867 161.905C96.2252 161.905 98.86 164.452 98.86 167.582V176.98H110.606V167.582C110.606 160.011 105.696 153.555 98.86 151.158V120.303C101.975 118.927 105.218 117.741 108.517 116.747L127.051 139.887V188.726H50.7117C51.8018 173.391 57.1605 158.85 66.3733 146.364ZM138.798 188.726V139.865L157.114 116.68C160.901 117.814 164.619 119.198 168.164 120.834V142.751C149.77 149.557 154.178 176.605 174.038 176.98C193.9 176.604 198.301 149.554 179.91 142.751V127.47C200.068 141.07 213.607 164.451 215.137 188.726H138.798V188.726Z" fill="white"/>
<path d="M30.0281 249.692C30.1748 249.705 30.3415 249.719 30.5281 249.732C30.7281 249.732 30.9615 249.732 31.2281 249.732C32.7881 249.732 33.9415 249.339 34.6881 248.552C35.4481 247.765 35.8281 246.679 35.8281 245.292C35.8281 243.839 35.4681 242.739 34.7481 241.992C34.0281 241.245 32.8881 240.872 31.3281 240.872C31.1148 240.872 30.8948 240.879 30.6681 240.892C30.4415 240.892 30.2281 240.905 30.0281 240.932V249.692ZM39.0481 245.292C39.0481 246.492 38.8615 247.539 38.4881 248.432C38.1148 249.325 37.5815 250.065 36.8881 250.652C36.2081 251.239 35.3748 251.679 34.3881 251.972C33.4015 252.265 32.2948 252.412 31.0681 252.412C30.5081 252.412 29.8548 252.385 29.1081 252.332C28.3615 252.292 27.6281 252.199 26.9081 252.052V238.552C27.6281 238.419 28.3748 238.332 29.1481 238.292C29.9348 238.239 30.6081 238.212 31.1681 238.212C32.3548 238.212 33.4281 238.345 34.3881 238.612C35.3615 238.879 36.1948 239.299 36.8881 239.872C37.5815 240.445 38.1148 241.179 38.4881 242.072C38.8615 242.965 39.0481 244.039 39.0481 245.292ZM40.9542 247.052C40.9542 246.119 41.0942 245.305 41.3742 244.612C41.6675 243.905 42.0475 243.319 42.5142 242.852C42.9809 242.385 43.5142 242.032 44.1142 241.792C44.7275 241.552 45.3542 241.432 45.9942 241.432C47.4875 241.432 48.6675 241.892 49.5342 242.812C50.4009 243.719 50.8342 245.059 50.8342 246.832C50.8342 247.005 50.8275 247.199 50.8142 247.412C50.8009 247.612 50.7875 247.792 50.7742 247.952H44.0142C44.0809 248.565 44.3675 249.052 44.8742 249.412C45.3809 249.772 46.0609 249.952 46.9142 249.952C47.4609 249.952 47.9942 249.905 48.5142 249.812C49.0475 249.705 49.4809 249.579 49.8142 249.432L50.2142 251.852C50.0542 251.932 49.8409 252.012 49.5742 252.092C49.3075 252.172 49.0075 252.239 48.6742 252.292C48.3542 252.359 48.0075 252.412 47.6342 252.452C47.2609 252.492 46.8875 252.512 46.5142 252.512C45.5675 252.512 44.7409 252.372 44.0342 252.092C43.3409 251.812 42.7609 251.432 42.2942 250.952C41.8409 250.459 41.5009 249.879 41.2742 249.212C41.0609 248.545 40.9542 247.825 40.9542 247.052ZM47.9542 245.912C47.9409 245.659 47.8942 245.412 47.8142 245.172C47.7475 244.932 47.6342 244.719 47.4742 244.532C47.3275 244.345 47.1342 244.192 46.8942 244.072C46.6675 243.952 46.3809 243.892 46.0342 243.892C45.7009 243.892 45.4142 243.952 45.1742 244.072C44.9342 244.179 44.7342 244.325 44.5742 244.512C44.4142 244.699 44.2875 244.919 44.1942 245.172C44.1142 245.412 44.0542 245.659 44.0142 245.912H47.9542ZM56.1539 250.092C56.7006 250.092 57.0872 250.039 57.3139 249.932C57.5406 249.825 57.6539 249.619 57.6539 249.312C57.6539 249.072 57.5072 248.865 57.2139 248.692C56.9206 248.505 56.4739 248.299 55.8739 248.072C55.4072 247.899 54.9806 247.719 54.5939 247.532C54.2206 247.345 53.9006 247.125 53.6339 246.872C53.3672 246.605 53.1606 246.292 53.0139 245.932C52.8672 245.572 52.7939 245.139 52.7939 244.632C52.7939 243.645 53.1606 242.865 53.8939 242.292C54.6272 241.719 55.6339 241.432 56.9139 241.432C57.5539 241.432 58.1672 241.492 58.7539 241.612C59.3406 241.719 59.8072 241.839 60.1539 241.972L59.6339 244.292C59.2872 244.172 58.9072 244.065 58.4939 243.972C58.0939 243.879 57.6406 243.832 57.1339 243.832C56.2006 243.832 55.7339 244.092 55.7339 244.612C55.7339 244.732 55.7539 244.839 55.7939 244.932C55.8339 245.025 55.9139 245.119 56.0339 245.212C56.1539 245.292 56.3139 245.385 56.5139 245.492C56.7272 245.585 56.9939 245.692 57.3139 245.812C57.9672 246.052 58.5072 246.292 58.9339 246.532C59.3606 246.759 59.6939 247.012 59.9339 247.292C60.1872 247.559 60.3606 247.859 60.4539 248.192C60.5606 248.525 60.6139 248.912 60.6139 249.352C60.6139 250.392 60.2206 251.179 59.4339 251.712C58.6606 252.245 57.5606 252.512 56.1339 252.512C55.2006 252.512 54.4206 252.432 53.7939 252.272C53.1806 252.112 52.7539 251.979 52.5139 251.872L53.0139 249.452C53.5206 249.652 54.0406 249.812 54.5739 249.932C55.1072 250.039 55.6339 250.092 56.1539 250.092ZM62.3409 246.972C62.3409 246.212 62.4609 245.499 62.7009 244.832C62.9543 244.152 63.3143 243.565 63.7809 243.072C64.2476 242.565 64.8143 242.165 65.4809 241.872C66.1476 241.579 66.9076 241.432 67.7609 241.432C68.3209 241.432 68.8343 241.485 69.3009 241.592C69.7676 241.685 70.2209 241.825 70.6609 242.012L70.0409 244.392C69.7609 244.285 69.4543 244.192 69.1209 244.112C68.7876 244.032 68.4143 243.992 68.0009 243.992C67.1209 243.992 66.4609 244.265 66.0209 244.812C65.5943 245.359 65.3809 246.079 65.3809 246.972C65.3809 247.919 65.5809 248.652 65.9809 249.172C66.3943 249.692 67.1076 249.952 68.1209 249.952C68.4809 249.952 68.8676 249.919 69.2809 249.852C69.6943 249.785 70.0743 249.679 70.4209 249.532L70.8409 251.972C70.4943 252.119 70.0609 252.245 69.5409 252.352C69.0209 252.459 68.4476 252.512 67.8209 252.512C66.8609 252.512 66.0343 252.372 65.3409 252.092C64.6476 251.799 64.0743 251.405 63.6209 250.912C63.1809 250.419 62.8543 249.839 62.6409 249.172C62.4409 248.492 62.3409 247.759 62.3409 246.972ZM82.1731 246.952C82.1731 247.779 82.0531 248.539 81.8131 249.232C81.5731 249.912 81.2265 250.499 80.7731 250.992C80.3198 251.472 79.7731 251.845 79.1331 252.112C78.5065 252.379 77.7998 252.512 77.0131 252.512C76.2398 252.512 75.5331 252.379 74.8931 252.112C74.2665 251.845 73.7265 251.472 73.2731 250.992C72.8198 250.499 72.4665 249.912 72.2131 249.232C71.9598 248.539 71.8331 247.779 71.8331 246.952C71.8331 246.125 71.9598 245.372 72.2131 244.692C72.4798 244.012 72.8398 243.432 73.2931 242.952C73.7598 242.472 74.3065 242.099 74.9331 241.832C75.5731 241.565 76.2665 241.432 77.0131 241.432C77.7731 241.432 78.4665 241.565 79.0931 241.832C79.7331 242.099 80.2798 242.472 80.7331 242.952C81.1865 243.432 81.5398 244.012 81.7931 244.692C82.0465 245.372 82.1731 246.125 82.1731 246.952ZM79.1331 246.952C79.1331 246.032 78.9465 245.312 78.5731 244.792C78.2131 244.259 77.6931 243.992 77.0131 243.992C76.3331 243.992 75.8065 244.259 75.4331 244.792C75.0598 245.312 74.8731 246.032 74.8731 246.952C74.8731 247.872 75.0598 248.605 75.4331 249.152C75.8065 249.685 76.3331 249.952 77.0131 249.952C77.6931 249.952 78.2131 249.685 78.5731 249.152C78.9465 248.605 79.1331 247.872 79.1331 246.952ZM84.4816 242.072C84.9882 241.925 85.6416 241.792 86.4416 241.672C87.2416 241.539 88.0816 241.472 88.9616 241.472C89.8549 241.472 90.5949 241.592 91.1816 241.832C91.7816 242.059 92.2549 242.385 92.6016 242.812C92.9482 243.239 93.1949 243.745 93.3416 244.332C93.4882 244.919 93.5616 245.572 93.5616 246.292V252.232H90.5816V246.652C90.5816 245.692 90.4549 245.012 90.2016 244.612C89.9482 244.212 89.4749 244.012 88.7816 244.012C88.5682 244.012 88.3416 244.025 88.1016 244.052C87.8616 244.065 87.6482 244.085 87.4616 244.112V252.232H84.4816V242.072ZM96.1589 239.092L99.1389 238.612V241.712H102.719V244.192H99.1389V247.892C99.1389 248.519 99.2456 249.019 99.4589 249.392C99.6856 249.765 100.132 249.952 100.799 249.952C101.119 249.952 101.446 249.925 101.779 249.872C102.126 249.805 102.439 249.719 102.719 249.612L103.139 251.932C102.779 252.079 102.379 252.205 101.939 252.312C101.499 252.419 100.959 252.472 100.319 252.472C99.5056 252.472 98.8322 252.365 98.2989 252.152C97.7656 251.925 97.3389 251.619 97.0189 251.232C96.6989 250.832 96.4722 250.352 96.3389 249.792C96.2189 249.232 96.1589 248.612 96.1589 247.932V239.092ZM114.595 246.952C114.595 247.779 114.475 248.539 114.235 249.232C113.995 249.912 113.648 250.499 113.195 250.992C112.742 251.472 112.195 251.845 111.555 252.112C110.928 252.379 110.222 252.512 109.435 252.512C108.662 252.512 107.955 252.379 107.315 252.112C106.688 251.845 106.148 251.472 105.695 250.992C105.242 250.499 104.888 249.912 104.635 249.232C104.382 248.539 104.255 247.779 104.255 246.952C104.255 246.125 104.382 245.372 104.635 244.692C104.902 244.012 105.262 243.432 105.715 242.952C106.182 242.472 106.728 242.099 107.355 241.832C107.995 241.565 108.688 241.432 109.435 241.432C110.195 241.432 110.888 241.565 111.515 241.832C112.155 242.099 112.702 242.472 113.155 242.952C113.608 243.432 113.962 244.012 114.215 244.692C114.468 245.372 114.595 246.125 114.595 246.952ZM111.555 246.952C111.555 246.032 111.368 245.312 110.995 244.792C110.635 244.259 110.115 243.992 109.435 243.992C108.755 243.992 108.228 244.259 107.855 244.792C107.482 245.312 107.295 246.032 107.295 246.952C107.295 247.872 107.482 248.605 107.855 249.152C108.228 249.685 108.755 249.952 109.435 249.952C110.115 249.952 110.635 249.685 110.995 249.152C111.368 248.605 111.555 247.872 111.555 246.952ZM119.923 250.092C120.47 250.092 120.857 250.039 121.083 249.932C121.31 249.825 121.423 249.619 121.423 249.312C121.423 249.072 121.277 248.865 120.983 248.692C120.69 248.505 120.243 248.299 119.643 248.072C119.177 247.899 118.75 247.719 118.363 247.532C117.99 247.345 117.67 247.125 117.403 246.872C117.137 246.605 116.93 246.292 116.783 245.932C116.637 245.572 116.563 245.139 116.563 244.632C116.563 243.645 116.93 242.865 117.663 242.292C118.397 241.719 119.403 241.432 120.683 241.432C121.323 241.432 121.937 241.492 122.523 241.612C123.11 241.719 123.577 241.839 123.923 241.972L123.403 244.292C123.057 244.172 122.677 244.065 122.263 243.972C121.863 243.879 121.41 243.832 120.903 243.832C119.97 243.832 119.503 244.092 119.503 244.612C119.503 244.732 119.523 244.839 119.563 244.932C119.603 245.025 119.683 245.119 119.803 245.212C119.923 245.292 120.083 245.385 120.283 245.492C120.497 245.585 120.763 245.692 121.083 245.812C121.737 246.052 122.277 246.292 122.703 246.532C123.13 246.759 123.463 247.012 123.703 247.292C123.957 247.559 124.13 247.859 124.223 248.192C124.33 248.525 124.383 248.912 124.383 249.352C124.383 250.392 123.99 251.179 123.203 251.712C122.43 252.245 121.33 252.512 119.903 252.512C118.97 252.512 118.19 252.432 117.563 252.272C116.95 252.112 116.523 251.979 116.283 251.872L116.783 249.452C117.29 249.652 117.81 249.812 118.343 249.932C118.877 250.039 119.403 250.092 119.923 250.092ZM133.955 246.892C133.955 247.812 134.162 248.552 134.575 249.112C134.988 249.672 135.602 249.952 136.415 249.952C136.682 249.952 136.928 249.945 137.155 249.932C137.382 249.905 137.568 249.879 137.715 249.852V244.432C137.528 244.312 137.282 244.212 136.975 244.132C136.682 244.052 136.382 244.012 136.075 244.012C134.662 244.012 133.955 244.972 133.955 246.892ZM140.695 251.892C140.428 251.972 140.122 252.052 139.775 252.132C139.428 252.199 139.062 252.259 138.675 252.312C138.302 252.365 137.915 252.405 137.515 252.432C137.128 252.472 136.755 252.492 136.395 252.492C135.528 252.492 134.755 252.365 134.075 252.112C133.395 251.859 132.822 251.499 132.355 251.032C131.888 250.552 131.528 249.979 131.275 249.312C131.035 248.632 130.915 247.872 130.915 247.032C130.915 246.179 131.022 245.412 131.235 244.732C131.448 244.039 131.755 243.452 132.155 242.972C132.555 242.492 133.042 242.125 133.615 241.872C134.202 241.619 134.868 241.492 135.615 241.492C136.028 241.492 136.395 241.532 136.715 241.612C137.048 241.692 137.382 241.805 137.715 241.952V237.192L140.695 236.712V251.892ZM142.985 247.052C142.985 246.119 143.125 245.305 143.405 244.612C143.699 243.905 144.079 243.319 144.545 242.852C145.012 242.385 145.545 242.032 146.145 241.792C146.759 241.552 147.385 241.432 148.025 241.432C149.519 241.432 150.699 241.892 151.565 242.812C152.432 243.719 152.865 245.059 152.865 246.832C152.865 247.005 152.859 247.199 152.845 247.412C152.832 247.612 152.819 247.792 152.805 247.952H146.045C146.112 248.565 146.399 249.052 146.905 249.412C147.412 249.772 148.092 249.952 148.945 249.952C149.492 249.952 150.025 249.905 150.545 249.812C151.079 249.705 151.512 249.579 151.845 249.432L152.245 251.852C152.085 251.932 151.872 252.012 151.605 252.092C151.339 252.172 151.039 252.239 150.705 252.292C150.385 252.359 150.039 252.412 149.665 252.452C149.292 252.492 148.919 252.512 148.545 252.512C147.599 252.512 146.772 252.372 146.065 252.092C145.372 251.812 144.792 251.432 144.325 250.952C143.872 250.459 143.532 249.879 143.305 249.212C143.092 248.545 142.985 247.825 142.985 247.052ZM149.985 245.912C149.972 245.659 149.925 245.412 149.845 245.172C149.779 244.932 149.665 244.719 149.505 244.532C149.359 244.345 149.165 244.192 148.925 244.072C148.699 243.952 148.412 243.892 148.065 243.892C147.732 243.892 147.445 243.952 147.205 244.072C146.965 244.179 146.765 244.325 146.605 244.512C146.445 244.699 146.319 244.919 146.225 245.172C146.145 245.412 146.085 245.659 146.045 245.912H149.985ZM163.99 250.152C164.283 250.152 164.563 250.145 164.83 250.132C165.097 250.119 165.31 250.099 165.47 250.072V247.812C165.35 247.785 165.17 247.759 164.93 247.732C164.69 247.705 164.47 247.692 164.27 247.692C163.99 247.692 163.723 247.712 163.47 247.752C163.23 247.779 163.017 247.839 162.83 247.932C162.643 248.025 162.497 248.152 162.39 248.312C162.283 248.472 162.23 248.672 162.23 248.912C162.23 249.379 162.383 249.705 162.69 249.892C163.01 250.065 163.443 250.152 163.99 250.152ZM163.75 241.432C164.63 241.432 165.363 241.532 165.95 241.732C166.537 241.932 167.003 242.219 167.35 242.592C167.71 242.965 167.963 243.419 168.11 243.952C168.257 244.485 168.33 245.079 168.33 245.732V251.932C167.903 252.025 167.31 252.132 166.55 252.252C165.79 252.385 164.87 252.452 163.79 252.452C163.11 252.452 162.49 252.392 161.93 252.272C161.383 252.152 160.91 251.959 160.51 251.692C160.11 251.412 159.803 251.052 159.59 250.612C159.377 250.172 159.27 249.632 159.27 248.992C159.27 248.379 159.39 247.859 159.63 247.432C159.883 247.005 160.217 246.665 160.63 246.412C161.043 246.159 161.517 245.979 162.05 245.872C162.583 245.752 163.137 245.692 163.71 245.692C164.097 245.692 164.437 245.712 164.73 245.752C165.037 245.779 165.283 245.819 165.47 245.872V245.592C165.47 245.085 165.317 244.679 165.01 244.372C164.703 244.065 164.17 243.912 163.41 243.912C162.903 243.912 162.403 243.952 161.91 244.032C161.417 244.099 160.99 244.199 160.63 244.332L160.25 241.932C160.423 241.879 160.637 241.825 160.89 241.772C161.157 241.705 161.443 241.652 161.75 241.612C162.057 241.559 162.377 241.519 162.71 241.492C163.057 241.452 163.403 241.432 163.75 241.432ZM170.925 239.092L173.905 238.612V241.712H177.485V244.192H173.905V247.892C173.905 248.519 174.011 249.019 174.225 249.392C174.451 249.765 174.898 249.952 175.565 249.952C175.885 249.952 176.211 249.925 176.545 249.872C176.891 249.805 177.205 249.719 177.485 249.612L177.905 251.932C177.545 252.079 177.145 252.205 176.705 252.312C176.265 252.419 175.725 252.472 175.085 252.472C174.271 252.472 173.598 252.365 173.065 252.152C172.531 251.925 172.105 251.619 171.785 251.232C171.465 250.832 171.238 250.352 171.105 249.792C170.985 249.232 170.925 248.612 170.925 247.932V239.092ZM179.021 247.052C179.021 246.119 179.161 245.305 179.441 244.612C179.734 243.905 180.114 243.319 180.581 242.852C181.047 242.385 181.581 242.032 182.181 241.792C182.794 241.552 183.421 241.432 184.061 241.432C185.554 241.432 186.734 241.892 187.601 242.812C188.467 243.719 188.901 245.059 188.901 246.832C188.901 247.005 188.894 247.199 188.881 247.412C188.867 247.612 188.854 247.792 188.841 247.952H182.081C182.147 248.565 182.434 249.052 182.941 249.412C183.447 249.772 184.127 249.952 184.981 249.952C185.527 249.952 186.061 249.905 186.581 249.812C187.114 249.705 187.547 249.579 187.881 249.432L188.281 251.852C188.121 251.932 187.907 252.012 187.641 252.092C187.374 252.172 187.074 252.239 186.741 252.292C186.421 252.359 186.074 252.412 185.701 252.452C185.327 252.492 184.954 252.512 184.581 252.512C183.634 252.512 182.807 252.372 182.101 252.092C181.407 251.812 180.827 251.432 180.361 250.952C179.907 250.459 179.567 249.879 179.341 249.212C179.127 248.545 179.021 247.825 179.021 247.052ZM186.021 245.912C186.007 245.659 185.961 245.412 185.881 245.172C185.814 244.932 185.701 244.719 185.541 244.532C185.394 244.345 185.201 244.192 184.961 244.072C184.734 243.952 184.447 243.892 184.101 243.892C183.767 243.892 183.481 243.952 183.241 244.072C183.001 244.179 182.801 244.325 182.641 244.512C182.481 244.699 182.354 244.919 182.261 245.172C182.181 245.412 182.121 245.659 182.081 245.912H186.021ZM186.481 237.932L183.181 240.712L181.821 239.492L184.661 236.252L186.481 237.932ZM197.445 252.232C197.525 251.259 197.692 250.245 197.945 249.192C198.198 248.139 198.505 247.105 198.865 246.092C199.238 245.079 199.652 244.125 200.105 243.232C200.558 242.325 201.018 241.545 201.485 240.892H195.465V238.352H205.165V240.512C204.738 240.979 204.265 241.625 203.745 242.452C203.238 243.279 202.752 244.219 202.285 245.272C201.832 246.312 201.432 247.432 201.085 248.632C200.752 249.832 200.545 251.032 200.465 252.232H197.445ZM216.652 245.272C216.652 247.605 216.206 249.399 215.312 250.652C214.432 251.892 213.212 252.512 211.652 252.512C210.092 252.512 208.866 251.892 207.972 250.652C207.092 249.399 206.652 247.605 206.652 245.272C206.652 244.112 206.766 243.085 206.992 242.192C207.232 241.299 207.572 240.545 208.012 239.932C208.452 239.319 208.979 238.852 209.592 238.532C210.206 238.212 210.892 238.052 211.652 238.052C213.212 238.052 214.432 238.679 215.312 239.932C216.206 241.172 216.652 242.952 216.652 245.272ZM213.612 245.272C213.612 244.579 213.579 243.952 213.512 243.392C213.446 242.819 213.339 242.325 213.192 241.912C213.046 241.499 212.846 241.179 212.592 240.952C212.339 240.725 212.026 240.612 211.652 240.612C211.279 240.612 210.966 240.725 210.712 240.952C210.472 241.179 210.272 241.499 210.112 241.912C209.966 242.325 209.859 242.819 209.792 243.392C209.726 243.952 209.692 244.579 209.692 245.272C209.692 245.965 209.726 246.599 209.792 247.172C209.859 247.745 209.966 248.239 210.112 248.652C210.272 249.065 210.472 249.385 210.712 249.612C210.966 249.839 211.279 249.952 211.652 249.952C212.026 249.952 212.339 249.839 212.592 249.612C212.846 249.385 213.046 249.065 213.192 248.652C213.339 248.239 213.446 247.745 213.512 247.172C213.579 246.599 213.612 245.965 213.612 245.272ZM225.119 241.932C225.119 243.185 224.799 244.145 224.159 244.812C223.519 245.479 222.659 245.812 221.579 245.812C220.499 245.812 219.639 245.479 218.999 244.812C218.359 244.145 218.039 243.185 218.039 241.932C218.039 240.679 218.359 239.719 218.999 239.052C219.639 238.385 220.499 238.052 221.579 238.052C222.659 238.052 223.519 238.385 224.159 239.052C224.799 239.719 225.119 240.679 225.119 241.932ZM222.859 241.932C222.859 241.252 222.739 240.759 222.499 240.452C222.259 240.145 221.953 239.992 221.579 239.992C221.193 239.992 220.879 240.145 220.639 240.452C220.413 240.759 220.299 241.252 220.299 241.932C220.299 242.612 220.413 243.112 220.639 243.432C220.879 243.739 221.193 243.892 221.579 243.892C221.953 243.892 222.259 243.739 222.499 243.432C222.739 243.112 222.859 242.612 222.859 241.932ZM229.019 238.372H231.799L223.979 252.232H221.199L229.019 238.372ZM234.999 248.672C234.999 249.925 234.679 250.885 234.039 251.552C233.399 252.219 232.539 252.552 231.459 252.552C230.379 252.552 229.519 252.219 228.879 251.552C228.239 250.885 227.919 249.925 227.919 248.672C227.919 247.419 228.239 246.459 228.879 245.792C229.519 245.125 230.379 244.792 231.459 244.792C232.539 244.792 233.399 245.125 234.039 245.792C234.679 246.459 234.999 247.419 234.999 248.672ZM232.739 248.672C232.739 247.992 232.619 247.499 232.379 247.192C232.139 246.885 231.833 246.732 231.459 246.732C231.073 246.732 230.759 246.885 230.519 247.192C230.293 247.499 230.179 247.992 230.179 248.672C230.179 249.352 230.293 249.852 230.519 250.172C230.759 250.479 231.073 250.632 231.459 250.632C231.833 250.632 232.139 250.479 232.379 250.172C232.619 249.852 232.739 249.352 232.739 248.672ZM35.332 273.052C35.332 272.132 35.4654 271.332 35.732 270.652C35.9987 269.959 36.352 269.385 36.792 268.932C37.232 268.479 37.7387 268.139 38.312 267.912C38.8854 267.685 39.472 267.572 40.072 267.572C41.472 267.572 42.5454 268.012 43.292 268.892C44.0387 269.759 44.412 271.085 44.412 272.872C44.412 272.952 44.412 273.059 44.412 273.192C44.412 273.312 44.4054 273.425 44.392 273.532H37.272C37.352 274.612 37.6654 275.432 38.212 275.992C38.7587 276.552 39.612 276.832 40.772 276.832C41.4254 276.832 41.972 276.779 42.412 276.672C42.8654 276.552 43.2054 276.439 43.432 276.332L43.692 277.892C43.4654 278.012 43.0654 278.139 42.492 278.272C41.932 278.405 41.292 278.472 40.572 278.472C39.6654 278.472 38.8787 278.339 38.212 278.072C37.5587 277.792 37.0187 277.412 36.592 276.932C36.1654 276.452 35.8454 275.885 35.632 275.232C35.432 274.565 35.332 273.839 35.332 273.052ZM42.472 272.032C42.4854 271.192 42.272 270.505 41.832 269.972C41.4054 269.425 40.812 269.152 40.052 269.152C39.6254 269.152 39.2454 269.239 38.912 269.412C38.592 269.572 38.3187 269.785 38.092 270.052C37.8654 270.319 37.6854 270.625 37.552 270.972C37.432 271.319 37.352 271.672 37.312 272.032H42.472ZM47.0839 268.132C47.5106 268.025 48.0706 267.912 48.7639 267.792C49.4706 267.672 50.2839 267.612 51.2039 267.612C51.8706 267.612 52.4306 267.705 52.8839 267.892C53.3372 268.065 53.7172 268.325 54.0239 268.672C54.1172 268.605 54.2639 268.512 54.4639 268.392C54.6639 268.272 54.9106 268.159 55.2039 268.052C55.4972 267.932 55.8239 267.832 56.1839 267.752C56.5439 267.659 56.9306 267.612 57.3439 267.612C58.1439 267.612 58.7972 267.732 59.3039 267.972C59.8106 268.199 60.2039 268.525 60.4839 268.952C60.7772 269.379 60.9706 269.885 61.0639 270.472C61.1706 271.059 61.2239 271.699 61.2239 272.392V278.232H59.3639V272.792C59.3639 272.179 59.3306 271.652 59.2639 271.212C59.2106 270.772 59.0972 270.405 58.9239 270.112C58.7639 269.819 58.5372 269.605 58.2439 269.472C57.9639 269.325 57.5972 269.252 57.1439 269.252C56.5172 269.252 55.9972 269.339 55.5839 269.512C55.1839 269.672 54.9106 269.819 54.7639 269.952C54.8706 270.299 54.9506 270.679 55.0039 271.092C55.0572 271.505 55.0839 271.939 55.0839 272.392V278.232H53.2239V272.792C53.2239 272.179 53.1906 271.652 53.1239 271.212C53.0572 270.772 52.9372 270.405 52.7639 270.112C52.6039 269.819 52.3772 269.605 52.0839 269.472C51.8039 269.325 51.4439 269.252 51.0039 269.252C50.8172 269.252 50.6172 269.259 50.4039 269.272C50.1906 269.285 49.9839 269.305 49.7839 269.332C49.5972 269.345 49.4239 269.365 49.2639 269.392C49.1039 269.419 48.9972 269.439 48.9439 269.452V278.232H47.0839V268.132ZM73.4594 278.472C72.6194 278.472 71.8794 278.339 71.2394 278.072C70.6127 277.805 70.0794 277.432 69.6394 276.952C69.2127 276.472 68.8927 275.905 68.6794 275.252C68.466 274.585 68.3594 273.852 68.3594 273.052C68.3594 272.252 68.4727 271.519 68.6994 270.852C68.9394 270.185 69.2727 269.612 69.6994 269.132C70.126 268.639 70.646 268.259 71.2594 267.992C71.886 267.712 72.5794 267.572 73.3394 267.572C73.806 267.572 74.2727 267.612 74.7394 267.692C75.206 267.772 75.6527 267.899 76.0794 268.072L75.6594 269.652C75.3794 269.519 75.0527 269.412 74.6794 269.332C74.3194 269.252 73.9327 269.212 73.5194 269.212C72.4794 269.212 71.6794 269.539 71.1194 270.192C70.5727 270.845 70.2994 271.799 70.2994 273.052C70.2994 273.612 70.3594 274.125 70.4794 274.592C70.6127 275.059 70.8127 275.459 71.0794 275.792C71.3594 276.125 71.7127 276.385 72.1394 276.572C72.566 276.745 73.086 276.832 73.6994 276.832C74.1927 276.832 74.6394 276.785 75.0394 276.692C75.4394 276.599 75.7527 276.499 75.9794 276.392L76.2394 277.952C76.1327 278.019 75.9794 278.085 75.7794 278.152C75.5794 278.205 75.3527 278.252 75.0994 278.292C74.846 278.345 74.5727 278.385 74.2794 278.412C73.9994 278.452 73.726 278.472 73.4594 278.472ZM87.1623 273.032C87.1623 273.859 87.0423 274.605 86.8023 275.272C86.5623 275.939 86.2223 276.512 85.7823 276.992C85.3557 277.472 84.8423 277.845 84.2423 278.112C83.6423 278.365 82.989 278.492 82.2823 278.492C81.5757 278.492 80.9223 278.365 80.3223 278.112C79.7223 277.845 79.2023 277.472 78.7623 276.992C78.3357 276.512 78.0023 275.939 77.7623 275.272C77.5223 274.605 77.4023 273.859 77.4023 273.032C77.4023 272.219 77.5223 271.479 77.7623 270.812C78.0023 270.132 78.3357 269.552 78.7623 269.072C79.2023 268.592 79.7223 268.225 80.3223 267.972C80.9223 267.705 81.5757 267.572 82.2823 267.572C82.989 267.572 83.6423 267.705 84.2423 267.972C84.8423 268.225 85.3557 268.592 85.7823 269.072C86.2223 269.552 86.5623 270.132 86.8023 270.812C87.0423 271.479 87.1623 272.219 87.1623 273.032ZM85.2223 273.032C85.2223 271.859 84.9557 270.932 84.4223 270.252C83.9023 269.559 83.189 269.212 82.2823 269.212C81.3757 269.212 80.6557 269.559 80.1223 270.252C79.6023 270.932 79.3423 271.859 79.3423 273.032C79.3423 274.205 79.6023 275.139 80.1223 275.832C80.6557 276.512 81.3757 276.852 82.2823 276.852C83.189 276.852 83.9023 276.512 84.4223 275.832C84.9557 275.139 85.2223 274.205 85.2223 273.032ZM89.7792 268.132C90.2059 268.025 90.7725 267.912 91.4792 267.792C92.1859 267.672 92.9992 267.612 93.9192 267.612C94.7459 267.612 95.4325 267.732 95.9792 267.972C96.5259 268.199 96.9592 268.525 97.2792 268.952C97.6125 269.365 97.8459 269.865 97.9792 270.452C98.1125 271.039 98.1792 271.685 98.1792 272.392V278.232H96.3192V272.792C96.3192 272.152 96.2725 271.605 96.1792 271.152C96.0992 270.699 95.9592 270.332 95.7592 270.052C95.5592 269.772 95.2925 269.572 94.9592 269.452C94.6259 269.319 94.2125 269.252 93.7192 269.252C93.5192 269.252 93.3125 269.259 93.0992 269.272C92.8859 269.285 92.6792 269.305 92.4792 269.332C92.2925 269.345 92.1192 269.365 91.9592 269.392C91.8125 269.419 91.7059 269.439 91.6392 269.452V278.232H89.7792V268.132ZM103.684 276.892C104.444 276.892 105.004 276.792 105.364 276.592C105.737 276.392 105.924 276.072 105.924 275.632C105.924 275.179 105.744 274.819 105.384 274.552C105.024 274.285 104.43 273.985 103.604 273.652C103.204 273.492 102.817 273.332 102.444 273.172C102.084 272.999 101.77 272.799 101.504 272.572C101.237 272.345 101.024 272.072 100.864 271.752C100.704 271.432 100.624 271.039 100.624 270.572C100.624 269.652 100.964 268.925 101.644 268.392C102.324 267.845 103.25 267.572 104.424 267.572C104.717 267.572 105.01 267.592 105.304 267.632C105.597 267.659 105.87 267.699 106.124 267.752C106.377 267.792 106.597 267.839 106.784 267.892C106.984 267.945 107.137 267.992 107.244 268.032L106.904 269.632C106.704 269.525 106.39 269.419 105.964 269.312C105.537 269.192 105.024 269.132 104.424 269.132C103.904 269.132 103.45 269.239 103.064 269.452C102.677 269.652 102.484 269.972 102.484 270.412C102.484 270.639 102.524 270.839 102.604 271.012C102.697 271.185 102.83 271.345 103.004 271.492C103.19 271.625 103.417 271.752 103.684 271.872C103.95 271.992 104.27 272.119 104.644 272.252C105.137 272.439 105.577 272.625 105.964 272.812C106.35 272.985 106.677 273.192 106.944 273.432C107.224 273.672 107.437 273.965 107.584 274.312C107.73 274.645 107.804 275.059 107.804 275.552C107.804 276.512 107.444 277.239 106.724 277.732C106.017 278.225 105.004 278.472 103.684 278.472C102.764 278.472 102.044 278.392 101.524 278.232C101.004 278.085 100.65 277.972 100.464 277.892L100.804 276.292C101.017 276.372 101.357 276.492 101.824 276.652C102.29 276.812 102.91 276.892 103.684 276.892ZM118.469 277.932C118.043 278.039 117.476 278.152 116.769 278.272C116.076 278.392 115.269 278.452 114.349 278.452C113.549 278.452 112.876 278.339 112.329 278.112C111.783 277.872 111.343 277.539 111.009 277.112C110.676 276.685 110.436 276.185 110.289 275.612C110.143 275.025 110.069 274.379 110.069 273.672V267.832H111.929V273.272C111.929 274.539 112.129 275.445 112.529 275.992C112.929 276.539 113.603 276.812 114.549 276.812C114.749 276.812 114.956 276.805 115.169 276.792C115.383 276.779 115.583 276.765 115.769 276.752C115.956 276.725 116.123 276.705 116.269 276.692C116.429 276.665 116.543 276.639 116.609 276.612V267.832H118.469V277.932ZM124.794 278.432C123.647 278.405 122.834 278.159 122.354 277.692C121.874 277.225 121.634 276.499 121.634 275.512V263.032L123.494 262.712V275.212C123.494 275.519 123.52 275.772 123.574 275.972C123.627 276.172 123.714 276.332 123.834 276.452C123.954 276.572 124.114 276.665 124.314 276.732C124.514 276.785 124.76 276.832 125.054 276.872L124.794 278.432ZM128.882 267.832H132.822V269.392H128.882V274.192C128.882 274.712 128.922 275.145 129.002 275.492C129.082 275.825 129.202 276.092 129.362 276.292C129.522 276.479 129.722 276.612 129.962 276.692C130.202 276.772 130.482 276.812 130.802 276.812C131.362 276.812 131.809 276.752 132.142 276.632C132.489 276.499 132.729 276.405 132.862 276.352L133.222 277.892C133.036 277.985 132.709 278.099 132.242 278.232C131.776 278.379 131.242 278.452 130.642 278.452C129.936 278.452 129.349 278.365 128.882 278.192C128.429 278.005 128.062 277.732 127.782 277.372C127.502 277.012 127.302 276.572 127.182 276.052C127.076 275.519 127.022 274.905 127.022 274.212V264.932L128.882 264.612V267.832ZM138.709 276.892C139.149 276.892 139.536 276.885 139.869 276.872C140.216 276.845 140.503 276.805 140.729 276.752V273.652C140.596 273.585 140.376 273.532 140.069 273.492C139.776 273.439 139.416 273.412 138.989 273.412C138.709 273.412 138.409 273.432 138.089 273.472C137.783 273.512 137.496 273.599 137.229 273.732C136.976 273.852 136.763 274.025 136.589 274.252C136.416 274.465 136.329 274.752 136.329 275.112C136.329 275.779 136.543 276.245 136.969 276.512C137.396 276.765 137.976 276.892 138.709 276.892ZM138.549 267.572C139.296 267.572 139.923 267.672 140.429 267.872C140.949 268.059 141.363 268.332 141.669 268.692C141.989 269.039 142.216 269.459 142.349 269.952C142.483 270.432 142.549 270.965 142.549 271.552V278.052C142.389 278.079 142.163 278.119 141.869 278.172C141.589 278.212 141.269 278.252 140.909 278.292C140.549 278.332 140.156 278.365 139.729 278.392C139.316 278.432 138.903 278.452 138.489 278.452C137.903 278.452 137.363 278.392 136.869 278.272C136.376 278.152 135.949 277.965 135.589 277.712C135.229 277.445 134.949 277.099 134.749 276.672C134.549 276.245 134.449 275.732 134.449 275.132C134.449 274.559 134.563 274.065 134.789 273.652C135.029 273.239 135.349 272.905 135.749 272.652C136.149 272.399 136.616 272.212 137.149 272.092C137.683 271.972 138.243 271.912 138.829 271.912C139.016 271.912 139.209 271.925 139.409 271.952C139.609 271.965 139.796 271.992 139.969 272.032C140.156 272.059 140.316 272.085 140.449 272.112C140.583 272.139 140.676 272.159 140.729 272.172V271.652C140.729 271.345 140.696 271.045 140.629 270.752C140.563 270.445 140.443 270.179 140.269 269.952C140.096 269.712 139.856 269.525 139.549 269.392C139.256 269.245 138.869 269.172 138.389 269.172C137.776 269.172 137.236 269.219 136.769 269.312C136.316 269.392 135.976 269.479 135.749 269.572L135.529 268.032C135.769 267.925 136.169 267.825 136.729 267.732C137.289 267.625 137.896 267.572 138.549 267.572ZM148.059 276.892C148.819 276.892 149.379 276.792 149.739 276.592C150.112 276.392 150.299 276.072 150.299 275.632C150.299 275.179 150.119 274.819 149.759 274.552C149.399 274.285 148.805 273.985 147.979 273.652C147.579 273.492 147.192 273.332 146.819 273.172C146.459 272.999 146.145 272.799 145.879 272.572C145.612 272.345 145.399 272.072 145.239 271.752C145.079 271.432 144.999 271.039 144.999 270.572C144.999 269.652 145.339 268.925 146.019 268.392C146.699 267.845 147.625 267.572 148.799 267.572C149.092 267.572 149.385 267.592 149.679 267.632C149.972 267.659 150.245 267.699 150.499 267.752C150.752 267.792 150.972 267.839 151.159 267.892C151.359 267.945 151.512 267.992 151.619 268.032L151.279 269.632C151.079 269.525 150.765 269.419 150.339 269.312C149.912 269.192 149.399 269.132 148.799 269.132C148.279 269.132 147.825 269.239 147.439 269.452C147.052 269.652 146.859 269.972 146.859 270.412C146.859 270.639 146.899 270.839 146.979 271.012C147.072 271.185 147.205 271.345 147.379 271.492C147.565 271.625 147.792 271.752 148.059 271.872C148.325 271.992 148.645 272.119 149.019 272.252C149.512 272.439 149.952 272.625 150.339 272.812C150.725 272.985 151.052 273.192 151.319 273.432C151.599 273.672 151.812 273.965 151.959 274.312C152.105 274.645 152.179 275.059 152.179 275.552C152.179 276.512 151.819 277.239 151.099 277.732C150.392 278.225 149.379 278.472 148.059 278.472C147.139 278.472 146.419 278.392 145.899 278.232C145.379 278.085 145.025 277.972 144.839 277.892L145.179 276.292C145.392 276.372 145.732 276.492 146.199 276.652C146.665 276.812 147.285 276.892 148.059 276.892ZM159.193 268.132C159.62 268.025 160.18 267.912 160.873 267.792C161.58 267.672 162.393 267.612 163.313 267.612C163.98 267.612 164.54 267.705 164.993 267.892C165.447 268.065 165.827 268.325 166.133 268.672C166.227 268.605 166.373 268.512 166.573 268.392C166.773 268.272 167.02 268.159 167.313 268.052C167.607 267.932 167.933 267.832 168.293 267.752C168.653 267.659 169.04 267.612 169.453 267.612C170.253 267.612 170.907 267.732 171.413 267.972C171.92 268.199 172.313 268.525 172.593 268.952C172.887 269.379 173.08 269.885 173.173 270.472C173.28 271.059 173.333 271.699 173.333 272.392V278.232H171.473V272.792C171.473 272.179 171.44 271.652 171.373 271.212C171.32 270.772 171.207 270.405 171.033 270.112C170.873 269.819 170.647 269.605 170.353 269.472C170.073 269.325 169.707 269.252 169.253 269.252C168.627 269.252 168.107 269.339 167.693 269.512C167.293 269.672 167.02 269.819 166.873 269.952C166.98 270.299 167.06 270.679 167.113 271.092C167.167 271.505 167.193 271.939 167.193 272.392V278.232H165.333V272.792C165.333 272.179 165.3 271.652 165.233 271.212C165.167 270.772 165.047 270.405 164.873 270.112C164.713 269.819 164.487 269.605 164.193 269.472C163.913 269.325 163.553 269.252 163.113 269.252C162.927 269.252 162.727 269.259 162.513 269.272C162.3 269.285 162.093 269.305 161.893 269.332C161.707 269.345 161.533 269.365 161.373 269.392C161.213 269.419 161.107 269.439 161.053 269.452V278.232H159.193V268.132ZM175.84 273.052C175.84 272.132 175.973 271.332 176.24 270.652C176.507 269.959 176.86 269.385 177.3 268.932C177.74 268.479 178.247 268.139 178.82 267.912C179.393 267.685 179.98 267.572 180.58 267.572C181.98 267.572 183.053 268.012 183.8 268.892C184.547 269.759 184.92 271.085 184.92 272.872C184.92 272.952 184.92 273.059 184.92 273.192C184.92 273.312 184.913 273.425 184.9 273.532H177.78C177.86 274.612 178.173 275.432 178.72 275.992C179.267 276.552 180.12 276.832 181.28 276.832C181.933 276.832 182.48 276.779 182.92 276.672C183.373 276.552 183.713 276.439 183.94 276.332L184.2 277.892C183.973 278.012 183.573 278.139 183 278.272C182.44 278.405 181.8 278.472 181.08 278.472C180.173 278.472 179.387 278.339 178.72 278.072C178.067 277.792 177.527 277.412 177.1 276.932C176.673 276.452 176.353 275.885 176.14 275.232C175.94 274.565 175.84 273.839 175.84 273.052ZM182.98 272.032C182.993 271.192 182.78 270.505 182.34 269.972C181.913 269.425 181.32 269.152 180.56 269.152C180.133 269.152 179.753 269.239 179.42 269.412C179.1 269.572 178.827 269.785 178.6 270.052C178.373 270.319 178.193 270.625 178.06 270.972C177.94 271.319 177.86 271.672 177.82 272.032H182.98ZM182.96 263.892L180.14 266.632L179.2 265.792L181.76 262.712L182.96 263.892ZM194.312 270.032C194.085 269.845 193.758 269.665 193.332 269.492C192.905 269.319 192.438 269.232 191.932 269.232C191.398 269.232 190.938 269.332 190.552 269.532C190.178 269.719 189.872 269.985 189.632 270.332C189.392 270.665 189.218 271.065 189.112 271.532C189.005 271.999 188.952 272.499 188.952 273.032C188.952 274.245 189.252 275.185 189.852 275.852C190.452 276.505 191.252 276.832 192.252 276.832C192.758 276.832 193.178 276.812 193.512 276.772C193.858 276.719 194.125 276.665 194.312 276.612V270.032ZM194.312 263.032L196.172 262.712V277.932C195.745 278.052 195.198 278.172 194.532 278.292C193.865 278.412 193.098 278.472 192.232 278.472C191.432 278.472 190.712 278.345 190.072 278.092C189.432 277.839 188.885 277.479 188.432 277.012C187.978 276.545 187.625 275.979 187.372 275.312C187.132 274.632 187.012 273.872 187.012 273.032C187.012 272.232 187.112 271.499 187.312 270.832C187.525 270.165 187.832 269.592 188.232 269.112C188.632 268.632 189.118 268.259 189.692 267.992C190.278 267.725 190.945 267.592 191.692 267.592C192.292 267.592 192.818 267.672 193.272 267.832C193.738 267.992 194.085 268.145 194.312 268.292V263.032ZM201.229 278.232H199.369V267.832H201.229V278.232ZM200.289 265.952C199.956 265.952 199.669 265.845 199.429 265.632C199.202 265.405 199.089 265.105 199.089 264.732C199.089 264.359 199.202 264.065 199.429 263.852C199.669 263.625 199.956 263.512 200.289 263.512C200.622 263.512 200.902 263.625 201.129 263.852C201.369 264.065 201.489 264.359 201.489 264.732C201.489 265.105 201.369 265.405 201.129 265.632C200.902 265.845 200.622 265.952 200.289 265.952ZM208.948 278.472C208.108 278.472 207.368 278.339 206.728 278.072C206.101 277.805 205.568 277.432 205.128 276.952C204.701 276.472 204.381 275.905 204.168 275.252C203.954 274.585 203.848 273.852 203.848 273.052C203.848 272.252 203.961 271.519 204.188 270.852C204.428 270.185 204.761 269.612 205.188 269.132C205.614 268.639 206.134 268.259 206.748 267.992C207.374 267.712 208.068 267.572 208.828 267.572C209.294 267.572 209.761 267.612 210.228 267.692C210.694 267.772 211.141 267.899 211.568 268.072L211.148 269.652C210.868 269.519 210.541 269.412 210.168 269.332C209.808 269.252 209.421 269.212 209.008 269.212C207.968 269.212 207.168 269.539 206.608 270.192C206.061 270.845 205.788 271.799 205.788 273.052C205.788 273.612 205.848 274.125 205.968 274.592C206.101 275.059 206.301 275.459 206.568 275.792C206.848 276.125 207.201 276.385 207.628 276.572C208.054 276.745 208.574 276.832 209.188 276.832C209.681 276.832 210.128 276.785 210.528 276.692C210.928 276.599 211.241 276.499 211.468 276.392L211.728 277.952C211.621 278.019 211.468 278.085 211.268 278.152C211.068 278.205 210.841 278.252 210.588 278.292C210.334 278.345 210.061 278.385 209.768 278.412C209.488 278.452 209.214 278.472 208.948 278.472ZM217.245 276.892C217.685 276.892 218.071 276.885 218.405 276.872C218.751 276.845 219.038 276.805 219.265 276.752V273.652C219.131 273.585 218.911 273.532 218.605 273.492C218.311 273.439 217.951 273.412 217.525 273.412C217.245 273.412 216.945 273.432 216.625 273.472C216.318 273.512 216.031 273.599 215.765 273.732C215.511 273.852 215.298 274.025 215.125 274.252C214.951 274.465 214.865 274.752 214.865 275.112C214.865 275.779 215.078 276.245 215.505 276.512C215.931 276.765 216.511 276.892 217.245 276.892ZM217.085 267.572C217.831 267.572 218.458 267.672 218.965 267.872C219.485 268.059 219.898 268.332 220.205 268.692C220.525 269.039 220.751 269.459 220.885 269.952C221.018 270.432 221.085 270.965 221.085 271.552V278.052C220.925 278.079 220.698 278.119 220.405 278.172C220.125 278.212 219.805 278.252 219.445 278.292C219.085 278.332 218.691 278.365 218.265 278.392C217.851 278.432 217.438 278.452 217.025 278.452C216.438 278.452 215.898 278.392 215.405 278.272C214.911 278.152 214.485 277.965 214.125 277.712C213.765 277.445 213.485 277.099 213.285 276.672C213.085 276.245 212.985 275.732 212.985 275.132C212.985 274.559 213.098 274.065 213.325 273.652C213.565 273.239 213.885 272.905 214.285 272.652C214.685 272.399 215.151 272.212 215.685 272.092C216.218 271.972 216.778 271.912 217.365 271.912C217.551 271.912 217.745 271.925 217.945 271.952C218.145 271.965 218.331 271.992 218.505 272.032C218.691 272.059 218.851 272.085 218.985 272.112C219.118 272.139 219.211 272.159 219.265 272.172V271.652C219.265 271.345 219.231 271.045 219.165 270.752C219.098 270.445 218.978 270.179 218.805 269.952C218.631 269.712 218.391 269.525 218.085 269.392C217.791 269.245 217.405 269.172 216.925 269.172C216.311 269.172 215.771 269.219 215.305 269.312C214.851 269.392 214.511 269.479 214.285 269.572L214.065 268.032C214.305 267.925 214.705 267.825 215.265 267.732C215.825 267.625 216.431 267.572 217.085 267.572ZM226.594 276.892C227.354 276.892 227.914 276.792 228.274 276.592C228.647 276.392 228.834 276.072 228.834 275.632C228.834 275.179 228.654 274.819 228.294 274.552C227.934 274.285 227.34 273.985 226.514 273.652C226.114 273.492 225.727 273.332 225.354 273.172C224.994 272.999 224.68 272.799 224.414 272.572C224.147 272.345 223.934 272.072 223.774 271.752C223.614 271.432 223.534 271.039 223.534 270.572C223.534 269.652 223.874 268.925 224.554 268.392C225.234 267.845 226.16 267.572 227.334 267.572C227.627 267.572 227.92 267.592 228.214 267.632C228.507 267.659 228.78 267.699 229.034 267.752C229.287 267.792 229.507 267.839 229.694 267.892C229.894 267.945 230.047 267.992 230.154 268.032L229.814 269.632C229.614 269.525 229.3 269.419 228.874 269.312C228.447 269.192 227.934 269.132 227.334 269.132C226.814 269.132 226.36 269.239 225.974 269.452C225.587 269.652 225.394 269.972 225.394 270.412C225.394 270.639 225.434 270.839 225.514 271.012C225.607 271.185 225.74 271.345 225.914 271.492C226.1 271.625 226.327 271.752 226.594 271.872C226.86 271.992 227.18 272.119 227.554 272.252C228.047 272.439 228.487 272.625 228.874 272.812C229.26 272.985 229.587 273.192 229.854 273.432C230.134 273.672 230.347 273.965 230.494 274.312C230.64 274.645 230.714 275.059 230.714 275.552C230.714 276.512 230.354 277.239 229.634 277.732C228.927 278.225 227.914 278.472 226.594 278.472C225.674 278.472 224.954 278.392 224.434 278.232C223.914 278.085 223.56 277.972 223.374 277.892L223.714 276.292C223.927 276.372 224.267 276.492 224.734 276.652C225.2 276.812 225.82 276.892 226.594 276.892ZM24.7828 298.252C24.7828 299.959 25.0295 301.539 25.5228 302.992C26.0161 304.445 26.7428 305.792 27.7028 307.032L26.3828 307.932C25.3428 306.665 24.5028 305.212 23.8628 303.572C23.2361 301.919 22.9228 300.145 22.9228 298.252C22.9228 296.359 23.2361 294.592 23.8628 292.952C24.5028 291.299 25.3428 289.839 26.3828 288.572L27.7028 289.472C26.7428 290.712 26.0161 292.059 25.5228 293.512C25.0295 294.965 24.7828 296.545 24.7828 298.252ZM33.9672 304.472C33.1272 304.472 32.3872 304.339 31.7472 304.072C31.1205 303.805 30.5872 303.432 30.1472 302.952C29.7205 302.472 29.4005 301.905 29.1872 301.252C28.9738 300.585 28.8672 299.852 28.8672 299.052C28.8672 298.252 28.9805 297.519 29.2072 296.852C29.4472 296.185 29.7805 295.612 30.2072 295.132C30.6339 294.639 31.1539 294.259 31.7672 293.992C32.3939 293.712 33.0872 293.572 33.8472 293.572C34.3139 293.572 34.7805 293.612 35.2472 293.692C35.7139 293.772 36.1605 293.899 36.5872 294.072L36.1672 295.652C35.8872 295.519 35.5605 295.412 35.1872 295.332C34.8272 295.252 34.4405 295.212 34.0272 295.212C32.9872 295.212 32.1872 295.539 31.6272 296.192C31.0805 296.845 30.8072 297.799 30.8072 299.052C30.8072 299.612 30.8672 300.125 30.9872 300.592C31.1205 301.059 31.3205 301.459 31.5872 301.792C31.8672 302.125 32.2205 302.385 32.6472 302.572C33.0739 302.745 33.5939 302.832 34.2072 302.832C34.7005 302.832 35.1472 302.785 35.5472 302.692C35.9472 302.599 36.2605 302.499 36.4872 302.392L36.7472 303.952C36.6405 304.019 36.4872 304.085 36.2872 304.152C36.0872 304.205 35.8605 304.252 35.6072 304.292C35.3539 304.345 35.0805 304.385 34.7872 304.412C34.5072 304.452 34.2339 304.472 33.9672 304.472ZM41.8641 304.432C40.7174 304.405 39.9041 304.159 39.4241 303.692C38.9441 303.225 38.7041 302.499 38.7041 301.512V289.032L40.5641 288.712V301.212C40.5641 301.519 40.5907 301.772 40.6441 301.972C40.6974 302.172 40.7841 302.332 40.9041 302.452C41.0241 302.572 41.1841 302.665 41.3841 302.732C41.5841 302.785 41.8307 302.832 42.1241 302.872L41.8641 304.432ZM46.0728 304.232H44.2128V293.832H46.0728V304.232ZM47.5728 289.892L44.7528 292.632L43.8128 291.792L46.3728 288.712L47.5728 289.892ZM49.2714 294.132C49.6981 294.025 50.2647 293.912 50.9714 293.792C51.6781 293.672 52.4914 293.612 53.4114 293.612C54.2381 293.612 54.9247 293.732 55.4714 293.972C56.0181 294.199 56.4514 294.525 56.7714 294.952C57.1047 295.365 57.3381 295.865 57.4714 296.452C57.6047 297.039 57.6714 297.685 57.6714 298.392V304.232H55.8114V298.792C55.8114 298.152 55.7647 297.605 55.6714 297.152C55.5914 296.699 55.4514 296.332 55.2514 296.052C55.0514 295.772 54.7847 295.572 54.4514 295.452C54.1181 295.319 53.7047 295.252 53.2114 295.252C53.0114 295.252 52.8047 295.259 52.5914 295.272C52.3781 295.285 52.1714 295.305 51.9714 295.332C51.7847 295.345 51.6114 295.365 51.4514 295.392C51.3047 295.419 51.1981 295.439 51.1314 295.452V304.232H49.2714V294.132ZM62.6158 304.232H60.7558V293.832H62.6158V304.232ZM61.6758 291.952C61.3424 291.952 61.0558 291.845 60.8158 291.632C60.5891 291.405 60.4758 291.105 60.4758 290.732C60.4758 290.359 60.5891 290.065 60.8158 289.852C61.0558 289.625 61.3424 289.512 61.6758 289.512C62.0091 289.512 62.2891 289.625 62.5158 289.852C62.7558 290.065 62.8758 290.359 62.8758 290.732C62.8758 291.105 62.7558 291.405 62.5158 291.632C62.2891 291.845 62.0091 291.952 61.6758 291.952ZM70.3344 304.472C69.4944 304.472 68.7544 304.339 68.1144 304.072C67.4877 303.805 66.9544 303.432 66.5144 302.952C66.0877 302.472 65.7677 301.905 65.5544 301.252C65.341 300.585 65.2344 299.852 65.2344 299.052C65.2344 298.252 65.3477 297.519 65.5744 296.852C65.8144 296.185 66.1477 295.612 66.5744 295.132C67.001 294.639 67.521 294.259 68.1344 293.992C68.761 293.712 69.4544 293.572 70.2144 293.572C70.681 293.572 71.1477 293.612 71.6144 293.692C72.081 293.772 72.5277 293.899 72.9544 294.072L72.5344 295.652C72.2544 295.519 71.9277 295.412 71.5544 295.332C71.1944 295.252 70.8077 295.212 70.3944 295.212C69.3544 295.212 68.5544 295.539 67.9944 296.192C67.4477 296.845 67.1744 297.799 67.1744 299.052C67.1744 299.612 67.2344 300.125 67.3544 300.592C67.4877 301.059 67.6877 301.459 67.9544 301.792C68.2344 302.125 68.5877 302.385 69.0144 302.572C69.441 302.745 69.961 302.832 70.5744 302.832C71.0677 302.832 71.5144 302.785 71.9144 302.692C72.3144 302.599 72.6277 302.499 72.8544 302.392L73.1144 303.952C73.0077 304.019 72.8544 304.085 72.6544 304.152C72.4544 304.205 72.2277 304.252 71.9744 304.292C71.721 304.345 71.4477 304.385 71.1544 304.412C70.8744 304.452 70.601 304.472 70.3344 304.472ZM84.0373 299.032C84.0373 299.859 83.9173 300.605 83.6773 301.272C83.4373 301.939 83.0973 302.512 82.6573 302.992C82.2307 303.472 81.7173 303.845 81.1173 304.112C80.5173 304.365 79.864 304.492 79.1573 304.492C78.4507 304.492 77.7973 304.365 77.1973 304.112C76.5973 303.845 76.0773 303.472 75.6373 302.992C75.2107 302.512 74.8773 301.939 74.6373 301.272C74.3973 300.605 74.2773 299.859 74.2773 299.032C74.2773 298.219 74.3973 297.479 74.6373 296.812C74.8773 296.132 75.2107 295.552 75.6373 295.072C76.0773 294.592 76.5973 294.225 77.1973 293.972C77.7973 293.705 78.4507 293.572 79.1573 293.572C79.864 293.572 80.5173 293.705 81.1173 293.972C81.7173 294.225 82.2307 294.592 82.6573 295.072C83.0973 295.552 83.4373 296.132 83.6773 296.812C83.9173 297.479 84.0373 298.219 84.0373 299.032ZM82.0973 299.032C82.0973 297.859 81.8307 296.932 81.2973 296.252C80.7773 295.559 80.064 295.212 79.1573 295.212C78.2507 295.212 77.5307 295.559 76.9973 296.252C76.4773 296.932 76.2173 297.859 76.2173 299.032C76.2173 300.205 76.4773 301.139 76.9973 301.832C77.5307 302.512 78.2507 302.852 79.1573 302.852C80.064 302.852 80.7773 302.512 81.2973 301.832C81.8307 301.139 82.0973 300.205 82.0973 299.032ZM90.7031 299.052C90.7031 298.132 90.8365 297.332 91.1031 296.652C91.3698 295.959 91.7231 295.385 92.1631 294.932C92.6031 294.479 93.1098 294.139 93.6831 293.912C94.2565 293.685 94.8431 293.572 95.4431 293.572C96.8431 293.572 97.9165 294.012 98.6631 294.892C99.4098 295.759 99.7831 297.085 99.7831 298.872C99.7831 298.952 99.7831 299.059 99.7831 299.192C99.7831 299.312 99.7765 299.425 99.7631 299.532H92.6431C92.7231 300.612 93.0365 301.432 93.5831 301.992C94.1298 302.552 94.9831 302.832 96.1431 302.832C96.7965 302.832 97.3431 302.779 97.7831 302.672C98.2365 302.552 98.5765 302.439 98.8031 302.332L99.0631 303.892C98.8365 304.012 98.4365 304.139 97.8631 304.272C97.3031 304.405 96.6631 304.472 95.9431 304.472C95.0365 304.472 94.2498 304.339 93.5831 304.072C92.9298 303.792 92.3898 303.412 91.9631 302.932C91.5365 302.452 91.2165 301.885 91.0031 301.232C90.8031 300.565 90.7031 299.839 90.7031 299.052ZM97.8431 298.032C97.8565 297.192 97.6431 296.505 97.2031 295.972C96.7765 295.425 96.1831 295.152 95.4231 295.152C94.9965 295.152 94.6165 295.239 94.2831 295.412C93.9631 295.572 93.6898 295.785 93.4631 296.052C93.2365 296.319 93.0565 296.625 92.9231 296.972C92.8031 297.319 92.7231 297.672 92.6831 298.032H97.8431ZM106.504 299.052C106.504 298.132 106.637 297.332 106.904 296.652C107.171 295.959 107.524 295.385 107.964 294.932C108.404 294.479 108.911 294.139 109.484 293.912C110.057 293.685 110.644 293.572 111.244 293.572C112.644 293.572 113.717 294.012 114.464 294.892C115.211 295.759 115.584 297.085 115.584 298.872C115.584 298.952 115.584 299.059 115.584 299.192C115.584 299.312 115.577 299.425 115.564 299.532H108.444C108.524 300.612 108.837 301.432 109.384 301.992C109.931 302.552 110.784 302.832 111.944 302.832C112.597 302.832 113.144 302.779 113.584 302.672C114.037 302.552 114.377 302.439 114.604 302.332L114.864 303.892C114.637 304.012 114.237 304.139 113.664 304.272C113.104 304.405 112.464 304.472 111.744 304.472C110.837 304.472 110.051 304.339 109.384 304.072C108.731 303.792 108.191 303.412 107.764 302.932C107.337 302.452 107.017 301.885 106.804 301.232C106.604 300.565 106.504 299.839 106.504 299.052ZM113.644 298.032C113.657 297.192 113.444 296.505 113.004 295.972C112.577 295.425 111.984 295.152 111.224 295.152C110.797 295.152 110.417 295.239 110.084 295.412C109.764 295.572 109.491 295.785 109.264 296.052C109.037 296.319 108.857 296.625 108.724 296.972C108.604 297.319 108.524 297.672 108.484 298.032H113.644ZM120.676 302.892C121.436 302.892 121.996 302.792 122.356 302.592C122.729 302.392 122.916 302.072 122.916 301.632C122.916 301.179 122.736 300.819 122.376 300.552C122.016 300.285 121.422 299.985 120.596 299.652C120.196 299.492 119.809 299.332 119.436 299.172C119.076 298.999 118.762 298.799 118.496 298.572C118.229 298.345 118.016 298.072 117.856 297.752C117.696 297.432 117.616 297.039 117.616 296.572C117.616 295.652 117.956 294.925 118.636 294.392C119.316 293.845 120.242 293.572 121.416 293.572C121.709 293.572 122.002 293.592 122.296 293.632C122.589 293.659 122.862 293.699 123.116 293.752C123.369 293.792 123.589 293.839 123.776 293.892C123.976 293.945 124.129 293.992 124.236 294.032L123.896 295.632C123.696 295.525 123.382 295.419 122.956 295.312C122.529 295.192 122.016 295.132 121.416 295.132C120.896 295.132 120.442 295.239 120.056 295.452C119.669 295.652 119.476 295.972 119.476 296.412C119.476 296.639 119.516 296.839 119.596 297.012C119.689 297.185 119.822 297.345 119.996 297.492C120.182 297.625 120.409 297.752 120.676 297.872C120.942 297.992 121.262 298.119 121.636 298.252C122.129 298.439 122.569 298.625 122.956 298.812C123.342 298.985 123.669 299.192 123.936 299.432C124.216 299.672 124.429 299.965 124.576 300.312C124.722 300.645 124.796 301.059 124.796 301.552C124.796 302.512 124.436 303.239 123.716 303.732C123.009 304.225 121.996 304.472 120.676 304.472C119.756 304.472 119.036 304.392 118.516 304.232C117.996 304.085 117.642 303.972 117.456 303.892L117.796 302.292C118.009 302.372 118.349 302.492 118.816 302.652C119.282 302.812 119.902 302.892 120.676 302.892ZM134.402 299.052C134.402 297.839 134.102 296.905 133.502 296.252C132.902 295.599 132.102 295.272 131.102 295.272C130.542 295.272 130.102 295.292 129.782 295.332C129.475 295.372 129.228 295.419 129.042 295.472V302.032C129.268 302.219 129.595 302.399 130.022 302.572C130.448 302.745 130.915 302.832 131.422 302.832C131.955 302.832 132.408 302.739 132.782 302.552C133.168 302.352 133.482 302.085 133.722 301.752C133.962 301.405 134.135 301.005 134.242 300.552C134.348 300.085 134.402 299.585 134.402 299.052ZM136.342 299.052C136.342 299.839 136.235 300.565 136.022 301.232C135.822 301.899 135.522 302.472 135.122 302.952C134.722 303.432 134.228 303.805 133.642 304.072C133.068 304.339 132.408 304.472 131.662 304.472C131.062 304.472 130.528 304.392 130.062 304.232C129.608 304.072 129.268 303.919 129.042 303.772V307.932H127.182V294.152C127.622 294.045 128.168 293.932 128.822 293.812C129.488 293.679 130.255 293.612 131.122 293.612C131.922 293.612 132.642 293.739 133.282 293.992C133.922 294.245 134.468 294.605 134.922 295.072C135.375 295.539 135.722 296.112 135.962 296.792C136.215 297.459 136.342 298.212 136.342 299.052ZM138.379 299.052C138.379 298.132 138.512 297.332 138.779 296.652C139.046 295.959 139.399 295.385 139.839 294.932C140.279 294.479 140.786 294.139 141.359 293.912C141.932 293.685 142.519 293.572 143.119 293.572C144.519 293.572 145.592 294.012 146.339 294.892C147.086 295.759 147.459 297.085 147.459 298.872C147.459 298.952 147.459 299.059 147.459 299.192C147.459 299.312 147.452 299.425 147.439 299.532H140.319C140.399 300.612 140.712 301.432 141.259 301.992C141.806 302.552 142.659 302.832 143.819 302.832C144.472 302.832 145.019 302.779 145.459 302.672C145.912 302.552 146.252 302.439 146.479 302.332L146.739 303.892C146.512 304.012 146.112 304.139 145.539 304.272C144.979 304.405 144.339 304.472 143.619 304.472C142.712 304.472 141.926 304.339 141.259 304.072C140.606 303.792 140.066 303.412 139.639 302.932C139.212 302.452 138.892 301.885 138.679 301.232C138.479 300.565 138.379 299.839 138.379 299.052ZM145.519 298.032C145.532 297.192 145.319 296.505 144.879 295.972C144.452 295.425 143.859 295.152 143.099 295.152C142.672 295.152 142.292 295.239 141.959 295.412C141.639 295.572 141.366 295.785 141.139 296.052C140.912 296.319 140.732 296.625 140.599 296.972C140.479 297.319 140.399 297.672 140.359 298.032H145.519ZM154.651 304.472C153.811 304.472 153.071 304.339 152.431 304.072C151.804 303.805 151.271 303.432 150.831 302.952C150.404 302.472 150.084 301.905 149.871 301.252C149.657 300.585 149.551 299.852 149.551 299.052C149.551 298.252 149.664 297.519 149.891 296.852C150.131 296.185 150.464 295.612 150.891 295.132C151.317 294.639 151.837 294.259 152.451 293.992C153.077 293.712 153.771 293.572 154.531 293.572C154.997 293.572 155.464 293.612 155.931 293.692C156.397 293.772 156.844 293.899 157.271 294.072L156.851 295.652C156.571 295.519 156.244 295.412 155.871 295.332C155.511 295.252 155.124 295.212 154.711 295.212C153.671 295.212 152.871 295.539 152.311 296.192C151.764 296.845 151.491 297.799 151.491 299.052C151.491 299.612 151.551 300.125 151.671 300.592C151.804 301.059 152.004 301.459 152.271 301.792C152.551 302.125 152.904 302.385 153.331 302.572C153.757 302.745 154.277 302.832 154.891 302.832C155.384 302.832 155.831 302.785 156.231 302.692C156.631 302.599 156.944 302.499 157.171 302.392L157.431 303.952C157.324 304.019 157.171 304.085 156.971 304.152C156.771 304.205 156.544 304.252 156.291 304.292C156.037 304.345 155.764 304.385 155.471 304.412C155.191 304.452 154.917 304.472 154.651 304.472ZM161.288 304.232H159.428V293.832H161.288V304.232ZM160.348 291.952C160.014 291.952 159.728 291.845 159.488 291.632C159.261 291.405 159.148 291.105 159.148 290.732C159.148 290.359 159.261 290.065 159.488 289.852C159.728 289.625 160.014 289.512 160.348 289.512C160.681 289.512 160.961 289.625 161.188 289.852C161.428 290.065 161.548 290.359 161.548 290.732C161.548 291.105 161.428 291.405 161.188 291.632C160.961 291.845 160.681 291.952 160.348 291.952ZM168.006 302.892C168.446 302.892 168.833 302.885 169.166 302.872C169.513 302.845 169.8 302.805 170.026 302.752V299.652C169.893 299.585 169.673 299.532 169.366 299.492C169.073 299.439 168.713 299.412 168.286 299.412C168.006 299.412 167.706 299.432 167.386 299.472C167.08 299.512 166.793 299.599 166.526 299.732C166.273 299.852 166.06 300.025 165.886 300.252C165.713 300.465 165.626 300.752 165.626 301.112C165.626 301.779 165.84 302.245 166.266 302.512C166.693 302.765 167.273 302.892 168.006 302.892ZM167.846 293.572C168.593 293.572 169.22 293.672 169.726 293.872C170.246 294.059 170.66 294.332 170.966 294.692C171.286 295.039 171.513 295.459 171.646 295.952C171.78 296.432 171.846 296.965 171.846 297.552V304.052C171.686 304.079 171.46 304.119 171.166 304.172C170.886 304.212 170.566 304.252 170.206 304.292C169.846 304.332 169.453 304.365 169.026 304.392C168.613 304.432 168.2 304.452 167.786 304.452C167.2 304.452 166.66 304.392 166.166 304.272C165.673 304.152 165.246 303.965 164.886 303.712C164.526 303.445 164.246 303.099 164.046 302.672C163.846 302.245 163.746 301.732 163.746 301.132C163.746 300.559 163.86 300.065 164.086 299.652C164.326 299.239 164.646 298.905 165.046 298.652C165.446 298.399 165.913 298.212 166.446 298.092C166.98 297.972 167.54 297.912 168.126 297.912C168.313 297.912 168.506 297.925 168.706 297.952C168.906 297.965 169.093 297.992 169.266 298.032C169.453 298.059 169.613 298.085 169.746 298.112C169.88 298.139 169.973 298.159 170.026 298.172V297.652C170.026 297.345 169.993 297.045 169.926 296.752C169.86 296.445 169.74 296.179 169.566 295.952C169.393 295.712 169.153 295.525 168.846 295.392C168.553 295.245 168.166 295.172 167.686 295.172C167.073 295.172 166.533 295.219 166.066 295.312C165.613 295.392 165.273 295.479 165.046 295.572L164.826 294.032C165.066 293.925 165.466 293.825 166.026 293.732C166.586 293.625 167.193 293.572 167.846 293.572ZM178.055 304.432C176.909 304.405 176.095 304.159 175.615 303.692C175.135 303.225 174.895 302.499 174.895 301.512V289.032L176.755 288.712V301.212C176.755 301.519 176.782 301.772 176.835 301.972C176.889 302.172 176.975 302.332 177.095 302.452C177.215 302.572 177.375 302.665 177.575 302.732C177.775 302.785 178.022 302.832 178.315 302.872L178.055 304.432ZM182.264 304.232H180.404V293.832H182.264V304.232ZM181.324 291.952C180.991 291.952 180.704 291.845 180.464 291.632C180.238 291.405 180.124 291.105 180.124 290.732C180.124 290.359 180.238 290.065 180.464 289.852C180.704 289.625 180.991 289.512 181.324 289.512C181.658 289.512 181.938 289.625 182.164 289.852C182.404 290.065 182.524 290.359 182.524 290.732C182.524 291.105 182.404 291.405 182.164 291.632C181.938 291.845 181.658 291.952 181.324 291.952ZM192.183 296.032C191.956 295.845 191.629 295.665 191.203 295.492C190.776 295.319 190.309 295.232 189.803 295.232C189.269 295.232 188.809 295.332 188.423 295.532C188.049 295.719 187.743 295.985 187.503 296.332C187.263 296.665 187.089 297.065 186.983 297.532C186.876 297.999 186.823 298.499 186.823 299.032C186.823 300.245 187.123 301.185 187.723 301.852C188.323 302.505 189.123 302.832 190.123 302.832C190.629 302.832 191.049 302.812 191.383 302.772C191.729 302.719 191.996 302.665 192.183 302.612V296.032ZM192.183 289.032L194.043 288.712V303.932C193.616 304.052 193.069 304.172 192.403 304.292C191.736 304.412 190.969 304.472 190.103 304.472C189.303 304.472 188.583 304.345 187.943 304.092C187.303 303.839 186.756 303.479 186.303 303.012C185.849 302.545 185.496 301.979 185.243 301.312C185.003 300.632 184.883 299.872 184.883 299.032C184.883 298.232 184.983 297.499 185.183 296.832C185.396 296.165 185.703 295.592 186.103 295.112C186.503 294.632 186.989 294.259 187.563 293.992C188.149 293.725 188.816 293.592 189.563 293.592C190.163 293.592 190.689 293.672 191.143 293.832C191.609 293.992 191.956 294.145 192.183 294.292V289.032ZM200.76 302.892C201.2 302.892 201.587 302.885 201.92 302.872C202.267 302.845 202.553 302.805 202.78 302.752V299.652C202.647 299.585 202.427 299.532 202.12 299.492C201.827 299.439 201.467 299.412 201.04 299.412C200.76 299.412 200.46 299.432 200.14 299.472C199.833 299.512 199.547 299.599 199.28 299.732C199.027 299.852 198.813 300.025 198.64 300.252C198.467 300.465 198.38 300.752 198.38 301.112C198.38 301.779 198.593 302.245 199.02 302.512C199.447 302.765 200.027 302.892 200.76 302.892ZM200.6 293.572C201.347 293.572 201.973 293.672 202.48 293.872C203 294.059 203.413 294.332 203.72 294.692C204.04 295.039 204.267 295.459 204.4 295.952C204.533 296.432 204.6 296.965 204.6 297.552V304.052C204.44 304.079 204.213 304.119 203.92 304.172C203.64 304.212 203.32 304.252 202.96 304.292C202.6 304.332 202.207 304.365 201.78 304.392C201.367 304.432 200.953 304.452 200.54 304.452C199.953 304.452 199.413 304.392 198.92 304.272C198.427 304.152 198 303.965 197.64 303.712C197.28 303.445 197 303.099 196.8 302.672C196.6 302.245 196.5 301.732 196.5 301.132C196.5 300.559 196.613 300.065 196.84 299.652C197.08 299.239 197.4 298.905 197.8 298.652C198.2 298.399 198.667 298.212 199.2 298.092C199.733 297.972 200.293 297.912 200.88 297.912C201.067 297.912 201.26 297.925 201.46 297.952C201.66 297.965 201.847 297.992 202.02 298.032C202.207 298.059 202.367 298.085 202.5 298.112C202.633 298.139 202.727 298.159 202.78 298.172V297.652C202.78 297.345 202.747 297.045 202.68 296.752C202.613 296.445 202.493 296.179 202.32 295.952C202.147 295.712 201.907 295.525 201.6 295.392C201.307 295.245 200.92 295.172 200.44 295.172C199.827 295.172 199.287 295.219 198.82 295.312C198.367 295.392 198.027 295.479 197.8 295.572L197.58 294.032C197.82 293.925 198.22 293.825 198.78 293.732C199.34 293.625 199.947 293.572 200.6 293.572ZM214.409 296.032C214.183 295.845 213.856 295.665 213.429 295.492C213.003 295.319 212.536 295.232 212.029 295.232C211.496 295.232 211.036 295.332 210.649 295.532C210.276 295.719 209.969 295.985 209.729 296.332C209.489 296.665 209.316 297.065 209.209 297.532C209.103 297.999 209.049 298.499 209.049 299.032C209.049 300.245 209.349 301.185 209.949 301.852C210.549 302.505 211.349 302.832 212.349 302.832C212.856 302.832 213.276 302.812 213.609 302.772C213.956 302.719 214.223 302.665 214.409 302.612V296.032ZM214.409 289.032L216.269 288.712V303.932C215.843 304.052 215.296 304.172 214.629 304.292C213.963 304.412 213.196 304.472 212.329 304.472C211.529 304.472 210.809 304.345 210.169 304.092C209.529 303.839 208.983 303.479 208.529 303.012C208.076 302.545 207.723 301.979 207.469 301.312C207.229 300.632 207.109 299.872 207.109 299.032C207.109 298.232 207.209 297.499 207.409 296.832C207.623 296.165 207.929 295.592 208.329 295.112C208.729 294.632 209.216 294.259 209.789 293.992C210.376 293.725 211.043 293.592 211.789 293.592C212.389 293.592 212.916 293.672 213.369 293.832C213.836 293.992 214.183 294.145 214.409 294.292V289.032ZM218.887 299.052C218.887 298.132 219.02 297.332 219.287 296.652C219.553 295.959 219.907 295.385 220.347 294.932C220.787 294.479 221.293 294.139 221.867 293.912C222.44 293.685 223.027 293.572 223.627 293.572C225.027 293.572 226.1 294.012 226.847 294.892C227.593 295.759 227.967 297.085 227.967 298.872C227.967 298.952 227.967 299.059 227.967 299.192C227.967 299.312 227.96 299.425 227.947 299.532H220.827C220.907 300.612 221.22 301.432 221.767 301.992C222.313 302.552 223.167 302.832 224.327 302.832C224.98 302.832 225.527 302.779 225.967 302.672C226.42 302.552 226.76 302.439 226.987 302.332L227.247 303.892C227.02 304.012 226.62 304.139 226.047 304.272C225.487 304.405 224.847 304.472 224.127 304.472C223.22 304.472 222.433 304.339 221.767 304.072C221.113 303.792 220.573 303.412 220.147 302.932C219.72 302.452 219.4 301.885 219.187 301.232C218.987 300.565 218.887 299.839 218.887 299.052ZM226.027 298.032C226.04 297.192 225.827 296.505 225.387 295.972C224.96 295.425 224.367 295.152 223.607 295.152C223.18 295.152 222.8 295.239 222.467 295.412C222.147 295.572 221.873 295.785 221.647 296.052C221.42 296.319 221.24 296.625 221.107 296.972C220.987 297.319 220.907 297.672 220.867 298.032H226.027ZM233.059 302.892C233.819 302.892 234.379 302.792 234.739 302.592C235.112 302.392 235.299 302.072 235.299 301.632C235.299 301.179 235.119 300.819 234.759 300.552C234.399 300.285 233.805 299.985 232.979 299.652C232.579 299.492 232.192 299.332 231.819 299.172C231.459 298.999 231.145 298.799 230.879 298.572C230.612 298.345 230.399 298.072 230.239 297.752C230.079 297.432 229.999 297.039 229.999 296.572C229.999 295.652 230.339 294.925 231.019 294.392C231.699 293.845 232.625 293.572 233.799 293.572C234.092 293.572 234.385 293.592 234.679 293.632C234.972 293.659 235.245 293.699 235.499 293.752C235.752 293.792 235.972 293.839 236.159 293.892C236.359 293.945 236.512 293.992 236.619 294.032L236.279 295.632C236.079 295.525 235.765 295.419 235.339 295.312C234.912 295.192 234.399 295.132 233.799 295.132C233.279 295.132 232.825 295.239 232.439 295.452C232.052 295.652 231.859 295.972 231.859 296.412C231.859 296.639 231.899 296.839 231.979 297.012C232.072 297.185 232.205 297.345 232.379 297.492C232.565 297.625 232.792 297.752 233.059 297.872C233.325 297.992 233.645 298.119 234.019 298.252C234.512 298.439 234.952 298.625 235.339 298.812C235.725 298.985 236.052 299.192 236.319 299.432C236.599 299.672 236.812 299.965 236.959 300.312C237.105 300.645 237.179 301.059 237.179 301.552C237.179 302.512 236.819 303.239 236.099 303.732C235.392 304.225 234.379 304.472 233.059 304.472C232.139 304.472 231.419 304.392 230.899 304.232C230.379 304.085 230.025 303.972 229.839 303.892L230.179 302.292C230.392 302.372 230.732 302.492 231.199 302.652C231.665 302.812 232.285 302.892 233.059 302.892ZM241.024 298.252C241.024 296.545 240.778 294.965 240.284 293.512C239.791 292.059 239.064 290.712 238.104 289.472L239.424 288.572C240.464 289.839 241.298 291.299 241.924 292.952C242.564 294.592 242.884 296.359 242.884 298.252C242.884 300.145 242.564 301.919 241.924 303.572C241.298 305.212 240.464 306.665 239.424 307.932L238.104 307.032C239.064 305.792 239.791 304.445 240.284 302.992C240.778 301.539 241.024 299.959 241.024 298.252Z" fill="white"/>
</svg>
