<svg width="194" height="261" viewBox="0 0 194 261" fill="none" xmlns="http://www.w3.org/2000/svg">
<circle cx="97.6375" cy="98.0877" r="88.5984" fill="#00ACE2"/>
<g clip-path="url(#clip0)">
<path d="M193.379 97.3735L176.695 78.6967L183.848 54.4444L160.899 45.0742L157.074 20.0587L132.43 21.7759L118.392 0.915527L96.9317 13.4869L75.4713 0.915527L61.4331 21.7759L36.7682 20.0375L32.9434 45.053L9.99443 54.4444L17.1479 78.6967L0.463379 97.3735L17.1479 116.05L9.99443 140.303L32.9641 149.673L36.7889 174.688L61.4331 172.95L75.4713 193.831L96.9317 181.26L118.392 193.831L132.43 172.971L157.074 174.709L160.899 149.694L183.869 140.324L176.715 116.071L193.379 97.3735ZM149.838 140.621L146.675 161.333L126.29 159.912L114.691 177.147L96.9317 166.76L79.1721 177.147L67.5735 159.912L47.1883 161.354L44.025 140.642L25.0456 132.883L30.9586 112.828L17.1479 97.3735L30.9586 81.919L25.0456 61.8642L44.025 54.1052L47.1883 33.3932L67.5735 34.8348L79.1721 17.5996L96.9317 27.9874L114.691 17.5996L126.29 34.8348L146.675 33.3932L149.838 54.1052L168.818 61.8642L162.905 81.919L176.715 97.3735L162.905 112.828L168.818 132.883L149.838 140.621Z" fill="white"/>
<path d="M77.0636 60.6982C67.884 60.6982 60.4204 68.3513 60.4204 77.7639C60.4204 87.1765 67.884 94.8295 77.0636 94.8295C86.2431 94.8295 93.7067 87.1765 93.7067 77.7639C93.7274 68.3513 86.2431 60.6982 77.0636 60.6982ZM77.0636 82.237C74.6653 82.237 72.7012 80.2442 72.7012 77.7639C72.7012 75.3047 74.6446 73.2908 77.0636 73.2908C79.4618 73.2908 81.4259 75.2835 81.4259 77.7639C81.4259 80.2442 79.4618 82.237 77.0636 82.237Z" fill="white"/>
<path d="M116.78 100.002C107.6 100.002 100.137 107.655 100.137 117.068C100.137 126.481 107.6 134.134 116.78 134.134C125.959 134.134 133.423 126.481 133.423 117.068C133.423 107.655 125.959 100.002 116.78 100.002ZM116.78 121.541C114.382 121.541 112.418 119.548 112.418 117.068C112.418 114.609 114.361 112.595 116.78 112.595C119.178 112.595 121.142 114.588 121.142 117.068C121.142 119.527 119.178 121.541 116.78 121.541Z" fill="white"/>
<path d="M116.725 62.1844L67.5479 124.652L77.1196 132.575L126.297 70.1071L116.725 62.1844Z" fill="white"/>
</g>
<path d="M50.9755 250.445C51.1222 250.459 51.2888 250.472 51.4755 250.485C51.6755 250.485 51.9088 250.485 52.1755 250.485C53.7355 250.485 54.8888 250.092 55.6355 249.305C56.3955 248.519 56.7755 247.432 56.7755 246.045C56.7755 244.592 56.4155 243.492 55.6955 242.745C54.9755 241.999 53.8355 241.625 52.2755 241.625C52.0622 241.625 51.8422 241.632 51.6155 241.645C51.3888 241.645 51.1755 241.659 50.9755 241.685V250.445ZM59.9955 246.045C59.9955 247.245 59.8088 248.292 59.4355 249.185C59.0622 250.079 58.5288 250.819 57.8355 251.405C57.1555 251.992 56.3222 252.432 55.3355 252.725C54.3488 253.019 53.2422 253.165 52.0155 253.165C51.4555 253.165 50.8022 253.139 50.0555 253.085C49.3088 253.045 48.5755 252.952 47.8555 252.805V239.305C48.5755 239.172 49.3222 239.085 50.0955 239.045C50.8822 238.992 51.5555 238.965 52.1155 238.965C53.3022 238.965 54.3755 239.099 55.3355 239.365C56.3088 239.632 57.1422 240.052 57.8355 240.625C58.5288 241.199 59.0622 241.932 59.4355 242.825C59.8088 243.719 59.9955 244.792 59.9955 246.045ZM61.9016 247.805C61.9016 246.872 62.0416 246.059 62.3216 245.365C62.6149 244.659 62.9949 244.072 63.4616 243.605C63.9282 243.139 64.4616 242.785 65.0616 242.545C65.6749 242.305 66.3016 242.185 66.9416 242.185C68.4349 242.185 69.6149 242.645 70.4816 243.565C71.3482 244.472 71.7816 245.812 71.7816 247.585C71.7816 247.759 71.7749 247.952 71.7616 248.165C71.7482 248.365 71.7349 248.545 71.7216 248.705H64.9616C65.0282 249.319 65.3149 249.805 65.8216 250.165C66.3282 250.525 67.0082 250.705 67.8616 250.705C68.4082 250.705 68.9416 250.659 69.4616 250.565C69.9949 250.459 70.4282 250.332 70.7616 250.185L71.1616 252.605C71.0016 252.685 70.7882 252.765 70.5216 252.845C70.2549 252.925 69.9549 252.992 69.6216 253.045C69.3016 253.112 68.9549 253.165 68.5816 253.205C68.2082 253.245 67.8349 253.265 67.4616 253.265C66.5149 253.265 65.6882 253.125 64.9816 252.845C64.2882 252.565 63.7082 252.185 63.2416 251.705C62.7882 251.212 62.4482 250.632 62.2216 249.965C62.0082 249.299 61.9016 248.579 61.9016 247.805ZM68.9016 246.665C68.8882 246.412 68.8416 246.165 68.7616 245.925C68.6949 245.685 68.5816 245.472 68.4216 245.285C68.2749 245.099 68.0816 244.945 67.8416 244.825C67.6149 244.705 67.3282 244.645 66.9816 244.645C66.6482 244.645 66.3616 244.705 66.1216 244.825C65.8816 244.932 65.6816 245.079 65.5216 245.265C65.3616 245.452 65.2349 245.672 65.1416 245.925C65.0616 246.165 65.0016 246.412 64.9616 246.665H68.9016ZM77.1013 250.845C77.6479 250.845 78.0346 250.792 78.2613 250.685C78.4879 250.579 78.6013 250.372 78.6013 250.065C78.6013 249.825 78.4546 249.619 78.1613 249.445C77.8679 249.259 77.4213 249.052 76.8213 248.825C76.3546 248.652 75.9279 248.472 75.5413 248.285C75.1679 248.099 74.8479 247.879 74.5813 247.625C74.3146 247.359 74.1079 247.045 73.9613 246.685C73.8146 246.325 73.7413 245.892 73.7413 245.385C73.7413 244.399 74.1079 243.619 74.8413 243.045C75.5746 242.472 76.5813 242.185 77.8613 242.185C78.5013 242.185 79.1146 242.245 79.7013 242.365C80.2879 242.472 80.7546 242.592 81.1013 242.725L80.5813 245.045C80.2346 244.925 79.8546 244.819 79.4413 244.725C79.0413 244.632 78.5879 244.585 78.0813 244.585C77.1479 244.585 76.6813 244.845 76.6813 245.365C76.6813 245.485 76.7013 245.592 76.7413 245.685C76.7813 245.779 76.8613 245.872 76.9813 245.965C77.1013 246.045 77.2613 246.139 77.4613 246.245C77.6746 246.339 77.9413 246.445 78.2613 246.565C78.9146 246.805 79.4546 247.045 79.8813 247.285C80.3079 247.512 80.6413 247.765 80.8813 248.045C81.1346 248.312 81.3079 248.612 81.4013 248.945C81.5079 249.279 81.5613 249.665 81.5613 250.105C81.5613 251.145 81.1679 251.932 80.3813 252.465C79.6079 252.999 78.5079 253.265 77.0813 253.265C76.1479 253.265 75.3679 253.185 74.7413 253.025C74.1279 252.865 73.7013 252.732 73.4613 252.625L73.9613 250.205C74.4679 250.405 74.9879 250.565 75.5213 250.685C76.0546 250.792 76.5813 250.845 77.1013 250.845ZM83.2883 247.725C83.2883 246.965 83.4083 246.252 83.6483 245.585C83.9016 244.905 84.2616 244.319 84.7283 243.825C85.195 243.319 85.7616 242.919 86.4283 242.625C87.095 242.332 87.855 242.185 88.7083 242.185C89.2683 242.185 89.7816 242.239 90.2483 242.345C90.715 242.439 91.1683 242.579 91.6083 242.765L90.9883 245.145C90.7083 245.039 90.4016 244.945 90.0683 244.865C89.735 244.785 89.3616 244.745 88.9483 244.745C88.0683 244.745 87.4083 245.019 86.9683 245.565C86.5416 246.112 86.3283 246.832 86.3283 247.725C86.3283 248.672 86.5283 249.405 86.9283 249.925C87.3416 250.445 88.055 250.705 89.0683 250.705C89.4283 250.705 89.815 250.672 90.2283 250.605C90.6416 250.539 91.0216 250.432 91.3683 250.285L91.7883 252.725C91.4416 252.872 91.0083 252.999 90.4883 253.105C89.9683 253.212 89.395 253.265 88.7683 253.265C87.8083 253.265 86.9816 253.125 86.2883 252.845C85.595 252.552 85.0216 252.159 84.5683 251.665C84.1283 251.172 83.8016 250.592 83.5883 249.925C83.3883 249.245 83.2883 248.512 83.2883 247.725ZM103.12 247.705C103.12 248.532 103 249.292 102.76 249.985C102.52 250.665 102.174 251.252 101.72 251.745C101.267 252.225 100.72 252.599 100.08 252.865C99.4538 253.132 98.7472 253.265 97.9605 253.265C97.1872 253.265 96.4805 253.132 95.8405 252.865C95.2138 252.599 94.6738 252.225 94.2205 251.745C93.7672 251.252 93.4138 250.665 93.1605 249.985C92.9072 249.292 92.7805 248.532 92.7805 247.705C92.7805 246.879 92.9072 246.125 93.1605 245.445C93.4272 244.765 93.7872 244.185 94.2405 243.705C94.7072 243.225 95.2538 242.852 95.8805 242.585C96.5205 242.319 97.2138 242.185 97.9605 242.185C98.7205 242.185 99.4138 242.319 100.04 242.585C100.68 242.852 101.227 243.225 101.68 243.705C102.134 244.185 102.487 244.765 102.74 245.445C102.994 246.125 103.12 246.879 103.12 247.705ZM100.08 247.705C100.08 246.785 99.8938 246.065 99.5205 245.545C99.1605 245.012 98.6405 244.745 97.9605 244.745C97.2805 244.745 96.7538 245.012 96.3805 245.545C96.0072 246.065 95.8205 246.785 95.8205 247.705C95.8205 248.625 96.0072 249.359 96.3805 249.905C96.7538 250.439 97.2805 250.705 97.9605 250.705C98.6405 250.705 99.1605 250.439 99.5205 249.905C99.8938 249.359 100.08 248.625 100.08 247.705ZM105.429 242.825C105.936 242.679 106.589 242.545 107.389 242.425C108.189 242.292 109.029 242.225 109.909 242.225C110.802 242.225 111.542 242.345 112.129 242.585C112.729 242.812 113.202 243.139 113.549 243.565C113.896 243.992 114.142 244.499 114.289 245.085C114.436 245.672 114.509 246.325 114.509 247.045V252.985H111.529V247.405C111.529 246.445 111.402 245.765 111.149 245.365C110.896 244.965 110.422 244.765 109.729 244.765C109.516 244.765 109.289 244.779 109.049 244.805C108.809 244.819 108.596 244.839 108.409 244.865V252.985H105.429V242.825ZM117.106 239.845L120.086 239.365V242.465H123.666V244.945H120.086V248.645C120.086 249.272 120.193 249.772 120.406 250.145C120.633 250.519 121.08 250.705 121.746 250.705C122.066 250.705 122.393 250.679 122.726 250.625C123.073 250.559 123.386 250.472 123.666 250.365L124.086 252.685C123.726 252.832 123.326 252.959 122.886 253.065C122.446 253.172 121.906 253.225 121.266 253.225C120.453 253.225 119.78 253.119 119.246 252.905C118.713 252.679 118.286 252.372 117.966 251.985C117.646 251.585 117.42 251.105 117.286 250.545C117.166 249.985 117.106 249.365 117.106 248.685V239.845ZM135.542 247.705C135.542 248.532 135.422 249.292 135.182 249.985C134.942 250.665 134.596 251.252 134.142 251.745C133.689 252.225 133.142 252.599 132.502 252.865C131.876 253.132 131.169 253.265 130.382 253.265C129.609 253.265 128.902 253.132 128.262 252.865C127.636 252.599 127.096 252.225 126.642 251.745C126.189 251.252 125.836 250.665 125.582 249.985C125.329 249.292 125.202 248.532 125.202 247.705C125.202 246.879 125.329 246.125 125.582 245.445C125.849 244.765 126.209 244.185 126.662 243.705C127.129 243.225 127.676 242.852 128.302 242.585C128.942 242.319 129.636 242.185 130.382 242.185C131.142 242.185 131.836 242.319 132.462 242.585C133.102 242.852 133.649 243.225 134.102 243.705C134.556 244.185 134.909 244.765 135.162 245.445C135.416 246.125 135.542 246.879 135.542 247.705ZM132.502 247.705C132.502 246.785 132.316 246.065 131.942 245.545C131.582 245.012 131.062 244.745 130.382 244.745C129.702 244.745 129.176 245.012 128.802 245.545C128.429 246.065 128.242 246.785 128.242 247.705C128.242 248.625 128.429 249.359 128.802 249.905C129.176 250.439 129.702 250.705 130.382 250.705C131.062 250.705 131.582 250.439 131.942 249.905C132.316 249.359 132.502 248.625 132.502 247.705ZM140.871 250.845C141.417 250.845 141.804 250.792 142.031 250.685C142.257 250.579 142.371 250.372 142.371 250.065C142.371 249.825 142.224 249.619 141.931 249.445C141.637 249.259 141.191 249.052 140.591 248.825C140.124 248.652 139.697 248.472 139.311 248.285C138.937 248.099 138.617 247.879 138.351 247.625C138.084 247.359 137.877 247.045 137.731 246.685C137.584 246.325 137.511 245.892 137.511 245.385C137.511 244.399 137.877 243.619 138.611 243.045C139.344 242.472 140.351 242.185 141.631 242.185C142.271 242.185 142.884 242.245 143.471 242.365C144.057 242.472 144.524 242.592 144.871 242.725L144.351 245.045C144.004 244.925 143.624 244.819 143.211 244.725C142.811 244.632 142.357 244.585 141.851 244.585C140.917 244.585 140.451 244.845 140.451 245.365C140.451 245.485 140.471 245.592 140.511 245.685C140.551 245.779 140.631 245.872 140.751 245.965C140.871 246.045 141.031 246.139 141.231 246.245C141.444 246.339 141.711 246.445 142.031 246.565C142.684 246.805 143.224 247.045 143.651 247.285C144.077 247.512 144.411 247.765 144.651 248.045C144.904 248.312 145.077 248.612 145.171 248.945C145.277 249.279 145.331 249.665 145.331 250.105C145.331 251.145 144.937 251.932 144.151 252.465C143.377 252.999 142.277 253.265 140.851 253.265C139.917 253.265 139.137 253.185 138.511 253.025C137.897 252.865 137.471 252.732 137.231 252.625L137.731 250.205C138.237 250.405 138.757 250.565 139.291 250.685C139.824 250.792 140.351 250.845 140.871 250.845Z" fill="white"/>
<defs>
<clipPath id="clip0">
<rect width="192.916" height="192.916" fill="white" transform="translate(0.463379 0.915527)"/>
</clipPath>
</defs>
</svg>
