<svg width="200" height="278" viewBox="0 0 200 278" fill="none" xmlns="http://www.w3.org/2000/svg">
<path d="M50.5233 255.98C52.6033 255.98 54.1966 256.353 55.3033 257.1C56.4099 257.833 56.9633 258.98 56.9633 260.54C56.9633 261.513 56.7366 262.307 56.2833 262.92C55.8433 263.52 55.2033 263.993 54.3633 264.34C54.6433 264.687 54.9366 265.087 55.2433 265.54C55.5499 265.98 55.8499 266.447 56.1433 266.94C56.4499 267.42 56.7433 267.927 57.0233 268.46C57.3033 268.98 57.5633 269.493 57.8033 270H54.3033C54.0499 269.547 53.7899 269.087 53.5233 268.62C53.2699 268.153 53.0033 267.7 52.7233 267.26C52.4566 266.82 52.1899 266.407 51.9233 266.02C51.6566 265.62 51.3899 265.26 51.1233 264.94H49.5833V270H46.4633V256.34C47.1433 256.207 47.8433 256.113 48.5633 256.06C49.2966 256.007 49.9499 255.98 50.5233 255.98ZM50.7033 258.64C50.4766 258.64 50.2699 258.647 50.0833 258.66C49.9099 258.673 49.7433 258.687 49.5833 258.7V262.46H50.4633C51.6366 262.46 52.4766 262.313 52.9833 262.02C53.4899 261.727 53.7433 261.227 53.7433 260.52C53.7433 259.84 53.4833 259.36 52.9633 259.08C52.4566 258.787 51.7033 258.64 50.7033 258.64ZM63.1153 267.92C63.4086 267.92 63.6886 267.913 63.9553 267.9C64.222 267.887 64.4353 267.867 64.5953 267.84V265.58C64.4753 265.553 64.2953 265.527 64.0553 265.5C63.8153 265.473 63.5953 265.46 63.3953 265.46C63.1153 265.46 62.8486 265.48 62.5953 265.52C62.3553 265.547 62.142 265.607 61.9553 265.7C61.7686 265.793 61.622 265.92 61.5153 266.08C61.4086 266.24 61.3553 266.44 61.3553 266.68C61.3553 267.147 61.5086 267.473 61.8153 267.66C62.1353 267.833 62.5686 267.92 63.1153 267.92ZM62.8753 259.2C63.7553 259.2 64.4886 259.3 65.0753 259.5C65.662 259.7 66.1286 259.987 66.4753 260.36C66.8353 260.733 67.0886 261.187 67.2353 261.72C67.382 262.253 67.4553 262.847 67.4553 263.5V269.7C67.0286 269.793 66.4353 269.9 65.6753 270.02C64.9153 270.153 63.9953 270.22 62.9153 270.22C62.2353 270.22 61.6153 270.16 61.0553 270.04C60.5086 269.92 60.0353 269.727 59.6353 269.46C59.2353 269.18 58.9286 268.82 58.7153 268.38C58.502 267.94 58.3953 267.4 58.3953 266.76C58.3953 266.147 58.5153 265.627 58.7553 265.2C59.0086 264.773 59.342 264.433 59.7553 264.18C60.1686 263.927 60.642 263.747 61.1753 263.64C61.7086 263.52 62.262 263.46 62.8353 263.46C63.222 263.46 63.562 263.48 63.8553 263.52C64.162 263.547 64.4086 263.587 64.5953 263.64V263.36C64.5953 262.853 64.442 262.447 64.1353 262.14C63.8286 261.833 63.2953 261.68 62.5353 261.68C62.0286 261.68 61.5286 261.72 61.0353 261.8C60.542 261.867 60.1153 261.967 59.7553 262.1L59.3753 259.7C59.5486 259.647 59.762 259.593 60.0153 259.54C60.282 259.473 60.5686 259.42 60.8753 259.38C61.182 259.327 61.502 259.287 61.8353 259.26C62.182 259.22 62.5286 259.2 62.8753 259.2ZM72.69 264.66C72.69 265.58 72.8967 266.32 73.31 266.88C73.7233 267.44 74.3367 267.72 75.15 267.72C75.4167 267.72 75.6633 267.713 75.89 267.7C76.1167 267.673 76.3033 267.647 76.45 267.62V262.2C76.2633 262.08 76.0167 261.98 75.71 261.9C75.4167 261.82 75.1167 261.78 74.81 261.78C73.3967 261.78 72.69 262.74 72.69 264.66ZM79.43 269.66C79.1633 269.74 78.8567 269.82 78.51 269.9C78.1633 269.967 77.7967 270.027 77.41 270.08C77.0367 270.133 76.65 270.173 76.25 270.2C75.8633 270.24 75.49 270.26 75.13 270.26C74.2633 270.26 73.49 270.133 72.81 269.88C72.13 269.627 71.5567 269.267 71.09 268.8C70.6233 268.32 70.2633 267.747 70.01 267.08C69.77 266.4 69.65 265.64 69.65 264.8C69.65 263.947 69.7567 263.18 69.97 262.5C70.1833 261.807 70.49 261.22 70.89 260.74C71.29 260.26 71.7767 259.893 72.35 259.64C72.9367 259.387 73.6033 259.26 74.35 259.26C74.7633 259.26 75.13 259.3 75.45 259.38C75.7833 259.46 76.1167 259.573 76.45 259.72V254.96L79.43 254.48V269.66ZM85.2003 270H82.2203V259.48H85.2003V270ZM85.4803 256.44C85.4803 256.987 85.3003 257.42 84.9403 257.74C84.5936 258.047 84.1803 258.2 83.7003 258.2C83.2203 258.2 82.8003 258.047 82.4403 257.74C82.0936 257.42 81.9203 256.987 81.9203 256.44C81.9203 255.893 82.0936 255.467 82.4403 255.16C82.8003 254.84 83.2203 254.68 83.7003 254.68C84.1803 254.68 84.5936 254.84 84.9403 255.16C85.3003 255.467 85.4803 255.893 85.4803 256.44ZM97.8416 264.72C97.8416 265.547 97.7216 266.307 97.4816 267C97.2416 267.68 96.8949 268.267 96.4416 268.76C95.9882 269.24 95.4416 269.613 94.8016 269.88C94.1749 270.147 93.4682 270.28 92.6816 270.28C91.9082 270.28 91.2016 270.147 90.5616 269.88C89.9349 269.613 89.3949 269.24 88.9416 268.76C88.4882 268.267 88.1349 267.68 87.8816 267C87.6282 266.307 87.5016 265.547 87.5016 264.72C87.5016 263.893 87.6282 263.14 87.8816 262.46C88.1482 261.78 88.5082 261.2 88.9616 260.72C89.4282 260.24 89.9749 259.867 90.6016 259.6C91.2416 259.333 91.9349 259.2 92.6816 259.2C93.4416 259.2 94.1349 259.333 94.7616 259.6C95.4016 259.867 95.9482 260.24 96.4016 260.72C96.8549 261.2 97.2082 261.78 97.4616 262.46C97.7149 263.14 97.8416 263.893 97.8416 264.72ZM94.8016 264.72C94.8016 263.8 94.6149 263.08 94.2416 262.56C93.8816 262.027 93.3616 261.76 92.6816 261.76C92.0016 261.76 91.4749 262.027 91.1016 262.56C90.7282 263.08 90.5416 263.8 90.5416 264.72C90.5416 265.64 90.7282 266.373 91.1016 266.92C91.4749 267.453 92.0016 267.72 92.6816 267.72C93.3616 267.72 93.8816 267.453 94.2416 266.92C94.6149 266.373 94.8016 265.64 94.8016 264.72ZM102.69 264.4C102.69 266.067 103.363 266.9 104.71 266.9C105.017 266.9 105.303 266.86 105.57 266.78C105.837 266.7 106.063 266.607 106.25 266.5V261.74C106.103 261.713 105.93 261.693 105.73 261.68C105.53 261.653 105.297 261.64 105.03 261.64C104.243 261.64 103.657 261.9 103.27 262.42C102.883 262.94 102.69 263.6 102.69 264.4ZM109.23 268.68C109.23 270.4 108.79 271.673 107.91 272.5C107.043 273.34 105.697 273.76 103.87 273.76C103.23 273.76 102.59 273.7 101.95 273.58C101.31 273.473 100.717 273.327 100.17 273.14L100.69 270.64C101.157 270.827 101.643 270.973 102.15 271.08C102.67 271.187 103.257 271.24 103.91 271.24C104.763 271.24 105.363 271.053 105.71 270.68C106.07 270.307 106.25 269.827 106.25 269.24V268.86C105.93 269.007 105.597 269.12 105.25 269.2C104.917 269.267 104.55 269.3 104.15 269.3C102.697 269.3 101.583 268.873 100.81 268.02C100.037 267.153 99.65 265.947 99.65 264.4C99.65 263.627 99.77 262.927 100.01 262.3C100.25 261.66 100.597 261.113 101.05 260.66C101.517 260.207 102.083 259.86 102.75 259.62C103.417 259.367 104.17 259.24 105.01 259.24C105.37 259.24 105.737 259.26 106.11 259.3C106.497 259.327 106.877 259.367 107.25 259.42C107.623 259.473 107.977 259.54 108.31 259.62C108.657 259.687 108.963 259.76 109.23 259.84V268.68ZM118.365 262.12C118.098 262.053 117.785 261.987 117.425 261.92C117.065 261.84 116.678 261.8 116.265 261.8C116.078 261.8 115.852 261.82 115.585 261.86C115.332 261.887 115.138 261.92 115.005 261.96V270H112.025V260.04C112.558 259.853 113.185 259.68 113.905 259.52C114.638 259.347 115.452 259.26 116.345 259.26C116.505 259.26 116.698 259.273 116.925 259.3C117.152 259.313 117.378 259.34 117.605 259.38C117.832 259.407 118.058 259.447 118.285 259.5C118.512 259.54 118.705 259.593 118.865 259.66L118.365 262.12ZM124.287 267.92C124.581 267.92 124.861 267.913 125.127 267.9C125.394 267.887 125.607 267.867 125.767 267.84V265.58C125.647 265.553 125.467 265.527 125.227 265.5C124.987 265.473 124.767 265.46 124.567 265.46C124.287 265.46 124.021 265.48 123.767 265.52C123.527 265.547 123.314 265.607 123.127 265.7C122.941 265.793 122.794 265.92 122.687 266.08C122.581 266.24 122.527 266.44 122.527 266.68C122.527 267.147 122.681 267.473 122.987 267.66C123.307 267.833 123.741 267.92 124.287 267.92ZM124.047 259.2C124.927 259.2 125.661 259.3 126.247 259.5C126.834 259.7 127.301 259.987 127.647 260.36C128.007 260.733 128.261 261.187 128.407 261.72C128.554 262.253 128.627 262.847 128.627 263.5V269.7C128.201 269.793 127.607 269.9 126.847 270.02C126.087 270.153 125.167 270.22 124.087 270.22C123.407 270.22 122.787 270.16 122.227 270.04C121.681 269.92 121.207 269.727 120.807 269.46C120.407 269.18 120.101 268.82 119.887 268.38C119.674 267.94 119.567 267.4 119.567 266.76C119.567 266.147 119.687 265.627 119.927 265.2C120.181 264.773 120.514 264.433 120.927 264.18C121.341 263.927 121.814 263.747 122.347 263.64C122.881 263.52 123.434 263.46 124.007 263.46C124.394 263.46 124.734 263.48 125.027 263.52C125.334 263.547 125.581 263.587 125.767 263.64V263.36C125.767 262.853 125.614 262.447 125.307 262.14C125.001 261.833 124.467 261.68 123.707 261.68C123.201 261.68 122.701 261.72 122.207 261.8C121.714 261.867 121.287 261.967 120.927 262.1L120.547 259.7C120.721 259.647 120.934 259.593 121.187 259.54C121.454 259.473 121.741 259.42 122.047 259.38C122.354 259.327 122.674 259.287 123.007 259.26C123.354 259.22 123.701 259.2 124.047 259.2ZM135.882 254.48C136.442 254.48 136.902 254.527 137.262 254.62C137.635 254.713 137.949 254.813 138.202 254.92L137.682 257.26C137.469 257.167 137.229 257.1 136.962 257.06C136.709 257.02 136.449 257 136.182 257C135.822 257 135.515 257.053 135.262 257.16C135.022 257.253 134.829 257.387 134.682 257.56C134.549 257.733 134.449 257.94 134.382 258.18C134.329 258.42 134.302 258.68 134.302 258.96V259.48H137.982V261.96H134.302V270H131.322V258.92C131.322 257.56 131.702 256.48 132.462 255.68C133.235 254.88 134.375 254.48 135.882 254.48ZM142.682 270H139.702V259.48H142.682V270ZM142.962 256.44C142.962 256.987 142.782 257.42 142.422 257.74C142.075 258.047 141.662 258.2 141.182 258.2C140.702 258.2 140.282 258.047 139.922 257.74C139.575 257.42 139.402 256.987 139.402 256.44C139.402 255.893 139.575 255.467 139.922 255.16C140.282 254.84 140.702 254.68 141.182 254.68C141.662 254.68 142.075 254.84 142.422 255.16C142.782 255.467 142.962 255.893 142.962 256.44ZM149.502 267.92C149.795 267.92 150.075 267.913 150.342 267.9C150.609 267.887 150.822 267.867 150.982 267.84V265.58C150.862 265.553 150.682 265.527 150.442 265.5C150.202 265.473 149.982 265.46 149.782 265.46C149.502 265.46 149.235 265.48 148.982 265.52C148.742 265.547 148.529 265.607 148.342 265.7C148.155 265.793 148.009 265.92 147.902 266.08C147.795 266.24 147.742 266.44 147.742 266.68C147.742 267.147 147.895 267.473 148.202 267.66C148.522 267.833 148.955 267.92 149.502 267.92ZM149.262 259.2C150.142 259.2 150.875 259.3 151.462 259.5C152.049 259.7 152.515 259.987 152.862 260.36C153.222 260.733 153.475 261.187 153.622 261.72C153.769 262.253 153.842 262.847 153.842 263.5V269.7C153.415 269.793 152.822 269.9 152.062 270.02C151.302 270.153 150.382 270.22 149.302 270.22C148.622 270.22 148.002 270.16 147.442 270.04C146.895 269.92 146.422 269.727 146.022 269.46C145.622 269.18 145.315 268.82 145.102 268.38C144.889 267.94 144.782 267.4 144.782 266.76C144.782 266.147 144.902 265.627 145.142 265.2C145.395 264.773 145.729 264.433 146.142 264.18C146.555 263.927 147.029 263.747 147.562 263.64C148.095 263.52 148.649 263.46 149.222 263.46C149.609 263.46 149.949 263.48 150.242 263.52C150.549 263.547 150.795 263.587 150.982 263.64V263.36C150.982 262.853 150.829 262.447 150.522 262.14C150.215 261.833 149.682 261.68 148.922 261.68C148.415 261.68 147.915 261.72 147.422 261.8C146.929 261.867 146.502 261.967 146.142 262.1L145.762 259.7C145.935 259.647 146.149 259.593 146.402 259.54C146.669 259.473 146.955 259.42 147.262 259.38C147.569 259.327 147.889 259.287 148.222 259.26C148.569 259.22 148.915 259.2 149.262 259.2Z" fill="white"/>
<circle cx="100.944" cy="100.943" r="91.8519" fill="#00ACE2"/>
<path d="M39.098 59.1172H27.3477V70.8676H39.098V59.1172Z" fill="white"/>
<path d="M80.0254 82.6172H27.3477V94.3676H80.0254V82.6172Z" fill="white"/>
<path d="M80.0254 106.123H27.3477V117.873H80.0254V106.123Z" fill="white"/>
<path d="M176.499 58.6271V35.126H0V141.373H23.5012V164.874H200V58.6271H176.499ZM11.7504 129.623V46.8768H164.748V129.623H11.7504ZM188.25 153.124H35.2516V141.373H176.499V70.3775H188.249V153.124H188.25Z" fill="white"/>
<path d="M148.215 75.2686C147.73 66.7932 140.982 59.9405 132.519 59.3284C129.405 59.1046 126.32 59.7417 123.59 61.1253C120.862 59.7429 117.776 59.1042 114.667 59.328C106.315 59.9296 99.571 66.6819 98.9792 75.035C98.7374 78.444 99.5057 81.7749 101.167 84.6737C99.7854 92.7769 101.066 105.57 113.02 113.166L119.256 117.129L123.44 105.26L127.716 117.39L134.035 113.051C145.443 105.217 146.836 92.6671 145.764 85.1026C147.557 82.1784 148.417 78.7796 148.215 75.2686ZM135.143 79.7616L132.974 82.1558L133.834 85.2694C133.856 85.3503 135.283 91.0761 132.884 96.7042L130.478 89.88C129.428 86.9003 126.599 84.8983 123.44 84.8983C120.281 84.8983 117.452 86.9003 116.402 89.88L113.876 97.0456C111.353 91.4233 113.005 85.4093 113.106 85.0585L113.97 82.0327L111.931 79.6366C111.04 78.589 110.603 77.2495 110.701 75.8651C110.879 73.3452 112.992 71.2292 115.512 71.0475C115.644 71.0382 115.776 71.0335 115.907 71.0335C117.265 71.0335 118.537 71.5421 119.523 72.4878L123.59 76.3886L127.656 72.4882C128.738 71.4507 130.162 70.939 131.67 71.0479C134.223 71.2327 136.337 73.3815 136.484 75.9401C136.566 77.3604 136.089 78.7175 135.143 79.7616Z" fill="white"/>
</svg>
