<svg width="200" height="278" viewBox="0 0 200 278" fill="none" xmlns="http://www.w3.org/2000/svg">
<path d="M65.1075 270.28C62.8542 270.28 61.1342 269.653 59.9475 268.4C58.7742 267.147 58.1875 265.367 58.1875 263.06C58.1875 261.913 58.3675 260.893 58.7275 260C59.0875 259.093 59.5808 258.333 60.2075 257.72C60.8342 257.093 61.5808 256.62 62.4475 256.3C63.3142 255.98 64.2542 255.82 65.2675 255.82C65.8542 255.82 66.3875 255.867 66.8675 255.96C67.3475 256.04 67.7675 256.14 68.1275 256.26C68.4875 256.367 68.7875 256.48 69.0275 256.6C69.2675 256.72 69.4408 256.813 69.5475 256.88L68.6475 259.4C68.2208 259.173 67.7208 258.98 67.1475 258.82C66.5875 258.66 65.9475 258.58 65.2275 258.58C64.7475 258.58 64.2742 258.66 63.8075 258.82C63.3542 258.98 62.9475 259.24 62.5875 259.6C62.2408 259.947 61.9608 260.4 61.7475 260.96C61.5342 261.52 61.4275 262.2 61.4275 263C61.4275 263.64 61.4942 264.24 61.6275 264.8C61.7742 265.347 62.0008 265.82 62.3075 266.22C62.6275 266.62 63.0408 266.94 63.5475 267.18C64.0542 267.407 64.6675 267.52 65.3875 267.52C65.8408 267.52 66.2475 267.493 66.6075 267.44C66.9675 267.387 67.2875 267.327 67.5675 267.26C67.8475 267.18 68.0942 267.093 68.3075 267C68.5208 266.907 68.7142 266.82 68.8875 266.74L69.7475 269.24C69.3075 269.507 68.6875 269.747 67.8875 269.96C67.0875 270.173 66.1608 270.28 65.1075 270.28ZM74.5363 270H71.5563V259.48H74.5363V270ZM74.8163 256.44C74.8163 256.987 74.6363 257.42 74.2763 257.74C73.9296 258.047 73.5163 258.2 73.0363 258.2C72.5563 258.2 72.1363 258.047 71.7763 257.74C71.4296 257.42 71.2563 256.987 71.2563 256.44C71.2563 255.893 71.4296 255.467 71.7763 255.16C72.1363 254.84 72.5563 254.68 73.0363 254.68C73.5163 254.68 73.9296 254.84 74.2763 255.16C74.6363 255.467 74.8163 255.893 74.8163 256.44ZM83.6775 262.12C83.4108 262.053 83.0975 261.987 82.7375 261.92C82.3775 261.84 81.9908 261.8 81.5775 261.8C81.3908 261.8 81.1642 261.82 80.8975 261.86C80.6442 261.887 80.4508 261.92 80.3175 261.96V270H77.3375V260.04C77.8708 259.853 78.4975 259.68 79.2175 259.52C79.9508 259.347 80.7642 259.26 81.6575 259.26C81.8175 259.26 82.0108 259.273 82.2375 259.3C82.4642 259.313 82.6908 259.34 82.9175 259.38C83.1442 259.407 83.3708 259.447 83.5975 259.5C83.8242 259.54 84.0175 259.593 84.1775 259.66L83.6775 262.12ZM94.755 269.64C94.2483 269.787 93.595 269.92 92.795 270.04C91.995 270.173 91.155 270.24 90.275 270.24C89.3817 270.24 88.635 270.12 88.035 269.88C87.4483 269.64 86.9817 269.307 86.635 268.88C86.2883 268.44 86.0417 267.92 85.895 267.32C85.7483 266.72 85.675 266.06 85.675 265.34V259.48H88.655V264.98C88.655 265.94 88.7817 266.633 89.035 267.06C89.2883 267.487 89.7617 267.7 90.455 267.7C90.6683 267.7 90.895 267.693 91.135 267.68C91.375 267.653 91.5883 267.627 91.775 267.6V259.48H94.755V269.64ZM103.892 262.12C103.626 262.053 103.312 261.987 102.952 261.92C102.592 261.84 102.206 261.8 101.792 261.8C101.606 261.8 101.379 261.82 101.112 261.86C100.859 261.887 100.666 261.92 100.532 261.96V270H97.5523V260.04C98.0857 259.853 98.7123 259.68 99.4323 259.52C100.166 259.347 100.979 259.26 101.872 259.26C102.032 259.26 102.226 259.273 102.452 259.3C102.679 259.313 102.906 259.34 103.132 259.38C103.359 259.407 103.586 259.447 103.812 259.5C104.039 259.54 104.232 259.593 104.392 259.66L103.892 262.12ZM108.335 264.4C108.335 266.067 109.008 266.9 110.355 266.9C110.661 266.9 110.948 266.86 111.215 266.78C111.481 266.7 111.708 266.607 111.895 266.5V261.74C111.748 261.713 111.575 261.693 111.375 261.68C111.175 261.653 110.941 261.64 110.675 261.64C109.888 261.64 109.301 261.9 108.915 262.42C108.528 262.94 108.335 263.6 108.335 264.4ZM114.875 268.68C114.875 270.4 114.435 271.673 113.555 272.5C112.688 273.34 111.341 273.76 109.515 273.76C108.875 273.76 108.235 273.7 107.595 273.58C106.955 273.473 106.361 273.327 105.815 273.14L106.335 270.64C106.801 270.827 107.288 270.973 107.795 271.08C108.315 271.187 108.901 271.24 109.555 271.24C110.408 271.24 111.008 271.053 111.355 270.68C111.715 270.307 111.895 269.827 111.895 269.24V268.86C111.575 269.007 111.241 269.12 110.895 269.2C110.561 269.267 110.195 269.3 109.795 269.3C108.341 269.3 107.228 268.873 106.455 268.02C105.681 267.153 105.295 265.947 105.295 264.4C105.295 263.627 105.415 262.927 105.655 262.3C105.895 261.66 106.241 261.113 106.695 260.66C107.161 260.207 107.728 259.86 108.395 259.62C109.061 259.367 109.815 259.24 110.655 259.24C111.015 259.24 111.381 259.26 111.755 259.3C112.141 259.327 112.521 259.367 112.895 259.42C113.268 259.473 113.621 259.54 113.955 259.62C114.301 259.687 114.608 259.76 114.875 259.84V268.68ZM120.65 270H117.67V259.48H120.65V270ZM120.93 256.44C120.93 256.987 120.75 257.42 120.39 257.74C120.043 258.047 119.63 258.2 119.15 258.2C118.67 258.2 118.25 258.047 117.89 257.74C117.543 257.42 117.37 256.987 117.37 256.44C117.37 255.893 117.543 255.467 117.89 255.16C118.25 254.84 118.67 254.68 119.15 254.68C119.63 254.68 120.043 254.84 120.39 255.16C120.75 255.467 120.93 255.893 120.93 256.44ZM127.471 267.92C127.764 267.92 128.044 267.913 128.311 267.9C128.577 267.887 128.791 267.867 128.951 267.84V265.58C128.831 265.553 128.651 265.527 128.411 265.5C128.171 265.473 127.951 265.46 127.751 265.46C127.471 265.46 127.204 265.48 126.951 265.52C126.711 265.547 126.497 265.607 126.311 265.7C126.124 265.793 125.977 265.92 125.871 266.08C125.764 266.24 125.711 266.44 125.711 266.68C125.711 267.147 125.864 267.473 126.171 267.66C126.491 267.833 126.924 267.92 127.471 267.92ZM127.231 259.2C128.111 259.2 128.844 259.3 129.431 259.5C130.017 259.7 130.484 259.987 130.831 260.36C131.191 260.733 131.444 261.187 131.591 261.72C131.737 262.253 131.811 262.847 131.811 263.5V269.7C131.384 269.793 130.791 269.9 130.031 270.02C129.271 270.153 128.351 270.22 127.271 270.22C126.591 270.22 125.971 270.16 125.411 270.04C124.864 269.92 124.391 269.727 123.991 269.46C123.591 269.18 123.284 268.82 123.071 268.38C122.857 267.94 122.751 267.4 122.751 266.76C122.751 266.147 122.871 265.627 123.111 265.2C123.364 264.773 123.697 264.433 124.111 264.18C124.524 263.927 124.997 263.747 125.531 263.64C126.064 263.52 126.617 263.46 127.191 263.46C127.577 263.46 127.917 263.48 128.211 263.52C128.517 263.547 128.764 263.587 128.951 263.64V263.36C128.951 262.853 128.797 262.447 128.491 262.14C128.184 261.833 127.651 261.68 126.891 261.68C126.384 261.68 125.884 261.72 125.391 261.8C124.897 261.867 124.471 261.967 124.111 262.1L123.731 259.7C123.904 259.647 124.117 259.593 124.371 259.54C124.637 259.473 124.924 259.42 125.231 259.38C125.537 259.327 125.857 259.287 126.191 259.26C126.537 259.22 126.884 259.2 127.231 259.2ZM137.525 267.86C138.072 267.86 138.459 267.807 138.685 267.7C138.912 267.593 139.025 267.387 139.025 267.08C139.025 266.84 138.879 266.633 138.585 266.46C138.292 266.273 137.845 266.067 137.245 265.84C136.779 265.667 136.352 265.487 135.965 265.3C135.592 265.113 135.272 264.893 135.005 264.64C134.739 264.373 134.532 264.06 134.385 263.7C134.239 263.34 134.165 262.907 134.165 262.4C134.165 261.413 134.532 260.633 135.265 260.06C135.999 259.487 137.005 259.2 138.285 259.2C138.925 259.2 139.539 259.26 140.125 259.38C140.712 259.487 141.179 259.607 141.525 259.74L141.005 262.06C140.659 261.94 140.279 261.833 139.865 261.74C139.465 261.647 139.012 261.6 138.505 261.6C137.572 261.6 137.105 261.86 137.105 262.38C137.105 262.5 137.125 262.607 137.165 262.7C137.205 262.793 137.285 262.887 137.405 262.98C137.525 263.06 137.685 263.153 137.885 263.26C138.099 263.353 138.365 263.46 138.685 263.58C139.339 263.82 139.879 264.06 140.305 264.3C140.732 264.527 141.065 264.78 141.305 265.06C141.559 265.327 141.732 265.627 141.825 265.96C141.932 266.293 141.985 266.68 141.985 267.12C141.985 268.16 141.592 268.947 140.805 269.48C140.032 270.013 138.932 270.28 137.505 270.28C136.572 270.28 135.792 270.2 135.165 270.04C134.552 269.88 134.125 269.747 133.885 269.64L134.385 267.22C134.892 267.42 135.412 267.58 135.945 267.7C136.479 267.807 137.005 267.86 137.525 267.86Z" fill="white"/>
<circle cx="100.944" cy="100.943" r="91.8519" fill="#00ACE2"/>
<path d="M0 0.148438V154.632H94.332C95.9867 165.832 101.163 176.166 109.315 184.318C119.673 194.675 133.273 199.852 146.878 199.852C160.48 199.852 174.086 194.673 184.441 184.318C194.285 174.474 199.446 161.696 199.933 148.773H200V0.148438H0ZM65.4387 84.6172L70.2672 76.2699L84.3719 112.707L101.297 71.4109L113.767 98.2719L127.266 77.8195L131.784 88.0254H164.842V96.7699C146.094 90.0648 124.304 94.2035 109.315 109.192C106.185 112.323 103.493 115.775 101.271 119.475H35.1578V84.6172H65.4387ZM35.1578 72.898V37.65H164.842V76.3063H139.411L129.299 53.4629L115.554 74.2898L100.629 42.1398L84.6824 81.0473L72.368 49.234L58.6789 72.898H35.1578ZM176.155 176.032C160.011 192.175 133.745 192.174 117.602 176.032C101.459 159.888 101.459 133.622 117.602 117.479C125.674 109.406 136.275 105.371 146.878 105.371C157.479 105.371 168.084 109.408 176.155 117.479C192.297 133.621 192.297 159.889 176.155 176.032ZM188.281 113.473C187.091 111.995 185.813 110.564 184.441 109.192C181.983 106.734 179.341 104.572 176.561 102.698V25.9313H23.4391V131.193H96.0605C94.9082 134.974 94.1777 138.9 93.893 142.914H11.7188V11.8672H188.281V113.473Z" fill="white"/>
<path d="M171.435 135.372C170.952 126.92 164.221 120.086 155.78 119.474C152.677 119.252 149.6 119.887 146.877 121.267C144.155 119.888 141.08 119.248 137.978 119.474C129.649 120.074 122.923 126.809 122.332 135.139C122.092 138.538 122.858 141.86 124.514 144.751C123.137 152.833 124.415 165.591 136.335 173.167L142.555 177.119L146.727 165.282L150.991 177.379L157.293 173.052C168.67 165.239 170.059 152.723 168.989 145.179C170.778 142.263 171.636 138.873 171.435 135.372ZM158.398 139.853L156.235 142.24L157.092 145.345C157.114 145.426 158.537 151.136 156.145 156.749L153.745 149.943C152.698 146.972 149.877 144.975 146.726 144.975C143.575 144.975 140.754 146.972 139.707 149.943L137.188 157.09C134.672 151.482 136.32 145.484 136.42 145.135L137.282 142.118L135.248 139.728C134.359 138.684 133.923 137.348 134.021 135.967C134.199 133.454 136.307 131.343 138.82 131.162C138.952 131.153 139.084 131.148 139.215 131.148C140.569 131.148 141.837 131.656 142.82 132.599L146.876 136.488L150.932 132.599C152.011 131.564 153.432 131.055 154.934 131.162C157.48 131.347 159.589 133.49 159.735 136.041V136.041C159.817 137.458 159.342 138.811 158.398 139.853Z" fill="white"/>
</svg>
