<svg width="194" height="277" viewBox="0 0 194 277" fill="none" xmlns="http://www.w3.org/2000/svg">
<circle cx="98.0164" cy="98.0877" r="88.5984" fill="#00ACE2"/>
<g clip-path="url(#clip0)">
<path d="M190.519 141.634C118.05 19.4437 121.486 25.2563 121.363 25.0226C116.517 15.9685 107.538 10.561 97.3042 10.561C87.0708 10.561 78.076 15.9685 73.2457 25.0226C73.1219 25.2407 76.6981 19.2099 4.07379 141.619C-5.58675 159.929 7.58812 182.027 28.2097 182.027H166.414C186.989 182.042 200.195 159.961 190.519 141.634ZM166.399 170.62H28.1942C16.1959 170.62 8.48605 157.81 14.0285 147.104C14.1523 146.886 10.5916 152.886 83.1849 30.5236C89.2073 19.1164 105.386 19.132 111.408 30.5236C183.893 152.714 180.441 146.886 180.564 147.104C186.107 157.81 178.382 170.62 166.399 170.62Z" fill="white"/>
<path d="M91.6221 56.3926H102.97V130.633H91.6221V56.3926Z" fill="white"/>
<path d="M91.6221 142.056H102.97V153.478H91.6221V142.056Z" fill="white"/>
</g>
<path d="M65.3982 242.695V228.835H74.6782V231.455H68.5182V234.355H73.9982V236.975H68.5182V242.695H65.3982ZM85.272 242.335C84.7653 242.481 84.112 242.615 83.312 242.735C82.512 242.868 81.672 242.935 80.792 242.935C79.8986 242.935 79.152 242.815 78.552 242.575C77.9653 242.335 77.4986 242.001 77.152 241.575C76.8053 241.135 76.5586 240.615 76.412 240.015C76.2653 239.415 76.192 238.755 76.192 238.035V232.175H79.172V237.675C79.172 238.635 79.2986 239.328 79.552 239.755C79.8053 240.181 80.2786 240.395 80.972 240.395C81.1853 240.395 81.412 240.388 81.652 240.375C81.892 240.348 82.1053 240.321 82.292 240.295V232.175H85.272V242.335ZM94.4093 234.815C94.1427 234.748 93.8293 234.681 93.4693 234.615C93.1093 234.535 92.7227 234.495 92.3093 234.495C92.1227 234.495 91.896 234.515 91.6293 234.555C91.376 234.581 91.1827 234.615 91.0493 234.655V242.695H88.0693V232.735C88.6027 232.548 89.2293 232.375 89.9493 232.215C90.6827 232.041 91.496 231.955 92.3893 231.955C92.5493 231.955 92.7427 231.968 92.9693 231.995C93.196 232.008 93.4227 232.035 93.6493 232.075C93.876 232.101 94.1027 232.141 94.3293 232.195C94.556 232.235 94.7493 232.288 94.9093 232.355L94.4093 234.815ZM96.4068 229.555L99.3868 229.075V232.175H102.967V234.655H99.3868V238.355C99.3868 238.981 99.4935 239.481 99.7068 239.855C99.9335 240.228 100.38 240.415 101.047 240.415C101.367 240.415 101.693 240.388 102.027 240.335C102.373 240.268 102.687 240.181 102.967 240.075L103.387 242.395C103.027 242.541 102.627 242.668 102.187 242.775C101.747 242.881 101.207 242.935 100.567 242.935C99.7535 242.935 99.0802 242.828 98.5468 242.615C98.0135 242.388 97.5868 242.081 97.2668 241.695C96.9468 241.295 96.7202 240.815 96.5868 240.255C96.4668 239.695 96.4068 239.075 96.4068 238.395V229.555ZM114.843 237.415C114.843 238.241 114.723 239.001 114.483 239.695C114.243 240.375 113.896 240.961 113.443 241.455C112.99 241.935 112.443 242.308 111.803 242.575C111.176 242.841 110.47 242.975 109.683 242.975C108.91 242.975 108.203 242.841 107.563 242.575C106.936 242.308 106.396 241.935 105.943 241.455C105.49 240.961 105.136 240.375 104.883 239.695C104.63 239.001 104.503 238.241 104.503 237.415C104.503 236.588 104.63 235.835 104.883 235.155C105.15 234.475 105.51 233.895 105.963 233.415C106.43 232.935 106.976 232.561 107.603 232.295C108.243 232.028 108.936 231.895 109.683 231.895C110.443 231.895 111.136 232.028 111.763 232.295C112.403 232.561 112.95 232.935 113.403 233.415C113.856 233.895 114.21 234.475 114.463 235.155C114.716 235.835 114.843 236.588 114.843 237.415ZM111.803 237.415C111.803 236.495 111.616 235.775 111.243 235.255C110.883 234.721 110.363 234.455 109.683 234.455C109.003 234.455 108.476 234.721 108.103 235.255C107.73 235.775 107.543 236.495 107.543 237.415C107.543 238.335 107.73 239.068 108.103 239.615C108.476 240.148 109.003 240.415 109.683 240.415C110.363 240.415 110.883 240.148 111.243 239.615C111.616 239.068 111.803 238.335 111.803 237.415ZM121.456 237.515C121.456 236.581 121.596 235.768 121.876 235.075C122.169 234.368 122.549 233.781 123.016 233.315C123.483 232.848 124.016 232.495 124.616 232.255C125.229 232.015 125.856 231.895 126.496 231.895C127.989 231.895 129.169 232.355 130.036 233.275C130.903 234.181 131.336 235.521 131.336 237.295C131.336 237.468 131.329 237.661 131.316 237.875C131.303 238.075 131.289 238.255 131.276 238.415H124.516C124.583 239.028 124.869 239.515 125.376 239.875C125.883 240.235 126.563 240.415 127.416 240.415C127.963 240.415 128.496 240.368 129.016 240.275C129.549 240.168 129.983 240.041 130.316 239.895L130.716 242.315C130.556 242.395 130.343 242.475 130.076 242.555C129.809 242.635 129.509 242.701 129.176 242.755C128.856 242.821 128.509 242.875 128.136 242.915C127.763 242.955 127.389 242.975 127.016 242.975C126.069 242.975 125.243 242.835 124.536 242.555C123.843 242.275 123.263 241.895 122.796 241.415C122.343 240.921 122.003 240.341 121.776 239.675C121.563 239.008 121.456 238.288 121.456 237.515ZM128.456 236.375C128.443 236.121 128.396 235.875 128.316 235.635C128.249 235.395 128.136 235.181 127.976 234.995C127.829 234.808 127.636 234.655 127.396 234.535C127.169 234.415 126.883 234.355 126.536 234.355C126.203 234.355 125.916 234.415 125.676 234.535C125.436 234.641 125.236 234.788 125.076 234.975C124.916 235.161 124.789 235.381 124.696 235.635C124.616 235.875 124.556 236.121 124.516 236.375H128.456ZM73.1887 251.675C75.2687 251.675 76.862 252.048 77.9687 252.795C79.0754 253.528 79.6287 254.675 79.6287 256.235C79.6287 257.208 79.402 258.001 78.9487 258.615C78.5087 259.215 77.8687 259.688 77.0287 260.035C77.3087 260.381 77.602 260.781 77.9087 261.235C78.2154 261.675 78.5154 262.141 78.8087 262.635C79.1154 263.115 79.4087 263.621 79.6887 264.155C79.9687 264.675 80.2287 265.188 80.4687 265.695H76.9687C76.7154 265.241 76.4554 264.781 76.1887 264.315C75.9354 263.848 75.6687 263.395 75.3887 262.955C75.122 262.515 74.8554 262.101 74.5887 261.715C74.322 261.315 74.0554 260.955 73.7887 260.635H72.2487V265.695H69.1287V252.035C69.8087 251.901 70.5087 251.808 71.2287 251.755C71.962 251.701 72.6154 251.675 73.1887 251.675ZM73.3687 254.335C73.142 254.335 72.9354 254.341 72.7487 254.355C72.5754 254.368 72.4087 254.381 72.2487 254.395V258.155H73.1287C74.302 258.155 75.142 258.008 75.6487 257.715C76.1554 257.421 76.4087 256.921 76.4087 256.215C76.4087 255.535 76.1487 255.055 75.6287 254.775C75.122 254.481 74.3687 254.335 73.3687 254.335ZM91.6007 260.415C91.6007 261.241 91.4807 262.001 91.2407 262.695C91.0007 263.375 90.6541 263.961 90.2007 264.455C89.7474 264.935 89.2007 265.308 88.5607 265.575C87.9341 265.841 87.2274 265.975 86.4407 265.975C85.6674 265.975 84.9607 265.841 84.3207 265.575C83.6941 265.308 83.1541 264.935 82.7007 264.455C82.2474 263.961 81.8941 263.375 81.6407 262.695C81.3874 262.001 81.2607 261.241 81.2607 260.415C81.2607 259.588 81.3874 258.835 81.6407 258.155C81.9074 257.475 82.2674 256.895 82.7207 256.415C83.1874 255.935 83.7341 255.561 84.3607 255.295C85.0007 255.028 85.6941 254.895 86.4407 254.895C87.2007 254.895 87.8941 255.028 88.5207 255.295C89.1607 255.561 89.7074 255.935 90.1607 256.415C90.6141 256.895 90.9674 257.475 91.2207 258.155C91.4741 258.835 91.6007 259.588 91.6007 260.415ZM88.5607 260.415C88.5607 259.495 88.3741 258.775 88.0007 258.255C87.6407 257.721 87.1207 257.455 86.4407 257.455C85.7607 257.455 85.2341 257.721 84.8607 258.255C84.4874 258.775 84.3007 259.495 84.3007 260.415C84.3007 261.335 84.4874 262.068 84.8607 262.615C85.2341 263.148 85.7607 263.415 86.4407 263.415C87.1207 263.415 87.6407 263.148 88.0007 262.615C88.3741 262.068 88.5607 261.335 88.5607 260.415ZM102.889 265.335C102.382 265.481 101.729 265.615 100.929 265.735C100.129 265.868 99.2892 265.935 98.4092 265.935C97.5158 265.935 96.7692 265.815 96.1692 265.575C95.5825 265.335 95.1158 265.001 94.7692 264.575C94.4225 264.135 94.1758 263.615 94.0292 263.015C93.8825 262.415 93.8092 261.755 93.8092 261.035V255.175H96.7892V260.675C96.7892 261.635 96.9158 262.328 97.1692 262.755C97.4225 263.181 97.8958 263.395 98.5892 263.395C98.8025 263.395 99.0292 263.388 99.2692 263.375C99.5092 263.348 99.7225 263.321 99.9092 263.295V255.175H102.889V265.335ZM112.427 260.355C112.427 258.435 111.72 257.475 110.307 257.475C110 257.475 109.693 257.515 109.387 257.595C109.093 257.675 108.853 257.775 108.667 257.895V263.315C108.813 263.341 109 263.368 109.227 263.395C109.453 263.408 109.7 263.415 109.967 263.415C110.78 263.415 111.393 263.135 111.807 262.575C112.22 262.015 112.427 261.275 112.427 260.355ZM115.467 260.435C115.467 261.275 115.34 262.035 115.087 262.715C114.847 263.395 114.493 263.975 114.027 264.455C113.56 264.935 112.987 265.308 112.307 265.575C111.627 265.828 110.853 265.955 109.987 265.955C109.627 265.955 109.247 265.935 108.847 265.895C108.46 265.868 108.073 265.828 107.687 265.775C107.313 265.721 106.953 265.661 106.607 265.595C106.26 265.515 105.953 265.435 105.687 265.355V250.655L108.667 250.175V255.415C109 255.268 109.347 255.155 109.707 255.075C110.067 254.995 110.453 254.955 110.867 254.955C111.613 254.955 112.273 255.088 112.847 255.355C113.42 255.608 113.9 255.975 114.287 256.455C114.673 256.935 114.967 257.515 115.167 258.195C115.367 258.861 115.467 259.608 115.467 260.435ZM127.597 260.415C127.597 261.241 127.477 262.001 127.237 262.695C126.997 263.375 126.65 263.961 126.197 264.455C125.743 264.935 125.197 265.308 124.557 265.575C123.93 265.841 123.223 265.975 122.437 265.975C121.663 265.975 120.957 265.841 120.317 265.575C119.69 265.308 119.15 264.935 118.697 264.455C118.243 263.961 117.89 263.375 117.637 262.695C117.383 262.001 117.257 261.241 117.257 260.415C117.257 259.588 117.383 258.835 117.637 258.155C117.903 257.475 118.263 256.895 118.717 256.415C119.183 255.935 119.73 255.561 120.357 255.295C120.997 255.028 121.69 254.895 122.437 254.895C123.197 254.895 123.89 255.028 124.517 255.295C125.157 255.561 125.703 255.935 126.157 256.415C126.61 256.895 126.963 257.475 127.217 258.155C127.47 258.835 127.597 259.588 127.597 260.415ZM124.557 260.415C124.557 259.495 124.37 258.775 123.997 258.255C123.637 257.721 123.117 257.455 122.437 257.455C121.757 257.455 121.23 257.721 120.857 258.255C120.483 258.775 120.297 259.495 120.297 260.415C120.297 261.335 120.483 262.068 120.857 262.615C121.23 263.148 121.757 263.415 122.437 263.415C123.117 263.415 123.637 263.148 123.997 262.615C124.37 262.068 124.557 261.335 124.557 260.415Z" fill="white"/>
<defs>
<clipPath id="clip0">
<rect width="192.916" height="192.916" fill="white" transform="translate(0.845703 0.915527)"/>
</clipPath>
</defs>
</svg>
