<svg width="200" height="308" viewBox="0 0 200 308" fill="none" xmlns="http://www.w3.org/2000/svg">
<path d="M48.0968 270C47.9501 269.52 47.7835 269.027 47.5968 268.52C47.4235 268.013 47.2501 267.507 47.0768 267H41.6768C41.5035 267.507 41.3235 268.013 41.1368 268.52C40.9635 269.027 40.8035 269.52 40.6568 270H37.4168C37.9368 268.507 38.4301 267.127 38.8968 265.86C39.3635 264.593 39.8168 263.4 40.2568 262.28C40.7101 261.16 41.1501 260.1 41.5768 259.1C42.0168 258.087 42.4701 257.1 42.9368 256.14H45.9168C46.3701 257.1 46.8168 258.087 47.2568 259.1C47.6968 260.1 48.1368 261.16 48.5768 262.28C49.0301 263.4 49.4901 264.593 49.9568 265.86C50.4235 267.127 50.9168 268.507 51.4368 270H48.0968ZM44.3568 259.28C44.2901 259.48 44.1901 259.753 44.0568 260.1C43.9235 260.447 43.7701 260.847 43.5968 261.3C43.4235 261.753 43.2301 262.253 43.0168 262.8C42.8168 263.347 42.6101 263.92 42.3968 264.52H46.3368C46.1235 263.92 45.9168 263.347 45.7168 262.8C45.5168 262.253 45.3235 261.753 45.1368 261.3C44.9635 260.847 44.8101 260.447 44.6768 260.1C44.5435 259.753 44.4368 259.48 44.3568 259.28ZM52.9309 256.86L55.9109 256.38V259.48H59.4909V261.96H55.9109V265.66C55.9109 266.287 56.0175 266.787 56.2309 267.16C56.4575 267.533 56.9042 267.72 57.5709 267.72C57.8909 267.72 58.2175 267.693 58.5509 267.64C58.8975 267.573 59.2109 267.487 59.4909 267.38L59.9109 269.7C59.5509 269.847 59.1509 269.973 58.7109 270.08C58.2709 270.187 57.7309 270.24 57.0909 270.24C56.2775 270.24 55.6042 270.133 55.0709 269.92C54.5375 269.693 54.1109 269.387 53.7909 269C53.4709 268.6 53.2442 268.12 53.1109 267.56C52.9909 267 52.9309 266.38 52.9309 265.7V256.86ZM61.027 264.82C61.027 263.887 61.167 263.073 61.447 262.38C61.7403 261.673 62.1203 261.087 62.587 260.62C63.0536 260.153 63.587 259.8 64.187 259.56C64.8003 259.32 65.427 259.2 66.067 259.2C67.5603 259.2 68.7403 259.66 69.607 260.58C70.4736 261.487 70.907 262.827 70.907 264.6C70.907 264.773 70.9003 264.967 70.887 265.18C70.8736 265.38 70.8603 265.56 70.847 265.72H64.087C64.1536 266.333 64.4403 266.82 64.947 267.18C65.4536 267.54 66.1336 267.72 66.987 267.72C67.5336 267.72 68.067 267.673 68.587 267.58C69.1203 267.473 69.5536 267.347 69.887 267.2L70.287 269.62C70.127 269.7 69.9136 269.78 69.647 269.86C69.3803 269.94 69.0803 270.007 68.747 270.06C68.427 270.127 68.0803 270.18 67.707 270.22C67.3336 270.26 66.9603 270.28 66.587 270.28C65.6403 270.28 64.8136 270.14 64.107 269.86C63.4136 269.58 62.8336 269.2 62.367 268.72C61.9136 268.227 61.5736 267.647 61.347 266.98C61.1336 266.313 61.027 265.593 61.027 264.82ZM68.027 263.68C68.0136 263.427 67.967 263.18 67.887 262.94C67.8203 262.7 67.707 262.487 67.547 262.3C67.4003 262.113 67.207 261.96 66.967 261.84C66.7403 261.72 66.4536 261.66 66.107 261.66C65.7736 261.66 65.487 261.72 65.247 261.84C65.007 261.947 64.807 262.093 64.647 262.28C64.487 262.467 64.3603 262.687 64.267 262.94C64.187 263.18 64.127 263.427 64.087 263.68H68.027ZM73.2066 259.84C73.7133 259.693 74.3666 259.56 75.1666 259.44C75.9666 259.307 76.8066 259.24 77.6866 259.24C78.58 259.24 79.32 259.36 79.9066 259.6C80.5066 259.827 80.98 260.153 81.3266 260.58C81.6733 261.007 81.92 261.513 82.0666 262.1C82.2133 262.687 82.2866 263.34 82.2866 264.06V270H79.3066V264.42C79.3066 263.46 79.18 262.78 78.9266 262.38C78.6733 261.98 78.2 261.78 77.5066 261.78C77.2933 261.78 77.0666 261.793 76.8266 261.82C76.5866 261.833 76.3733 261.853 76.1866 261.88V270H73.2066V259.84ZM87.524 264.66C87.524 265.58 87.7307 266.32 88.144 266.88C88.5573 267.44 89.1707 267.72 89.984 267.72C90.2507 267.72 90.4973 267.713 90.724 267.7C90.9507 267.673 91.1373 267.647 91.284 267.62V262.2C91.0973 262.08 90.8507 261.98 90.544 261.9C90.2507 261.82 89.9507 261.78 89.644 261.78C88.2307 261.78 87.524 262.74 87.524 264.66ZM94.264 269.66C93.9973 269.74 93.6907 269.82 93.344 269.9C92.9973 269.967 92.6307 270.027 92.244 270.08C91.8707 270.133 91.484 270.173 91.084 270.2C90.6973 270.24 90.324 270.26 89.964 270.26C89.0973 270.26 88.324 270.133 87.644 269.88C86.964 269.627 86.3907 269.267 85.924 268.8C85.4573 268.32 85.0973 267.747 84.844 267.08C84.604 266.4 84.484 265.64 84.484 264.8C84.484 263.947 84.5907 263.18 84.804 262.5C85.0173 261.807 85.324 261.22 85.724 260.74C86.124 260.26 86.6107 259.893 87.184 259.64C87.7707 259.387 88.4373 259.26 89.184 259.26C89.5973 259.26 89.964 259.3 90.284 259.38C90.6173 259.46 90.9507 259.573 91.284 259.72V254.96L94.264 254.48V269.66ZM100.034 270H97.0543V259.48H100.034V270ZM100.314 256.44C100.314 256.987 100.134 257.42 99.7743 257.74C99.4276 258.047 99.0143 258.2 98.5343 258.2C98.0543 258.2 97.6343 258.047 97.2743 257.74C96.9276 257.42 96.7543 256.987 96.7543 256.44C96.7543 255.893 96.9276 255.467 97.2743 255.16C97.6343 254.84 98.0543 254.68 98.5343 254.68C99.0143 254.68 99.4276 254.84 99.7743 255.16C100.134 255.467 100.314 255.893 100.314 256.44ZM108.616 264.42C108.616 263.46 108.489 262.78 108.236 262.38C107.996 261.98 107.576 261.78 106.976 261.78C106.789 261.78 106.596 261.793 106.396 261.82C106.196 261.833 106.002 261.853 105.816 261.88V270H102.836V259.84C103.089 259.773 103.382 259.707 103.716 259.64C104.062 259.56 104.422 259.493 104.796 259.44C105.182 259.373 105.576 259.327 105.976 259.3C106.376 259.26 106.769 259.24 107.156 259.24C107.916 259.24 108.529 259.34 108.996 259.54C109.476 259.727 109.869 259.953 110.176 260.22C110.602 259.913 111.089 259.673 111.636 259.5C112.196 259.327 112.709 259.24 113.176 259.24C114.016 259.24 114.702 259.36 115.236 259.6C115.782 259.827 116.216 260.153 116.536 260.58C116.856 261.007 117.076 261.513 117.196 262.1C117.316 262.687 117.376 263.34 117.376 264.06V270H114.396V264.42C114.396 263.46 114.269 262.78 114.016 262.38C113.776 261.98 113.356 261.78 112.756 261.78C112.596 261.78 112.369 261.82 112.076 261.9C111.796 261.98 111.562 262.08 111.376 262.2C111.469 262.507 111.529 262.833 111.556 263.18C111.582 263.513 111.596 263.873 111.596 264.26V270H108.616V264.42ZM119.582 264.82C119.582 263.887 119.722 263.073 120.002 262.38C120.295 261.673 120.675 261.087 121.142 260.62C121.608 260.153 122.142 259.8 122.742 259.56C123.355 259.32 123.982 259.2 124.622 259.2C126.115 259.2 127.295 259.66 128.162 260.58C129.028 261.487 129.462 262.827 129.462 264.6C129.462 264.773 129.455 264.967 129.442 265.18C129.428 265.38 129.415 265.56 129.402 265.72H122.642C122.708 266.333 122.995 266.82 123.502 267.18C124.008 267.54 124.688 267.72 125.542 267.72C126.088 267.72 126.622 267.673 127.142 267.58C127.675 267.473 128.108 267.347 128.442 267.2L128.842 269.62C128.682 269.7 128.468 269.78 128.202 269.86C127.935 269.94 127.635 270.007 127.302 270.06C126.982 270.127 126.635 270.18 126.262 270.22C125.888 270.26 125.515 270.28 125.142 270.28C124.195 270.28 123.368 270.14 122.662 269.86C121.968 269.58 121.388 269.2 120.922 268.72C120.468 268.227 120.128 267.647 119.902 266.98C119.688 266.313 119.582 265.593 119.582 264.82ZM126.582 263.68C126.568 263.427 126.522 263.18 126.442 262.94C126.375 262.7 126.262 262.487 126.102 262.3C125.955 262.113 125.762 261.96 125.522 261.84C125.295 261.72 125.008 261.66 124.662 261.66C124.328 261.66 124.042 261.72 123.802 261.84C123.562 261.947 123.362 262.093 123.202 262.28C123.042 262.467 122.915 262.687 122.822 262.94C122.742 263.18 122.682 263.427 122.642 263.68H126.582ZM131.761 259.84C132.268 259.693 132.921 259.56 133.721 259.44C134.521 259.307 135.361 259.24 136.241 259.24C137.135 259.24 137.875 259.36 138.461 259.6C139.061 259.827 139.535 260.153 139.881 260.58C140.228 261.007 140.475 261.513 140.621 262.1C140.768 262.687 140.841 263.34 140.841 264.06V270H137.861V264.42C137.861 263.46 137.735 262.78 137.481 262.38C137.228 261.98 136.755 261.78 136.061 261.78C135.848 261.78 135.621 261.793 135.381 261.82C135.141 261.833 134.928 261.853 134.741 261.88V270H131.761V259.84ZM143.439 256.86L146.419 256.38V259.48H149.999V261.96H146.419V265.66C146.419 266.287 146.525 266.787 146.739 267.16C146.965 267.533 147.412 267.72 148.079 267.72C148.399 267.72 148.725 267.693 149.059 267.64C149.405 267.573 149.719 267.487 149.999 267.38L150.419 269.7C150.059 269.847 149.659 269.973 149.219 270.08C148.779 270.187 148.239 270.24 147.599 270.24C146.785 270.24 146.112 270.133 145.579 269.92C145.045 269.693 144.619 269.387 144.299 269C143.979 268.6 143.752 268.12 143.619 267.56C143.499 267 143.439 266.38 143.439 265.7V256.86ZM161.875 264.72C161.875 265.547 161.755 266.307 161.515 267C161.275 267.68 160.928 268.267 160.475 268.76C160.021 269.24 159.475 269.613 158.835 269.88C158.208 270.147 157.501 270.28 156.715 270.28C155.941 270.28 155.235 270.147 154.595 269.88C153.968 269.613 153.428 269.24 152.975 268.76C152.521 268.267 152.168 267.68 151.915 267C151.661 266.307 151.535 265.547 151.535 264.72C151.535 263.893 151.661 263.14 151.915 262.46C152.181 261.78 152.541 261.2 152.995 260.72C153.461 260.24 154.008 259.867 154.635 259.6C155.275 259.333 155.968 259.2 156.715 259.2C157.475 259.2 158.168 259.333 158.795 259.6C159.435 259.867 159.981 260.24 160.435 260.72C160.888 261.2 161.241 261.78 161.495 262.46C161.748 263.14 161.875 263.893 161.875 264.72ZM158.835 264.72C158.835 263.8 158.648 263.08 158.275 262.56C157.915 262.027 157.395 261.76 156.715 261.76C156.035 261.76 155.508 262.027 155.135 262.56C154.761 263.08 154.575 263.8 154.575 264.72C154.575 265.64 154.761 266.373 155.135 266.92C155.508 267.453 156.035 267.72 156.715 267.72C157.395 267.72 157.915 267.453 158.275 266.92C158.648 266.373 158.835 265.64 158.835 264.72ZM53.6604 285.98C55.7271 285.98 57.3137 286.347 58.4204 287.08C59.5271 287.8 60.0804 288.987 60.0804 290.64C60.0804 292.307 59.5204 293.513 58.4004 294.26C57.2804 294.993 55.6804 295.36 53.6004 295.36H52.6204V300H49.5004V286.34C50.1804 286.207 50.9004 286.113 51.6604 286.06C52.4204 286.007 53.0871 285.98 53.6604 285.98ZM53.8604 288.64C53.6337 288.64 53.4071 288.647 53.1804 288.66C52.9671 288.673 52.7804 288.687 52.6204 288.7V292.7H53.6004C54.6804 292.7 55.4937 292.553 56.0404 292.26C56.5871 291.967 56.8604 291.42 56.8604 290.62C56.8604 290.233 56.7871 289.913 56.6404 289.66C56.5071 289.407 56.3071 289.207 56.0404 289.06C55.7871 288.9 55.4737 288.793 55.1004 288.74C54.7271 288.673 54.3137 288.64 53.8604 288.64ZM68.5115 292.12C68.2448 292.053 67.9315 291.987 67.5715 291.92C67.2115 291.84 66.8248 291.8 66.4115 291.8C66.2248 291.8 65.9982 291.82 65.7315 291.86C65.4782 291.887 65.2848 291.92 65.1515 291.96V300H62.1715V290.04C62.7048 289.853 63.3315 289.68 64.0515 289.52C64.7848 289.347 65.5982 289.26 66.4915 289.26C66.6515 289.26 66.8448 289.273 67.0715 289.3C67.2982 289.313 67.5248 289.34 67.7515 289.38C67.9782 289.407 68.2048 289.447 68.4315 289.5C68.6582 289.54 68.8515 289.593 69.0115 289.66L68.5115 292.12ZM69.9137 294.82C69.9137 293.887 70.0537 293.073 70.3337 292.38C70.627 291.673 71.007 291.087 71.4737 290.62C71.9403 290.153 72.4737 289.8 73.0737 289.56C73.687 289.32 74.3137 289.2 74.9537 289.2C76.447 289.2 77.627 289.66 78.4937 290.58C79.3603 291.487 79.7937 292.827 79.7937 294.6C79.7937 294.773 79.787 294.967 79.7737 295.18C79.7603 295.38 79.747 295.56 79.7337 295.72H72.9737C73.0403 296.333 73.327 296.82 73.8337 297.18C74.3403 297.54 75.0203 297.72 75.8737 297.72C76.4203 297.72 76.9537 297.673 77.4737 297.58C78.007 297.473 78.4403 297.347 78.7737 297.2L79.1737 299.62C79.0137 299.7 78.8003 299.78 78.5337 299.86C78.267 299.94 77.967 300.007 77.6337 300.06C77.3137 300.127 76.967 300.18 76.5937 300.22C76.2203 300.26 75.847 300.28 75.4737 300.28C74.527 300.28 73.7003 300.14 72.9937 299.86C72.3003 299.58 71.7203 299.2 71.2537 298.72C70.8003 298.227 70.4603 297.647 70.2337 296.98C70.0203 296.313 69.9137 295.593 69.9137 294.82ZM76.9137 293.68C76.9003 293.427 76.8537 293.18 76.7737 292.94C76.707 292.7 76.5937 292.487 76.4337 292.3C76.287 292.113 76.0937 291.96 75.8537 291.84C75.627 291.72 75.3403 291.66 74.9937 291.66C74.6603 291.66 74.3737 291.72 74.1337 291.84C73.8937 291.947 73.6937 292.093 73.5337 292.28C73.3737 292.467 73.247 292.687 73.1537 292.94C73.0737 293.18 73.0137 293.427 72.9737 293.68H76.9137ZM84.9534 300C84.2734 298.667 83.58 297.107 82.8734 295.32C82.18 293.533 81.52 291.587 80.8934 289.48H84.0534C84.1867 290 84.34 290.567 84.5134 291.18C84.7 291.78 84.8867 292.393 85.0734 293.02C85.2734 293.633 85.4667 294.233 85.6534 294.82C85.8534 295.407 86.0467 295.94 86.2334 296.42C86.4067 295.94 86.5934 295.407 86.7934 294.82C86.9934 294.233 87.1867 293.633 87.3734 293.02C87.5734 292.393 87.76 291.78 87.9334 291.18C88.12 290.567 88.28 290 88.4134 289.48H91.4934C90.8667 291.587 90.2 293.533 89.4934 295.32C88.8 297.107 88.1134 298.667 87.4334 300H84.9534ZM92.316 294.82C92.316 293.887 92.456 293.073 92.736 292.38C93.0293 291.673 93.4093 291.087 93.876 290.62C94.3427 290.153 94.876 289.8 95.476 289.56C96.0893 289.32 96.716 289.2 97.356 289.2C98.8493 289.2 100.029 289.66 100.896 290.58C101.763 291.487 102.196 292.827 102.196 294.6C102.196 294.773 102.189 294.967 102.176 295.18C102.163 295.38 102.149 295.56 102.136 295.72H95.376C95.4427 296.333 95.7293 296.82 96.236 297.18C96.7427 297.54 97.4227 297.72 98.276 297.72C98.8227 297.72 99.356 297.673 99.876 297.58C100.409 297.473 100.843 297.347 101.176 297.2L101.576 299.62C101.416 299.7 101.203 299.78 100.936 299.86C100.669 299.94 100.369 300.007 100.036 300.06C99.716 300.127 99.3693 300.18 98.996 300.22C98.6227 300.26 98.2493 300.28 97.876 300.28C96.9293 300.28 96.1027 300.14 95.396 299.86C94.7027 299.58 94.1227 299.2 93.656 298.72C93.2027 298.227 92.8627 297.647 92.636 296.98C92.4227 296.313 92.316 295.593 92.316 294.82ZM99.316 293.68C99.3027 293.427 99.256 293.18 99.176 292.94C99.1093 292.7 98.996 292.487 98.836 292.3C98.6893 292.113 98.496 291.96 98.256 291.84C98.0293 291.72 97.7427 291.66 97.396 291.66C97.0627 291.66 96.776 291.72 96.536 291.84C96.296 291.947 96.096 292.093 95.936 292.28C95.776 292.467 95.6493 292.687 95.556 292.94C95.476 293.18 95.416 293.427 95.376 293.68H99.316ZM104.496 289.84C105.002 289.693 105.656 289.56 106.456 289.44C107.256 289.307 108.096 289.24 108.976 289.24C109.869 289.24 110.609 289.36 111.196 289.6C111.796 289.827 112.269 290.153 112.616 290.58C112.962 291.007 113.209 291.513 113.356 292.1C113.502 292.687 113.576 293.34 113.576 294.06V300H110.596V294.42C110.596 293.46 110.469 292.78 110.216 292.38C109.962 291.98 109.489 291.78 108.796 291.78C108.582 291.78 108.356 291.793 108.116 291.82C107.876 291.833 107.662 291.853 107.476 291.88V300H104.496V289.84ZM116.173 286.86L119.153 286.38V289.48H122.733V291.96H119.153V295.66C119.153 296.287 119.26 296.787 119.473 297.16C119.7 297.533 120.146 297.72 120.813 297.72C121.133 297.72 121.46 297.693 121.793 297.64C122.14 297.573 122.453 297.487 122.733 297.38L123.153 299.7C122.793 299.847 122.393 299.973 121.953 300.08C121.513 300.187 120.973 300.24 120.333 300.24C119.52 300.24 118.846 300.133 118.313 299.92C117.78 299.693 117.353 299.387 117.033 299C116.713 298.6 116.486 298.12 116.353 297.56C116.233 297 116.173 296.38 116.173 295.7V286.86ZM128.14 300H125.16V289.48H128.14V300ZM128.42 286.44C128.42 286.987 128.24 287.42 127.88 287.74C127.533 288.047 127.12 288.2 126.64 288.2C126.16 288.2 125.74 288.047 125.38 287.74C125.033 287.42 124.86 286.987 124.86 286.44C124.86 285.893 125.033 285.467 125.38 285.16C125.74 284.84 126.16 284.68 126.64 284.68C127.12 284.68 127.533 284.84 127.88 285.16C128.24 285.467 128.42 285.893 128.42 286.44ZM133.489 300C132.809 298.667 132.115 297.107 131.409 295.32C130.715 293.533 130.055 291.587 129.429 289.48H132.589C132.722 290 132.875 290.567 133.049 291.18C133.235 291.78 133.422 292.393 133.609 293.02C133.809 293.633 134.002 294.233 134.189 294.82C134.389 295.407 134.582 295.94 134.769 296.42C134.942 295.94 135.129 295.407 135.329 294.82C135.529 294.233 135.722 293.633 135.909 293.02C136.109 292.393 136.295 291.78 136.469 291.18C136.655 290.567 136.815 290 136.949 289.48H140.029C139.402 291.587 138.735 293.533 138.029 295.32C137.335 297.107 136.649 298.667 135.969 300H133.489ZM151.191 294.72C151.191 295.547 151.071 296.307 150.831 297C150.591 297.68 150.245 298.267 149.791 298.76C149.338 299.24 148.791 299.613 148.151 299.88C147.525 300.147 146.818 300.28 146.031 300.28C145.258 300.28 144.551 300.147 143.911 299.88C143.285 299.613 142.745 299.24 142.291 298.76C141.838 298.267 141.485 297.68 141.231 297C140.978 296.307 140.851 295.547 140.851 294.72C140.851 293.893 140.978 293.14 141.231 292.46C141.498 291.78 141.858 291.2 142.311 290.72C142.778 290.24 143.325 289.867 143.951 289.6C144.591 289.333 145.285 289.2 146.031 289.2C146.791 289.2 147.485 289.333 148.111 289.6C148.751 289.867 149.298 290.24 149.751 290.72C150.205 291.2 150.558 291.78 150.811 292.46C151.065 293.14 151.191 293.893 151.191 294.72ZM148.151 294.72C148.151 293.8 147.965 293.08 147.591 292.56C147.231 292.027 146.711 291.76 146.031 291.76C145.351 291.76 144.825 292.027 144.451 292.56C144.078 293.08 143.891 293.8 143.891 294.72C143.891 295.64 144.078 296.373 144.451 296.92C144.825 297.453 145.351 297.72 146.031 297.72C146.711 297.72 147.231 297.453 147.591 296.92C147.965 296.373 148.151 295.64 148.151 294.72Z" fill="white"/>
<circle cx="100.944" cy="100.943" r="91.8519" fill="#00ACE2"/>
<path d="M181.976 116.252L159.972 106.251V0H122.52L107.427 15.0926C95.0191 5.27656 77.3773 4.33828 63.9434 13.2402L61.3203 14.9781L61.3199 29.634L101.066 70.6188H116.961L118.698 67.9957C127.901 54.1066 126.588 35.7211 115.82 23.2711L127.373 11.7188H148.254V102.841H80.2945L47.0367 74.6996C40.7879 69.4121 32.8547 66.8746 24.6965 67.5543C16.5391 68.234 9.13477 72.05 3.84727 78.2988L0.0625 82.7719L62.5004 135.604L73.3559 163.828C59.0832 166.534 48.2535 179.093 48.2535 194.141V200H176.639V194.141C176.639 177.125 162.795 163.281 145.78 163.281H144.035L134.829 139.346H144.564L194.769 162.166L197.193 156.832C204.186 141.449 197.359 123.245 181.976 116.252ZM110.45 58.9004H106.026L73.0395 24.8852L73.0398 21.4895C82.6727 16.6586 94.5727 18.448 102.34 26.2156L105.725 29.5996C113.491 37.3668 115.28 49.2668 110.45 58.9004ZM188.105 146.265L147.102 127.627H71.2156L17.2805 81.9898C19.7875 80.4352 22.6453 79.4848 25.6703 79.2328C30.7078 78.8137 35.6082 80.3805 39.4676 83.6457L76.0023 114.56H149.933L177.127 126.921C184.767 130.393 188.989 138.343 188.105 146.265ZM60.8895 188.281C63.3699 180.584 70.6016 175 79.1129 175H145.78C154.291 175 161.523 180.584 164.003 188.281H60.8895ZM85.7012 163.281L76.4949 139.346H122.273L131.479 163.281H85.7012Z" fill="white"/>
<mask id="mask0" mask-type="alpha" maskUnits="userSpaceOnUse" x="9" y="9" width="184" height="184">
<circle cx="100.944" cy="100.943" r="91.8519" fill="#E5F2FF"/>
</mask>
<g mask="url(#mask0)">
</g>
</svg>
