<svg width="194" height="261" viewBox="0 0 194 261" fill="none" xmlns="http://www.w3.org/2000/svg">
<circle cx="97.866" cy="98.0877" r="88.5984" fill="#00ACE2"/>
<g clip-path="url(#clip0)">
<path d="M193.261 68.2598H151.387L128.41 95.0599L98.1829 105.122L68.8672 95.357L57.24 68.2598H3.10498V150.027H41.4333C43.8102 157.554 50.8618 163.041 59.1613 163.041C67.4609 163.041 74.5125 157.554 76.8894 150.027H119.476C121.853 157.554 128.905 163.041 137.204 163.041C145.504 163.041 152.556 157.554 154.933 150.027H193.261V68.2598ZM156.497 79.4116H182.109V94.2873H143.741L156.497 79.4116ZM56.2892 94.2873H36.5407V79.4116H49.8912L56.2892 94.2873ZM25.3889 79.4116V94.2873H14.237V79.4116H25.3889ZM59.1613 151.889C55.0611 151.889 51.7334 148.561 51.7334 144.461C51.7334 140.361 55.0611 137.033 59.1613 137.033C63.2616 137.033 66.5893 140.361 66.5893 144.461C66.6091 148.561 63.2616 151.889 59.1613 151.889ZM92.6169 138.895H76.8894C74.5125 131.368 67.4609 125.881 59.1613 125.881C50.8618 125.881 43.8102 131.368 41.4333 138.895H14.237V105.419H63.8162L92.6169 115.026V138.895ZM137.204 151.889C133.104 151.889 129.777 148.561 129.777 144.461C129.777 140.361 133.104 137.033 137.204 137.033C141.305 137.033 144.632 140.361 144.632 144.461C144.632 148.561 141.305 151.889 137.204 151.889ZM154.933 138.895C152.556 131.368 145.504 125.881 137.204 125.881C128.905 125.881 121.853 131.368 119.476 138.895H103.749V115.026L132.53 105.439H182.109V138.895H154.933Z" fill="white"/>
<path d="M92.6172 29.8525H103.749V66.3981H92.6172V29.8525Z" fill="white"/>
<path d="M54.5063 42.5099L64.1528 36.9438L82.4355 68.5969L72.789 74.1629L54.5063 42.5099Z" fill="white"/>
<path d="M113.931 68.5969L132.214 36.9438L141.86 42.5099L123.578 74.1629L113.931 68.5969Z" fill="white"/>
</g>
<path d="M66.3839 253.265C64.1306 253.265 62.4106 252.639 61.2239 251.385C60.0506 250.132 59.4639 248.352 59.4639 246.045C59.4639 244.899 59.6439 243.879 60.0039 242.985C60.3639 242.079 60.8573 241.319 61.4839 240.705C62.1106 240.079 62.8573 239.605 63.7239 239.285C64.5906 238.965 65.5306 238.805 66.5439 238.805C67.1306 238.805 67.6639 238.852 68.1439 238.945C68.6239 239.025 69.0439 239.125 69.4039 239.245C69.7639 239.352 70.0639 239.465 70.3039 239.585C70.5439 239.705 70.7173 239.799 70.8239 239.865L69.9239 242.385C69.4973 242.159 68.9973 241.965 68.4239 241.805C67.8639 241.645 67.2239 241.565 66.5039 241.565C66.0239 241.565 65.5506 241.645 65.0839 241.805C64.6306 241.965 64.2239 242.225 63.8639 242.585C63.5173 242.932 63.2373 243.385 63.0239 243.945C62.8106 244.505 62.7039 245.185 62.7039 245.985C62.7039 246.625 62.7706 247.225 62.9039 247.785C63.0506 248.332 63.2773 248.805 63.5839 249.205C63.9039 249.605 64.3173 249.925 64.8239 250.165C65.3306 250.392 65.9439 250.505 66.6639 250.505C67.1173 250.505 67.5239 250.479 67.8839 250.425C68.2439 250.372 68.5639 250.312 68.8439 250.245C69.1239 250.165 69.3706 250.079 69.5839 249.985C69.7973 249.892 69.9906 249.805 70.1639 249.725L71.0239 252.225C70.5839 252.492 69.9639 252.732 69.1639 252.945C68.3639 253.159 67.4373 253.265 66.3839 253.265ZM82.4383 247.705C82.4383 248.532 82.3183 249.292 82.0783 249.985C81.8383 250.665 81.4916 251.252 81.0383 251.745C80.585 252.225 80.0383 252.599 79.3983 252.865C78.7716 253.132 78.065 253.265 77.2783 253.265C76.505 253.265 75.7983 253.132 75.1583 252.865C74.5316 252.599 73.9916 252.225 73.5383 251.745C73.085 251.252 72.7316 250.665 72.4783 249.985C72.225 249.292 72.0983 248.532 72.0983 247.705C72.0983 246.879 72.225 246.125 72.4783 245.445C72.745 244.765 73.105 244.185 73.5583 243.705C74.025 243.225 74.5716 242.852 75.1983 242.585C75.8383 242.319 76.5316 242.185 77.2783 242.185C78.0383 242.185 78.7316 242.319 79.3583 242.585C79.9983 242.852 80.545 243.225 80.9983 243.705C81.4516 244.185 81.805 244.765 82.0583 245.445C82.3116 246.125 82.4383 246.879 82.4383 247.705ZM79.3983 247.705C79.3983 246.785 79.2116 246.065 78.8383 245.545C78.4783 245.012 77.9583 244.745 77.2783 244.745C76.5983 244.745 76.0716 245.012 75.6983 245.545C75.325 246.065 75.1383 246.785 75.1383 247.705C75.1383 248.625 75.325 249.359 75.6983 249.905C76.0716 250.439 76.5983 250.705 77.2783 250.705C77.9583 250.705 78.4783 250.439 78.8383 249.905C79.2116 249.359 79.3983 248.625 79.3983 247.705ZM88.9467 253.185C88.0801 253.172 87.3734 253.079 86.8267 252.905C86.2934 252.732 85.8667 252.492 85.5467 252.185C85.2401 251.865 85.0267 251.485 84.9067 251.045C84.8001 250.592 84.7467 250.085 84.7467 249.525V237.945L87.7267 237.465V248.925C87.7267 249.192 87.7467 249.432 87.7867 249.645C87.8267 249.859 87.9001 250.039 88.0067 250.185C88.1267 250.332 88.2934 250.452 88.5067 250.545C88.7201 250.639 89.0067 250.699 89.3667 250.725L88.9467 253.185ZM94.0549 252.985H91.0749V242.465H94.0549V252.985ZM94.3349 239.425C94.3349 239.972 94.1549 240.405 93.7949 240.725C93.4482 241.032 93.0349 241.185 92.5549 241.185C92.0749 241.185 91.6549 241.032 91.2949 240.725C90.9482 240.405 90.7749 239.972 90.7749 239.425C90.7749 238.879 90.9482 238.452 91.2949 238.145C91.6549 237.825 92.0749 237.665 92.5549 237.665C93.0349 237.665 93.4482 237.825 93.7949 238.145C94.1549 238.452 94.3349 238.879 94.3349 239.425ZM99.8761 250.845C100.423 250.845 100.809 250.792 101.036 250.685C101.263 250.579 101.376 250.372 101.376 250.065C101.376 249.825 101.229 249.619 100.936 249.445C100.643 249.259 100.196 249.052 99.5961 248.825C99.1294 248.652 98.7028 248.472 98.3161 248.285C97.9428 248.099 97.6228 247.879 97.3561 247.625C97.0894 247.359 96.8828 247.045 96.7361 246.685C96.5894 246.325 96.5161 245.892 96.5161 245.385C96.5161 244.399 96.8828 243.619 97.6161 243.045C98.3494 242.472 99.3561 242.185 100.636 242.185C101.276 242.185 101.889 242.245 102.476 242.365C103.063 242.472 103.529 242.592 103.876 242.725L103.356 245.045C103.009 244.925 102.629 244.819 102.216 244.725C101.816 244.632 101.363 244.585 100.856 244.585C99.9228 244.585 99.4561 244.845 99.4561 245.365C99.4561 245.485 99.4761 245.592 99.5161 245.685C99.5561 245.779 99.6361 245.872 99.7561 245.965C99.8761 246.045 100.036 246.139 100.236 246.245C100.449 246.339 100.716 246.445 101.036 246.565C101.689 246.805 102.229 247.045 102.656 247.285C103.083 247.512 103.416 247.765 103.656 248.045C103.909 248.312 104.083 248.612 104.176 248.945C104.283 249.279 104.336 249.665 104.336 250.105C104.336 251.145 103.943 251.932 103.156 252.465C102.383 252.999 101.283 253.265 99.8561 253.265C98.9228 253.265 98.1428 253.185 97.5161 253.025C96.9028 252.865 96.4761 252.732 96.2361 252.625L96.7361 250.205C97.2428 250.405 97.7628 250.565 98.2961 250.685C98.8294 250.792 99.3561 250.845 99.8761 250.845ZM116.403 247.705C116.403 248.532 116.283 249.292 116.043 249.985C115.803 250.665 115.456 251.252 115.003 251.745C114.55 252.225 114.003 252.599 113.363 252.865C112.736 253.132 112.03 253.265 111.243 253.265C110.47 253.265 109.763 253.132 109.123 252.865C108.496 252.599 107.956 252.225 107.503 251.745C107.05 251.252 106.696 250.665 106.443 249.985C106.19 249.292 106.063 248.532 106.063 247.705C106.063 246.879 106.19 246.125 106.443 245.445C106.71 244.765 107.07 244.185 107.523 243.705C107.99 243.225 108.536 242.852 109.163 242.585C109.803 242.319 110.496 242.185 111.243 242.185C112.003 242.185 112.696 242.319 113.323 242.585C113.963 242.852 114.51 243.225 114.963 243.705C115.416 244.185 115.77 244.765 116.023 245.445C116.276 246.125 116.403 246.879 116.403 247.705ZM113.363 247.705C113.363 246.785 113.176 246.065 112.803 245.545C112.443 245.012 111.923 244.745 111.243 244.745C110.563 244.745 110.036 245.012 109.663 245.545C109.29 246.065 109.103 246.785 109.103 247.705C109.103 248.625 109.29 249.359 109.663 249.905C110.036 250.439 110.563 250.705 111.243 250.705C111.923 250.705 112.443 250.439 112.803 249.905C113.176 249.359 113.363 248.625 113.363 247.705ZM114.923 238.805C114.843 239.005 114.73 239.225 114.583 239.465C114.45 239.705 114.283 239.932 114.083 240.145C113.883 240.345 113.656 240.512 113.403 240.645C113.15 240.779 112.87 240.845 112.563 240.845C112.323 240.845 112.096 240.812 111.883 240.745C111.683 240.665 111.483 240.585 111.283 240.505C111.083 240.412 110.883 240.332 110.683 240.265C110.483 240.185 110.276 240.145 110.063 240.145C109.796 240.145 109.576 240.232 109.403 240.405C109.23 240.579 109.09 240.779 108.983 241.005L107.523 240.045C107.603 239.845 107.71 239.625 107.843 239.385C107.99 239.145 108.163 238.925 108.363 238.725C108.563 238.512 108.79 238.339 109.043 238.205C109.296 238.072 109.576 238.005 109.883 238.005C110.123 238.005 110.343 238.045 110.543 238.125C110.756 238.192 110.963 238.272 111.163 238.365C111.363 238.445 111.556 238.525 111.743 238.605C111.943 238.672 112.156 238.705 112.383 238.705C112.65 238.705 112.87 238.619 113.043 238.445C113.216 238.272 113.356 238.072 113.463 237.845L114.923 238.805ZM118.212 247.805C118.212 246.872 118.352 246.059 118.632 245.365C118.925 244.659 119.305 244.072 119.772 243.605C120.238 243.139 120.772 242.785 121.372 242.545C121.985 242.305 122.612 242.185 123.252 242.185C124.745 242.185 125.925 242.645 126.792 243.565C127.658 244.472 128.092 245.812 128.092 247.585C128.092 247.759 128.085 247.952 128.072 248.165C128.058 248.365 128.045 248.545 128.032 248.705H121.272C121.338 249.319 121.625 249.805 122.132 250.165C122.638 250.525 123.318 250.705 124.172 250.705C124.718 250.705 125.252 250.659 125.772 250.565C126.305 250.459 126.738 250.332 127.072 250.185L127.472 252.605C127.312 252.685 127.098 252.765 126.832 252.845C126.565 252.925 126.265 252.992 125.932 253.045C125.612 253.112 125.265 253.165 124.892 253.205C124.518 253.245 124.145 253.265 123.772 253.265C122.825 253.265 121.998 253.125 121.292 252.845C120.598 252.565 120.018 252.185 119.552 251.705C119.098 251.212 118.758 250.632 118.532 249.965C118.318 249.299 118.212 248.579 118.212 247.805ZM125.212 246.665C125.198 246.412 125.152 246.165 125.072 245.925C125.005 245.685 124.892 245.472 124.732 245.285C124.585 245.099 124.392 244.945 124.152 244.825C123.925 244.705 123.638 244.645 123.292 244.645C122.958 244.645 122.672 244.705 122.432 244.825C122.192 244.932 121.992 245.079 121.832 245.265C121.672 245.452 121.545 245.672 121.452 245.925C121.372 246.165 121.312 246.412 121.272 246.665H125.212ZM133.411 250.845C133.958 250.845 134.345 250.792 134.571 250.685C134.798 250.579 134.911 250.372 134.911 250.065C134.911 249.825 134.765 249.619 134.471 249.445C134.178 249.259 133.731 249.052 133.131 248.825C132.665 248.652 132.238 248.472 131.851 248.285C131.478 248.099 131.158 247.879 130.891 247.625C130.625 247.359 130.418 247.045 130.271 246.685C130.125 246.325 130.051 245.892 130.051 245.385C130.051 244.399 130.418 243.619 131.151 243.045C131.885 242.472 132.891 242.185 134.171 242.185C134.811 242.185 135.425 242.245 136.011 242.365C136.598 242.472 137.065 242.592 137.411 242.725L136.891 245.045C136.545 244.925 136.165 244.819 135.751 244.725C135.351 244.632 134.898 244.585 134.391 244.585C133.458 244.585 132.991 244.845 132.991 245.365C132.991 245.485 133.011 245.592 133.051 245.685C133.091 245.779 133.171 245.872 133.291 245.965C133.411 246.045 133.571 246.139 133.771 246.245C133.985 246.339 134.251 246.445 134.571 246.565C135.225 246.805 135.765 247.045 136.191 247.285C136.618 247.512 136.951 247.765 137.191 248.045C137.445 248.312 137.618 248.612 137.711 248.945C137.818 249.279 137.871 249.665 137.871 250.105C137.871 251.145 137.478 251.932 136.691 252.465C135.918 252.999 134.818 253.265 133.391 253.265C132.458 253.265 131.678 253.185 131.051 253.025C130.438 252.865 130.011 252.732 129.771 252.625L130.271 250.205C130.778 250.405 131.298 250.565 131.831 250.685C132.365 250.792 132.891 250.845 133.411 250.845Z" fill="white"/>
<defs>
<clipPath id="clip0">
<rect width="192.916" height="192.916" fill="white" transform="translate(0.694336 0.915527)"/>
</clipPath>
</defs>
</svg>
