<svg width="200" height="278" viewBox="0 0 200 278" fill="none" xmlns="http://www.w3.org/2000/svg">
<path d="M49.5881 255.98C51.6548 255.98 53.2415 256.347 54.3481 257.08C55.4548 257.8 56.0081 258.987 56.0081 260.64C56.0081 262.307 55.4481 263.513 54.3281 264.26C53.2081 264.993 51.6081 265.36 49.5281 265.36H48.5481V270H45.4281V256.34C46.1081 256.207 46.8281 256.113 47.5881 256.06C48.3481 256.007 49.0148 255.98 49.5881 255.98ZM49.7881 258.64C49.5615 258.64 49.3348 258.647 49.1081 258.66C48.8948 258.673 48.7081 258.687 48.5481 258.7V262.7H49.5281C50.6081 262.7 51.4215 262.553 51.9681 262.26C52.5148 261.967 52.7881 261.42 52.7881 260.62C52.7881 260.233 52.7148 259.913 52.5681 259.66C52.4348 259.407 52.2348 259.207 51.9681 259.06C51.7148 258.9 51.4015 258.793 51.0281 258.74C50.6548 258.673 50.2415 258.64 49.7881 258.64ZM57.3063 264.82C57.3063 263.887 57.4463 263.073 57.7262 262.38C58.0196 261.673 58.3996 261.087 58.8663 260.62C59.3329 260.153 59.8663 259.8 60.4663 259.56C61.0796 259.32 61.7063 259.2 62.3463 259.2C63.8396 259.2 65.0196 259.66 65.8863 260.58C66.7529 261.487 67.1863 262.827 67.1863 264.6C67.1863 264.773 67.1796 264.967 67.1663 265.18C67.1529 265.38 67.1396 265.56 67.1263 265.72H60.3663C60.4329 266.333 60.7196 266.82 61.2263 267.18C61.7329 267.54 62.4129 267.72 63.2663 267.72C63.8129 267.72 64.3463 267.673 64.8663 267.58C65.3996 267.473 65.8329 267.347 66.1663 267.2L66.5663 269.62C66.4063 269.7 66.1929 269.78 65.9263 269.86C65.6596 269.94 65.3596 270.007 65.0263 270.06C64.7063 270.127 64.3596 270.18 63.9863 270.22C63.6129 270.26 63.2396 270.28 62.8663 270.28C61.9196 270.28 61.0929 270.14 60.3863 269.86C59.6929 269.58 59.1129 269.2 58.6463 268.72C58.1929 268.227 57.8529 267.647 57.6263 266.98C57.4129 266.313 57.3063 265.593 57.3063 264.82ZM64.3063 263.68C64.2929 263.427 64.2463 263.18 64.1663 262.94C64.0996 262.7 63.9863 262.487 63.8263 262.3C63.6796 262.113 63.4863 261.96 63.2463 261.84C63.0196 261.72 62.7329 261.66 62.3863 261.66C62.0529 261.66 61.7663 261.72 61.5263 261.84C61.2863 261.947 61.0863 262.093 60.9263 262.28C60.7663 262.467 60.6396 262.687 60.5463 262.94C60.4663 263.18 60.4063 263.427 60.3663 263.68H64.3063ZM75.8259 262.12C75.5593 262.053 75.2459 261.987 74.8859 261.92C74.5259 261.84 74.1393 261.8 73.7259 261.8C73.5393 261.8 73.3126 261.82 73.0459 261.86C72.7926 261.887 72.5993 261.92 72.4659 261.96V270H69.4859V260.04C70.0193 259.853 70.6459 259.68 71.3659 259.52C72.0993 259.347 72.9126 259.26 73.8059 259.26C73.9659 259.26 74.1593 259.273 74.3859 259.3C74.6126 259.313 74.8393 259.34 75.0659 259.38C75.2926 259.407 75.5193 259.447 75.7459 259.5C75.9726 259.54 76.1659 259.593 76.3259 259.66L75.8259 262.12ZM80.9034 270H77.9234V259.48H80.9034V270ZM81.1834 256.44C81.1834 256.987 81.0034 257.42 80.6434 257.74C80.2968 258.047 79.8834 258.2 79.4034 258.2C78.9234 258.2 78.5034 258.047 78.1434 257.74C77.7968 257.42 77.6234 256.987 77.6234 256.44C77.6234 255.893 77.7968 255.467 78.1434 255.16C78.5034 254.84 78.9234 254.68 79.4034 254.68C79.8834 254.68 80.2968 254.84 80.6434 255.16C81.0034 255.467 81.1834 255.893 81.1834 256.44ZM93.5447 264.72C93.5447 265.547 93.4247 266.307 93.1847 267C92.9447 267.68 92.598 268.267 92.1447 268.76C91.6914 269.24 91.1447 269.613 90.5047 269.88C89.878 270.147 89.1714 270.28 88.3847 270.28C87.6114 270.28 86.9047 270.147 86.2647 269.88C85.638 269.613 85.098 269.24 84.6447 268.76C84.1914 268.267 83.838 267.68 83.5847 267C83.3314 266.307 83.2047 265.547 83.2047 264.72C83.2047 263.893 83.3314 263.14 83.5847 262.46C83.8514 261.78 84.2114 261.2 84.6647 260.72C85.1314 260.24 85.678 259.867 86.3047 259.6C86.9447 259.333 87.638 259.2 88.3847 259.2C89.1447 259.2 89.838 259.333 90.4647 259.6C91.1047 259.867 91.6514 260.24 92.1047 260.72C92.558 261.2 92.9114 261.78 93.1647 262.46C93.418 263.14 93.5447 263.893 93.5447 264.72ZM90.5047 264.72C90.5047 263.8 90.318 263.08 89.9447 262.56C89.5847 262.027 89.0647 261.76 88.3847 261.76C87.7047 261.76 87.178 262.027 86.8047 262.56C86.4314 263.08 86.2447 263.8 86.2447 264.72C86.2447 265.64 86.4314 266.373 86.8047 266.92C87.178 267.453 87.7047 267.72 88.3847 267.72C89.0647 267.72 89.5847 267.453 89.9447 266.92C90.318 266.373 90.5047 265.64 90.5047 264.72ZM98.3931 264.66C98.3931 265.58 98.5998 266.32 99.0131 266.88C99.4265 267.44 100.04 267.72 100.853 267.72C101.12 267.72 101.366 267.713 101.593 267.7C101.82 267.673 102.006 267.647 102.153 267.62V262.2C101.966 262.08 101.72 261.98 101.413 261.9C101.12 261.82 100.82 261.78 100.513 261.78C99.0998 261.78 98.3931 262.74 98.3931 264.66ZM105.133 269.66C104.866 269.74 104.56 269.82 104.213 269.9C103.866 269.967 103.5 270.027 103.113 270.08C102.74 270.133 102.353 270.173 101.953 270.2C101.566 270.24 101.193 270.26 100.833 270.26C99.9665 270.26 99.1931 270.133 98.5131 269.88C97.8331 269.627 97.2598 269.267 96.7931 268.8C96.3265 268.32 95.9665 267.747 95.7131 267.08C95.4731 266.4 95.3531 265.64 95.3531 264.8C95.3531 263.947 95.4598 263.18 95.6731 262.5C95.8865 261.807 96.1931 261.22 96.5931 260.74C96.9931 260.26 97.4798 259.893 98.0531 259.64C98.6398 259.387 99.3065 259.26 100.053 259.26C100.466 259.26 100.833 259.3 101.153 259.38C101.486 259.46 101.82 259.573 102.153 259.72V254.96L105.133 254.48V269.66ZM117.763 264.72C117.763 265.547 117.643 266.307 117.403 267C117.163 267.68 116.817 268.267 116.363 268.76C115.91 269.24 115.363 269.613 114.723 269.88C114.097 270.147 113.39 270.28 112.603 270.28C111.83 270.28 111.123 270.147 110.483 269.88C109.857 269.613 109.317 269.24 108.863 268.76C108.41 268.267 108.057 267.68 107.803 267C107.55 266.307 107.423 265.547 107.423 264.72C107.423 263.893 107.55 263.14 107.803 262.46C108.07 261.78 108.43 261.2 108.883 260.72C109.35 260.24 109.897 259.867 110.523 259.6C111.163 259.333 111.857 259.2 112.603 259.2C113.363 259.2 114.057 259.333 114.683 259.6C115.323 259.867 115.87 260.24 116.323 260.72C116.777 261.2 117.13 261.78 117.383 262.46C117.637 263.14 117.763 263.893 117.763 264.72ZM114.723 264.72C114.723 263.8 114.537 263.08 114.163 262.56C113.803 262.027 113.283 261.76 112.603 261.76C111.923 261.76 111.397 262.027 111.023 262.56C110.65 263.08 110.463 263.8 110.463 264.72C110.463 265.64 110.65 266.373 111.023 266.92C111.397 267.453 111.923 267.72 112.603 267.72C113.283 267.72 113.803 267.453 114.163 266.92C114.537 266.373 114.723 265.64 114.723 264.72ZM120.072 259.84C120.579 259.693 121.232 259.56 122.032 259.44C122.832 259.307 123.672 259.24 124.552 259.24C125.445 259.24 126.185 259.36 126.772 259.6C127.372 259.827 127.845 260.153 128.192 260.58C128.539 261.007 128.785 261.513 128.932 262.1C129.079 262.687 129.152 263.34 129.152 264.06V270H126.172V264.42C126.172 263.46 126.045 262.78 125.792 262.38C125.539 261.98 125.065 261.78 124.372 261.78C124.159 261.78 123.932 261.793 123.692 261.82C123.452 261.833 123.239 261.853 123.052 261.88V270H120.072V259.84ZM131.749 256.86L134.729 256.38V259.48H138.309V261.96H134.729V265.66C134.729 266.287 134.836 266.787 135.049 267.16C135.276 267.533 135.723 267.72 136.389 267.72C136.709 267.72 137.036 267.693 137.369 267.64C137.716 267.573 138.029 267.487 138.309 267.38L138.729 269.7C138.369 269.847 137.969 269.973 137.529 270.08C137.089 270.187 136.549 270.24 135.909 270.24C135.096 270.24 134.423 270.133 133.889 269.92C133.356 269.693 132.929 269.387 132.609 269C132.289 268.6 132.063 268.12 131.929 267.56C131.809 267 131.749 266.38 131.749 265.7V256.86ZM143.716 270H140.736V259.48H143.716V270ZM143.996 256.44C143.996 256.987 143.816 257.42 143.456 257.74C143.109 258.047 142.696 258.2 142.216 258.2C141.736 258.2 141.316 258.047 140.956 257.74C140.609 257.42 140.436 256.987 140.436 256.44C140.436 255.893 140.609 255.467 140.956 255.16C141.316 254.84 141.736 254.68 142.216 254.68C142.696 254.68 143.109 254.84 143.456 255.16C143.816 255.467 143.996 255.893 143.996 256.44ZM150.537 267.92C150.831 267.92 151.111 267.913 151.377 267.9C151.644 267.887 151.857 267.867 152.017 267.84V265.58C151.897 265.553 151.717 265.527 151.477 265.5C151.237 265.473 151.017 265.46 150.817 265.46C150.537 265.46 150.271 265.48 150.017 265.52C149.777 265.547 149.564 265.607 149.377 265.7C149.191 265.793 149.044 265.92 148.937 266.08C148.831 266.24 148.777 266.44 148.777 266.68C148.777 267.147 148.931 267.473 149.237 267.66C149.557 267.833 149.991 267.92 150.537 267.92ZM150.297 259.2C151.177 259.2 151.911 259.3 152.497 259.5C153.084 259.7 153.551 259.987 153.897 260.36C154.257 260.733 154.511 261.187 154.657 261.72C154.804 262.253 154.877 262.847 154.877 263.5V269.7C154.451 269.793 153.857 269.9 153.097 270.02C152.337 270.153 151.417 270.22 150.337 270.22C149.657 270.22 149.037 270.16 148.477 270.04C147.931 269.92 147.457 269.727 147.057 269.46C146.657 269.18 146.351 268.82 146.137 268.38C145.924 267.94 145.817 267.4 145.817 266.76C145.817 266.147 145.937 265.627 146.177 265.2C146.431 264.773 146.764 264.433 147.177 264.18C147.591 263.927 148.064 263.747 148.597 263.64C149.131 263.52 149.684 263.46 150.257 263.46C150.644 263.46 150.984 263.48 151.277 263.52C151.584 263.547 151.831 263.587 152.017 263.64V263.36C152.017 262.853 151.864 262.447 151.557 262.14C151.251 261.833 150.717 261.68 149.957 261.68C149.451 261.68 148.951 261.72 148.457 261.8C147.964 261.867 147.537 261.967 147.177 262.1L146.797 259.7C146.971 259.647 147.184 259.593 147.437 259.54C147.704 259.473 147.991 259.42 148.297 259.38C148.604 259.327 148.924 259.287 149.257 259.26C149.604 259.22 149.951 259.2 150.297 259.2Z" fill="white"/>
<circle cx="100.944" cy="100.943" r="91.8519" fill="#00ACE2"/>
<path d="M181.536 31.543C171.355 31.543 163.072 39.8258 163.072 50.0074V97.9031L159.496 101.602C158.558 99.4328 157.199 97.409 155.419 95.6578C148.003 88.3594 136.002 88.4266 128.667 95.807L100 124.653L71.3324 95.8066C63.9977 88.4254 51.9969 88.359 44.5805 95.6574C42.8012 97.4082 41.4418 99.4324 40.5039 101.602L36.9277 97.9027V50.0074C36.9277 39.8262 28.6445 31.543 18.4637 31.543C8.28281 31.543 0 39.8258 0 50.0074V108.439C0 114.46 1.62969 120.376 4.7125 125.548L4.80234 125.699L39.5281 176.732L35.5434 199.999H164.457L160.471 176.731L195.099 125.844L195.288 125.548C198.37 120.376 200 114.46 200 108.439V50.0074C200 39.8258 191.717 31.543 181.536 31.543ZM94.1406 188.28H49.4398L51.8777 174.048L14.6945 119.405C12.7473 116.081 11.7188 112.293 11.7188 108.439V50.0074C11.7188 46.2883 14.7445 43.2617 18.4641 43.2617C22.1836 43.2617 25.2094 46.2879 25.2094 50.0074V102.642L64.6344 143.47L64.6602 143.445L65.1953 143.998L73.6199 135.852L52.357 113.861C49.9301 111.001 50.091 106.676 52.8 104.011C55.6332 101.222 60.218 101.248 63.0203 104.068L94.1406 135.382V188.28ZM188.281 108.439C188.281 112.293 187.253 116.08 185.305 119.404L148.122 174.048L150.56 188.28H105.859V135.382L136.98 104.067C139.782 101.247 144.366 101.222 147.2 104.01C149.909 106.676 150.07 111.001 147.643 113.861L126.38 135.852L134.805 143.998L135.34 143.444L135.366 143.469L174.791 102.641V50.0074C174.791 46.2883 177.817 43.2617 181.536 43.2617C185.255 43.2617 188.281 46.2879 188.281 50.0074V108.439Z" fill="white"/>
<path d="M66.6172 48.4375V53.652C66.6172 64.6168 72.5118 74.8426 82.0008 80.3375L91.1383 85.6293H108.862L117.999 80.3375C127.488 74.8426 133.383 64.6172 133.383 53.652V48.4379C139.495 43.0906 142.972 35.3187 142.809 27.0824C142.515 12.2652 130.216 0.116797 115.393 0.00078125C115.318 0.000390625 115.246 0 115.172 0C109.708 0 104.472 1.58164 100 4.5293C95.5278 1.58125 90.293 0 84.829 0C84.7555 0 84.6817 0.000390625 84.6079 0.00078125C69.7844 0.116406 57.4852 12.2648 57.1911 27.082C57.0274 35.3184 60.5044 43.0902 66.6172 48.4375ZM84.6993 11.7195C84.7418 11.7191 84.784 11.7188 84.8266 11.7188C88.9926 11.7188 92.927 13.3141 95.9176 16.2188L100 20.1832L104.082 16.2188C107.073 13.3141 111.007 11.7188 115.174 11.7188C115.216 11.7188 115.259 11.7191 115.301 11.7195C123.839 11.7859 130.923 18.7824 131.093 27.3152C131.199 32.6832 128.622 37.7098 124.197 40.7609L121.664 42.5078V53.652C121.664 60.45 118.01 66.7898 112.127 70.1965L105.859 73.8262V49.9723H94.1407V73.8262L87.8735 70.1965C81.9903 66.7895 78.3356 60.45 78.3356 53.652V42.5078L75.8028 40.7609C71.3782 37.7098 68.8004 32.6832 68.9075 27.3148C69.077 18.782 76.161 11.7859 84.6993 11.7195Z" fill="white"/>
<mask id="mask0" mask-type="alpha" maskUnits="userSpaceOnUse" x="9" y="9" width="184" height="184">
<circle cx="100.944" cy="100.943" r="91.8519" fill="#E5F2FF"/>
</mask>
<g mask="url(#mask0)">
</g>
</svg>
