<svg width="220" height="303" viewBox="0 0 220 303" fill="none" xmlns="http://www.w3.org/2000/svg">
<circle cx="110.856" cy="100.979" r="92.0688" fill="#00ACE2"/>
<g clip-path="url(#clip0)">
<path d="M112.51 152.859C92.659 138.649 76.9622 122.902 62.7338 102.811L82.7497 89.0974L54.868 41.3643L30.4663 58.4322C16.1521 68.4449 11.589 87.5348 19.8526 102.837C42.6462 144.642 71.6395 173.553 113.398 196.399C128.192 204.52 147.826 200.252 157.815 185.792C163.554 177.59 172.746 164.485 174.819 161.344L127.431 133.663L112.51 152.859ZM67.0944 85.5841L56.2399 93.0207C50.7837 84.3241 45.7449 75.0225 41.2018 65.2581L51.1553 58.296L67.0944 85.5841ZM118.982 186.065C79.2668 164.358 51.9678 137.1 30.1887 97.2549C25.9506 89.4072 26.8586 80.0359 31.9448 73.1662C56.8206 125.496 94.3035 161.011 143.081 184.313C136.209 189.401 126.834 190.307 118.982 186.065ZM157.955 165.097C156.494 167.187 152.673 172.648 150.989 175.056C140.882 170.359 131.266 165.121 122.287 159.422L130.391 148.996L157.955 165.097Z" fill="white"/>
<path d="M185.885 0H115.015C104.76 0 96.416 8.34349 96.416 18.5985V74.7856C96.416 85.0406 104.76 93.3841 115.015 93.3841H122.845V123.935L168.673 93.3841H185.884C196.139 93.3841 204.483 85.0406 204.483 74.7856V18.5985C204.483 8.34349 196.14 0 185.885 0ZM192.737 74.7856C192.737 78.5636 189.663 81.6377 185.885 81.6377H165.116L134.592 101.988V81.6377H115.015C111.236 81.6377 108.162 78.5636 108.162 74.7856V18.5985C108.162 14.8205 111.236 11.7464 115.015 11.7464H185.885C189.663 11.7464 192.737 14.8205 192.737 18.5985V74.7856Z" fill="white"/>
<path d="M169.068 40.8188H156.323V28.0728H144.576V40.8188H131.831V52.5652H144.576V65.3113H156.323V52.5652H169.068V40.8188Z" fill="white"/>
</g>
<path d="M23.0067 259.626C23.0067 260.306 23.0867 260.92 23.2467 261.466C23.42 262.013 23.66 262.486 23.9667 262.886C24.2867 263.273 24.6734 263.573 25.1267 263.786C25.58 264 26.1 264.106 26.6867 264.106C27.26 264.106 27.7734 264 28.2267 263.786C28.6934 263.573 29.08 263.273 29.3867 262.886C29.7067 262.486 29.9467 262.013 30.1067 261.466C30.28 260.92 30.3667 260.306 30.3667 259.626C30.3667 258.946 30.28 258.333 30.1067 257.786C29.9467 257.226 29.7067 256.753 29.3867 256.366C29.08 255.966 28.6934 255.66 28.2267 255.446C27.7734 255.233 27.26 255.126 26.6867 255.126C26.1 255.126 25.58 255.24 25.1267 255.466C24.6734 255.68 24.2867 255.986 23.9667 256.386C23.66 256.773 23.42 257.246 23.2467 257.806C23.0867 258.353 23.0067 258.96 23.0067 259.626ZM33.5867 259.626C33.5867 260.813 33.4067 261.86 33.0467 262.766C32.7 263.66 32.22 264.413 31.6067 265.026C30.9934 265.626 30.26 266.08 29.4067 266.386C28.5667 266.693 27.66 266.846 26.6867 266.846C25.74 266.846 24.8467 266.693 24.0067 266.386C23.1667 266.08 22.4334 265.626 21.8067 265.026C21.18 264.413 20.6867 263.66 20.3267 262.766C19.9667 261.86 19.7867 260.813 19.7867 259.626C19.7867 258.44 19.9734 257.4 20.3467 256.506C20.72 255.6 21.22 254.84 21.8467 254.226C22.4867 253.613 23.22 253.153 24.0467 252.846C24.8867 252.54 25.7667 252.386 26.6867 252.386C27.6334 252.386 28.5267 252.54 29.3667 252.846C30.2067 253.153 30.94 253.613 31.5667 254.226C32.1934 254.84 32.6867 255.6 33.0467 256.506C33.4067 257.4 33.5867 258.44 33.5867 259.626ZM42.3275 258.686C42.0608 258.62 41.7475 258.553 41.3875 258.486C41.0275 258.406 40.6408 258.366 40.2275 258.366C40.0408 258.366 39.8142 258.386 39.5475 258.426C39.2942 258.453 39.1008 258.486 38.9675 258.526V266.566H35.9875V256.606C36.5208 256.42 37.1475 256.246 37.8675 256.086C38.6008 255.913 39.4142 255.826 40.3075 255.826C40.4675 255.826 40.6608 255.84 40.8875 255.866C41.1142 255.88 41.3408 255.906 41.5675 255.946C41.7942 255.973 42.0208 256.013 42.2475 256.066C42.4742 256.106 42.6675 256.16 42.8275 256.226L42.3275 258.686ZM47.405 266.566H44.425V256.046H47.405V266.566ZM47.685 253.006C47.685 253.553 47.505 253.986 47.145 254.306C46.7983 254.613 46.385 254.766 45.905 254.766C45.425 254.766 45.005 254.613 44.645 254.306C44.2983 253.986 44.125 253.553 44.125 253.006C44.125 252.46 44.2983 252.033 44.645 251.726C45.005 251.406 45.425 251.246 45.905 251.246C46.385 251.246 46.7983 251.406 47.145 251.726C47.505 252.033 47.685 252.46 47.685 253.006ZM49.7062 261.386C49.7062 260.453 49.8462 259.64 50.1262 258.946C50.4196 258.24 50.7996 257.653 51.2662 257.186C51.7329 256.72 52.2662 256.366 52.8662 256.126C53.4796 255.886 54.1062 255.766 54.7462 255.766C56.2396 255.766 57.4196 256.226 58.2862 257.146C59.1529 258.053 59.5862 259.393 59.5862 261.166C59.5862 261.34 59.5796 261.533 59.5662 261.746C59.5529 261.946 59.5396 262.126 59.5262 262.286H52.7662C52.8329 262.9 53.1196 263.386 53.6262 263.746C54.1329 264.106 54.8129 264.286 55.6662 264.286C56.2129 264.286 56.7462 264.24 57.2662 264.146C57.7996 264.04 58.2329 263.913 58.5662 263.766L58.9662 266.186C58.8062 266.266 58.5929 266.346 58.3262 266.426C58.0596 266.506 57.7596 266.573 57.4262 266.626C57.1062 266.693 56.7596 266.746 56.3862 266.786C56.0129 266.826 55.6396 266.846 55.2662 266.846C54.3196 266.846 53.4929 266.706 52.7862 266.426C52.0929 266.146 51.5129 265.766 51.0462 265.286C50.5929 264.793 50.2529 264.213 50.0262 263.546C49.8129 262.88 49.7062 262.16 49.7062 261.386ZM56.7062 260.246C56.6929 259.993 56.6462 259.746 56.5662 259.506C56.4996 259.266 56.3862 259.053 56.2262 258.866C56.0796 258.68 55.8862 258.526 55.6462 258.406C55.4196 258.286 55.1329 258.226 54.7862 258.226C54.4529 258.226 54.1662 258.286 53.9262 258.406C53.6862 258.513 53.4862 258.66 53.3262 258.846C53.1662 259.033 53.0396 259.253 52.9462 259.506C52.8662 259.746 52.8062 259.993 52.7662 260.246H56.7062ZM61.8859 256.406C62.3926 256.26 63.0459 256.126 63.8459 256.006C64.6459 255.873 65.4859 255.806 66.3659 255.806C67.2593 255.806 67.9993 255.926 68.5859 256.166C69.1859 256.393 69.6593 256.72 70.0059 257.146C70.3526 257.573 70.5993 258.08 70.7459 258.666C70.8926 259.253 70.9659 259.906 70.9659 260.626V266.566H67.9859V260.986C67.9859 260.026 67.8593 259.346 67.6059 258.946C67.3526 258.546 66.8793 258.346 66.1859 258.346C65.9726 258.346 65.7459 258.36 65.5059 258.386C65.2659 258.4 65.0526 258.42 64.8659 258.446V266.566H61.8859V256.406ZM73.5633 253.426L76.5433 252.946V256.046H80.1233V258.526H76.5433V262.226C76.5433 262.853 76.6499 263.353 76.8633 263.726C77.0899 264.1 77.5366 264.286 78.2033 264.286C78.5233 264.286 78.8499 264.26 79.1833 264.206C79.5299 264.14 79.8433 264.053 80.1233 263.946L80.5433 266.266C80.1833 266.413 79.7833 266.54 79.3433 266.646C78.9033 266.753 78.3633 266.806 77.7233 266.806C76.9099 266.806 76.2366 266.7 75.7033 266.486C75.1699 266.26 74.7433 265.953 74.4233 265.566C74.1033 265.166 73.8766 264.686 73.7433 264.126C73.6233 263.566 73.5633 262.946 73.5633 262.266V253.426ZM86.1794 264.486C86.4727 264.486 86.7527 264.48 87.0194 264.466C87.286 264.453 87.4994 264.433 87.6594 264.406V262.146C87.5394 262.12 87.3594 262.093 87.1194 262.066C86.8794 262.04 86.6594 262.026 86.4594 262.026C86.1794 262.026 85.9127 262.046 85.6594 262.086C85.4194 262.113 85.206 262.173 85.0194 262.266C84.8327 262.36 84.686 262.486 84.5794 262.646C84.4727 262.806 84.4194 263.006 84.4194 263.246C84.4194 263.713 84.5727 264.04 84.8794 264.226C85.1994 264.4 85.6327 264.486 86.1794 264.486ZM85.9394 255.766C86.8194 255.766 87.5527 255.866 88.1394 256.066C88.726 256.266 89.1927 256.553 89.5394 256.926C89.8994 257.3 90.1527 257.753 90.2994 258.286C90.446 258.82 90.5194 259.413 90.5194 260.066V266.266C90.0927 266.36 89.4994 266.466 88.7394 266.586C87.9794 266.72 87.0594 266.786 85.9794 266.786C85.2994 266.786 84.6794 266.726 84.1194 266.606C83.5727 266.486 83.0994 266.293 82.6994 266.026C82.2994 265.746 81.9927 265.386 81.7794 264.946C81.566 264.506 81.4594 263.966 81.4594 263.326C81.4594 262.713 81.5794 262.193 81.8194 261.766C82.0727 261.34 82.406 261 82.8194 260.746C83.2327 260.493 83.706 260.313 84.2394 260.206C84.7727 260.086 85.326 260.026 85.8994 260.026C86.286 260.026 86.626 260.046 86.9194 260.086C87.226 260.113 87.4727 260.153 87.6594 260.206V259.926C87.6594 259.42 87.506 259.013 87.1994 258.706C86.8927 258.4 86.3594 258.246 85.5994 258.246C85.0927 258.246 84.5927 258.286 84.0994 258.366C83.606 258.433 83.1794 258.533 82.8194 258.666L82.4394 256.266C82.6127 256.213 82.826 256.16 83.0794 256.106C83.346 256.04 83.6327 255.986 83.9394 255.946C84.246 255.893 84.566 255.853 84.8994 255.826C85.246 255.786 85.5927 255.766 85.9394 255.766ZM98.374 267.366C98.8007 267.58 99.094 267.833 99.254 268.126C99.414 268.42 99.494 268.72 99.494 269.026C99.494 269.666 99.2407 270.153 98.734 270.486C98.2274 270.82 97.5607 270.986 96.734 270.986C96.4407 270.986 96.1474 270.96 95.854 270.906C95.5607 270.866 95.2674 270.806 94.974 270.726L95.334 268.986C95.4274 269.013 95.594 269.053 95.834 269.106C96.0874 269.173 96.334 269.206 96.574 269.206C96.7607 269.206 96.9207 269.166 97.054 269.086C97.2007 269.02 97.2807 268.893 97.294 268.706C97.3074 268.546 97.2407 268.4 97.094 268.266C96.9607 268.133 96.7407 268.033 96.434 267.966L96.194 267.906C96.2474 267.733 96.3207 267.533 96.414 267.306C96.5074 267.093 96.6007 266.893 96.694 266.706C96.0007 266.573 95.4007 266.346 94.894 266.026C94.4007 265.693 93.9874 265.293 93.654 264.826C93.334 264.346 93.094 263.806 92.934 263.206C92.7874 262.606 92.714 261.973 92.714 261.306C92.714 260.546 92.834 259.833 93.074 259.166C93.3274 258.486 93.6874 257.9 94.154 257.406C94.6207 256.9 95.1874 256.5 95.854 256.206C96.5207 255.913 97.2807 255.766 98.134 255.766C98.694 255.766 99.2074 255.82 99.674 255.926C100.141 256.02 100.594 256.16 101.034 256.346L100.414 258.726C100.134 258.62 99.8274 258.526 99.494 258.446C99.1607 258.366 98.7874 258.326 98.374 258.326C97.494 258.326 96.834 258.6 96.394 259.146C95.9674 259.693 95.754 260.413 95.754 261.306C95.754 262.253 95.954 262.986 96.354 263.506C96.7674 264.026 97.4807 264.286 98.494 264.286C98.854 264.286 99.2407 264.253 99.654 264.186C100.067 264.12 100.447 264.013 100.794 263.866L101.214 266.306C100.907 266.44 100.527 266.553 100.074 266.646C99.634 266.74 99.1474 266.8 98.614 266.826C98.5607 266.933 98.514 267.033 98.474 267.126C98.434 267.22 98.4007 267.3 98.374 267.366ZM106.726 264.486C107.02 264.486 107.3 264.48 107.566 264.466C107.833 264.453 108.046 264.433 108.206 264.406V262.146C108.086 262.12 107.906 262.093 107.666 262.066C107.426 262.04 107.206 262.026 107.006 262.026C106.726 262.026 106.46 262.046 106.206 262.086C105.966 262.113 105.753 262.173 105.566 262.266C105.38 262.36 105.233 262.486 105.126 262.646C105.02 262.806 104.966 263.006 104.966 263.246C104.966 263.713 105.12 264.04 105.426 264.226C105.746 264.4 106.18 264.486 106.726 264.486ZM106.486 255.766C107.366 255.766 108.1 255.866 108.686 256.066C109.273 256.266 109.74 256.553 110.086 256.926C110.446 257.3 110.7 257.753 110.846 258.286C110.993 258.82 111.066 259.413 111.066 260.066V266.266C110.64 266.36 110.046 266.466 109.286 266.586C108.526 266.72 107.606 266.786 106.526 266.786C105.846 266.786 105.226 266.726 104.666 266.606C104.12 266.486 103.646 266.293 103.246 266.026C102.846 265.746 102.54 265.386 102.326 264.946C102.113 264.506 102.006 263.966 102.006 263.326C102.006 262.713 102.126 262.193 102.366 261.766C102.62 261.34 102.953 261 103.366 260.746C103.78 260.493 104.253 260.313 104.786 260.206C105.32 260.086 105.873 260.026 106.446 260.026C106.833 260.026 107.173 260.046 107.466 260.086C107.773 260.113 108.02 260.153 108.206 260.206V259.926C108.206 259.42 108.053 259.013 107.746 258.706C107.44 258.4 106.906 258.246 106.146 258.246C105.64 258.246 105.14 258.286 104.646 258.366C104.153 258.433 103.726 258.533 103.366 258.666L102.986 256.266C103.16 256.213 103.373 256.16 103.626 256.106C103.893 256.04 104.18 255.986 104.486 255.946C104.793 255.893 105.113 255.853 105.446 255.826C105.793 255.786 106.14 255.766 106.486 255.766ZM110.406 252.386C110.326 252.586 110.213 252.806 110.066 253.046C109.933 253.286 109.766 253.513 109.566 253.726C109.366 253.926 109.14 254.093 108.886 254.226C108.633 254.36 108.353 254.426 108.046 254.426C107.806 254.426 107.58 254.393 107.366 254.326C107.166 254.246 106.966 254.166 106.766 254.086C106.566 253.993 106.366 253.913 106.166 253.846C105.966 253.766 105.76 253.726 105.546 253.726C105.28 253.726 105.06 253.813 104.886 253.986C104.713 254.16 104.573 254.36 104.466 254.586L103.006 253.626C103.086 253.426 103.193 253.206 103.326 252.966C103.473 252.726 103.646 252.506 103.846 252.306C104.046 252.093 104.273 251.92 104.526 251.786C104.78 251.653 105.06 251.586 105.366 251.586C105.606 251.586 105.826 251.626 106.026 251.706C106.24 251.773 106.446 251.853 106.646 251.946C106.846 252.026 107.04 252.106 107.226 252.186C107.426 252.253 107.64 252.286 107.866 252.286C108.133 252.286 108.353 252.2 108.526 252.026C108.7 251.853 108.84 251.653 108.946 251.426L110.406 252.386ZM123.601 261.286C123.601 262.113 123.481 262.873 123.241 263.566C123.001 264.246 122.654 264.833 122.201 265.326C121.748 265.806 121.201 266.18 120.561 266.446C119.934 266.713 119.228 266.846 118.441 266.846C117.668 266.846 116.961 266.713 116.321 266.446C115.694 266.18 115.154 265.806 114.701 265.326C114.248 264.833 113.894 264.246 113.641 263.566C113.388 262.873 113.261 262.113 113.261 261.286C113.261 260.46 113.388 259.706 113.641 259.026C113.908 258.346 114.268 257.766 114.721 257.286C115.188 256.806 115.734 256.433 116.361 256.166C117.001 255.9 117.694 255.766 118.441 255.766C119.201 255.766 119.894 255.9 120.521 256.166C121.161 256.433 121.708 256.806 122.161 257.286C122.614 257.766 122.968 258.346 123.221 259.026C123.474 259.706 123.601 260.46 123.601 261.286ZM120.561 261.286C120.561 260.366 120.374 259.646 120.001 259.126C119.641 258.593 119.121 258.326 118.441 258.326C117.761 258.326 117.234 258.593 116.861 259.126C116.488 259.646 116.301 260.366 116.301 261.286C116.301 262.206 116.488 262.94 116.861 263.486C117.234 264.02 117.761 264.286 118.441 264.286C119.121 264.286 119.641 264.02 120.001 263.486C120.374 262.94 120.561 262.206 120.561 261.286ZM136.494 260.986C136.494 260.026 136.367 259.346 136.114 258.946C135.874 258.546 135.454 258.346 134.854 258.346C134.667 258.346 134.474 258.36 134.274 258.386C134.074 258.4 133.881 258.42 133.694 258.446V266.566H130.714V256.406C130.967 256.34 131.261 256.273 131.594 256.206C131.941 256.126 132.301 256.06 132.674 256.006C133.061 255.94 133.454 255.893 133.854 255.866C134.254 255.826 134.647 255.806 135.034 255.806C135.794 255.806 136.407 255.906 136.874 256.106C137.354 256.293 137.747 256.52 138.054 256.786C138.481 256.48 138.967 256.24 139.514 256.066C140.074 255.893 140.587 255.806 141.054 255.806C141.894 255.806 142.581 255.926 143.114 256.166C143.661 256.393 144.094 256.72 144.414 257.146C144.734 257.573 144.954 258.08 145.074 258.666C145.194 259.253 145.254 259.906 145.254 260.626V266.566H142.274V260.986C142.274 260.026 142.147 259.346 141.894 258.946C141.654 258.546 141.234 258.346 140.634 258.346C140.474 258.346 140.247 258.386 139.954 258.466C139.674 258.546 139.441 258.646 139.254 258.766C139.347 259.073 139.407 259.4 139.434 259.746C139.461 260.08 139.474 260.44 139.474 260.826V266.566H136.494V260.986ZM147.46 261.386C147.46 260.453 147.6 259.64 147.88 258.946C148.173 258.24 148.553 257.653 149.02 257.186C149.487 256.72 150.02 256.366 150.62 256.126C151.233 255.886 151.86 255.766 152.5 255.766C153.993 255.766 155.173 256.226 156.04 257.146C156.907 258.053 157.34 259.393 157.34 261.166C157.34 261.34 157.333 261.533 157.32 261.746C157.307 261.946 157.293 262.126 157.28 262.286H150.52C150.587 262.9 150.873 263.386 151.38 263.746C151.887 264.106 152.567 264.286 153.42 264.286C153.967 264.286 154.5 264.24 155.02 264.146C155.553 264.04 155.987 263.913 156.32 263.766L156.72 266.186C156.56 266.266 156.347 266.346 156.08 266.426C155.813 266.506 155.513 266.573 155.18 266.626C154.86 266.693 154.513 266.746 154.14 266.786C153.767 266.826 153.393 266.846 153.02 266.846C152.073 266.846 151.247 266.706 150.54 266.426C149.847 266.146 149.267 265.766 148.8 265.286C148.347 264.793 148.007 264.213 147.78 263.546C147.567 262.88 147.46 262.16 147.46 261.386ZM154.46 260.246C154.447 259.993 154.4 259.746 154.32 259.506C154.253 259.266 154.14 259.053 153.98 258.866C153.833 258.68 153.64 258.526 153.4 258.406C153.173 258.286 152.887 258.226 152.54 258.226C152.207 258.226 151.92 258.286 151.68 258.406C151.44 258.513 151.24 258.66 151.08 258.846C150.92 259.033 150.793 259.253 150.7 259.506C150.62 259.746 150.56 259.993 150.52 260.246H154.46ZM154.92 252.266L151.62 255.046L150.26 253.826L153.1 250.586L154.92 252.266ZM162.18 261.226C162.18 262.146 162.387 262.886 162.8 263.446C163.213 264.006 163.827 264.286 164.64 264.286C164.907 264.286 165.153 264.28 165.38 264.266C165.607 264.24 165.793 264.213 165.94 264.186V258.766C165.753 258.646 165.507 258.546 165.2 258.466C164.907 258.386 164.607 258.346 164.3 258.346C162.887 258.346 162.18 259.306 162.18 261.226ZM168.92 266.226C168.653 266.306 168.347 266.386 168 266.466C167.653 266.533 167.287 266.593 166.9 266.646C166.527 266.7 166.14 266.74 165.74 266.766C165.353 266.806 164.98 266.826 164.62 266.826C163.753 266.826 162.98 266.7 162.3 266.446C161.62 266.193 161.047 265.833 160.58 265.366C160.113 264.886 159.753 264.313 159.5 263.646C159.26 262.966 159.14 262.206 159.14 261.366C159.14 260.513 159.247 259.746 159.46 259.066C159.673 258.373 159.98 257.786 160.38 257.306C160.78 256.826 161.267 256.46 161.84 256.206C162.427 255.953 163.093 255.826 163.84 255.826C164.253 255.826 164.62 255.866 164.94 255.946C165.273 256.026 165.607 256.14 165.94 256.286V251.526L168.92 251.046V266.226ZM174.69 266.566H171.71V256.046H174.69V266.566ZM174.97 253.006C174.97 253.553 174.79 253.986 174.43 254.306C174.083 254.613 173.67 254.766 173.19 254.766C172.71 254.766 172.29 254.613 171.93 254.306C171.583 253.986 171.41 253.553 171.41 253.006C171.41 252.46 171.583 252.033 171.93 251.726C172.29 251.406 172.71 251.246 173.19 251.246C173.67 251.246 174.083 251.406 174.43 251.726C174.79 252.033 174.97 252.46 174.97 253.006ZM176.991 261.306C176.991 260.546 177.111 259.833 177.351 259.166C177.605 258.486 177.965 257.9 178.431 257.406C178.898 256.9 179.465 256.5 180.131 256.206C180.798 255.913 181.558 255.766 182.411 255.766C182.971 255.766 183.485 255.82 183.951 255.926C184.418 256.02 184.871 256.16 185.311 256.346L184.691 258.726C184.411 258.62 184.105 258.526 183.771 258.446C183.438 258.366 183.065 258.326 182.651 258.326C181.771 258.326 181.111 258.6 180.671 259.146C180.245 259.693 180.031 260.413 180.031 261.306C180.031 262.253 180.231 262.986 180.631 263.506C181.045 264.026 181.758 264.286 182.771 264.286C183.131 264.286 183.518 264.253 183.931 264.186C184.345 264.12 184.725 264.013 185.071 263.866L185.491 266.306C185.145 266.453 184.711 266.58 184.191 266.686C183.671 266.793 183.098 266.846 182.471 266.846C181.511 266.846 180.685 266.706 179.991 266.426C179.298 266.133 178.725 265.74 178.271 265.246C177.831 264.753 177.505 264.173 177.291 263.506C177.091 262.826 176.991 262.093 176.991 261.306ZM191.004 264.486C191.297 264.486 191.577 264.48 191.844 264.466C192.11 264.453 192.324 264.433 192.484 264.406V262.146C192.364 262.12 192.184 262.093 191.944 262.066C191.704 262.04 191.484 262.026 191.284 262.026C191.004 262.026 190.737 262.046 190.484 262.086C190.244 262.113 190.03 262.173 189.844 262.266C189.657 262.36 189.51 262.486 189.404 262.646C189.297 262.806 189.244 263.006 189.244 263.246C189.244 263.713 189.397 264.04 189.704 264.226C190.024 264.4 190.457 264.486 191.004 264.486ZM190.764 255.766C191.644 255.766 192.377 255.866 192.964 256.066C193.55 256.266 194.017 256.553 194.364 256.926C194.724 257.3 194.977 257.753 195.124 258.286C195.27 258.82 195.344 259.413 195.344 260.066V266.266C194.917 266.36 194.324 266.466 193.564 266.586C192.804 266.72 191.884 266.786 190.804 266.786C190.124 266.786 189.504 266.726 188.944 266.606C188.397 266.486 187.924 266.293 187.524 266.026C187.124 265.746 186.817 265.386 186.604 264.946C186.39 264.506 186.284 263.966 186.284 263.326C186.284 262.713 186.404 262.193 186.644 261.766C186.897 261.34 187.23 261 187.644 260.746C188.057 260.493 188.53 260.313 189.064 260.206C189.597 260.086 190.15 260.026 190.724 260.026C191.11 260.026 191.45 260.046 191.744 260.086C192.05 260.113 192.297 260.153 192.484 260.206V259.926C192.484 259.42 192.33 259.013 192.024 258.706C191.717 258.4 191.184 258.246 190.424 258.246C189.917 258.246 189.417 258.286 188.924 258.366C188.43 258.433 188.004 258.533 187.644 258.666L187.264 256.266C187.437 256.213 187.65 256.16 187.904 256.106C188.17 256.04 188.457 255.986 188.764 255.946C189.07 255.893 189.39 255.853 189.724 255.826C190.07 255.786 190.417 255.766 190.764 255.766ZM62.0598 287.386C62.0598 286.173 61.7598 285.24 61.1598 284.586C60.5598 283.933 59.7598 283.606 58.7598 283.606C58.1998 283.606 57.7598 283.626 57.4398 283.666C57.1332 283.706 56.8865 283.753 56.6998 283.806V290.366C56.9265 290.553 57.2532 290.733 57.6798 290.906C58.1065 291.08 58.5732 291.166 59.0798 291.166C59.6132 291.166 60.0665 291.073 60.4398 290.886C60.8265 290.686 61.1398 290.42 61.3798 290.086C61.6198 289.74 61.7932 289.34 61.8998 288.886C62.0065 288.42 62.0598 287.92 62.0598 287.386ZM63.9998 287.386C63.9998 288.173 63.8932 288.9 63.6798 289.566C63.4798 290.233 63.1798 290.806 62.7798 291.286C62.3798 291.766 61.8865 292.14 61.2998 292.406C60.7265 292.673 60.0665 292.806 59.3198 292.806C58.7198 292.806 58.1865 292.726 57.7198 292.566C57.2665 292.406 56.9265 292.253 56.6998 292.106V296.266H54.8398V282.486C55.2798 282.38 55.8265 282.266 56.4798 282.146C57.1465 282.013 57.9132 281.946 58.7798 281.946C59.5798 281.946 60.2998 282.073 60.9398 282.326C61.5798 282.58 62.1265 282.94 62.5798 283.406C63.0332 283.873 63.3798 284.446 63.6198 285.126C63.8732 285.793 63.9998 286.546 63.9998 287.386ZM75.7972 287.366C75.7972 288.193 75.6772 288.94 75.4372 289.606C75.1972 290.273 74.8572 290.846 74.4172 291.326C73.9905 291.806 73.4772 292.18 72.8772 292.446C72.2772 292.7 71.6238 292.826 70.9172 292.826C70.2105 292.826 69.5572 292.7 68.9572 292.446C68.3572 292.18 67.8372 291.806 67.3972 291.326C66.9705 290.846 66.6372 290.273 66.3972 289.606C66.1572 288.94 66.0372 288.193 66.0372 287.366C66.0372 286.553 66.1572 285.813 66.3972 285.146C66.6372 284.466 66.9705 283.886 67.3972 283.406C67.8372 282.926 68.3572 282.56 68.9572 282.306C69.5572 282.04 70.2105 281.906 70.9172 281.906C71.6238 281.906 72.2772 282.04 72.8772 282.306C73.4772 282.56 73.9905 282.926 74.4172 283.406C74.8572 283.886 75.1972 284.466 75.4372 285.146C75.6772 285.813 75.7972 286.553 75.7972 287.366ZM73.8572 287.366C73.8572 286.193 73.5905 285.266 73.0572 284.586C72.5372 283.893 71.8238 283.546 70.9172 283.546C70.0105 283.546 69.2905 283.893 68.7572 284.586C68.2372 285.266 67.9772 286.193 67.9772 287.366C67.9772 288.54 68.2372 289.473 68.7572 290.166C69.2905 290.846 70.0105 291.186 70.9172 291.186C71.8238 291.186 72.5372 290.846 73.0572 290.166C73.5905 289.473 73.8572 288.54 73.8572 287.366ZM82.254 281.946C82.414 281.946 82.594 281.96 82.794 281.986C83.0074 282 83.214 282.026 83.414 282.066C83.614 282.093 83.794 282.126 83.954 282.166C84.1274 282.193 84.254 282.22 84.334 282.246L84.014 283.866C83.8674 283.813 83.6207 283.753 83.274 283.686C82.9407 283.606 82.5074 283.566 81.974 283.566C81.6274 283.566 81.2807 283.606 80.934 283.686C80.6007 283.753 80.3807 283.8 80.274 283.826V292.566H78.414V282.606C78.854 282.446 79.4007 282.3 80.054 282.166C80.7074 282.02 81.4407 281.946 82.254 281.946ZM92.4978 282.166H96.4378V283.726H92.4978V288.526C92.4978 289.046 92.5378 289.48 92.6178 289.826C92.6978 290.16 92.8178 290.426 92.9778 290.626C93.1378 290.813 93.3378 290.946 93.5778 291.026C93.8178 291.106 94.0978 291.146 94.4178 291.146C94.9778 291.146 95.4245 291.086 95.7578 290.966C96.1045 290.833 96.3445 290.74 96.4778 290.686L96.8378 292.226C96.6511 292.32 96.3245 292.433 95.8578 292.566C95.3911 292.713 94.8578 292.786 94.2578 292.786C93.5511 292.786 92.9645 292.7 92.4978 292.526C92.0445 292.34 91.6778 292.066 91.3978 291.706C91.1178 291.346 90.9178 290.906 90.7978 290.386C90.6911 289.853 90.6378 289.24 90.6378 288.546V279.266L92.4978 278.946V282.166ZM98.0294 287.386C98.0294 286.466 98.1627 285.666 98.4294 284.986C98.696 284.293 99.0494 283.72 99.4894 283.266C99.9294 282.813 100.436 282.473 101.009 282.246C101.583 282.02 102.169 281.906 102.769 281.906C104.169 281.906 105.243 282.346 105.989 283.226C106.736 284.093 107.109 285.42 107.109 287.206C107.109 287.286 107.109 287.393 107.109 287.526C107.109 287.646 107.103 287.76 107.089 287.866H99.9694C100.049 288.946 100.363 289.766 100.909 290.326C101.456 290.886 102.309 291.166 103.469 291.166C104.123 291.166 104.669 291.113 105.109 291.006C105.563 290.886 105.903 290.773 106.129 290.666L106.389 292.226C106.163 292.346 105.763 292.473 105.189 292.606C104.629 292.74 103.989 292.806 103.269 292.806C102.363 292.806 101.576 292.673 100.909 292.406C100.256 292.126 99.716 291.746 99.2894 291.266C98.8627 290.786 98.5427 290.22 98.3294 289.566C98.1294 288.9 98.0294 288.173 98.0294 287.386ZM105.169 286.366C105.183 285.526 104.969 284.84 104.529 284.306C104.103 283.76 103.509 283.486 102.749 283.486C102.323 283.486 101.943 283.573 101.609 283.746C101.289 283.906 101.016 284.12 100.789 284.386C100.563 284.653 100.383 284.96 100.249 285.306C100.129 285.653 100.049 286.006 100.009 286.366H105.169ZM112.901 292.766C111.755 292.74 110.941 292.493 110.461 292.026C109.981 291.56 109.741 290.833 109.741 289.846V277.366L111.601 277.046V289.546C111.601 289.853 111.628 290.106 111.681 290.306C111.735 290.506 111.821 290.666 111.941 290.786C112.061 290.906 112.221 291 112.421 291.066C112.621 291.12 112.868 291.166 113.161 291.206L112.901 292.766ZM114.67 287.386C114.67 286.466 114.803 285.666 115.07 284.986C115.337 284.293 115.69 283.72 116.13 283.266C116.57 282.813 117.077 282.473 117.65 282.246C118.223 282.02 118.81 281.906 119.41 281.906C120.81 281.906 121.883 282.346 122.63 283.226C123.377 284.093 123.75 285.42 123.75 287.206C123.75 287.286 123.75 287.393 123.75 287.526C123.75 287.646 123.743 287.76 123.73 287.866H116.61C116.69 288.946 117.003 289.766 117.55 290.326C118.097 290.886 118.95 291.166 120.11 291.166C120.763 291.166 121.31 291.113 121.75 291.006C122.203 290.886 122.543 290.773 122.77 290.666L123.03 292.226C122.803 292.346 122.403 292.473 121.83 292.606C121.27 292.74 120.63 292.806 119.91 292.806C119.003 292.806 118.217 292.673 117.55 292.406C116.897 292.126 116.357 291.746 115.93 291.266C115.503 290.786 115.183 290.22 114.97 289.566C114.77 288.9 114.67 288.173 114.67 287.386ZM121.81 286.366C121.823 285.526 121.61 284.84 121.17 284.306C120.743 283.76 120.15 283.486 119.39 283.486C118.963 283.486 118.583 283.573 118.25 283.746C117.93 283.906 117.657 284.12 117.43 284.386C117.203 284.653 117.023 284.96 116.89 285.306C116.77 285.653 116.69 286.006 116.65 286.366H121.81ZM130.482 277.046C131.029 277.046 131.495 277.086 131.882 277.166C132.282 277.246 132.562 277.32 132.722 277.386L132.382 278.986C132.222 278.906 131.995 278.833 131.702 278.766C131.409 278.686 131.049 278.646 130.622 278.646C129.755 278.646 129.149 278.886 128.802 279.366C128.455 279.833 128.282 280.466 128.282 281.266V282.166H132.282V283.726H128.282V292.566H126.422V281.226C126.422 279.893 126.749 278.866 127.402 278.146C128.055 277.413 129.082 277.046 130.482 277.046ZM143.317 287.366C143.317 288.193 143.197 288.94 142.957 289.606C142.717 290.273 142.377 290.846 141.937 291.326C141.51 291.806 140.997 292.18 140.397 292.446C139.797 292.7 139.143 292.826 138.437 292.826C137.73 292.826 137.077 292.7 136.477 292.446C135.877 292.18 135.357 291.806 134.917 291.326C134.49 290.846 134.157 290.273 133.917 289.606C133.677 288.94 133.557 288.193 133.557 287.366C133.557 286.553 133.677 285.813 133.917 285.146C134.157 284.466 134.49 283.886 134.917 283.406C135.357 282.926 135.877 282.56 136.477 282.306C137.077 282.04 137.73 281.906 138.437 281.906C139.143 281.906 139.797 282.04 140.397 282.306C140.997 282.56 141.51 282.926 141.937 283.406C142.377 283.886 142.717 284.466 142.957 285.146C143.197 285.813 143.317 286.553 143.317 287.366ZM141.377 287.366C141.377 286.193 141.11 285.266 140.577 284.586C140.057 283.893 139.343 283.546 138.437 283.546C137.53 283.546 136.81 283.893 136.277 284.586C135.757 285.266 135.497 286.193 135.497 287.366C135.497 288.54 135.757 289.473 136.277 290.166C136.81 290.846 137.53 291.186 138.437 291.186C139.343 291.186 140.057 290.846 140.577 290.166C141.11 289.473 141.377 288.54 141.377 287.366ZM145.934 282.466C146.36 282.36 146.927 282.246 147.634 282.126C148.34 282.006 149.154 281.946 150.074 281.946C150.9 281.946 151.587 282.066 152.134 282.306C152.68 282.533 153.114 282.86 153.434 283.286C153.767 283.7 154 284.2 154.134 284.786C154.267 285.373 154.334 286.02 154.334 286.726V292.566H152.474V287.126C152.474 286.486 152.427 285.94 152.334 285.486C152.254 285.033 152.114 284.666 151.914 284.386C151.714 284.106 151.447 283.906 151.114 283.786C150.78 283.653 150.367 283.586 149.874 283.586C149.674 283.586 149.467 283.593 149.254 283.606C149.04 283.62 148.834 283.64 148.634 283.666C148.447 283.68 148.274 283.7 148.114 283.726C147.967 283.753 147.86 283.773 147.794 283.786V292.566H145.934V282.466ZM156.838 287.386C156.838 286.466 156.971 285.666 157.238 284.986C157.505 284.293 157.858 283.72 158.298 283.266C158.738 282.813 159.245 282.473 159.818 282.246C160.391 282.02 160.978 281.906 161.578 281.906C162.978 281.906 164.051 282.346 164.798 283.226C165.545 284.093 165.918 285.42 165.918 287.206C165.918 287.286 165.918 287.393 165.918 287.526C165.918 287.646 165.911 287.76 165.898 287.866H158.778C158.858 288.946 159.171 289.766 159.718 290.326C160.265 290.886 161.118 291.166 162.278 291.166C162.931 291.166 163.478 291.113 163.918 291.006C164.371 290.886 164.711 290.773 164.938 290.666L165.198 292.226C164.971 292.346 164.571 292.473 163.998 292.606C163.438 292.74 162.798 292.806 162.078 292.806C161.171 292.806 160.385 292.673 159.718 292.406C159.065 292.126 158.525 291.746 158.098 291.266C157.671 290.786 157.351 290.22 157.138 289.566C156.938 288.9 156.838 288.173 156.838 287.386ZM163.978 286.366C163.991 285.526 163.778 284.84 163.338 284.306C162.911 283.76 162.318 283.486 161.558 283.486C161.131 283.486 160.751 283.573 160.418 283.746C160.098 283.906 159.825 284.12 159.598 284.386C159.371 284.653 159.191 284.96 159.058 285.306C158.938 285.653 158.858 286.006 158.818 286.366H163.978Z" fill="white"/>
<defs>
<clipPath id="clip0">
<rect width="200.472" height="200.472" fill="white" transform="translate(9.87891)"/>
</clipPath>
</defs>
</svg>
