<svg width="194" height="261" viewBox="0 0 194 261" fill="none" xmlns="http://www.w3.org/2000/svg">
<circle cx="97.4041" cy="98.0877" r="88.5984" fill="#00ACE2"/>
<g clip-path="url(#clip0)">
<path d="M133.775 119.926C149.068 112.032 159.522 96.0814 159.522 77.7342C159.522 51.5642 138.238 30.2805 112.068 30.2805C109.578 30.2805 107.135 30.4684 104.762 30.8443V0.915527H9.87842V69.1596H45.2573L64.6381 79.5666C65.3194 97.1385 75.5854 112.314 90.3618 119.926C61.4432 129.135 40.4179 156.268 40.4179 188.217V193.831H183.719V188.217C183.719 156.268 162.717 129.135 133.775 119.926ZM63.9099 66.4346L48.0763 57.9305H21.0841V12.1212H93.5567V57.9305H63.7924L63.9099 66.4346ZM75.8203 77.7342C75.8203 74.7742 76.1727 71.9082 76.854 69.1596H104.786V42.2144C107.135 41.721 109.602 41.4861 112.092 41.4861C132.084 41.4861 148.34 57.7425 148.34 77.7342C148.34 97.7258 132.06 113.982 112.068 113.982C92.0767 113.982 75.8203 97.7258 75.8203 77.7342ZM89.9155 182.602H51.9055C54.0198 159.792 68.8667 140.599 89.2577 132.259L97.3859 146.894L89.9155 182.602ZM101.356 182.602L107.816 151.593H116.297L122.757 182.602H101.356ZM117.566 140.387H106.571L100.228 128.947C104.058 128.171 108.028 127.772 112.092 127.772C116.156 127.772 120.103 128.171 123.955 128.947L117.566 140.387ZM134.221 182.602L126.774 146.894L134.903 132.259C155.294 140.599 170.14 159.792 172.255 182.602H134.221Z" fill="white"/>
<path d="M79.0378 29.5396H38.1396V41.0422H79.0378V29.5396Z" fill="white"/>
<path d="M155.624 160.433H143.35V171.936H155.624V160.433Z" fill="white"/>
</g>
<path d="M64.6954 239.125V241.785H60.5154V252.985H57.3954V241.785H53.2154V239.125H64.6954ZM64.4966 247.805C64.4966 246.872 64.6366 246.059 64.9166 245.365C65.21 244.659 65.59 244.072 66.0566 243.605C66.5233 243.139 67.0566 242.785 67.6566 242.545C68.27 242.305 68.8966 242.185 69.5366 242.185C71.03 242.185 72.21 242.645 73.0766 243.565C73.9433 244.472 74.3766 245.812 74.3766 247.585C74.3766 247.759 74.37 247.952 74.3566 248.165C74.3433 248.365 74.33 248.545 74.3166 248.705H67.5566C67.6233 249.319 67.91 249.805 68.4166 250.165C68.9233 250.525 69.6033 250.705 70.4566 250.705C71.0033 250.705 71.5366 250.659 72.0566 250.565C72.59 250.459 73.0233 250.332 73.3566 250.185L73.7566 252.605C73.5966 252.685 73.3833 252.765 73.1166 252.845C72.85 252.925 72.55 252.992 72.2166 253.045C71.8966 253.112 71.55 253.165 71.1766 253.205C70.8033 253.245 70.43 253.265 70.0566 253.265C69.11 253.265 68.2833 253.125 67.5766 252.845C66.8833 252.565 66.3033 252.185 65.8366 251.705C65.3833 251.212 65.0433 250.632 64.8166 249.965C64.6033 249.299 64.4966 248.579 64.4966 247.805ZM71.4966 246.665C71.4833 246.412 71.4366 246.165 71.3566 245.925C71.29 245.685 71.1766 245.472 71.0166 245.285C70.87 245.099 70.6766 244.945 70.4366 244.825C70.21 244.705 69.9233 244.645 69.5766 244.645C69.2433 244.645 68.9566 244.705 68.7166 244.825C68.4766 244.932 68.2766 245.079 68.1166 245.265C67.9566 245.452 67.83 245.672 67.7366 245.925C67.6566 246.165 67.5966 246.412 67.5566 246.665H71.4966ZM83.0163 245.105C82.7497 245.039 82.4363 244.972 82.0763 244.905C81.7163 244.825 81.3297 244.785 80.9163 244.785C80.7297 244.785 80.503 244.805 80.2363 244.845C79.983 244.872 79.7897 244.905 79.6563 244.945V252.985H76.6763V243.025C77.2097 242.839 77.8363 242.665 78.5563 242.505C79.2897 242.332 80.103 242.245 80.9963 242.245C81.1563 242.245 81.3497 242.259 81.5763 242.285C81.803 242.299 82.0297 242.325 82.2563 242.365C82.483 242.392 82.7097 242.432 82.9363 242.485C83.163 242.525 83.3563 242.579 83.5163 242.645L83.0163 245.105ZM84.4185 247.725C84.4185 246.965 84.5385 246.252 84.7785 245.585C85.0318 244.905 85.3918 244.319 85.8585 243.825C86.3252 243.319 86.8919 242.919 87.5585 242.625C88.2252 242.332 88.9852 242.185 89.8385 242.185C90.3985 242.185 90.9119 242.239 91.3785 242.345C91.8452 242.439 92.2985 242.579 92.7385 242.765L92.1185 245.145C91.8385 245.039 91.5319 244.945 91.1985 244.865C90.8652 244.785 90.4919 244.745 90.0785 244.745C89.1985 244.745 88.5385 245.019 88.0985 245.565C87.6719 246.112 87.4585 246.832 87.4585 247.725C87.4585 248.672 87.6585 249.405 88.0585 249.925C88.4719 250.445 89.1852 250.705 90.1985 250.705C90.5585 250.705 90.9452 250.672 91.3585 250.605C91.7719 250.539 92.1519 250.432 92.4985 250.285L92.9185 252.725C92.5719 252.872 92.1385 252.999 91.6185 253.105C91.0985 253.212 90.5252 253.265 89.8985 253.265C88.9385 253.265 88.1119 253.125 87.4185 252.845C86.7252 252.552 86.1518 252.159 85.6985 251.665C85.2585 251.172 84.9318 250.592 84.7185 249.925C84.5185 249.245 84.4185 248.512 84.4185 247.725ZM93.9107 247.805C93.9107 246.872 94.0507 246.059 94.3307 245.365C94.624 244.659 95.004 244.072 95.4707 243.605C95.9374 243.139 96.4707 242.785 97.0707 242.545C97.684 242.305 98.3107 242.185 98.9507 242.185C100.444 242.185 101.624 242.645 102.491 243.565C103.357 244.472 103.791 245.812 103.791 247.585C103.791 247.759 103.784 247.952 103.771 248.165C103.757 248.365 103.744 248.545 103.731 248.705H96.9707C97.0374 249.319 97.324 249.805 97.8307 250.165C98.3374 250.525 99.0174 250.705 99.8707 250.705C100.417 250.705 100.951 250.659 101.471 250.565C102.004 250.459 102.437 250.332 102.771 250.185L103.171 252.605C103.011 252.685 102.797 252.765 102.531 252.845C102.264 252.925 101.964 252.992 101.631 253.045C101.311 253.112 100.964 253.165 100.591 253.205C100.217 253.245 99.844 253.265 99.4707 253.265C98.524 253.265 97.6974 253.125 96.9907 252.845C96.2974 252.565 95.7174 252.185 95.2507 251.705C94.7974 251.212 94.4574 250.632 94.2307 249.965C94.0174 249.299 93.9107 248.579 93.9107 247.805ZM100.911 246.665C100.897 246.412 100.851 246.165 100.771 245.925C100.704 245.685 100.591 245.472 100.431 245.285C100.284 245.099 100.091 244.945 99.8507 244.825C99.624 244.705 99.3374 244.645 98.9907 244.645C98.6574 244.645 98.3707 244.705 98.1307 244.825C97.8907 244.932 97.6907 245.079 97.5307 245.265C97.3707 245.452 97.244 245.672 97.1507 245.925C97.0707 246.165 97.0107 246.412 96.9707 246.665H100.911ZM109.07 252.985H106.09V242.465H109.07V252.985ZM109.35 239.425C109.35 239.972 109.17 240.405 108.81 240.725C108.464 241.032 108.05 241.185 107.57 241.185C107.09 241.185 106.67 241.032 106.31 240.725C105.964 240.405 105.79 239.972 105.79 239.425C105.79 238.879 105.964 238.452 106.31 238.145C106.67 237.825 107.09 237.665 107.57 237.665C108.05 237.665 108.464 237.825 108.81 238.145C109.17 238.452 109.35 238.879 109.35 239.425ZM118.212 245.105C117.945 245.039 117.632 244.972 117.272 244.905C116.912 244.825 116.525 244.785 116.112 244.785C115.925 244.785 115.698 244.805 115.432 244.845C115.178 244.872 114.985 244.905 114.852 244.945V252.985H111.872V243.025C112.405 242.839 113.032 242.665 113.752 242.505C114.485 242.332 115.298 242.245 116.192 242.245C116.352 242.245 116.545 242.259 116.772 242.285C116.998 242.299 117.225 242.325 117.452 242.365C117.678 242.392 117.905 242.432 118.132 242.485C118.358 242.525 118.552 242.579 118.712 242.645L118.212 245.105ZM129.954 247.705C129.954 248.532 129.834 249.292 129.594 249.985C129.354 250.665 129.007 251.252 128.554 251.745C128.1 252.225 127.554 252.599 126.914 252.865C126.287 253.132 125.58 253.265 124.794 253.265C124.02 253.265 123.314 253.132 122.674 252.865C122.047 252.599 121.507 252.225 121.054 251.745C120.6 251.252 120.247 250.665 119.994 249.985C119.74 249.292 119.614 248.532 119.614 247.705C119.614 246.879 119.74 246.125 119.994 245.445C120.26 244.765 120.62 244.185 121.074 243.705C121.54 243.225 122.087 242.852 122.714 242.585C123.354 242.319 124.047 242.185 124.794 242.185C125.554 242.185 126.247 242.319 126.874 242.585C127.514 242.852 128.06 243.225 128.514 243.705C128.967 244.185 129.32 244.765 129.574 245.445C129.827 246.125 129.954 246.879 129.954 247.705ZM126.914 247.705C126.914 246.785 126.727 246.065 126.354 245.545C125.994 245.012 125.474 244.745 124.794 244.745C124.114 244.745 123.587 245.012 123.214 245.545C122.84 246.065 122.654 246.785 122.654 247.705C122.654 248.625 122.84 249.359 123.214 249.905C123.587 250.439 124.114 250.705 124.794 250.705C125.474 250.705 125.994 250.439 126.354 249.905C126.727 249.359 126.914 248.625 126.914 247.705ZM135.282 250.845C135.829 250.845 136.216 250.792 136.442 250.685C136.669 250.579 136.782 250.372 136.782 250.065C136.782 249.825 136.636 249.619 136.342 249.445C136.049 249.259 135.602 249.052 135.002 248.825C134.536 248.652 134.109 248.472 133.722 248.285C133.349 248.099 133.029 247.879 132.762 247.625C132.496 247.359 132.289 247.045 132.142 246.685C131.996 246.325 131.922 245.892 131.922 245.385C131.922 244.399 132.289 243.619 133.022 243.045C133.756 242.472 134.762 242.185 136.042 242.185C136.682 242.185 137.296 242.245 137.882 242.365C138.469 242.472 138.936 242.592 139.282 242.725L138.762 245.045C138.416 244.925 138.036 244.819 137.622 244.725C137.222 244.632 136.769 244.585 136.262 244.585C135.329 244.585 134.862 244.845 134.862 245.365C134.862 245.485 134.882 245.592 134.922 245.685C134.962 245.779 135.042 245.872 135.162 245.965C135.282 246.045 135.442 246.139 135.642 246.245C135.856 246.339 136.122 246.445 136.442 246.565C137.096 246.805 137.636 247.045 138.062 247.285C138.489 247.512 138.822 247.765 139.062 248.045C139.316 248.312 139.489 248.612 139.582 248.945C139.689 249.279 139.742 249.665 139.742 250.105C139.742 251.145 139.349 251.932 138.562 252.465C137.789 252.999 136.689 253.265 135.262 253.265C134.329 253.265 133.549 253.185 132.922 253.025C132.309 252.865 131.882 252.732 131.642 252.625L132.142 250.205C132.649 250.405 133.169 250.565 133.702 250.685C134.236 250.792 134.762 250.845 135.282 250.845Z" fill="white"/>
<defs>
<clipPath id="clip0">
<rect width="192.916" height="192.916" fill="white" transform="translate(0.231934 0.915527)"/>
</clipPath>
</defs>
</svg>
