<svg width="202" height="346" viewBox="0 0 202 346" fill="none" xmlns="http://www.w3.org/2000/svg">
<circle cx="101.599" cy="100.979" r="92.0688" fill="#00ACE2"/>
<g clip-path="url(#clip0)">
<path d="M185.049 89.0606C187.018 83.6823 188.05 77.9555 188.05 72.116C188.05 44.9481 165.947 22.8452 138.779 22.8452C123.987 22.8452 110.126 29.5011 100.856 40.6626C91.5868 29.5011 77.7252 22.8452 62.9334 22.8452C35.765 22.8452 13.6622 44.9481 13.6622 72.116C13.6622 83.1592 17.3451 93.8015 24.0957 102.439H0.620117V114.185H35.2431C54.3322 133.126 94.7149 171.756 96.7968 173.747L100.856 177.629L104.916 173.747C107.464 171.309 167.432 113.943 175.433 105.042C176.651 103.688 177.785 102.273 178.836 100.807H201.093V89.0602H185.049V89.0606ZM100.856 161.37C91.5821 152.483 68.3927 130.227 51.9865 114.185H74.8517L85.6271 97.1081L105.943 125.55L125.736 100.807H163.235C150.581 113.658 113.264 149.48 100.856 161.37ZM172.258 89.0606H120.091L106.473 106.083L85.0229 76.0534L68.3743 102.439H40.0932C37.7298 100.064 35.9636 98.2452 35.016 97.1907C28.8206 90.2983 25.4086 81.3929 25.4086 72.116C25.4086 51.4247 42.242 34.5916 62.9334 34.5916C76.5287 34.5916 89.0942 41.9778 95.727 53.8675L100.856 63.0619L105.986 53.8675C112.618 41.9778 125.184 34.5916 138.779 34.5916C159.471 34.5916 176.304 51.4251 176.304 72.116C176.304 78.0617 174.896 83.8523 172.258 89.0606Z" fill="white"/>
</g>
<path d="M52.2125 259.626C52.2125 260.306 52.2925 260.92 52.4525 261.466C52.6259 262.013 52.8659 262.486 53.1725 262.886C53.4925 263.273 53.8792 263.573 54.3325 263.786C54.7859 264 55.3059 264.106 55.8925 264.106C56.4659 264.106 56.9792 264 57.4325 263.786C57.8992 263.573 58.2859 263.273 58.5925 262.886C58.9125 262.486 59.1525 262.013 59.3125 261.466C59.4859 260.92 59.5725 260.306 59.5725 259.626C59.5725 258.946 59.4859 258.333 59.3125 257.786C59.1525 257.226 58.9125 256.753 58.5925 256.366C58.2859 255.966 57.8992 255.66 57.4325 255.446C56.9792 255.233 56.4659 255.126 55.8925 255.126C55.3059 255.126 54.7859 255.24 54.3325 255.466C53.8792 255.68 53.4925 255.986 53.1725 256.386C52.8659 256.773 52.6259 257.246 52.4525 257.806C52.2925 258.353 52.2125 258.96 52.2125 259.626ZM62.7925 259.626C62.7925 260.813 62.6125 261.86 62.2525 262.766C61.9059 263.66 61.4259 264.413 60.8125 265.026C60.1992 265.626 59.4659 266.08 58.6125 266.386C57.7725 266.693 56.8659 266.846 55.8925 266.846C54.9459 266.846 54.0525 266.693 53.2125 266.386C52.3725 266.08 51.6392 265.626 51.0125 265.026C50.3859 264.413 49.8925 263.66 49.5325 262.766C49.1725 261.86 48.9925 260.813 48.9925 259.626C48.9925 258.44 49.1792 257.4 49.5525 256.506C49.9259 255.6 50.4259 254.84 51.0525 254.226C51.6925 253.613 52.4259 253.153 53.2525 252.846C54.0925 252.54 54.9725 252.386 55.8925 252.386C56.8392 252.386 57.7325 252.54 58.5725 252.846C59.4125 253.153 60.1459 253.613 60.7725 254.226C61.3992 254.84 61.8925 255.6 62.2525 256.506C62.6125 257.4 62.7925 258.44 62.7925 259.626ZM71.5333 258.686C71.2667 258.62 70.9533 258.553 70.5933 258.486C70.2333 258.406 69.8467 258.366 69.4333 258.366C69.2467 258.366 69.02 258.386 68.7533 258.426C68.5 258.453 68.3067 258.486 68.1733 258.526V266.566H65.1933V256.606C65.7267 256.42 66.3533 256.246 67.0733 256.086C67.8067 255.913 68.62 255.826 69.5133 255.826C69.6733 255.826 69.8667 255.84 70.0933 255.866C70.32 255.88 70.5467 255.906 70.7733 255.946C71 255.973 71.2267 256.013 71.4533 256.066C71.68 256.106 71.8733 256.16 72.0333 256.226L71.5333 258.686ZM76.6108 266.566H73.6308V256.046H76.6108V266.566ZM76.8908 253.006C76.8908 253.553 76.7108 253.986 76.3508 254.306C76.0042 254.613 75.5908 254.766 75.1108 254.766C74.6308 254.766 74.2108 254.613 73.8508 254.306C73.5042 253.986 73.3308 253.553 73.3308 253.006C73.3308 252.46 73.5042 252.033 73.8508 251.726C74.2108 251.406 74.6308 251.246 75.1108 251.246C75.5908 251.246 76.0042 251.406 76.3508 251.726C76.7108 252.033 76.8908 252.46 76.8908 253.006ZM78.9121 261.386C78.9121 260.453 79.0521 259.64 79.3321 258.946C79.6254 258.24 80.0054 257.653 80.4721 257.186C80.9387 256.72 81.4721 256.366 82.0721 256.126C82.6854 255.886 83.3121 255.766 83.9521 255.766C85.4454 255.766 86.6254 256.226 87.4921 257.146C88.3587 258.053 88.7921 259.393 88.7921 261.166C88.7921 261.34 88.7854 261.533 88.7721 261.746C88.7587 261.946 88.7454 262.126 88.7321 262.286H81.9721C82.0387 262.9 82.3254 263.386 82.8321 263.746C83.3387 264.106 84.0187 264.286 84.8721 264.286C85.4187 264.286 85.9521 264.24 86.4721 264.146C87.0054 264.04 87.4387 263.913 87.7721 263.766L88.1721 266.186C88.0121 266.266 87.7987 266.346 87.5321 266.426C87.2654 266.506 86.9654 266.573 86.6321 266.626C86.3121 266.693 85.9654 266.746 85.5921 266.786C85.2187 266.826 84.8454 266.846 84.4721 266.846C83.5254 266.846 82.6987 266.706 81.9921 266.426C81.2987 266.146 80.7187 265.766 80.2521 265.286C79.7987 264.793 79.4587 264.213 79.2321 263.546C79.0187 262.88 78.9121 262.16 78.9121 261.386ZM85.9121 260.246C85.8987 259.993 85.8521 259.746 85.7721 259.506C85.7054 259.266 85.5921 259.053 85.4321 258.866C85.2854 258.68 85.0921 258.526 84.8521 258.406C84.6254 258.286 84.3387 258.226 83.9921 258.226C83.6587 258.226 83.3721 258.286 83.1321 258.406C82.8921 258.513 82.6921 258.66 82.5321 258.846C82.3721 259.033 82.2454 259.253 82.1521 259.506C82.0721 259.746 82.0121 259.993 81.9721 260.246H85.9121ZM91.0918 256.406C91.5984 256.26 92.2518 256.126 93.0518 256.006C93.8518 255.873 94.6918 255.806 95.5718 255.806C96.4651 255.806 97.2051 255.926 97.7918 256.166C98.3918 256.393 98.8651 256.72 99.2118 257.146C99.5584 257.573 99.8051 258.08 99.9518 258.666C100.098 259.253 100.172 259.906 100.172 260.626V266.566H97.1918V260.986C97.1918 260.026 97.0651 259.346 96.8118 258.946C96.5584 258.546 96.0851 258.346 95.3918 258.346C95.1784 258.346 94.9518 258.36 94.7118 258.386C94.4718 258.4 94.2584 258.42 94.0718 258.446V266.566H91.0918V256.406ZM102.769 253.426L105.749 252.946V256.046H109.329V258.526H105.749V262.226C105.749 262.853 105.856 263.353 106.069 263.726C106.296 264.1 106.742 264.286 107.409 264.286C107.729 264.286 108.056 264.26 108.389 264.206C108.736 264.14 109.049 264.053 109.329 263.946L109.749 266.266C109.389 266.413 108.989 266.54 108.549 266.646C108.109 266.753 107.569 266.806 106.929 266.806C106.116 266.806 105.442 266.7 104.909 266.486C104.376 266.26 103.949 265.953 103.629 265.566C103.309 265.166 103.082 264.686 102.949 264.126C102.829 263.566 102.769 262.946 102.769 262.266V253.426ZM115.385 264.486C115.679 264.486 115.959 264.48 116.225 264.466C116.492 264.453 116.705 264.433 116.865 264.406V262.146C116.745 262.12 116.565 262.093 116.325 262.066C116.085 262.04 115.865 262.026 115.665 262.026C115.385 262.026 115.119 262.046 114.865 262.086C114.625 262.113 114.412 262.173 114.225 262.266C114.039 262.36 113.892 262.486 113.785 262.646C113.679 262.806 113.625 263.006 113.625 263.246C113.625 263.713 113.779 264.04 114.085 264.226C114.405 264.4 114.839 264.486 115.385 264.486ZM115.145 255.766C116.025 255.766 116.759 255.866 117.345 256.066C117.932 256.266 118.399 256.553 118.745 256.926C119.105 257.3 119.359 257.753 119.505 258.286C119.652 258.82 119.725 259.413 119.725 260.066V266.266C119.299 266.36 118.705 266.466 117.945 266.586C117.185 266.72 116.265 266.786 115.185 266.786C114.505 266.786 113.885 266.726 113.325 266.606C112.779 266.486 112.305 266.293 111.905 266.026C111.505 265.746 111.199 265.386 110.985 264.946C110.772 264.506 110.665 263.966 110.665 263.326C110.665 262.713 110.785 262.193 111.025 261.766C111.279 261.34 111.612 261 112.025 260.746C112.439 260.493 112.912 260.313 113.445 260.206C113.979 260.086 114.532 260.026 115.105 260.026C115.492 260.026 115.832 260.046 116.125 260.086C116.432 260.113 116.679 260.153 116.865 260.206V259.926C116.865 259.42 116.712 259.013 116.405 258.706C116.099 258.4 115.565 258.246 114.805 258.246C114.299 258.246 113.799 258.286 113.305 258.366C112.812 258.433 112.385 258.533 112.025 258.666L111.645 256.266C111.819 256.213 112.032 256.16 112.285 256.106C112.552 256.04 112.839 255.986 113.145 255.946C113.452 255.893 113.772 255.853 114.105 255.826C114.452 255.786 114.799 255.766 115.145 255.766ZM127.58 267.366C128.007 267.58 128.3 267.833 128.46 268.126C128.62 268.42 128.7 268.72 128.7 269.026C128.7 269.666 128.447 270.153 127.94 270.486C127.433 270.82 126.767 270.986 125.94 270.986C125.647 270.986 125.353 270.96 125.06 270.906C124.767 270.866 124.473 270.806 124.18 270.726L124.54 268.986C124.633 269.013 124.8 269.053 125.04 269.106C125.293 269.173 125.54 269.206 125.78 269.206C125.967 269.206 126.127 269.166 126.26 269.086C126.407 269.02 126.487 268.893 126.5 268.706C126.513 268.546 126.447 268.4 126.3 268.266C126.167 268.133 125.947 268.033 125.64 267.966L125.4 267.906C125.453 267.733 125.527 267.533 125.62 267.306C125.713 267.093 125.807 266.893 125.9 266.706C125.207 266.573 124.607 266.346 124.1 266.026C123.607 265.693 123.193 265.293 122.86 264.826C122.54 264.346 122.3 263.806 122.14 263.206C121.993 262.606 121.92 261.973 121.92 261.306C121.92 260.546 122.04 259.833 122.28 259.166C122.533 258.486 122.893 257.9 123.36 257.406C123.827 256.9 124.393 256.5 125.06 256.206C125.727 255.913 126.487 255.766 127.34 255.766C127.9 255.766 128.413 255.82 128.88 255.926C129.347 256.02 129.8 256.16 130.24 256.346L129.62 258.726C129.34 258.62 129.033 258.526 128.7 258.446C128.367 258.366 127.993 258.326 127.58 258.326C126.7 258.326 126.04 258.6 125.6 259.146C125.173 259.693 124.96 260.413 124.96 261.306C124.96 262.253 125.16 262.986 125.56 263.506C125.973 264.026 126.687 264.286 127.7 264.286C128.06 264.286 128.447 264.253 128.86 264.186C129.273 264.12 129.653 264.013 130 263.866L130.42 266.306C130.113 266.44 129.733 266.553 129.28 266.646C128.84 266.74 128.353 266.8 127.82 266.826C127.767 266.933 127.72 267.033 127.68 267.126C127.64 267.22 127.607 267.3 127.58 267.366ZM135.932 264.486C136.225 264.486 136.505 264.48 136.772 264.466C137.039 264.453 137.252 264.433 137.412 264.406V262.146C137.292 262.12 137.112 262.093 136.872 262.066C136.632 262.04 136.412 262.026 136.212 262.026C135.932 262.026 135.665 262.046 135.412 262.086C135.172 262.113 134.959 262.173 134.772 262.266C134.585 262.36 134.439 262.486 134.332 262.646C134.225 262.806 134.172 263.006 134.172 263.246C134.172 263.713 134.325 264.04 134.632 264.226C134.952 264.4 135.385 264.486 135.932 264.486ZM135.692 255.766C136.572 255.766 137.305 255.866 137.892 256.066C138.479 256.266 138.945 256.553 139.292 256.926C139.652 257.3 139.905 257.753 140.052 258.286C140.199 258.82 140.272 259.413 140.272 260.066V266.266C139.845 266.36 139.252 266.466 138.492 266.586C137.732 266.72 136.812 266.786 135.732 266.786C135.052 266.786 134.432 266.726 133.872 266.606C133.325 266.486 132.852 266.293 132.452 266.026C132.052 265.746 131.745 265.386 131.532 264.946C131.319 264.506 131.212 263.966 131.212 263.326C131.212 262.713 131.332 262.193 131.572 261.766C131.825 261.34 132.159 261 132.572 260.746C132.985 260.493 133.459 260.313 133.992 260.206C134.525 260.086 135.079 260.026 135.652 260.026C136.039 260.026 136.379 260.046 136.672 260.086C136.979 260.113 137.225 260.153 137.412 260.206V259.926C137.412 259.42 137.259 259.013 136.952 258.706C136.645 258.4 136.112 258.246 135.352 258.246C134.845 258.246 134.345 258.286 133.852 258.366C133.359 258.433 132.932 258.533 132.572 258.666L132.192 256.266C132.365 256.213 132.579 256.16 132.832 256.106C133.099 256.04 133.385 255.986 133.692 255.946C133.999 255.893 134.319 255.853 134.652 255.826C134.999 255.786 135.345 255.766 135.692 255.766ZM139.612 252.386C139.532 252.586 139.419 252.806 139.272 253.046C139.139 253.286 138.972 253.513 138.772 253.726C138.572 253.926 138.345 254.093 138.092 254.226C137.839 254.36 137.559 254.426 137.252 254.426C137.012 254.426 136.785 254.393 136.572 254.326C136.372 254.246 136.172 254.166 135.972 254.086C135.772 253.993 135.572 253.913 135.372 253.846C135.172 253.766 134.965 253.726 134.752 253.726C134.485 253.726 134.265 253.813 134.092 253.986C133.919 254.16 133.779 254.36 133.672 254.586L132.212 253.626C132.292 253.426 132.399 253.206 132.532 252.966C132.679 252.726 132.852 252.506 133.052 252.306C133.252 252.093 133.479 251.92 133.732 251.786C133.985 251.653 134.265 251.586 134.572 251.586C134.812 251.586 135.032 251.626 135.232 251.706C135.445 251.773 135.652 251.853 135.852 251.946C136.052 252.026 136.245 252.106 136.432 252.186C136.632 252.253 136.845 252.286 137.072 252.286C137.339 252.286 137.559 252.2 137.732 252.026C137.905 251.853 138.045 251.653 138.152 251.426L139.612 252.386ZM152.807 261.286C152.807 262.113 152.687 262.873 152.447 263.566C152.207 264.246 151.86 264.833 151.407 265.326C150.953 265.806 150.407 266.18 149.767 266.446C149.14 266.713 148.433 266.846 147.647 266.846C146.873 266.846 146.167 266.713 145.527 266.446C144.9 266.18 144.36 265.806 143.907 265.326C143.453 264.833 143.1 264.246 142.847 263.566C142.593 262.873 142.467 262.113 142.467 261.286C142.467 260.46 142.593 259.706 142.847 259.026C143.113 258.346 143.473 257.766 143.927 257.286C144.393 256.806 144.94 256.433 145.567 256.166C146.207 255.9 146.9 255.766 147.647 255.766C148.407 255.766 149.1 255.9 149.727 256.166C150.367 256.433 150.913 256.806 151.367 257.286C151.82 257.766 152.173 258.346 152.427 259.026C152.68 259.706 152.807 260.46 152.807 261.286ZM149.767 261.286C149.767 260.366 149.58 259.646 149.207 259.126C148.847 258.593 148.327 258.326 147.647 258.326C146.967 258.326 146.44 258.593 146.067 259.126C145.693 259.646 145.507 260.366 145.507 261.286C145.507 262.206 145.693 262.94 146.067 263.486C146.44 264.02 146.967 264.286 147.647 264.286C148.327 264.286 148.847 264.02 149.207 263.486C149.58 262.94 149.767 262.206 149.767 261.286ZM70.3961 292.566V278.706H78.7561V280.366H72.3361V284.546H78.0361V286.186H72.3361V292.566H70.3961ZM82.8783 292.566H81.0183V282.166H82.8783V292.566ZM81.9383 280.286C81.605 280.286 81.3183 280.18 81.0783 279.966C80.8517 279.74 80.7383 279.44 80.7383 279.066C80.7383 278.693 80.8517 278.4 81.0783 278.186C81.3183 277.96 81.605 277.846 81.9383 277.846C82.2717 277.846 82.5517 277.96 82.7783 278.186C83.0183 278.4 83.1383 278.693 83.1383 279.066C83.1383 279.44 83.0183 279.74 82.7783 279.966C82.5517 280.18 82.2717 280.286 81.9383 280.286ZM87.8169 282.166H91.7569V283.726H87.8169V288.526C87.8169 289.046 87.8569 289.48 87.9369 289.826C88.0169 290.16 88.1369 290.426 88.2969 290.626C88.4569 290.813 88.6569 290.946 88.8969 291.026C89.1369 291.106 89.4169 291.146 89.7369 291.146C90.2969 291.146 90.7436 291.086 91.0769 290.966C91.4236 290.833 91.6636 290.74 91.7969 290.686L92.1569 292.226C91.9702 292.32 91.6436 292.433 91.1769 292.566C90.7102 292.713 90.1769 292.786 89.5769 292.786C88.8702 292.786 88.2836 292.7 87.8169 292.526C87.3636 292.34 86.9969 292.066 86.7169 291.706C86.4369 291.346 86.2369 290.906 86.1169 290.386C86.0102 289.853 85.9569 289.24 85.9569 288.546V279.266L87.8169 278.946V282.166ZM94.1238 282.466C94.5505 282.36 95.1171 282.246 95.8238 282.126C96.5305 282.006 97.3438 281.946 98.2638 281.946C99.0905 281.946 99.7771 282.066 100.324 282.306C100.87 282.533 101.304 282.86 101.624 283.286C101.957 283.7 102.19 284.2 102.324 284.786C102.457 285.373 102.524 286.02 102.524 286.726V292.566H100.664V287.126C100.664 286.486 100.617 285.94 100.524 285.486C100.444 285.033 100.304 284.666 100.104 284.386C99.9038 284.106 99.6371 283.906 99.3038 283.786C98.9705 283.653 98.5571 283.586 98.0638 283.586C97.8638 283.586 97.6571 283.593 97.4438 283.606C97.2305 283.62 97.0238 283.64 96.8238 283.666C96.6371 283.68 96.4638 283.7 96.3038 283.726C96.1571 283.753 96.0505 283.773 95.9838 283.786V292.566H94.1238V282.466ZM105.028 287.386C105.028 286.466 105.161 285.666 105.428 284.986C105.695 284.293 106.048 283.72 106.488 283.266C106.928 282.813 107.435 282.473 108.008 282.246C108.581 282.02 109.168 281.906 109.768 281.906C111.168 281.906 112.241 282.346 112.988 283.226C113.735 284.093 114.108 285.42 114.108 287.206C114.108 287.286 114.108 287.393 114.108 287.526C114.108 287.646 114.101 287.76 114.088 287.866H106.968C107.048 288.946 107.361 289.766 107.908 290.326C108.455 290.886 109.308 291.166 110.468 291.166C111.121 291.166 111.668 291.113 112.108 291.006C112.561 290.886 112.901 290.773 113.128 290.666L113.388 292.226C113.161 292.346 112.761 292.473 112.188 292.606C111.628 292.74 110.988 292.806 110.268 292.806C109.361 292.806 108.575 292.673 107.908 292.406C107.255 292.126 106.715 291.746 106.288 291.266C105.861 290.786 105.541 290.22 105.328 289.566C105.128 288.9 105.028 288.173 105.028 287.386ZM112.168 286.366C112.181 285.526 111.968 284.84 111.528 284.306C111.101 283.76 110.508 283.486 109.748 283.486C109.321 283.486 108.941 283.573 108.608 283.746C108.288 283.906 108.015 284.12 107.788 284.386C107.561 284.653 107.381 284.96 107.248 285.306C107.128 285.653 107.048 286.006 107.008 286.366H112.168ZM119.2 291.226C119.96 291.226 120.52 291.126 120.88 290.926C121.253 290.726 121.44 290.406 121.44 289.966C121.44 289.513 121.26 289.153 120.9 288.886C120.54 288.62 119.947 288.32 119.12 287.986C118.72 287.826 118.333 287.666 117.96 287.506C117.6 287.333 117.287 287.133 117.02 286.906C116.753 286.68 116.54 286.406 116.38 286.086C116.22 285.766 116.14 285.373 116.14 284.906C116.14 283.986 116.48 283.26 117.16 282.726C117.84 282.18 118.767 281.906 119.94 281.906C120.233 281.906 120.527 281.926 120.82 281.966C121.113 281.993 121.387 282.033 121.64 282.086C121.893 282.126 122.113 282.173 122.3 282.226C122.5 282.28 122.653 282.326 122.76 282.366L122.42 283.966C122.22 283.86 121.907 283.753 121.48 283.646C121.053 283.526 120.54 283.466 119.94 283.466C119.42 283.466 118.967 283.573 118.58 283.786C118.193 283.986 118 284.306 118 284.746C118 284.973 118.04 285.173 118.12 285.346C118.213 285.52 118.347 285.68 118.52 285.826C118.707 285.96 118.933 286.086 119.2 286.206C119.467 286.326 119.787 286.453 120.16 286.586C120.653 286.773 121.093 286.96 121.48 287.146C121.867 287.32 122.193 287.526 122.46 287.766C122.74 288.006 122.953 288.3 123.1 288.646C123.247 288.98 123.32 289.393 123.32 289.886C123.32 290.846 122.96 291.573 122.24 292.066C121.533 292.56 120.52 292.806 119.2 292.806C118.28 292.806 117.56 292.726 117.04 292.566C116.52 292.42 116.167 292.306 115.98 292.226L116.32 290.626C116.533 290.706 116.873 290.826 117.34 290.986C117.807 291.146 118.427 291.226 119.2 291.226ZM128.126 291.226C128.886 291.226 129.446 291.126 129.806 290.926C130.179 290.726 130.366 290.406 130.366 289.966C130.366 289.513 130.186 289.153 129.826 288.886C129.466 288.62 128.872 288.32 128.046 287.986C127.646 287.826 127.259 287.666 126.886 287.506C126.526 287.333 126.212 287.133 125.946 286.906C125.679 286.68 125.466 286.406 125.306 286.086C125.146 285.766 125.066 285.373 125.066 284.906C125.066 283.986 125.406 283.26 126.086 282.726C126.766 282.18 127.692 281.906 128.866 281.906C129.159 281.906 129.452 281.926 129.746 281.966C130.039 281.993 130.312 282.033 130.566 282.086C130.819 282.126 131.039 282.173 131.226 282.226C131.426 282.28 131.579 282.326 131.686 282.366L131.346 283.966C131.146 283.86 130.832 283.753 130.406 283.646C129.979 283.526 129.466 283.466 128.866 283.466C128.346 283.466 127.892 283.573 127.506 283.786C127.119 283.986 126.926 284.306 126.926 284.746C126.926 284.973 126.966 285.173 127.046 285.346C127.139 285.52 127.272 285.68 127.446 285.826C127.632 285.96 127.859 286.086 128.126 286.206C128.392 286.326 128.712 286.453 129.086 286.586C129.579 286.773 130.019 286.96 130.406 287.146C130.792 287.32 131.119 287.526 131.386 287.766C131.666 288.006 131.879 288.3 132.026 288.646C132.172 288.98 132.246 289.393 132.246 289.886C132.246 290.846 131.886 291.573 131.166 292.066C130.459 292.56 129.446 292.806 128.126 292.806C127.206 292.806 126.486 292.726 125.966 292.566C125.446 292.42 125.092 292.306 124.906 292.226L125.246 290.626C125.459 290.706 125.799 290.826 126.266 290.986C126.732 291.146 127.352 291.226 128.126 291.226Z" fill="white"/>
<path d="M47.0954 325.855C47.0954 326.303 47.0527 326.735 46.9674 327.151C46.8927 327.557 46.8127 327.978 46.7274 328.415C47.1114 328.202 47.4901 327.994 47.8634 327.791C48.2367 327.589 48.6421 327.413 49.0794 327.263L49.1754 327.231L49.6234 328.575L49.4954 328.623C49.0687 328.783 48.6421 328.89 48.2154 328.943C47.7887 328.986 47.3514 329.023 46.9034 329.055C47.2554 329.354 47.5861 329.647 47.8954 329.935C48.2047 330.213 48.4927 330.538 48.7594 330.911L48.8394 331.023L47.6714 331.839L47.6074 331.743C47.3514 331.359 47.1274 330.981 46.9354 330.607C46.7541 330.223 46.5674 329.829 46.3754 329.423C46.1834 329.829 45.9914 330.223 45.7994 330.607C45.6181 330.981 45.3994 331.359 45.1434 331.743L45.0794 331.839L43.9114 331.023L43.9914 330.911C44.2581 330.538 44.5461 330.213 44.8554 329.935C45.1647 329.647 45.4954 329.354 45.8474 329.055C45.3994 329.023 44.9621 328.986 44.5354 328.943C44.1087 328.89 43.6821 328.783 43.2554 328.623L43.1274 328.575L43.5754 327.231L43.6714 327.263C44.1087 327.413 44.5141 327.589 44.8874 327.791C45.2607 327.994 45.6394 328.202 46.0234 328.415C45.9381 327.978 45.8527 327.557 45.7674 327.151C45.6927 326.735 45.6554 326.303 45.6554 325.855V325.727H47.0954V325.855ZM54.5429 325.615C56.1002 325.615 57.2949 325.914 58.1269 326.511C58.9696 327.098 59.3909 327.978 59.3909 329.151C59.3909 329.791 59.2736 330.341 59.0389 330.799C58.8149 331.247 58.4842 331.615 58.0469 331.903C57.6202 332.181 57.0976 332.383 56.4789 332.511C55.8602 332.639 55.1616 332.703 54.3829 332.703H53.1509V336.815H51.5989V325.887C52.0362 325.781 52.5216 325.711 53.0549 325.679C53.5989 325.637 54.0949 325.615 54.5429 325.615ZM54.6709 326.975C54.0096 326.975 53.5029 326.991 53.1509 327.023V331.375H54.3189C54.8522 331.375 55.3322 331.343 55.7589 331.279C56.1856 331.205 56.5429 331.087 56.8309 330.927C57.1296 330.757 57.3589 330.527 57.5189 330.239C57.6789 329.951 57.7589 329.583 57.7589 329.135C57.7589 328.709 57.6736 328.357 57.5029 328.079C57.3429 327.802 57.1189 327.583 56.8309 327.423C56.5536 327.253 56.2282 327.135 55.8549 327.071C55.4816 327.007 55.0869 326.975 54.6709 326.975ZM63.7333 336.975C62.8159 336.954 62.1653 336.757 61.7813 336.383C61.3973 336.01 61.2053 335.429 61.2053 334.639V324.655L62.6933 324.399V334.399C62.6933 334.645 62.7146 334.847 62.7573 335.007C62.7999 335.167 62.8693 335.295 62.9653 335.391C63.0613 335.487 63.1893 335.562 63.3493 335.615C63.5093 335.658 63.7066 335.695 63.9413 335.727L63.7333 336.975ZM68.4283 335.743C68.7803 335.743 69.0896 335.738 69.3563 335.727C69.6336 335.706 69.8629 335.674 70.0443 335.631V333.151C69.9376 333.098 69.7616 333.055 69.5163 333.023C69.2816 332.981 68.9936 332.959 68.6523 332.959C68.4283 332.959 68.1883 332.975 67.9323 333.007C67.6869 333.039 67.4576 333.109 67.2443 333.215C67.0416 333.311 66.8709 333.45 66.7323 333.631C66.5936 333.802 66.5243 334.031 66.5243 334.319C66.5243 334.853 66.6949 335.226 67.0363 335.439C67.3776 335.642 67.8416 335.743 68.4283 335.743ZM68.3003 328.287C68.8976 328.287 69.3989 328.367 69.8043 328.527C70.2203 328.677 70.5509 328.895 70.7963 329.183C71.0523 329.461 71.2336 329.797 71.3403 330.191C71.4469 330.575 71.5003 331.002 71.5003 331.471V336.671C71.3723 336.693 71.1909 336.725 70.9563 336.767C70.7323 336.799 70.4763 336.831 70.1883 336.863C69.9003 336.895 69.5856 336.922 69.2443 336.943C68.9136 336.975 68.5829 336.991 68.2523 336.991C67.7829 336.991 67.3509 336.943 66.9563 336.847C66.5616 336.751 66.2203 336.602 65.9323 336.399C65.6443 336.186 65.4203 335.909 65.2603 335.567C65.1003 335.226 65.0203 334.815 65.0203 334.335C65.0203 333.877 65.1109 333.482 65.2923 333.151C65.4843 332.821 65.7403 332.554 66.0603 332.351C66.3803 332.149 66.7536 331.999 67.1803 331.903C67.6069 331.807 68.0549 331.759 68.5243 331.759C68.6736 331.759 68.8283 331.77 68.9883 331.791C69.1483 331.802 69.2976 331.823 69.4363 331.855C69.5856 331.877 69.7136 331.898 69.8203 331.919C69.9269 331.941 70.0016 331.957 70.0443 331.967V331.551C70.0443 331.306 70.0176 331.066 69.9643 330.831C69.9109 330.586 69.8149 330.373 69.6763 330.191C69.5376 329.999 69.3456 329.85 69.1003 329.743C68.8656 329.626 68.5563 329.567 68.1723 329.567C67.6816 329.567 67.2496 329.605 66.8763 329.679C66.5136 329.743 66.2416 329.813 66.0603 329.887L65.8843 328.655C66.0763 328.57 66.3963 328.49 66.8443 328.415C67.2923 328.33 67.7776 328.287 68.3003 328.287ZM73.9717 328.735C74.313 328.65 74.7663 328.559 75.3317 328.463C75.897 328.367 76.5477 328.319 77.2837 328.319C77.945 328.319 78.4943 328.415 78.9317 328.607C79.369 328.789 79.7157 329.05 79.9717 329.391C80.2383 329.722 80.425 330.122 80.5317 330.591C80.6383 331.061 80.6917 331.578 80.6917 332.143V336.815H79.2037V332.463C79.2037 331.951 79.1663 331.514 79.0917 331.151C79.0277 330.789 78.9157 330.495 78.7557 330.271C78.5957 330.047 78.3823 329.887 78.1157 329.791C77.849 329.685 77.5183 329.631 77.1237 329.631C76.9637 329.631 76.7983 329.637 76.6277 329.647C76.457 329.658 76.2917 329.674 76.1317 329.695C75.9823 329.706 75.8437 329.722 75.7157 329.743C75.5983 329.765 75.513 329.781 75.4597 329.791V336.815H73.9717V328.735ZM90.5032 332.655C90.5032 333.317 90.4072 333.914 90.2152 334.447C90.0232 334.981 89.7512 335.439 89.3992 335.823C89.0578 336.207 88.6472 336.506 88.1672 336.719C87.6872 336.922 87.1645 337.023 86.5992 337.023C86.0338 337.023 85.5112 336.922 85.0312 336.719C84.5512 336.506 84.1352 336.207 83.7832 335.823C83.4418 335.439 83.1752 334.981 82.9832 334.447C82.7912 333.914 82.6952 333.317 82.6952 332.655C82.6952 332.005 82.7912 331.413 82.9832 330.879C83.1752 330.335 83.4418 329.871 83.7832 329.487C84.1352 329.103 84.5512 328.81 85.0312 328.607C85.5112 328.394 86.0338 328.287 86.5992 328.287C87.1645 328.287 87.6872 328.394 88.1672 328.607C88.6472 328.81 89.0578 329.103 89.3992 329.487C89.7512 329.871 90.0232 330.335 90.2152 330.879C90.4072 331.413 90.5032 332.005 90.5032 332.655ZM88.9512 332.655C88.9512 331.717 88.7378 330.975 88.3112 330.431C87.8952 329.877 87.3245 329.599 86.5992 329.599C85.8738 329.599 85.2978 329.877 84.8712 330.431C84.4552 330.975 84.2472 331.717 84.2472 332.655C84.2472 333.594 84.4552 334.341 84.8712 334.895C85.2978 335.439 85.8738 335.711 86.5992 335.711C87.3245 335.711 87.8952 335.439 88.3112 334.895C88.7378 334.341 88.9512 333.594 88.9512 332.655ZM99.3398 325.615C100.897 325.615 102.092 325.914 102.924 326.511C103.766 327.098 104.188 327.978 104.188 329.151C104.188 329.791 104.07 330.341 103.836 330.799C103.612 331.247 103.281 331.615 102.844 331.903C102.417 332.181 101.894 332.383 101.276 332.511C100.657 332.639 99.9584 332.703 99.1798 332.703H97.9478V336.815H96.3958V325.887C96.8331 325.781 97.3184 325.711 97.8518 325.679C98.3958 325.637 98.8918 325.615 99.3398 325.615ZM99.4678 326.975C98.8064 326.975 98.2998 326.991 97.9478 327.023V331.375H99.1158C99.6491 331.375 100.129 331.343 100.556 331.279C100.982 331.205 101.34 331.087 101.628 330.927C101.926 330.757 102.156 330.527 102.316 330.239C102.476 329.951 102.556 329.583 102.556 329.135C102.556 328.709 102.47 328.357 102.3 328.079C102.14 327.802 101.916 327.583 101.628 327.423C101.35 327.253 101.025 327.135 100.652 327.071C100.278 327.007 99.8838 326.975 99.4678 326.975ZM109.106 328.319C109.234 328.319 109.378 328.33 109.538 328.351C109.709 328.362 109.874 328.383 110.034 328.415C110.194 328.437 110.338 328.463 110.466 328.495C110.605 328.517 110.706 328.538 110.77 328.559L110.514 329.855C110.397 329.813 110.199 329.765 109.922 329.711C109.655 329.647 109.309 329.615 108.882 329.615C108.605 329.615 108.327 329.647 108.05 329.711C107.783 329.765 107.607 329.802 107.522 329.823V336.815H106.034V328.847C106.386 328.719 106.823 328.602 107.346 328.495C107.869 328.378 108.455 328.319 109.106 328.319ZM111.742 332.671C111.742 331.935 111.849 331.295 112.062 330.751C112.275 330.197 112.558 329.738 112.91 329.375C113.262 329.013 113.667 328.741 114.126 328.559C114.585 328.378 115.054 328.287 115.534 328.287C116.654 328.287 117.513 328.639 118.11 329.343C118.707 330.037 119.006 331.098 119.006 332.527C119.006 332.591 119.006 332.677 119.006 332.783C119.006 332.879 119.001 332.97 118.99 333.055H113.294C113.358 333.919 113.609 334.575 114.046 335.023C114.483 335.471 115.166 335.695 116.094 335.695C116.617 335.695 117.054 335.653 117.406 335.567C117.769 335.471 118.041 335.381 118.222 335.295L118.43 336.543C118.249 336.639 117.929 336.741 117.47 336.847C117.022 336.954 116.51 337.007 115.934 337.007C115.209 337.007 114.579 336.901 114.046 336.687C113.523 336.463 113.091 336.159 112.75 335.775C112.409 335.391 112.153 334.938 111.982 334.415C111.822 333.882 111.742 333.301 111.742 332.671ZM117.454 331.855C117.465 331.183 117.294 330.634 116.942 330.207C116.601 329.77 116.126 329.551 115.518 329.551C115.177 329.551 114.873 329.621 114.606 329.759C114.35 329.887 114.131 330.058 113.95 330.271C113.769 330.485 113.625 330.73 113.518 331.007C113.422 331.285 113.358 331.567 113.326 331.855H117.454ZM121.144 328.735C121.485 328.65 121.933 328.559 122.488 328.463C123.053 328.367 123.704 328.319 124.44 328.319C124.973 328.319 125.421 328.394 125.784 328.543C126.146 328.682 126.45 328.89 126.696 329.167C126.77 329.114 126.888 329.039 127.048 328.943C127.208 328.847 127.405 328.757 127.64 328.671C127.874 328.575 128.136 328.495 128.424 328.431C128.712 328.357 129.021 328.319 129.352 328.319C129.992 328.319 130.514 328.415 130.92 328.607C131.325 328.789 131.64 329.05 131.864 329.391C132.098 329.733 132.253 330.138 132.328 330.607C132.413 331.077 132.456 331.589 132.456 332.143V336.815H130.968V332.463C130.968 331.973 130.941 331.551 130.888 331.199C130.845 330.847 130.754 330.554 130.616 330.319C130.488 330.085 130.306 329.914 130.072 329.807C129.848 329.69 129.554 329.631 129.192 329.631C128.69 329.631 128.274 329.701 127.944 329.839C127.624 329.967 127.405 330.085 127.288 330.191C127.373 330.469 127.437 330.773 127.48 331.103C127.522 331.434 127.544 331.781 127.544 332.143V336.815H126.056V332.463C126.056 331.973 126.029 331.551 125.976 331.199C125.922 330.847 125.826 330.554 125.688 330.319C125.56 330.085 125.378 329.914 125.144 329.807C124.92 329.69 124.632 329.631 124.28 329.631C124.13 329.631 123.97 329.637 123.8 329.647C123.629 329.658 123.464 329.674 123.304 329.695C123.154 329.706 123.016 329.722 122.888 329.743C122.76 329.765 122.674 329.781 122.632 329.791V336.815H121.144V328.735ZM136.413 336.815H134.925V328.495H136.413V336.815ZM135.661 326.991C135.394 326.991 135.165 326.906 134.973 326.735C134.791 326.554 134.701 326.314 134.701 326.015C134.701 325.717 134.791 325.482 134.973 325.311C135.165 325.13 135.394 325.039 135.661 325.039C135.927 325.039 136.151 325.13 136.333 325.311C136.525 325.482 136.621 325.717 136.621 326.015C136.621 326.314 136.525 326.554 136.333 326.735C136.151 326.906 135.927 326.991 135.661 326.991ZM145.596 336.575C145.254 336.661 144.801 336.751 144.236 336.847C143.681 336.943 143.036 336.991 142.3 336.991C141.66 336.991 141.121 336.901 140.684 336.719C140.246 336.527 139.894 336.261 139.628 335.919C139.361 335.578 139.169 335.178 139.052 334.719C138.934 334.25 138.876 333.733 138.876 333.167V328.495H140.364V332.847C140.364 333.861 140.524 334.586 140.844 335.023C141.164 335.461 141.702 335.679 142.46 335.679C142.62 335.679 142.785 335.674 142.956 335.663C143.126 335.653 143.286 335.642 143.436 335.631C143.585 335.61 143.718 335.594 143.836 335.583C143.964 335.562 144.054 335.541 144.108 335.519V328.495H145.596V336.575ZM148.159 328.735C148.5 328.65 148.948 328.559 149.503 328.463C150.068 328.367 150.719 328.319 151.455 328.319C151.988 328.319 152.436 328.394 152.799 328.543C153.162 328.682 153.466 328.89 153.711 329.167C153.786 329.114 153.903 329.039 154.063 328.943C154.223 328.847 154.42 328.757 154.655 328.671C154.89 328.575 155.151 328.495 155.439 328.431C155.727 328.357 156.036 328.319 156.367 328.319C157.007 328.319 157.53 328.415 157.935 328.607C158.34 328.789 158.655 329.05 158.879 329.391C159.114 329.733 159.268 330.138 159.343 330.607C159.428 331.077 159.471 331.589 159.471 332.143V336.815H157.983V332.463C157.983 331.973 157.956 331.551 157.903 331.199C157.86 330.847 157.77 330.554 157.631 330.319C157.503 330.085 157.322 329.914 157.087 329.807C156.863 329.69 156.57 329.631 156.207 329.631C155.706 329.631 155.29 329.701 154.959 329.839C154.639 329.967 154.42 330.085 154.303 330.191C154.388 330.469 154.452 330.773 154.495 331.103C154.538 331.434 154.559 331.781 154.559 332.143V336.815H153.071V332.463C153.071 331.973 153.044 331.551 152.991 331.199C152.938 330.847 152.842 330.554 152.703 330.319C152.575 330.085 152.394 329.914 152.159 329.807C151.935 329.69 151.647 329.631 151.295 329.631C151.146 329.631 150.986 329.637 150.815 329.647C150.644 329.658 150.479 329.674 150.319 329.695C150.17 329.706 150.031 329.722 149.903 329.743C149.775 329.765 149.69 329.781 149.647 329.791V336.815H148.159V328.735Z" fill="white"/>
<defs>
<clipPath id="clip0">
<rect width="200.472" height="200.472" fill="white" transform="translate(0.619141)"/>
</clipPath>
</defs>
</svg>
