<svg width="194" height="261" viewBox="0 0 194 261" fill="none" xmlns="http://www.w3.org/2000/svg">
<circle cx="98.095" cy="98.0877" r="88.5984" fill="#00ACE2"/>
<g clip-path="url(#clip0)">
<path d="M193.984 172.996C188.775 172.948 183.566 172.852 178.358 172.9C177.851 172.9 177.08 173.792 176.887 174.395C174.499 181.412 169.894 186.283 163.117 189.25C152.724 193.783 139.123 189.274 133.649 179.338C132.757 177.699 132.034 175.938 131.383 174.178C131.021 173.238 130.611 172.779 129.526 172.803C107.702 172.828 85.9028 172.828 64.0792 172.803C62.8734 172.803 62.4635 173.31 62.1259 174.323C59.208 182.932 53.3241 188.237 44.5223 190.455C33.502 193.228 20.6008 186.283 17.1283 175.504C16.4531 173.43 15.6091 172.635 13.3664 172.779C9.91804 172.996 6.44556 172.828 2.99719 172.828C2.32198 172.828 1.64677 172.828 0.92334 172.828C0.92334 155.562 0.92334 138.537 0.92334 121.271C2.53901 121.271 4.08234 121.271 5.62566 121.271C10.4003 121.271 15.175 121.223 19.9497 121.319C21.3001 121.343 21.9271 120.885 22.5058 119.703C27.9798 108.538 33.5502 97.4216 38.976 86.2566C39.82 84.5203 40.7605 83.7245 42.6655 84.0139C43.5095 84.1345 44.4018 84.038 45.5592 84.038C42.6655 77.3583 41.3633 70.6545 41.725 63.6613C41.9662 58.7419 42.3038 53.7985 42.6173 48.3486C44.4018 50.7359 45.8727 52.6651 47.7295 55.1489C47.8983 43.4292 54.4334 35.3026 61.1131 26.8867C62.1982 29.3705 63.1146 31.7096 64.2239 34.0005C65.092 35.809 65.9601 37.6417 67.1658 39.2092C69.095 41.693 71.1447 41.4518 72.8086 38.7028C74.5449 35.8332 75.0513 32.6018 75.1477 29.2981C75.3406 23.3177 73.8938 17.5785 72.3987 11.8634C71.844 9.81363 71.2894 7.83624 70.7348 5.73828C82.8644 7.5951 94.0052 11.0435 102.108 20.8581C110.017 30.4315 112.887 41.7894 114.044 54.3772C116.649 50.4465 118.988 46.9499 121.399 43.3328C125.643 56.8851 128.875 70.2686 122.099 83.8933C122.75 83.9657 123.063 84.0863 123.353 84.0139C126.729 83.2664 128.224 84.9785 129.598 87.8963C134.614 98.5067 139.992 108.948 145.128 119.51C145.875 121.03 146.695 121.705 148.432 121.874C163.31 123.369 178.165 124.984 193.043 126.576C193.357 126.6 193.67 126.6 193.984 126.6C193.984 142.057 193.984 157.515 193.984 172.996ZM182.578 136.849C174.017 135.932 165.601 135.016 157.161 134.172C151.735 133.617 146.285 132.701 140.836 132.677C98.6593 132.556 56.4831 132.605 14.3069 132.605C13.6317 132.605 12.9806 132.605 12.3054 132.605C12.3054 142.347 12.3054 151.848 12.3054 161.349C15.9949 161.807 15.9949 161.807 17.1765 158.479C21.4689 146.446 36.4681 139.935 48.236 144.975C55.0845 147.893 59.7868 152.813 62.1018 159.926C62.4153 160.891 62.7046 161.542 63.9827 161.542C85.8063 161.494 107.606 161.494 129.429 161.542C130.611 161.542 131.021 161.06 131.407 160.047C132.058 158.287 132.757 156.526 133.674 154.911C139.196 144.975 152.772 140.49 163.166 145.072C169.918 148.038 174.523 152.933 176.887 159.95C177.08 160.553 177.682 161.349 178.189 161.421C179.588 161.614 181.034 161.494 182.578 161.494C182.578 153.222 182.578 145.144 182.578 136.849ZM101.336 77.1654C101.457 75.8873 101.505 75.0915 101.601 74.2717C101.65 73.8376 101.722 73.4035 101.77 72.9695C103.024 64.1436 103.362 55.3418 101.553 46.54C99.9856 38.8957 97.2366 31.8302 91.5456 26.2597C90.0022 24.7405 88.1695 23.5107 86.1922 21.9191C86.1439 22.6908 86.1198 22.8837 86.1439 23.0766C86.1921 23.8965 86.2886 24.6923 86.3368 25.5122C86.6744 32.216 85.9269 38.6546 82.4303 44.5867C77.8003 52.448 68.8297 54.4978 61.3783 49.3373C61.0649 49.1202 60.6549 48.9756 60.3173 48.8309C56.7966 58.4284 60.6549 66.0968 66.7559 73.4276C62.2947 73.9582 58.3399 74.4405 54.3851 74.9227C57.1342 86.9076 70.9759 99.7607 89.1582 96.6981C102.614 94.4314 116.118 79.6492 114.165 69.4488C110.041 71.9325 105.87 74.4405 101.336 77.1654ZM34.3942 121.126C49.1282 121.126 63.5969 121.126 78.1138 121.126C78.1138 116.713 78.1138 112.445 78.1138 108.201C77.8727 108.104 77.7038 108.008 77.5109 107.984C68.3716 106.465 60.4861 102.51 53.9029 95.9747C53.5411 95.613 52.9383 95.4201 52.4078 95.3718C47.3196 94.9619 47.3196 94.986 45.077 99.5195C44.667 100.364 44.2571 101.208 43.823 102.052C40.7364 108.345 37.6256 114.639 34.3942 121.126ZM133.143 121.198C133.119 120.885 133.119 120.764 133.071 120.668C129.068 112.565 125.065 104.463 121.062 96.3605C120.893 96.047 120.676 95.6612 120.386 95.4924C119.229 94.8172 114.237 95.5406 113.273 96.4811C108.836 100.798 103.723 104.053 97.8636 106.03C95.1627 106.947 92.3655 107.574 89.6405 108.321C89.6405 112.638 89.6405 116.882 89.6405 121.223C104.182 121.198 118.602 121.198 133.143 121.198ZM141.535 167.161C141.535 174.033 147.25 179.748 154.123 179.748C160.971 179.748 166.735 173.985 166.71 167.137C166.686 160.288 160.923 154.525 154.099 154.549C147.25 154.549 141.535 160.288 141.535 167.161ZM39.3859 179.748C46.2103 179.797 51.9737 174.082 52.0219 167.209C52.0943 160.384 46.355 154.621 39.4824 154.573C32.6098 154.525 26.8946 160.216 26.8705 167.112C26.8464 174.009 32.4651 179.7 39.3859 179.748Z" fill="white"/>
</g>
<path d="M58.4545 239.125H61.5745V252.985H58.4545V239.125ZM64.5827 242.825C65.0893 242.679 65.7427 242.545 66.5427 242.425C67.3427 242.292 68.1827 242.225 69.0627 242.225C69.956 242.225 70.696 242.345 71.2827 242.585C71.8827 242.812 72.356 243.139 72.7027 243.565C73.0493 243.992 73.296 244.499 73.4427 245.085C73.5893 245.672 73.6627 246.325 73.6627 247.045V252.985H70.6827V247.405C70.6827 246.445 70.556 245.765 70.3027 245.365C70.0493 244.965 69.576 244.765 68.8827 244.765C68.6693 244.765 68.4427 244.779 68.2027 244.805C67.9627 244.819 67.7493 244.839 67.5627 244.865V252.985H64.5827V242.825ZM75.86 247.725C75.86 246.965 75.98 246.252 76.22 245.585C76.4733 244.905 76.8333 244.319 77.3 243.825C77.7667 243.319 78.3333 242.919 79 242.625C79.6667 242.332 80.4267 242.185 81.28 242.185C81.84 242.185 82.3533 242.239 82.82 242.345C83.2867 242.439 83.74 242.579 84.18 242.765L83.56 245.145C83.28 245.039 82.9733 244.945 82.64 244.865C82.3067 244.785 81.9333 244.745 81.52 244.745C80.64 244.745 79.98 245.019 79.54 245.565C79.1133 246.112 78.9 246.832 78.9 247.725C78.9 248.672 79.1 249.405 79.5 249.925C79.9133 250.445 80.6267 250.705 81.64 250.705C82 250.705 82.3867 250.672 82.8 250.605C83.2133 250.539 83.5933 250.432 83.94 250.285L84.36 252.725C84.0133 252.872 83.58 252.999 83.06 253.105C82.54 253.212 81.9667 253.265 81.34 253.265C80.38 253.265 79.5533 253.125 78.86 252.845C78.1667 252.552 77.5933 252.159 77.14 251.665C76.7 251.172 76.3733 250.592 76.16 249.925C75.96 249.245 75.86 248.512 75.86 247.725ZM85.3522 247.805C85.3522 246.872 85.4922 246.059 85.7722 245.365C86.0655 244.659 86.4455 244.072 86.9122 243.605C87.3789 243.139 87.9122 242.785 88.5122 242.545C89.1255 242.305 89.7522 242.185 90.3922 242.185C91.8855 242.185 93.0655 242.645 93.9322 243.565C94.7989 244.472 95.2322 245.812 95.2322 247.585C95.2322 247.759 95.2255 247.952 95.2122 248.165C95.1989 248.365 95.1855 248.545 95.1722 248.705H88.4122C88.4789 249.319 88.7655 249.805 89.2722 250.165C89.7789 250.525 90.4589 250.705 91.3122 250.705C91.8589 250.705 92.3922 250.659 92.9122 250.565C93.4455 250.459 93.8789 250.332 94.2122 250.185L94.6122 252.605C94.4522 252.685 94.2389 252.765 93.9722 252.845C93.7055 252.925 93.4055 252.992 93.0722 253.045C92.7522 253.112 92.4055 253.165 92.0322 253.205C91.6589 253.245 91.2855 253.265 90.9122 253.265C89.9655 253.265 89.1389 253.125 88.4322 252.845C87.7389 252.565 87.1589 252.185 86.6922 251.705C86.2389 251.212 85.8989 250.632 85.6722 249.965C85.4589 249.299 85.3522 248.579 85.3522 247.805ZM92.3522 246.665C92.3389 246.412 92.2922 246.165 92.2122 245.925C92.1455 245.685 92.0322 245.472 91.8722 245.285C91.7255 245.099 91.5322 244.945 91.2922 244.825C91.0655 244.705 90.7789 244.645 90.4322 244.645C90.0989 244.645 89.8122 244.705 89.5722 244.825C89.3322 244.932 89.1322 245.079 88.9722 245.265C88.8122 245.452 88.6855 245.672 88.5922 245.925C88.5122 246.165 88.4522 246.412 88.4122 246.665H92.3522ZM93.3922 240.085L92.2922 241.405L90.2922 239.865L88.2922 241.405L87.1522 240.085L90.2922 237.345L93.3922 240.085ZM97.5319 242.825C98.0386 242.679 98.6919 242.545 99.4919 242.425C100.292 242.292 101.132 242.225 102.012 242.225C102.905 242.225 103.645 242.345 104.232 242.585C104.832 242.812 105.305 243.139 105.652 243.565C105.999 243.992 106.245 244.499 106.392 245.085C106.539 245.672 106.612 246.325 106.612 247.045V252.985H103.632V247.405C103.632 246.445 103.505 245.765 103.252 245.365C102.999 244.965 102.525 244.765 101.832 244.765C101.619 244.765 101.392 244.779 101.152 244.805C100.912 244.819 100.699 244.839 100.512 244.865V252.985H97.5319V242.825ZM111.849 247.645C111.849 248.565 112.056 249.305 112.469 249.865C112.883 250.425 113.496 250.705 114.309 250.705C114.576 250.705 114.823 250.699 115.049 250.685C115.276 250.659 115.463 250.632 115.609 250.605V245.185C115.423 245.065 115.176 244.965 114.869 244.885C114.576 244.805 114.276 244.765 113.969 244.765C112.556 244.765 111.849 245.725 111.849 247.645ZM118.589 252.645C118.323 252.725 118.016 252.805 117.669 252.885C117.323 252.952 116.956 253.012 116.569 253.065C116.196 253.119 115.809 253.159 115.409 253.185C115.023 253.225 114.649 253.245 114.289 253.245C113.423 253.245 112.649 253.119 111.969 252.865C111.289 252.612 110.716 252.252 110.249 251.785C109.783 251.305 109.423 250.732 109.169 250.065C108.929 249.385 108.809 248.625 108.809 247.785C108.809 246.932 108.916 246.165 109.129 245.485C109.343 244.792 109.649 244.205 110.049 243.725C110.449 243.245 110.936 242.879 111.509 242.625C112.096 242.372 112.763 242.245 113.509 242.245C113.923 242.245 114.289 242.285 114.609 242.365C114.943 242.445 115.276 242.559 115.609 242.705V237.945L118.589 237.465V252.645ZM124.36 252.985H121.38V242.465H124.36V252.985ZM124.64 239.425C124.64 239.972 124.46 240.405 124.1 240.725C123.753 241.032 123.34 241.185 122.86 241.185C122.38 241.185 121.96 241.032 121.6 240.725C121.253 240.405 121.08 239.972 121.08 239.425C121.08 238.879 121.253 238.452 121.6 238.145C121.96 237.825 122.38 237.665 122.86 237.665C123.34 237.665 123.753 237.825 124.1 238.145C124.46 238.452 124.64 238.879 124.64 239.425ZM137.001 247.705C137.001 248.532 136.881 249.292 136.641 249.985C136.401 250.665 136.054 251.252 135.601 251.745C135.147 252.225 134.601 252.599 133.961 252.865C133.334 253.132 132.627 253.265 131.841 253.265C131.067 253.265 130.361 253.132 129.721 252.865C129.094 252.599 128.554 252.225 128.101 251.745C127.647 251.252 127.294 250.665 127.041 249.985C126.787 249.292 126.661 248.532 126.661 247.705C126.661 246.879 126.787 246.125 127.041 245.445C127.307 244.765 127.667 244.185 128.121 243.705C128.587 243.225 129.134 242.852 129.761 242.585C130.401 242.319 131.094 242.185 131.841 242.185C132.601 242.185 133.294 242.319 133.921 242.585C134.561 242.852 135.107 243.225 135.561 243.705C136.014 244.185 136.367 244.765 136.621 245.445C136.874 246.125 137.001 246.879 137.001 247.705ZM133.961 247.705C133.961 246.785 133.774 246.065 133.401 245.545C133.041 245.012 132.521 244.745 131.841 244.745C131.161 244.745 130.634 245.012 130.261 245.545C129.887 246.065 129.701 246.785 129.701 247.705C129.701 248.625 129.887 249.359 130.261 249.905C130.634 250.439 131.161 250.705 131.841 250.705C132.521 250.705 133.041 250.439 133.401 249.905C133.774 249.359 133.961 248.625 133.961 247.705Z" fill="white"/>
<defs>
<clipPath id="clip0">
<rect width="192.916" height="192.916" fill="white" transform="translate(0.923828 0.915527)"/>
</clipPath>
</defs>
</svg>
