<svg width="201" height="346" viewBox="0 0 201 346" fill="none" xmlns="http://www.w3.org/2000/svg">
<circle cx="101.028" cy="100.979" r="92.0688" fill="#00ACE2"/>
<g clip-path="url(#clip0)">
<path d="M151.613 0H22.0137V200.472H178.559V26.9465L151.613 0ZM149.179 14.186L164.373 29.3804H149.179V14.186H149.179ZM33.7658 188.72V11.7522H137.427V41.1326H166.807V188.72H33.7658Z" fill="white"/>
<path d="M51.3672 133.974H63.1194V145.726H51.3672V133.974Z" fill="white"/>
<path d="M51.3672 157.479H63.1194V169.231H51.3672V157.479Z" fill="white"/>
<path d="M74.8711 133.974H149.205V145.726H74.8711V133.974Z" fill="white"/>
<path d="M51.3672 110.471H63.1194V122.223H51.3672V110.471Z" fill="white"/>
<path d="M74.8711 110.471H149.205V122.223H74.8711V110.471Z" fill="white"/>
<path d="M74.8711 157.479H149.205V169.231H74.8711V157.479Z" fill="white"/>
<path d="M79.2428 91.7971H121.329L128.314 64.3644H132.801V52.6122H131.306H126.282L104.893 31.3389H95.6782L74.2904 52.6126H69.266H67.7715V64.3648H72.2585L79.2428 91.7971ZM112.194 80.0449H88.3774L84.3855 64.3644H116.186L112.194 80.0449ZM100.286 43.3316L109.617 52.6126H90.9546L100.286 43.3316Z" fill="white"/>
</g>
<path d="M51.6452 259.626C51.6452 260.306 51.7252 260.92 51.8852 261.466C52.0585 262.013 52.2985 262.486 52.6052 262.886C52.9252 263.273 53.3118 263.573 53.7652 263.786C54.2185 264 54.7385 264.106 55.3252 264.106C55.8985 264.106 56.4118 264 56.8652 263.786C57.3318 263.573 57.7185 263.273 58.0252 262.886C58.3452 262.486 58.5852 262.013 58.7452 261.466C58.9185 260.92 59.0052 260.306 59.0052 259.626C59.0052 258.946 58.9185 258.333 58.7452 257.786C58.5852 257.226 58.3452 256.753 58.0252 256.366C57.7185 255.966 57.3318 255.66 56.8652 255.446C56.4118 255.233 55.8985 255.126 55.3252 255.126C54.7385 255.126 54.2185 255.24 53.7652 255.466C53.3118 255.68 52.9252 255.986 52.6052 256.386C52.2985 256.773 52.0585 257.246 51.8852 257.806C51.7252 258.353 51.6452 258.96 51.6452 259.626ZM62.2252 259.626C62.2252 260.813 62.0452 261.86 61.6852 262.766C61.3385 263.66 60.8585 264.413 60.2452 265.026C59.6318 265.626 58.8985 266.08 58.0452 266.386C57.2052 266.693 56.2985 266.846 55.3252 266.846C54.3785 266.846 53.4852 266.693 52.6452 266.386C51.8052 266.08 51.0718 265.626 50.4452 265.026C49.8185 264.413 49.3252 263.66 48.9652 262.766C48.6052 261.86 48.4252 260.813 48.4252 259.626C48.4252 258.44 48.6118 257.4 48.9852 256.506C49.3585 255.6 49.8585 254.84 50.4852 254.226C51.1252 253.613 51.8585 253.153 52.6852 252.846C53.5252 252.54 54.4052 252.386 55.3252 252.386C56.2718 252.386 57.1652 252.54 58.0052 252.846C58.8452 253.153 59.5785 253.613 60.2052 254.226C60.8318 254.84 61.3252 255.6 61.6852 256.506C62.0452 257.4 62.2252 258.44 62.2252 259.626ZM70.9659 258.686C70.6993 258.62 70.3859 258.553 70.0259 258.486C69.6659 258.406 69.2793 258.366 68.8659 258.366C68.6793 258.366 68.4526 258.386 68.1859 258.426C67.9326 258.453 67.7393 258.486 67.6059 258.526V266.566H64.6259V256.606C65.1593 256.42 65.7859 256.246 66.5059 256.086C67.2393 255.913 68.0526 255.826 68.9459 255.826C69.1059 255.826 69.2993 255.84 69.5259 255.866C69.7526 255.88 69.9793 255.906 70.2059 255.946C70.4326 255.973 70.6593 256.013 70.8859 256.066C71.1126 256.106 71.3059 256.16 71.4659 256.226L70.9659 258.686ZM76.0434 266.566H73.0634V256.046H76.0434V266.566ZM76.3234 253.006C76.3234 253.553 76.1434 253.986 75.7834 254.306C75.4368 254.613 75.0234 254.766 74.5434 254.766C74.0634 254.766 73.6434 254.613 73.2834 254.306C72.9368 253.986 72.7634 253.553 72.7634 253.006C72.7634 252.46 72.9368 252.033 73.2834 251.726C73.6434 251.406 74.0634 251.246 74.5434 251.246C75.0234 251.246 75.4368 251.406 75.7834 251.726C76.1434 252.033 76.3234 252.46 76.3234 253.006ZM78.3447 261.386C78.3447 260.453 78.4847 259.64 78.7647 258.946C79.058 258.24 79.438 257.653 79.9047 257.186C80.3714 256.72 80.9047 256.366 81.5047 256.126C82.118 255.886 82.7447 255.766 83.3847 255.766C84.878 255.766 86.058 256.226 86.9247 257.146C87.7914 258.053 88.2247 259.393 88.2247 261.166C88.2247 261.34 88.218 261.533 88.2047 261.746C88.1914 261.946 88.178 262.126 88.1647 262.286H81.4047C81.4714 262.9 81.758 263.386 82.2647 263.746C82.7714 264.106 83.4514 264.286 84.3047 264.286C84.8514 264.286 85.3847 264.24 85.9047 264.146C86.438 264.04 86.8714 263.913 87.2047 263.766L87.6047 266.186C87.4447 266.266 87.2314 266.346 86.9647 266.426C86.698 266.506 86.398 266.573 86.0647 266.626C85.7447 266.693 85.398 266.746 85.0247 266.786C84.6514 266.826 84.278 266.846 83.9047 266.846C82.958 266.846 82.1314 266.706 81.4247 266.426C80.7314 266.146 80.1514 265.766 79.6847 265.286C79.2314 264.793 78.8914 264.213 78.6647 263.546C78.4514 262.88 78.3447 262.16 78.3447 261.386ZM85.3447 260.246C85.3314 259.993 85.2847 259.746 85.2047 259.506C85.138 259.266 85.0247 259.053 84.8647 258.866C84.718 258.68 84.5247 258.526 84.2847 258.406C84.058 258.286 83.7714 258.226 83.4247 258.226C83.0914 258.226 82.8047 258.286 82.5647 258.406C82.3247 258.513 82.1247 258.66 81.9647 258.846C81.8047 259.033 81.678 259.253 81.5847 259.506C81.5047 259.746 81.4447 259.993 81.4047 260.246H85.3447ZM90.5244 256.406C91.031 256.26 91.6844 256.126 92.4844 256.006C93.2844 255.873 94.1244 255.806 95.0044 255.806C95.8977 255.806 96.6377 255.926 97.2244 256.166C97.8244 256.393 98.2977 256.72 98.6444 257.146C98.991 257.573 99.2377 258.08 99.3844 258.666C99.531 259.253 99.6044 259.906 99.6044 260.626V266.566H96.6244V260.986C96.6244 260.026 96.4977 259.346 96.2444 258.946C95.991 258.546 95.5177 258.346 94.8244 258.346C94.611 258.346 94.3844 258.36 94.1444 258.386C93.9044 258.4 93.691 258.42 93.5044 258.446V266.566H90.5244V256.406ZM102.202 253.426L105.182 252.946V256.046H108.762V258.526H105.182V262.226C105.182 262.853 105.288 263.353 105.502 263.726C105.728 264.1 106.175 264.286 106.842 264.286C107.162 264.286 107.488 264.26 107.822 264.206C108.168 264.14 108.482 264.053 108.762 263.946L109.182 266.266C108.822 266.413 108.422 266.54 107.982 266.646C107.542 266.753 107.002 266.806 106.362 266.806C105.548 266.806 104.875 266.7 104.342 266.486C103.808 266.26 103.382 265.953 103.062 265.566C102.742 265.166 102.515 264.686 102.382 264.126C102.262 263.566 102.202 262.946 102.202 262.266V253.426ZM114.818 264.486C115.111 264.486 115.391 264.48 115.658 264.466C115.924 264.453 116.138 264.433 116.298 264.406V262.146C116.178 262.12 115.998 262.093 115.758 262.066C115.518 262.04 115.298 262.026 115.098 262.026C114.818 262.026 114.551 262.046 114.298 262.086C114.058 262.113 113.844 262.173 113.658 262.266C113.471 262.36 113.324 262.486 113.218 262.646C113.111 262.806 113.058 263.006 113.058 263.246C113.058 263.713 113.211 264.04 113.518 264.226C113.838 264.4 114.271 264.486 114.818 264.486ZM114.578 255.766C115.458 255.766 116.191 255.866 116.778 256.066C117.364 256.266 117.831 256.553 118.178 256.926C118.538 257.3 118.791 257.753 118.938 258.286C119.084 258.82 119.158 259.413 119.158 260.066V266.266C118.731 266.36 118.138 266.466 117.378 266.586C116.618 266.72 115.698 266.786 114.618 266.786C113.938 266.786 113.318 266.726 112.758 266.606C112.211 266.486 111.738 266.293 111.338 266.026C110.938 265.746 110.631 265.386 110.418 264.946C110.204 264.506 110.098 263.966 110.098 263.326C110.098 262.713 110.218 262.193 110.458 261.766C110.711 261.34 111.044 261 111.458 260.746C111.871 260.493 112.344 260.313 112.878 260.206C113.411 260.086 113.964 260.026 114.538 260.026C114.924 260.026 115.264 260.046 115.558 260.086C115.864 260.113 116.111 260.153 116.298 260.206V259.926C116.298 259.42 116.144 259.013 115.838 258.706C115.531 258.4 114.998 258.246 114.238 258.246C113.731 258.246 113.231 258.286 112.738 258.366C112.244 258.433 111.818 258.533 111.458 258.666L111.078 256.266C111.251 256.213 111.464 256.16 111.718 256.106C111.984 256.04 112.271 255.986 112.578 255.946C112.884 255.893 113.204 255.853 113.538 255.826C113.884 255.786 114.231 255.766 114.578 255.766ZM127.012 267.366C127.439 267.58 127.732 267.833 127.892 268.126C128.052 268.42 128.132 268.72 128.132 269.026C128.132 269.666 127.879 270.153 127.372 270.486C126.866 270.82 126.199 270.986 125.372 270.986C125.079 270.986 124.786 270.96 124.492 270.906C124.199 270.866 123.906 270.806 123.612 270.726L123.972 268.986C124.066 269.013 124.232 269.053 124.472 269.106C124.726 269.173 124.972 269.206 125.212 269.206C125.399 269.206 125.559 269.166 125.692 269.086C125.839 269.02 125.919 268.893 125.932 268.706C125.946 268.546 125.879 268.4 125.732 268.266C125.599 268.133 125.379 268.033 125.072 267.966L124.832 267.906C124.886 267.733 124.959 267.533 125.052 267.306C125.146 267.093 125.239 266.893 125.332 266.706C124.639 266.573 124.039 266.346 123.532 266.026C123.039 265.693 122.626 265.293 122.292 264.826C121.972 264.346 121.732 263.806 121.572 263.206C121.426 262.606 121.352 261.973 121.352 261.306C121.352 260.546 121.472 259.833 121.712 259.166C121.966 258.486 122.326 257.9 122.792 257.406C123.259 256.9 123.826 256.5 124.492 256.206C125.159 255.913 125.919 255.766 126.772 255.766C127.332 255.766 127.846 255.82 128.312 255.926C128.779 256.02 129.232 256.16 129.672 256.346L129.052 258.726C128.772 258.62 128.466 258.526 128.132 258.446C127.799 258.366 127.426 258.326 127.012 258.326C126.132 258.326 125.472 258.6 125.032 259.146C124.606 259.693 124.392 260.413 124.392 261.306C124.392 262.253 124.592 262.986 124.992 263.506C125.406 264.026 126.119 264.286 127.132 264.286C127.492 264.286 127.879 264.253 128.292 264.186C128.706 264.12 129.086 264.013 129.433 263.866L129.852 266.306C129.546 266.44 129.166 266.553 128.712 266.646C128.272 266.74 127.786 266.8 127.252 266.826C127.199 266.933 127.152 267.033 127.112 267.126C127.072 267.22 127.039 267.3 127.012 267.366ZM135.365 264.486C135.658 264.486 135.938 264.48 136.205 264.466C136.471 264.453 136.685 264.433 136.845 264.406V262.146C136.725 262.12 136.545 262.093 136.305 262.066C136.065 262.04 135.845 262.026 135.645 262.026C135.365 262.026 135.098 262.046 134.845 262.086C134.605 262.113 134.391 262.173 134.205 262.266C134.018 262.36 133.871 262.486 133.765 262.646C133.658 262.806 133.605 263.006 133.605 263.246C133.605 263.713 133.758 264.04 134.065 264.226C134.385 264.4 134.818 264.486 135.365 264.486ZM135.125 255.766C136.005 255.766 136.738 255.866 137.325 256.066C137.911 256.266 138.378 256.553 138.725 256.926C139.085 257.3 139.338 257.753 139.485 258.286C139.631 258.82 139.705 259.413 139.705 260.066V266.266C139.278 266.36 138.685 266.466 137.925 266.586C137.165 266.72 136.245 266.786 135.165 266.786C134.485 266.786 133.865 266.726 133.305 266.606C132.758 266.486 132.285 266.293 131.885 266.026C131.485 265.746 131.178 265.386 130.965 264.946C130.751 264.506 130.645 263.966 130.645 263.326C130.645 262.713 130.765 262.193 131.005 261.766C131.258 261.34 131.591 261 132.005 260.746C132.418 260.493 132.891 260.313 133.425 260.206C133.958 260.086 134.511 260.026 135.085 260.026C135.471 260.026 135.811 260.046 136.105 260.086C136.411 260.113 136.658 260.153 136.845 260.206V259.926C136.845 259.42 136.691 259.013 136.385 258.706C136.078 258.4 135.545 258.246 134.785 258.246C134.278 258.246 133.778 258.286 133.285 258.366C132.791 258.433 132.365 258.533 132.005 258.666L131.625 256.266C131.798 256.213 132.011 256.16 132.265 256.106C132.531 256.04 132.818 255.986 133.125 255.946C133.431 255.893 133.751 255.853 134.085 255.826C134.431 255.786 134.778 255.766 135.125 255.766ZM139.045 252.386C138.965 252.586 138.851 252.806 138.705 253.046C138.571 253.286 138.405 253.513 138.205 253.726C138.005 253.926 137.778 254.093 137.525 254.226C137.271 254.36 136.991 254.426 136.685 254.426C136.445 254.426 136.218 254.393 136.005 254.326C135.805 254.246 135.605 254.166 135.405 254.086C135.205 253.993 135.005 253.913 134.805 253.846C134.605 253.766 134.398 253.726 134.185 253.726C133.918 253.726 133.698 253.813 133.525 253.986C133.351 254.16 133.211 254.36 133.105 254.586L131.645 253.626C131.725 253.426 131.831 253.206 131.965 252.966C132.111 252.726 132.285 252.506 132.485 252.306C132.685 252.093 132.911 251.92 133.165 251.786C133.418 251.653 133.698 251.586 134.005 251.586C134.245 251.586 134.465 251.626 134.665 251.706C134.878 251.773 135.085 251.853 135.285 251.946C135.485 252.026 135.678 252.106 135.865 252.186C136.065 252.253 136.278 252.286 136.505 252.286C136.771 252.286 136.991 252.2 137.165 252.026C137.338 251.853 137.478 251.653 137.585 251.426L139.045 252.386ZM152.239 261.286C152.239 262.113 152.119 262.873 151.879 263.566C151.639 264.246 151.293 264.833 150.839 265.326C150.386 265.806 149.839 266.18 149.199 266.446C148.573 266.713 147.866 266.846 147.079 266.846C146.306 266.846 145.599 266.713 144.959 266.446C144.333 266.18 143.793 265.806 143.339 265.326C142.886 264.833 142.533 264.246 142.279 263.566C142.026 262.873 141.899 262.113 141.899 261.286C141.899 260.46 142.026 259.706 142.279 259.026C142.546 258.346 142.906 257.766 143.359 257.286C143.826 256.806 144.373 256.433 144.999 256.166C145.639 255.9 146.333 255.766 147.079 255.766C147.839 255.766 148.533 255.9 149.159 256.166C149.799 256.433 150.346 256.806 150.799 257.286C151.253 257.766 151.606 258.346 151.859 259.026C152.113 259.706 152.239 260.46 152.239 261.286ZM149.199 261.286C149.199 260.366 149.013 259.646 148.639 259.126C148.279 258.593 147.759 258.326 147.079 258.326C146.399 258.326 145.873 258.593 145.499 259.126C145.126 259.646 144.939 260.366 144.939 261.286C144.939 262.206 145.126 262.94 145.499 263.486C145.873 264.02 146.399 264.286 147.079 264.286C147.759 264.286 148.279 264.02 148.639 263.486C149.013 262.94 149.199 262.206 149.199 261.286ZM61.3014 292.566C61.0081 292.073 60.6681 291.52 60.2814 290.906C59.9081 290.293 59.5014 289.66 59.0614 289.006C58.6214 288.34 58.1614 287.666 57.6814 286.986C57.2147 286.306 56.7481 285.653 56.2814 285.026C55.8147 284.386 55.3614 283.786 54.9214 283.226C54.4814 282.666 54.0747 282.173 53.7014 281.746V292.566H51.8014V278.706H53.3414C53.9681 279.373 54.6347 280.153 55.3414 281.046C56.0614 281.926 56.7681 282.84 57.4614 283.786C58.1681 284.72 58.8281 285.64 59.4414 286.546C60.0681 287.453 60.5947 288.26 61.0214 288.966V278.706H62.9214V292.566H61.3014ZM74.5122 292.266C74.0855 292.373 73.5189 292.486 72.8122 292.606C72.1189 292.726 71.3122 292.786 70.3922 292.786C69.5922 292.786 68.9189 292.673 68.3722 292.446C67.8255 292.206 67.3855 291.873 67.0522 291.446C66.7189 291.02 66.4789 290.52 66.3322 289.946C66.1855 289.36 66.1122 288.713 66.1122 288.006V282.166H67.9722V287.606C67.9722 288.873 68.1722 289.78 68.5722 290.326C68.9722 290.873 69.6455 291.146 70.5922 291.146C70.7922 291.146 70.9989 291.14 71.2122 291.126C71.4255 291.113 71.6255 291.1 71.8122 291.086C71.9989 291.06 72.1655 291.04 72.3122 291.026C72.4722 291 72.5855 290.973 72.6522 290.946V282.166H74.5122V292.266ZM79.4566 282.166H83.3966V283.726H79.4566V288.526C79.4566 289.046 79.4966 289.48 79.5766 289.826C79.6566 290.16 79.7766 290.426 79.9366 290.626C80.0966 290.813 80.2966 290.946 80.5366 291.026C80.7766 291.106 81.0566 291.146 81.3766 291.146C81.9366 291.146 82.3832 291.086 82.7166 290.966C83.0632 290.833 83.3032 290.74 83.4366 290.686L83.7966 292.226C83.6099 292.32 83.2832 292.433 82.8166 292.566C82.3499 292.713 81.8166 292.786 81.2166 292.786C80.5099 292.786 79.9232 292.7 79.4566 292.526C79.0032 292.34 78.6366 292.066 78.3566 291.706C78.0766 291.346 77.8766 290.906 77.7566 290.386C77.6499 289.853 77.5966 289.24 77.5966 288.546V279.266L79.4566 278.946V282.166ZM89.6034 281.946C89.7634 281.946 89.9434 281.96 90.1434 281.986C90.3568 282 90.5634 282.026 90.7634 282.066C90.9634 282.093 91.1434 282.126 91.3034 282.166C91.4768 282.193 91.6034 282.22 91.6834 282.246L91.3634 283.866C91.2168 283.813 90.9701 283.753 90.6234 283.686C90.2901 283.606 89.8568 283.566 89.3234 283.566C88.9768 283.566 88.6301 283.606 88.2834 283.686C87.9501 283.753 87.7301 283.8 87.6234 283.826V292.566H85.7634V282.606C86.2034 282.446 86.7501 282.3 87.4034 282.166C88.0568 282.02 88.7901 281.946 89.6034 281.946ZM95.3383 292.566H93.4783V282.166H95.3383V292.566ZM94.3983 280.286C94.0649 280.286 93.7783 280.18 93.5383 279.966C93.3116 279.74 93.1983 279.44 93.1983 279.066C93.1983 278.693 93.3116 278.4 93.5383 278.186C93.7783 277.96 94.0649 277.846 94.3983 277.846C94.7316 277.846 95.0116 277.96 95.2383 278.186C95.4783 278.4 95.5983 278.693 95.5983 279.066C95.5983 279.44 95.4783 279.74 95.2383 279.966C95.0116 280.18 94.7316 280.286 94.3983 280.286ZM103.057 292.806C102.217 292.806 101.477 292.673 100.837 292.406C100.21 292.14 99.6769 291.766 99.2369 291.286C98.8102 290.806 98.4902 290.24 98.2769 289.586C98.0635 288.92 97.9569 288.186 97.9569 287.386C97.9569 286.586 98.0702 285.853 98.2969 285.186C98.5369 284.52 98.8702 283.946 99.2969 283.466C99.7235 282.973 100.244 282.593 100.857 282.326C101.484 282.046 102.177 281.906 102.937 281.906C103.404 281.906 103.87 281.946 104.337 282.026C104.804 282.106 105.25 282.233 105.677 282.406L105.257 283.986C104.977 283.853 104.65 283.746 104.277 283.666C103.917 283.586 103.53 283.546 103.117 283.546C102.077 283.546 101.277 283.873 100.717 284.526C100.17 285.18 99.8969 286.133 99.8969 287.386C99.8969 287.946 99.9569 288.46 100.077 288.926C100.21 289.393 100.41 289.793 100.677 290.126C100.957 290.46 101.31 290.72 101.737 290.906C102.164 291.08 102.684 291.166 103.297 291.166C103.79 291.166 104.237 291.12 104.637 291.026C105.037 290.933 105.35 290.833 105.577 290.726L105.837 292.286C105.73 292.353 105.577 292.42 105.377 292.486C105.177 292.54 104.95 292.586 104.697 292.626C104.444 292.68 104.17 292.72 103.877 292.746C103.597 292.786 103.324 292.806 103.057 292.806ZM109.694 292.566H107.834V282.166H109.694V292.566ZM108.754 280.286C108.42 280.286 108.134 280.18 107.894 279.966C107.667 279.74 107.554 279.44 107.554 279.066C107.554 278.693 107.667 278.4 107.894 278.186C108.134 277.96 108.42 277.846 108.754 277.846C109.087 277.846 109.367 277.96 109.594 278.186C109.834 278.4 109.954 278.693 109.954 279.066C109.954 279.44 109.834 279.74 109.594 279.966C109.367 280.18 109.087 280.286 108.754 280.286ZM122.072 287.366C122.072 288.193 121.952 288.94 121.712 289.606C121.472 290.273 121.132 290.846 120.692 291.326C120.266 291.806 119.752 292.18 119.152 292.446C118.552 292.7 117.899 292.826 117.192 292.826C116.486 292.826 115.832 292.7 115.232 292.446C114.632 292.18 114.112 291.806 113.672 291.326C113.246 290.846 112.912 290.273 112.672 289.606C112.432 288.94 112.312 288.193 112.312 287.366C112.312 286.553 112.432 285.813 112.672 285.146C112.912 284.466 113.246 283.886 113.672 283.406C114.112 282.926 114.632 282.56 115.232 282.306C115.832 282.04 116.486 281.906 117.192 281.906C117.899 281.906 118.552 282.04 119.152 282.306C119.752 282.56 120.266 282.926 120.692 283.406C121.132 283.886 121.472 284.466 121.712 285.146C121.952 285.813 122.072 286.553 122.072 287.366ZM120.132 287.366C120.132 286.193 119.866 285.266 119.332 284.586C118.812 283.893 118.099 283.546 117.192 283.546C116.286 283.546 115.566 283.893 115.032 284.586C114.512 285.266 114.252 286.193 114.252 287.366C114.252 288.54 114.512 289.473 115.032 290.166C115.566 290.846 116.286 291.186 117.192 291.186C118.099 291.186 118.812 290.846 119.332 290.166C119.866 289.473 120.132 288.54 120.132 287.366ZM124.689 282.466C125.116 282.36 125.683 282.246 126.389 282.126C127.096 282.006 127.909 281.946 128.829 281.946C129.656 281.946 130.343 282.066 130.889 282.306C131.436 282.533 131.869 282.86 132.189 283.286C132.523 283.7 132.756 284.2 132.889 284.786C133.023 285.373 133.089 286.02 133.089 286.726V292.566H131.229V287.126C131.229 286.486 131.183 285.94 131.089 285.486C131.009 285.033 130.869 284.666 130.669 284.386C130.469 284.106 130.203 283.906 129.869 283.786C129.536 283.653 129.123 283.586 128.629 283.586C128.429 283.586 128.223 283.593 128.009 283.606C127.796 283.62 127.589 283.64 127.389 283.666C127.203 283.68 127.029 283.7 126.869 283.726C126.723 283.753 126.616 283.773 126.549 283.786V292.566H124.689V282.466ZM139.694 291.226C140.134 291.226 140.52 291.22 140.854 291.206C141.2 291.18 141.487 291.14 141.714 291.086V287.986C141.58 287.92 141.36 287.866 141.054 287.826C140.76 287.773 140.4 287.746 139.974 287.746C139.694 287.746 139.394 287.766 139.074 287.806C138.767 287.846 138.48 287.933 138.214 288.066C137.96 288.186 137.747 288.36 137.574 288.586C137.4 288.8 137.314 289.086 137.314 289.446C137.314 290.113 137.527 290.58 137.954 290.846C138.38 291.1 138.96 291.226 139.694 291.226ZM139.534 281.906C140.28 281.906 140.907 282.006 141.414 282.206C141.934 282.393 142.347 282.666 142.654 283.026C142.974 283.373 143.2 283.793 143.334 284.286C143.467 284.766 143.534 285.3 143.534 285.886V292.386C143.374 292.413 143.147 292.453 142.854 292.506C142.574 292.546 142.254 292.586 141.894 292.626C141.534 292.666 141.14 292.7 140.714 292.726C140.3 292.766 139.887 292.786 139.474 292.786C138.887 292.786 138.347 292.726 137.854 292.606C137.36 292.486 136.934 292.3 136.574 292.046C136.214 291.78 135.934 291.433 135.734 291.006C135.534 290.58 135.434 290.066 135.434 289.466C135.434 288.893 135.547 288.4 135.774 287.986C136.014 287.573 136.334 287.24 136.734 286.986C137.134 286.733 137.6 286.546 138.134 286.426C138.667 286.306 139.227 286.246 139.814 286.246C140 286.246 140.194 286.26 140.394 286.286C140.594 286.3 140.78 286.326 140.954 286.366C141.14 286.393 141.3 286.42 141.434 286.446C141.567 286.473 141.66 286.493 141.714 286.506V285.986C141.714 285.68 141.68 285.38 141.614 285.086C141.547 284.78 141.427 284.513 141.254 284.286C141.08 284.046 140.84 283.86 140.534 283.726C140.24 283.58 139.854 283.506 139.374 283.506C138.76 283.506 138.22 283.553 137.754 283.646C137.3 283.726 136.96 283.813 136.734 283.906L136.514 282.366C136.754 282.26 137.154 282.16 137.714 282.066C138.274 281.96 138.88 281.906 139.534 281.906ZM149.743 292.766C148.596 292.74 147.783 292.493 147.303 292.026C146.823 291.56 146.583 290.833 146.583 289.846V277.366L148.443 277.046V289.546C148.443 289.853 148.469 290.106 148.523 290.306C148.576 290.506 148.663 290.666 148.783 290.786C148.903 290.906 149.063 291 149.263 291.066C149.463 291.12 149.709 291.166 150.003 291.206L149.743 292.766Z" fill="white"/>
<path d="M45.0397 325.855C45.0397 326.303 44.9971 326.735 44.9117 327.151C44.8371 327.557 44.7571 327.978 44.6717 328.415C45.0557 328.202 45.4344 327.994 45.8077 327.791C46.1811 327.589 46.5864 327.413 47.0237 327.263L47.1197 327.231L47.5677 328.575L47.4397 328.623C47.0131 328.783 46.5864 328.89 46.1597 328.943C45.7331 328.986 45.2957 329.023 44.8477 329.055C45.1997 329.354 45.5304 329.647 45.8397 329.935C46.1491 330.213 46.4371 330.538 46.7037 330.911L46.7837 331.023L45.6157 331.839L45.5517 331.743C45.2957 331.359 45.0717 330.981 44.8797 330.607C44.6984 330.223 44.5117 329.829 44.3197 329.423C44.1277 329.829 43.9357 330.223 43.7437 330.607C43.5624 330.981 43.3437 331.359 43.0877 331.743L43.0237 331.839L41.8557 331.023L41.9357 330.911C42.2024 330.538 42.4904 330.213 42.7997 329.935C43.1091 329.647 43.4397 329.354 43.7917 329.055C43.3437 329.023 42.9064 328.986 42.4797 328.943C42.0531 328.89 41.6264 328.783 41.1997 328.623L41.0717 328.575L41.5197 327.231L41.6157 327.263C42.0531 327.413 42.4584 327.589 42.8317 327.791C43.2051 327.994 43.5837 328.202 43.9677 328.415C43.8824 327.978 43.7971 327.557 43.7117 327.151C43.6371 326.735 43.5997 326.303 43.5997 325.855V325.727H45.0397V325.855ZM52.4872 325.615C54.0446 325.615 55.2392 325.914 56.0712 326.511C56.9139 327.098 57.3352 327.978 57.3352 329.151C57.3352 329.791 57.2179 330.341 56.9832 330.799C56.7592 331.247 56.4286 331.615 55.9912 331.903C55.5646 332.181 55.0419 332.383 54.4232 332.511C53.8046 332.639 53.1059 332.703 52.3272 332.703H51.0952V336.815H49.5432V325.887C49.9806 325.781 50.4659 325.711 50.9992 325.679C51.5432 325.637 52.0392 325.615 52.4872 325.615ZM52.6152 326.975C51.9539 326.975 51.4472 326.991 51.0952 327.023V331.375H52.2632C52.7966 331.375 53.2766 331.343 53.7032 331.279C54.1299 331.205 54.4872 331.087 54.7752 330.927C55.0739 330.757 55.3032 330.527 55.4632 330.239C55.6232 329.951 55.7032 329.583 55.7032 329.135C55.7032 328.709 55.6179 328.357 55.4472 328.079C55.2872 327.802 55.0632 327.583 54.7752 327.423C54.4979 327.253 54.1726 327.135 53.7992 327.071C53.4259 327.007 53.0312 326.975 52.6152 326.975ZM61.6776 336.975C60.7603 336.954 60.1096 336.757 59.7256 336.383C59.3416 336.01 59.1496 335.429 59.1496 334.639V324.655L60.6376 324.399V334.399C60.6376 334.645 60.6589 334.847 60.7016 335.007C60.7443 335.167 60.8136 335.295 60.9096 335.391C61.0056 335.487 61.1336 335.562 61.2936 335.615C61.4536 335.658 61.6509 335.695 61.8856 335.727L61.6776 336.975ZM66.3726 335.743C66.7246 335.743 67.0339 335.738 67.3006 335.727C67.5779 335.706 67.8073 335.674 67.9886 335.631V333.151C67.8819 333.098 67.7059 333.055 67.4606 333.023C67.2259 332.981 66.9379 332.959 66.5966 332.959C66.3726 332.959 66.1326 332.975 65.8766 333.007C65.6313 333.039 65.4019 333.109 65.1886 333.215C64.9859 333.311 64.8153 333.45 64.6766 333.631C64.5379 333.802 64.4686 334.031 64.4686 334.319C64.4686 334.853 64.6393 335.226 64.9806 335.439C65.3219 335.642 65.7859 335.743 66.3726 335.743ZM66.2446 328.287C66.8419 328.287 67.3433 328.367 67.7486 328.527C68.1646 328.677 68.4953 328.895 68.7406 329.183C68.9966 329.461 69.1779 329.797 69.2846 330.191C69.3913 330.575 69.4446 331.002 69.4446 331.471V336.671C69.3166 336.693 69.1353 336.725 68.9006 336.767C68.6766 336.799 68.4206 336.831 68.1326 336.863C67.8446 336.895 67.5299 336.922 67.1886 336.943C66.8579 336.975 66.5273 336.991 66.1966 336.991C65.7273 336.991 65.2953 336.943 64.9006 336.847C64.5059 336.751 64.1646 336.602 63.8766 336.399C63.5886 336.186 63.3646 335.909 63.2046 335.567C63.0446 335.226 62.9646 334.815 62.9646 334.335C62.9646 333.877 63.0553 333.482 63.2366 333.151C63.4286 332.821 63.6846 332.554 64.0046 332.351C64.3246 332.149 64.6979 331.999 65.1246 331.903C65.5513 331.807 65.9993 331.759 66.4686 331.759C66.6179 331.759 66.7726 331.77 66.9326 331.791C67.0926 331.802 67.2419 331.823 67.3806 331.855C67.5299 331.877 67.6579 331.898 67.7646 331.919C67.8713 331.941 67.9459 331.957 67.9886 331.967V331.551C67.9886 331.306 67.9619 331.066 67.9086 330.831C67.8553 330.586 67.7593 330.373 67.6206 330.191C67.4819 329.999 67.2899 329.85 67.0446 329.743C66.8099 329.626 66.5006 329.567 66.1166 329.567C65.6259 329.567 65.1939 329.605 64.8206 329.679C64.4579 329.743 64.1859 329.813 64.0046 329.887L63.8286 328.655C64.0206 328.57 64.3406 328.49 64.7886 328.415C65.2366 328.33 65.7219 328.287 66.2446 328.287ZM71.916 328.735C72.2573 328.65 72.7107 328.559 73.276 328.463C73.8413 328.367 74.492 328.319 75.228 328.319C75.8893 328.319 76.4387 328.415 76.876 328.607C77.3133 328.789 77.66 329.05 77.916 329.391C78.1827 329.722 78.3693 330.122 78.476 330.591C78.5827 331.061 78.636 331.578 78.636 332.143V336.815H77.148V332.463C77.148 331.951 77.1107 331.514 77.036 331.151C76.972 330.789 76.86 330.495 76.7 330.271C76.54 330.047 76.3267 329.887 76.06 329.791C75.7933 329.685 75.4627 329.631 75.068 329.631C74.908 329.631 74.7427 329.637 74.572 329.647C74.4013 329.658 74.236 329.674 74.076 329.695C73.9267 329.706 73.788 329.722 73.66 329.743C73.5427 329.765 73.4573 329.781 73.404 329.791V336.815H71.916V328.735ZM88.4475 332.655C88.4475 333.317 88.3515 333.914 88.1595 334.447C87.9675 334.981 87.6955 335.439 87.3435 335.823C87.0022 336.207 86.5915 336.506 86.1115 336.719C85.6315 336.922 85.1088 337.023 84.5435 337.023C83.9782 337.023 83.4555 336.922 82.9755 336.719C82.4955 336.506 82.0795 336.207 81.7275 335.823C81.3862 335.439 81.1195 334.981 80.9275 334.447C80.7355 333.914 80.6395 333.317 80.6395 332.655C80.6395 332.005 80.7355 331.413 80.9275 330.879C81.1195 330.335 81.3862 329.871 81.7275 329.487C82.0795 329.103 82.4955 328.81 82.9755 328.607C83.4555 328.394 83.9782 328.287 84.5435 328.287C85.1088 328.287 85.6315 328.394 86.1115 328.607C86.5915 328.81 87.0022 329.103 87.3435 329.487C87.6955 329.871 87.9675 330.335 88.1595 330.879C88.3515 331.413 88.4475 332.005 88.4475 332.655ZM86.8955 332.655C86.8955 331.717 86.6822 330.975 86.2555 330.431C85.8395 329.877 85.2688 329.599 84.5435 329.599C83.8182 329.599 83.2422 329.877 82.8155 330.431C82.3995 330.975 82.1915 331.717 82.1915 332.655C82.1915 333.594 82.3995 334.341 82.8155 334.895C83.2422 335.439 83.8182 335.711 84.5435 335.711C85.2688 335.711 85.8395 335.439 86.2555 334.895C86.6822 334.341 86.8955 333.594 86.8955 332.655ZM97.2841 325.615C98.8414 325.615 100.036 325.914 100.868 326.511C101.711 327.098 102.132 327.978 102.132 329.151C102.132 329.791 102.015 330.341 101.78 330.799C101.556 331.247 101.225 331.615 100.788 331.903C100.361 332.181 99.8388 332.383 99.2201 332.511C98.6014 332.639 97.9028 332.703 97.1241 332.703H95.8921V336.815H94.3401V325.887C94.7774 325.781 95.2628 325.711 95.7961 325.679C96.3401 325.637 96.8361 325.615 97.2841 325.615ZM97.4121 326.975C96.7508 326.975 96.2441 326.991 95.8921 327.023V331.375H97.0601C97.5934 331.375 98.0734 331.343 98.5001 331.279C98.9268 331.205 99.2841 331.087 99.5721 330.927C99.8708 330.757 100.1 330.527 100.26 330.239C100.42 329.951 100.5 329.583 100.5 329.135C100.5 328.709 100.415 328.357 100.244 328.079C100.084 327.802 99.8601 327.583 99.5721 327.423C99.2948 327.253 98.9694 327.135 98.5961 327.071C98.2228 327.007 97.8281 326.975 97.4121 326.975ZM107.05 328.319C107.178 328.319 107.322 328.33 107.482 328.351C107.653 328.362 107.818 328.383 107.978 328.415C108.138 328.437 108.282 328.463 108.41 328.495C108.549 328.517 108.65 328.538 108.714 328.559L108.458 329.855C108.341 329.813 108.144 329.765 107.866 329.711C107.6 329.647 107.253 329.615 106.826 329.615C106.549 329.615 106.272 329.647 105.994 329.711C105.728 329.765 105.552 329.802 105.466 329.823V336.815H103.978V328.847C104.33 328.719 104.768 328.602 105.29 328.495C105.813 328.378 106.4 328.319 107.05 328.319ZM109.686 332.671C109.686 331.935 109.793 331.295 110.006 330.751C110.22 330.197 110.502 329.738 110.854 329.375C111.206 329.013 111.612 328.741 112.07 328.559C112.529 328.378 112.998 328.287 113.478 328.287C114.598 328.287 115.457 328.639 116.054 329.343C116.652 330.037 116.95 331.098 116.95 332.527C116.95 332.591 116.95 332.677 116.95 332.783C116.95 332.879 116.945 332.97 116.934 333.055H111.238C111.302 333.919 111.553 334.575 111.99 335.023C112.428 335.471 113.11 335.695 114.038 335.695C114.561 335.695 114.998 335.653 115.35 335.567C115.713 335.471 115.985 335.381 116.166 335.295L116.374 336.543C116.193 336.639 115.873 336.741 115.414 336.847C114.966 336.954 114.454 337.007 113.878 337.007C113.153 337.007 112.524 336.901 111.99 336.687C111.468 336.463 111.036 336.159 110.694 335.775C110.353 335.391 110.097 334.938 109.926 334.415C109.766 333.882 109.686 333.301 109.686 332.671ZM115.398 331.855C115.409 331.183 115.238 330.634 114.886 330.207C114.545 329.77 114.07 329.551 113.462 329.551C113.121 329.551 112.817 329.621 112.55 329.759C112.294 329.887 112.076 330.058 111.894 330.271C111.713 330.485 111.569 330.73 111.462 331.007C111.366 331.285 111.302 331.567 111.27 331.855H115.398ZM119.088 328.735C119.429 328.65 119.877 328.559 120.432 328.463C120.997 328.367 121.648 328.319 122.384 328.319C122.917 328.319 123.365 328.394 123.728 328.543C124.091 328.682 124.395 328.89 124.64 329.167C124.715 329.114 124.832 329.039 124.992 328.943C125.152 328.847 125.349 328.757 125.584 328.671C125.819 328.575 126.08 328.495 126.368 328.431C126.656 328.357 126.965 328.319 127.296 328.319C127.936 328.319 128.459 328.415 128.864 328.607C129.269 328.789 129.584 329.05 129.808 329.391C130.043 329.733 130.197 330.138 130.272 330.607C130.357 331.077 130.4 331.589 130.4 332.143V336.815H128.912V332.463C128.912 331.973 128.885 331.551 128.832 331.199C128.789 330.847 128.699 330.554 128.56 330.319C128.432 330.085 128.251 329.914 128.016 329.807C127.792 329.69 127.499 329.631 127.136 329.631C126.635 329.631 126.219 329.701 125.888 329.839C125.568 329.967 125.349 330.085 125.232 330.191C125.317 330.469 125.381 330.773 125.424 331.103C125.467 331.434 125.488 331.781 125.488 332.143V336.815H124V332.463C124 331.973 123.973 331.551 123.92 331.199C123.867 330.847 123.771 330.554 123.632 330.319C123.504 330.085 123.323 329.914 123.088 329.807C122.864 329.69 122.576 329.631 122.224 329.631C122.075 329.631 121.915 329.637 121.744 329.647C121.573 329.658 121.408 329.674 121.248 329.695C121.099 329.706 120.96 329.722 120.832 329.743C120.704 329.765 120.619 329.781 120.576 329.791V336.815H119.088V328.735ZM134.357 336.815H132.869V328.495H134.357V336.815ZM133.605 326.991C133.338 326.991 133.109 326.906 132.917 326.735C132.736 326.554 132.645 326.314 132.645 326.015C132.645 325.717 132.736 325.482 132.917 325.311C133.109 325.13 133.338 325.039 133.605 325.039C133.872 325.039 134.096 325.13 134.277 325.311C134.469 325.482 134.565 325.717 134.565 326.015C134.565 326.314 134.469 326.554 134.277 326.735C134.096 326.906 133.872 326.991 133.605 326.991ZM143.54 336.575C143.199 336.661 142.745 336.751 142.18 336.847C141.625 336.943 140.98 336.991 140.244 336.991C139.604 336.991 139.065 336.901 138.628 336.719C138.191 336.527 137.839 336.261 137.572 335.919C137.305 335.578 137.113 335.178 136.996 334.719C136.879 334.25 136.82 333.733 136.82 333.167V328.495H138.308V332.847C138.308 333.861 138.468 334.586 138.788 335.023C139.108 335.461 139.647 335.679 140.404 335.679C140.564 335.679 140.729 335.674 140.9 335.663C141.071 335.653 141.231 335.642 141.38 335.631C141.529 335.61 141.663 335.594 141.78 335.583C141.908 335.562 141.999 335.541 142.052 335.519V328.495H143.54V336.575ZM146.103 328.735C146.445 328.65 146.893 328.559 147.447 328.463C148.013 328.367 148.663 328.319 149.399 328.319C149.933 328.319 150.381 328.394 150.743 328.543C151.106 328.682 151.41 328.89 151.655 329.167C151.73 329.114 151.847 329.039 152.007 328.943C152.167 328.847 152.365 328.757 152.599 328.671C152.834 328.575 153.095 328.495 153.383 328.431C153.671 328.357 153.981 328.319 154.311 328.319C154.951 328.319 155.474 328.415 155.879 328.607C156.285 328.789 156.599 329.05 156.823 329.391C157.058 329.733 157.213 330.138 157.287 330.607C157.373 331.077 157.415 331.589 157.415 332.143V336.815H155.927V332.463C155.927 331.973 155.901 331.551 155.847 331.199C155.805 330.847 155.714 330.554 155.575 330.319C155.447 330.085 155.266 329.914 155.031 329.807C154.807 329.69 154.514 329.631 154.151 329.631C153.65 329.631 153.234 329.701 152.903 329.839C152.583 329.967 152.365 330.085 152.247 330.191C152.333 330.469 152.397 330.773 152.439 331.103C152.482 331.434 152.503 331.781 152.503 332.143V336.815H151.015V332.463C151.015 331.973 150.989 331.551 150.935 331.199C150.882 330.847 150.786 330.554 150.647 330.319C150.519 330.085 150.338 329.914 150.103 329.807C149.879 329.69 149.591 329.631 149.239 329.631C149.09 329.631 148.93 329.637 148.759 329.647C148.589 329.658 148.423 329.674 148.263 329.695C148.114 329.706 147.975 329.722 147.847 329.743C147.719 329.765 147.634 329.781 147.591 329.791V336.815H146.103V328.735Z" fill="white"/>
<defs>
<clipPath id="clip0">
<rect width="200.472" height="200.472" fill="white" transform="translate(0.0488281)"/>
</clipPath>
</defs>
</svg>
