<svg width="254" height="346" viewBox="0 0 254 346" fill="none" xmlns="http://www.w3.org/2000/svg">
<circle cx="128.639" cy="100.979" r="92.0688" fill="#00ACE2"/>
<g clip-path="url(#clip0)">
<path d="M228.134 97.2528L204.336 32.6598H187.635V25.9774C187.635 15.7902 179.347 7.50244 169.16 7.50244C158.973 7.50244 150.685 15.7902 150.685 25.9774V32.6598H27.6611V176.528H50.3051C52.6317 185.956 61.1569 192.97 71.2934 192.97C81.4298 192.97 89.955 185.956 92.2816 176.528H163.513C165.84 185.956 174.365 192.97 184.501 192.97C194.638 192.97 203.163 185.956 205.49 176.528H228.134V97.2528ZM177.819 69.6096H205.382L213.781 92.4084H177.819V69.6096ZM162.477 25.9774C162.477 22.2926 165.475 19.2949 169.16 19.2949C172.844 19.2949 175.842 22.2926 175.842 25.9774V32.6598H162.477V25.9774ZM196.113 44.4523L201.037 57.8171H39.4536V44.4523H196.113ZM71.2934 181.177C65.8747 181.177 61.4663 176.768 61.4663 171.35C61.4663 165.931 65.8747 161.523 71.2934 161.523C76.712 161.523 81.1204 165.931 81.1204 171.35C81.1204 176.768 76.712 181.177 71.2934 181.177ZM184.501 181.177C179.083 181.177 174.674 176.768 174.674 171.35C174.674 165.931 179.083 161.523 184.501 161.523C189.92 161.523 194.328 165.931 194.328 171.35C194.328 176.768 189.92 181.177 184.501 181.177ZM205.082 164.736C202.281 156.041 194.116 149.731 184.501 149.731C174.887 149.731 166.722 156.041 163.921 164.736H91.874C89.0729 156.041 80.9078 149.731 71.2934 149.731C61.6789 149.731 53.5138 156.041 50.7127 164.736H39.4536V119.924H77.5827V108.132H39.4536V94.7669H77.5827V82.9744H39.4536V69.6096H166.026V104.201H216.341V117.566H203.369V129.358H216.341V164.736H205.082Z" fill="white"/>
<path d="M140.083 82.9746H103.133V95.5533H90.5542V132.503H103.133V145.082H140.083V132.503H152.661V95.5533H140.083V82.9746ZM140.869 107.346V120.711H128.29V133.289H114.925V120.711H102.347V107.346H114.925V94.7671H128.29V107.346H140.869Z" fill="white"/>
</g>
<path d="M83.472 263.886V266.566H74.212V252.706H77.332V263.886H83.472ZM84.7816 261.386C84.7816 260.453 84.9216 259.64 85.2016 258.946C85.4949 258.24 85.8749 257.653 86.3416 257.186C86.8082 256.72 87.3416 256.366 87.9416 256.126C88.5549 255.886 89.1816 255.766 89.8216 255.766C91.3149 255.766 92.4949 256.226 93.3616 257.146C94.2282 258.053 94.6616 259.393 94.6616 261.166C94.6616 261.34 94.6549 261.533 94.6416 261.746C94.6282 261.946 94.6149 262.126 94.6016 262.286H87.8416C87.9082 262.9 88.1949 263.386 88.7016 263.746C89.2082 264.106 89.8882 264.286 90.7416 264.286C91.2882 264.286 91.8216 264.24 92.3416 264.146C92.8749 264.04 93.3082 263.913 93.6416 263.766L94.0416 266.186C93.8816 266.266 93.6682 266.346 93.4016 266.426C93.1349 266.506 92.8349 266.573 92.5016 266.626C92.1816 266.693 91.8349 266.746 91.4616 266.786C91.0882 266.826 90.7149 266.846 90.3416 266.846C89.3949 266.846 88.5682 266.706 87.8616 266.426C87.1682 266.146 86.5882 265.766 86.1216 265.286C85.6682 264.793 85.3282 264.213 85.1016 263.546C84.8882 262.88 84.7816 262.16 84.7816 261.386ZM91.7816 260.246C91.7682 259.993 91.7216 259.746 91.6416 259.506C91.5749 259.266 91.4616 259.053 91.3016 258.866C91.1549 258.68 90.9616 258.526 90.7216 258.406C90.4949 258.286 90.2082 258.226 89.8616 258.226C89.5282 258.226 89.2416 258.286 89.0016 258.406C88.7616 258.513 88.5616 258.66 88.4016 258.846C88.2416 259.033 88.1149 259.253 88.0216 259.506C87.9416 259.746 87.8816 259.993 87.8416 260.246H91.7816ZM99.8212 266.566C99.1412 265.233 98.4479 263.673 97.7412 261.886C97.0479 260.1 96.3879 258.153 95.7612 256.046H98.9212C99.0546 256.566 99.2079 257.133 99.3812 257.746C99.5679 258.346 99.7546 258.96 99.9412 259.586C100.141 260.2 100.335 260.8 100.521 261.386C100.721 261.973 100.915 262.506 101.101 262.986C101.275 262.506 101.461 261.973 101.661 261.386C101.861 260.8 102.055 260.2 102.241 259.586C102.441 258.96 102.628 258.346 102.801 257.746C102.988 257.133 103.148 256.566 103.281 256.046H106.361C105.735 258.153 105.068 260.1 104.361 261.886C103.668 263.673 102.981 265.233 102.301 266.566H99.8212ZM111.782 264.486C112.075 264.486 112.355 264.48 112.622 264.466C112.889 264.453 113.102 264.433 113.262 264.406V262.146C113.142 262.12 112.962 262.093 112.722 262.066C112.482 262.04 112.262 262.026 112.062 262.026C111.782 262.026 111.515 262.046 111.262 262.086C111.022 262.113 110.809 262.173 110.622 262.266C110.435 262.36 110.289 262.486 110.182 262.646C110.075 262.806 110.022 263.006 110.022 263.246C110.022 263.713 110.175 264.04 110.482 264.226C110.802 264.4 111.235 264.486 111.782 264.486ZM111.542 255.766C112.422 255.766 113.155 255.866 113.742 256.066C114.329 256.266 114.795 256.553 115.142 256.926C115.502 257.3 115.755 257.753 115.902 258.286C116.049 258.82 116.122 259.413 116.122 260.066V266.266C115.695 266.36 115.102 266.466 114.342 266.586C113.582 266.72 112.662 266.786 111.582 266.786C110.902 266.786 110.282 266.726 109.722 266.606C109.175 266.486 108.702 266.293 108.302 266.026C107.902 265.746 107.595 265.386 107.382 264.946C107.169 264.506 107.062 263.966 107.062 263.326C107.062 262.713 107.182 262.193 107.422 261.766C107.675 261.34 108.009 261 108.422 260.746C108.835 260.493 109.309 260.313 109.842 260.206C110.375 260.086 110.929 260.026 111.502 260.026C111.889 260.026 112.229 260.046 112.522 260.086C112.829 260.113 113.075 260.153 113.262 260.206V259.926C113.262 259.42 113.109 259.013 112.802 258.706C112.495 258.4 111.962 258.246 111.202 258.246C110.695 258.246 110.195 258.286 109.702 258.366C109.209 258.433 108.782 258.533 108.422 258.666L108.042 256.266C108.215 256.213 108.429 256.16 108.682 256.106C108.949 256.04 109.235 255.986 109.542 255.946C109.849 255.893 110.169 255.853 110.502 255.826C110.849 255.786 111.195 255.766 111.542 255.766ZM123.121 261.386C123.121 260.453 123.261 259.64 123.541 258.946C123.835 258.24 124.215 257.653 124.681 257.186C125.148 256.72 125.681 256.366 126.281 256.126C126.895 255.886 127.521 255.766 128.161 255.766C129.655 255.766 130.835 256.226 131.701 257.146C132.568 258.053 133.001 259.393 133.001 261.166C133.001 261.34 132.995 261.533 132.981 261.746C132.968 261.946 132.955 262.126 132.941 262.286H126.181C126.248 262.9 126.535 263.386 127.041 263.746C127.548 264.106 128.228 264.286 129.081 264.286C129.628 264.286 130.161 264.24 130.681 264.146C131.215 264.04 131.648 263.913 131.981 263.766L132.381 266.186C132.221 266.266 132.008 266.346 131.741 266.426C131.475 266.506 131.175 266.573 130.841 266.626C130.521 266.693 130.175 266.746 129.801 266.786C129.428 266.826 129.055 266.846 128.681 266.846C127.735 266.846 126.908 266.706 126.201 266.426C125.508 266.146 124.928 265.766 124.461 265.286C124.008 264.793 123.668 264.213 123.441 263.546C123.228 262.88 123.121 262.16 123.121 261.386ZM130.121 260.246C130.108 259.993 130.061 259.746 129.981 259.506C129.915 259.266 129.801 259.053 129.641 258.866C129.495 258.68 129.301 258.526 129.061 258.406C128.835 258.286 128.548 258.226 128.201 258.226C127.868 258.226 127.581 258.286 127.341 258.406C127.101 258.513 126.901 258.66 126.741 258.846C126.581 259.033 126.455 259.253 126.361 259.506C126.281 259.746 126.221 259.993 126.181 260.246H130.121ZM140.006 253.426L142.986 252.946V256.046H146.566V258.526H142.986V262.226C142.986 262.853 143.092 263.353 143.306 263.726C143.532 264.1 143.979 264.286 144.646 264.286C144.966 264.286 145.292 264.26 145.626 264.206C145.972 264.14 146.286 264.053 146.566 263.946L146.986 266.266C146.626 266.413 146.226 266.54 145.786 266.646C145.346 266.753 144.806 266.806 144.166 266.806C143.352 266.806 142.679 266.7 142.146 266.486C141.612 266.26 141.186 265.953 140.866 265.566C140.546 265.166 140.319 264.686 140.186 264.126C140.066 263.566 140.006 262.946 140.006 262.266V253.426ZM155.332 258.686C155.066 258.62 154.752 258.553 154.392 258.486C154.032 258.406 153.646 258.366 153.232 258.366C153.046 258.366 152.819 258.386 152.552 258.426C152.299 258.453 152.106 258.486 151.972 258.526V266.566H148.992V256.606C149.526 256.42 150.152 256.246 150.872 256.086C151.606 255.913 152.419 255.826 153.312 255.826C153.472 255.826 153.666 255.84 153.892 255.866C154.119 255.88 154.346 255.906 154.572 255.946C154.799 255.973 155.026 256.013 155.252 256.066C155.479 256.106 155.672 256.16 155.832 256.226L155.332 258.686ZM161.255 264.486C161.548 264.486 161.828 264.48 162.095 264.466C162.361 264.453 162.575 264.433 162.735 264.406V262.146C162.615 262.12 162.435 262.093 162.195 262.066C161.955 262.04 161.735 262.026 161.535 262.026C161.255 262.026 160.988 262.046 160.735 262.086C160.495 262.113 160.281 262.173 160.095 262.266C159.908 262.36 159.761 262.486 159.655 262.646C159.548 262.806 159.495 263.006 159.495 263.246C159.495 263.713 159.648 264.04 159.955 264.226C160.275 264.4 160.708 264.486 161.255 264.486ZM161.015 255.766C161.895 255.766 162.628 255.866 163.215 256.066C163.801 256.266 164.268 256.553 164.615 256.926C164.975 257.3 165.228 257.753 165.375 258.286C165.521 258.82 165.595 259.413 165.595 260.066V266.266C165.168 266.36 164.575 266.466 163.815 266.586C163.055 266.72 162.135 266.786 161.055 266.786C160.375 266.786 159.755 266.726 159.195 266.606C158.648 266.486 158.175 266.293 157.775 266.026C157.375 265.746 157.068 265.386 156.855 264.946C156.641 264.506 156.535 263.966 156.535 263.326C156.535 262.713 156.655 262.193 156.895 261.766C157.148 261.34 157.481 261 157.895 260.746C158.308 260.493 158.781 260.313 159.315 260.206C159.848 260.086 160.401 260.026 160.975 260.026C161.361 260.026 161.701 260.046 161.995 260.086C162.301 260.113 162.548 260.153 162.735 260.206V259.926C162.735 259.42 162.581 259.013 162.275 258.706C161.968 258.4 161.435 258.246 160.675 258.246C160.168 258.246 159.668 258.286 159.175 258.366C158.681 258.433 158.255 258.533 157.895 258.666L157.515 256.266C157.688 256.213 157.901 256.16 158.155 256.106C158.421 256.04 158.708 255.986 159.015 255.946C159.321 255.893 159.641 255.853 159.975 255.826C160.321 255.786 160.668 255.766 161.015 255.766ZM176.189 258.046C175.949 258.313 175.623 258.673 175.209 259.126C174.809 259.58 174.376 260.08 173.909 260.626C173.443 261.173 172.969 261.746 172.489 262.346C172.023 262.946 171.596 263.526 171.209 264.086H176.289V266.566H167.589V264.806C167.869 264.326 168.203 263.813 168.589 263.266C168.989 262.706 169.403 262.146 169.829 261.586C170.269 261.026 170.703 260.486 171.129 259.966C171.556 259.433 171.949 258.953 172.309 258.526H167.829V256.046H176.189V258.046ZM22.1672 287.386C22.1672 286.466 22.3005 285.666 22.5672 284.986C22.8339 284.293 23.1872 283.72 23.6272 283.266C24.0672 282.813 24.5739 282.473 25.1472 282.246C25.7205 282.02 26.3072 281.906 26.9072 281.906C28.3072 281.906 29.3805 282.346 30.1272 283.226C30.8739 284.093 31.2472 285.42 31.2472 287.206C31.2472 287.286 31.2472 287.393 31.2472 287.526C31.2472 287.646 31.2405 287.76 31.2272 287.866H24.1072C24.1872 288.946 24.5005 289.766 25.0472 290.326C25.5939 290.886 26.4472 291.166 27.6072 291.166C28.2605 291.166 28.8072 291.113 29.2472 291.006C29.7005 290.886 30.0405 290.773 30.2672 290.666L30.5272 292.226C30.3005 292.346 29.9005 292.473 29.3272 292.606C28.7672 292.74 28.1272 292.806 27.4072 292.806C26.5005 292.806 25.7139 292.673 25.0472 292.406C24.3939 292.126 23.8539 291.746 23.4272 291.266C23.0005 290.786 22.6805 290.22 22.4672 289.566C22.2672 288.9 22.1672 288.173 22.1672 287.386ZM29.3072 286.366C29.3205 285.526 29.1072 284.84 28.6672 284.306C28.2405 283.76 27.6472 283.486 26.8872 283.486C26.4605 283.486 26.0805 283.573 25.7472 283.746C25.4272 283.906 25.1539 284.12 24.9272 284.386C24.7005 284.653 24.5205 284.96 24.3872 285.306C24.2672 285.653 24.1872 286.006 24.1472 286.366H29.3072ZM33.9191 282.466C34.3457 282.36 34.9057 282.246 35.5991 282.126C36.3057 282.006 37.1191 281.946 38.0391 281.946C38.7057 281.946 39.2657 282.04 39.7191 282.226C40.1724 282.4 40.5524 282.66 40.8591 283.006C40.9524 282.94 41.0991 282.846 41.2991 282.726C41.4991 282.606 41.7457 282.493 42.0391 282.386C42.3324 282.266 42.6591 282.166 43.0191 282.086C43.3791 281.993 43.7657 281.946 44.1791 281.946C44.9791 281.946 45.6324 282.066 46.1391 282.306C46.6457 282.533 47.0391 282.86 47.3191 283.286C47.6124 283.713 47.8057 284.22 47.8991 284.806C48.0057 285.393 48.0591 286.033 48.0591 286.726V292.566H46.1991V287.126C46.1991 286.513 46.1657 285.986 46.0991 285.546C46.0457 285.106 45.9324 284.74 45.7591 284.446C45.5991 284.153 45.3724 283.94 45.0791 283.806C44.7991 283.66 44.4324 283.586 43.9791 283.586C43.3524 283.586 42.8324 283.673 42.4191 283.846C42.0191 284.006 41.7457 284.153 41.5991 284.286C41.7057 284.633 41.7857 285.013 41.8391 285.426C41.8924 285.84 41.9191 286.273 41.9191 286.726V292.566H40.0591V287.126C40.0591 286.513 40.0257 285.986 39.9591 285.546C39.8924 285.106 39.7724 284.74 39.5991 284.446C39.4391 284.153 39.2124 283.94 38.9191 283.806C38.6391 283.66 38.2791 283.586 37.8391 283.586C37.6524 283.586 37.4524 283.593 37.2391 283.606C37.0257 283.62 36.8191 283.64 36.6191 283.666C36.4324 283.68 36.2591 283.7 36.0991 283.726C35.9391 283.753 35.8324 283.773 35.7791 283.786V292.566H33.9191V282.466ZM60.2945 292.806C59.4545 292.806 58.7145 292.673 58.0745 292.406C57.4479 292.14 56.9145 291.766 56.4745 291.286C56.0479 290.806 55.7279 290.24 55.5145 289.586C55.3012 288.92 55.1945 288.186 55.1945 287.386C55.1945 286.586 55.3079 285.853 55.5345 285.186C55.7745 284.52 56.1079 283.946 56.5345 283.466C56.9612 282.973 57.4812 282.593 58.0945 282.326C58.7212 282.046 59.4145 281.906 60.1745 281.906C60.6412 281.906 61.1079 281.946 61.5745 282.026C62.0412 282.106 62.4879 282.233 62.9145 282.406L62.4945 283.986C62.2145 283.853 61.8879 283.746 61.5145 283.666C61.1545 283.586 60.7679 283.546 60.3545 283.546C59.3145 283.546 58.5145 283.873 57.9545 284.526C57.4079 285.18 57.1345 286.133 57.1345 287.386C57.1345 287.946 57.1945 288.46 57.3145 288.926C57.4479 289.393 57.6479 289.793 57.9145 290.126C58.1945 290.46 58.5479 290.72 58.9745 290.906C59.4012 291.08 59.9212 291.166 60.5345 291.166C61.0279 291.166 61.4745 291.12 61.8745 291.026C62.2745 290.933 62.5879 290.833 62.8145 290.726L63.0745 292.286C62.9679 292.353 62.8145 292.42 62.6145 292.486C62.4145 292.54 62.1879 292.586 61.9345 292.626C61.6812 292.68 61.4079 292.72 61.1145 292.746C60.8345 292.786 60.5612 292.806 60.2945 292.806ZM68.5914 291.226C69.0314 291.226 69.4181 291.22 69.7514 291.206C70.0981 291.18 70.3847 291.14 70.6114 291.086V287.986C70.4781 287.92 70.2581 287.866 69.9514 287.826C69.6581 287.773 69.2981 287.746 68.8714 287.746C68.5914 287.746 68.2914 287.766 67.9714 287.806C67.6647 287.846 67.3781 287.933 67.1114 288.066C66.8581 288.186 66.6447 288.36 66.4714 288.586C66.2981 288.8 66.2114 289.086 66.2114 289.446C66.2114 290.113 66.4247 290.58 66.8514 290.846C67.2781 291.1 67.8581 291.226 68.5914 291.226ZM68.4314 281.906C69.1781 281.906 69.8047 282.006 70.3114 282.206C70.8314 282.393 71.2447 282.666 71.5514 283.026C71.8714 283.373 72.0981 283.793 72.2314 284.286C72.3647 284.766 72.4314 285.3 72.4314 285.886V292.386C72.2714 292.413 72.0447 292.453 71.7514 292.506C71.4714 292.546 71.1514 292.586 70.7914 292.626C70.4314 292.666 70.0381 292.7 69.6114 292.726C69.1981 292.766 68.7847 292.786 68.3714 292.786C67.7847 292.786 67.2447 292.726 66.7514 292.606C66.2581 292.486 65.8314 292.3 65.4714 292.046C65.1114 291.78 64.8314 291.433 64.6314 291.006C64.4314 290.58 64.3314 290.066 64.3314 289.466C64.3314 288.893 64.4447 288.4 64.6714 287.986C64.9114 287.573 65.2314 287.24 65.6314 286.986C66.0314 286.733 66.4981 286.546 67.0314 286.426C67.5647 286.306 68.1247 286.246 68.7114 286.246C68.8981 286.246 69.0914 286.26 69.2914 286.286C69.4914 286.3 69.6781 286.326 69.8514 286.366C70.0381 286.393 70.1981 286.42 70.3314 286.446C70.4647 286.473 70.5581 286.493 70.6114 286.506V285.986C70.6114 285.68 70.5781 285.38 70.5114 285.086C70.4447 284.78 70.3247 284.513 70.1514 284.286C69.9781 284.046 69.7381 283.86 69.4314 283.726C69.1381 283.58 68.7514 283.506 68.2714 283.506C67.6581 283.506 67.1181 283.553 66.6514 283.646C66.1981 283.726 65.8581 283.813 65.6314 283.906L65.4114 282.366C65.6514 282.26 66.0514 282.16 66.6114 282.066C67.1714 281.96 67.7781 281.906 68.4314 281.906ZM77.9406 291.226C78.7006 291.226 79.2606 291.126 79.6206 290.926C79.994 290.726 80.1806 290.406 80.1806 289.966C80.1806 289.513 80.0006 289.153 79.6406 288.886C79.2806 288.62 78.6873 288.32 77.8606 287.986C77.4606 287.826 77.074 287.666 76.7006 287.506C76.3406 287.333 76.0273 287.133 75.7606 286.906C75.494 286.68 75.2806 286.406 75.1206 286.086C74.9606 285.766 74.8806 285.373 74.8806 284.906C74.8806 283.986 75.2206 283.26 75.9006 282.726C76.5806 282.18 77.5073 281.906 78.6806 281.906C78.974 281.906 79.2673 281.926 79.5606 281.966C79.854 281.993 80.1273 282.033 80.3806 282.086C80.634 282.126 80.854 282.173 81.0406 282.226C81.2406 282.28 81.394 282.326 81.5006 282.366L81.1606 283.966C80.9606 283.86 80.6473 283.753 80.2206 283.646C79.794 283.526 79.2806 283.466 78.6806 283.466C78.1606 283.466 77.7073 283.573 77.3206 283.786C76.934 283.986 76.7406 284.306 76.7406 284.746C76.7406 284.973 76.7806 285.173 76.8606 285.346C76.954 285.52 77.0873 285.68 77.2606 285.826C77.4473 285.96 77.674 286.086 77.9406 286.206C78.2073 286.326 78.5273 286.453 78.9006 286.586C79.394 286.773 79.834 286.96 80.2206 287.146C80.6073 287.32 80.934 287.526 81.2006 287.766C81.4806 288.006 81.694 288.3 81.8406 288.646C81.9873 288.98 82.0606 289.393 82.0606 289.886C82.0606 290.846 81.7006 291.573 80.9806 292.066C80.274 292.56 79.2606 292.806 77.9406 292.806C77.0206 292.806 76.3006 292.726 75.7806 292.566C75.2606 292.42 74.9073 292.306 74.7206 292.226L75.0606 290.626C75.274 290.706 75.614 290.826 76.0806 290.986C76.5473 291.146 77.1673 291.226 77.9406 291.226ZM93.6264 287.366C93.6264 288.193 93.5064 288.94 93.2664 289.606C93.0264 290.273 92.6864 290.846 92.2464 291.326C91.8197 291.806 91.3064 292.18 90.7064 292.446C90.1064 292.7 89.4531 292.826 88.7464 292.826C88.0397 292.826 87.3864 292.7 86.7864 292.446C86.1864 292.18 85.6664 291.806 85.2264 291.326C84.7997 290.846 84.4664 290.273 84.2264 289.606C83.9864 288.94 83.8664 288.193 83.8664 287.366C83.8664 286.553 83.9864 285.813 84.2264 285.146C84.4664 284.466 84.7997 283.886 85.2264 283.406C85.6664 282.926 86.1864 282.56 86.7864 282.306C87.3864 282.04 88.0397 281.906 88.7464 281.906C89.4531 281.906 90.1064 282.04 90.7064 282.306C91.3064 282.56 91.8197 282.926 92.2464 283.406C92.6864 283.886 93.0264 284.466 93.2664 285.146C93.5064 285.813 93.6264 286.553 93.6264 287.366ZM91.6864 287.366C91.6864 286.193 91.4197 285.266 90.8864 284.586C90.3664 283.893 89.6531 283.546 88.7464 283.546C87.8397 283.546 87.1197 283.893 86.5864 284.586C86.0664 285.266 85.8064 286.193 85.8064 287.366C85.8064 288.54 86.0664 289.473 86.5864 290.166C87.1197 290.846 87.8397 291.186 88.7464 291.186C89.6531 291.186 90.3664 290.846 90.8864 290.166C91.4197 289.473 91.6864 288.54 91.6864 287.366ZM107.592 284.366C107.366 284.18 107.039 284 106.612 283.826C106.186 283.653 105.719 283.566 105.212 283.566C104.679 283.566 104.219 283.666 103.832 283.866C103.459 284.053 103.152 284.32 102.912 284.666C102.672 285 102.499 285.4 102.392 285.866C102.286 286.333 102.232 286.833 102.232 287.366C102.232 288.58 102.532 289.52 103.132 290.186C103.732 290.84 104.532 291.166 105.532 291.166C106.039 291.166 106.459 291.146 106.792 291.106C107.139 291.053 107.406 291 107.592 290.946V284.366ZM107.592 277.366L109.452 277.046V292.266C109.026 292.386 108.479 292.506 107.812 292.626C107.146 292.746 106.379 292.806 105.512 292.806C104.712 292.806 103.992 292.68 103.352 292.426C102.712 292.173 102.166 291.813 101.712 291.346C101.259 290.88 100.906 290.313 100.652 289.646C100.412 288.966 100.292 288.206 100.292 287.366C100.292 286.566 100.392 285.833 100.592 285.166C100.806 284.5 101.112 283.926 101.512 283.446C101.912 282.966 102.399 282.593 102.972 282.326C103.559 282.06 104.226 281.926 104.972 281.926C105.572 281.926 106.099 282.006 106.552 282.166C107.019 282.326 107.366 282.48 107.592 282.626V277.366ZM112.07 287.386C112.07 286.466 112.203 285.666 112.47 284.986C112.736 284.293 113.09 283.72 113.53 283.266C113.97 282.813 114.476 282.473 115.05 282.246C115.623 282.02 116.21 281.906 116.81 281.906C118.21 281.906 119.283 282.346 120.03 283.226C120.776 284.093 121.15 285.42 121.15 287.206C121.15 287.286 121.15 287.393 121.15 287.526C121.15 287.646 121.143 287.76 121.13 287.866H114.01C114.09 288.946 114.403 289.766 114.95 290.326C115.496 290.886 116.35 291.166 117.51 291.166C118.163 291.166 118.71 291.113 119.15 291.006C119.603 290.886 119.943 290.773 120.17 290.666L120.43 292.226C120.203 292.346 119.803 292.473 119.23 292.606C118.67 292.74 118.03 292.806 117.31 292.806C116.403 292.806 115.616 292.673 114.95 292.406C114.296 292.126 113.756 291.746 113.33 291.266C112.903 290.786 112.583 290.22 112.37 289.566C112.17 288.9 112.07 288.173 112.07 287.386ZM119.21 286.366C119.223 285.526 119.01 284.84 118.57 284.306C118.143 283.76 117.55 283.486 116.79 283.486C116.363 283.486 115.983 283.573 115.65 283.746C115.33 283.906 115.056 284.12 114.83 284.386C114.603 284.653 114.423 284.96 114.29 285.306C114.17 285.653 114.09 286.006 114.05 286.366H119.21ZM127.87 287.386C127.87 286.466 128.004 285.666 128.27 284.986C128.537 284.293 128.89 283.72 129.33 283.266C129.77 282.813 130.277 282.473 130.85 282.246C131.424 282.02 132.01 281.906 132.61 281.906C134.01 281.906 135.084 282.346 135.83 283.226C136.577 284.093 136.95 285.42 136.95 287.206C136.95 287.286 136.95 287.393 136.95 287.526C136.95 287.646 136.944 287.76 136.93 287.866H129.81C129.89 288.946 130.204 289.766 130.75 290.326C131.297 290.886 132.15 291.166 133.31 291.166C133.964 291.166 134.51 291.113 134.95 291.006C135.404 290.886 135.744 290.773 135.97 290.666L136.23 292.226C136.004 292.346 135.604 292.473 135.03 292.606C134.47 292.74 133.83 292.806 133.11 292.806C132.204 292.806 131.417 292.673 130.75 292.406C130.097 292.126 129.557 291.746 129.13 291.266C128.704 290.786 128.384 290.22 128.17 289.566C127.97 288.9 127.87 288.173 127.87 287.386ZM135.01 286.366C135.024 285.526 134.81 284.84 134.37 284.306C133.944 283.76 133.35 283.486 132.59 283.486C132.164 283.486 131.784 283.573 131.45 283.746C131.13 283.906 130.857 284.12 130.63 284.386C130.404 284.653 130.224 284.96 130.09 285.306C129.97 285.653 129.89 286.006 129.85 286.366H135.01ZM139.622 282.466C140.049 282.36 140.609 282.246 141.302 282.126C142.009 282.006 142.822 281.946 143.742 281.946C144.409 281.946 144.969 282.04 145.422 282.226C145.876 282.4 146.256 282.66 146.562 283.006C146.656 282.94 146.802 282.846 147.002 282.726C147.202 282.606 147.449 282.493 147.742 282.386C148.036 282.266 148.362 282.166 148.722 282.086C149.082 281.993 149.469 281.946 149.882 281.946C150.682 281.946 151.336 282.066 151.842 282.306C152.349 282.533 152.742 282.86 153.022 283.286C153.316 283.713 153.509 284.22 153.602 284.806C153.709 285.393 153.762 286.033 153.762 286.726V292.566H151.902V287.126C151.902 286.513 151.869 285.986 151.802 285.546C151.749 285.106 151.636 284.74 151.462 284.446C151.302 284.153 151.076 283.94 150.782 283.806C150.502 283.66 150.136 283.586 149.682 283.586C149.056 283.586 148.536 283.673 148.122 283.846C147.722 284.006 147.449 284.153 147.302 284.286C147.409 284.633 147.489 285.013 147.542 285.426C147.596 285.84 147.622 286.273 147.622 286.726V292.566H145.762V287.126C145.762 286.513 145.729 285.986 145.662 285.546C145.596 285.106 145.476 284.74 145.302 284.446C145.142 284.153 144.916 283.94 144.622 283.806C144.342 283.66 143.982 283.586 143.542 283.586C143.356 283.586 143.156 283.593 142.942 283.606C142.729 283.62 142.522 283.64 142.322 283.666C142.136 283.68 141.962 283.7 141.802 283.726C141.642 283.753 141.536 283.773 141.482 283.786V292.566H139.622V282.466ZM156.269 287.386C156.269 286.466 156.402 285.666 156.669 284.986C156.935 284.293 157.289 283.72 157.729 283.266C158.169 282.813 158.675 282.473 159.249 282.246C159.822 282.02 160.409 281.906 161.009 281.906C162.409 281.906 163.482 282.346 164.229 283.226C164.975 284.093 165.349 285.42 165.349 287.206C165.349 287.286 165.349 287.393 165.349 287.526C165.349 287.646 165.342 287.76 165.329 287.866H158.209C158.289 288.946 158.602 289.766 159.149 290.326C159.695 290.886 160.549 291.166 161.709 291.166C162.362 291.166 162.909 291.113 163.349 291.006C163.802 290.886 164.142 290.773 164.369 290.666L164.629 292.226C164.402 292.346 164.002 292.473 163.429 292.606C162.869 292.74 162.229 292.806 161.509 292.806C160.602 292.806 159.815 292.673 159.149 292.406C158.495 292.126 157.955 291.746 157.529 291.266C157.102 290.786 156.782 290.22 156.569 289.566C156.369 288.9 156.269 288.173 156.269 287.386ZM163.409 286.366C163.422 285.526 163.209 284.84 162.769 284.306C162.342 283.76 161.749 283.486 160.989 283.486C160.562 283.486 160.182 283.573 159.849 283.746C159.529 283.906 159.255 284.12 159.029 284.386C158.802 284.653 158.622 284.96 158.489 285.306C158.369 285.653 158.289 286.006 158.249 286.366H163.409ZM171.861 281.946C172.021 281.946 172.201 281.96 172.401 281.986C172.614 282 172.821 282.026 173.021 282.066C173.221 282.093 173.401 282.126 173.561 282.166C173.734 282.193 173.861 282.22 173.941 282.246L173.621 283.866C173.474 283.813 173.227 283.753 172.881 283.686C172.547 283.606 172.114 283.566 171.581 283.566C171.234 283.566 170.887 283.606 170.541 283.686C170.207 283.753 169.987 283.8 169.881 283.826V292.566H168.021V282.606C168.461 282.446 169.007 282.3 169.661 282.166C170.314 282.02 171.047 281.946 171.861 281.946ZM182.255 291.526C182.095 291.633 181.782 291.773 181.315 291.946C180.862 292.106 180.329 292.186 179.715 292.186C179.089 292.186 178.495 292.086 177.935 291.886C177.389 291.686 176.909 291.38 176.495 290.966C176.082 290.54 175.755 290.013 175.515 289.386C175.275 288.76 175.155 288.013 175.155 287.146C175.155 286.386 175.269 285.693 175.495 285.066C175.722 284.426 176.049 283.88 176.475 283.426C176.915 282.96 177.449 282.6 178.075 282.346C178.702 282.08 179.409 281.946 180.195 281.946C181.062 281.946 181.815 282.013 182.455 282.146C183.109 282.266 183.655 282.38 184.095 282.486V291.766C184.095 293.366 183.682 294.526 182.855 295.246C182.029 295.966 180.775 296.326 179.095 296.326C178.442 296.326 177.822 296.273 177.235 296.166C176.662 296.06 176.162 295.933 175.735 295.786L176.075 294.166C176.449 294.313 176.902 294.44 177.435 294.546C177.982 294.666 178.549 294.726 179.135 294.726C180.242 294.726 181.035 294.506 181.515 294.066C182.009 293.626 182.255 292.926 182.255 291.966V291.526ZM182.235 283.806C182.049 283.753 181.795 283.706 181.475 283.666C181.169 283.613 180.749 283.586 180.215 283.586C179.215 283.586 178.442 283.913 177.895 284.566C177.362 285.22 177.095 286.086 177.095 287.166C177.095 287.766 177.169 288.28 177.315 288.706C177.475 289.133 177.682 289.486 177.935 289.766C178.202 290.046 178.502 290.253 178.835 290.386C179.182 290.52 179.535 290.586 179.895 290.586C180.389 290.586 180.842 290.52 181.255 290.386C181.669 290.24 181.995 290.073 182.235 289.886V283.806ZM186.718 287.386C186.718 286.466 186.851 285.666 187.118 284.986C187.385 284.293 187.738 283.72 188.178 283.266C188.618 282.813 189.125 282.473 189.698 282.246C190.271 282.02 190.858 281.906 191.458 281.906C192.858 281.906 193.931 282.346 194.678 283.226C195.425 284.093 195.798 285.42 195.798 287.206C195.798 287.286 195.798 287.393 195.798 287.526C195.798 287.646 195.791 287.76 195.778 287.866H188.658C188.738 288.946 189.051 289.766 189.598 290.326C190.145 290.886 190.998 291.166 192.158 291.166C192.811 291.166 193.358 291.113 193.798 291.006C194.251 290.886 194.591 290.773 194.818 290.666L195.078 292.226C194.851 292.346 194.451 292.473 193.878 292.606C193.318 292.74 192.678 292.806 191.958 292.806C191.051 292.806 190.265 292.673 189.598 292.406C188.945 292.126 188.405 291.746 187.978 291.266C187.551 290.786 187.231 290.22 187.018 289.566C186.818 288.9 186.718 288.173 186.718 287.386ZM193.858 286.366C193.871 285.526 193.658 284.84 193.218 284.306C192.791 283.76 192.198 283.486 191.438 283.486C191.011 283.486 190.631 283.573 190.298 283.746C189.978 283.906 189.705 284.12 189.478 284.386C189.251 284.653 189.071 284.96 188.938 285.306C188.818 285.653 188.738 286.006 188.698 286.366H193.858ZM191.418 277.186L194.138 280.046L193.358 280.926L191.418 279.166L189.478 280.926L188.698 280.046L191.418 277.186ZM198.47 282.466C198.897 282.36 199.463 282.246 200.17 282.126C200.877 282.006 201.69 281.946 202.61 281.946C203.437 281.946 204.123 282.066 204.67 282.306C205.217 282.533 205.65 282.86 205.97 283.286C206.303 283.7 206.537 284.2 206.67 284.786C206.803 285.373 206.87 286.02 206.87 286.726V292.566H205.01V287.126C205.01 286.486 204.963 285.94 204.87 285.486C204.79 285.033 204.65 284.666 204.45 284.386C204.25 284.106 203.983 283.906 203.65 283.786C203.317 283.653 202.903 283.586 202.41 283.586C202.21 283.586 202.003 283.593 201.79 283.606C201.577 283.62 201.37 283.64 201.17 283.666C200.983 283.68 200.81 283.7 200.65 283.726C200.503 283.753 200.397 283.773 200.33 283.786V292.566H198.47V282.466ZM214.474 292.806C213.634 292.806 212.894 292.673 212.254 292.406C211.628 292.14 211.094 291.766 210.654 291.286C210.228 290.806 209.908 290.24 209.694 289.586C209.481 288.92 209.374 288.186 209.374 287.386C209.374 286.586 209.488 285.853 209.714 285.186C209.954 284.52 210.288 283.946 210.714 283.466C211.141 282.973 211.661 282.593 212.274 282.326C212.901 282.046 213.594 281.906 214.354 281.906C214.821 281.906 215.288 281.946 215.754 282.026C216.221 282.106 216.668 282.233 217.094 282.406L216.674 283.986C216.394 283.853 216.068 283.746 215.694 283.666C215.334 283.586 214.948 283.546 214.534 283.546C213.494 283.546 212.694 283.873 212.134 284.526C211.588 285.18 211.314 286.133 211.314 287.386C211.314 287.946 211.374 288.46 211.494 288.926C211.628 289.393 211.828 289.793 212.094 290.126C212.374 290.46 212.728 290.72 213.154 290.906C213.581 291.08 214.101 291.166 214.714 291.166C215.208 291.166 215.654 291.12 216.054 291.026C216.454 290.933 216.768 290.833 216.994 290.726L217.254 292.286C217.148 292.353 216.994 292.42 216.794 292.486C216.594 292.54 216.368 292.586 216.114 292.626C215.861 292.68 215.588 292.72 215.294 292.746C215.014 292.786 214.741 292.806 214.474 292.806ZM221.111 292.566H219.251V282.166H221.111V292.566ZM220.171 280.286C219.838 280.286 219.551 280.18 219.311 279.966C219.084 279.74 218.971 279.44 218.971 279.066C218.971 278.693 219.084 278.4 219.311 278.186C219.551 277.96 219.838 277.846 220.171 277.846C220.504 277.846 220.784 277.96 221.011 278.186C221.251 278.4 221.371 278.693 221.371 279.066C221.371 279.44 221.251 279.74 221.011 279.966C220.784 280.18 220.504 280.286 220.171 280.286ZM227.83 291.226C228.27 291.226 228.656 291.22 228.99 291.206C229.336 291.18 229.623 291.14 229.85 291.086V287.986C229.716 287.92 229.496 287.866 229.19 287.826C228.896 287.773 228.536 287.746 228.11 287.746C227.83 287.746 227.53 287.766 227.21 287.806C226.903 287.846 226.616 287.933 226.35 288.066C226.096 288.186 225.883 288.36 225.71 288.586C225.536 288.8 225.45 289.086 225.45 289.446C225.45 290.113 225.663 290.58 226.09 290.846C226.516 291.1 227.096 291.226 227.83 291.226ZM227.67 281.906C228.416 281.906 229.043 282.006 229.55 282.206C230.07 282.393 230.483 282.666 230.79 283.026C231.11 283.373 231.336 283.793 231.47 284.286C231.603 284.766 231.67 285.3 231.67 285.886V292.386C231.51 292.413 231.283 292.453 230.99 292.506C230.71 292.546 230.39 292.586 230.03 292.626C229.67 292.666 229.276 292.7 228.85 292.726C228.436 292.766 228.023 292.786 227.61 292.786C227.023 292.786 226.483 292.726 225.99 292.606C225.496 292.486 225.07 292.3 224.71 292.046C224.35 291.78 224.07 291.433 223.87 291.006C223.67 290.58 223.57 290.066 223.57 289.466C223.57 288.893 223.683 288.4 223.91 287.986C224.15 287.573 224.47 287.24 224.87 286.986C225.27 286.733 225.736 286.546 226.27 286.426C226.803 286.306 227.363 286.246 227.95 286.246C228.136 286.246 228.33 286.26 228.53 286.286C228.73 286.3 228.916 286.326 229.09 286.366C229.276 286.393 229.436 286.42 229.57 286.446C229.703 286.473 229.796 286.493 229.85 286.506V285.986C229.85 285.68 229.816 285.38 229.75 285.086C229.683 284.78 229.563 284.513 229.39 284.286C229.216 284.046 228.976 283.86 228.67 283.726C228.376 283.58 227.99 283.506 227.51 283.506C226.896 283.506 226.356 283.553 225.89 283.646C225.436 283.726 225.096 283.813 224.87 283.906L224.65 282.366C224.89 282.26 225.29 282.16 225.85 282.066C226.41 281.96 227.016 281.906 227.67 281.906Z" fill="white"/>
<path d="M79.4866 325.855C79.4866 326.303 79.4439 326.735 79.3586 327.151C79.2839 327.557 79.2039 327.978 79.1186 328.415C79.5026 328.202 79.8813 327.994 80.2546 327.791C80.6279 327.589 81.0333 327.413 81.4706 327.263L81.5666 327.231L82.0146 328.575L81.8866 328.623C81.4599 328.783 81.0333 328.89 80.6066 328.943C80.1799 328.986 79.7426 329.023 79.2946 329.055C79.6466 329.354 79.9773 329.647 80.2866 329.935C80.5959 330.213 80.8839 330.538 81.1506 330.911L81.2306 331.023L80.0626 331.839L79.9986 331.743C79.7426 331.359 79.5186 330.981 79.3266 330.607C79.1453 330.223 78.9586 329.829 78.7666 329.423C78.5746 329.829 78.3826 330.223 78.1906 330.607C78.0093 330.981 77.7906 331.359 77.5346 331.743L77.4706 331.839L76.3026 331.023L76.3826 330.911C76.6493 330.538 76.9373 330.213 77.2466 329.935C77.5559 329.647 77.8866 329.354 78.2386 329.055C77.7906 329.023 77.3533 328.986 76.9266 328.943C76.4999 328.89 76.0733 328.783 75.6466 328.623L75.5186 328.575L75.9666 327.231L76.0626 327.263C76.4999 327.413 76.9053 327.589 77.2786 327.791C77.6519 327.994 78.0306 328.202 78.4146 328.415C78.3293 327.978 78.2439 327.557 78.1586 327.151C78.0839 326.735 78.0466 326.303 78.0466 325.855V325.727H79.4866V325.855ZM86.9341 325.615C88.4914 325.615 89.6861 325.914 90.5181 326.511C91.3608 327.098 91.7821 327.978 91.7821 329.151C91.7821 329.791 91.6648 330.341 91.4301 330.799C91.2061 331.247 90.8754 331.615 90.4381 331.903C90.0114 332.181 89.4888 332.383 88.8701 332.511C88.2514 332.639 87.5528 332.703 86.7741 332.703H85.5421V336.815H83.9901V325.887C84.4274 325.781 84.9128 325.711 85.4461 325.679C85.9901 325.637 86.4861 325.615 86.9341 325.615ZM87.0621 326.975C86.4008 326.975 85.8941 326.991 85.5421 327.023V331.375H86.7101C87.2434 331.375 87.7234 331.343 88.1501 331.279C88.5768 331.205 88.9341 331.087 89.2221 330.927C89.5208 330.757 89.7501 330.527 89.9101 330.239C90.0701 329.951 90.1501 329.583 90.1501 329.135C90.1501 328.709 90.0648 328.357 89.8941 328.079C89.7341 327.802 89.5101 327.583 89.2221 327.423C88.9448 327.253 88.6194 327.135 88.2461 327.071C87.8728 327.007 87.4781 326.975 87.0621 326.975ZM96.1245 336.975C95.2071 336.954 94.5565 336.757 94.1725 336.383C93.7885 336.01 93.5965 335.429 93.5965 334.639V324.655L95.0845 324.399V334.399C95.0845 334.645 95.1058 334.847 95.1485 335.007C95.1911 335.167 95.2605 335.295 95.3565 335.391C95.4525 335.487 95.5805 335.562 95.7405 335.615C95.9005 335.658 96.0978 335.695 96.3325 335.727L96.1245 336.975ZM100.819 335.743C101.171 335.743 101.481 335.738 101.747 335.727C102.025 335.706 102.254 335.674 102.435 335.631V333.151C102.329 333.098 102.153 333.055 101.907 333.023C101.673 332.981 101.385 332.959 101.043 332.959C100.819 332.959 100.579 332.975 100.323 333.007C100.078 333.039 99.8488 333.109 99.6355 333.215C99.4328 333.311 99.2621 333.45 99.1235 333.631C98.9848 333.802 98.9155 334.031 98.9155 334.319C98.9155 334.853 99.0861 335.226 99.4275 335.439C99.7688 335.642 100.233 335.743 100.819 335.743ZM100.691 328.287C101.289 328.287 101.79 328.367 102.195 328.527C102.611 328.677 102.942 328.895 103.187 329.183C103.443 329.461 103.625 329.797 103.731 330.191C103.838 330.575 103.891 331.002 103.891 331.471V336.671C103.763 336.693 103.582 336.725 103.347 336.767C103.123 336.799 102.867 336.831 102.579 336.863C102.291 336.895 101.977 336.922 101.635 336.943C101.305 336.975 100.974 336.991 100.643 336.991C100.174 336.991 99.7421 336.943 99.3475 336.847C98.9528 336.751 98.6115 336.602 98.3235 336.399C98.0355 336.186 97.8115 335.909 97.6515 335.567C97.4915 335.226 97.4115 334.815 97.4115 334.335C97.4115 333.877 97.5021 333.482 97.6835 333.151C97.8755 332.821 98.1315 332.554 98.4515 332.351C98.7715 332.149 99.1448 331.999 99.5715 331.903C99.9981 331.807 100.446 331.759 100.915 331.759C101.065 331.759 101.219 331.77 101.379 331.791C101.539 331.802 101.689 331.823 101.827 331.855C101.977 331.877 102.105 331.898 102.211 331.919C102.318 331.941 102.393 331.957 102.435 331.967V331.551C102.435 331.306 102.409 331.066 102.355 330.831C102.302 330.586 102.206 330.373 102.067 330.191C101.929 329.999 101.737 329.85 101.491 329.743C101.257 329.626 100.947 329.567 100.563 329.567C100.073 329.567 99.6408 329.605 99.2675 329.679C98.9048 329.743 98.6328 329.813 98.4515 329.887L98.2755 328.655C98.4675 328.57 98.7875 328.49 99.2355 328.415C99.6835 328.33 100.169 328.287 100.691 328.287ZM106.363 328.735C106.704 328.65 107.158 328.559 107.723 328.463C108.288 328.367 108.939 328.319 109.675 328.319C110.336 328.319 110.886 328.415 111.323 328.607C111.76 328.789 112.107 329.05 112.363 329.391C112.63 329.722 112.816 330.122 112.923 330.591C113.03 331.061 113.083 331.578 113.083 332.143V336.815H111.595V332.463C111.595 331.951 111.558 331.514 111.483 331.151C111.419 330.789 111.307 330.495 111.147 330.271C110.987 330.047 110.774 329.887 110.507 329.791C110.24 329.685 109.91 329.631 109.515 329.631C109.355 329.631 109.19 329.637 109.019 329.647C108.848 329.658 108.683 329.674 108.523 329.695C108.374 329.706 108.235 329.722 108.107 329.743C107.99 329.765 107.904 329.781 107.851 329.791V336.815H106.363V328.735ZM122.894 332.655C122.894 333.317 122.798 333.914 122.606 334.447C122.414 334.981 122.142 335.439 121.79 335.823C121.449 336.207 121.038 336.506 120.558 336.719C120.078 336.922 119.556 337.023 118.99 337.023C118.425 337.023 117.902 336.922 117.422 336.719C116.942 336.506 116.526 336.207 116.174 335.823C115.833 335.439 115.566 334.981 115.374 334.447C115.182 333.914 115.086 333.317 115.086 332.655C115.086 332.005 115.182 331.413 115.374 330.879C115.566 330.335 115.833 329.871 116.174 329.487C116.526 329.103 116.942 328.81 117.422 328.607C117.902 328.394 118.425 328.287 118.99 328.287C119.556 328.287 120.078 328.394 120.558 328.607C121.038 328.81 121.449 329.103 121.79 329.487C122.142 329.871 122.414 330.335 122.606 330.879C122.798 331.413 122.894 332.005 122.894 332.655ZM121.342 332.655C121.342 331.717 121.129 330.975 120.702 330.431C120.286 329.877 119.716 329.599 118.99 329.599C118.265 329.599 117.689 329.877 117.262 330.431C116.846 330.975 116.638 331.717 116.638 332.655C116.638 333.594 116.846 334.341 117.262 334.895C117.689 335.439 118.265 335.711 118.99 335.711C119.716 335.711 120.286 335.439 120.702 334.895C121.129 334.341 121.342 333.594 121.342 332.655ZM131.363 335.711C132.984 335.711 133.795 335.157 133.795 334.047C133.795 333.706 133.72 333.418 133.571 333.183C133.432 332.938 133.24 332.73 132.995 332.559C132.75 332.378 132.467 332.223 132.147 332.095C131.838 331.967 131.507 331.839 131.155 331.711C130.75 331.573 130.366 331.418 130.003 331.247C129.64 331.066 129.326 330.858 129.059 330.623C128.792 330.378 128.579 330.09 128.419 329.759C128.27 329.429 128.195 329.029 128.195 328.559C128.195 327.589 128.526 326.831 129.187 326.287C129.848 325.743 130.76 325.471 131.923 325.471C132.595 325.471 133.203 325.546 133.747 325.695C134.302 325.834 134.707 325.989 134.963 326.159L134.467 327.423C134.243 327.285 133.907 327.151 133.459 327.023C133.022 326.885 132.51 326.815 131.923 326.815C131.624 326.815 131.347 326.847 131.091 326.911C130.835 326.975 130.611 327.071 130.419 327.199C130.227 327.327 130.072 327.493 129.955 327.695C129.848 327.887 129.795 328.117 129.795 328.383C129.795 328.682 129.854 328.933 129.971 329.135C130.088 329.338 130.254 329.519 130.467 329.679C130.68 329.829 130.926 329.967 131.203 330.095C131.491 330.223 131.806 330.351 132.147 330.479C132.627 330.671 133.064 330.863 133.459 331.055C133.864 331.247 134.211 331.477 134.499 331.743C134.798 332.01 135.027 332.33 135.187 332.703C135.347 333.066 135.427 333.509 135.427 334.031C135.427 335.002 135.07 335.749 134.355 336.271C133.651 336.794 132.654 337.055 131.363 337.055C130.926 337.055 130.52 337.023 130.147 336.959C129.784 336.906 129.459 336.842 129.171 336.767C128.883 336.682 128.632 336.597 128.419 336.511C128.216 336.415 128.056 336.335 127.939 336.271L128.403 334.991C128.648 335.13 129.022 335.285 129.523 335.455C130.024 335.626 130.638 335.711 131.363 335.711ZM140.023 335.743C140.375 335.743 140.684 335.738 140.951 335.727C141.228 335.706 141.457 335.674 141.639 335.631V333.151C141.532 333.098 141.356 333.055 141.111 333.023C140.876 332.981 140.588 332.959 140.247 332.959C140.023 332.959 139.783 332.975 139.527 333.007C139.281 333.039 139.052 333.109 138.839 333.215C138.636 333.311 138.465 333.45 138.327 333.631C138.188 333.802 138.119 334.031 138.119 334.319C138.119 334.853 138.289 335.226 138.631 335.439C138.972 335.642 139.436 335.743 140.023 335.743ZM139.895 328.287C140.492 328.287 140.993 328.367 141.399 328.527C141.815 328.677 142.145 328.895 142.391 329.183C142.647 329.461 142.828 329.797 142.935 330.191C143.041 330.575 143.095 331.002 143.095 331.471V336.671C142.967 336.693 142.785 336.725 142.551 336.767C142.327 336.799 142.071 336.831 141.783 336.863C141.495 336.895 141.18 336.922 140.839 336.943C140.508 336.975 140.177 336.991 139.847 336.991C139.377 336.991 138.945 336.943 138.551 336.847C138.156 336.751 137.815 336.602 137.527 336.399C137.239 336.186 137.015 335.909 136.855 335.567C136.695 335.226 136.615 334.815 136.615 334.335C136.615 333.877 136.705 333.482 136.887 333.151C137.079 332.821 137.335 332.554 137.655 332.351C137.975 332.149 138.348 331.999 138.775 331.903C139.201 331.807 139.649 331.759 140.119 331.759C140.268 331.759 140.423 331.77 140.583 331.791C140.743 331.802 140.892 331.823 141.031 331.855C141.18 331.877 141.308 331.898 141.415 331.919C141.521 331.941 141.596 331.957 141.639 331.967V331.551C141.639 331.306 141.612 331.066 141.559 330.831C141.505 330.586 141.409 330.373 141.271 330.191C141.132 329.999 140.94 329.85 140.695 329.743C140.46 329.626 140.151 329.567 139.767 329.567C139.276 329.567 138.844 329.605 138.471 329.679C138.108 329.743 137.836 329.813 137.655 329.887L137.479 328.655C137.671 328.57 137.991 328.49 138.439 328.415C138.887 328.33 139.372 328.287 139.895 328.287ZM152.19 336.575C151.849 336.661 151.395 336.751 150.83 336.847C150.275 336.943 149.63 336.991 148.894 336.991C148.254 336.991 147.715 336.901 147.278 336.719C146.841 336.527 146.489 336.261 146.222 335.919C145.955 335.578 145.763 335.178 145.646 334.719C145.529 334.25 145.47 333.733 145.47 333.167V328.495H146.958V332.847C146.958 333.861 147.118 334.586 147.438 335.023C147.758 335.461 148.297 335.679 149.054 335.679C149.214 335.679 149.379 335.674 149.55 335.663C149.721 335.653 149.881 335.642 150.03 335.631C150.179 335.61 150.313 335.594 150.43 335.583C150.558 335.562 150.649 335.541 150.702 335.519V328.495H152.19V336.575ZM150.766 325.343L148.51 327.535L147.758 326.863L149.806 324.399L150.766 325.343ZM160.129 330.255C159.948 330.106 159.687 329.962 159.345 329.823C159.004 329.685 158.631 329.615 158.225 329.615C157.799 329.615 157.431 329.695 157.121 329.855C156.823 330.005 156.577 330.218 156.385 330.495C156.193 330.762 156.055 331.082 155.969 331.455C155.884 331.829 155.841 332.229 155.841 332.655C155.841 333.626 156.081 334.378 156.561 334.911C157.041 335.434 157.681 335.695 158.481 335.695C158.887 335.695 159.223 335.679 159.489 335.647C159.767 335.605 159.98 335.562 160.129 335.519V330.255ZM160.129 324.655L161.617 324.399V336.575C161.276 336.671 160.839 336.767 160.305 336.863C159.772 336.959 159.159 337.007 158.465 337.007C157.825 337.007 157.249 336.906 156.737 336.703C156.225 336.501 155.788 336.213 155.425 335.839C155.063 335.466 154.78 335.013 154.577 334.479C154.385 333.935 154.289 333.327 154.289 332.655C154.289 332.015 154.369 331.429 154.529 330.895C154.7 330.362 154.945 329.903 155.265 329.519C155.585 329.135 155.975 328.837 156.433 328.623C156.903 328.41 157.436 328.303 158.033 328.303C158.513 328.303 158.935 328.367 159.297 328.495C159.671 328.623 159.948 328.746 160.129 328.863V324.655ZM163.711 332.671C163.711 331.935 163.818 331.295 164.031 330.751C164.245 330.197 164.527 329.738 164.879 329.375C165.231 329.013 165.637 328.741 166.095 328.559C166.554 328.378 167.023 328.287 167.503 328.287C168.623 328.287 169.482 328.639 170.079 329.343C170.677 330.037 170.975 331.098 170.975 332.527C170.975 332.591 170.975 332.677 170.975 332.783C170.975 332.879 170.97 332.97 170.959 333.055H165.263C165.327 333.919 165.578 334.575 166.015 335.023C166.453 335.471 167.135 335.695 168.063 335.695C168.586 335.695 169.023 335.653 169.375 335.567C169.738 335.471 170.01 335.381 170.191 335.295L170.399 336.543C170.218 336.639 169.898 336.741 169.439 336.847C168.991 336.954 168.479 337.007 167.903 337.007C167.178 337.007 166.549 336.901 166.015 336.687C165.493 336.463 165.061 336.159 164.719 335.775C164.378 335.391 164.122 334.938 163.951 334.415C163.791 333.882 163.711 333.301 163.711 332.671ZM169.423 331.855C169.434 331.183 169.263 330.634 168.911 330.207C168.57 329.77 168.095 329.551 167.487 329.551C167.146 329.551 166.842 329.621 166.575 329.759C166.319 329.887 166.101 330.058 165.919 330.271C165.738 330.485 165.594 330.73 165.487 331.007C165.391 331.285 165.327 331.567 165.295 331.855H169.423ZM172.681 331.391H175.705V328.095H176.985V331.391H180.009V332.655H176.985V335.967H175.705V332.655H172.681V331.391Z" fill="white"/>
<defs>
<clipPath id="clip0">
<rect width="200.472" height="200.472" fill="white" transform="translate(27.6621)"/>
</clipPath>
</defs>
</svg>
