<svg width="194" height="277" viewBox="0 0 194 277" fill="none" xmlns="http://www.w3.org/2000/svg">
<circle cx="97.9451" cy="98.0877" r="88.5984" fill="#00ACE2"/>
<g clip-path="url(#clip0)">
<path d="M193.69 172.197V138.52H188.316L175.335 100.35H96.9563L84.086 138.189L66.3653 132.815L78.5741 108.397L39.6603 82.4638L52.2273 57.3296L24.0892 29.219L10.6953 0.915527H0.773926V193.831H193.69V182.532H180.709V172.197H193.69ZM182.39 160.898H167.756V149.847H182.39V160.898ZM109.138 149.819H156.457V160.87H119.114L109.138 149.819ZM105.059 111.677H167.26L176.382 138.547H95.909L105.059 111.677ZM12.0733 123.996L26.7073 138.63V167.898H41.8374L49.1683 182.532H12.0733V123.996ZM61.818 182.532L48.8375 156.599H38.0343V133.972L12.0733 108.011V30.2663L14.6914 35.8333L38.4476 59.5895L25.0813 86.3497L63.9952 112.283L50.2706 139.76L97.8657 154.229L123.441 182.532H61.818ZM169.41 182.532H138.654L129.311 172.197H169.41V182.532Z" fill="white"/>
<path d="M149.123 52.8101H160.422V64.1094H149.123V52.8101Z" fill="white"/>
<path d="M117.515 13.896H128.814V25.1954H117.515V13.896Z" fill="white"/>
<path d="M65.6455 65.791H76.9449V77.0904H65.6455V65.791Z" fill="white"/>
<path d="M128.813 69.2079V47.7115L110.182 36.9634L91.5522 47.7115V69.2079L110.182 79.9561L128.813 69.2079ZM102.879 54.2431L110.21 50.0265L117.541 54.2431V62.7039L110.21 66.9205L102.879 62.7039V54.2431Z" fill="white"/>
<path d="M71.0761 38.1758L81.8242 19.5457L71.0761 0.915527H49.5797L38.8315 19.5457L49.5797 38.1758H71.0761ZM56.0837 12.2149H64.5445L68.7611 19.5457L64.5445 26.8765H56.0837L51.8671 19.5457L56.0837 12.2149Z" fill="white"/>
</g>
<path d="M44.1047 242.695V228.835H53.3847V231.455H47.2247V234.355H52.7047V236.975H47.2247V242.695H44.1047ZM54.6937 237.515C54.6937 236.581 54.8337 235.768 55.1137 235.075C55.4071 234.368 55.7871 233.781 56.2537 233.315C56.7204 232.848 57.2537 232.495 57.8537 232.255C58.4671 232.015 59.0937 231.895 59.7337 231.895C61.2271 231.895 62.4071 232.355 63.2737 233.275C64.1404 234.181 64.5737 235.521 64.5737 237.295C64.5737 237.468 64.5671 237.661 64.5537 237.875C64.5404 238.075 64.5271 238.255 64.5137 238.415H57.7537C57.8204 239.028 58.1071 239.515 58.6137 239.875C59.1204 240.235 59.8004 240.415 60.6537 240.415C61.2004 240.415 61.7337 240.368 62.2537 240.275C62.7871 240.168 63.2204 240.041 63.5537 239.895L63.9537 242.315C63.7937 242.395 63.5804 242.475 63.3137 242.555C63.0471 242.635 62.7471 242.701 62.4137 242.755C62.0937 242.821 61.7471 242.875 61.3737 242.915C61.0004 242.955 60.6271 242.975 60.2537 242.975C59.3071 242.975 58.4804 242.835 57.7737 242.555C57.0804 242.275 56.5004 241.895 56.0337 241.415C55.5804 240.921 55.2404 240.341 55.0137 239.675C54.8004 239.008 54.6937 238.288 54.6937 237.515ZM61.6937 236.375C61.6804 236.121 61.6337 235.875 61.5537 235.635C61.4871 235.395 61.3737 235.181 61.2137 234.995C61.0671 234.808 60.8737 234.655 60.6337 234.535C60.4071 234.415 60.1204 234.355 59.7737 234.355C59.4404 234.355 59.1537 234.415 58.9137 234.535C58.6737 234.641 58.4737 234.788 58.3137 234.975C58.1537 235.161 58.0271 235.381 57.9337 235.635C57.8537 235.875 57.7937 236.121 57.7537 236.375H61.6937ZM66.8734 232.535C67.3801 232.388 68.0334 232.255 68.8334 232.135C69.6334 232.001 70.4734 231.935 71.3534 231.935C72.2468 231.935 72.9868 232.055 73.5734 232.295C74.1734 232.521 74.6468 232.848 74.9934 233.275C75.3401 233.701 75.5868 234.208 75.7334 234.795C75.8801 235.381 75.9534 236.035 75.9534 236.755V242.695H72.9734V237.115C72.9734 236.155 72.8468 235.475 72.5934 235.075C72.3401 234.675 71.8668 234.475 71.1734 234.475C70.9601 234.475 70.7334 234.488 70.4934 234.515C70.2534 234.528 70.0401 234.548 69.8534 234.575V242.695H66.8734V232.535ZM88.4908 237.415C88.4908 238.241 88.3708 239.001 88.1308 239.695C87.8908 240.375 87.5441 240.961 87.0908 241.455C86.6374 241.935 86.0908 242.308 85.4508 242.575C84.8241 242.841 84.1174 242.975 83.3308 242.975C82.5574 242.975 81.8508 242.841 81.2108 242.575C80.5841 242.308 80.0441 241.935 79.5908 241.455C79.1374 240.961 78.7841 240.375 78.5308 239.695C78.2774 239.001 78.1508 238.241 78.1508 237.415C78.1508 236.588 78.2774 235.835 78.5308 235.155C78.7974 234.475 79.1574 233.895 79.6108 233.415C80.0774 232.935 80.6241 232.561 81.2508 232.295C81.8908 232.028 82.5841 231.895 83.3308 231.895C84.0908 231.895 84.7841 232.028 85.4108 232.295C86.0508 232.561 86.5974 232.935 87.0508 233.415C87.5041 233.895 87.8574 234.475 88.1108 235.155C88.3641 235.835 88.4908 236.588 88.4908 237.415ZM85.4508 237.415C85.4508 236.495 85.2641 235.775 84.8908 235.255C84.5308 234.721 84.0108 234.455 83.3308 234.455C82.6508 234.455 82.1241 234.721 81.7508 235.255C81.3774 235.775 81.1908 236.495 81.1908 237.415C81.1908 238.335 81.3774 239.068 81.7508 239.615C82.1241 240.148 82.6508 240.415 83.3308 240.415C84.0108 240.415 84.5308 240.148 84.8908 239.615C85.2641 239.068 85.4508 238.335 85.4508 237.415ZM86.4108 229.795L85.3108 231.115L83.3108 229.575L81.3108 231.115L80.1708 229.795L83.3108 227.055L86.4108 229.795ZM96.5792 237.115C96.5792 236.155 96.4525 235.475 96.1992 235.075C95.9592 234.675 95.5392 234.475 94.9392 234.475C94.7525 234.475 94.5592 234.488 94.3592 234.515C94.1592 234.528 93.9659 234.548 93.7792 234.575V242.695H90.7992V232.535C91.0525 232.468 91.3459 232.401 91.6792 232.335C92.0259 232.255 92.3859 232.188 92.7592 232.135C93.1459 232.068 93.5392 232.021 93.9392 231.995C94.3392 231.955 94.7325 231.935 95.1192 231.935C95.8792 231.935 96.4925 232.035 96.9592 232.235C97.4392 232.421 97.8325 232.648 98.1392 232.915C98.5659 232.608 99.0525 232.368 99.5992 232.195C100.159 232.021 100.673 231.935 101.139 231.935C101.979 231.935 102.666 232.055 103.199 232.295C103.746 232.521 104.179 232.848 104.499 233.275C104.819 233.701 105.039 234.208 105.159 234.795C105.279 235.381 105.339 236.035 105.339 236.755V242.695H102.359V237.115C102.359 236.155 102.233 235.475 101.979 235.075C101.739 234.675 101.319 234.475 100.719 234.475C100.559 234.475 100.333 234.515 100.039 234.595C99.7592 234.675 99.5259 234.775 99.3392 234.895C99.4325 235.201 99.4925 235.528 99.5192 235.875C99.5459 236.208 99.5592 236.568 99.5592 236.955V242.695H96.5792V237.115ZM107.545 237.515C107.545 236.581 107.685 235.768 107.965 235.075C108.259 234.368 108.639 233.781 109.105 233.315C109.572 232.848 110.105 232.495 110.705 232.255C111.319 232.015 111.945 231.895 112.585 231.895C114.079 231.895 115.259 232.355 116.125 233.275C116.992 234.181 117.425 235.521 117.425 237.295C117.425 237.468 117.419 237.661 117.405 237.875C117.392 238.075 117.379 238.255 117.365 238.415H110.605C110.672 239.028 110.959 239.515 111.465 239.875C111.972 240.235 112.652 240.415 113.505 240.415C114.052 240.415 114.585 240.368 115.105 240.275C115.639 240.168 116.072 240.041 116.405 239.895L116.805 242.315C116.645 242.395 116.432 242.475 116.165 242.555C115.899 242.635 115.599 242.701 115.265 242.755C114.945 242.821 114.599 242.875 114.225 242.915C113.852 242.955 113.479 242.975 113.105 242.975C112.159 242.975 111.332 242.835 110.625 242.555C109.932 242.275 109.352 241.895 108.885 241.415C108.432 240.921 108.092 240.341 107.865 239.675C107.652 239.008 107.545 238.288 107.545 237.515ZM114.545 236.375C114.532 236.121 114.485 235.875 114.405 235.635C114.339 235.395 114.225 235.181 114.065 234.995C113.919 234.808 113.725 234.655 113.485 234.535C113.259 234.415 112.972 234.355 112.625 234.355C112.292 234.355 112.005 234.415 111.765 234.535C111.525 234.641 111.325 234.788 111.165 234.975C111.005 235.161 110.879 235.381 110.785 235.635C110.705 235.875 110.645 236.121 110.605 236.375H114.545ZM119.725 232.535C120.232 232.388 120.885 232.255 121.685 232.135C122.485 232.001 123.325 231.935 124.205 231.935C125.098 231.935 125.838 232.055 126.425 232.295C127.025 232.521 127.498 232.848 127.845 233.275C128.192 233.701 128.438 234.208 128.585 234.795C128.732 235.381 128.805 236.035 128.805 236.755V242.695H125.825V237.115C125.825 236.155 125.698 235.475 125.445 235.075C125.192 234.675 124.718 234.475 124.025 234.475C123.812 234.475 123.585 234.488 123.345 234.515C123.105 234.528 122.892 234.548 122.705 234.575V242.695H119.725V232.535ZM141.342 237.415C141.342 238.241 141.222 239.001 140.982 239.695C140.742 240.375 140.396 240.961 139.942 241.455C139.489 241.935 138.942 242.308 138.302 242.575C137.676 242.841 136.969 242.975 136.182 242.975C135.409 242.975 134.702 242.841 134.062 242.575C133.436 242.308 132.896 241.935 132.442 241.455C131.989 240.961 131.636 240.375 131.382 239.695C131.129 239.001 131.002 238.241 131.002 237.415C131.002 236.588 131.129 235.835 131.382 235.155C131.649 234.475 132.009 233.895 132.462 233.415C132.929 232.935 133.476 232.561 134.102 232.295C134.742 232.028 135.436 231.895 136.182 231.895C136.942 231.895 137.636 232.028 138.262 232.295C138.902 232.561 139.449 232.935 139.902 233.415C140.356 233.895 140.709 234.475 140.962 235.155C141.216 235.835 141.342 236.588 141.342 237.415ZM138.302 237.415C138.302 236.495 138.116 235.775 137.742 235.255C137.382 234.721 136.862 234.455 136.182 234.455C135.502 234.455 134.976 234.721 134.602 235.255C134.229 235.775 134.042 236.495 134.042 237.415C134.042 238.335 134.229 239.068 134.602 239.615C134.976 240.148 135.502 240.415 136.182 240.415C136.862 240.415 137.382 240.148 137.742 239.615C138.116 239.068 138.302 238.335 138.302 237.415ZM146.671 240.555C147.217 240.555 147.604 240.501 147.831 240.395C148.057 240.288 148.171 240.081 148.171 239.775C148.171 239.535 148.024 239.328 147.731 239.155C147.437 238.968 146.991 238.761 146.391 238.535C145.924 238.361 145.497 238.181 145.111 237.995C144.737 237.808 144.417 237.588 144.151 237.335C143.884 237.068 143.677 236.755 143.531 236.395C143.384 236.035 143.311 235.601 143.311 235.095C143.311 234.108 143.677 233.328 144.411 232.755C145.144 232.181 146.151 231.895 147.431 231.895C148.071 231.895 148.684 231.955 149.271 232.075C149.857 232.181 150.324 232.301 150.671 232.435L150.151 234.755C149.804 234.635 149.424 234.528 149.011 234.435C148.611 234.341 148.157 234.295 147.651 234.295C146.717 234.295 146.251 234.555 146.251 235.075C146.251 235.195 146.271 235.301 146.311 235.395C146.351 235.488 146.431 235.581 146.551 235.675C146.671 235.755 146.831 235.848 147.031 235.955C147.244 236.048 147.511 236.155 147.831 236.275C148.484 236.515 149.024 236.755 149.451 236.995C149.877 237.221 150.211 237.475 150.451 237.755C150.704 238.021 150.877 238.321 150.971 238.655C151.077 238.988 151.131 239.375 151.131 239.815C151.131 240.855 150.737 241.641 149.951 242.175C149.177 242.708 148.077 242.975 146.651 242.975C145.717 242.975 144.937 242.895 144.311 242.735C143.697 242.575 143.271 242.441 143.031 242.335L143.531 239.915C144.037 240.115 144.557 240.275 145.091 240.395C145.624 240.501 146.151 240.555 146.671 240.555ZM45.1166 260.355C45.1166 261.275 45.3232 262.015 45.7366 262.575C46.1499 263.135 46.7632 263.415 47.5766 263.415C47.8432 263.415 48.0899 263.408 48.3166 263.395C48.5432 263.368 48.7299 263.341 48.8766 263.315V257.895C48.6899 257.775 48.4432 257.675 48.1366 257.595C47.8432 257.515 47.5432 257.475 47.2366 257.475C45.8232 257.475 45.1166 258.435 45.1166 260.355ZM51.8566 265.355C51.5899 265.435 51.2832 265.515 50.9366 265.595C50.5899 265.661 50.2232 265.721 49.8366 265.775C49.4632 265.828 49.0766 265.868 48.6766 265.895C48.2899 265.935 47.9166 265.955 47.5566 265.955C46.6899 265.955 45.9166 265.828 45.2366 265.575C44.5566 265.321 43.9832 264.961 43.5166 264.495C43.0499 264.015 42.6899 263.441 42.4366 262.775C42.1966 262.095 42.0766 261.335 42.0766 260.495C42.0766 259.641 42.1832 258.875 42.3966 258.195C42.6099 257.501 42.9166 256.915 43.3166 256.435C43.7166 255.955 44.2032 255.588 44.7766 255.335C45.3632 255.081 46.0299 254.955 46.7766 254.955C47.1899 254.955 47.5566 254.995 47.8766 255.075C48.2099 255.155 48.5432 255.268 48.8766 255.415V250.655L51.8566 250.175V265.355ZM58.6669 263.615C58.9602 263.615 59.2402 263.608 59.5069 263.595C59.7735 263.581 59.9869 263.561 60.1469 263.535V261.275C60.0269 261.248 59.8469 261.221 59.6069 261.195C59.3669 261.168 59.1469 261.155 58.9469 261.155C58.6669 261.155 58.4002 261.175 58.1469 261.215C57.9069 261.241 57.6935 261.301 57.5069 261.395C57.3202 261.488 57.1735 261.615 57.0669 261.775C56.9602 261.935 56.9069 262.135 56.9069 262.375C56.9069 262.841 57.0602 263.168 57.3669 263.355C57.6869 263.528 58.1202 263.615 58.6669 263.615ZM58.4269 254.895C59.3069 254.895 60.0402 254.995 60.6269 255.195C61.2135 255.395 61.6802 255.681 62.0269 256.055C62.3869 256.428 62.6402 256.881 62.7869 257.415C62.9335 257.948 63.0069 258.541 63.0069 259.195V265.395C62.5802 265.488 61.9869 265.595 61.2269 265.715C60.4669 265.848 59.5469 265.915 58.4669 265.915C57.7869 265.915 57.1669 265.855 56.6069 265.735C56.0602 265.615 55.5869 265.421 55.1869 265.155C54.7869 264.875 54.4802 264.515 54.2669 264.075C54.0535 263.635 53.9469 263.095 53.9469 262.455C53.9469 261.841 54.0669 261.321 54.3069 260.895C54.5602 260.468 54.8935 260.128 55.3069 259.875C55.7202 259.621 56.1935 259.441 56.7269 259.335C57.2602 259.215 57.8135 259.155 58.3869 259.155C58.7735 259.155 59.1135 259.175 59.4069 259.215C59.7135 259.241 59.9602 259.281 60.1469 259.335V259.055C60.1469 258.548 59.9935 258.141 59.6869 257.835C59.3802 257.528 58.8469 257.375 58.0869 257.375C57.5802 257.375 57.0802 257.415 56.5869 257.495C56.0935 257.561 55.6669 257.661 55.3069 257.795L54.9269 255.395C55.1002 255.341 55.3135 255.288 55.5669 255.235C55.8335 255.168 56.1202 255.115 56.4269 255.075C56.7335 255.021 57.0535 254.981 57.3869 254.955C57.7335 254.915 58.0802 254.895 58.4269 254.895ZM70.5062 255.535C71.0129 255.388 71.6662 255.255 72.4662 255.135C73.2662 255.001 74.1062 254.935 74.9862 254.935C75.8796 254.935 76.6196 255.055 77.2062 255.295C77.8062 255.521 78.2796 255.848 78.6262 256.275C78.9729 256.701 79.2196 257.208 79.3662 257.795C79.5129 258.381 79.5862 259.035 79.5862 259.755V265.695H76.6062V260.115C76.6062 259.155 76.4796 258.475 76.2262 258.075C75.9729 257.675 75.4996 257.475 74.8062 257.475C74.5929 257.475 74.3662 257.488 74.1262 257.515C73.8862 257.528 73.6729 257.548 73.4862 257.575V265.695H70.5062V255.535ZM86.3036 263.615C86.5969 263.615 86.8769 263.608 87.1436 263.595C87.4102 263.581 87.6236 263.561 87.7836 263.535V261.275C87.6636 261.248 87.4836 261.221 87.2436 261.195C87.0036 261.168 86.7836 261.155 86.5836 261.155C86.3036 261.155 86.0369 261.175 85.7836 261.215C85.5436 261.241 85.3303 261.301 85.1436 261.395C84.9569 261.488 84.8103 261.615 84.7036 261.775C84.5969 261.935 84.5436 262.135 84.5436 262.375C84.5436 262.841 84.6969 263.168 85.0036 263.355C85.3236 263.528 85.7569 263.615 86.3036 263.615ZM86.0636 254.895C86.9436 254.895 87.6769 254.995 88.2636 255.195C88.8503 255.395 89.3169 255.681 89.6636 256.055C90.0236 256.428 90.2769 256.881 90.4236 257.415C90.5703 257.948 90.6436 258.541 90.6436 259.195V265.395C90.2169 265.488 89.6236 265.595 88.8636 265.715C88.1036 265.848 87.1836 265.915 86.1036 265.915C85.4236 265.915 84.8036 265.855 84.2436 265.735C83.6969 265.615 83.2236 265.421 82.8236 265.155C82.4236 264.875 82.1169 264.515 81.9036 264.075C81.6902 263.635 81.5836 263.095 81.5836 262.455C81.5836 261.841 81.7036 261.321 81.9436 260.895C82.1969 260.468 82.5302 260.128 82.9436 259.875C83.3569 259.621 83.8302 259.441 84.3636 259.335C84.8969 259.215 85.4502 259.155 86.0236 259.155C86.4102 259.155 86.7503 259.175 87.0436 259.215C87.3503 259.241 87.5969 259.281 87.7836 259.335V259.055C87.7836 258.548 87.6303 258.141 87.3236 257.835C87.0169 257.528 86.4836 257.375 85.7236 257.375C85.2169 257.375 84.7169 257.415 84.2236 257.495C83.7302 257.561 83.3036 257.661 82.9436 257.795L82.5636 255.395C82.7369 255.341 82.9502 255.288 83.2036 255.235C83.4702 255.168 83.7569 255.115 84.0636 255.075C84.3702 255.021 84.6902 254.981 85.0236 254.955C85.3702 254.915 85.7169 254.895 86.0636 254.895ZM93.2383 252.555L96.2183 252.075V255.175H99.7983V257.655H96.2183V261.355C96.2183 261.981 96.3249 262.481 96.5383 262.855C96.7649 263.228 97.2116 263.415 97.8783 263.415C98.1983 263.415 98.5249 263.388 98.8583 263.335C99.2049 263.268 99.5183 263.181 99.7983 263.075L100.218 265.395C99.8583 265.541 99.4583 265.668 99.0183 265.775C98.5783 265.881 98.0383 265.935 97.3983 265.935C96.5849 265.935 95.9116 265.828 95.3783 265.615C94.8449 265.388 94.4183 265.081 94.0983 264.695C93.7783 264.295 93.5516 263.815 93.4183 263.255C93.2983 262.695 93.2383 262.075 93.2383 261.395V252.555ZM111.205 265.335C110.698 265.481 110.045 265.615 109.245 265.735C108.445 265.868 107.605 265.935 106.725 265.935C105.832 265.935 105.085 265.815 104.485 265.575C103.898 265.335 103.432 265.001 103.085 264.575C102.738 264.135 102.492 263.615 102.345 263.015C102.198 262.415 102.125 261.755 102.125 261.035V255.175H105.105V260.675C105.105 261.635 105.232 262.328 105.485 262.755C105.738 263.181 106.212 263.395 106.905 263.395C107.118 263.395 107.345 263.388 107.585 263.375C107.825 263.348 108.038 263.321 108.225 263.295V255.175H111.205V265.335ZM120.342 257.815C120.076 257.748 119.762 257.681 119.402 257.615C119.042 257.535 118.656 257.495 118.242 257.495C118.056 257.495 117.829 257.515 117.562 257.555C117.309 257.581 117.116 257.615 116.982 257.655V265.695H114.002V255.735C114.536 255.548 115.162 255.375 115.882 255.215C116.616 255.041 117.429 254.955 118.322 254.955C118.482 254.955 118.676 254.968 118.902 254.995C119.129 255.008 119.356 255.035 119.582 255.075C119.809 255.101 120.036 255.141 120.262 255.195C120.489 255.235 120.682 255.288 120.842 255.355L120.342 257.815ZM121.745 260.515C121.745 259.581 121.885 258.768 122.165 258.075C122.458 257.368 122.838 256.781 123.305 256.315C123.771 255.848 124.305 255.495 124.905 255.255C125.518 255.015 126.145 254.895 126.785 254.895C128.278 254.895 129.458 255.355 130.325 256.275C131.191 257.181 131.625 258.521 131.625 260.295C131.625 260.468 131.618 260.661 131.605 260.875C131.591 261.075 131.578 261.255 131.565 261.415H124.805C124.871 262.028 125.158 262.515 125.665 262.875C126.171 263.235 126.851 263.415 127.705 263.415C128.251 263.415 128.785 263.368 129.305 263.275C129.838 263.168 130.271 263.041 130.605 262.895L131.005 265.315C130.845 265.395 130.631 265.475 130.365 265.555C130.098 265.635 129.798 265.701 129.465 265.755C129.145 265.821 128.798 265.875 128.425 265.915C128.051 265.955 127.678 265.975 127.305 265.975C126.358 265.975 125.531 265.835 124.825 265.555C124.131 265.275 123.551 264.895 123.085 264.415C122.631 263.921 122.291 263.341 122.065 262.675C121.851 262.008 121.745 261.288 121.745 260.515ZM128.745 259.375C128.731 259.121 128.685 258.875 128.605 258.635C128.538 258.395 128.425 258.181 128.265 257.995C128.118 257.808 127.925 257.655 127.685 257.535C127.458 257.415 127.171 257.355 126.825 257.355C126.491 257.355 126.205 257.415 125.965 257.535C125.725 257.641 125.525 257.788 125.365 257.975C125.205 258.161 125.078 258.381 124.985 258.635C124.905 258.875 124.845 259.121 124.805 259.375H128.745ZM141.824 257.175C141.584 257.441 141.258 257.801 140.844 258.255C140.444 258.708 140.011 259.208 139.544 259.755C139.078 260.301 138.604 260.875 138.124 261.475C137.658 262.075 137.231 262.655 136.844 263.215H141.924V265.695H133.224V263.935C133.504 263.455 133.838 262.941 134.224 262.395C134.624 261.835 135.038 261.275 135.464 260.715C135.904 260.155 136.338 259.615 136.764 259.095C137.191 258.561 137.584 258.081 137.944 257.655H133.464V255.175H141.824V257.175ZM147.651 263.615C147.945 263.615 148.225 263.608 148.491 263.595C148.758 263.581 148.971 263.561 149.131 263.535V261.275C149.011 261.248 148.831 261.221 148.591 261.195C148.351 261.168 148.131 261.155 147.931 261.155C147.651 261.155 147.385 261.175 147.131 261.215C146.891 261.241 146.678 261.301 146.491 261.395C146.305 261.488 146.158 261.615 146.051 261.775C145.945 261.935 145.891 262.135 145.891 262.375C145.891 262.841 146.045 263.168 146.351 263.355C146.671 263.528 147.105 263.615 147.651 263.615ZM147.411 254.895C148.291 254.895 149.025 254.995 149.611 255.195C150.198 255.395 150.665 255.681 151.011 256.055C151.371 256.428 151.625 256.881 151.771 257.415C151.918 257.948 151.991 258.541 151.991 259.195V265.395C151.565 265.488 150.971 265.595 150.211 265.715C149.451 265.848 148.531 265.915 147.451 265.915C146.771 265.915 146.151 265.855 145.591 265.735C145.045 265.615 144.571 265.421 144.171 265.155C143.771 264.875 143.465 264.515 143.251 264.075C143.038 263.635 142.931 263.095 142.931 262.455C142.931 261.841 143.051 261.321 143.291 260.895C143.545 260.468 143.878 260.128 144.291 259.875C144.705 259.621 145.178 259.441 145.711 259.335C146.245 259.215 146.798 259.155 147.371 259.155C147.758 259.155 148.098 259.175 148.391 259.215C148.698 259.241 148.945 259.281 149.131 259.335V259.055C149.131 258.548 148.978 258.141 148.671 257.835C148.365 257.528 147.831 257.375 147.071 257.375C146.565 257.375 146.065 257.415 145.571 257.495C145.078 257.561 144.651 257.661 144.291 257.795L143.911 255.395C144.085 255.341 144.298 255.288 144.551 255.235C144.818 255.168 145.105 255.115 145.411 255.075C145.718 255.021 146.038 254.981 146.371 254.955C146.718 254.915 147.065 254.895 147.411 254.895Z" fill="white"/>
<defs>
<clipPath id="clip0">
<rect width="192.916" height="192.916" fill="white" transform="translate(0.773926 0.915527)"/>
</clipPath>
</defs>
</svg>
