<svg width="201" height="346" viewBox="0 0 201 346" fill="none" xmlns="http://www.w3.org/2000/svg">
<circle cx="101.456" cy="100.979" r="92.0688" fill="#00ACE2"/>
<g clip-path="url(#clip0)">
<path d="M141.825 11.5812V0H59.6003V11.5812H22.4033V200.472H179.022V11.5812H141.825ZM71.3468 11.7464H130.079V23.3276H71.3468V11.7464ZM167.276 188.726H34.1497V23.3276H59.6003V35.0741H141.825V23.3276H167.276V188.726Z" fill="white"/>
<path d="M81.1353 48.7783H45.896V84.0176H81.1353V48.7783ZM69.3889 72.2712H57.6424V60.5247H69.3889V72.2712Z" fill="white"/>
<path d="M100.663 60.5244H155.529V72.2708H100.663V60.5244Z" fill="white"/>
<path d="M81.1353 97.3301H45.896V132.569H81.1353V97.3301ZM69.3889 120.823H57.6424V109.077H69.3889V120.823Z" fill="white"/>
<path d="M100.663 109.076H155.529V120.823H100.663V109.076Z" fill="white"/>
<path d="M100.663 156.845H155.529V168.591H100.663V156.845Z" fill="white"/>
<path d="M58.8172 162.635L51.2235 155.042L42.918 163.348L58.8172 179.247L84.505 153.559L76.1995 145.253L58.8172 162.635Z" fill="white"/>
</g>
<path d="M28.5258 266.846C26.2724 266.846 24.5524 266.22 23.3658 264.966C22.1924 263.713 21.6058 261.933 21.6058 259.626C21.6058 258.48 21.7858 257.46 22.1458 256.566C22.5058 255.66 22.9991 254.9 23.6258 254.286C24.2524 253.66 24.9991 253.186 25.8658 252.866C26.7324 252.546 27.6724 252.386 28.6858 252.386C29.2724 252.386 29.8058 252.433 30.2858 252.526C30.7658 252.606 31.1858 252.706 31.5458 252.826C31.9058 252.933 32.2058 253.046 32.4458 253.166C32.6858 253.286 32.8591 253.38 32.9658 253.446L32.0658 255.966C31.6391 255.74 31.1391 255.546 30.5658 255.386C30.0058 255.226 29.3658 255.146 28.6458 255.146C28.1658 255.146 27.6924 255.226 27.2258 255.386C26.7724 255.546 26.3658 255.806 26.0058 256.166C25.6591 256.513 25.3791 256.966 25.1658 257.526C24.9524 258.086 24.8458 258.766 24.8458 259.566C24.8458 260.206 24.9124 260.806 25.0458 261.366C25.1924 261.913 25.4191 262.386 25.7258 262.786C26.0458 263.186 26.4591 263.506 26.9658 263.746C27.4724 263.973 28.0858 264.086 28.8058 264.086C29.2591 264.086 29.6658 264.06 30.0258 264.006C30.3858 263.953 30.7058 263.893 30.9858 263.826C31.2658 263.746 31.5124 263.66 31.7258 263.566C31.9391 263.473 32.1324 263.386 32.3058 263.306L33.1658 265.806C32.7258 266.073 32.1058 266.313 31.3058 266.526C30.5058 266.74 29.5791 266.846 28.5258 266.846ZM34.9745 266.566V251.526L37.9545 251.046V256.086C38.1545 256.02 38.4079 255.96 38.7145 255.906C39.0345 255.84 39.3412 255.806 39.6345 255.806C40.4879 255.806 41.1945 255.926 41.7545 256.166C42.3279 256.393 42.7812 256.72 43.1145 257.146C43.4612 257.573 43.7012 258.08 43.8345 258.666C43.9812 259.253 44.0545 259.906 44.0545 260.626V266.566H41.0745V260.986C41.0745 260.026 40.9479 259.346 40.6945 258.946C40.4545 258.546 40.0012 258.346 39.3345 258.346C39.0679 258.346 38.8145 258.373 38.5745 258.426C38.3479 258.466 38.1412 258.513 37.9545 258.566V266.566H34.9745ZM46.2519 261.386C46.2519 260.453 46.3919 259.64 46.6719 258.946C46.9652 258.24 47.3452 257.653 47.8119 257.186C48.2785 256.72 48.8119 256.366 49.4119 256.126C50.0252 255.886 50.6519 255.766 51.2919 255.766C52.7852 255.766 53.9652 256.226 54.8319 257.146C55.6985 258.053 56.1319 259.393 56.1319 261.166C56.1319 261.34 56.1252 261.533 56.1119 261.746C56.0985 261.946 56.0852 262.126 56.0719 262.286H49.3119C49.3785 262.9 49.6652 263.386 50.1719 263.746C50.6785 264.106 51.3585 264.286 52.2119 264.286C52.7585 264.286 53.2919 264.24 53.8119 264.146C54.3452 264.04 54.7785 263.913 55.1119 263.766L55.5119 266.186C55.3519 266.266 55.1385 266.346 54.8719 266.426C54.6052 266.506 54.3052 266.573 53.9719 266.626C53.6519 266.693 53.3052 266.746 52.9319 266.786C52.5585 266.826 52.1852 266.846 51.8119 266.846C50.8652 266.846 50.0385 266.706 49.3319 266.426C48.6385 266.146 48.0585 265.766 47.5919 265.286C47.1385 264.793 46.7985 264.213 46.5719 263.546C46.3585 262.88 46.2519 262.16 46.2519 261.386ZM53.2519 260.246C53.2385 259.993 53.1919 259.746 53.1119 259.506C53.0452 259.266 52.9319 259.053 52.7719 258.866C52.6252 258.68 52.4319 258.526 52.1919 258.406C51.9652 258.286 51.6785 258.226 51.3319 258.226C50.9985 258.226 50.7119 258.286 50.4719 258.406C50.2319 258.513 50.0319 258.66 49.8719 258.846C49.7119 259.033 49.5852 259.253 49.4919 259.506C49.4119 259.746 49.3519 259.993 49.3119 260.246H53.2519ZM57.9316 261.306C57.9316 260.546 58.0516 259.833 58.2916 259.166C58.5449 258.486 58.9049 257.9 59.3716 257.406C59.8382 256.9 60.4049 256.5 61.0716 256.206C61.7382 255.913 62.4982 255.766 63.3516 255.766C63.9116 255.766 64.4249 255.82 64.8916 255.926C65.3582 256.02 65.8116 256.16 66.2516 256.346L65.6316 258.726C65.3516 258.62 65.0449 258.526 64.7116 258.446C64.3782 258.366 64.0049 258.326 63.5916 258.326C62.7116 258.326 62.0516 258.6 61.6116 259.146C61.1849 259.693 60.9716 260.413 60.9716 261.306C60.9716 262.253 61.1716 262.986 61.5716 263.506C61.9849 264.026 62.6982 264.286 63.7116 264.286C64.0716 264.286 64.4582 264.253 64.8716 264.186C65.2849 264.12 65.6649 264.013 66.0116 263.866L66.4316 266.306C66.0849 266.453 65.6516 266.58 65.1316 266.686C64.6116 266.793 64.0382 266.846 63.4116 266.846C62.4516 266.846 61.6249 266.706 60.9316 266.426C60.2382 266.133 59.6649 265.74 59.2116 265.246C58.7716 264.753 58.4449 264.173 58.2316 263.506C58.0316 262.826 57.9316 262.093 57.9316 261.306ZM71.4116 259.846C71.7049 259.526 72.0049 259.193 72.3116 258.846C72.6316 258.5 72.9382 258.16 73.2316 257.826C73.5249 257.48 73.7982 257.153 74.0516 256.846C74.3182 256.54 74.5449 256.273 74.7316 256.046H78.2716C77.5649 256.86 76.8716 257.64 76.1916 258.386C75.5249 259.12 74.7916 259.88 73.9916 260.666C74.3916 261.026 74.8049 261.46 75.2316 261.966C75.6582 262.46 76.0716 262.973 76.4716 263.506C76.8716 264.04 77.2382 264.573 77.5716 265.106C77.9049 265.64 78.1849 266.126 78.4116 266.566H74.9916C74.7782 266.22 74.5316 265.84 74.2516 265.426C73.9849 265 73.6982 264.58 73.3916 264.166C73.0849 263.74 72.7582 263.333 72.4116 262.946C72.0782 262.56 71.7449 262.233 71.4116 261.966V266.566H68.4316V251.526L71.4116 251.046V259.846ZM78.2347 259.246H84.0347V261.946H78.2347V259.246ZM94.9116 266.206C94.4049 266.353 93.7516 266.486 92.9516 266.606C92.1516 266.74 91.3116 266.806 90.4316 266.806C89.5382 266.806 88.7916 266.686 88.1916 266.446C87.6049 266.206 87.1382 265.873 86.7916 265.446C86.4449 265.006 86.1982 264.486 86.0516 263.886C85.9049 263.286 85.8316 262.626 85.8316 261.906V256.046H88.8116V261.546C88.8116 262.506 88.9382 263.2 89.1916 263.626C89.4449 264.053 89.9182 264.266 90.6116 264.266C90.8249 264.266 91.0516 264.26 91.2916 264.246C91.5316 264.22 91.7449 264.193 91.9316 264.166V256.046H94.9116V266.206ZM104.449 261.386C104.449 260.466 104.242 259.733 103.829 259.186C103.416 258.626 102.802 258.346 101.989 258.346C101.722 258.346 101.476 258.36 101.249 258.386C101.022 258.4 100.836 258.42 100.689 258.446V263.826C100.876 263.946 101.116 264.046 101.409 264.126C101.716 264.206 102.022 264.246 102.329 264.246C103.742 264.246 104.449 263.293 104.449 261.386ZM107.489 261.306C107.489 262.12 107.389 262.86 107.189 263.526C106.989 264.193 106.696 264.766 106.309 265.246C105.922 265.726 105.442 266.1 104.869 266.366C104.296 266.633 103.636 266.766 102.889 266.766C102.476 266.766 102.089 266.726 101.729 266.646C101.369 266.566 101.022 266.453 100.689 266.306V270.266H97.7089V256.406C97.9756 256.326 98.2822 256.253 98.6289 256.186C98.9756 256.106 99.3356 256.04 99.7089 255.986C100.096 255.933 100.482 255.893 100.869 255.866C101.269 255.826 101.649 255.806 102.009 255.806C102.876 255.806 103.649 255.94 104.329 256.206C105.009 256.46 105.582 256.826 106.049 257.306C106.516 257.773 106.869 258.346 107.109 259.026C107.362 259.706 107.489 260.466 107.489 261.306ZM118.464 252.706C118.704 253.146 118.977 253.693 119.284 254.346C119.604 254.986 119.931 255.686 120.264 256.446C120.611 257.193 120.951 257.96 121.284 258.746C121.617 259.533 121.931 260.273 122.224 260.966C122.517 260.273 122.831 259.533 123.164 258.746C123.497 257.96 123.831 257.193 124.164 256.446C124.511 255.686 124.837 254.986 125.144 254.346C125.464 253.693 125.744 253.146 125.984 252.706H128.824C128.957 253.626 129.077 254.66 129.184 255.806C129.304 256.94 129.404 258.126 129.484 259.366C129.577 260.593 129.657 261.826 129.724 263.066C129.804 264.306 129.871 265.473 129.924 266.566H126.884C126.844 265.22 126.791 263.753 126.724 262.166C126.657 260.58 126.557 258.98 126.424 257.366C126.184 257.926 125.917 258.546 125.624 259.226C125.331 259.906 125.037 260.586 124.744 261.266C124.464 261.946 124.191 262.6 123.924 263.226C123.657 263.84 123.431 264.366 123.244 264.806H121.064C120.877 264.366 120.651 263.84 120.384 263.226C120.117 262.6 119.837 261.946 119.544 261.266C119.264 260.586 118.977 259.906 118.684 259.226C118.391 258.546 118.124 257.926 117.884 257.366C117.751 258.98 117.651 260.58 117.584 262.166C117.517 263.753 117.464 265.22 117.424 266.566H114.384C114.437 265.473 114.497 264.306 114.564 263.066C114.644 261.826 114.724 260.593 114.804 259.366C114.897 258.126 114.997 256.94 115.104 255.806C115.224 254.66 115.351 253.626 115.484 252.706H118.464ZM132.033 261.386C132.033 260.453 132.173 259.64 132.453 258.946C132.746 258.24 133.126 257.653 133.593 257.186C134.06 256.72 134.593 256.366 135.193 256.126C135.806 255.886 136.433 255.766 137.073 255.766C138.566 255.766 139.746 256.226 140.613 257.146C141.48 258.053 141.913 259.393 141.913 261.166C141.913 261.34 141.906 261.533 141.893 261.746C141.88 261.946 141.866 262.126 141.853 262.286H135.093C135.16 262.9 135.446 263.386 135.953 263.746C136.46 264.106 137.14 264.286 137.993 264.286C138.54 264.286 139.073 264.24 139.593 264.146C140.126 264.04 140.56 263.913 140.893 263.766L141.293 266.186C141.133 266.266 140.92 266.346 140.653 266.426C140.386 266.506 140.086 266.573 139.753 266.626C139.433 266.693 139.086 266.746 138.713 266.786C138.34 266.826 137.966 266.846 137.593 266.846C136.646 266.846 135.82 266.706 135.113 266.426C134.42 266.146 133.84 265.766 133.373 265.286C132.92 264.793 132.58 264.213 132.353 263.546C132.14 262.88 132.033 262.16 132.033 261.386ZM139.033 260.246C139.02 259.993 138.973 259.746 138.893 259.506C138.826 259.266 138.713 259.053 138.553 258.866C138.406 258.68 138.213 258.526 137.973 258.406C137.746 258.286 137.46 258.226 137.113 258.226C136.78 258.226 136.493 258.286 136.253 258.406C136.013 258.513 135.813 258.66 135.653 258.846C135.493 259.033 135.366 259.253 135.273 259.506C135.193 259.746 135.133 259.993 135.093 260.246H139.033ZM139.493 252.266L136.193 255.046L134.833 253.826L137.673 250.586L139.493 252.266ZM146.753 261.226C146.753 262.146 146.959 262.886 147.373 263.446C147.786 264.006 148.399 264.286 149.213 264.286C149.479 264.286 149.726 264.28 149.953 264.266C150.179 264.24 150.366 264.213 150.513 264.186V258.766C150.326 258.646 150.079 258.546 149.773 258.466C149.479 258.386 149.179 258.346 148.873 258.346C147.459 258.346 146.753 259.306 146.753 261.226ZM153.493 266.226C153.226 266.306 152.919 266.386 152.573 266.466C152.226 266.533 151.859 266.593 151.473 266.646C151.099 266.7 150.713 266.74 150.313 266.766C149.926 266.806 149.553 266.826 149.193 266.826C148.326 266.826 147.553 266.7 146.873 266.446C146.193 266.193 145.619 265.833 145.153 265.366C144.686 264.886 144.326 264.313 144.073 263.646C143.833 262.966 143.713 262.206 143.713 261.366C143.713 260.513 143.819 259.746 144.033 259.066C144.246 258.373 144.553 257.786 144.953 257.306C145.353 256.826 145.839 256.46 146.413 256.206C146.999 255.953 147.666 255.826 148.413 255.826C148.826 255.826 149.193 255.866 149.513 255.946C149.846 256.026 150.179 256.14 150.513 256.286V251.526L153.493 251.046V266.226ZM159.263 266.566H156.283V256.046H159.263V266.566ZM159.543 253.006C159.543 253.553 159.363 253.986 159.003 254.306C158.656 254.613 158.243 254.766 157.763 254.766C157.283 254.766 156.863 254.613 156.503 254.306C156.156 253.986 155.983 253.553 155.983 253.006C155.983 252.46 156.156 252.033 156.503 251.726C156.863 251.406 157.283 251.246 157.763 251.246C158.243 251.246 158.656 251.406 159.003 251.726C159.363 252.033 159.543 252.46 159.543 253.006ZM161.564 261.306C161.564 260.546 161.684 259.833 161.924 259.166C162.178 258.486 162.538 257.9 163.004 257.406C163.471 256.9 164.038 256.5 164.704 256.206C165.371 255.913 166.131 255.766 166.984 255.766C167.544 255.766 168.058 255.82 168.524 255.926C168.991 256.02 169.444 256.16 169.884 256.346L169.264 258.726C168.984 258.62 168.678 258.526 168.344 258.446C168.011 258.366 167.638 258.326 167.224 258.326C166.344 258.326 165.684 258.6 165.244 259.146C164.818 259.693 164.604 260.413 164.604 261.306C164.604 262.253 164.804 262.986 165.204 263.506C165.618 264.026 166.331 264.286 167.344 264.286C167.704 264.286 168.091 264.253 168.504 264.186C168.918 264.12 169.298 264.013 169.644 263.866L170.064 266.306C169.718 266.453 169.284 266.58 168.764 266.686C168.244 266.793 167.671 266.846 167.044 266.846C166.084 266.846 165.258 266.706 164.564 266.426C163.871 266.133 163.298 265.74 162.844 265.246C162.404 264.753 162.078 264.173 161.864 263.506C161.664 262.826 161.564 262.093 161.564 261.306ZM181.397 261.286C181.397 262.113 181.277 262.873 181.037 263.566C180.797 264.246 180.45 264.833 179.997 265.326C179.543 265.806 178.997 266.18 178.357 266.446C177.73 266.713 177.023 266.846 176.237 266.846C175.463 266.846 174.757 266.713 174.117 266.446C173.49 266.18 172.95 265.806 172.497 265.326C172.043 264.833 171.69 264.246 171.437 263.566C171.183 262.873 171.057 262.113 171.057 261.286C171.057 260.46 171.183 259.706 171.437 259.026C171.703 258.346 172.063 257.766 172.517 257.286C172.983 256.806 173.53 256.433 174.157 256.166C174.797 255.9 175.49 255.766 176.237 255.766C176.997 255.766 177.69 255.9 178.317 256.166C178.957 256.433 179.503 256.806 179.957 257.286C180.41 257.766 180.763 258.346 181.017 259.026C181.27 259.706 181.397 260.46 181.397 261.286ZM178.357 261.286C178.357 260.366 178.17 259.646 177.797 259.126C177.437 258.593 176.917 258.326 176.237 258.326C175.557 258.326 175.03 258.593 174.657 259.126C174.283 259.646 174.097 260.366 174.097 261.286C174.097 262.206 174.283 262.94 174.657 263.486C175.03 264.02 175.557 264.286 176.237 264.286C176.917 264.286 177.437 264.02 177.797 263.486C178.17 262.94 178.357 262.206 178.357 261.286ZM81.9074 291.226C82.3474 291.226 82.7341 291.22 83.0674 291.206C83.4141 291.18 83.7008 291.14 83.9274 291.086V287.986C83.7941 287.92 83.5741 287.866 83.2674 287.826C82.9741 287.773 82.6141 287.746 82.1874 287.746C81.9074 287.746 81.6074 287.766 81.2874 287.806C80.9808 287.846 80.6941 287.933 80.4274 288.066C80.1741 288.186 79.9608 288.36 79.7874 288.586C79.6141 288.8 79.5274 289.086 79.5274 289.446C79.5274 290.113 79.7408 290.58 80.1674 290.846C80.5941 291.1 81.1741 291.226 81.9074 291.226ZM81.7474 281.906C82.4941 281.906 83.1208 282.006 83.6274 282.206C84.1474 282.393 84.5608 282.666 84.8674 283.026C85.1874 283.373 85.4141 283.793 85.5474 284.286C85.6808 284.766 85.7474 285.3 85.7474 285.886V292.386C85.5874 292.413 85.3608 292.453 85.0674 292.506C84.7874 292.546 84.4674 292.586 84.1074 292.626C83.7474 292.666 83.3541 292.7 82.9274 292.726C82.5141 292.766 82.1008 292.786 81.6874 292.786C81.1008 292.786 80.5608 292.726 80.0674 292.606C79.5741 292.486 79.1474 292.3 78.7874 292.046C78.4274 291.78 78.1474 291.433 77.9474 291.006C77.7474 290.58 77.6474 290.066 77.6474 289.466C77.6474 288.893 77.7608 288.4 77.9874 287.986C78.2274 287.573 78.5474 287.24 78.9474 286.986C79.3474 286.733 79.8141 286.546 80.3474 286.426C80.8808 286.306 81.4408 286.246 82.0274 286.246C82.2141 286.246 82.4074 286.26 82.6074 286.286C82.8074 286.3 82.9941 286.326 83.1674 286.366C83.3541 286.393 83.5141 286.42 83.6474 286.446C83.7808 286.473 83.8741 286.493 83.9274 286.506V285.986C83.9274 285.68 83.8941 285.38 83.8274 285.086C83.7608 284.78 83.6408 284.513 83.4674 284.286C83.2941 284.046 83.0541 283.86 82.7474 283.726C82.4541 283.58 82.0674 283.506 81.5874 283.506C80.9741 283.506 80.4341 283.553 79.9674 283.646C79.5141 283.726 79.1741 283.813 78.9474 283.906L78.7274 282.366C78.9674 282.26 79.3674 282.16 79.9274 282.066C80.4874 281.96 81.0941 281.906 81.7474 281.906ZM88.8366 282.466C89.2633 282.36 89.83 282.246 90.5366 282.126C91.2433 282.006 92.0566 281.946 92.9766 281.946C93.8033 281.946 94.49 282.066 95.0366 282.306C95.5833 282.533 96.0166 282.86 96.3366 283.286C96.67 283.7 96.9033 284.2 97.0366 284.786C97.17 285.373 97.2366 286.02 97.2366 286.726V292.566H95.3766V287.126C95.3766 286.486 95.33 285.94 95.2366 285.486C95.1566 285.033 95.0166 284.666 94.8166 284.386C94.6166 284.106 94.35 283.906 94.0166 283.786C93.6833 283.653 93.27 283.586 92.7766 283.586C92.5766 283.586 92.37 283.593 92.1566 283.606C91.9433 283.62 91.7366 283.64 91.5366 283.666C91.35 283.68 91.1766 283.7 91.0166 283.726C90.87 283.753 90.7633 283.773 90.6966 283.786V292.566H88.8366V282.466ZM108.601 292.266C108.174 292.373 107.608 292.486 106.901 292.606C106.208 292.726 105.401 292.786 104.481 292.786C103.681 292.786 103.008 292.673 102.461 292.446C101.914 292.206 101.474 291.873 101.141 291.446C100.808 291.02 100.568 290.52 100.421 289.946C100.274 289.36 100.201 288.713 100.201 288.006V282.166H102.061V287.606C102.061 288.873 102.261 289.78 102.661 290.326C103.061 290.873 103.734 291.146 104.681 291.146C104.881 291.146 105.088 291.14 105.301 291.126C105.514 291.113 105.714 291.1 105.901 291.086C106.088 291.06 106.254 291.04 106.401 291.026C106.561 291 106.674 290.973 106.741 290.946V282.166H108.601V292.266ZM115.325 291.226C115.765 291.226 116.152 291.22 116.485 291.206C116.832 291.18 117.119 291.14 117.345 291.086V287.986C117.212 287.92 116.992 287.866 116.685 287.826C116.392 287.773 116.032 287.746 115.605 287.746C115.325 287.746 115.025 287.766 114.705 287.806C114.399 287.846 114.112 287.933 113.845 288.066C113.592 288.186 113.379 288.36 113.205 288.586C113.032 288.8 112.945 289.086 112.945 289.446C112.945 290.113 113.159 290.58 113.585 290.846C114.012 291.1 114.592 291.226 115.325 291.226ZM115.165 281.906C115.912 281.906 116.539 282.006 117.045 282.206C117.565 282.393 117.979 282.666 118.285 283.026C118.605 283.373 118.832 283.793 118.965 284.286C119.099 284.766 119.165 285.3 119.165 285.886V292.386C119.005 292.413 118.779 292.453 118.485 292.506C118.205 292.546 117.885 292.586 117.525 292.626C117.165 292.666 116.772 292.7 116.345 292.726C115.932 292.766 115.519 292.786 115.105 292.786C114.519 292.786 113.979 292.726 113.485 292.606C112.992 292.486 112.565 292.3 112.205 292.046C111.845 291.78 111.565 291.433 111.365 291.006C111.165 290.58 111.065 290.066 111.065 289.466C111.065 288.893 111.179 288.4 111.405 287.986C111.645 287.573 111.965 287.24 112.365 286.986C112.765 286.733 113.232 286.546 113.765 286.426C114.299 286.306 114.859 286.246 115.445 286.246C115.632 286.246 115.825 286.26 116.025 286.286C116.225 286.3 116.412 286.326 116.585 286.366C116.772 286.393 116.932 286.42 117.065 286.446C117.199 286.473 117.292 286.493 117.345 286.506V285.986C117.345 285.68 117.312 285.38 117.245 285.086C117.179 284.78 117.059 284.513 116.885 284.286C116.712 284.046 116.472 283.86 116.165 283.726C115.872 283.58 115.485 283.506 115.005 283.506C114.392 283.506 113.852 283.553 113.385 283.646C112.932 283.726 112.592 283.813 112.365 283.906L112.145 282.366C112.385 282.26 112.785 282.16 113.345 282.066C113.905 281.96 114.512 281.906 115.165 281.906ZM125.375 292.766C124.228 292.74 123.415 292.493 122.935 292.026C122.455 291.56 122.215 290.833 122.215 289.846V277.366L124.075 277.046V289.546C124.075 289.853 124.101 290.106 124.155 290.306C124.208 290.506 124.295 290.666 124.415 290.786C124.535 290.906 124.695 291 124.895 291.066C125.095 291.12 125.341 291.166 125.635 291.206L125.375 292.766Z" fill="white"/>
<path d="M52.305 325.855C52.305 326.303 52.2623 326.735 52.177 327.151C52.1023 327.557 52.0223 327.978 51.937 328.415C52.321 328.202 52.6996 327.994 53.073 327.791C53.4463 327.589 53.8516 327.413 54.289 327.263L54.385 327.231L54.833 328.575L54.705 328.623C54.2783 328.783 53.8516 328.89 53.425 328.943C52.9983 328.986 52.561 329.023 52.113 329.055C52.465 329.354 52.7956 329.647 53.105 329.935C53.4143 330.213 53.7023 330.538 53.969 330.911L54.049 331.023L52.881 331.839L52.817 331.743C52.561 331.359 52.337 330.981 52.145 330.607C51.9636 330.223 51.777 329.829 51.585 329.423C51.393 329.829 51.201 330.223 51.009 330.607C50.8276 330.981 50.609 331.359 50.353 331.743L50.289 331.839L49.121 331.023L49.201 330.911C49.4676 330.538 49.7556 330.213 50.065 329.935C50.3743 329.647 50.705 329.354 51.057 329.055C50.609 329.023 50.1716 328.986 49.745 328.943C49.3183 328.89 48.8916 328.783 48.465 328.623L48.337 328.575L48.785 327.231L48.881 327.263C49.3183 327.413 49.7236 327.589 50.097 327.791C50.4703 327.994 50.849 328.202 51.233 328.415C51.1476 327.978 51.0623 327.557 50.977 327.151C50.9023 326.735 50.865 326.303 50.865 325.855V325.727H52.305V325.855ZM59.7525 325.615C61.3098 325.615 62.5045 325.914 63.3365 326.511C64.1791 327.098 64.6005 327.978 64.6005 329.151C64.6005 329.791 64.4831 330.341 64.2485 330.799C64.0245 331.247 63.6938 331.615 63.2565 331.903C62.8298 332.181 62.3071 332.383 61.6885 332.511C61.0698 332.639 60.3711 332.703 59.5925 332.703H58.3605V336.815H56.8085V325.887C57.2458 325.781 57.7311 325.711 58.2645 325.679C58.8085 325.637 59.3045 325.615 59.7525 325.615ZM59.8805 326.975C59.2191 326.975 58.7125 326.991 58.3605 327.023V331.375H59.5285C60.0618 331.375 60.5418 331.343 60.9685 331.279C61.3951 331.205 61.7525 331.087 62.0405 330.927C62.3391 330.757 62.5685 330.527 62.7285 330.239C62.8885 329.951 62.9685 329.583 62.9685 329.135C62.9685 328.709 62.8831 328.357 62.7125 328.079C62.5525 327.802 62.3285 327.583 62.0405 327.423C61.7631 327.253 61.4378 327.135 61.0645 327.071C60.6911 327.007 60.2965 326.975 59.8805 326.975ZM68.9428 336.975C68.0255 336.954 67.3748 336.757 66.9908 336.383C66.6068 336.01 66.4148 335.429 66.4148 334.639V324.655L67.9028 324.399V334.399C67.9028 334.645 67.9242 334.847 67.9668 335.007C68.0095 335.167 68.0788 335.295 68.1748 335.391C68.2708 335.487 68.3988 335.562 68.5588 335.615C68.7188 335.658 68.9162 335.695 69.1508 335.727L68.9428 336.975ZM73.6378 335.743C73.9898 335.743 74.2992 335.738 74.5658 335.727C74.8432 335.706 75.0725 335.674 75.2538 335.631V333.151C75.1472 333.098 74.9712 333.055 74.7258 333.023C74.4912 332.981 74.2032 332.959 73.8618 332.959C73.6378 332.959 73.3978 332.975 73.1418 333.007C72.8965 333.039 72.6672 333.109 72.4538 333.215C72.2512 333.311 72.0805 333.45 71.9418 333.631C71.8032 333.802 71.7338 334.031 71.7338 334.319C71.7338 334.853 71.9045 335.226 72.2458 335.439C72.5872 335.642 73.0512 335.743 73.6378 335.743ZM73.5098 328.287C74.1072 328.287 74.6085 328.367 75.0138 328.527C75.4298 328.677 75.7605 328.895 76.0058 329.183C76.2618 329.461 76.4432 329.797 76.5498 330.191C76.6565 330.575 76.7098 331.002 76.7098 331.471V336.671C76.5818 336.693 76.4005 336.725 76.1658 336.767C75.9418 336.799 75.6858 336.831 75.3978 336.863C75.1098 336.895 74.7952 336.922 74.4538 336.943C74.1232 336.975 73.7925 336.991 73.4618 336.991C72.9925 336.991 72.5605 336.943 72.1658 336.847C71.7712 336.751 71.4298 336.602 71.1418 336.399C70.8538 336.186 70.6298 335.909 70.4698 335.567C70.3098 335.226 70.2298 334.815 70.2298 334.335C70.2298 333.877 70.3205 333.482 70.5018 333.151C70.6938 332.821 70.9498 332.554 71.2698 332.351C71.5898 332.149 71.9632 331.999 72.3898 331.903C72.8165 331.807 73.2645 331.759 73.7338 331.759C73.8832 331.759 74.0378 331.77 74.1978 331.791C74.3578 331.802 74.5072 331.823 74.6458 331.855C74.7952 331.877 74.9232 331.898 75.0298 331.919C75.1365 331.941 75.2112 331.957 75.2538 331.967V331.551C75.2538 331.306 75.2272 331.066 75.1738 330.831C75.1205 330.586 75.0245 330.373 74.8858 330.191C74.7472 329.999 74.5552 329.85 74.3098 329.743C74.0752 329.626 73.7658 329.567 73.3818 329.567C72.8912 329.567 72.4592 329.605 72.0858 329.679C71.7232 329.743 71.4512 329.813 71.2698 329.887L71.0938 328.655C71.2858 328.57 71.6058 328.49 72.0538 328.415C72.5018 328.33 72.9872 328.287 73.5098 328.287ZM79.1812 328.735C79.5225 328.65 79.9759 328.559 80.5412 328.463C81.1065 328.367 81.7572 328.319 82.4932 328.319C83.1545 328.319 83.7039 328.415 84.1412 328.607C84.5785 328.789 84.9252 329.05 85.1812 329.391C85.4479 329.722 85.6345 330.122 85.7412 330.591C85.8479 331.061 85.9012 331.578 85.9012 332.143V336.815H84.4132V332.463C84.4132 331.951 84.3759 331.514 84.3012 331.151C84.2372 330.789 84.1252 330.495 83.9652 330.271C83.8052 330.047 83.5919 329.887 83.3252 329.791C83.0585 329.685 82.7279 329.631 82.3332 329.631C82.1732 329.631 82.0079 329.637 81.8372 329.647C81.6665 329.658 81.5012 329.674 81.3412 329.695C81.1919 329.706 81.0532 329.722 80.9252 329.743C80.8079 329.765 80.7225 329.781 80.6692 329.791V336.815H79.1812V328.735ZM95.7127 332.655C95.7127 333.317 95.6167 333.914 95.4247 334.447C95.2327 334.981 94.9607 335.439 94.6087 335.823C94.2674 336.207 93.8567 336.506 93.3767 336.719C92.8967 336.922 92.374 337.023 91.8087 337.023C91.2434 337.023 90.7207 336.922 90.2407 336.719C89.7607 336.506 89.3447 336.207 88.9927 335.823C88.6514 335.439 88.3847 334.981 88.1927 334.447C88.0007 333.914 87.9047 333.317 87.9047 332.655C87.9047 332.005 88.0007 331.413 88.1927 330.879C88.3847 330.335 88.6514 329.871 88.9927 329.487C89.3447 329.103 89.7607 328.81 90.2407 328.607C90.7207 328.394 91.2434 328.287 91.8087 328.287C92.374 328.287 92.8967 328.394 93.3767 328.607C93.8567 328.81 94.2674 329.103 94.6087 329.487C94.9607 329.871 95.2327 330.335 95.4247 330.879C95.6167 331.413 95.7127 332.005 95.7127 332.655ZM94.1607 332.655C94.1607 331.717 93.9474 330.975 93.5207 330.431C93.1047 329.877 92.534 329.599 91.8087 329.599C91.0834 329.599 90.5074 329.877 90.0807 330.431C89.6647 330.975 89.4567 331.717 89.4567 332.655C89.4567 333.594 89.6647 334.341 90.0807 334.895C90.5074 335.439 91.0834 335.711 91.8087 335.711C92.534 335.711 93.1047 335.439 93.5207 334.895C93.9474 334.341 94.1607 333.594 94.1607 332.655ZM104.181 335.711C105.803 335.711 106.613 335.157 106.613 334.047C106.613 333.706 106.539 333.418 106.389 333.183C106.251 332.938 106.059 332.73 105.813 332.559C105.568 332.378 105.285 332.223 104.965 332.095C104.656 331.967 104.325 331.839 103.973 331.711C103.568 331.573 103.184 331.418 102.821 331.247C102.459 331.066 102.144 330.858 101.877 330.623C101.611 330.378 101.397 330.09 101.237 329.759C101.088 329.429 101.013 329.029 101.013 328.559C101.013 327.589 101.344 326.831 102.005 326.287C102.667 325.743 103.579 325.471 104.741 325.471C105.413 325.471 106.021 325.546 106.565 325.695C107.12 325.834 107.525 325.989 107.781 326.159L107.285 327.423C107.061 327.285 106.725 327.151 106.277 327.023C105.84 326.885 105.328 326.815 104.741 326.815C104.443 326.815 104.165 326.847 103.909 326.911C103.653 326.975 103.429 327.071 103.237 327.199C103.045 327.327 102.891 327.493 102.773 327.695C102.667 327.887 102.613 328.117 102.613 328.383C102.613 328.682 102.672 328.933 102.789 329.135C102.907 329.338 103.072 329.519 103.285 329.679C103.499 329.829 103.744 329.967 104.021 330.095C104.309 330.223 104.624 330.351 104.965 330.479C105.445 330.671 105.883 330.863 106.277 331.055C106.683 331.247 107.029 331.477 107.317 331.743C107.616 332.01 107.845 332.33 108.005 332.703C108.165 333.066 108.245 333.509 108.245 334.031C108.245 335.002 107.888 335.749 107.173 336.271C106.469 336.794 105.472 337.055 104.181 337.055C103.744 337.055 103.339 337.023 102.965 336.959C102.603 336.906 102.277 336.842 101.989 336.767C101.701 336.682 101.451 336.597 101.237 336.511C101.035 336.415 100.875 336.335 100.757 336.271L101.221 334.991C101.467 335.13 101.84 335.285 102.341 335.455C102.843 335.626 103.456 335.711 104.181 335.711ZM112.841 335.743C113.193 335.743 113.502 335.738 113.769 335.727C114.046 335.706 114.276 335.674 114.457 335.631V333.151C114.35 333.098 114.174 333.055 113.929 333.023C113.694 332.981 113.406 332.959 113.065 332.959C112.841 332.959 112.601 332.975 112.345 333.007C112.1 333.039 111.87 333.109 111.657 333.215C111.454 333.311 111.284 333.45 111.145 333.631C111.006 333.802 110.937 334.031 110.937 334.319C110.937 334.853 111.108 335.226 111.449 335.439C111.79 335.642 112.254 335.743 112.841 335.743ZM112.713 328.287C113.31 328.287 113.812 328.367 114.217 328.527C114.633 328.677 114.964 328.895 115.209 329.183C115.465 329.461 115.646 329.797 115.753 330.191C115.86 330.575 115.913 331.002 115.913 331.471V336.671C115.785 336.693 115.604 336.725 115.369 336.767C115.145 336.799 114.889 336.831 114.601 336.863C114.313 336.895 113.998 336.922 113.657 336.943C113.326 336.975 112.996 336.991 112.665 336.991C112.196 336.991 111.764 336.943 111.369 336.847C110.974 336.751 110.633 336.602 110.345 336.399C110.057 336.186 109.833 335.909 109.673 335.567C109.513 335.226 109.433 334.815 109.433 334.335C109.433 333.877 109.524 333.482 109.705 333.151C109.897 332.821 110.153 332.554 110.473 332.351C110.793 332.149 111.166 331.999 111.593 331.903C112.02 331.807 112.468 331.759 112.937 331.759C113.086 331.759 113.241 331.77 113.401 331.791C113.561 331.802 113.71 331.823 113.849 331.855C113.998 331.877 114.126 331.898 114.233 331.919C114.34 331.941 114.414 331.957 114.457 331.967V331.551C114.457 331.306 114.43 331.066 114.377 330.831C114.324 330.586 114.228 330.373 114.089 330.191C113.95 329.999 113.758 329.85 113.513 329.743C113.278 329.626 112.969 329.567 112.585 329.567C112.094 329.567 111.662 329.605 111.289 329.679C110.926 329.743 110.654 329.813 110.473 329.887L110.297 328.655C110.489 328.57 110.809 328.49 111.257 328.415C111.705 328.33 112.19 328.287 112.713 328.287ZM125.008 336.575C124.667 336.661 124.214 336.751 123.648 336.847C123.094 336.943 122.448 336.991 121.712 336.991C121.072 336.991 120.534 336.901 120.096 336.719C119.659 336.527 119.307 336.261 119.04 335.919C118.774 335.578 118.582 335.178 118.464 334.719C118.347 334.25 118.288 333.733 118.288 333.167V328.495H119.776V332.847C119.776 333.861 119.936 334.586 120.256 335.023C120.576 335.461 121.115 335.679 121.872 335.679C122.032 335.679 122.198 335.674 122.368 335.663C122.539 335.653 122.699 335.642 122.848 335.631C122.998 335.61 123.131 335.594 123.248 335.583C123.376 335.562 123.467 335.541 123.52 335.519V328.495H125.008V336.575ZM123.584 325.343L121.328 327.535L120.576 326.863L122.624 324.399L123.584 325.343ZM132.948 330.255C132.767 330.106 132.505 329.962 132.164 329.823C131.823 329.685 131.449 329.615 131.044 329.615C130.617 329.615 130.249 329.695 129.94 329.855C129.641 330.005 129.396 330.218 129.204 330.495C129.012 330.762 128.873 331.082 128.788 331.455C128.703 331.829 128.66 332.229 128.66 332.655C128.66 333.626 128.9 334.378 129.38 334.911C129.86 335.434 130.5 335.695 131.3 335.695C131.705 335.695 132.041 335.679 132.308 335.647C132.585 335.605 132.799 335.562 132.948 335.519V330.255ZM132.948 324.655L134.436 324.399V336.575C134.095 336.671 133.657 336.767 133.124 336.863C132.591 336.959 131.977 337.007 131.284 337.007C130.644 337.007 130.068 336.906 129.556 336.703C129.044 336.501 128.607 336.213 128.244 335.839C127.881 335.466 127.599 335.013 127.396 334.479C127.204 333.935 127.108 333.327 127.108 332.655C127.108 332.015 127.188 331.429 127.348 330.895C127.519 330.362 127.764 329.903 128.084 329.519C128.404 329.135 128.793 328.837 129.252 328.623C129.721 328.41 130.255 328.303 130.852 328.303C131.332 328.303 131.753 328.367 132.116 328.495C132.489 328.623 132.767 328.746 132.948 328.863V324.655ZM136.53 332.671C136.53 331.935 136.636 331.295 136.85 330.751C137.063 330.197 137.346 329.738 137.698 329.375C138.05 329.013 138.455 328.741 138.914 328.559C139.372 328.378 139.842 328.287 140.322 328.287C141.442 328.287 142.3 328.639 142.898 329.343C143.495 330.037 143.794 331.098 143.794 332.527C143.794 332.591 143.794 332.677 143.794 332.783C143.794 332.879 143.788 332.97 143.778 333.055H138.082C138.146 333.919 138.396 334.575 138.834 335.023C139.271 335.471 139.954 335.695 140.882 335.695C141.404 335.695 141.842 335.653 142.194 335.567C142.556 335.471 142.828 335.381 143.01 335.295L143.218 336.543C143.036 336.639 142.716 336.741 142.258 336.847C141.81 336.954 141.298 337.007 140.722 337.007C139.996 337.007 139.367 336.901 138.834 336.687C138.311 336.463 137.879 336.159 137.538 335.775C137.196 335.391 136.94 334.938 136.77 334.415C136.61 333.882 136.53 333.301 136.53 332.671ZM142.242 331.855C142.252 331.183 142.082 330.634 141.73 330.207C141.388 329.77 140.914 329.551 140.306 329.551C139.964 329.551 139.66 329.621 139.394 329.759C139.138 329.887 138.919 330.058 138.738 330.271C138.556 330.485 138.412 330.73 138.306 331.007C138.21 331.285 138.146 331.567 138.114 331.855H142.242ZM145.499 331.391H148.523V328.095H149.803V331.391H152.827V332.655H149.803V335.967H148.523V332.655H145.499V331.391Z" fill="white"/>
<defs>
<clipPath id="clip0">
<rect width="200.472" height="200.472" fill="white" transform="translate(0.478027)"/>
</clipPath>
</defs>
</svg>
