<svg width="200" height="278" viewBox="0 0 200 278" fill="none" xmlns="http://www.w3.org/2000/svg">
<path d="M63.4944 255.98C65.561 255.98 67.1477 256.347 68.2544 257.08C69.361 257.8 69.9144 258.987 69.9144 260.64C69.9144 262.307 69.3544 263.513 68.2344 264.26C67.1144 264.993 65.5144 265.36 63.4344 265.36H62.4544V270H59.3344V256.34C60.0144 256.207 60.7344 256.113 61.4944 256.06C62.2544 256.007 62.921 255.98 63.4944 255.98ZM63.6944 258.64C63.4677 258.64 63.241 258.647 63.0144 258.66C62.801 258.673 62.6144 258.687 62.4544 258.7V262.7H63.4344C64.5144 262.7 65.3277 262.553 65.8744 262.26C66.421 261.967 66.6944 261.42 66.6944 260.62C66.6944 260.233 66.621 259.913 66.4744 259.66C66.341 259.407 66.141 259.207 65.8744 259.06C65.621 258.9 65.3077 258.793 64.9344 258.74C64.561 258.673 64.1477 258.64 63.6944 258.64ZM78.3455 262.12C78.0788 262.053 77.7655 261.987 77.4055 261.92C77.0455 261.84 76.6588 261.8 76.2455 261.8C76.0588 261.8 75.8321 261.82 75.5655 261.86C75.3121 261.887 75.1188 261.92 74.9855 261.96V270H72.0055V260.04C72.5388 259.853 73.1655 259.68 73.8855 259.52C74.6188 259.347 75.4321 259.26 76.3255 259.26C76.4855 259.26 76.6788 259.273 76.9055 259.3C77.1321 259.313 77.3588 259.34 77.5855 259.38C77.8121 259.407 78.0388 259.447 78.2655 259.5C78.4921 259.54 78.6855 259.593 78.8455 259.66L78.3455 262.12ZM90.0877 264.72C90.0877 265.547 89.9677 266.307 89.7277 267C89.4877 267.68 89.141 268.267 88.6877 268.76C88.2343 269.24 87.6877 269.613 87.0477 269.88C86.421 270.147 85.7143 270.28 84.9277 270.28C84.1543 270.28 83.4477 270.147 82.8077 269.88C82.181 269.613 81.641 269.24 81.1877 268.76C80.7343 268.267 80.381 267.68 80.1277 267C79.8743 266.307 79.7477 265.547 79.7477 264.72C79.7477 263.893 79.8743 263.14 80.1277 262.46C80.3943 261.78 80.7543 261.2 81.2077 260.72C81.6743 260.24 82.221 259.867 82.8477 259.6C83.4877 259.333 84.181 259.2 84.9277 259.2C85.6877 259.2 86.381 259.333 87.0077 259.6C87.6477 259.867 88.1943 260.24 88.6477 260.72C89.101 261.2 89.4543 261.78 89.7077 262.46C89.961 263.14 90.0877 263.893 90.0877 264.72ZM87.0477 264.72C87.0477 263.8 86.861 263.08 86.4877 262.56C86.1277 262.027 85.6077 261.76 84.9277 261.76C84.2477 261.76 83.721 262.027 83.3477 262.56C82.9743 263.08 82.7877 263.8 82.7877 264.72C82.7877 265.64 82.9743 266.373 83.3477 266.92C83.721 267.453 84.2477 267.72 84.9277 267.72C85.6077 267.72 86.1277 267.453 86.4877 266.92C86.861 266.373 87.0477 265.64 87.0477 264.72ZM87.3877 255.7L84.0877 258.48L82.7277 257.26L85.5677 254.02L87.3877 255.7ZM92.2961 256.86L95.2761 256.38V259.48H98.8561V261.96H95.2761V265.66C95.2761 266.287 95.3828 266.787 95.5961 267.16C95.8228 267.533 96.2694 267.72 96.9361 267.72C97.2561 267.72 97.5828 267.693 97.9161 267.64C98.2628 267.573 98.5761 267.487 98.8561 267.38L99.2761 269.7C98.9161 269.847 98.5161 269.973 98.0761 270.08C97.6361 270.187 97.0961 270.24 96.4561 270.24C95.6428 270.24 94.9694 270.133 94.4361 269.92C93.9028 269.693 93.4761 269.387 93.1561 269C92.8361 268.6 92.6094 268.12 92.4761 267.56C92.3561 267 92.2961 266.38 92.2961 265.7V256.86ZM100.392 264.82C100.392 263.887 100.532 263.073 100.812 262.38C101.106 261.673 101.486 261.087 101.952 260.62C102.419 260.153 102.952 259.8 103.552 259.56C104.166 259.32 104.792 259.2 105.432 259.2C106.926 259.2 108.106 259.66 108.972 260.58C109.839 261.487 110.272 262.827 110.272 264.6C110.272 264.773 110.266 264.967 110.252 265.18C110.239 265.38 110.226 265.56 110.212 265.72H103.452C103.519 266.333 103.806 266.82 104.312 267.18C104.819 267.54 105.499 267.72 106.352 267.72C106.899 267.72 107.432 267.673 107.952 267.58C108.486 267.473 108.919 267.347 109.252 267.2L109.652 269.62C109.492 269.7 109.279 269.78 109.012 269.86C108.746 269.94 108.446 270.007 108.112 270.06C107.792 270.127 107.446 270.18 107.072 270.22C106.699 270.26 106.326 270.28 105.952 270.28C105.006 270.28 104.179 270.14 103.472 269.86C102.779 269.58 102.199 269.2 101.732 268.72C101.279 268.227 100.939 267.647 100.712 266.98C100.499 266.313 100.392 265.593 100.392 264.82ZM107.392 263.68C107.379 263.427 107.332 263.18 107.252 262.94C107.186 262.7 107.072 262.487 106.912 262.3C106.766 262.113 106.572 261.96 106.332 261.84C106.106 261.72 105.819 261.66 105.472 261.66C105.139 261.66 104.852 261.72 104.612 261.84C104.372 261.947 104.172 262.093 104.012 262.28C103.852 262.467 103.726 262.687 103.632 262.94C103.552 263.18 103.492 263.427 103.452 263.68H107.392ZM115.592 267.86C116.139 267.86 116.525 267.807 116.752 267.7C116.979 267.593 117.092 267.387 117.092 267.08C117.092 266.84 116.945 266.633 116.652 266.46C116.359 266.273 115.912 266.067 115.312 265.84C114.845 265.667 114.419 265.487 114.032 265.3C113.659 265.113 113.339 264.893 113.072 264.64C112.805 264.373 112.599 264.06 112.452 263.7C112.305 263.34 112.232 262.907 112.232 262.4C112.232 261.413 112.599 260.633 113.332 260.06C114.065 259.487 115.072 259.2 116.352 259.2C116.992 259.2 117.605 259.26 118.192 259.38C118.779 259.487 119.245 259.607 119.592 259.74L119.072 262.06C118.725 261.94 118.345 261.833 117.932 261.74C117.532 261.647 117.079 261.6 116.572 261.6C115.639 261.6 115.172 261.86 115.172 262.38C115.172 262.5 115.192 262.607 115.232 262.7C115.272 262.793 115.352 262.887 115.472 262.98C115.592 263.06 115.752 263.153 115.952 263.26C116.165 263.353 116.432 263.46 116.752 263.58C117.405 263.82 117.945 264.06 118.372 264.3C118.799 264.527 119.132 264.78 119.372 265.06C119.625 265.327 119.799 265.627 119.892 265.96C119.999 266.293 120.052 266.68 120.052 267.12C120.052 268.16 119.659 268.947 118.872 269.48C118.099 270.013 116.999 270.28 115.572 270.28C114.639 270.28 113.859 270.2 113.232 270.04C112.619 269.88 112.192 269.747 111.952 269.64L112.452 267.22C112.959 267.42 113.479 267.58 114.012 267.7C114.545 267.807 115.072 267.86 115.592 267.86ZM121.779 264.82C121.779 263.887 121.919 263.073 122.199 262.38C122.492 261.673 122.872 261.087 123.339 260.62C123.806 260.153 124.339 259.8 124.939 259.56C125.552 259.32 126.179 259.2 126.819 259.2C128.312 259.2 129.492 259.66 130.359 260.58C131.226 261.487 131.659 262.827 131.659 264.6C131.659 264.773 131.652 264.967 131.639 265.18C131.626 265.38 131.612 265.56 131.599 265.72H124.839C124.906 266.333 125.192 266.82 125.699 267.18C126.206 267.54 126.886 267.72 127.739 267.72C128.286 267.72 128.819 267.673 129.339 267.58C129.872 267.473 130.306 267.347 130.639 267.2L131.039 269.62C130.879 269.7 130.666 269.78 130.399 269.86C130.132 269.94 129.832 270.007 129.499 270.06C129.179 270.127 128.832 270.18 128.459 270.22C128.086 270.26 127.712 270.28 127.339 270.28C126.392 270.28 125.566 270.14 124.859 269.86C124.166 269.58 123.586 269.2 123.119 268.72C122.666 268.227 122.326 267.647 122.099 266.98C121.886 266.313 121.779 265.593 121.779 264.82ZM128.779 263.68C128.766 263.427 128.719 263.18 128.639 262.94C128.572 262.7 128.459 262.487 128.299 262.3C128.152 262.113 127.959 261.96 127.719 261.84C127.492 261.72 127.206 261.66 126.859 261.66C126.526 261.66 126.239 261.72 125.999 261.84C125.759 261.947 125.559 262.093 125.399 262.28C125.239 262.467 125.112 262.687 125.019 262.94C124.939 263.18 124.879 263.427 124.839 263.68H128.779ZM136.979 267.86C137.525 267.86 137.912 267.807 138.139 267.7C138.365 267.593 138.479 267.387 138.479 267.08C138.479 266.84 138.332 266.633 138.039 266.46C137.745 266.273 137.299 266.067 136.699 265.84C136.232 265.667 135.805 265.487 135.419 265.3C135.045 265.113 134.725 264.893 134.459 264.64C134.192 264.373 133.985 264.06 133.839 263.7C133.692 263.34 133.619 262.907 133.619 262.4C133.619 261.413 133.985 260.633 134.719 260.06C135.452 259.487 136.459 259.2 137.739 259.2C138.379 259.2 138.992 259.26 139.579 259.38C140.165 259.487 140.632 259.607 140.979 259.74L140.459 262.06C140.112 261.94 139.732 261.833 139.319 261.74C138.919 261.647 138.465 261.6 137.959 261.6C137.025 261.6 136.559 261.86 136.559 262.38C136.559 262.5 136.579 262.607 136.619 262.7C136.659 262.793 136.739 262.887 136.859 262.98C136.979 263.06 137.139 263.153 137.339 263.26C137.552 263.353 137.819 263.46 138.139 263.58C138.792 263.82 139.332 264.06 139.759 264.3C140.185 264.527 140.519 264.78 140.759 265.06C141.012 265.327 141.185 265.627 141.279 265.96C141.385 266.293 141.439 266.68 141.439 267.12C141.439 268.16 141.045 268.947 140.259 269.48C139.485 270.013 138.385 270.28 136.959 270.28C136.025 270.28 135.245 270.2 134.619 270.04C134.005 269.88 133.579 269.747 133.339 269.64L133.839 267.22C134.345 267.42 134.865 267.58 135.399 267.7C135.932 267.807 136.459 267.86 136.979 267.86Z" fill="white"/>
<g clip-path="url(#clip0)">
<circle cx="100.944" cy="100.943" r="91.8519" fill="#00ACE2"/>
<path d="M166.783 13.5688C157.618 4.57935 145.557 -0.240965 132.794 0.00942588C121.25 0.232082 110.225 4.67505 101.748 12.5196C100.751 13.4415 99.2477 13.4418 98.2508 12.5196C89.7738 4.67466 78.7484 0.232082 67.2055 0.00942588C54.441 -0.242918 42.3809 4.57896 33.216 13.5684C24.177 22.4344 19.1992 34.2032 19.1992 46.7071C19.1992 68.1544 33.1441 91.8411 33.7375 92.8391L35.4461 95.711H48.9844L53.7434 109.293H42.6047V121.046H57.8609L61.9789 132.799H52.5949V144.552H66.0969L70.2148 156.306H61.9977V168.059H74.3328L80.868 186.711C83.7012 194.797 91.0816 200 99.698 200C99.7453 200 99.7945 200 99.8422 200C108.518 199.941 115.893 194.627 118.631 186.46L124.802 168.059H138V156.306H128.743L132.684 144.552H147.403V132.799H136.624L140.565 121.046H157.392V109.293H144.507L149.061 95.7106H164.333L166.083 93.1501C166.684 92.2708 180.799 71.3344 180.799 46.7063C180.799 34.2036 175.821 22.4352 166.783 13.5688ZM107.488 182.724C106.132 186.767 102.609 188.228 99.7629 188.247C96.9102 188.284 93.3707 186.852 91.9598 182.825L86.7859 168.059H112.405L107.488 182.724ZM116.347 156.306H82.6684L78.5504 144.553H120.287L116.347 156.306ZM124.229 132.8H74.4328L70.3148 121.047H128.17L124.229 132.8ZM132.111 109.294H66.1973L61.4383 95.7114H136.665L132.111 109.294ZM157.954 83.9579H42.2523C41.0078 81.6059 39.1863 77.9543 37.3609 73.55C33.1688 63.4333 30.9527 54.1512 30.9527 46.7071C30.9527 37.3856 34.6797 28.5969 41.4465 21.959C48.3395 15.1981 57.4074 11.5766 66.9793 11.7602C75.6379 11.927 83.9086 15.2606 90.2687 21.1461C95.7254 26.195 104.273 26.1958 109.73 21.1461C116.09 15.2606 124.361 11.9274 133.02 11.7602C142.589 11.5727 151.66 15.1977 158.553 21.959C165.32 28.5969 169.046 37.3852 169.046 46.7063C169.046 63.0918 161.348 78.1262 157.954 83.9579Z" fill="white"/>
</g>
<defs>
<clipPath id="clip0">
<rect width="200" height="200" fill="white"/>
</clipPath>
</defs>
</svg>
