<svg width="194" height="261" viewBox="0 0 194 261" fill="none" xmlns="http://www.w3.org/2000/svg">
<circle cx="97.7879" cy="98.0877" r="88.5984" fill="#00ACE2"/>
<g clip-path="url(#clip0)">
<path d="M193.531 65.7078C192.907 68.3836 192.431 71.0921 191.627 73.7022C189.657 80.2028 186.013 85.6856 181.219 90.4625C168.382 103.299 155.578 116.136 142.725 128.957C131.694 139.955 116.624 140.957 104.181 131.567C103.984 131.419 103.771 131.304 103.41 131.075C102.884 131.584 102.343 132.076 101.817 132.585C81.8888 152.513 61.9438 172.442 42.0482 192.403C41.0468 193.405 40.0455 193.848 38.6173 193.848C26.0594 193.799 13.5179 193.815 0.648066 193.815C0.648066 193.093 0.648066 192.436 0.648066 191.779C0.648066 179.73 0.664481 167.681 0.615234 155.616C0.615234 154.303 1.00921 153.416 1.92848 152.513C21.8406 132.651 41.7198 112.755 61.6155 92.892C62.1901 92.3175 62.8959 91.8743 63.6018 91.3161C62.7482 90.1342 62.108 89.3134 61.517 88.4434C53.9659 77.2972 54.7374 62.9664 64.1271 53.2648C77.9326 39.0161 92.0664 25.0957 106.217 11.1917C112.028 5.49547 119.283 2.42576 127.327 1.29309C127.803 1.22742 128.263 1.04685 128.739 0.915527C131.25 0.915527 133.762 0.915527 136.274 0.915527C136.75 1.03044 137.226 1.21101 137.718 1.27667C145.91 2.34368 153.231 5.47906 159.19 11.2081C167.02 18.7264 174.637 26.4582 182.286 34.1571C186.735 38.6385 189.903 43.9408 191.693 49.9981C192.448 52.5589 192.924 55.2019 193.531 57.8119C193.531 60.4384 193.531 63.0813 193.531 65.7078ZM182.254 61.5383C182.073 53.8558 179.282 47.1254 173.767 41.5769C166.823 34.5839 159.896 27.5744 152.853 20.6799C141.297 9.33672 124.011 9.33672 112.487 20.7291C99.3221 33.7467 86.2553 46.8627 73.2049 59.9952C66.0149 67.2509 65.9492 77.4614 73.1228 84.7007C85.254 96.9795 97.4672 109.176 109.746 121.307C116.936 128.415 127.147 128.432 134.32 121.324C147.617 108.159 160.815 94.9111 173.997 81.6474C179.479 76.1646 182.122 69.4177 182.254 61.5383ZM11.9584 173.903C34.3657 151.496 56.7237 129.154 78.8519 107.009C76.4388 104.596 73.8451 101.986 71.2022 99.3598C71.2186 99.3434 71.0545 99.4418 70.9232 99.5732C51.5035 118.976 32.1003 138.38 12.7135 157.799C12.3852 158.128 11.9912 158.62 11.9912 159.03C11.942 164.004 11.9584 169.011 11.9584 173.903ZM87.5686 115.529C65.2762 137.821 42.951 160.147 20.593 182.505C25.0088 182.505 29.5559 182.455 34.103 182.538C35.4163 182.554 36.3027 182.144 37.2056 181.224C56.1327 162.264 75.0927 143.321 94.0199 124.377C94.4467 123.95 94.8407 123.491 95.1854 123.113C92.5261 120.47 89.9488 117.909 87.5686 115.529Z" fill="white"/>
<path d="M155.183 78.5777C149.077 78.5941 145.022 76.7063 141.641 73.3411C134.795 66.5287 127.917 59.7326 121.154 52.8381C114.473 46.0256 114.079 36.5374 120.005 29.3474C125.422 22.7811 136.388 21.55 142.888 27.0656C146.713 30.2995 150.177 33.9602 153.722 37.5059C158.204 41.9874 162.833 46.3375 166.97 51.1144C171.484 56.3182 172.026 62.5233 169.284 68.7284C166.412 75.2617 160.995 78.3479 155.183 78.5777ZM153.87 67.6942C156.365 67.2181 158.105 66.2332 159.041 64.1484C160.092 61.801 159.747 59.552 157.925 57.7299C150.899 50.6384 143.857 43.5797 136.749 36.5702C134.368 34.2228 130.823 34.2885 128.656 36.5538C126.587 38.7043 126.587 42.2664 128.836 44.5482C135.813 51.5905 142.806 58.6164 149.898 65.5601C150.932 66.5451 152.524 66.9883 153.87 67.6942Z" fill="white"/>
<path d="M95.8896 58.9775C98.3356 56.5315 100.896 53.9871 103.342 51.5576C116.491 64.7065 129.739 77.9703 142.904 91.152C140.474 93.5979 137.914 96.1587 135.468 98.6211C122.319 85.423 109.071 72.1756 95.8896 58.9775Z" fill="white"/>
</g>
<path d="M62.2174 253.265C59.964 253.265 58.244 252.639 57.0574 251.385C55.884 250.132 55.2974 248.352 55.2974 246.045C55.2974 244.899 55.4774 243.879 55.8374 242.985C56.1974 242.079 56.6907 241.319 57.3174 240.705C57.944 240.079 58.6907 239.605 59.5574 239.285C60.424 238.965 61.364 238.805 62.3774 238.805C62.964 238.805 63.4974 238.852 63.9774 238.945C64.4574 239.025 64.8774 239.125 65.2374 239.245C65.5974 239.352 65.8974 239.465 66.1374 239.585C66.3774 239.705 66.5507 239.799 66.6574 239.865L65.7574 242.385C65.3307 242.159 64.8307 241.965 64.2574 241.805C63.6974 241.645 63.0574 241.565 62.3374 241.565C61.8574 241.565 61.384 241.645 60.9174 241.805C60.464 241.965 60.0574 242.225 59.6974 242.585C59.3507 242.932 59.0707 243.385 58.8574 243.945C58.644 244.505 58.5374 245.185 58.5374 245.985C58.5374 246.625 58.604 247.225 58.7374 247.785C58.884 248.332 59.1107 248.805 59.4174 249.205C59.7374 249.605 60.1507 249.925 60.6574 250.165C61.164 250.392 61.7774 250.505 62.4974 250.505C62.9507 250.505 63.3574 250.479 63.7174 250.425C64.0774 250.372 64.3974 250.312 64.6774 250.245C64.9574 250.165 65.204 250.079 65.4174 249.985C65.6307 249.892 65.824 249.805 65.9974 249.725L66.8574 252.225C66.4174 252.492 65.7974 252.732 64.9974 252.945C64.1974 253.159 63.2707 253.265 62.2174 253.265ZM68.6661 252.985V237.945L71.6461 237.465V242.505C71.8461 242.439 72.0994 242.379 72.4061 242.325C72.7261 242.259 73.0328 242.225 73.3261 242.225C74.1794 242.225 74.8861 242.345 75.4461 242.585C76.0194 242.812 76.4728 243.139 76.8061 243.565C77.1528 243.992 77.3928 244.499 77.5261 245.085C77.6728 245.672 77.7461 246.325 77.7461 247.045V252.985H74.7661V247.405C74.7661 246.445 74.6394 245.765 74.3861 245.365C74.1461 244.965 73.6928 244.765 73.0261 244.765C72.7594 244.765 72.5061 244.792 72.2661 244.845C72.0394 244.885 71.8328 244.932 71.6461 244.985V252.985H68.6661ZM84.4635 250.905C84.7568 250.905 85.0368 250.899 85.3035 250.885C85.5701 250.872 85.7835 250.852 85.9435 250.825V248.565C85.8235 248.539 85.6435 248.512 85.4035 248.485C85.1635 248.459 84.9435 248.445 84.7435 248.445C84.4635 248.445 84.1968 248.465 83.9435 248.505C83.7035 248.532 83.4901 248.592 83.3035 248.685C83.1168 248.779 82.9701 248.905 82.8635 249.065C82.7568 249.225 82.7035 249.425 82.7035 249.665C82.7035 250.132 82.8568 250.459 83.1635 250.645C83.4835 250.819 83.9168 250.905 84.4635 250.905ZM84.2235 242.185C85.1035 242.185 85.8368 242.285 86.4235 242.485C87.0101 242.685 87.4768 242.972 87.8235 243.345C88.1835 243.719 88.4368 244.172 88.5835 244.705C88.7301 245.239 88.8035 245.832 88.8035 246.485V252.685C88.3768 252.779 87.7835 252.885 87.0235 253.005C86.2635 253.139 85.3435 253.205 84.2635 253.205C83.5835 253.205 82.9635 253.145 82.4035 253.025C81.8568 252.905 81.3835 252.712 80.9835 252.445C80.5835 252.165 80.2768 251.805 80.0635 251.365C79.8501 250.925 79.7435 250.385 79.7435 249.745C79.7435 249.132 79.8635 248.612 80.1035 248.185C80.3568 247.759 80.6901 247.419 81.1035 247.165C81.5168 246.912 81.9901 246.732 82.5235 246.625C83.0568 246.505 83.6101 246.445 84.1835 246.445C84.5701 246.445 84.9101 246.465 85.2035 246.505C85.5101 246.532 85.7568 246.572 85.9435 246.625V246.345C85.9435 245.839 85.7901 245.432 85.4835 245.125C85.1768 244.819 84.6435 244.665 83.8835 244.665C83.3768 244.665 82.8768 244.705 82.3835 244.785C81.8901 244.852 81.4635 244.952 81.1035 245.085L80.7235 242.685C80.8968 242.632 81.1101 242.579 81.3635 242.525C81.6301 242.459 81.9168 242.405 82.2235 242.365C82.5301 242.312 82.8501 242.272 83.1835 242.245C83.5301 242.205 83.8768 242.185 84.2235 242.185ZM94.1042 252.985C93.4242 251.652 92.7309 250.092 92.0242 248.305C91.3309 246.519 90.6709 244.572 90.0442 242.465H93.2042C93.3376 242.985 93.4909 243.552 93.6642 244.165C93.8509 244.765 94.0376 245.379 94.2242 246.005C94.4242 246.619 94.6176 247.219 94.8042 247.805C95.0042 248.392 95.1976 248.925 95.3842 249.405C95.5576 248.925 95.7442 248.392 95.9442 247.805C96.1442 247.219 96.3376 246.619 96.5242 246.005C96.7242 245.379 96.9109 244.765 97.0842 244.165C97.2709 243.552 97.4309 242.985 97.5642 242.465H100.644C100.018 244.572 99.3509 246.519 98.6442 248.305C97.9509 250.092 97.2642 251.652 96.5842 252.985H94.1042ZM101.467 247.805C101.467 246.872 101.607 246.059 101.887 245.365C102.18 244.659 102.56 244.072 103.027 243.605C103.494 243.139 104.027 242.785 104.627 242.545C105.24 242.305 105.867 242.185 106.507 242.185C108 242.185 109.18 242.645 110.047 243.565C110.914 244.472 111.347 245.812 111.347 247.585C111.347 247.759 111.34 247.952 111.327 248.165C111.314 248.365 111.3 248.545 111.287 248.705H104.527C104.594 249.319 104.88 249.805 105.387 250.165C105.894 250.525 106.574 250.705 107.427 250.705C107.974 250.705 108.507 250.659 109.027 250.565C109.56 250.459 109.994 250.332 110.327 250.185L110.727 252.605C110.567 252.685 110.354 252.765 110.087 252.845C109.82 252.925 109.52 252.992 109.187 253.045C108.867 253.112 108.52 253.165 108.147 253.205C107.774 253.245 107.4 253.265 107.027 253.265C106.08 253.265 105.254 253.125 104.547 252.845C103.854 252.565 103.274 252.185 102.807 251.705C102.354 251.212 102.014 250.632 101.787 249.965C101.574 249.299 101.467 248.579 101.467 247.805ZM108.467 246.665C108.454 246.412 108.407 246.165 108.327 245.925C108.26 245.685 108.147 245.472 107.987 245.285C107.84 245.099 107.647 244.945 107.407 244.825C107.18 244.705 106.894 244.645 106.547 244.645C106.214 244.645 105.927 244.705 105.687 244.825C105.447 244.932 105.247 245.079 105.087 245.265C104.927 245.452 104.8 245.672 104.707 245.925C104.627 246.165 104.567 246.412 104.527 246.665H108.467ZM116.627 252.985H113.647V242.465H116.627V252.985ZM116.907 239.425C116.907 239.972 116.727 240.405 116.367 240.725C116.02 241.032 115.607 241.185 115.127 241.185C114.647 241.185 114.227 241.032 113.867 240.725C113.52 240.405 113.347 239.972 113.347 239.425C113.347 238.879 113.52 238.452 113.867 238.145C114.227 237.825 114.647 237.665 115.127 237.665C115.607 237.665 116.02 237.825 116.367 238.145C116.727 238.452 116.907 238.879 116.907 239.425ZM125.768 245.105C125.501 245.039 125.188 244.972 124.828 244.905C124.468 244.825 124.081 244.785 123.668 244.785C123.481 244.785 123.254 244.805 122.988 244.845C122.734 244.872 122.541 244.905 122.408 244.945V252.985H119.428V243.025C119.961 242.839 120.588 242.665 121.308 242.505C122.041 242.332 122.854 242.245 123.748 242.245C123.908 242.245 124.101 242.259 124.328 242.285C124.554 242.299 124.781 242.325 125.008 242.365C125.234 242.392 125.461 242.432 125.688 242.485C125.914 242.525 126.108 242.579 126.268 242.645L125.768 245.105ZM137.51 247.705C137.51 248.532 137.39 249.292 137.15 249.985C136.91 250.665 136.563 251.252 136.11 251.745C135.657 252.225 135.11 252.599 134.47 252.865C133.843 253.132 133.137 253.265 132.35 253.265C131.577 253.265 130.87 253.132 130.23 252.865C129.603 252.599 129.063 252.225 128.61 251.745C128.157 251.252 127.803 250.665 127.55 249.985C127.297 249.292 127.17 248.532 127.17 247.705C127.17 246.879 127.297 246.125 127.55 245.445C127.817 244.765 128.177 244.185 128.63 243.705C129.097 243.225 129.643 242.852 130.27 242.585C130.91 242.319 131.603 242.185 132.35 242.185C133.11 242.185 133.803 242.319 134.43 242.585C135.07 242.852 135.617 243.225 136.07 243.705C136.523 244.185 136.877 244.765 137.13 245.445C137.383 246.125 137.51 246.879 137.51 247.705ZM134.47 247.705C134.47 246.785 134.283 246.065 133.91 245.545C133.55 245.012 133.03 244.745 132.35 244.745C131.67 244.745 131.143 245.012 130.77 245.545C130.397 246.065 130.21 246.785 130.21 247.705C130.21 248.625 130.397 249.359 130.77 249.905C131.143 250.439 131.67 250.705 132.35 250.705C133.03 250.705 133.55 250.439 133.91 249.905C134.283 249.359 134.47 248.625 134.47 247.705Z" fill="white"/>
<defs>
<clipPath id="clip0">
<rect width="192.916" height="192.916" fill="white" transform="translate(0.615234 0.915527)"/>
</clipPath>
</defs>
</svg>
