<svg width="193" height="261" viewBox="0 0 193 261" fill="none" xmlns="http://www.w3.org/2000/svg">
<circle cx="97.2478" cy="98.0877" r="88.5984" fill="#00ACE2"/>
<g clip-path="url(#clip0)">
<path d="M142.672 157.392H169.104L192.991 65.6984V55.4271L189.32 54.0647C129.49 31.7857 63.5767 31.7857 3.74596 54.0647L0.0751953 55.4271V65.6984L23.9619 157.392H61.125H142.672ZM49.818 146.119H32.7101L11.3822 64.2558V63.2808C66.4436 43.74 126.623 43.74 181.684 63.2808V64.2558L160.356 146.119H131.352" fill="white"/>
<path d="M98.0338 112.206L89.5536 105.675L98.5429 94.0678L77.6035 69.1442L96.1047 39.9331L105.174 45.6364L90.8397 68.2626L112.302 93.8006L98.0338 112.206Z" fill="white"/>
</g>
<path d="M72.4916 252.985C71.9449 251.825 71.4049 250.619 70.8716 249.365C70.3383 248.112 69.8316 246.872 69.3516 245.645C68.8716 244.419 68.4249 243.245 68.0116 242.125C67.6116 241.005 67.2649 240.005 66.9716 239.125H70.4116C70.6783 239.925 70.9649 240.792 71.2716 241.725C71.5916 242.645 71.9116 243.565 72.2316 244.485C72.5649 245.405 72.8849 246.285 73.1916 247.125C73.4983 247.965 73.7849 248.692 74.0516 249.305C74.3049 248.692 74.5849 247.965 74.8916 247.125C75.2116 246.285 75.5316 245.405 75.8516 244.485C76.1849 243.565 76.5049 242.645 76.8116 241.725C77.1316 240.792 77.4249 239.925 77.6916 239.125H81.0116C80.7049 240.005 80.3516 241.005 79.9516 242.125C79.5516 243.245 79.1116 244.419 78.6316 245.645C78.1516 246.872 77.6449 248.112 77.1116 249.365C76.5783 250.619 76.0383 251.825 75.4916 252.985H72.4916ZM85.5852 252.985H82.6052V242.465H85.5852V252.985ZM85.8652 239.425C85.8652 239.972 85.6852 240.405 85.3252 240.725C84.9785 241.032 84.5652 241.185 84.0852 241.185C83.6052 241.185 83.1852 241.032 82.8252 240.725C82.4785 240.405 82.3052 239.972 82.3052 239.425C82.3052 238.879 82.4785 238.452 82.8252 238.145C83.1852 237.825 83.6052 237.665 84.0852 237.665C84.5652 237.665 84.9785 237.825 85.3252 238.145C85.6852 238.452 85.8652 238.879 85.8652 239.425ZM90.9265 247.645C90.9265 248.565 91.1331 249.305 91.5465 249.865C91.9598 250.425 92.5731 250.705 93.3865 250.705C93.6531 250.705 93.8998 250.699 94.1265 250.685C94.3531 250.659 94.5398 250.632 94.6865 250.605V245.185C94.4998 245.065 94.2531 244.965 93.9465 244.885C93.6531 244.805 93.3531 244.765 93.0465 244.765C91.6331 244.765 90.9265 245.725 90.9265 247.645ZM97.6665 252.645C97.3998 252.725 97.0931 252.805 96.7465 252.885C96.3998 252.952 96.0331 253.012 95.6465 253.065C95.2731 253.119 94.8865 253.159 94.4865 253.185C94.0998 253.225 93.7265 253.245 93.3665 253.245C92.4998 253.245 91.7265 253.119 91.0465 252.865C90.3665 252.612 89.7931 252.252 89.3265 251.785C88.8598 251.305 88.4998 250.732 88.2465 250.065C88.0065 249.385 87.8865 248.625 87.8865 247.785C87.8865 246.932 87.9931 246.165 88.2065 245.485C88.4198 244.792 88.7265 244.205 89.1265 243.725C89.5265 243.245 90.0131 242.879 90.5865 242.625C91.1731 242.372 91.8398 242.245 92.5865 242.245C92.9998 242.245 93.3665 242.285 93.6865 242.365C94.0198 242.445 94.3531 242.559 94.6865 242.705V237.945L97.6665 237.465V252.645ZM106.797 245.105C106.53 245.039 106.217 244.972 105.857 244.905C105.497 244.825 105.11 244.785 104.697 244.785C104.51 244.785 104.283 244.805 104.017 244.845C103.763 244.872 103.57 244.905 103.437 244.945V252.985H100.457V243.025C100.99 242.839 101.617 242.665 102.337 242.505C103.07 242.332 103.883 242.245 104.777 242.245C104.937 242.245 105.13 242.259 105.357 242.285C105.583 242.299 105.81 242.325 106.037 242.365C106.263 242.392 106.49 242.432 106.717 242.485C106.943 242.525 107.137 242.579 107.297 242.645L106.797 245.105ZM118.539 247.705C118.539 248.532 118.419 249.292 118.179 249.985C117.939 250.665 117.592 251.252 117.139 251.745C116.686 252.225 116.139 252.599 115.499 252.865C114.872 253.132 114.166 253.265 113.379 253.265C112.606 253.265 111.899 253.132 111.259 252.865C110.632 252.599 110.092 252.225 109.639 251.745C109.186 251.252 108.832 250.665 108.579 249.985C108.326 249.292 108.199 248.532 108.199 247.705C108.199 246.879 108.326 246.125 108.579 245.445C108.846 244.765 109.206 244.185 109.659 243.705C110.126 243.225 110.672 242.852 111.299 242.585C111.939 242.319 112.632 242.185 113.379 242.185C114.139 242.185 114.832 242.319 115.459 242.585C116.099 242.852 116.646 243.225 117.099 243.705C117.552 244.185 117.906 244.765 118.159 245.445C118.412 246.125 118.539 246.879 118.539 247.705ZM115.499 247.705C115.499 246.785 115.312 246.065 114.939 245.545C114.579 245.012 114.059 244.745 113.379 244.745C112.699 244.745 112.172 245.012 111.799 245.545C111.426 246.065 111.239 246.785 111.239 247.705C111.239 248.625 111.426 249.359 111.799 249.905C112.172 250.439 112.699 250.705 113.379 250.705C114.059 250.705 114.579 250.439 114.939 249.905C115.312 249.359 115.499 248.625 115.499 247.705ZM123.867 250.845C124.414 250.845 124.801 250.792 125.027 250.685C125.254 250.579 125.367 250.372 125.367 250.065C125.367 249.825 125.221 249.619 124.927 249.445C124.634 249.259 124.187 249.052 123.587 248.825C123.121 248.652 122.694 248.472 122.307 248.285C121.934 248.099 121.614 247.879 121.347 247.625C121.081 247.359 120.874 247.045 120.727 246.685C120.581 246.325 120.507 245.892 120.507 245.385C120.507 244.399 120.874 243.619 121.607 243.045C122.341 242.472 123.347 242.185 124.627 242.185C125.267 242.185 125.881 242.245 126.467 242.365C127.054 242.472 127.521 242.592 127.867 242.725L127.347 245.045C127.001 244.925 126.621 244.819 126.207 244.725C125.807 244.632 125.354 244.585 124.847 244.585C123.914 244.585 123.447 244.845 123.447 245.365C123.447 245.485 123.467 245.592 123.507 245.685C123.547 245.779 123.627 245.872 123.747 245.965C123.867 246.045 124.027 246.139 124.227 246.245C124.441 246.339 124.707 246.445 125.027 246.565C125.681 246.805 126.221 247.045 126.647 247.285C127.074 247.512 127.407 247.765 127.647 248.045C127.901 248.312 128.074 248.612 128.167 248.945C128.274 249.279 128.327 249.665 128.327 250.105C128.327 251.145 127.934 251.932 127.147 252.465C126.374 252.999 125.274 253.265 123.847 253.265C122.914 253.265 122.134 253.185 121.507 253.025C120.894 252.865 120.467 252.732 120.227 252.625L120.727 250.205C121.234 250.405 121.754 250.565 122.287 250.685C122.821 250.792 123.347 250.845 123.867 250.845Z" fill="white"/>
<defs>
<clipPath id="clip0">
<rect width="192.916" height="192.916" fill="white" transform="translate(0.0751953 0.915527)"/>
</clipPath>
</defs>
</svg>
