<svg width="200" height="308" viewBox="0 0 200 308" fill="none" xmlns="http://www.w3.org/2000/svg">
<path d="M32.4816 256.86L35.4616 256.38V259.48H39.0416V261.96H35.4616V265.66C35.4616 266.287 35.5683 266.787 35.7816 267.16C36.0083 267.533 36.455 267.72 37.1216 267.72C37.4416 267.72 37.7683 267.693 38.1016 267.64C38.4483 267.573 38.7616 267.487 39.0416 267.38L39.4616 269.7C39.1016 269.847 38.7016 269.973 38.2616 270.08C37.8216 270.187 37.2816 270.24 36.6416 270.24C35.8283 270.24 35.155 270.133 34.6216 269.92C34.0883 269.693 33.6616 269.387 33.3416 269C33.0216 268.6 32.795 268.12 32.6616 267.56C32.5416 267 32.4816 266.38 32.4816 265.7V256.86ZM47.8084 262.12C47.5417 262.053 47.2284 261.987 46.8684 261.92C46.5084 261.84 46.1217 261.8 45.7084 261.8C45.5217 261.8 45.295 261.82 45.0284 261.86C44.775 261.887 44.5817 261.92 44.4484 261.96V270H41.4684V260.04C42.0017 259.853 42.6284 259.68 43.3484 259.52C44.0817 259.347 44.895 259.26 45.7884 259.26C45.9484 259.26 46.1417 259.273 46.3684 259.3C46.595 259.313 46.8217 259.34 47.0484 259.38C47.275 259.407 47.5017 259.447 47.7284 259.5C47.955 259.54 48.1484 259.593 48.3084 259.66L47.8084 262.12ZM53.7305 267.92C54.0239 267.92 54.3039 267.913 54.5705 267.9C54.8372 267.887 55.0505 267.867 55.2105 267.84V265.58C55.0905 265.553 54.9105 265.527 54.6705 265.5C54.4305 265.473 54.2105 265.46 54.0105 265.46C53.7305 265.46 53.4639 265.48 53.2105 265.52C52.9705 265.547 52.7572 265.607 52.5705 265.7C52.3839 265.793 52.2372 265.92 52.1305 266.08C52.0239 266.24 51.9705 266.44 51.9705 266.68C51.9705 267.147 52.1239 267.473 52.4305 267.66C52.7505 267.833 53.1839 267.92 53.7305 267.92ZM53.4905 259.2C54.3705 259.2 55.1039 259.3 55.6905 259.5C56.2772 259.7 56.7439 259.987 57.0905 260.36C57.4505 260.733 57.7039 261.187 57.8505 261.72C57.9972 262.253 58.0705 262.847 58.0705 263.5V269.7C57.6439 269.793 57.0505 269.9 56.2905 270.02C55.5305 270.153 54.6105 270.22 53.5305 270.22C52.8505 270.22 52.2305 270.16 51.6705 270.04C51.1239 269.92 50.6505 269.727 50.2505 269.46C49.8505 269.18 49.5439 268.82 49.3305 268.38C49.1172 267.94 49.0105 267.4 49.0105 266.76C49.0105 266.147 49.1305 265.627 49.3705 265.2C49.6239 264.773 49.9572 264.433 50.3705 264.18C50.7839 263.927 51.2572 263.747 51.7905 263.64C52.3239 263.52 52.8772 263.46 53.4505 263.46C53.8372 263.46 54.1772 263.48 54.4705 263.52C54.7772 263.547 55.0239 263.587 55.2105 263.64V263.36C55.2105 262.853 55.0572 262.447 54.7505 262.14C54.4439 261.833 53.9105 261.68 53.1505 261.68C52.6439 261.68 52.1439 261.72 51.6505 261.8C51.1572 261.867 50.7305 261.967 50.3705 262.1L49.9905 259.7C50.1639 259.647 50.3772 259.593 50.6305 259.54C50.8972 259.473 51.1839 259.42 51.4905 259.38C51.7972 259.327 52.1172 259.287 52.4505 259.26C52.7972 259.22 53.1439 259.2 53.4905 259.2ZM60.6652 256.86L63.6452 256.38V259.48H67.2252V261.96H63.6452V265.66C63.6452 266.287 63.7519 266.787 63.9652 267.16C64.1919 267.533 64.6386 267.72 65.3052 267.72C65.6252 267.72 65.9519 267.693 66.2852 267.64C66.6319 267.573 66.9452 267.487 67.2252 267.38L67.6452 269.7C67.2852 269.847 66.8852 269.973 66.4452 270.08C66.0052 270.187 65.4652 270.24 64.8252 270.24C64.0119 270.24 63.3386 270.133 62.8052 269.92C62.2719 269.693 61.8452 269.387 61.5252 269C61.2052 268.6 60.9786 268.12 60.8452 267.56C60.7252 267 60.6652 266.38 60.6652 265.7V256.86ZM73.2813 267.92C73.5747 267.92 73.8547 267.913 74.1213 267.9C74.388 267.887 74.6013 267.867 74.7613 267.84V265.58C74.6413 265.553 74.4613 265.527 74.2213 265.5C73.9813 265.473 73.7613 265.46 73.5613 265.46C73.2813 265.46 73.0147 265.48 72.7613 265.52C72.5213 265.547 72.308 265.607 72.1213 265.7C71.9347 265.793 71.788 265.92 71.6813 266.08C71.5747 266.24 71.5213 266.44 71.5213 266.68C71.5213 267.147 71.6747 267.473 71.9813 267.66C72.3013 267.833 72.7347 267.92 73.2813 267.92ZM73.0413 259.2C73.9213 259.2 74.6547 259.3 75.2413 259.5C75.828 259.7 76.2947 259.987 76.6413 260.36C77.0013 260.733 77.2547 261.187 77.4013 261.72C77.548 262.253 77.6213 262.847 77.6213 263.5V269.7C77.1947 269.793 76.6013 269.9 75.8413 270.02C75.0813 270.153 74.1613 270.22 73.0813 270.22C72.4013 270.22 71.7813 270.16 71.2213 270.04C70.6747 269.92 70.2013 269.727 69.8013 269.46C69.4013 269.18 69.0947 268.82 68.8813 268.38C68.668 267.94 68.5613 267.4 68.5613 266.76C68.5613 266.147 68.6813 265.627 68.9213 265.2C69.1747 264.773 69.508 264.433 69.9213 264.18C70.3347 263.927 70.808 263.747 71.3413 263.64C71.8747 263.52 72.428 263.46 73.0013 263.46C73.388 263.46 73.728 263.48 74.0213 263.52C74.328 263.547 74.5747 263.587 74.7613 263.64V263.36C74.7613 262.853 74.608 262.447 74.3013 262.14C73.9947 261.833 73.4613 261.68 72.7013 261.68C72.1947 261.68 71.6947 261.72 71.2013 261.8C70.708 261.867 70.2813 261.967 69.9213 262.1L69.5413 259.7C69.7147 259.647 69.928 259.593 70.1813 259.54C70.448 259.473 70.7347 259.42 71.0413 259.38C71.348 259.327 71.668 259.287 72.0013 259.26C72.348 259.22 72.6947 259.2 73.0413 259.2ZM86.096 264.42C86.096 263.46 85.9693 262.78 85.716 262.38C85.476 261.98 85.056 261.78 84.456 261.78C84.2693 261.78 84.076 261.793 83.876 261.82C83.676 261.833 83.4827 261.853 83.296 261.88V270H80.316V259.84C80.5693 259.773 80.8627 259.707 81.196 259.64C81.5427 259.56 81.9027 259.493 82.276 259.44C82.6627 259.373 83.056 259.327 83.456 259.3C83.856 259.26 84.2493 259.24 84.636 259.24C85.396 259.24 86.0093 259.34 86.476 259.54C86.956 259.727 87.3493 259.953 87.656 260.22C88.0827 259.913 88.5693 259.673 89.116 259.5C89.676 259.327 90.1893 259.24 90.656 259.24C91.496 259.24 92.1827 259.36 92.716 259.6C93.2627 259.827 93.696 260.153 94.016 260.58C94.336 261.007 94.556 261.513 94.676 262.1C94.796 262.687 94.856 263.34 94.856 264.06V270H91.876V264.42C91.876 263.46 91.7493 262.78 91.496 262.38C91.256 261.98 90.836 261.78 90.236 261.78C90.076 261.78 89.8493 261.82 89.556 261.9C89.276 261.98 89.0427 262.08 88.856 262.2C88.9493 262.507 89.0093 262.833 89.036 263.18C89.0627 263.513 89.076 263.873 89.076 264.26V270H86.096V264.42ZM97.0621 264.82C97.0621 263.887 97.2021 263.073 97.4821 262.38C97.7754 261.673 98.1554 261.087 98.6221 260.62C99.0888 260.153 99.6221 259.8 100.222 259.56C100.835 259.32 101.462 259.2 102.102 259.2C103.595 259.2 104.775 259.66 105.642 260.58C106.509 261.487 106.942 262.827 106.942 264.6C106.942 264.773 106.935 264.967 106.922 265.18C106.909 265.38 106.895 265.56 106.882 265.72H100.122C100.189 266.333 100.475 266.82 100.982 267.18C101.489 267.54 102.169 267.72 103.022 267.72C103.569 267.72 104.102 267.673 104.622 267.58C105.155 267.473 105.589 267.347 105.922 267.2L106.322 269.62C106.162 269.7 105.949 269.78 105.682 269.86C105.415 269.94 105.115 270.007 104.782 270.06C104.462 270.127 104.115 270.18 103.742 270.22C103.369 270.26 102.995 270.28 102.622 270.28C101.675 270.28 100.849 270.14 100.142 269.86C99.4488 269.58 98.8688 269.2 98.4021 268.72C97.9488 268.227 97.6088 267.647 97.3821 266.98C97.1688 266.313 97.0621 265.593 97.0621 264.82ZM104.062 263.68C104.049 263.427 104.002 263.18 103.922 262.94C103.855 262.7 103.742 262.487 103.582 262.3C103.435 262.113 103.242 261.96 103.002 261.84C102.775 261.72 102.489 261.66 102.142 261.66C101.809 261.66 101.522 261.72 101.282 261.84C101.042 261.947 100.842 262.093 100.682 262.28C100.522 262.467 100.395 262.687 100.302 262.94C100.222 263.18 100.162 263.427 100.122 263.68H104.062ZM109.242 259.84C109.748 259.693 110.402 259.56 111.202 259.44C112.002 259.307 112.842 259.24 113.722 259.24C114.615 259.24 115.355 259.36 115.942 259.6C116.542 259.827 117.015 260.153 117.362 260.58C117.708 261.007 117.955 261.513 118.102 262.1C118.248 262.687 118.322 263.34 118.322 264.06V270H115.342V264.42C115.342 263.46 115.215 262.78 114.962 262.38C114.708 261.98 114.235 261.78 113.542 261.78C113.328 261.78 113.102 261.793 112.862 261.82C112.622 261.833 112.408 261.853 112.222 261.88V270H109.242V259.84ZM120.919 256.86L123.899 256.38V259.48H127.479V261.96H123.899V265.66C123.899 266.287 124.006 266.787 124.219 267.16C124.446 267.533 124.892 267.72 125.559 267.72C125.879 267.72 126.206 267.693 126.539 267.64C126.886 267.573 127.199 267.487 127.479 267.38L127.899 269.7C127.539 269.847 127.139 269.973 126.699 270.08C126.259 270.187 125.719 270.24 125.079 270.24C124.266 270.24 123.592 270.133 123.059 269.92C122.526 269.693 122.099 269.387 121.779 269C121.459 268.6 121.232 268.12 121.099 267.56C120.979 267 120.919 266.38 120.919 265.7V256.86ZM139.355 264.72C139.355 265.547 139.235 266.307 138.995 267C138.755 267.68 138.409 268.267 137.955 268.76C137.502 269.24 136.955 269.613 136.315 269.88C135.689 270.147 134.982 270.28 134.195 270.28C133.422 270.28 132.715 270.147 132.075 269.88C131.449 269.613 130.909 269.24 130.455 268.76C130.002 268.267 129.649 267.68 129.395 267C129.142 266.307 129.015 265.547 129.015 264.72C129.015 263.893 129.142 263.14 129.395 262.46C129.662 261.78 130.022 261.2 130.475 260.72C130.942 260.24 131.489 259.867 132.115 259.6C132.755 259.333 133.449 259.2 134.195 259.2C134.955 259.2 135.649 259.333 136.275 259.6C136.915 259.867 137.462 260.24 137.915 260.72C138.369 261.2 138.722 261.78 138.975 262.46C139.229 263.14 139.355 263.893 139.355 264.72ZM136.315 264.72C136.315 263.8 136.129 263.08 135.755 262.56C135.395 262.027 134.875 261.76 134.195 261.76C133.515 261.76 132.989 262.027 132.615 262.56C132.242 263.08 132.055 263.8 132.055 264.72C132.055 265.64 132.242 266.373 132.615 266.92C132.989 267.453 133.515 267.72 134.195 267.72C134.875 267.72 135.395 267.453 135.755 266.92C136.129 266.373 136.315 265.64 136.315 264.72ZM149.008 264.66C149.008 265.58 149.215 266.32 149.628 266.88C150.042 267.44 150.655 267.72 151.468 267.72C151.735 267.72 151.982 267.713 152.208 267.7C152.435 267.673 152.622 267.647 152.768 267.62V262.2C152.582 262.08 152.335 261.98 152.028 261.9C151.735 261.82 151.435 261.78 151.128 261.78C149.715 261.78 149.008 262.74 149.008 264.66ZM155.748 269.66C155.482 269.74 155.175 269.82 154.828 269.9C154.482 269.967 154.115 270.027 153.728 270.08C153.355 270.133 152.968 270.173 152.568 270.2C152.182 270.24 151.808 270.26 151.448 270.26C150.582 270.26 149.808 270.133 149.128 269.88C148.448 269.627 147.875 269.267 147.408 268.8C146.942 268.32 146.582 267.747 146.328 267.08C146.088 266.4 145.968 265.64 145.968 264.8C145.968 263.947 146.075 263.18 146.288 262.5C146.502 261.807 146.808 261.22 147.208 260.74C147.608 260.26 148.095 259.893 148.668 259.64C149.255 259.387 149.922 259.26 150.668 259.26C151.082 259.26 151.448 259.3 151.768 259.38C152.102 259.46 152.435 259.573 152.768 259.72V254.96L155.748 254.48V269.66ZM158.039 264.82C158.039 263.887 158.179 263.073 158.459 262.38C158.752 261.673 159.132 261.087 159.599 260.62C160.065 260.153 160.599 259.8 161.199 259.56C161.812 259.32 162.439 259.2 163.079 259.2C164.572 259.2 165.752 259.66 166.619 260.58C167.485 261.487 167.919 262.827 167.919 264.6C167.919 264.773 167.912 264.967 167.899 265.18C167.885 265.38 167.872 265.56 167.859 265.72H161.099C161.165 266.333 161.452 266.82 161.959 267.18C162.465 267.54 163.145 267.72 163.999 267.72C164.545 267.72 165.079 267.673 165.599 267.58C166.132 267.473 166.565 267.347 166.899 267.2L167.299 269.62C167.139 269.7 166.925 269.78 166.659 269.86C166.392 269.94 166.092 270.007 165.759 270.06C165.439 270.127 165.092 270.18 164.719 270.22C164.345 270.26 163.972 270.28 163.599 270.28C162.652 270.28 161.825 270.14 161.119 269.86C160.425 269.58 159.845 269.2 159.379 268.72C158.925 268.227 158.585 267.647 158.359 266.98C158.145 266.313 158.039 265.593 158.039 264.82ZM165.039 263.68C165.025 263.427 164.979 263.18 164.899 262.94C164.832 262.7 164.719 262.487 164.559 262.3C164.412 262.113 164.219 261.96 163.979 261.84C163.752 261.72 163.465 261.66 163.119 261.66C162.785 261.66 162.499 261.72 162.259 261.84C162.019 261.947 161.819 262.093 161.659 262.28C161.499 262.467 161.372 262.687 161.279 262.94C161.199 263.18 161.139 263.427 161.099 263.68H165.039ZM32.8126 300.28C30.5592 300.28 28.8392 299.653 27.6526 298.4C26.4792 297.147 25.8926 295.367 25.8926 293.06C25.8926 291.913 26.0726 290.893 26.4326 290C26.7926 289.093 27.2859 288.333 27.9126 287.72C28.5392 287.093 29.2859 286.62 30.1526 286.3C31.0192 285.98 31.9592 285.82 32.9726 285.82C33.5592 285.82 34.0926 285.867 34.5726 285.96C35.0526 286.04 35.4726 286.14 35.8326 286.26C36.1926 286.367 36.4926 286.48 36.7326 286.6C36.9726 286.72 37.1459 286.813 37.2526 286.88L36.3526 289.4C35.9259 289.173 35.4259 288.98 34.8526 288.82C34.2926 288.66 33.6526 288.58 32.9326 288.58C32.4526 288.58 31.9792 288.66 31.5126 288.82C31.0592 288.98 30.6526 289.24 30.2926 289.6C29.9459 289.947 29.6659 290.4 29.4526 290.96C29.2392 291.52 29.1326 292.2 29.1326 293C29.1326 293.64 29.1992 294.24 29.3326 294.8C29.4792 295.347 29.7059 295.82 30.0126 296.22C30.3326 296.62 30.7459 296.94 31.2526 297.18C31.7592 297.407 32.3726 297.52 33.0926 297.52C33.5459 297.52 33.9526 297.493 34.3126 297.44C34.6726 297.387 34.9926 297.327 35.2726 297.26C35.5526 297.18 35.7992 297.093 36.0126 297C36.2259 296.907 36.4192 296.82 36.5926 296.74L37.4526 299.24C37.0126 299.507 36.3926 299.747 35.5926 299.96C34.7926 300.173 33.8659 300.28 32.8126 300.28ZM43.4766 297.92C43.77 297.92 44.05 297.913 44.3166 297.9C44.5833 297.887 44.7966 297.867 44.9566 297.84V295.58C44.8366 295.553 44.6566 295.527 44.4166 295.5C44.1766 295.473 43.9566 295.46 43.7566 295.46C43.4766 295.46 43.21 295.48 42.9566 295.52C42.7166 295.547 42.5033 295.607 42.3166 295.7C42.13 295.793 41.9833 295.92 41.8766 296.08C41.77 296.24 41.7166 296.44 41.7166 296.68C41.7166 297.147 41.87 297.473 42.1766 297.66C42.4966 297.833 42.93 297.92 43.4766 297.92ZM43.2366 289.2C44.1166 289.2 44.85 289.3 45.4366 289.5C46.0233 289.7 46.49 289.987 46.8366 290.36C47.1966 290.733 47.45 291.187 47.5966 291.72C47.7433 292.253 47.8166 292.847 47.8166 293.5V299.7C47.39 299.793 46.7966 299.9 46.0366 300.02C45.2766 300.153 44.3566 300.22 43.2766 300.22C42.5966 300.22 41.9766 300.16 41.4166 300.04C40.87 299.92 40.3966 299.727 39.9966 299.46C39.5966 299.18 39.29 298.82 39.0766 298.38C38.8633 297.94 38.7566 297.4 38.7566 296.76C38.7566 296.147 38.8766 295.627 39.1166 295.2C39.37 294.773 39.7033 294.433 40.1166 294.18C40.53 293.927 41.0033 293.747 41.5366 293.64C42.07 293.52 42.6233 293.46 43.1966 293.46C43.5833 293.46 43.9233 293.48 44.2166 293.52C44.5233 293.547 44.77 293.587 44.9566 293.64V293.36C44.9566 292.853 44.8033 292.447 44.4966 292.14C44.19 291.833 43.6566 291.68 42.8966 291.68C42.39 291.68 41.89 291.72 41.3966 291.8C40.9033 291.867 40.4766 291.967 40.1166 292.1L39.7366 289.7C39.91 289.647 40.1233 289.593 40.3766 289.54C40.6433 289.473 40.93 289.42 41.2366 289.38C41.5433 289.327 41.8633 289.287 42.1966 289.26C42.5433 289.22 42.89 289.2 43.2366 289.2ZM45.9966 285.7L42.6966 288.48L41.3366 287.26L44.1766 284.02L45.9966 285.7ZM56.8513 292.12C56.5847 292.053 56.2713 291.987 55.9113 291.92C55.5513 291.84 55.1647 291.8 54.7513 291.8C54.5647 291.8 54.338 291.82 54.0713 291.86C53.818 291.887 53.6247 291.92 53.4913 291.96V300H50.5113V290.04C51.0447 289.853 51.6713 289.68 52.3913 289.52C53.1247 289.347 53.938 289.26 54.8313 289.26C54.9913 289.26 55.1847 289.273 55.4113 289.3C55.638 289.313 55.8647 289.34 56.0913 289.38C56.318 289.407 56.5447 289.447 56.7713 289.5C56.998 289.54 57.1913 289.593 57.3513 289.66L56.8513 292.12ZM61.9288 300H58.9488V289.48H61.9288V300ZM62.2088 286.44C62.2088 286.987 62.0288 287.42 61.6688 287.74C61.3222 288.047 60.9088 288.2 60.4288 288.2C59.9488 288.2 59.5288 288.047 59.1688 287.74C58.8222 287.42 58.6488 286.987 58.6488 286.44C58.6488 285.893 58.8222 285.467 59.1688 285.16C59.5288 284.84 59.9488 284.68 60.4288 284.68C60.9088 284.68 61.3222 284.84 61.6688 285.16C62.0288 285.467 62.2088 285.893 62.2088 286.44ZM64.2301 294.82C64.2301 293.887 64.3701 293.073 64.6501 292.38C64.9434 291.673 65.3234 291.087 65.7901 290.62C66.2567 290.153 66.7901 289.8 67.3901 289.56C68.0034 289.32 68.6301 289.2 69.2701 289.2C70.7634 289.2 71.9434 289.66 72.8101 290.58C73.6767 291.487 74.1101 292.827 74.1101 294.6C74.1101 294.773 74.1034 294.967 74.0901 295.18C74.0767 295.38 74.0634 295.56 74.0501 295.72H67.2901C67.3567 296.333 67.6434 296.82 68.1501 297.18C68.6567 297.54 69.3367 297.72 70.1901 297.72C70.7367 297.72 71.2701 297.673 71.7901 297.58C72.3234 297.473 72.7567 297.347 73.0901 297.2L73.4901 299.62C73.3301 299.7 73.1167 299.78 72.8501 299.86C72.5834 299.94 72.2834 300.007 71.9501 300.06C71.6301 300.127 71.2834 300.18 70.9101 300.22C70.5367 300.26 70.1634 300.28 69.7901 300.28C68.8434 300.28 68.0167 300.14 67.3101 299.86C66.6167 299.58 66.0367 299.2 65.5701 298.72C65.1167 298.227 64.7767 297.647 64.5501 296.98C64.3367 296.313 64.2301 295.593 64.2301 294.82ZM71.2301 293.68C71.2167 293.427 71.1701 293.18 71.0901 292.94C71.0234 292.7 70.9101 292.487 70.7501 292.3C70.6034 292.113 70.4101 291.96 70.1701 291.84C69.9434 291.72 69.6567 291.66 69.3101 291.66C68.9767 291.66 68.6901 291.72 68.4501 291.84C68.2101 291.947 68.0101 292.093 67.8501 292.28C67.6901 292.467 67.5634 292.687 67.4701 292.94C67.3901 293.18 67.3301 293.427 67.2901 293.68H71.2301ZM80.7145 294.82C80.7145 293.887 80.8545 293.073 81.1345 292.38C81.4278 291.673 81.8078 291.087 82.2745 290.62C82.7411 290.153 83.2745 289.8 83.8745 289.56C84.4878 289.32 85.1145 289.2 85.7545 289.2C87.2478 289.2 88.4278 289.66 89.2945 290.58C90.1611 291.487 90.5945 292.827 90.5945 294.6C90.5945 294.773 90.5878 294.967 90.5745 295.18C90.5611 295.38 90.5478 295.56 90.5345 295.72H83.7745C83.8411 296.333 84.1278 296.82 84.6345 297.18C85.1411 297.54 85.8211 297.72 86.6745 297.72C87.2211 297.72 87.7545 297.673 88.2745 297.58C88.8078 297.473 89.2411 297.347 89.5745 297.2L89.9745 299.62C89.8145 299.7 89.6011 299.78 89.3345 299.86C89.0678 299.94 88.7678 300.007 88.4345 300.06C88.1145 300.127 87.7678 300.18 87.3945 300.22C87.0211 300.26 86.6478 300.28 86.2745 300.28C85.3278 300.28 84.5011 300.14 83.7945 299.86C83.1011 299.58 82.5211 299.2 82.0545 298.72C81.6011 298.227 81.2611 297.647 81.0345 296.98C80.8211 296.313 80.7145 295.593 80.7145 294.82ZM87.7145 293.68C87.7011 293.427 87.6545 293.18 87.5745 292.94C87.5078 292.7 87.3945 292.487 87.2345 292.3C87.0878 292.113 86.8945 291.96 86.6545 291.84C86.4278 291.72 86.1411 291.66 85.7945 291.66C85.4611 291.66 85.1745 291.72 84.9345 291.84C84.6945 291.947 84.4945 292.093 84.3345 292.28C84.1745 292.467 84.0478 292.687 83.9545 292.94C83.8745 293.18 83.8145 293.427 83.7745 293.68H87.7145ZM107.159 297.32V300H97.8988V286.14H101.019V297.32H107.159ZM111.948 300H108.968V289.48H111.948V300ZM112.228 286.44C112.228 286.987 112.048 287.42 111.688 287.74C111.342 288.047 110.928 288.2 110.448 288.2C109.968 288.2 109.548 288.047 109.188 287.74C108.842 287.42 108.668 286.987 108.668 286.44C108.668 285.893 108.842 285.467 109.188 285.16C109.548 284.84 109.968 284.68 110.448 284.68C110.928 284.68 111.342 284.84 111.688 285.16C112.048 285.467 112.228 285.893 112.228 286.44ZM120.53 294.42C120.53 293.46 120.403 292.78 120.15 292.38C119.91 291.98 119.49 291.78 118.89 291.78C118.703 291.78 118.51 291.793 118.31 291.82C118.11 291.833 117.916 291.853 117.73 291.88V300H114.75V289.84C115.003 289.773 115.296 289.707 115.63 289.64C115.976 289.56 116.336 289.493 116.71 289.44C117.096 289.373 117.49 289.327 117.89 289.3C118.29 289.26 118.683 289.24 119.07 289.24C119.83 289.24 120.443 289.34 120.91 289.54C121.39 289.727 121.783 289.953 122.09 290.22C122.516 289.913 123.003 289.673 123.55 289.5C124.11 289.327 124.623 289.24 125.09 289.24C125.93 289.24 126.616 289.36 127.15 289.6C127.696 289.827 128.13 290.153 128.45 290.58C128.77 291.007 128.99 291.513 129.11 292.1C129.23 292.687 129.29 293.34 129.29 294.06V300H126.31V294.42C126.31 293.46 126.183 292.78 125.93 292.38C125.69 291.98 125.27 291.78 124.67 291.78C124.51 291.78 124.283 291.82 123.99 291.9C123.71 291.98 123.476 292.08 123.29 292.2C123.383 292.507 123.443 292.833 123.47 293.18C123.496 293.513 123.51 293.873 123.51 294.26V300H120.53V294.42ZM138.736 294.82C138.736 293.9 138.529 293.167 138.116 292.62C137.702 292.06 137.089 291.78 136.276 291.78C136.009 291.78 135.762 291.793 135.536 291.82C135.309 291.833 135.122 291.853 134.976 291.88V297.26C135.162 297.38 135.402 297.48 135.696 297.56C136.002 297.64 136.309 297.68 136.616 297.68C138.029 297.68 138.736 296.727 138.736 294.82ZM141.776 294.74C141.776 295.553 141.676 296.293 141.476 296.96C141.276 297.627 140.982 298.2 140.596 298.68C140.209 299.16 139.729 299.533 139.156 299.8C138.582 300.067 137.922 300.2 137.176 300.2C136.762 300.2 136.376 300.16 136.016 300.08C135.656 300 135.309 299.887 134.976 299.74V303.7H131.996V289.84C132.262 289.76 132.569 289.687 132.916 289.62C133.262 289.54 133.622 289.473 133.996 289.42C134.382 289.367 134.769 289.327 135.156 289.3C135.556 289.26 135.936 289.24 136.296 289.24C137.162 289.24 137.936 289.373 138.616 289.64C139.296 289.893 139.869 290.26 140.336 290.74C140.802 291.207 141.156 291.78 141.396 292.46C141.649 293.14 141.776 293.9 141.776 294.74ZM143.566 294.82C143.566 293.887 143.706 293.073 143.986 292.38C144.279 291.673 144.659 291.087 145.126 290.62C145.593 290.153 146.126 289.8 146.726 289.56C147.339 289.32 147.966 289.2 148.606 289.2C150.099 289.2 151.279 289.66 152.146 290.58C153.013 291.487 153.446 292.827 153.446 294.6C153.446 294.773 153.439 294.967 153.426 295.18C153.413 295.38 153.399 295.56 153.386 295.72H146.626C146.693 296.333 146.979 296.82 147.486 297.18C147.993 297.54 148.673 297.72 149.526 297.72C150.073 297.72 150.606 297.673 151.126 297.58C151.659 297.473 152.093 297.347 152.426 297.2L152.826 299.62C152.666 299.7 152.453 299.78 152.186 299.86C151.919 299.94 151.619 300.007 151.286 300.06C150.966 300.127 150.619 300.18 150.246 300.22C149.873 300.26 149.499 300.28 149.126 300.28C148.179 300.28 147.353 300.14 146.646 299.86C145.953 299.58 145.373 299.2 144.906 298.72C144.453 298.227 144.113 297.647 143.886 296.98C143.673 296.313 143.566 295.593 143.566 294.82ZM150.566 293.68C150.553 293.427 150.506 293.18 150.426 292.94C150.359 292.7 150.246 292.487 150.086 292.3C149.939 292.113 149.746 291.96 149.506 291.84C149.279 291.72 148.993 291.66 148.646 291.66C148.313 291.66 148.026 291.72 147.786 291.84C147.546 291.947 147.346 292.093 147.186 292.28C147.026 292.467 146.899 292.687 146.806 292.94C146.726 293.18 146.666 293.427 146.626 293.68H150.566ZM163.646 291.48C163.406 291.747 163.079 292.107 162.666 292.56C162.266 293.013 161.832 293.513 161.366 294.06C160.899 294.607 160.426 295.18 159.946 295.78C159.479 296.38 159.052 296.96 158.666 297.52H163.746V300H155.046V298.24C155.326 297.76 155.659 297.247 156.046 296.7C156.446 296.14 156.859 295.58 157.286 295.02C157.726 294.46 158.159 293.92 158.586 293.4C159.012 292.867 159.406 292.387 159.766 291.96H155.286V289.48H163.646V291.48ZM169.473 297.92C169.766 297.92 170.046 297.913 170.313 297.9C170.579 297.887 170.793 297.867 170.953 297.84V295.58C170.833 295.553 170.653 295.527 170.413 295.5C170.173 295.473 169.953 295.46 169.753 295.46C169.473 295.46 169.206 295.48 168.953 295.52C168.713 295.547 168.499 295.607 168.313 295.7C168.126 295.793 167.979 295.92 167.873 296.08C167.766 296.24 167.713 296.44 167.713 296.68C167.713 297.147 167.866 297.473 168.173 297.66C168.493 297.833 168.926 297.92 169.473 297.92ZM169.233 289.2C170.113 289.2 170.846 289.3 171.433 289.5C172.019 289.7 172.486 289.987 172.833 290.36C173.193 290.733 173.446 291.187 173.593 291.72C173.739 292.253 173.813 292.847 173.813 293.5V299.7C173.386 299.793 172.793 299.9 172.033 300.02C171.273 300.153 170.353 300.22 169.273 300.22C168.593 300.22 167.973 300.16 167.413 300.04C166.866 299.92 166.393 299.727 165.993 299.46C165.593 299.18 165.286 298.82 165.073 298.38C164.859 297.94 164.753 297.4 164.753 296.76C164.753 296.147 164.873 295.627 165.113 295.2C165.366 294.773 165.699 294.433 166.113 294.18C166.526 293.927 166.999 293.747 167.533 293.64C168.066 293.52 168.619 293.46 169.193 293.46C169.579 293.46 169.919 293.48 170.213 293.52C170.519 293.547 170.766 293.587 170.953 293.64V293.36C170.953 292.853 170.799 292.447 170.493 292.14C170.186 291.833 169.653 291.68 168.893 291.68C168.386 291.68 167.886 291.72 167.393 291.8C166.899 291.867 166.473 291.967 166.113 292.1L165.733 289.7C165.906 289.647 166.119 289.593 166.373 289.54C166.639 289.473 166.926 289.42 167.233 289.38C167.539 289.327 167.859 289.287 168.193 289.26C168.539 289.22 168.886 289.2 169.233 289.2Z" fill="white"/>
<g clip-path="url(#clip0)">
<circle cx="100.944" cy="100.943" r="91.8519" fill="#00ACE2"/>
<path d="M187.74 35.2995C184.997 27.3389 180.823 20.4261 175.582 14.9437C170.341 9.46124 164.029 5.405 157.003 3.15266C130.32 -5.40436 108.378 5.59953 100 10.8679C91.6228 5.59992 69.6779 -5.40436 42.9975 3.15266C28.9428 7.66124 17.7401 19.3819 12.2577 35.319C5.0452 56.2748 8.67683 80.449 21.9717 99.9786C30.8522 113.028 36.6502 127.754 38.7424 142.564C38.8631 143.422 38.9803 144.295 39.0971 145.187C41.1076 160.8 44.0729 173.336 47.9072 182.438C52.5014 193.341 58.424 199.228 65.5197 199.937C65.9209 199.98 66.3224 200 66.7158 200C73.6986 200 79.5353 193.734 84.0712 181.351C87.4302 172.194 90.0759 159.927 91.5216 146.804C92.3321 139.466 94.2259 133.528 96.9962 129.624C97.9899 128.229 99.4278 128.077 100 128.077C100.573 128.077 102.011 128.229 103.005 129.624C105.775 133.528 107.669 139.466 108.479 146.804C109.925 159.927 112.571 172.194 115.93 181.351C120.47 193.734 126.303 200 133.285 200C133.679 200 134.08 199.98 134.482 199.938C141.577 199.228 147.5 193.341 152.094 182.438C155.928 173.336 158.894 160.801 160.904 145.187C161.017 144.326 161.13 143.484 161.247 142.658C163.332 127.824 169.15 113.048 178.061 99.9365C191.337 80.4064 194.952 56.2436 187.74 35.2995ZM168.394 93.3662C158.481 107.951 152.005 124.43 149.671 141.029C149.55 141.898 149.429 142.786 149.312 143.69C145.217 175.475 137.579 187.745 133.395 188.298C132.514 187.987 129.506 185.095 126.272 175.529C123.532 167.425 121.338 156.767 120.099 145.522C119.055 136.081 116.511 128.455 112.532 122.856C109.656 118.807 104.969 116.387 100.001 116.387C95.0329 116.387 90.345 118.807 87.4697 122.856C83.4911 128.455 80.9466 136.081 79.9025 145.522C78.6634 156.767 76.4697 167.425 73.7302 175.529C70.4962 185.095 67.488 187.987 66.6072 188.298C62.4224 187.745 54.7889 175.475 50.6896 143.69C50.5689 142.751 50.4439 141.832 50.3154 140.932C47.9775 124.356 41.517 107.924 31.6354 93.4013C20.4053 76.9033 17.2921 56.61 23.3084 39.1221C27.583 26.7077 36.058 17.6558 46.567 14.2854C58.0111 10.6148 69.8099 10.8526 81.6361 14.9831C90.6724 18.1393 96.3415 22.5073 96.3806 22.5386L96.513 22.6436L96.5325 22.6554L100.102 25.3089L114.09 35.701L98.7728 61.9561L121.357 76.6849L127.74 66.8928L114.476 58.2424L129.454 32.5561L110.4 18.396C118.996 13.9733 134.941 8.3546 153.434 14.2851C163.935 17.6518 172.41 26.6995 176.685 39.11C182.705 56.5826 179.604 76.8681 168.394 93.3662Z" fill="white"/>
<mask id="mask0" mask-type="alpha" maskUnits="userSpaceOnUse" x="9" y="9" width="184" height="184">
<circle cx="100.944" cy="100.943" r="91.8519" fill="#E5F2FF"/>
</mask>
<g mask="url(#mask0)">
</g>
</g>
<defs>
<clipPath id="clip0">
<rect width="200" height="200" fill="white"/>
</clipPath>
</defs>
</svg>
