<svg width="194" height="261" viewBox="0 0 194 261" fill="none" xmlns="http://www.w3.org/2000/svg">
<circle cx="97.7127" cy="98.0877" r="88.5984" fill="#00ACE2"/>
<path d="M0.541504 9.54624C17.3754 9.54245 34.2093 9.56521 51.0433 9.48934C52.6031 9.48175 53.181 10.0166 53.672 11.4051C62.5705 36.568 71.5182 61.712 80.4582 86.8598C80.7113 87.5692 80.9832 88.2672 81.259 88.9994C84.5865 88.9994 87.8422 88.9994 91.3057 88.9994C91.3057 73.935 91.3057 58.901 91.3057 43.719C92.1064 43.681 92.7107 43.6241 93.3188 43.6241C103.494 43.6203 113.669 43.5976 123.848 43.6279C134.624 43.6621 142.952 48.2409 148.7 57.4025C155.125 67.6414 161.504 77.9107 167.853 88.1989C168.529 89.2991 169.296 89.906 170.565 90.2171C178.183 92.0722 185.779 94.0221 193.457 95.9568C193.457 118.191 193.457 140.387 193.457 162.834C185.809 162.834 178.13 162.834 170.516 162.834C166.207 179.647 152.307 186.134 141.498 185.6C129.529 185.008 118.164 176.893 114.942 163.028C103.075 163.028 91.1735 163.028 79.1363 163.028C77.3989 170.471 73.4633 176.499 67.0878 180.808C61.9776 184.26 56.3046 185.827 50.1632 185.577C39.4442 185.144 27.2862 177.929 23.6225 162.883C15.9628 162.883 8.25028 162.883 0.541504 162.883C0.541504 138.274 0.541504 113.662 0.541504 89.0525C15.8231 89.0525 31.1085 89.0525 46.5827 89.0525C46.2881 88.2103 46.0841 87.6223 45.8764 87.0419C42.5678 77.7362 39.2591 68.4305 35.9505 59.1248C31.6146 46.917 27.2786 34.7054 22.9124 22.5014C22.7047 21.921 22.225 21.0029 21.8473 20.9877C18.5538 20.8663 15.249 20.9194 12.0046 20.9194C12.0046 36.2039 12.0046 51.2341 12.0046 66.4009C15.7702 66.4009 19.3885 66.4009 23.0484 66.4009C23.0484 70.2173 23.0484 73.8971 23.0484 77.6982C15.4643 77.6982 8.00478 77.6982 0.541504 77.6982C0.541504 54.9822 0.541504 32.2623 0.541504 9.54624ZM11.9933 100.464C11.9933 110.001 11.9933 119.36 11.9933 128.809C12.8166 128.809 13.5003 128.809 14.1877 128.809C26.5006 128.809 38.8135 128.749 51.1264 128.828C61.5168 128.897 69.6788 133.343 75.2762 142.121C77.0703 144.936 78.143 148.21 79.6009 151.404C83.2985 151.404 87.2832 151.404 91.2301 151.404C91.2301 134.352 91.2301 117.421 91.2301 100.467C64.7574 100.464 38.4433 100.464 11.9933 100.464ZM102.742 151.423C106.897 151.423 110.885 151.423 114.821 151.423C114.942 151.214 115.033 151.116 115.059 151.002C117.605 138.938 128.868 128.4 144.21 128.752C156.201 129.029 168.208 128.809 180.208 128.809C180.865 128.809 181.522 128.809 182.232 128.809C182.232 121.055 182.213 113.608 182.251 106.165C182.255 105.16 181.949 104.728 180.952 104.511C178.44 103.961 175.966 103.233 173.458 102.668C169.98 101.879 166.494 100.57 163 100.532C143.59 100.319 124.177 100.426 104.763 100.422C104.102 100.422 103.441 100.422 102.746 100.422C102.742 117.546 102.742 134.386 102.742 151.423ZM102.848 55.2781C102.848 66.4616 102.848 77.7096 102.848 88.9425C120.233 88.9425 137.471 88.9425 154.789 88.9425C154.702 88.6504 154.683 88.4569 154.592 88.3127C149.203 79.6519 143.889 70.9418 138.382 62.3569C135.859 58.423 132.12 55.6081 127.455 55.3843C119.319 55.0011 111.154 55.2781 102.848 55.2781ZM159.608 157.296C159.646 147.967 152.092 140.258 142.835 140.179C133.457 140.099 125.736 147.728 125.702 157.121C125.665 166.442 133.226 174.158 142.476 174.238C151.858 174.317 159.57 166.688 159.608 157.296ZM34.4813 157.087C34.4851 166.563 42.0956 174.272 51.4058 174.234C60.8067 174.196 68.372 166.571 68.3833 157.125C68.3946 147.77 60.7085 140.164 51.2585 140.183C42.1296 140.202 34.4775 147.91 34.4813 157.087ZM34.3982 20.9081C42.5111 43.7304 50.5598 66.3668 58.5858 88.9425C62.1626 88.9425 65.5808 88.9425 69.1387 88.9425C68.8932 88.2141 68.7006 87.6261 68.4928 87.0419C65.0633 77.372 61.6339 67.7021 58.1968 58.0322C53.978 46.1696 49.7629 34.3071 45.4911 22.4634C45.2683 21.8489 44.5544 20.9991 44.037 20.9764C40.9097 20.8398 37.771 20.9081 34.3982 20.9081ZM11.9706 140.266C11.9706 144.029 11.9706 147.702 11.9706 151.427C15.9477 151.427 19.804 151.427 23.275 151.427C25.0049 147.535 26.6328 143.874 28.238 140.266C22.9011 140.266 17.4698 140.266 11.9706 140.266ZM170.788 151.381C174.433 151.381 178.282 151.381 182.142 151.381C182.142 147.61 182.142 143.984 182.142 140.277C176.586 140.277 171.12 140.277 165.859 140.277C167.476 143.927 169.092 147.561 170.788 151.381Z" fill="white"/>
<path d="M148.305 157.183C148.316 160.255 145.782 162.846 142.723 162.884C139.663 162.922 137.046 160.381 136.997 157.327C136.944 154.182 139.546 151.526 142.681 151.522C145.733 151.522 148.294 154.098 148.305 157.183Z" fill="white"/>
<path d="M51.1586 162.881C48.1068 162.725 45.6631 160.043 45.7878 156.978C45.9124 153.837 48.6922 151.329 51.8045 151.538C54.8562 151.747 57.2622 154.478 57.0809 157.528C56.8958 160.597 54.1991 163.033 51.1586 162.881Z" fill="white"/>
<path d="M61.2454 238.965C63.3254 238.965 64.9188 239.339 66.0254 240.085C67.1321 240.819 67.6854 241.965 67.6854 243.525C67.6854 244.499 67.4588 245.292 67.0055 245.905C66.5655 246.505 65.9255 246.979 65.0854 247.325C65.3654 247.672 65.6588 248.072 65.9655 248.525C66.2721 248.965 66.5721 249.432 66.8654 249.925C67.1721 250.405 67.4654 250.912 67.7455 251.445C68.0254 251.965 68.2854 252.479 68.5254 252.985H65.0254C64.7721 252.532 64.5121 252.072 64.2454 251.605C63.9921 251.139 63.7254 250.685 63.4454 250.245C63.1788 249.805 62.9121 249.392 62.6454 249.005C62.3788 248.605 62.1121 248.245 61.8454 247.925H60.3054V252.985H57.1854V239.325C57.8654 239.192 58.5654 239.099 59.2854 239.045C60.0188 238.992 60.6721 238.965 61.2454 238.965ZM61.4254 241.625C61.1988 241.625 60.9921 241.632 60.8054 241.645C60.6321 241.659 60.4654 241.672 60.3054 241.685V245.445H61.1854C62.3588 245.445 63.1988 245.299 63.7054 245.005C64.2121 244.712 64.4654 244.212 64.4654 243.505C64.4654 242.825 64.2054 242.345 63.6854 242.065C63.1788 241.772 62.4254 241.625 61.4254 241.625ZM69.3175 247.805C69.3175 246.872 69.4575 246.059 69.7375 245.365C70.0308 244.659 70.4108 244.072 70.8775 243.605C71.3441 243.139 71.8775 242.785 72.4775 242.545C73.0908 242.305 73.7175 242.185 74.3575 242.185C75.8508 242.185 77.0308 242.645 77.8975 243.565C78.7641 244.472 79.1975 245.812 79.1975 247.585C79.1975 247.759 79.1908 247.952 79.1775 248.165C79.1641 248.365 79.1508 248.545 79.1375 248.705H72.3775C72.4441 249.319 72.7308 249.805 73.2375 250.165C73.7441 250.525 74.4241 250.705 75.2775 250.705C75.8241 250.705 76.3575 250.659 76.8775 250.565C77.4108 250.459 77.8441 250.332 78.1775 250.185L78.5775 252.605C78.4175 252.685 78.2041 252.765 77.9375 252.845C77.6708 252.925 77.3708 252.992 77.0375 253.045C76.7175 253.112 76.3708 253.165 75.9975 253.205C75.6241 253.245 75.2508 253.265 74.8775 253.265C73.9308 253.265 73.1041 253.125 72.3975 252.845C71.7041 252.565 71.1241 252.185 70.6575 251.705C70.2041 251.212 69.8641 250.632 69.6375 249.965C69.4241 249.299 69.3175 248.579 69.3175 247.805ZM76.3175 246.665C76.3041 246.412 76.2575 246.165 76.1775 245.925C76.1108 245.685 75.9975 245.472 75.8375 245.285C75.6908 245.099 75.4975 244.945 75.2575 244.825C75.0308 244.705 74.7441 244.645 74.3975 244.645C74.0641 244.645 73.7775 244.705 73.5375 244.825C73.2975 244.932 73.0975 245.079 72.9375 245.265C72.7775 245.452 72.6508 245.672 72.5575 245.925C72.4775 246.165 72.4175 246.412 72.3775 246.665H76.3175ZM88.2372 247.645C88.2372 245.725 87.5305 244.765 86.1172 244.765C85.8105 244.765 85.5038 244.805 85.1972 244.885C84.9038 244.965 84.6638 245.065 84.4772 245.185V250.605C84.6238 250.632 84.8105 250.659 85.0372 250.685C85.2638 250.699 85.5105 250.705 85.7772 250.705C86.5905 250.705 87.2038 250.425 87.6172 249.865C88.0305 249.305 88.2372 248.565 88.2372 247.645ZM91.2772 247.725C91.2772 248.565 91.1505 249.325 90.8972 250.005C90.6572 250.685 90.3038 251.265 89.8372 251.745C89.3705 252.225 88.7972 252.599 88.1172 252.865C87.4372 253.119 86.6638 253.245 85.7972 253.245C85.4372 253.245 85.0572 253.225 84.6572 253.185C84.2705 253.159 83.8838 253.119 83.4972 253.065C83.1238 253.012 82.7638 252.952 82.4172 252.885C82.0705 252.805 81.7638 252.725 81.4972 252.645V237.945L84.4772 237.465V242.705C84.8105 242.559 85.1572 242.445 85.5172 242.365C85.8772 242.285 86.2638 242.245 86.6772 242.245C87.4238 242.245 88.0838 242.379 88.6572 242.645C89.2305 242.899 89.7105 243.265 90.0972 243.745C90.4838 244.225 90.7772 244.805 90.9772 245.485C91.1772 246.152 91.2772 246.899 91.2772 247.725ZM103.407 247.705C103.407 248.532 103.287 249.292 103.047 249.985C102.807 250.665 102.461 251.252 102.007 251.745C101.554 252.225 101.007 252.599 100.367 252.865C99.7408 253.132 99.0341 253.265 98.2475 253.265C97.4741 253.265 96.7675 253.132 96.1275 252.865C95.5008 252.599 94.9608 252.225 94.5075 251.745C94.0541 251.252 93.7008 250.665 93.4475 249.985C93.1941 249.292 93.0675 248.532 93.0675 247.705C93.0675 246.879 93.1941 246.125 93.4475 245.445C93.7141 244.765 94.0741 244.185 94.5275 243.705C94.9941 243.225 95.5408 242.852 96.1675 242.585C96.8075 242.319 97.5008 242.185 98.2475 242.185C99.0075 242.185 99.7008 242.319 100.327 242.585C100.967 242.852 101.514 243.225 101.967 243.705C102.421 244.185 102.774 244.765 103.027 245.445C103.281 246.125 103.407 246.879 103.407 247.705ZM100.367 247.705C100.367 246.785 100.181 246.065 99.8075 245.545C99.4475 245.012 98.9275 244.745 98.2475 244.745C97.5675 244.745 97.0408 245.012 96.6675 245.545C96.2941 246.065 96.1075 246.785 96.1075 247.705C96.1075 248.625 96.2941 249.359 96.6675 249.905C97.0408 250.439 97.5675 250.705 98.2475 250.705C98.9275 250.705 99.4475 250.439 99.8075 249.905C100.181 249.359 100.367 248.625 100.367 247.705ZM108.256 247.805C108.256 249.712 108.963 250.665 110.376 250.665C110.683 250.665 110.983 250.625 111.276 250.545C111.583 250.465 111.829 250.365 112.016 250.245V244.865C111.869 244.839 111.683 244.819 111.456 244.805C111.229 244.779 110.983 244.765 110.716 244.765C109.903 244.765 109.289 245.045 108.876 245.605C108.463 246.152 108.256 246.885 108.256 247.805ZM105.216 247.725C105.216 246.912 105.336 246.172 105.576 245.505C105.829 244.825 106.189 244.245 106.656 243.765C107.123 243.272 107.696 242.892 108.376 242.625C109.056 242.359 109.829 242.225 110.696 242.225C111.056 242.225 111.429 242.245 111.816 242.285C112.216 242.312 112.603 242.352 112.976 242.405C113.363 242.459 113.729 242.525 114.076 242.605C114.423 242.672 114.729 242.745 114.996 242.825V256.685H112.016V252.725C111.683 252.872 111.336 252.985 110.976 253.065C110.616 253.145 110.229 253.185 109.816 253.185C108.323 253.185 107.183 252.699 106.396 251.725C105.609 250.739 105.216 249.405 105.216 247.725ZM126.766 252.625C126.26 252.772 125.606 252.905 124.806 253.025C124.006 253.159 123.166 253.225 122.286 253.225C121.393 253.225 120.646 253.105 120.046 252.865C119.46 252.625 118.993 252.292 118.646 251.865C118.3 251.425 118.053 250.905 117.906 250.305C117.76 249.705 117.686 249.045 117.686 248.325V242.465H120.666V247.965C120.666 248.925 120.793 249.619 121.046 250.045C121.3 250.472 121.773 250.685 122.466 250.685C122.68 250.685 122.906 250.679 123.146 250.665C123.386 250.639 123.6 250.612 123.786 250.585V242.465H126.766V252.625ZM129.064 247.805C129.064 246.872 129.204 246.059 129.484 245.365C129.777 244.659 130.157 244.072 130.624 243.605C131.09 243.139 131.624 242.785 132.224 242.545C132.837 242.305 133.464 242.185 134.104 242.185C135.597 242.185 136.777 242.645 137.644 243.565C138.51 244.472 138.944 245.812 138.944 247.585C138.944 247.759 138.937 247.952 138.924 248.165C138.91 248.365 138.897 248.545 138.884 248.705H132.124C132.19 249.319 132.477 249.805 132.984 250.165C133.49 250.525 134.17 250.705 135.024 250.705C135.57 250.705 136.104 250.659 136.624 250.565C137.157 250.459 137.59 250.332 137.924 250.185L138.324 252.605C138.164 252.685 137.95 252.765 137.684 252.845C137.417 252.925 137.117 252.992 136.784 253.045C136.464 253.112 136.117 253.165 135.744 253.205C135.37 253.245 134.997 253.265 134.624 253.265C133.677 253.265 132.85 253.125 132.144 252.845C131.45 252.565 130.87 252.185 130.404 251.705C129.95 251.212 129.61 250.632 129.384 249.965C129.17 249.299 129.064 248.579 129.064 247.805ZM136.064 246.665C136.05 246.412 136.004 246.165 135.924 245.925C135.857 245.685 135.744 245.472 135.584 245.285C135.437 245.099 135.244 244.945 135.004 244.825C134.777 244.705 134.49 244.645 134.144 244.645C133.81 244.645 133.524 244.705 133.284 244.825C133.044 244.932 132.844 245.079 132.684 245.265C132.524 245.452 132.397 245.672 132.304 245.925C132.224 246.165 132.164 246.412 132.124 246.665H136.064Z" fill="white"/>
</svg>
