<svg width="194" height="277" viewBox="0 0 194 277" fill="none" xmlns="http://www.w3.org/2000/svg">
<circle cx="97.3269" cy="98.0877" r="88.5984" fill="#00ACE2"/>
<g clip-path="url(#clip0)">
<path d="M194.259 111.097C194.259 97.6765 185.248 85.7321 172.358 82.0598L152.595 76.4189L137.036 45.2993C132.284 35.7779 122.706 29.853 112.049 29.853H53.7091C42.1244 29.853 31.6187 37.1408 27.5489 47.9872L16.6267 77.1004L10.5126 80.148C4.19021 83.3281 0.25293 89.6883 0.25293 96.7678V143.977H27.511C30.1233 155.922 40.7993 164.894 53.5198 164.894C66.2402 164.894 76.9163 155.922 79.5286 143.977H115.002C117.614 155.922 128.29 164.894 141.011 164.894C153.731 164.894 164.388 155.922 167.019 143.977H194.278L194.259 111.097ZM126.833 50.3912L139.383 75.4914H87.7438V41.2674H112.049C118.352 41.2674 124.012 44.7693 126.833 50.3912ZM38.225 51.9813C40.629 45.5643 46.8567 41.2674 53.6902 41.2674H76.3295V75.5103H29.4039L38.225 51.9813ZM53.5198 153.48C45.1341 153.48 38.3007 146.646 38.3007 138.261C38.3007 129.875 45.1341 123.042 53.5198 123.042C61.9054 123.042 68.7389 129.875 68.7389 138.261C68.7389 146.646 61.9054 153.48 53.5198 153.48ZM141.011 153.48C132.625 153.48 125.792 146.646 125.792 138.261C125.792 129.875 132.625 123.042 141.011 123.042C149.396 123.042 156.23 129.875 156.23 138.261C156.23 146.646 149.396 153.48 141.011 153.48ZM167.019 132.563C164.407 120.619 153.731 111.646 141.011 111.646C128.29 111.646 117.614 120.619 115.002 132.563H79.5096C76.8974 120.619 66.2213 111.646 53.5009 111.646C40.7804 111.646 30.1233 120.619 27.511 132.563H11.6673V96.7678C11.6673 94.042 13.1816 91.6002 15.6235 90.3698L22.5326 86.9247H146.727V86.6029L169.234 93.0388C174.875 94.6478 179.323 98.8122 181.462 104.037H171.449V115.451H182.863V132.563H167.019Z" fill="white"/>
</g>
<path d="M77.2946 242.975C75.0413 242.975 73.3213 242.348 72.1346 241.095C70.9613 239.841 70.3746 238.061 70.3746 235.755C70.3746 234.608 70.5546 233.588 70.9146 232.695C71.2746 231.788 71.7679 231.028 72.3946 230.415C73.0213 229.788 73.7679 229.315 74.6346 228.995C75.5013 228.675 76.4413 228.515 77.4546 228.515C78.0413 228.515 78.5746 228.561 79.0546 228.655C79.5346 228.735 79.9546 228.835 80.3146 228.955C80.6746 229.061 80.9746 229.175 81.2146 229.295C81.4546 229.415 81.6279 229.508 81.7346 229.575L80.8346 232.095C80.4079 231.868 79.9079 231.675 79.3346 231.515C78.7746 231.355 78.1346 231.275 77.4146 231.275C76.9346 231.275 76.4613 231.355 75.9946 231.515C75.5413 231.675 75.1346 231.935 74.7746 232.295C74.4279 232.641 74.1479 233.095 73.9346 233.655C73.7213 234.215 73.6146 234.895 73.6146 235.695C73.6146 236.335 73.6813 236.935 73.8146 237.495C73.9613 238.041 74.1879 238.515 74.4946 238.915C74.8146 239.315 75.2279 239.635 75.7346 239.875C76.2413 240.101 76.8546 240.215 77.5746 240.215C78.0279 240.215 78.4346 240.188 78.7946 240.135C79.1546 240.081 79.4746 240.021 79.7546 239.955C80.0346 239.875 80.2813 239.788 80.4946 239.695C80.7079 239.601 80.9013 239.515 81.0746 239.435L81.9346 241.935C81.4946 242.201 80.8746 242.441 80.0746 242.655C79.2746 242.868 78.3479 242.975 77.2946 242.975ZM87.9587 240.615C88.252 240.615 88.532 240.608 88.7987 240.595C89.0653 240.581 89.2787 240.561 89.4387 240.535V238.275C89.3187 238.248 89.1387 238.221 88.8987 238.195C88.6587 238.168 88.4387 238.155 88.2387 238.155C87.9587 238.155 87.692 238.175 87.4387 238.215C87.1987 238.241 86.9853 238.301 86.7987 238.395C86.612 238.488 86.4653 238.615 86.3587 238.775C86.252 238.935 86.1987 239.135 86.1987 239.375C86.1987 239.841 86.352 240.168 86.6587 240.355C86.9787 240.528 87.412 240.615 87.9587 240.615ZM87.7187 231.895C88.5987 231.895 89.332 231.995 89.9187 232.195C90.5053 232.395 90.972 232.681 91.3187 233.055C91.6787 233.428 91.932 233.881 92.0787 234.415C92.2253 234.948 92.2987 235.541 92.2987 236.195V242.395C91.872 242.488 91.2787 242.595 90.5187 242.715C89.7587 242.848 88.8387 242.915 87.7587 242.915C87.0787 242.915 86.4587 242.855 85.8987 242.735C85.352 242.615 84.8787 242.421 84.4787 242.155C84.0787 241.875 83.772 241.515 83.5587 241.075C83.3453 240.635 83.2387 240.095 83.2387 239.455C83.2387 238.841 83.3587 238.321 83.5987 237.895C83.852 237.468 84.1853 237.128 84.5987 236.875C85.012 236.621 85.4853 236.441 86.0187 236.335C86.552 236.215 87.1053 236.155 87.6787 236.155C88.0653 236.155 88.4053 236.175 88.6987 236.215C89.0053 236.241 89.252 236.281 89.4387 236.335V236.055C89.4387 235.548 89.2853 235.141 88.9787 234.835C88.672 234.528 88.1387 234.375 87.3787 234.375C86.872 234.375 86.372 234.415 85.8787 234.495C85.3853 234.561 84.9587 234.661 84.5987 234.795L84.2187 232.395C84.392 232.341 84.6053 232.288 84.8587 232.235C85.1253 232.168 85.412 232.115 85.7187 232.075C86.0253 232.021 86.3453 231.981 86.6787 231.955C87.0253 231.915 87.372 231.895 87.7187 231.895ZM101.333 234.815C101.067 234.748 100.753 234.681 100.393 234.615C100.033 234.535 99.6467 234.495 99.2334 234.495C99.0467 234.495 98.82 234.515 98.5534 234.555C98.3 234.581 98.1067 234.615 97.9734 234.655V242.695H94.9934V232.735C95.5267 232.548 96.1534 232.375 96.8734 232.215C97.6067 232.041 98.42 231.955 99.3134 231.955C99.4734 231.955 99.6667 231.968 99.8934 231.995C100.12 232.008 100.347 232.035 100.573 232.075C100.8 232.101 101.027 232.141 101.253 232.195C101.48 232.235 101.673 232.288 101.833 232.355L101.333 234.815ZM109.771 234.815C109.504 234.748 109.191 234.681 108.831 234.615C108.471 234.535 108.084 234.495 107.671 234.495C107.484 234.495 107.258 234.515 106.991 234.555C106.738 234.581 106.544 234.615 106.411 234.655V242.695H103.431V232.735C103.964 232.548 104.591 232.375 105.311 232.215C106.044 232.041 106.858 231.955 107.751 231.955C107.911 231.955 108.104 231.968 108.331 231.995C108.558 232.008 108.784 232.035 109.011 232.075C109.238 232.101 109.464 232.141 109.691 232.195C109.918 232.235 110.111 232.288 110.271 232.355L109.771 234.815ZM121.513 237.415C121.513 238.241 121.393 239.001 121.153 239.695C120.913 240.375 120.566 240.961 120.113 241.455C119.66 241.935 119.113 242.308 118.473 242.575C117.846 242.841 117.14 242.975 116.353 242.975C115.58 242.975 114.873 242.841 114.233 242.575C113.606 242.308 113.066 241.935 112.613 241.455C112.16 240.961 111.806 240.375 111.553 239.695C111.3 239.001 111.173 238.241 111.173 237.415C111.173 236.588 111.3 235.835 111.553 235.155C111.82 234.475 112.18 233.895 112.633 233.415C113.1 232.935 113.646 232.561 114.273 232.295C114.913 232.028 115.606 231.895 116.353 231.895C117.113 231.895 117.806 232.028 118.433 232.295C119.073 232.561 119.62 232.935 120.073 233.415C120.526 233.895 120.88 234.475 121.133 235.155C121.386 235.835 121.513 236.588 121.513 237.415ZM118.473 237.415C118.473 236.495 118.286 235.775 117.913 235.255C117.553 234.721 117.033 234.455 116.353 234.455C115.673 234.455 115.146 234.721 114.773 235.255C114.4 235.775 114.213 236.495 114.213 237.415C114.213 238.335 114.4 239.068 114.773 239.615C115.146 240.148 115.673 240.415 116.353 240.415C117.033 240.415 117.553 240.148 117.913 239.615C118.286 239.068 118.473 238.335 118.473 237.415ZM63.1498 251.675C65.2298 251.675 66.8232 252.048 67.9298 252.795C69.0365 253.528 69.5898 254.675 69.5898 256.235C69.5898 257.208 69.3632 258.001 68.9098 258.615C68.4698 259.215 67.8298 259.688 66.9898 260.035C67.2698 260.381 67.5632 260.781 67.8698 261.235C68.1765 261.675 68.4765 262.141 68.7698 262.635C69.0765 263.115 69.3698 263.621 69.6498 264.155C69.9298 264.675 70.1898 265.188 70.4298 265.695H66.9298C66.6765 265.241 66.4165 264.781 66.1498 264.315C65.8965 263.848 65.6298 263.395 65.3498 262.955C65.0832 262.515 64.8165 262.101 64.5498 261.715C64.2832 261.315 64.0165 260.955 63.7498 260.635H62.2098V265.695H59.0898V252.035C59.7698 251.901 60.4698 251.808 61.1898 251.755C61.9232 251.701 62.5765 251.675 63.1498 251.675ZM63.3298 254.335C63.1032 254.335 62.8965 254.341 62.7098 254.355C62.5365 254.368 62.3698 254.381 62.2098 254.395V258.155H63.0898C64.2632 258.155 65.1032 258.008 65.6098 257.715C66.1165 257.421 66.3698 256.921 66.3698 256.215C66.3698 255.535 66.1098 255.055 65.5898 254.775C65.0832 254.481 64.3298 254.335 63.3298 254.335ZM71.2219 260.515C71.2219 259.581 71.3619 258.768 71.6419 258.075C71.9352 257.368 72.3152 256.781 72.7819 256.315C73.2485 255.848 73.7819 255.495 74.3819 255.255C74.9952 255.015 75.6219 254.895 76.2619 254.895C77.7552 254.895 78.9352 255.355 79.8019 256.275C80.6685 257.181 81.1019 258.521 81.1019 260.295C81.1019 260.468 81.0952 260.661 81.0819 260.875C81.0685 261.075 81.0552 261.255 81.0419 261.415H74.2819C74.3485 262.028 74.6352 262.515 75.1419 262.875C75.6485 263.235 76.3285 263.415 77.1819 263.415C77.7285 263.415 78.2619 263.368 78.7819 263.275C79.3152 263.168 79.7485 263.041 80.0819 262.895L80.4819 265.315C80.3219 265.395 80.1085 265.475 79.8419 265.555C79.5752 265.635 79.2752 265.701 78.9419 265.755C78.6219 265.821 78.2752 265.875 77.9019 265.915C77.5285 265.955 77.1552 265.975 76.7819 265.975C75.8352 265.975 75.0085 265.835 74.3019 265.555C73.6085 265.275 73.0285 264.895 72.5619 264.415C72.1085 263.921 71.7685 263.341 71.5419 262.675C71.3285 262.008 71.2219 261.288 71.2219 260.515ZM78.2219 259.375C78.2085 259.121 78.1619 258.875 78.0819 258.635C78.0152 258.395 77.9019 258.181 77.7419 257.995C77.5952 257.808 77.4019 257.655 77.1619 257.535C76.9352 257.415 76.6485 257.355 76.3019 257.355C75.9685 257.355 75.6819 257.415 75.4419 257.535C75.2019 257.641 75.0019 257.788 74.8419 257.975C74.6819 258.161 74.5552 258.381 74.4619 258.635C74.3819 258.875 74.3219 259.121 74.2819 259.375H78.2219ZM86.4216 263.555C86.9682 263.555 87.3549 263.501 87.5816 263.395C87.8082 263.288 87.9216 263.081 87.9216 262.775C87.9216 262.535 87.7749 262.328 87.4816 262.155C87.1882 261.968 86.7416 261.761 86.1416 261.535C85.6749 261.361 85.2482 261.181 84.8616 260.995C84.4882 260.808 84.1682 260.588 83.9016 260.335C83.6349 260.068 83.4282 259.755 83.2816 259.395C83.1349 259.035 83.0616 258.601 83.0616 258.095C83.0616 257.108 83.4282 256.328 84.1616 255.755C84.8949 255.181 85.9016 254.895 87.1816 254.895C87.8216 254.895 88.4349 254.955 89.0216 255.075C89.6082 255.181 90.0749 255.301 90.4216 255.435L89.9016 257.755C89.5549 257.635 89.1749 257.528 88.7616 257.435C88.3616 257.341 87.9082 257.295 87.4016 257.295C86.4682 257.295 86.0016 257.555 86.0016 258.075C86.0016 258.195 86.0216 258.301 86.0616 258.395C86.1016 258.488 86.1816 258.581 86.3016 258.675C86.4216 258.755 86.5816 258.848 86.7816 258.955C86.9949 259.048 87.2616 259.155 87.5816 259.275C88.2349 259.515 88.7749 259.755 89.2016 259.995C89.6282 260.221 89.9616 260.475 90.2016 260.755C90.4549 261.021 90.6282 261.321 90.7216 261.655C90.8282 261.988 90.8816 262.375 90.8816 262.815C90.8816 263.855 90.4882 264.641 89.7016 265.175C88.9282 265.708 87.8282 265.975 86.4016 265.975C85.4682 265.975 84.6882 265.895 84.0616 265.735C83.4482 265.575 83.0216 265.441 82.7816 265.335L83.2816 262.915C83.7882 263.115 84.3082 263.275 84.8416 263.395C85.3749 263.501 85.9016 263.555 86.4216 263.555ZM92.6086 260.515C92.6086 259.581 92.7486 258.768 93.0286 258.075C93.3219 257.368 93.7019 256.781 94.1686 256.315C94.6353 255.848 95.1686 255.495 95.7686 255.255C96.3819 255.015 97.0086 254.895 97.6486 254.895C99.1419 254.895 100.322 255.355 101.189 256.275C102.055 257.181 102.489 258.521 102.489 260.295C102.489 260.468 102.482 260.661 102.469 260.875C102.455 261.075 102.442 261.255 102.429 261.415H95.6686C95.7353 262.028 96.0219 262.515 96.5286 262.875C97.0353 263.235 97.7153 263.415 98.5686 263.415C99.1153 263.415 99.6486 263.368 100.169 263.275C100.702 263.168 101.135 263.041 101.469 262.895L101.869 265.315C101.709 265.395 101.495 265.475 101.229 265.555C100.962 265.635 100.662 265.701 100.329 265.755C100.009 265.821 99.6619 265.875 99.2886 265.915C98.9153 265.955 98.5419 265.975 98.1686 265.975C97.2219 265.975 96.3953 265.835 95.6886 265.555C94.9953 265.275 94.4153 264.895 93.9486 264.415C93.4953 263.921 93.1553 263.341 92.9286 262.675C92.7153 262.008 92.6086 261.288 92.6086 260.515ZM99.6086 259.375C99.5953 259.121 99.5486 258.875 99.4686 258.635C99.4019 258.395 99.2886 258.181 99.1286 257.995C98.9819 257.808 98.7886 257.655 98.5486 257.535C98.3219 257.415 98.0353 257.355 97.6886 257.355C97.3553 257.355 97.0686 257.415 96.8286 257.535C96.5886 257.641 96.3886 257.788 96.2286 257.975C96.0686 258.161 95.9419 258.381 95.8486 258.635C95.7686 258.875 95.7086 259.121 95.6686 259.375H99.6086ZM111.128 257.815C110.862 257.748 110.548 257.681 110.188 257.615C109.828 257.535 109.442 257.495 109.028 257.495C108.842 257.495 108.615 257.515 108.348 257.555C108.095 257.581 107.902 257.615 107.768 257.655V265.695H104.788V255.735C105.322 255.548 105.948 255.375 106.668 255.215C107.402 255.041 108.215 254.955 109.108 254.955C109.268 254.955 109.462 254.968 109.688 254.995C109.915 255.008 110.142 255.035 110.368 255.075C110.595 255.101 110.822 255.141 111.048 255.195C111.275 255.235 111.468 255.288 111.628 255.355L111.128 257.815ZM116.711 265.695C116.031 264.361 115.337 262.801 114.631 261.015C113.937 259.228 113.277 257.281 112.651 255.175H115.811C115.944 255.695 116.097 256.261 116.271 256.875C116.457 257.475 116.644 258.088 116.831 258.715C117.031 259.328 117.224 259.928 117.411 260.515C117.611 261.101 117.804 261.635 117.991 262.115C118.164 261.635 118.351 261.101 118.551 260.515C118.751 259.928 118.944 259.328 119.131 258.715C119.331 258.088 119.517 257.475 119.691 256.875C119.877 256.261 120.037 255.695 120.171 255.175H123.251C122.624 257.281 121.957 259.228 121.251 261.015C120.557 262.801 119.871 264.361 119.191 265.695H116.711ZM128.672 263.615C128.965 263.615 129.245 263.608 129.512 263.595C129.778 263.581 129.992 263.561 130.152 263.535V261.275C130.032 261.248 129.852 261.221 129.612 261.195C129.372 261.168 129.152 261.155 128.952 261.155C128.672 261.155 128.405 261.175 128.152 261.215C127.912 261.241 127.698 261.301 127.512 261.395C127.325 261.488 127.178 261.615 127.072 261.775C126.965 261.935 126.912 262.135 126.912 262.375C126.912 262.841 127.065 263.168 127.372 263.355C127.692 263.528 128.125 263.615 128.672 263.615ZM128.432 254.895C129.312 254.895 130.045 254.995 130.632 255.195C131.218 255.395 131.685 255.681 132.032 256.055C132.392 256.428 132.645 256.881 132.792 257.415C132.938 257.948 133.012 258.541 133.012 259.195V265.395C132.585 265.488 131.992 265.595 131.232 265.715C130.472 265.848 129.552 265.915 128.472 265.915C127.792 265.915 127.172 265.855 126.612 265.735C126.065 265.615 125.592 265.421 125.192 265.155C124.792 264.875 124.485 264.515 124.272 264.075C124.058 263.635 123.952 263.095 123.952 262.455C123.952 261.841 124.072 261.321 124.312 260.895C124.565 260.468 124.898 260.128 125.312 259.875C125.725 259.621 126.198 259.441 126.732 259.335C127.265 259.215 127.818 259.155 128.392 259.155C128.778 259.155 129.118 259.175 129.412 259.215C129.718 259.241 129.965 259.281 130.152 259.335V259.055C130.152 258.548 129.998 258.141 129.692 257.835C129.385 257.528 128.852 257.375 128.092 257.375C127.585 257.375 127.085 257.415 126.592 257.495C126.098 257.561 125.672 257.661 125.312 257.795L124.932 255.395C125.105 255.341 125.318 255.288 125.572 255.235C125.838 255.168 126.125 255.115 126.432 255.075C126.738 255.021 127.058 254.981 127.392 254.955C127.738 254.915 128.085 254.895 128.432 254.895Z" fill="white"/>
<defs>
<clipPath id="clip0">
<rect width="192.916" height="192.916" fill="white" transform="translate(0.154297 0.915527)"/>
</clipPath>
</defs>
</svg>
