<svg width="205" height="278" viewBox="0 0 205 278" fill="none" xmlns="http://www.w3.org/2000/svg">
<path d="M1.72695 270V256.14H11.087V258.76H4.84695V261.48H10.387V264.04H4.84695V267.38H11.547V270H1.72695ZM19.4359 264.42C19.4359 263.46 19.3092 262.78 19.0559 262.38C18.8159 261.98 18.3959 261.78 17.7959 261.78C17.6092 261.78 17.4159 261.793 17.2159 261.82C17.0159 261.833 16.8225 261.853 16.6359 261.88V270H13.6559V259.84C13.9092 259.773 14.2025 259.707 14.5359 259.64C14.8825 259.56 15.2425 259.493 15.6159 259.44C16.0025 259.373 16.3959 259.327 16.7959 259.3C17.1959 259.26 17.5892 259.24 17.9759 259.24C18.7359 259.24 19.3492 259.34 19.8159 259.54C20.2959 259.727 20.6892 259.953 20.9959 260.22C21.4225 259.913 21.9092 259.673 22.4559 259.5C23.0159 259.327 23.5292 259.24 23.9959 259.24C24.8359 259.24 25.5225 259.36 26.0559 259.6C26.6025 259.827 27.0359 260.153 27.3559 260.58C27.6759 261.007 27.8959 261.513 28.0159 262.1C28.1359 262.687 28.1959 263.34 28.1959 264.06V270H25.2159V264.42C25.2159 263.46 25.0892 262.78 24.8359 262.38C24.5959 261.98 24.1759 261.78 23.5759 261.78C23.4159 261.78 23.1892 261.82 22.8959 261.9C22.6159 261.98 22.3825 262.08 22.1959 262.2C22.2892 262.507 22.3492 262.833 22.3759 263.18C22.4025 263.513 22.4159 263.873 22.4159 264.26V270H19.4359V264.42ZM30.402 264.82C30.402 263.887 30.542 263.073 30.822 262.38C31.1153 261.673 31.4953 261.087 31.962 260.62C32.4286 260.153 32.962 259.8 33.562 259.56C34.1753 259.32 34.802 259.2 35.442 259.2C36.9353 259.2 38.1153 259.66 38.982 260.58C39.8486 261.487 40.282 262.827 40.282 264.6C40.282 264.773 40.2753 264.967 40.262 265.18C40.2486 265.38 40.2353 265.56 40.222 265.72H33.462C33.5286 266.333 33.8153 266.82 34.322 267.18C34.8286 267.54 35.5086 267.72 36.362 267.72C36.9086 267.72 37.442 267.673 37.962 267.58C38.4953 267.473 38.9286 267.347 39.262 267.2L39.662 269.62C39.502 269.7 39.2886 269.78 39.022 269.86C38.7553 269.94 38.4553 270.007 38.122 270.06C37.802 270.127 37.4553 270.18 37.082 270.22C36.7086 270.26 36.3353 270.28 35.962 270.28C35.0153 270.28 34.1886 270.14 33.482 269.86C32.7886 269.58 32.2086 269.2 31.742 268.72C31.2886 268.227 30.9486 267.647 30.722 266.98C30.5086 266.313 30.402 265.593 30.402 264.82ZM37.402 263.68C37.3886 263.427 37.342 263.18 37.262 262.94C37.1953 262.7 37.082 262.487 36.922 262.3C36.7753 262.113 36.582 261.96 36.342 261.84C36.1153 261.72 35.8286 261.66 35.482 261.66C35.1486 261.66 34.862 261.72 34.622 261.84C34.382 261.947 34.182 262.093 34.022 262.28C33.862 262.467 33.7353 262.687 33.642 262.94C33.562 263.18 33.502 263.427 33.462 263.68H37.402ZM48.9216 262.12C48.655 262.053 48.3416 261.987 47.9816 261.92C47.6216 261.84 47.235 261.8 46.8216 261.8C46.635 261.8 46.4083 261.82 46.1416 261.86C45.8883 261.887 45.695 261.92 45.5616 261.96V270H42.5816V260.04C43.115 259.853 43.7416 259.68 44.4616 259.52C45.195 259.347 46.0083 259.26 46.9016 259.26C47.0616 259.26 47.255 259.273 47.4816 259.3C47.7083 259.313 47.935 259.34 48.1616 259.38C48.3883 259.407 48.615 259.447 48.8416 259.5C49.0683 259.54 49.2616 259.593 49.4216 259.66L48.9216 262.12ZM53.3638 264.4C53.3638 266.067 54.0372 266.9 55.3838 266.9C55.6905 266.9 55.9772 266.86 56.2438 266.78C56.5105 266.7 56.7372 266.607 56.9238 266.5V261.74C56.7772 261.713 56.6038 261.693 56.4038 261.68C56.2038 261.653 55.9705 261.64 55.7038 261.64C54.9172 261.64 54.3305 261.9 53.9438 262.42C53.5572 262.94 53.3638 263.6 53.3638 264.4ZM59.9038 268.68C59.9038 270.4 59.4638 271.673 58.5838 272.5C57.7172 273.34 56.3705 273.76 54.5438 273.76C53.9038 273.76 53.2638 273.7 52.6238 273.58C51.9838 273.473 51.3905 273.327 50.8438 273.14L51.3638 270.64C51.8305 270.827 52.3172 270.973 52.8238 271.08C53.3438 271.187 53.9305 271.24 54.5838 271.24C55.4372 271.24 56.0372 271.053 56.3838 270.68C56.7438 270.307 56.9238 269.827 56.9238 269.24V268.86C56.6038 269.007 56.2705 269.12 55.9238 269.2C55.5905 269.267 55.2238 269.3 54.8238 269.3C53.3705 269.3 52.2572 268.873 51.4838 268.02C50.7105 267.153 50.3238 265.947 50.3238 264.4C50.3238 263.627 50.4438 262.927 50.6838 262.3C50.9238 261.66 51.2705 261.113 51.7238 260.66C52.1905 260.207 52.7572 259.86 53.4238 259.62C54.0905 259.367 54.8438 259.24 55.6838 259.24C56.0438 259.24 56.4105 259.26 56.7838 259.3C57.1705 259.327 57.5505 259.367 57.9238 259.42C58.2972 259.473 58.6505 259.54 58.9838 259.62C59.3305 259.687 59.6372 259.76 59.9038 259.84V268.68ZM62.1988 264.82C62.1988 263.887 62.3388 263.073 62.6188 262.38C62.9122 261.673 63.2922 261.087 63.7588 260.62C64.2255 260.153 64.7588 259.8 65.3588 259.56C65.9722 259.32 66.5988 259.2 67.2388 259.2C68.7322 259.2 69.9122 259.66 70.7788 260.58C71.6455 261.487 72.0788 262.827 72.0788 264.6C72.0788 264.773 72.0722 264.967 72.0588 265.18C72.0455 265.38 72.0322 265.56 72.0188 265.72H65.2588C65.3255 266.333 65.6122 266.82 66.1188 267.18C66.6255 267.54 67.3055 267.72 68.1588 267.72C68.7055 267.72 69.2388 267.673 69.7588 267.58C70.2922 267.473 70.7255 267.347 71.0588 267.2L71.4588 269.62C71.2988 269.7 71.0855 269.78 70.8188 269.86C70.5522 269.94 70.2522 270.007 69.9188 270.06C69.5988 270.127 69.2522 270.18 68.8788 270.22C68.5055 270.26 68.1322 270.28 67.7588 270.28C66.8122 270.28 65.9855 270.14 65.2788 269.86C64.5855 269.58 64.0055 269.2 63.5388 268.72C63.0855 268.227 62.7455 267.647 62.5188 266.98C62.3055 266.313 62.1988 265.593 62.1988 264.82ZM69.1988 263.68C69.1855 263.427 69.1388 263.18 69.0588 262.94C68.9922 262.7 68.8788 262.487 68.7188 262.3C68.5722 262.113 68.3788 261.96 68.1388 261.84C67.9122 261.72 67.6255 261.66 67.2788 261.66C66.9455 261.66 66.6588 261.72 66.4188 261.84C66.1788 261.947 65.9788 262.093 65.8188 262.28C65.6588 262.467 65.5322 262.687 65.4388 262.94C65.3588 263.18 65.2988 263.427 65.2588 263.68H69.1988ZM70.2388 257.1L69.1388 258.42L67.1388 256.88L65.1388 258.42L63.9988 257.1L67.1388 254.36L70.2388 257.1ZM74.3785 259.84C74.8852 259.693 75.5385 259.56 76.3385 259.44C77.1385 259.307 77.9785 259.24 78.8585 259.24C79.7518 259.24 80.4918 259.36 81.0785 259.6C81.6785 259.827 82.1518 260.153 82.4985 260.58C82.8452 261.007 83.0918 261.513 83.2385 262.1C83.3852 262.687 83.4585 263.34 83.4585 264.06V270H80.4785V264.42C80.4785 263.46 80.3518 262.78 80.0985 262.38C79.8452 261.98 79.3718 261.78 78.6785 261.78C78.4652 261.78 78.2385 261.793 77.9985 261.82C77.7585 261.833 77.5452 261.853 77.3585 261.88V270H74.3785V259.84ZM85.6559 264.74C85.6559 263.98 85.7759 263.267 86.0159 262.6C86.2692 261.92 86.6292 261.333 87.0959 260.84C87.5625 260.333 88.1292 259.933 88.7959 259.64C89.4625 259.347 90.2225 259.2 91.0759 259.2C91.6359 259.2 92.1492 259.253 92.6159 259.36C93.0825 259.453 93.5359 259.593 93.9759 259.78L93.3559 262.16C93.0759 262.053 92.7692 261.96 92.4359 261.88C92.1025 261.8 91.7292 261.76 91.3159 261.76C90.4359 261.76 89.7759 262.033 89.3359 262.58C88.9092 263.127 88.6959 263.847 88.6959 264.74C88.6959 265.687 88.8959 266.42 89.2959 266.94C89.7092 267.46 90.4225 267.72 91.4359 267.72C91.7959 267.72 92.1825 267.687 92.5959 267.62C93.0092 267.553 93.3892 267.447 93.7359 267.3L94.1559 269.74C93.8092 269.887 93.3759 270.013 92.8559 270.12C92.3359 270.227 91.7625 270.28 91.1359 270.28C90.1759 270.28 89.3492 270.14 88.6559 269.86C87.9625 269.567 87.3892 269.173 86.9359 268.68C86.4959 268.187 86.1692 267.607 85.9559 266.94C85.7559 266.26 85.6559 265.527 85.6559 264.74ZM99.1359 270H96.1559V259.48H99.1359V270ZM99.4159 256.44C99.4159 256.987 99.2359 257.42 98.8759 257.74C98.5292 258.047 98.1159 258.2 97.6359 258.2C97.1559 258.2 96.7359 258.047 96.3759 257.74C96.0292 257.42 95.8559 256.987 95.8559 256.44C95.8559 255.893 96.0292 255.467 96.3759 255.16C96.7359 254.84 97.1559 254.68 97.6359 254.68C98.1159 254.68 98.5292 254.84 98.8759 255.16C99.2359 255.467 99.4159 255.893 99.4159 256.44ZM105.957 267.92C106.25 267.92 106.53 267.913 106.797 267.9C107.064 267.887 107.277 267.867 107.437 267.84V265.58C107.317 265.553 107.137 265.527 106.897 265.5C106.657 265.473 106.437 265.46 106.237 265.46C105.957 265.46 105.69 265.48 105.437 265.52C105.197 265.547 104.984 265.607 104.797 265.7C104.61 265.793 104.464 265.92 104.357 266.08C104.25 266.24 104.197 266.44 104.197 266.68C104.197 267.147 104.35 267.473 104.657 267.66C104.977 267.833 105.41 267.92 105.957 267.92ZM105.717 259.2C106.597 259.2 107.33 259.3 107.917 259.5C108.504 259.7 108.97 259.987 109.317 260.36C109.677 260.733 109.93 261.187 110.077 261.72C110.224 262.253 110.297 262.847 110.297 263.5V269.7C109.87 269.793 109.277 269.9 108.517 270.02C107.757 270.153 106.837 270.22 105.757 270.22C105.077 270.22 104.457 270.16 103.897 270.04C103.35 269.92 102.877 269.727 102.477 269.46C102.077 269.18 101.77 268.82 101.557 268.38C101.344 267.94 101.237 267.4 101.237 266.76C101.237 266.147 101.357 265.627 101.597 265.2C101.85 264.773 102.184 264.433 102.597 264.18C103.01 263.927 103.484 263.747 104.017 263.64C104.55 263.52 105.104 263.46 105.677 263.46C106.064 263.46 106.404 263.48 106.697 263.52C107.004 263.547 107.25 263.587 107.437 263.64V263.36C107.437 262.853 107.284 262.447 106.977 262.14C106.67 261.833 106.137 261.68 105.377 261.68C104.87 261.68 104.37 261.72 103.877 261.8C103.384 261.867 102.957 261.967 102.597 262.1L102.217 259.7C102.39 259.647 102.604 259.593 102.857 259.54C103.124 259.473 103.41 259.42 103.717 259.38C104.024 259.327 104.344 259.287 104.677 259.26C105.024 259.22 105.37 259.2 105.717 259.2ZM114.152 273.7H111.092L117.812 254.34H120.832L114.152 273.7ZM127.342 270.28C126.369 270.28 125.529 270.147 124.822 269.88C124.116 269.6 123.529 269.22 123.062 268.74C122.609 268.247 122.269 267.667 122.042 267C121.829 266.32 121.722 265.573 121.722 264.76V256.14H124.842V264.5C124.842 265.06 124.902 265.54 125.022 265.94C125.156 266.327 125.329 266.647 125.542 266.9C125.769 267.14 126.036 267.313 126.342 267.42C126.662 267.527 127.009 267.58 127.382 267.58C128.142 267.58 128.756 267.347 129.222 266.88C129.702 266.413 129.942 265.62 129.942 264.5V256.14H133.062V264.76C133.062 265.573 132.949 266.32 132.722 267C132.496 267.68 132.149 268.267 131.682 268.76C131.216 269.24 130.622 269.613 129.902 269.88C129.182 270.147 128.329 270.28 127.342 270.28ZM142.203 262.12C141.936 262.053 141.623 261.987 141.263 261.92C140.903 261.84 140.516 261.8 140.103 261.8C139.916 261.8 139.69 261.82 139.423 261.86C139.17 261.887 138.976 261.92 138.843 261.96V270H135.863V260.04C136.396 259.853 137.023 259.68 137.743 259.52C138.476 259.347 139.29 259.26 140.183 259.26C140.343 259.26 140.536 259.273 140.763 259.3C140.99 259.313 141.216 259.34 141.443 259.38C141.67 259.407 141.896 259.447 142.123 259.5C142.35 259.54 142.543 259.593 142.703 259.66L142.203 262.12ZM146.645 264.4C146.645 266.067 147.318 266.9 148.665 266.9C148.972 266.9 149.258 266.86 149.525 266.78C149.792 266.7 150.018 266.607 150.205 266.5V261.74C150.058 261.713 149.885 261.693 149.685 261.68C149.485 261.653 149.252 261.64 148.985 261.64C148.198 261.64 147.612 261.9 147.225 262.42C146.838 262.94 146.645 263.6 146.645 264.4ZM153.185 268.68C153.185 270.4 152.745 271.673 151.865 272.5C150.998 273.34 149.652 273.76 147.825 273.76C147.185 273.76 146.545 273.7 145.905 273.58C145.265 273.473 144.672 273.327 144.125 273.14L144.645 270.64C145.112 270.827 145.598 270.973 146.105 271.08C146.625 271.187 147.212 271.24 147.865 271.24C148.718 271.24 149.318 271.053 149.665 270.68C150.025 270.307 150.205 269.827 150.205 269.24V268.86C149.885 269.007 149.552 269.12 149.205 269.2C148.872 269.267 148.505 269.3 148.105 269.3C146.652 269.3 145.538 268.873 144.765 268.02C143.992 267.153 143.605 265.947 143.605 264.4C143.605 263.627 143.725 262.927 143.965 262.3C144.205 261.66 144.552 261.113 145.005 260.66C145.472 260.207 146.038 259.86 146.705 259.62C147.372 259.367 148.125 259.24 148.965 259.24C149.325 259.24 149.692 259.26 150.065 259.3C150.452 259.327 150.832 259.367 151.205 259.42C151.578 259.473 151.932 259.54 152.265 259.62C152.612 259.687 152.918 259.76 153.185 259.84V268.68ZM155.48 264.82C155.48 263.887 155.62 263.073 155.9 262.38C156.193 261.673 156.573 261.087 157.04 260.62C157.507 260.153 158.04 259.8 158.64 259.56C159.253 259.32 159.88 259.2 160.52 259.2C162.013 259.2 163.193 259.66 164.06 260.58C164.927 261.487 165.36 262.827 165.36 264.6C165.36 264.773 165.353 264.967 165.34 265.18C165.327 265.38 165.313 265.56 165.3 265.72H158.54C158.607 266.333 158.893 266.82 159.4 267.18C159.907 267.54 160.587 267.72 161.44 267.72C161.987 267.72 162.52 267.673 163.04 267.58C163.573 267.473 164.007 267.347 164.34 267.2L164.74 269.62C164.58 269.7 164.367 269.78 164.1 269.86C163.833 269.94 163.533 270.007 163.2 270.06C162.88 270.127 162.533 270.18 162.16 270.22C161.787 270.26 161.413 270.28 161.04 270.28C160.093 270.28 159.267 270.14 158.56 269.86C157.867 269.58 157.287 269.2 156.82 268.72C156.367 268.227 156.027 267.647 155.8 266.98C155.587 266.313 155.48 265.593 155.48 264.82ZM162.48 263.68C162.467 263.427 162.42 263.18 162.34 262.94C162.273 262.7 162.16 262.487 162 262.3C161.853 262.113 161.66 261.96 161.42 261.84C161.193 261.72 160.907 261.66 160.56 261.66C160.227 261.66 159.94 261.72 159.7 261.84C159.46 261.947 159.26 262.093 159.1 262.28C158.94 262.467 158.813 262.687 158.72 262.94C158.64 263.18 158.58 263.427 158.54 263.68H162.48ZM163.52 257.1L162.42 258.42L160.42 256.88L158.42 258.42L157.28 257.1L160.42 254.36L163.52 257.1ZM167.66 259.84C168.166 259.693 168.82 259.56 169.62 259.44C170.42 259.307 171.26 259.24 172.14 259.24C173.033 259.24 173.773 259.36 174.36 259.6C174.96 259.827 175.433 260.153 175.78 260.58C176.126 261.007 176.373 261.513 176.52 262.1C176.666 262.687 176.74 263.34 176.74 264.06V270H173.76V264.42C173.76 263.46 173.633 262.78 173.38 262.38C173.126 261.98 172.653 261.78 171.96 261.78C171.746 261.78 171.52 261.793 171.28 261.82C171.04 261.833 170.826 261.853 170.64 261.88V270H167.66V259.84ZM178.937 264.74C178.937 263.98 179.057 263.267 179.297 262.6C179.55 261.92 179.91 261.333 180.377 260.84C180.844 260.333 181.41 259.933 182.077 259.64C182.744 259.347 183.504 259.2 184.357 259.2C184.917 259.2 185.43 259.253 185.897 259.36C186.364 259.453 186.817 259.593 187.257 259.78L186.637 262.16C186.357 262.053 186.05 261.96 185.717 261.88C185.384 261.8 185.01 261.76 184.597 261.76C183.717 261.76 183.057 262.033 182.617 262.58C182.19 263.127 181.977 263.847 181.977 264.74C181.977 265.687 182.177 266.42 182.577 266.94C182.99 267.46 183.704 267.72 184.717 267.72C185.077 267.72 185.464 267.687 185.877 267.62C186.29 267.553 186.67 267.447 187.017 267.3L187.437 269.74C187.09 269.887 186.657 270.013 186.137 270.12C185.617 270.227 185.044 270.28 184.417 270.28C183.457 270.28 182.63 270.14 181.937 269.86C181.244 269.567 180.67 269.173 180.217 268.68C179.777 268.187 179.45 267.607 179.237 266.94C179.037 266.26 178.937 265.527 178.937 264.74ZM192.417 270H189.437V259.48H192.417V270ZM192.697 256.44C192.697 256.987 192.517 257.42 192.157 257.74C191.81 258.047 191.397 258.2 190.917 258.2C190.437 258.2 190.017 258.047 189.657 257.74C189.31 257.42 189.137 256.987 189.137 256.44C189.137 255.893 189.31 255.467 189.657 255.16C190.017 254.84 190.437 254.68 190.917 254.68C191.397 254.68 191.81 254.84 192.157 255.16C192.517 255.467 192.697 255.893 192.697 256.44ZM199.238 267.92C199.532 267.92 199.812 267.913 200.078 267.9C200.345 267.887 200.558 267.867 200.718 267.84V265.58C200.598 265.553 200.418 265.527 200.178 265.5C199.938 265.473 199.718 265.46 199.518 265.46C199.238 265.46 198.972 265.48 198.718 265.52C198.478 265.547 198.265 265.607 198.078 265.7C197.892 265.793 197.745 265.92 197.638 266.08C197.532 266.24 197.478 266.44 197.478 266.68C197.478 267.147 197.632 267.473 197.938 267.66C198.258 267.833 198.692 267.92 199.238 267.92ZM198.998 259.2C199.878 259.2 200.612 259.3 201.198 259.5C201.785 259.7 202.252 259.987 202.598 260.36C202.958 260.733 203.212 261.187 203.358 261.72C203.505 262.253 203.578 262.847 203.578 263.5V269.7C203.152 269.793 202.558 269.9 201.798 270.02C201.038 270.153 200.118 270.22 199.038 270.22C198.358 270.22 197.738 270.16 197.178 270.04C196.632 269.92 196.158 269.727 195.758 269.46C195.358 269.18 195.052 268.82 194.838 268.38C194.625 267.94 194.518 267.4 194.518 266.76C194.518 266.147 194.638 265.627 194.878 265.2C195.132 264.773 195.465 264.433 195.878 264.18C196.292 263.927 196.765 263.747 197.298 263.64C197.832 263.52 198.385 263.46 198.958 263.46C199.345 263.46 199.685 263.48 199.978 263.52C200.285 263.547 200.532 263.587 200.718 263.64V263.36C200.718 262.853 200.565 262.447 200.258 262.14C199.952 261.833 199.418 261.68 198.658 261.68C198.152 261.68 197.652 261.72 197.158 261.8C196.665 261.867 196.238 261.967 195.878 262.1L195.498 259.7C195.672 259.647 195.885 259.593 196.138 259.54C196.405 259.473 196.692 259.42 196.998 259.38C197.305 259.327 197.625 259.287 197.958 259.26C198.305 259.22 198.652 259.2 198.998 259.2Z" fill="white"/>
<g clip-path="url(#clip0)">
<circle cx="103.944" cy="100.943" r="91.8519" fill="#00ACE2"/>
<path d="M170.121 13.6259C160.918 4.59781 148.785 -0.239685 135.99 0.00914284C124.398 0.23219 113.327 4.69391 104.814 12.5716C103.798 13.5119 102.207 13.5119 101.191 12.5716C92.6785 4.6943 81.607 0.232971 70.0156 0.00914284C69.7031 0.00328346 69.393 0.000158462 69.0809 0.000158462C56.6207 0.000158462 44.8621 4.81813 35.8836 13.6255C26.807 22.5287 21.8086 34.3463 21.8086 46.9017C21.8086 63.2193 28.0883 72.692 33.1348 80.3029C36.4703 85.3338 38.8797 88.9689 38.8797 93.3463C38.8797 165.079 69.623 191.113 70.9324 192.185L80.4625 200V187.675C80.4625 173.069 82.7668 160.167 86.9512 151.342C90.9668 142.873 96.3672 138.579 103.002 138.579C110.009 138.579 115.28 142.719 119.116 151.238C123.007 159.876 125.063 172.476 125.063 187.675V199.963L134.583 192.194C135.56 191.397 158.564 172.1 165.137 121.277C166.446 111.979 167.109 102.151 167.109 92.067C167.109 88.1896 169.07 85.281 172.537 80.4732C177.457 73.6498 184.196 64.3052 184.196 46.9009C184.196 34.3459 179.197 22.5287 170.121 13.6259ZM163.075 73.6506C159.323 78.8537 155.444 84.2341 155.444 92.067C155.444 101.621 154.817 110.912 153.581 119.682L153.573 119.749C150.475 143.738 143.45 159.72 138.102 168.902C137.389 170.126 136.687 171.265 136.003 172.322C133.076 143.249 121.411 126.913 103.002 126.913C84.9402 126.913 72.7355 143.976 69.5969 172.402C61.4504 159.773 50.5445 135.073 50.5445 93.3459C50.5445 85.4529 46.6363 79.558 42.8566 73.8568C38.2434 66.8986 33.473 59.7037 33.473 46.9013C33.473 37.5045 37.2301 28.6443 44.052 21.9533C50.8309 15.3029 59.6973 11.6654 69.0875 11.6654C69.3211 11.6654 69.5555 11.6677 69.7906 11.6724C78.5187 11.8412 86.857 15.2013 93.2684 21.1341C98.7266 26.1853 107.278 26.1849 112.737 21.1338C119.148 15.2009 127.486 11.8408 136.215 11.6724C145.862 11.4795 155.005 15.1377 161.953 21.9533C168.775 28.6443 172.532 37.5045 172.532 46.9013C172.531 60.5384 167.724 67.2041 163.075 73.6506Z" fill="white"/>
<path d="M132.941 47.4932C116.432 30.9842 89.5699 30.9838 73.0605 47.4932C65.0629 55.4905 60.6582 66.1237 60.6582 77.4338C60.6582 88.744 65.0625 99.3776 73.0605 107.375C81.3152 115.63 92.1578 119.757 103.001 119.757C113.844 119.757 124.687 115.63 132.942 107.375C140.939 99.3776 145.344 88.744 145.344 77.4338C145.344 66.1237 140.939 55.4905 132.941 47.4932ZM124.693 99.126C112.732 111.087 93.2703 111.087 81.309 99.126C75.5148 93.3319 72.3238 85.628 72.3238 77.4334C72.3238 69.2393 75.5148 61.5354 81.309 55.7413C87.2898 49.7608 95.1453 46.7709 103.001 46.7709C110.857 46.7709 118.712 49.7612 124.693 55.7413C130.487 61.5354 133.679 69.2393 133.679 77.4334C133.679 85.628 130.487 93.3319 124.693 99.126Z" fill="white"/>
<path d="M108.832 71.6012V58.7109H97.1664V71.6012H84.4902V83.2664H97.1664V95.9434H108.832V83.2664H121.509V71.6012H108.832Z" fill="white"/>
</g>
<defs>
<clipPath id="clip0">
<rect width="200" height="200" fill="white" transform="translate(3)"/>
</clipPath>
</defs>
</svg>
