<svg width="200" height="278" viewBox="0 0 200 278" fill="none" xmlns="http://www.w3.org/2000/svg">
<path d="M24.5911 263.06C24.5911 263.74 24.6711 264.353 24.8311 264.9C25.0044 265.447 25.2444 265.92 25.5511 266.32C25.8711 266.707 26.2578 267.007 26.7111 267.22C27.1644 267.433 27.6844 267.54 28.2711 267.54C28.8444 267.54 29.3578 267.433 29.8111 267.22C30.2778 267.007 30.6644 266.707 30.9711 266.32C31.2911 265.92 31.5311 265.447 31.6911 264.9C31.8644 264.353 31.9511 263.74 31.9511 263.06C31.9511 262.38 31.8644 261.767 31.6911 261.22C31.5311 260.66 31.2911 260.187 30.9711 259.8C30.6644 259.4 30.2778 259.093 29.8111 258.88C29.3578 258.667 28.8444 258.56 28.2711 258.56C27.6844 258.56 27.1644 258.673 26.7111 258.9C26.2578 259.113 25.8711 259.42 25.5511 259.82C25.2444 260.207 25.0044 260.68 24.8311 261.24C24.6711 261.787 24.5911 262.393 24.5911 263.06ZM35.1711 263.06C35.1711 264.247 34.9911 265.293 34.6311 266.2C34.2844 267.093 33.8044 267.847 33.1911 268.46C32.5778 269.06 31.8444 269.513 30.9911 269.82C30.1511 270.127 29.2444 270.28 28.2711 270.28C27.3244 270.28 26.4311 270.127 25.5911 269.82C24.7511 269.513 24.0178 269.06 23.3911 268.46C22.7644 267.847 22.2711 267.093 21.9111 266.2C21.5511 265.293 21.3711 264.247 21.3711 263.06C21.3711 261.873 21.5578 260.833 21.9311 259.94C22.3044 259.033 22.8044 258.273 23.4311 257.66C24.0711 257.047 24.8044 256.587 25.6311 256.28C26.4711 255.973 27.3511 255.82 28.2711 255.82C29.2178 255.82 30.1111 255.973 30.9511 256.28C31.7911 256.587 32.5244 257.047 33.1511 257.66C33.7778 258.273 34.2711 259.033 34.6311 259.94C34.9911 260.833 35.1711 261.873 35.1711 263.06ZM40.1119 264.66C40.1119 265.58 40.3185 266.32 40.7319 266.88C41.1452 267.44 41.7585 267.72 42.5719 267.72C42.8385 267.72 43.0852 267.713 43.3119 267.7C43.5385 267.673 43.7252 267.647 43.8719 267.62V262.2C43.6852 262.08 43.4385 261.98 43.1319 261.9C42.8385 261.82 42.5385 261.78 42.2319 261.78C40.8185 261.78 40.1119 262.74 40.1119 264.66ZM46.8519 269.66C46.5852 269.74 46.2785 269.82 45.9319 269.9C45.5852 269.967 45.2185 270.027 44.8319 270.08C44.4585 270.133 44.0719 270.173 43.6719 270.2C43.2852 270.24 42.9119 270.26 42.5519 270.26C41.6852 270.26 40.9119 270.133 40.2319 269.88C39.5519 269.627 38.9785 269.267 38.5119 268.8C38.0452 268.32 37.6852 267.747 37.4319 267.08C37.1919 266.4 37.0719 265.64 37.0719 264.8C37.0719 263.947 37.1785 263.18 37.3919 262.5C37.6052 261.807 37.9119 261.22 38.3119 260.74C38.7119 260.26 39.1985 259.893 39.7719 259.64C40.3585 259.387 41.0252 259.26 41.7719 259.26C42.1852 259.26 42.5519 259.3 42.8719 259.38C43.2052 259.46 43.5385 259.573 43.8719 259.72V254.96L46.8519 254.48V269.66ZM59.4822 264.72C59.4822 265.547 59.3622 266.307 59.1222 267C58.8822 267.68 58.5355 268.267 58.0822 268.76C57.6289 269.24 57.0822 269.613 56.4422 269.88C55.8155 270.147 55.1089 270.28 54.3222 270.28C53.5489 270.28 52.8422 270.147 52.2022 269.88C51.5755 269.613 51.0355 269.24 50.5822 268.76C50.1289 268.267 49.7755 267.68 49.5222 267C49.2689 266.307 49.1422 265.547 49.1422 264.72C49.1422 263.893 49.2689 263.14 49.5222 262.46C49.7889 261.78 50.1489 261.2 50.6022 260.72C51.0689 260.24 51.6155 259.867 52.2422 259.6C52.8822 259.333 53.5755 259.2 54.3222 259.2C55.0822 259.2 55.7755 259.333 56.4022 259.6C57.0422 259.867 57.5889 260.24 58.0422 260.72C58.4955 261.2 58.8489 261.78 59.1022 262.46C59.3555 263.14 59.4822 263.893 59.4822 264.72ZM56.4422 264.72C56.4422 263.8 56.2555 263.08 55.8822 262.56C55.5222 262.027 55.0022 261.76 54.3222 261.76C53.6422 261.76 53.1155 262.027 52.7422 262.56C52.3689 263.08 52.1822 263.8 52.1822 264.72C52.1822 265.64 52.3689 266.373 52.7422 266.92C53.1155 267.453 53.6422 267.72 54.3222 267.72C55.0022 267.72 55.5222 267.453 55.8822 266.92C56.2555 266.373 56.4422 265.64 56.4422 264.72ZM61.7906 259.84C62.2973 259.693 62.9506 259.56 63.7506 259.44C64.5506 259.307 65.3906 259.24 66.2706 259.24C67.164 259.24 67.904 259.36 68.4906 259.6C69.0906 259.827 69.564 260.153 69.9106 260.58C70.2573 261.007 70.504 261.513 70.6506 262.1C70.7973 262.687 70.8706 263.34 70.8706 264.06V270H67.8906V264.42C67.8906 263.46 67.764 262.78 67.5106 262.38C67.2573 261.98 66.784 261.78 66.0906 261.78C65.8773 261.78 65.6506 261.793 65.4106 261.82C65.1706 261.833 64.9573 261.853 64.7706 261.88V270H61.7906V259.84ZM73.468 256.86L76.448 256.38V259.48H80.028V261.96H76.448V265.66C76.448 266.287 76.5546 266.787 76.768 267.16C76.9946 267.533 77.4413 267.72 78.108 267.72C78.428 267.72 78.7546 267.693 79.088 267.64C79.4346 267.573 79.748 267.487 80.028 267.38L80.448 269.7C80.088 269.847 79.688 269.973 79.248 270.08C78.808 270.187 78.268 270.24 77.628 270.24C76.8146 270.24 76.1413 270.133 75.608 269.92C75.0746 269.693 74.648 269.387 74.328 269C74.008 268.6 73.7813 268.12 73.648 267.56C73.528 267 73.468 266.38 73.468 265.7V256.86ZM91.9041 264.72C91.9041 265.547 91.7841 266.307 91.5441 267C91.3041 267.68 90.9574 268.267 90.5041 268.76C90.0507 269.24 89.5041 269.613 88.8641 269.88C88.2374 270.147 87.5307 270.28 86.7441 270.28C85.9707 270.28 85.2641 270.147 84.6241 269.88C83.9974 269.613 83.4574 269.24 83.0041 268.76C82.5507 268.267 82.1974 267.68 81.9441 267C81.6907 266.307 81.5641 265.547 81.5641 264.72C81.5641 263.893 81.6907 263.14 81.9441 262.46C82.2107 261.78 82.5707 261.2 83.0241 260.72C83.4907 260.24 84.0374 259.867 84.6641 259.6C85.3041 259.333 85.9974 259.2 86.7441 259.2C87.5041 259.2 88.1974 259.333 88.8241 259.6C89.4641 259.867 90.0107 260.24 90.4641 260.72C90.9174 261.2 91.2707 261.78 91.5241 262.46C91.7774 263.14 91.9041 263.893 91.9041 264.72ZM88.8641 264.72C88.8641 263.8 88.6774 263.08 88.3041 262.56C87.9441 262.027 87.4241 261.76 86.7441 261.76C86.0641 261.76 85.5374 262.027 85.1641 262.56C84.7907 263.08 84.6041 263.8 84.6041 264.72C84.6041 265.64 84.7907 266.373 85.1641 266.92C85.5374 267.453 86.0641 267.72 86.7441 267.72C87.4241 267.72 87.9441 267.453 88.3041 266.92C88.6774 266.373 88.8641 265.64 88.8641 264.72ZM100.953 264.82C100.953 263.9 100.746 263.167 100.333 262.62C99.9192 262.06 99.3058 261.78 98.4925 261.78C98.2258 261.78 97.9792 261.793 97.7525 261.82C97.5258 261.833 97.3392 261.853 97.1925 261.88V267.26C97.3792 267.38 97.6192 267.48 97.9125 267.56C98.2192 267.64 98.5258 267.68 98.8325 267.68C100.246 267.68 100.953 266.727 100.953 264.82ZM103.993 264.74C103.993 265.553 103.893 266.293 103.693 266.96C103.493 267.627 103.199 268.2 102.812 268.68C102.426 269.16 101.946 269.533 101.373 269.8C100.799 270.067 100.139 270.2 99.3925 270.2C98.9792 270.2 98.5925 270.16 98.2325 270.08C97.8725 270 97.5258 269.887 97.1925 269.74V273.7H94.2125V259.84C94.4792 259.76 94.7858 259.687 95.1325 259.62C95.4792 259.54 95.8392 259.473 96.2125 259.42C96.5992 259.367 96.9858 259.327 97.3725 259.3C97.7725 259.26 98.1525 259.24 98.5125 259.24C99.3792 259.24 100.153 259.373 100.833 259.64C101.513 259.893 102.086 260.26 102.553 260.74C103.019 261.207 103.373 261.78 103.613 262.46C103.866 263.14 103.993 263.9 103.993 264.74ZM105.783 264.82C105.783 263.887 105.923 263.073 106.203 262.38C106.496 261.673 106.876 261.087 107.343 260.62C107.809 260.153 108.343 259.8 108.943 259.56C109.556 259.32 110.183 259.2 110.823 259.2C112.316 259.2 113.496 259.66 114.363 260.58C115.229 261.487 115.663 262.827 115.663 264.6C115.663 264.773 115.656 264.967 115.643 265.18C115.629 265.38 115.616 265.56 115.603 265.72H108.843C108.909 266.333 109.196 266.82 109.703 267.18C110.209 267.54 110.889 267.72 111.743 267.72C112.289 267.72 112.823 267.673 113.343 267.58C113.876 267.473 114.309 267.347 114.643 267.2L115.043 269.62C114.883 269.7 114.669 269.78 114.403 269.86C114.136 269.94 113.836 270.007 113.503 270.06C113.183 270.127 112.836 270.18 112.463 270.22C112.089 270.26 111.716 270.28 111.343 270.28C110.396 270.28 109.569 270.14 108.863 269.86C108.169 269.58 107.589 269.2 107.123 268.72C106.669 268.227 106.329 267.647 106.103 266.98C105.889 266.313 105.783 265.593 105.783 264.82ZM112.783 263.68C112.769 263.427 112.723 263.18 112.643 262.94C112.576 262.7 112.463 262.487 112.303 262.3C112.156 262.113 111.963 261.96 111.723 261.84C111.496 261.72 111.209 261.66 110.863 261.66C110.529 261.66 110.243 261.72 110.003 261.84C109.763 261.947 109.563 262.093 109.403 262.28C109.243 262.467 109.116 262.687 109.023 262.94C108.943 263.18 108.883 263.427 108.843 263.68H112.783ZM120.503 264.66C120.503 265.58 120.709 266.32 121.123 266.88C121.536 267.44 122.149 267.72 122.963 267.72C123.229 267.72 123.476 267.713 123.703 267.7C123.929 267.673 124.116 267.647 124.263 267.62V262.2C124.076 262.08 123.829 261.98 123.523 261.9C123.229 261.82 122.929 261.78 122.623 261.78C121.209 261.78 120.503 262.74 120.503 264.66ZM127.243 269.66C126.976 269.74 126.669 269.82 126.323 269.9C125.976 269.967 125.609 270.027 125.223 270.08C124.849 270.133 124.463 270.173 124.063 270.2C123.676 270.24 123.303 270.26 122.943 270.26C122.076 270.26 121.303 270.133 120.623 269.88C119.943 269.627 119.369 269.267 118.903 268.8C118.436 268.32 118.076 267.747 117.823 267.08C117.583 266.4 117.463 265.64 117.463 264.8C117.463 263.947 117.569 263.18 117.783 262.5C117.996 261.807 118.303 261.22 118.703 260.74C119.103 260.26 119.589 259.893 120.163 259.64C120.749 259.387 121.416 259.26 122.163 259.26C122.576 259.26 122.943 259.3 123.263 259.38C123.596 259.46 123.929 259.573 124.263 259.72V254.96L127.243 254.48V269.66ZM133.013 270H130.033V259.48H133.013V270ZM133.293 256.44C133.293 256.987 133.113 257.42 132.753 257.74C132.406 258.047 131.993 258.2 131.513 258.2C131.033 258.2 130.613 258.047 130.253 257.74C129.906 257.42 129.733 256.987 129.733 256.44C129.733 255.893 129.906 255.467 130.253 255.16C130.613 254.84 131.033 254.68 131.513 254.68C131.993 254.68 132.406 254.84 132.753 255.16C133.113 255.467 133.293 255.893 133.293 256.44ZM139.834 267.92C140.127 267.92 140.407 267.913 140.674 267.9C140.941 267.887 141.154 267.867 141.314 267.84V265.58C141.194 265.553 141.014 265.527 140.774 265.5C140.534 265.473 140.314 265.46 140.114 265.46C139.834 265.46 139.567 265.48 139.314 265.52C139.074 265.547 138.861 265.607 138.674 265.7C138.487 265.793 138.341 265.92 138.234 266.08C138.127 266.24 138.074 266.44 138.074 266.68C138.074 267.147 138.227 267.473 138.534 267.66C138.854 267.833 139.287 267.92 139.834 267.92ZM139.594 259.2C140.474 259.2 141.207 259.3 141.794 259.5C142.381 259.7 142.847 259.987 143.194 260.36C143.554 260.733 143.807 261.187 143.954 261.72C144.101 262.253 144.174 262.847 144.174 263.5V269.7C143.747 269.793 143.154 269.9 142.394 270.02C141.634 270.153 140.714 270.22 139.634 270.22C138.954 270.22 138.334 270.16 137.774 270.04C137.227 269.92 136.754 269.727 136.354 269.46C135.954 269.18 135.647 268.82 135.434 268.38C135.221 267.94 135.114 267.4 135.114 266.76C135.114 266.147 135.234 265.627 135.474 265.2C135.727 264.773 136.061 264.433 136.474 264.18C136.887 263.927 137.361 263.747 137.894 263.64C138.427 263.52 138.981 263.46 139.554 263.46C139.941 263.46 140.281 263.48 140.574 263.52C140.881 263.547 141.127 263.587 141.314 263.64V263.36C141.314 262.853 141.161 262.447 140.854 262.14C140.547 261.833 140.014 261.68 139.254 261.68C138.747 261.68 138.247 261.72 137.754 261.8C137.261 261.867 136.834 261.967 136.474 262.1L136.094 259.7C136.267 259.647 136.481 259.593 136.734 259.54C137.001 259.473 137.287 259.42 137.594 259.38C137.901 259.327 138.221 259.287 138.554 259.26C138.901 259.22 139.247 259.2 139.594 259.2ZM146.769 256.86L149.749 256.38V259.48H153.329V261.96H149.749V265.66C149.749 266.287 149.855 266.787 150.069 267.16C150.295 267.533 150.742 267.72 151.409 267.72C151.729 267.72 152.055 267.693 152.389 267.64C152.735 267.573 153.049 267.487 153.329 267.38L153.749 269.7C153.389 269.847 152.989 269.973 152.549 270.08C152.109 270.187 151.569 270.24 150.929 270.24C150.115 270.24 149.442 270.133 148.909 269.92C148.375 269.693 147.949 269.387 147.629 269C147.309 268.6 147.082 268.12 146.949 267.56C146.829 267 146.769 266.38 146.769 265.7V256.86ZM162.095 262.12C161.829 262.053 161.515 261.987 161.155 261.92C160.795 261.84 160.409 261.8 159.995 261.8C159.809 261.8 159.582 261.82 159.315 261.86C159.062 261.887 158.869 261.92 158.735 261.96V270H155.755V260.04C156.289 259.853 156.915 259.68 157.635 259.52C158.369 259.347 159.182 259.26 160.075 259.26C160.235 259.26 160.429 259.273 160.655 259.3C160.882 259.313 161.109 259.34 161.335 259.38C161.562 259.407 161.789 259.447 162.015 259.5C162.242 259.54 162.435 259.593 162.595 259.66L162.095 262.12ZM167.173 270H164.193V259.48H167.173V270ZM167.453 256.44C167.453 256.987 167.273 257.42 166.913 257.74C166.566 258.047 166.153 258.2 165.673 258.2C165.193 258.2 164.773 258.047 164.413 257.74C164.066 257.42 163.893 256.987 163.893 256.44C163.893 255.893 164.066 255.467 164.413 255.16C164.773 254.84 165.193 254.68 165.673 254.68C166.153 254.68 166.566 254.84 166.913 255.16C167.273 255.467 167.453 255.893 167.453 256.44ZM173.994 267.92C174.288 267.92 174.568 267.913 174.834 267.9C175.101 267.887 175.314 267.867 175.474 267.84V265.58C175.354 265.553 175.174 265.527 174.934 265.5C174.694 265.473 174.474 265.46 174.274 265.46C173.994 265.46 173.728 265.48 173.474 265.52C173.234 265.547 173.021 265.607 172.834 265.7C172.648 265.793 172.501 265.92 172.394 266.08C172.288 266.24 172.234 266.44 172.234 266.68C172.234 267.147 172.388 267.473 172.694 267.66C173.014 267.833 173.448 267.92 173.994 267.92ZM173.754 259.2C174.634 259.2 175.368 259.3 175.954 259.5C176.541 259.7 177.008 259.987 177.354 260.36C177.714 260.733 177.968 261.187 178.114 261.72C178.261 262.253 178.334 262.847 178.334 263.5V269.7C177.908 269.793 177.314 269.9 176.554 270.02C175.794 270.153 174.874 270.22 173.794 270.22C173.114 270.22 172.494 270.16 171.934 270.04C171.388 269.92 170.914 269.727 170.514 269.46C170.114 269.18 169.808 268.82 169.594 268.38C169.381 267.94 169.274 267.4 169.274 266.76C169.274 266.147 169.394 265.627 169.634 265.2C169.888 264.773 170.221 264.433 170.634 264.18C171.048 263.927 171.521 263.747 172.054 263.64C172.588 263.52 173.141 263.46 173.714 263.46C174.101 263.46 174.441 263.48 174.734 263.52C175.041 263.547 175.288 263.587 175.474 263.64V263.36C175.474 262.853 175.321 262.447 175.014 262.14C174.708 261.833 174.174 261.68 173.414 261.68C172.908 261.68 172.408 261.72 171.914 261.8C171.421 261.867 170.994 261.967 170.634 262.1L170.254 259.7C170.428 259.647 170.641 259.593 170.894 259.54C171.161 259.473 171.448 259.42 171.754 259.38C172.061 259.327 172.381 259.287 172.714 259.26C173.061 259.22 173.408 259.2 173.754 259.2Z" fill="white"/>
<circle cx="100.944" cy="100.943" r="91.8519" fill="#00ACE2"/>
<path d="M199.994 82.2449C193.731 90.6398 181.248 97.7176 165.093 102.132C167.054 92.8125 166.678 83.1961 163.793 74.2086C159.611 61.1804 150.664 51.6081 139.244 47.946C119.244 41.5327 102.645 49.2253 95.5834 53.482C88.5217 49.2249 71.9224 41.5323 51.9228 47.946C40.5001 51.6093 31.5516 61.1843 27.3708 74.2171C23.736 85.5476 24.0907 97.8738 28.086 109.345C24.8446 110.615 21.6067 112.035 18.3793 113.613C10.8852 117.278 4.64454 121.173 0.00390625 124.384V139.005C3.21563 136.396 11.8492 129.812 23.8282 123.994C26.6024 122.647 29.6825 121.286 33.0122 120.007C34.1473 121.945 35.3946 123.837 36.7579 125.67C41.4399 131.963 44.6052 138.897 46.1649 146.279C46.8692 149.613 47.4817 153.283 47.9849 157.188C51.5052 184.497 58.6747 198.883 69.2943 199.945C75.7212 200.586 80.9552 195.533 84.8459 184.92C87.4287 177.873 89.4623 168.451 90.5728 158.391C91.315 151.666 93.1014 147.959 94.4697 146.034C94.806 145.56 95.2611 145.461 95.5838 145.461C95.9064 145.461 96.3615 145.56 96.6982 146.034C98.0662 147.959 99.8525 151.667 100.594 158.391C101.705 168.451 103.739 177.872 106.321 184.92C109.992 194.934 114.857 200 120.795 199.999C121.15 199.999 121.51 199.981 121.873 199.945C132.492 198.883 139.662 184.497 143.182 157.188C143.686 153.282 144.298 149.611 145.001 146.281C146.56 138.904 149.73 131.963 154.423 125.65C156.875 122.353 158.957 118.868 160.664 115.26C160.881 115.213 161.1 115.17 161.317 115.122C177.257 111.642 190.509 105.94 199.994 98.6211L199.994 82.2449ZM145.019 118.659C139.31 126.339 135.446 134.818 133.536 143.86C132.768 147.495 132.103 151.476 131.559 155.691C128.465 179.697 123.067 186.948 121.147 188.111C120.261 187.233 118.421 184.529 116.485 178.428C114.615 172.533 113.107 164.96 112.241 157.106C111.424 149.702 109.408 143.695 106.25 139.249C103.801 135.801 99.8135 133.743 95.5822 133.743C91.3517 133.743 87.3638 135.802 84.915 139.249C81.7568 143.694 79.7416 149.702 78.9244 157.107C78.0576 164.961 76.5502 172.533 74.6802 178.428C72.7447 184.529 70.904 187.233 70.0185 188.111C68.0978 186.948 62.7005 179.698 59.606 155.691C59.0626 151.477 58.3978 147.497 57.629 143.859C55.7169 134.809 51.8579 126.336 46.1579 118.676C45.5798 117.898 45.0274 117.109 44.5001 116.308C55.6103 113.418 68.4427 112.094 81.847 114.709C104.011 119.034 125.78 120.034 145.704 117.711C145.479 118.028 145.252 118.345 145.019 118.659ZM152.206 104.949C136.421 107.616 113.261 108.898 84.092 103.207C69.779 100.413 54.5419 101.254 39.1841 105.598C35.9794 96.4734 35.6669 86.718 38.5286 77.7972C41.5391 68.4113 47.7251 61.5984 55.5005 59.105C59.4341 57.8433 63.4259 57.2132 67.4533 57.2132C71.9673 57.2132 76.5259 58.0054 81.0912 59.5894C87.747 61.8984 91.9334 65.1089 91.956 65.1261L95.5334 68.0238L99.1912 65.1406C99.233 65.1085 103.419 61.898 110.075 59.589C118.714 56.5921 127.324 56.4292 135.666 59.1046C143.439 61.5972 149.624 68.4078 152.636 77.7898C155.431 86.5016 155.201 96.0098 152.206 104.949Z" fill="white"/>
<path d="M101.443 0H89.7246V24.3739H101.443V0Z" fill="white"/>
<path d="M127.872 6.38123L115.619 27.4531L125.75 33.3442L138.003 12.2723L127.872 6.38123Z" fill="white"/>
<path d="M65.0563 6.38358L54.9258 12.2744L67.1789 33.3463L77.3095 27.4555L65.0563 6.38358Z" fill="white"/>
</svg>
