<svg width="308" height="317" viewBox="0 0 308 317" fill="none" xmlns="http://www.w3.org/2000/svg">
<circle cx="154.348" cy="100.979" r="92.0688" fill="#00ACE2"/>
<path d="M76.9517 165.095H147.707V106.132H76.9517V165.095ZM88.7442 117.925H135.914V153.302H88.7442V117.925Z" fill="white"/>
<path d="M194.454 47.17C198.017 22.3731 178.77 0 153.603 0C128.479 0 109.183 22.3283 112.753 47.17H53.3672V200.472H253.84V47.17H194.454ZM242.047 70.755H182.478C185.915 67.3961 188.786 63.4208 190.902 58.9625H242.047V70.755ZM153.603 11.7925C169.859 11.7925 183.085 25.0178 183.085 41.2737C183.085 57.7907 169.595 70.755 153.603 70.755C137.279 70.755 124.122 57.4605 124.122 41.2737C124.122 25.0178 137.347 11.7925 153.603 11.7925ZM116.305 58.9625C118.421 63.4208 121.292 67.3961 124.729 70.755H65.1597V58.9625H116.305ZM171.292 188.68V117.925H218.462V188.68H171.292ZM230.255 188.68V106.132H159.5V188.68H65.1597V82.5475H242.047V188.68H230.255Z" fill="white"/>
<path d="M147.708 58.9625H159.5V47.17H171.293V35.3775H159.5V23.585H147.708V35.3775H135.915V47.17H147.708V58.9625Z" fill="white"/>
<path d="M13.4473 236.98C15.5273 236.98 17.1206 237.353 18.2273 238.1C19.334 238.833 19.8873 239.98 19.8873 241.54C19.8873 242.513 19.6606 243.307 19.2073 243.92C18.7673 244.52 18.1273 244.993 17.2873 245.34C17.5673 245.687 17.8606 246.087 18.1673 246.54C18.474 246.98 18.774 247.447 19.0673 247.94C19.374 248.42 19.6673 248.927 19.9473 249.46C20.2273 249.98 20.4873 250.493 20.7273 251H17.2273C16.974 250.547 16.714 250.087 16.4473 249.62C16.194 249.153 15.9273 248.7 15.6473 248.26C15.3806 247.82 15.114 247.407 14.8473 247.02C14.5806 246.62 14.314 246.26 14.0473 245.94H12.5073V251H9.38729V237.34C10.0673 237.207 10.7673 237.113 11.4873 237.06C12.2206 237.007 12.874 236.98 13.4473 236.98ZM13.6273 239.64C13.4006 239.64 13.194 239.647 13.0073 239.66C12.834 239.673 12.6673 239.687 12.5073 239.7V243.46H13.3873C14.5606 243.46 15.4006 243.313 15.9073 243.02C16.414 242.727 16.6673 242.227 16.6673 241.52C16.6673 240.84 16.4073 240.36 15.8873 240.08C15.3806 239.787 14.6273 239.64 13.6273 239.64ZM21.5193 245.82C21.5193 244.887 21.6593 244.073 21.9393 243.38C22.2327 242.673 22.6127 242.087 23.0793 241.62C23.546 241.153 24.0793 240.8 24.6793 240.56C25.2927 240.32 25.9193 240.2 26.5593 240.2C28.0527 240.2 29.2327 240.66 30.0993 241.58C30.966 242.487 31.3993 243.827 31.3993 245.6C31.3993 245.773 31.3927 245.967 31.3793 246.18C31.366 246.38 31.3527 246.56 31.3393 246.72H24.5793C24.646 247.333 24.9327 247.82 25.4393 248.18C25.946 248.54 26.626 248.72 27.4793 248.72C28.026 248.72 28.5593 248.673 29.0793 248.58C29.6127 248.473 30.046 248.347 30.3793 248.2L30.7793 250.62C30.6193 250.7 30.406 250.78 30.1393 250.86C29.8727 250.94 29.5727 251.007 29.2393 251.06C28.9193 251.127 28.5727 251.18 28.1993 251.22C27.826 251.26 27.4527 251.28 27.0793 251.28C26.1327 251.28 25.306 251.14 24.5993 250.86C23.906 250.58 23.326 250.2 22.8593 249.72C22.406 249.227 22.066 248.647 21.8393 247.98C21.626 247.313 21.5193 246.593 21.5193 245.82ZM28.5193 244.68C28.506 244.427 28.4593 244.18 28.3793 243.94C28.3127 243.7 28.1993 243.487 28.0393 243.3C27.8927 243.113 27.6993 242.96 27.4593 242.84C27.2327 242.72 26.946 242.66 26.5993 242.66C26.266 242.66 25.9793 242.72 25.7393 242.84C25.4993 242.947 25.2993 243.093 25.1393 243.28C24.9793 243.467 24.8527 243.687 24.7593 243.94C24.6793 244.18 24.6193 244.427 24.5793 244.68H28.5193ZM36.239 245.66C36.239 246.58 36.4457 247.32 36.859 247.88C37.2723 248.44 37.8857 248.72 38.699 248.72C38.9657 248.72 39.2123 248.713 39.439 248.7C39.6657 248.673 39.8523 248.647 39.999 248.62V243.2C39.8123 243.08 39.5657 242.98 39.259 242.9C38.9657 242.82 38.6657 242.78 38.359 242.78C36.9457 242.78 36.239 243.74 36.239 245.66ZM42.979 250.66C42.7123 250.74 42.4057 250.82 42.059 250.9C41.7123 250.967 41.3457 251.027 40.959 251.08C40.5857 251.133 40.199 251.173 39.799 251.2C39.4123 251.24 39.039 251.26 38.679 251.26C37.8123 251.26 37.039 251.133 36.359 250.88C35.679 250.627 35.1057 250.267 34.639 249.8C34.1723 249.32 33.8123 248.747 33.559 248.08C33.319 247.4 33.199 246.64 33.199 245.8C33.199 244.947 33.3057 244.18 33.519 243.5C33.7323 242.807 34.039 242.22 34.439 241.74C34.839 241.26 35.3257 240.893 35.899 240.64C36.4857 240.387 37.1523 240.26 37.899 240.26C38.3123 240.26 38.679 240.3 38.999 240.38C39.3323 240.46 39.6657 240.573 39.999 240.72V235.96L42.979 235.48V250.66ZM45.2693 245.82C45.2693 244.887 45.4093 244.073 45.6893 243.38C45.9827 242.673 46.3627 242.087 46.8293 241.62C47.296 241.153 47.8293 240.8 48.4293 240.56C49.0427 240.32 49.6693 240.2 50.3093 240.2C51.8027 240.2 52.9827 240.66 53.8493 241.58C54.716 242.487 55.1493 243.827 55.1493 245.6C55.1493 245.773 55.1427 245.967 55.1293 246.18C55.116 246.38 55.1027 246.56 55.0893 246.72H48.3293C48.396 247.333 48.6827 247.82 49.1893 248.18C49.696 248.54 50.376 248.72 51.2293 248.72C51.776 248.72 52.3093 248.673 52.8293 248.58C53.3627 248.473 53.796 248.347 54.1293 248.2L54.5293 250.62C54.3693 250.7 54.156 250.78 53.8893 250.86C53.6227 250.94 53.3227 251.007 52.9893 251.06C52.6693 251.127 52.3227 251.18 51.9493 251.22C51.576 251.26 51.2027 251.28 50.8293 251.28C49.8827 251.28 49.056 251.14 48.3493 250.86C47.656 250.58 47.076 250.2 46.6093 249.72C46.156 249.227 45.816 248.647 45.5893 247.98C45.376 247.313 45.2693 246.593 45.2693 245.82ZM52.2693 244.68C52.256 244.427 52.2093 244.18 52.1293 243.94C52.0627 243.7 51.9493 243.487 51.7893 243.3C51.6427 243.113 51.4493 242.96 51.2093 242.84C50.9827 242.72 50.696 242.66 50.3493 242.66C50.016 242.66 49.7293 242.72 49.4893 242.84C49.2493 242.947 49.0493 243.093 48.8893 243.28C48.7293 243.467 48.6027 243.687 48.5093 243.94C48.4293 244.18 48.3693 244.427 48.3293 244.68H52.2693ZM64.7937 245.66C64.7937 246.58 65.0004 247.32 65.4137 247.88C65.827 248.44 66.4404 248.72 67.2537 248.72C67.5204 248.72 67.767 248.713 67.9937 248.7C68.2204 248.673 68.407 248.647 68.5537 248.62V243.2C68.367 243.08 68.1204 242.98 67.8137 242.9C67.5204 242.82 67.2204 242.78 66.9137 242.78C65.5004 242.78 64.7937 243.74 64.7937 245.66ZM71.5337 250.66C71.267 250.74 70.9604 250.82 70.6137 250.9C70.267 250.967 69.9004 251.027 69.5137 251.08C69.1404 251.133 68.7537 251.173 68.3537 251.2C67.967 251.24 67.5937 251.26 67.2337 251.26C66.367 251.26 65.5937 251.133 64.9137 250.88C64.2337 250.627 63.6604 250.267 63.1937 249.8C62.727 249.32 62.367 248.747 62.1137 248.08C61.8737 247.4 61.7537 246.64 61.7537 245.8C61.7537 244.947 61.8604 244.18 62.0737 243.5C62.287 242.807 62.5937 242.22 62.9937 241.74C63.3937 241.26 63.8804 240.893 64.4537 240.64C65.0404 240.387 65.707 240.26 66.4537 240.26C66.867 240.26 67.2337 240.3 67.5537 240.38C67.887 240.46 68.2204 240.573 68.5537 240.72V235.96L71.5337 235.48V250.66ZM73.824 245.82C73.824 244.887 73.964 244.073 74.244 243.38C74.5373 242.673 74.9173 242.087 75.384 241.62C75.8507 241.153 76.384 240.8 76.984 240.56C77.5973 240.32 78.224 240.2 78.864 240.2C80.3573 240.2 81.5373 240.66 82.404 241.58C83.2707 242.487 83.704 243.827 83.704 245.6C83.704 245.773 83.6973 245.967 83.684 246.18C83.6707 246.38 83.6573 246.56 83.644 246.72H76.884C76.9507 247.333 77.2373 247.82 77.744 248.18C78.2507 248.54 78.9307 248.72 79.784 248.72C80.3307 248.72 80.864 248.673 81.384 248.58C81.9173 248.473 82.3507 248.347 82.684 248.2L83.084 250.62C82.924 250.7 82.7107 250.78 82.444 250.86C82.1773 250.94 81.8773 251.007 81.544 251.06C81.224 251.127 80.8773 251.18 80.504 251.22C80.1307 251.26 79.7573 251.28 79.384 251.28C78.4373 251.28 77.6107 251.14 76.904 250.86C76.2107 250.58 75.6307 250.2 75.164 249.72C74.7107 249.227 74.3707 248.647 74.144 247.98C73.9307 247.313 73.824 246.593 73.824 245.82ZM80.824 244.68C80.8107 244.427 80.764 244.18 80.684 243.94C80.6173 243.7 80.504 243.487 80.344 243.3C80.1973 243.113 80.004 242.96 79.764 242.84C79.5373 242.72 79.2507 242.66 78.904 242.66C78.5707 242.66 78.284 242.72 78.044 242.84C77.804 242.947 77.604 243.093 77.444 243.28C77.284 243.467 77.1573 243.687 77.064 243.94C76.984 244.18 76.924 244.427 76.884 244.68H80.824ZM93.3484 245.66C93.3484 246.58 93.5551 247.32 93.9684 247.88C94.3817 248.44 94.9951 248.72 95.8084 248.72C96.0751 248.72 96.3217 248.713 96.5484 248.7C96.7751 248.673 96.9617 248.647 97.1084 248.62V243.2C96.9217 243.08 96.6751 242.98 96.3684 242.9C96.0751 242.82 95.7751 242.78 95.4684 242.78C94.0551 242.78 93.3484 243.74 93.3484 245.66ZM100.088 250.66C99.8217 250.74 99.5151 250.82 99.1684 250.9C98.8217 250.967 98.4551 251.027 98.0684 251.08C97.6951 251.133 97.3084 251.173 96.9084 251.2C96.5217 251.24 96.1484 251.26 95.7884 251.26C94.9217 251.26 94.1484 251.133 93.4684 250.88C92.7884 250.627 92.2151 250.267 91.7484 249.8C91.2817 249.32 90.9217 248.747 90.6684 248.08C90.4284 247.4 90.3084 246.64 90.3084 245.8C90.3084 244.947 90.4151 244.18 90.6284 243.5C90.8417 242.807 91.1484 242.22 91.5484 241.74C91.9484 241.26 92.4351 240.893 93.0084 240.64C93.5951 240.387 94.2617 240.26 95.0084 240.26C95.4217 240.26 95.7884 240.3 96.1084 240.38C96.4417 240.46 96.7751 240.573 97.1084 240.72V235.96L100.088 235.48V250.66ZM102.379 245.82C102.379 244.887 102.519 244.073 102.799 243.38C103.092 242.673 103.472 242.087 103.939 241.62C104.405 241.153 104.939 240.8 105.539 240.56C106.152 240.32 106.779 240.2 107.419 240.2C108.912 240.2 110.092 240.66 110.959 241.58C111.825 242.487 112.259 243.827 112.259 245.6C112.259 245.773 112.252 245.967 112.239 246.18C112.225 246.38 112.212 246.56 112.199 246.72H105.439C105.505 247.333 105.792 247.82 106.299 248.18C106.805 248.54 107.485 248.72 108.339 248.72C108.885 248.72 109.419 248.673 109.939 248.58C110.472 248.473 110.905 248.347 111.239 248.2L111.639 250.62C111.479 250.7 111.265 250.78 110.999 250.86C110.732 250.94 110.432 251.007 110.099 251.06C109.779 251.127 109.432 251.18 109.059 251.22C108.685 251.26 108.312 251.28 107.939 251.28C106.992 251.28 106.165 251.14 105.459 250.86C104.765 250.58 104.185 250.2 103.719 249.72C103.265 249.227 102.925 248.647 102.699 247.98C102.485 247.313 102.379 246.593 102.379 245.82ZM109.379 244.68C109.365 244.427 109.319 244.18 109.239 243.94C109.172 243.7 109.059 243.487 108.899 243.3C108.752 243.113 108.559 242.96 108.319 242.84C108.092 242.72 107.805 242.66 107.459 242.66C107.125 242.66 106.839 242.72 106.599 242.84C106.359 242.947 106.159 243.093 105.999 243.28C105.839 243.467 105.712 243.687 105.619 243.94C105.539 244.18 105.479 244.427 105.439 244.68H109.379ZM117.578 248.86C118.125 248.86 118.512 248.807 118.738 248.7C118.965 248.593 119.078 248.387 119.078 248.08C119.078 247.84 118.932 247.633 118.638 247.46C118.345 247.273 117.898 247.067 117.298 246.84C116.832 246.667 116.405 246.487 116.018 246.3C115.645 246.113 115.325 245.893 115.058 245.64C114.792 245.373 114.585 245.06 114.438 244.7C114.292 244.34 114.218 243.907 114.218 243.4C114.218 242.413 114.585 241.633 115.318 241.06C116.052 240.487 117.058 240.2 118.338 240.2C118.978 240.2 119.592 240.26 120.178 240.38C120.765 240.487 121.232 240.607 121.578 240.74L121.058 243.06C120.712 242.94 120.332 242.833 119.918 242.74C119.518 242.647 119.065 242.6 118.558 242.6C117.625 242.6 117.158 242.86 117.158 243.38C117.158 243.5 117.178 243.607 117.218 243.7C117.258 243.793 117.338 243.887 117.458 243.98C117.578 244.06 117.738 244.153 117.938 244.26C118.152 244.353 118.418 244.46 118.738 244.58C119.392 244.82 119.932 245.06 120.358 245.3C120.785 245.527 121.118 245.78 121.358 246.06C121.612 246.327 121.785 246.627 121.878 246.96C121.985 247.293 122.038 247.68 122.038 248.12C122.038 249.16 121.645 249.947 120.858 250.48C120.085 251.013 118.985 251.28 117.558 251.28C116.625 251.28 115.845 251.2 115.218 251.04C114.605 250.88 114.178 250.747 113.938 250.64L114.438 248.22C114.945 248.42 115.465 248.58 115.998 248.7C116.532 248.807 117.058 248.86 117.578 248.86ZM123.765 245.74C123.765 244.98 123.885 244.267 124.125 243.6C124.379 242.92 124.739 242.333 125.205 241.84C125.672 241.333 126.239 240.933 126.905 240.64C127.572 240.347 128.332 240.2 129.185 240.2C129.745 240.2 130.259 240.253 130.725 240.36C131.192 240.453 131.645 240.593 132.085 240.78L131.465 243.16C131.185 243.053 130.879 242.96 130.545 242.88C130.212 242.8 129.839 242.76 129.425 242.76C128.545 242.76 127.885 243.033 127.445 243.58C127.019 244.127 126.805 244.847 126.805 245.74C126.805 246.687 127.005 247.42 127.405 247.94C127.819 248.46 128.532 248.72 129.545 248.72C129.905 248.72 130.292 248.687 130.705 248.62C131.119 248.553 131.499 248.447 131.845 248.3L132.265 250.74C131.919 250.887 131.485 251.013 130.965 251.12C130.445 251.227 129.872 251.28 129.245 251.28C128.285 251.28 127.459 251.14 126.765 250.86C126.072 250.567 125.499 250.173 125.045 249.68C124.605 249.187 124.279 248.607 124.065 247.94C123.865 247.26 123.765 246.527 123.765 245.74ZM143.598 245.72C143.598 246.547 143.478 247.307 143.238 248C142.998 248.68 142.651 249.267 142.198 249.76C141.744 250.24 141.198 250.613 140.558 250.88C139.931 251.147 139.224 251.28 138.438 251.28C137.664 251.28 136.958 251.147 136.318 250.88C135.691 250.613 135.151 250.24 134.698 249.76C134.244 249.267 133.891 248.68 133.638 248C133.384 247.307 133.258 246.547 133.258 245.72C133.258 244.893 133.384 244.14 133.638 243.46C133.904 242.78 134.264 242.2 134.718 241.72C135.184 241.24 135.731 240.867 136.358 240.6C136.998 240.333 137.691 240.2 138.438 240.2C139.198 240.2 139.891 240.333 140.518 240.6C141.158 240.867 141.704 241.24 142.158 241.72C142.611 242.2 142.964 242.78 143.218 243.46C143.471 244.14 143.598 244.893 143.598 245.72ZM140.558 245.72C140.558 244.8 140.371 244.08 139.998 243.56C139.638 243.027 139.118 242.76 138.438 242.76C137.758 242.76 137.231 243.027 136.858 243.56C136.484 244.08 136.298 244.8 136.298 245.72C136.298 246.64 136.484 247.373 136.858 247.92C137.231 248.453 137.758 248.72 138.438 248.72C139.118 248.72 139.638 248.453 139.998 247.92C140.371 247.373 140.558 246.64 140.558 245.72ZM145.906 240.84C146.413 240.693 147.066 240.56 147.866 240.44C148.666 240.307 149.506 240.24 150.386 240.24C151.279 240.24 152.019 240.36 152.606 240.6C153.206 240.827 153.679 241.153 154.026 241.58C154.373 242.007 154.619 242.513 154.766 243.1C154.913 243.687 154.986 244.34 154.986 245.06V251H152.006V245.42C152.006 244.46 151.879 243.78 151.626 243.38C151.373 242.98 150.899 242.78 150.206 242.78C149.993 242.78 149.766 242.793 149.526 242.82C149.286 242.833 149.073 242.853 148.886 242.88V251H145.906V240.84ZM157.583 237.86L160.563 237.38V240.48H164.143V242.96H160.563V246.66C160.563 247.287 160.67 247.787 160.883 248.16C161.11 248.533 161.557 248.72 162.223 248.72C162.543 248.72 162.87 248.693 163.203 248.64C163.55 248.573 163.863 248.487 164.143 248.38L164.563 250.7C164.203 250.847 163.803 250.973 163.363 251.08C162.923 251.187 162.383 251.24 161.743 251.24C160.93 251.24 160.257 251.133 159.723 250.92C159.19 250.693 158.763 250.387 158.443 250C158.123 249.6 157.897 249.12 157.763 248.56C157.643 248 157.583 247.38 157.583 246.7V237.86ZM176.019 245.72C176.019 246.547 175.899 247.307 175.659 248C175.419 248.68 175.073 249.267 174.619 249.76C174.166 250.24 173.619 250.613 172.979 250.88C172.353 251.147 171.646 251.28 170.859 251.28C170.086 251.28 169.379 251.147 168.739 250.88C168.113 250.613 167.573 250.24 167.119 249.76C166.666 249.267 166.313 248.68 166.059 248C165.806 247.307 165.679 246.547 165.679 245.72C165.679 244.893 165.806 244.14 166.059 243.46C166.326 242.78 166.686 242.2 167.139 241.72C167.606 241.24 168.153 240.867 168.779 240.6C169.419 240.333 170.113 240.2 170.859 240.2C171.619 240.2 172.313 240.333 172.939 240.6C173.579 240.867 174.126 241.24 174.579 241.72C175.033 242.2 175.386 242.78 175.639 243.46C175.893 244.14 176.019 244.893 176.019 245.72ZM172.979 245.72C172.979 244.8 172.793 244.08 172.419 243.56C172.059 243.027 171.539 242.76 170.859 242.76C170.179 242.76 169.653 243.027 169.279 243.56C168.906 244.08 168.719 244.8 168.719 245.72C168.719 246.64 168.906 247.373 169.279 247.92C169.653 248.453 170.179 248.72 170.859 248.72C171.539 248.72 172.059 248.453 172.419 247.92C172.793 247.373 172.979 246.64 172.979 245.72ZM181.348 248.86C181.895 248.86 182.281 248.807 182.508 248.7C182.735 248.593 182.848 248.387 182.848 248.08C182.848 247.84 182.701 247.633 182.408 247.46C182.115 247.273 181.668 247.067 181.068 246.84C180.601 246.667 180.175 246.487 179.788 246.3C179.415 246.113 179.095 245.893 178.828 245.64C178.561 245.373 178.355 245.06 178.208 244.7C178.061 244.34 177.988 243.907 177.988 243.4C177.988 242.413 178.355 241.633 179.088 241.06C179.821 240.487 180.828 240.2 182.108 240.2C182.748 240.2 183.361 240.26 183.948 240.38C184.535 240.487 185.001 240.607 185.348 240.74L184.828 243.06C184.481 242.94 184.101 242.833 183.688 242.74C183.288 242.647 182.835 242.6 182.328 242.6C181.395 242.6 180.928 242.86 180.928 243.38C180.928 243.5 180.948 243.607 180.988 243.7C181.028 243.793 181.108 243.887 181.228 243.98C181.348 244.06 181.508 244.153 181.708 244.26C181.921 244.353 182.188 244.46 182.508 244.58C183.161 244.82 183.701 245.06 184.128 245.3C184.555 245.527 184.888 245.78 185.128 246.06C185.381 246.327 185.555 246.627 185.648 246.96C185.755 247.293 185.808 247.68 185.808 248.12C185.808 249.16 185.415 249.947 184.628 250.48C183.855 251.013 182.755 251.28 181.328 251.28C180.395 251.28 179.615 251.2 178.988 251.04C178.375 250.88 177.948 250.747 177.708 250.64L178.208 248.22C178.715 248.42 179.235 248.58 179.768 248.7C180.301 248.807 180.828 248.86 181.348 248.86ZM192.46 245.82C192.46 244.9 192.593 244.1 192.86 243.42C193.126 242.727 193.48 242.153 193.92 241.7C194.36 241.247 194.866 240.907 195.44 240.68C196.013 240.453 196.6 240.34 197.2 240.34C198.6 240.34 199.673 240.78 200.42 241.66C201.166 242.527 201.54 243.853 201.54 245.64C201.54 245.72 201.54 245.827 201.54 245.96C201.54 246.08 201.533 246.193 201.52 246.3H194.4C194.48 247.38 194.793 248.2 195.34 248.76C195.886 249.32 196.74 249.6 197.9 249.6C198.553 249.6 199.1 249.547 199.54 249.44C199.993 249.32 200.333 249.207 200.56 249.1L200.82 250.66C200.593 250.78 200.193 250.907 199.62 251.04C199.06 251.173 198.42 251.24 197.7 251.24C196.793 251.24 196.006 251.107 195.34 250.84C194.686 250.56 194.146 250.18 193.72 249.7C193.293 249.22 192.973 248.653 192.76 248C192.56 247.333 192.46 246.607 192.46 245.82ZM199.6 244.8C199.613 243.96 199.4 243.273 198.96 242.74C198.533 242.193 197.94 241.92 197.18 241.92C196.753 241.92 196.373 242.007 196.04 242.18C195.72 242.34 195.446 242.553 195.22 242.82C194.993 243.087 194.813 243.393 194.68 243.74C194.56 244.087 194.48 244.44 194.44 244.8H199.6ZM204.212 240.9C204.638 240.793 205.198 240.68 205.892 240.56C206.598 240.44 207.412 240.38 208.332 240.38C208.998 240.38 209.558 240.473 210.012 240.66C210.465 240.833 210.845 241.093 211.152 241.44C211.245 241.373 211.392 241.28 211.592 241.16C211.792 241.04 212.038 240.927 212.332 240.82C212.625 240.7 212.952 240.6 213.312 240.52C213.672 240.427 214.058 240.38 214.472 240.38C215.272 240.38 215.925 240.5 216.432 240.74C216.938 240.967 217.332 241.293 217.612 241.72C217.905 242.147 218.098 242.653 218.192 243.24C218.298 243.827 218.352 244.467 218.352 245.16V251H216.492V245.56C216.492 244.947 216.458 244.42 216.392 243.98C216.338 243.54 216.225 243.173 216.052 242.88C215.892 242.587 215.665 242.373 215.372 242.24C215.092 242.093 214.725 242.02 214.272 242.02C213.645 242.02 213.125 242.107 212.712 242.28C212.312 242.44 212.038 242.587 211.892 242.72C211.998 243.067 212.078 243.447 212.132 243.86C212.185 244.273 212.212 244.707 212.212 245.16V251H210.352V245.56C210.352 244.947 210.318 244.42 210.252 243.98C210.185 243.54 210.065 243.173 209.892 242.88C209.732 242.587 209.505 242.373 209.212 242.24C208.932 242.093 208.572 242.02 208.132 242.02C207.945 242.02 207.745 242.027 207.532 242.04C207.318 242.053 207.112 242.073 206.912 242.1C206.725 242.113 206.552 242.133 206.392 242.16C206.232 242.187 206.125 242.207 206.072 242.22V251H204.212V240.9ZM232.787 242.8C232.56 242.613 232.234 242.433 231.807 242.26C231.38 242.087 230.914 242 230.407 242C229.874 242 229.414 242.1 229.027 242.3C228.654 242.487 228.347 242.753 228.107 243.1C227.867 243.433 227.694 243.833 227.587 244.3C227.48 244.767 227.427 245.267 227.427 245.8C227.427 247.013 227.727 247.953 228.327 248.62C228.927 249.273 229.727 249.6 230.727 249.6C231.234 249.6 231.654 249.58 231.987 249.54C232.334 249.487 232.6 249.433 232.787 249.38V242.8ZM232.787 235.8L234.647 235.48V250.7C234.22 250.82 233.674 250.94 233.007 251.06C232.34 251.18 231.574 251.24 230.707 251.24C229.907 251.24 229.187 251.113 228.547 250.86C227.907 250.607 227.36 250.247 226.907 249.78C226.454 249.313 226.1 248.747 225.847 248.08C225.607 247.4 225.487 246.64 225.487 245.8C225.487 245 225.587 244.267 225.787 243.6C226 242.933 226.307 242.36 226.707 241.88C227.107 241.4 227.594 241.027 228.167 240.76C228.754 240.493 229.42 240.36 230.167 240.36C230.767 240.36 231.294 240.44 231.747 240.6C232.214 240.76 232.56 240.913 232.787 241.06V235.8ZM239.704 251H237.844V240.6H239.704V251ZM238.764 238.72C238.431 238.72 238.144 238.613 237.904 238.4C237.678 238.173 237.564 237.873 237.564 237.5C237.564 237.127 237.678 236.833 237.904 236.62C238.144 236.393 238.431 236.28 238.764 236.28C239.098 236.28 239.378 236.393 239.604 236.62C239.844 236.833 239.964 237.127 239.964 237.5C239.964 237.873 239.844 238.173 239.604 238.4C239.378 238.613 239.098 238.72 238.764 238.72ZM251.023 240.6C250.503 242.547 249.89 244.413 249.183 246.2C248.49 247.987 247.816 249.587 247.163 251H245.483C244.83 249.587 244.15 247.987 243.443 246.2C242.75 244.413 242.143 242.547 241.623 240.6H243.623C243.783 241.253 243.97 241.953 244.183 242.7C244.41 243.433 244.643 244.167 244.883 244.9C245.136 245.62 245.39 246.32 245.643 247C245.896 247.68 246.136 248.287 246.363 248.82C246.59 248.287 246.83 247.68 247.083 247C247.336 246.32 247.583 245.62 247.823 244.9C248.076 244.167 248.31 243.433 248.523 242.7C248.75 241.953 248.943 241.253 249.103 240.6H251.023ZM252.089 245.82C252.089 244.9 252.222 244.1 252.489 243.42C252.755 242.727 253.109 242.153 253.549 241.7C253.989 241.247 254.495 240.907 255.069 240.68C255.642 240.453 256.229 240.34 256.829 240.34C258.229 240.34 259.302 240.78 260.049 241.66C260.795 242.527 261.169 243.853 261.169 245.64C261.169 245.72 261.169 245.827 261.169 245.96C261.169 246.08 261.162 246.193 261.149 246.3H254.029C254.109 247.38 254.422 248.2 254.969 248.76C255.515 249.32 256.369 249.6 257.529 249.6C258.182 249.6 258.729 249.547 259.169 249.44C259.622 249.32 259.962 249.207 260.189 249.1L260.449 250.66C260.222 250.78 259.822 250.907 259.249 251.04C258.689 251.173 258.049 251.24 257.329 251.24C256.422 251.24 255.635 251.107 254.969 250.84C254.315 250.56 253.775 250.18 253.349 249.7C252.922 249.22 252.602 248.653 252.389 248C252.189 247.333 252.089 246.607 252.089 245.82ZM259.229 244.8C259.242 243.96 259.029 243.273 258.589 242.74C258.162 242.193 257.569 241.92 256.809 241.92C256.382 241.92 256.002 242.007 255.669 242.18C255.349 242.34 255.075 242.553 254.849 242.82C254.622 243.087 254.442 243.393 254.309 243.74C254.189 244.087 254.109 244.44 254.069 244.8H259.229ZM267.68 240.38C267.84 240.38 268.02 240.393 268.22 240.42C268.434 240.433 268.64 240.46 268.84 240.5C269.04 240.527 269.22 240.56 269.38 240.6C269.554 240.627 269.68 240.653 269.76 240.68L269.44 242.3C269.294 242.247 269.047 242.187 268.7 242.12C268.367 242.04 267.934 242 267.4 242C267.054 242 266.707 242.04 266.36 242.12C266.027 242.187 265.807 242.233 265.7 242.26V251H263.84V241.04C264.28 240.88 264.827 240.733 265.48 240.6C266.134 240.453 266.867 240.38 267.68 240.38ZM273.975 249.66C274.735 249.66 275.295 249.56 275.655 249.36C276.029 249.16 276.215 248.84 276.215 248.4C276.215 247.947 276.035 247.587 275.675 247.32C275.315 247.053 274.722 246.753 273.895 246.42C273.495 246.26 273.109 246.1 272.735 245.94C272.375 245.767 272.062 245.567 271.795 245.34C271.529 245.113 271.315 244.84 271.155 244.52C270.995 244.2 270.915 243.807 270.915 243.34C270.915 242.42 271.255 241.693 271.935 241.16C272.615 240.613 273.542 240.34 274.715 240.34C275.009 240.34 275.302 240.36 275.595 240.4C275.889 240.427 276.162 240.467 276.415 240.52C276.669 240.56 276.889 240.607 277.075 240.66C277.275 240.713 277.429 240.76 277.535 240.8L277.195 242.4C276.995 242.293 276.682 242.187 276.255 242.08C275.829 241.96 275.315 241.9 274.715 241.9C274.195 241.9 273.742 242.007 273.355 242.22C272.969 242.42 272.775 242.74 272.775 243.18C272.775 243.407 272.815 243.607 272.895 243.78C272.989 243.953 273.122 244.113 273.295 244.26C273.482 244.393 273.709 244.52 273.975 244.64C274.242 244.76 274.562 244.887 274.935 245.02C275.429 245.207 275.869 245.393 276.255 245.58C276.642 245.753 276.969 245.96 277.235 246.2C277.515 246.44 277.729 246.733 277.875 247.08C278.022 247.413 278.095 247.827 278.095 248.32C278.095 249.28 277.735 250.007 277.015 250.5C276.309 250.993 275.295 251.24 273.975 251.24C273.055 251.24 272.335 251.16 271.815 251C271.295 250.853 270.942 250.74 270.755 250.66L271.095 249.06C271.309 249.14 271.649 249.26 272.115 249.42C272.582 249.58 273.202 249.66 273.975 249.66ZM289.661 245.8C289.661 246.627 289.541 247.373 289.301 248.04C289.061 248.707 288.721 249.28 288.281 249.76C287.854 250.24 287.341 250.613 286.741 250.88C286.141 251.133 285.488 251.26 284.781 251.26C284.074 251.26 283.421 251.133 282.821 250.88C282.221 250.613 281.701 250.24 281.261 249.76C280.834 249.28 280.501 248.707 280.261 248.04C280.021 247.373 279.901 246.627 279.901 245.8C279.901 244.987 280.021 244.247 280.261 243.58C280.501 242.9 280.834 242.32 281.261 241.84C281.701 241.36 282.221 240.993 282.821 240.74C283.421 240.473 284.074 240.34 284.781 240.34C285.488 240.34 286.141 240.473 286.741 240.74C287.341 240.993 287.854 241.36 288.281 241.84C288.721 242.32 289.061 242.9 289.301 243.58C289.541 244.247 289.661 244.987 289.661 245.8ZM287.721 245.8C287.721 244.627 287.454 243.7 286.921 243.02C286.401 242.327 285.688 241.98 284.781 241.98C283.874 241.98 283.154 242.327 282.621 243.02C282.101 243.7 281.841 244.627 281.841 245.8C281.841 246.973 282.101 247.907 282.621 248.6C283.154 249.28 283.874 249.62 284.781 249.62C285.688 249.62 286.401 249.28 286.921 248.6C287.454 247.907 287.721 246.973 287.721 245.8ZM294.698 249.66C295.458 249.66 296.018 249.56 296.378 249.36C296.751 249.16 296.938 248.84 296.938 248.4C296.938 247.947 296.758 247.587 296.398 247.32C296.038 247.053 295.445 246.753 294.618 246.42C294.218 246.26 293.831 246.1 293.458 245.94C293.098 245.767 292.785 245.567 292.518 245.34C292.251 245.113 292.038 244.84 291.878 244.52C291.718 244.2 291.638 243.807 291.638 243.34C291.638 242.42 291.978 241.693 292.658 241.16C293.338 240.613 294.265 240.34 295.438 240.34C295.731 240.34 296.025 240.36 296.318 240.4C296.611 240.427 296.885 240.467 297.138 240.52C297.391 240.56 297.611 240.607 297.798 240.66C297.998 240.713 298.151 240.76 298.258 240.8L297.918 242.4C297.718 242.293 297.405 242.187 296.978 242.08C296.551 241.96 296.038 241.9 295.438 241.9C294.918 241.9 294.465 242.007 294.078 242.22C293.691 242.42 293.498 242.74 293.498 243.18C293.498 243.407 293.538 243.607 293.618 243.78C293.711 243.953 293.845 244.113 294.018 244.26C294.205 244.393 294.431 244.52 294.698 244.64C294.965 244.76 295.285 244.887 295.658 245.02C296.151 245.207 296.591 245.393 296.978 245.58C297.365 245.753 297.691 245.96 297.958 246.2C298.238 246.44 298.451 246.733 298.598 247.08C298.745 247.413 298.818 247.827 298.818 248.32C298.818 249.28 298.458 250.007 297.738 250.5C297.031 250.993 296.018 251.24 294.698 251.24C293.778 251.24 293.058 251.16 292.538 251C292.018 250.853 291.665 250.74 291.478 250.66L291.818 249.06C292.031 249.14 292.371 249.26 292.838 249.42C293.305 249.58 293.925 249.66 294.698 249.66ZM28.026 271.82C28.026 270.9 28.1594 270.1 28.426 269.42C28.6927 268.727 29.046 268.153 29.486 267.7C29.926 267.247 30.4327 266.907 31.006 266.68C31.5794 266.453 32.166 266.34 32.766 266.34C34.166 266.34 35.2394 266.78 35.986 267.66C36.7327 268.527 37.106 269.853 37.106 271.64C37.106 271.72 37.106 271.827 37.106 271.96C37.106 272.08 37.0994 272.193 37.086 272.3H29.966C30.046 273.38 30.3594 274.2 30.906 274.76C31.4527 275.32 32.306 275.6 33.466 275.6C34.1194 275.6 34.666 275.547 35.106 275.44C35.5594 275.32 35.8994 275.207 36.126 275.1L36.386 276.66C36.1594 276.78 35.7594 276.907 35.186 277.04C34.626 277.173 33.986 277.24 33.266 277.24C32.3594 277.24 31.5727 277.107 30.906 276.84C30.2527 276.56 29.7127 276.18 29.286 275.7C28.8594 275.22 28.5394 274.653 28.326 274C28.126 273.333 28.026 272.607 28.026 271.82ZM35.166 270.8C35.1794 269.96 34.966 269.273 34.526 268.74C34.0994 268.193 33.506 267.92 32.746 267.92C32.3194 267.92 31.9394 268.007 31.606 268.18C31.286 268.34 31.0127 268.553 30.786 268.82C30.5594 269.087 30.3794 269.393 30.246 269.74C30.126 270.087 30.046 270.44 30.006 270.8H35.166ZM42.1979 275.66C42.9579 275.66 43.5179 275.56 43.8779 275.36C44.2513 275.16 44.4379 274.84 44.4379 274.4C44.4379 273.947 44.2579 273.587 43.8979 273.32C43.5379 273.053 42.9446 272.753 42.1179 272.42C41.7179 272.26 41.3313 272.1 40.9579 271.94C40.5979 271.767 40.2846 271.567 40.0179 271.34C39.7513 271.113 39.5379 270.84 39.3779 270.52C39.2179 270.2 39.1379 269.807 39.1379 269.34C39.1379 268.42 39.4779 267.693 40.1579 267.16C40.8379 266.613 41.7646 266.34 42.9379 266.34C43.2313 266.34 43.5246 266.36 43.8179 266.4C44.1113 266.427 44.3846 266.467 44.6379 266.52C44.8913 266.56 45.1113 266.607 45.2979 266.66C45.4979 266.713 45.6513 266.76 45.7579 266.8L45.4179 268.4C45.2179 268.293 44.9046 268.187 44.4779 268.08C44.0513 267.96 43.5379 267.9 42.9379 267.9C42.4179 267.9 41.9646 268.007 41.5779 268.22C41.1913 268.42 40.9979 268.74 40.9979 269.18C40.9979 269.407 41.0379 269.607 41.1179 269.78C41.2113 269.953 41.3446 270.113 41.5179 270.26C41.7046 270.393 41.9313 270.52 42.1979 270.64C42.4646 270.76 42.7846 270.887 43.1579 271.02C43.6513 271.207 44.0913 271.393 44.4779 271.58C44.8646 271.753 45.1913 271.96 45.4579 272.2C45.7379 272.44 45.9513 272.733 46.0979 273.08C46.2446 273.413 46.3179 273.827 46.3179 274.32C46.3179 275.28 45.9579 276.007 45.2379 276.5C44.5313 276.993 43.5179 277.24 42.1979 277.24C41.2779 277.24 40.5579 277.16 40.0379 277C39.5179 276.853 39.1646 276.74 38.9779 276.66L39.3179 275.06C39.5313 275.14 39.8713 275.26 40.3379 275.42C40.8046 275.58 41.4246 275.66 42.1979 275.66ZM50.4437 266.6H54.3837V268.16H50.4437V272.96C50.4437 273.48 50.4837 273.913 50.5637 274.26C50.6437 274.593 50.7637 274.86 50.9237 275.06C51.0837 275.247 51.2837 275.38 51.5237 275.46C51.7637 275.54 52.0437 275.58 52.3637 275.58C52.9237 275.58 53.3704 275.52 53.7037 275.4C54.0504 275.267 54.2904 275.173 54.4237 275.12L54.7837 276.66C54.597 276.753 54.2704 276.867 53.8037 277C53.337 277.147 52.8037 277.22 52.2037 277.22C51.497 277.22 50.9104 277.133 50.4437 276.96C49.9904 276.773 49.6237 276.5 49.3437 276.14C49.0637 275.78 48.8637 275.34 48.7437 274.82C48.637 274.287 48.5837 273.673 48.5837 272.98V263.7L50.4437 263.38V266.6ZM60.2706 275.66C60.7106 275.66 61.0972 275.653 61.4306 275.64C61.7772 275.613 62.0639 275.573 62.2906 275.52V272.42C62.1572 272.353 61.9372 272.3 61.6306 272.26C61.3372 272.207 60.9772 272.18 60.5506 272.18C60.2706 272.18 59.9706 272.2 59.6506 272.24C59.3439 272.28 59.0572 272.367 58.7906 272.5C58.5372 272.62 58.3239 272.793 58.1506 273.02C57.9772 273.233 57.8906 273.52 57.8906 273.88C57.8906 274.547 58.1039 275.013 58.5306 275.28C58.9572 275.533 59.5372 275.66 60.2706 275.66ZM60.1106 266.34C60.8572 266.34 61.4839 266.44 61.9906 266.64C62.5106 266.827 62.9239 267.1 63.2306 267.46C63.5506 267.807 63.7772 268.227 63.9106 268.72C64.0439 269.2 64.1106 269.733 64.1106 270.32V276.82C63.9506 276.847 63.7239 276.887 63.4306 276.94C63.1506 276.98 62.8306 277.02 62.4706 277.06C62.1106 277.1 61.7172 277.133 61.2906 277.16C60.8772 277.2 60.4639 277.22 60.0506 277.22C59.4639 277.22 58.9239 277.16 58.4306 277.04C57.9372 276.92 57.5106 276.733 57.1506 276.48C56.7906 276.213 56.5106 275.867 56.3106 275.44C56.1106 275.013 56.0106 274.5 56.0106 273.9C56.0106 273.327 56.1239 272.833 56.3506 272.42C56.5906 272.007 56.9106 271.673 57.3106 271.42C57.7106 271.167 58.1772 270.98 58.7106 270.86C59.2439 270.74 59.8039 270.68 60.3906 270.68C60.5772 270.68 60.7706 270.693 60.9706 270.72C61.1706 270.733 61.3572 270.76 61.5306 270.8C61.7172 270.827 61.8772 270.853 62.0106 270.88C62.1439 270.907 62.2372 270.927 62.2906 270.94V270.42C62.2906 270.113 62.2572 269.813 62.1906 269.52C62.1239 269.213 62.0039 268.947 61.8306 268.72C61.6572 268.48 61.4172 268.293 61.1106 268.16C60.8172 268.013 60.4306 267.94 59.9506 267.94C59.3372 267.94 58.7972 267.987 58.3306 268.08C57.8772 268.16 57.5372 268.247 57.3106 268.34L57.0906 266.8C57.3306 266.693 57.7306 266.593 58.2906 266.5C58.8506 266.393 59.4572 266.34 60.1106 266.34ZM69.0598 267.06C69.2865 266.913 69.6265 266.76 70.0798 266.6C70.5465 266.44 71.0798 266.36 71.6798 266.36C72.4265 266.36 73.0865 266.493 73.6598 266.76C74.2465 267.027 74.7398 267.4 75.1398 267.88C75.5398 268.36 75.8398 268.933 76.0398 269.6C76.2531 270.267 76.3598 271 76.3598 271.8C76.3598 272.64 76.2331 273.4 75.9798 274.08C75.7398 274.747 75.3931 275.313 74.9398 275.78C74.4865 276.247 73.9398 276.607 73.2998 276.86C72.6598 277.113 71.9398 277.24 71.1398 277.24C70.2731 277.24 69.5065 277.18 68.8398 277.06C68.1731 276.94 67.6265 276.82 67.1998 276.7V261.8L69.0598 261.48V267.06ZM69.0598 275.38C69.2465 275.433 69.5065 275.487 69.8398 275.54C70.1865 275.58 70.6131 275.6 71.1198 275.6C72.1198 275.6 72.9198 275.273 73.5198 274.62C74.1198 273.953 74.4198 273.013 74.4198 271.8C74.4198 271.267 74.3665 270.767 74.2598 270.3C74.1531 269.833 73.9798 269.433 73.7398 269.1C73.4998 268.753 73.1865 268.487 72.7998 268.3C72.4265 268.1 71.9731 268 71.4398 268C70.9331 268 70.4665 268.087 70.0398 268.26C69.6131 268.433 69.2865 268.613 69.0598 268.8V275.38ZM78.3971 271.82C78.3971 270.9 78.5305 270.1 78.7971 269.42C79.0638 268.727 79.4171 268.153 79.8571 267.7C80.2971 267.247 80.8038 266.907 81.3771 266.68C81.9505 266.453 82.5371 266.34 83.1371 266.34C84.5371 266.34 85.6105 266.78 86.3571 267.66C87.1038 268.527 87.4771 269.853 87.4771 271.64C87.4771 271.72 87.4771 271.827 87.4771 271.96C87.4771 272.08 87.4705 272.193 87.4571 272.3H80.3371C80.4171 273.38 80.7305 274.2 81.2771 274.76C81.8238 275.32 82.6771 275.6 83.8371 275.6C84.4905 275.6 85.0371 275.547 85.4771 275.44C85.9305 275.32 86.2705 275.207 86.4971 275.1L86.7571 276.66C86.5305 276.78 86.1305 276.907 85.5571 277.04C84.9971 277.173 84.3571 277.24 83.6371 277.24C82.7305 277.24 81.9438 277.107 81.2771 276.84C80.6238 276.56 80.0838 276.18 79.6571 275.7C79.2305 275.22 78.9105 274.653 78.6971 274C78.4971 273.333 78.3971 272.607 78.3971 271.82ZM85.5371 270.8C85.5505 269.96 85.3371 269.273 84.8971 268.74C84.4705 268.193 83.8771 267.92 83.1171 267.92C82.6905 267.92 82.3105 268.007 81.9771 268.18C81.6571 268.34 81.3838 268.553 81.1571 268.82C80.9305 269.087 80.7505 269.393 80.6171 269.74C80.4971 270.087 80.4171 270.44 80.3771 270.8H85.5371ZM93.269 277.2C92.1223 277.173 91.309 276.927 90.829 276.46C90.349 275.993 90.109 275.267 90.109 274.28V261.8L91.969 261.48V273.98C91.969 274.287 91.9957 274.54 92.049 274.74C92.1023 274.94 92.189 275.1 92.309 275.22C92.429 275.34 92.589 275.433 92.789 275.5C92.989 275.553 93.2357 275.6 93.529 275.64L93.269 277.2ZM95.0378 271.82C95.0378 270.9 95.1711 270.1 95.4378 269.42C95.7044 268.727 96.0578 268.153 96.4978 267.7C96.9378 267.247 97.4444 266.907 98.0178 266.68C98.5911 266.453 99.1778 266.34 99.7778 266.34C101.178 266.34 102.251 266.78 102.998 267.66C103.744 268.527 104.118 269.853 104.118 271.64C104.118 271.72 104.118 271.827 104.118 271.96C104.118 272.08 104.111 272.193 104.098 272.3H96.9778C97.0578 273.38 97.3711 274.2 97.9178 274.76C98.4644 275.32 99.3178 275.6 100.478 275.6C101.131 275.6 101.678 275.547 102.118 275.44C102.571 275.32 102.911 275.207 103.138 275.1L103.398 276.66C103.171 276.78 102.771 276.907 102.198 277.04C101.638 277.173 100.998 277.24 100.278 277.24C99.3711 277.24 98.5844 277.107 97.9178 276.84C97.2644 276.56 96.7244 276.18 96.2978 275.7C95.8711 275.22 95.5511 274.653 95.3378 274C95.1378 273.333 95.0378 272.607 95.0378 271.82ZM102.178 270.8C102.191 269.96 101.978 269.273 101.538 268.74C101.111 268.193 100.518 267.92 99.7578 267.92C99.3311 267.92 98.9511 268.007 98.6178 268.18C98.2978 268.34 98.0244 268.553 97.7978 268.82C97.5711 269.087 97.3911 269.393 97.2578 269.74C97.1378 270.087 97.0578 270.44 97.0178 270.8H102.178ZM111.31 277.24C110.47 277.24 109.73 277.107 109.09 276.84C108.463 276.573 107.93 276.2 107.49 275.72C107.063 275.24 106.743 274.673 106.53 274.02C106.316 273.353 106.21 272.62 106.21 271.82C106.21 271.02 106.323 270.287 106.55 269.62C106.79 268.953 107.123 268.38 107.55 267.9C107.976 267.407 108.496 267.027 109.11 266.76C109.736 266.48 110.43 266.34 111.19 266.34C111.656 266.34 112.123 266.38 112.59 266.46C113.056 266.54 113.503 266.667 113.93 266.84L113.51 268.42C113.23 268.287 112.903 268.18 112.53 268.1C112.17 268.02 111.783 267.98 111.37 267.98C110.33 267.98 109.53 268.307 108.97 268.96C108.423 269.613 108.15 270.567 108.15 271.82C108.15 272.38 108.21 272.893 108.33 273.36C108.463 273.827 108.663 274.227 108.93 274.56C109.21 274.893 109.563 275.153 109.99 275.34C110.416 275.513 110.936 275.6 111.55 275.6C112.043 275.6 112.49 275.553 112.89 275.46C113.29 275.367 113.603 275.267 113.83 275.16L114.09 276.72C113.983 276.787 113.83 276.853 113.63 276.92C113.43 276.973 113.203 277.02 112.95 277.06C112.696 277.113 112.423 277.153 112.13 277.18C111.85 277.22 111.576 277.24 111.31 277.24ZM117.947 277H116.087V266.6H117.947V277ZM117.007 264.72C116.673 264.72 116.387 264.613 116.147 264.4C115.92 264.173 115.807 263.873 115.807 263.5C115.807 263.127 115.92 262.833 116.147 262.62C116.387 262.393 116.673 262.28 117.007 262.28C117.34 262.28 117.62 262.393 117.847 262.62C118.087 262.833 118.207 263.127 118.207 263.5C118.207 263.873 118.087 264.173 117.847 264.4C117.62 264.613 117.34 264.72 117.007 264.72ZM121.145 266.9C121.572 266.793 122.132 266.68 122.825 266.56C123.532 266.44 124.345 266.38 125.265 266.38C125.932 266.38 126.492 266.473 126.945 266.66C127.398 266.833 127.778 267.093 128.085 267.44C128.178 267.373 128.325 267.28 128.525 267.16C128.725 267.04 128.972 266.927 129.265 266.82C129.558 266.7 129.885 266.6 130.245 266.52C130.605 266.427 130.992 266.38 131.405 266.38C132.205 266.38 132.858 266.5 133.365 266.74C133.872 266.967 134.265 267.293 134.545 267.72C134.838 268.147 135.032 268.653 135.125 269.24C135.232 269.827 135.285 270.467 135.285 271.16V277H133.425V271.56C133.425 270.947 133.392 270.42 133.325 269.98C133.272 269.54 133.158 269.173 132.985 268.88C132.825 268.587 132.598 268.373 132.305 268.24C132.025 268.093 131.658 268.02 131.205 268.02C130.578 268.02 130.058 268.107 129.645 268.28C129.245 268.44 128.972 268.587 128.825 268.72C128.932 269.067 129.012 269.447 129.065 269.86C129.118 270.273 129.145 270.707 129.145 271.16V277H127.285V271.56C127.285 270.947 127.252 270.42 127.185 269.98C127.118 269.54 126.998 269.173 126.825 268.88C126.665 268.587 126.438 268.373 126.145 268.24C125.865 268.093 125.505 268.02 125.065 268.02C124.878 268.02 124.678 268.027 124.465 268.04C124.252 268.053 124.045 268.073 123.845 268.1C123.658 268.113 123.485 268.133 123.325 268.16C123.165 268.187 123.058 268.207 123.005 268.22V277H121.145V266.9ZM137.792 271.82C137.792 270.9 137.925 270.1 138.192 269.42C138.458 268.727 138.812 268.153 139.252 267.7C139.692 267.247 140.198 266.907 140.772 266.68C141.345 266.453 141.932 266.34 142.532 266.34C143.932 266.34 145.005 266.78 145.752 267.66C146.498 268.527 146.872 269.853 146.872 271.64C146.872 271.72 146.872 271.827 146.872 271.96C146.872 272.08 146.865 272.193 146.852 272.3H139.732C139.812 273.38 140.125 274.2 140.672 274.76C141.218 275.32 142.072 275.6 143.232 275.6C143.885 275.6 144.432 275.547 144.872 275.44C145.325 275.32 145.665 275.207 145.892 275.1L146.152 276.66C145.925 276.78 145.525 276.907 144.952 277.04C144.392 277.173 143.752 277.24 143.032 277.24C142.125 277.24 141.338 277.107 140.672 276.84C140.018 276.56 139.478 276.18 139.052 275.7C138.625 275.22 138.305 274.653 138.092 274C137.892 273.333 137.792 272.607 137.792 271.82ZM144.932 270.8C144.945 269.96 144.732 269.273 144.292 268.74C143.865 268.193 143.272 267.92 142.512 267.92C142.085 267.92 141.705 268.007 141.372 268.18C141.052 268.34 140.778 268.553 140.552 268.82C140.325 269.087 140.145 269.393 140.012 269.74C139.892 270.087 139.812 270.44 139.772 270.8H144.932ZM149.544 266.9C149.97 266.793 150.537 266.68 151.244 266.56C151.95 266.44 152.764 266.38 153.684 266.38C154.51 266.38 155.197 266.5 155.744 266.74C156.29 266.967 156.724 267.293 157.044 267.72C157.377 268.133 157.61 268.633 157.744 269.22C157.877 269.807 157.944 270.453 157.944 271.16V277H156.084V271.56C156.084 270.92 156.037 270.373 155.944 269.92C155.864 269.467 155.724 269.1 155.524 268.82C155.324 268.54 155.057 268.34 154.724 268.22C154.39 268.087 153.977 268.02 153.484 268.02C153.284 268.02 153.077 268.027 152.864 268.04C152.65 268.053 152.444 268.073 152.244 268.1C152.057 268.113 151.884 268.133 151.724 268.16C151.577 268.187 151.47 268.207 151.404 268.22V277H149.544V266.9ZM162.768 266.6H166.708V268.16H162.768V272.96C162.768 273.48 162.808 273.913 162.888 274.26C162.968 274.593 163.088 274.86 163.248 275.06C163.408 275.247 163.608 275.38 163.848 275.46C164.088 275.54 164.368 275.58 164.688 275.58C165.248 275.58 165.695 275.52 166.028 275.4C166.375 275.267 166.615 275.173 166.748 275.12L167.108 276.66C166.921 276.753 166.595 276.867 166.128 277C165.661 277.147 165.128 277.22 164.528 277.22C163.821 277.22 163.235 277.133 162.768 276.96C162.315 276.773 161.948 276.5 161.668 276.14C161.388 275.78 161.188 275.34 161.068 274.82C160.961 274.287 160.908 273.673 160.908 272.98V263.7L162.768 263.38V266.6ZM177.981 271.8C177.981 272.627 177.861 273.373 177.621 274.04C177.381 274.707 177.041 275.28 176.601 275.76C176.175 276.24 175.661 276.613 175.061 276.88C174.461 277.133 173.808 277.26 173.101 277.26C172.395 277.26 171.741 277.133 171.141 276.88C170.541 276.613 170.021 276.24 169.581 275.76C169.155 275.28 168.821 274.707 168.581 274.04C168.341 273.373 168.221 272.627 168.221 271.8C168.221 270.987 168.341 270.247 168.581 269.58C168.821 268.9 169.155 268.32 169.581 267.84C170.021 267.36 170.541 266.993 171.141 266.74C171.741 266.473 172.395 266.34 173.101 266.34C173.808 266.34 174.461 266.473 175.061 266.74C175.661 266.993 176.175 267.36 176.601 267.84C177.041 268.32 177.381 268.9 177.621 269.58C177.861 270.247 177.981 270.987 177.981 271.8ZM176.041 271.8C176.041 270.627 175.775 269.7 175.241 269.02C174.721 268.327 174.008 267.98 173.101 267.98C172.195 267.98 171.475 268.327 170.941 269.02C170.421 269.7 170.161 270.627 170.161 271.8C170.161 272.973 170.421 273.907 170.941 274.6C171.475 275.28 172.195 275.62 173.101 275.62C174.008 275.62 174.721 275.28 175.241 274.6C175.775 273.907 176.041 272.973 176.041 271.8ZM183.018 275.66C183.778 275.66 184.338 275.56 184.698 275.36C185.072 275.16 185.258 274.84 185.258 274.4C185.258 273.947 185.078 273.587 184.718 273.32C184.358 273.053 183.765 272.753 182.938 272.42C182.538 272.26 182.152 272.1 181.778 271.94C181.418 271.767 181.105 271.567 180.838 271.34C180.572 271.113 180.358 270.84 180.198 270.52C180.038 270.2 179.958 269.807 179.958 269.34C179.958 268.42 180.298 267.693 180.978 267.16C181.658 266.613 182.585 266.34 183.758 266.34C184.052 266.34 184.345 266.36 184.638 266.4C184.932 266.427 185.205 266.467 185.458 266.52C185.712 266.56 185.932 266.607 186.118 266.66C186.318 266.713 186.472 266.76 186.578 266.8L186.238 268.4C186.038 268.293 185.725 268.187 185.298 268.08C184.872 267.96 184.358 267.9 183.758 267.9C183.238 267.9 182.785 268.007 182.398 268.22C182.012 268.42 181.818 268.74 181.818 269.18C181.818 269.407 181.858 269.607 181.938 269.78C182.032 269.953 182.165 270.113 182.338 270.26C182.525 270.393 182.752 270.52 183.018 270.64C183.285 270.76 183.605 270.887 183.978 271.02C184.472 271.207 184.912 271.393 185.298 271.58C185.685 271.753 186.012 271.96 186.278 272.2C186.558 272.44 186.772 272.733 186.918 273.08C187.065 273.413 187.138 273.827 187.138 274.32C187.138 275.28 186.778 276.007 186.058 276.5C185.352 276.993 184.338 277.24 183.018 277.24C182.098 277.24 181.378 277.16 180.858 277C180.338 276.853 179.985 276.74 179.798 276.66L180.138 275.06C180.352 275.14 180.692 275.26 181.158 275.42C181.625 275.58 182.245 275.66 183.018 275.66ZM191.484 274.72C191.497 274.827 191.504 274.933 191.504 275.04C191.504 275.133 191.504 275.233 191.504 275.34C191.504 276.18 191.377 277.007 191.124 277.82C190.884 278.647 190.551 279.433 190.124 280.18L188.684 279.72C189.017 279.04 189.237 278.347 189.344 277.64C189.451 276.947 189.504 276.293 189.504 275.68C189.504 275.507 189.497 275.34 189.484 275.18C189.484 275.02 189.477 274.867 189.464 274.72H191.484ZM200.935 277H199.075V266.6H200.935V277ZM199.995 264.72C199.661 264.72 199.375 264.613 199.135 264.4C198.908 264.173 198.795 263.873 198.795 263.5C198.795 263.127 198.908 262.833 199.135 262.62C199.375 262.393 199.661 262.28 199.995 262.28C200.328 262.28 200.608 262.393 200.835 262.62C201.075 262.833 201.195 263.127 201.195 263.5C201.195 263.873 201.075 264.173 200.835 264.4C200.608 264.613 200.328 264.72 199.995 264.72ZM204.133 266.9C204.56 266.793 205.127 266.68 205.833 266.56C206.54 266.44 207.353 266.38 208.273 266.38C209.1 266.38 209.787 266.5 210.333 266.74C210.88 266.967 211.313 267.293 211.633 267.72C211.967 268.133 212.2 268.633 212.333 269.22C212.467 269.807 212.533 270.453 212.533 271.16V277H210.673V271.56C210.673 270.92 210.627 270.373 210.533 269.92C210.453 269.467 210.313 269.1 210.113 268.82C209.913 268.54 209.647 268.34 209.313 268.22C208.98 268.087 208.567 268.02 208.073 268.02C207.873 268.02 207.667 268.027 207.453 268.04C207.24 268.053 207.033 268.073 206.833 268.1C206.647 268.113 206.473 268.133 206.313 268.16C206.167 268.187 206.06 268.207 205.993 268.22V277H204.133V266.9ZM220.138 277.24C219.298 277.24 218.558 277.107 217.918 276.84C217.291 276.573 216.758 276.2 216.318 275.72C215.891 275.24 215.571 274.673 215.358 274.02C215.144 273.353 215.038 272.62 215.038 271.82C215.038 271.02 215.151 270.287 215.378 269.62C215.618 268.953 215.951 268.38 216.378 267.9C216.804 267.407 217.324 267.027 217.938 266.76C218.564 266.48 219.258 266.34 220.018 266.34C220.484 266.34 220.951 266.38 221.418 266.46C221.884 266.54 222.331 266.667 222.758 266.84L222.338 268.42C222.058 268.287 221.731 268.18 221.358 268.1C220.998 268.02 220.611 267.98 220.198 267.98C219.158 267.98 218.358 268.307 217.798 268.96C217.251 269.613 216.978 270.567 216.978 271.82C216.978 272.38 217.038 272.893 217.158 273.36C217.291 273.827 217.491 274.227 217.758 274.56C218.038 274.893 218.391 275.153 218.818 275.34C219.244 275.513 219.764 275.6 220.378 275.6C220.871 275.6 221.318 275.553 221.718 275.46C222.118 275.367 222.431 275.267 222.658 275.16L222.918 276.72C222.811 276.787 222.658 276.853 222.458 276.92C222.258 276.973 222.031 277.02 221.778 277.06C221.524 277.113 221.251 277.153 220.958 277.18C220.678 277.22 220.404 277.24 220.138 277.24ZM228.035 277.2C226.888 277.173 226.075 276.927 225.595 276.46C225.115 275.993 224.875 275.267 224.875 274.28V261.8L226.735 261.48V273.98C226.735 274.287 226.761 274.54 226.815 274.74C226.868 274.94 226.955 275.1 227.075 275.22C227.195 275.34 227.355 275.433 227.555 275.5C227.755 275.553 228.001 275.6 228.295 275.64L228.035 277.2ZM238.663 276.7C238.237 276.807 237.67 276.92 236.963 277.04C236.27 277.16 235.463 277.22 234.543 277.22C233.743 277.22 233.07 277.107 232.523 276.88C231.977 276.64 231.537 276.307 231.203 275.88C230.87 275.453 230.63 274.953 230.483 274.38C230.337 273.793 230.263 273.147 230.263 272.44V266.6H232.123V272.04C232.123 273.307 232.323 274.213 232.723 274.76C233.123 275.307 233.797 275.58 234.743 275.58C234.943 275.58 235.15 275.573 235.363 275.56C235.577 275.547 235.777 275.533 235.963 275.52C236.15 275.493 236.317 275.473 236.463 275.46C236.623 275.433 236.737 275.407 236.803 275.38V266.6H238.663V276.7ZM243.728 277H241.868V266.6H243.728V277ZM242.788 264.72C242.454 264.72 242.168 264.613 241.928 264.4C241.701 264.173 241.588 263.873 241.588 263.5C241.588 263.127 241.701 262.833 241.928 262.62C242.168 262.393 242.454 262.28 242.788 262.28C243.121 262.28 243.401 262.393 243.628 262.62C243.868 262.833 243.988 263.127 243.988 263.5C243.988 263.873 243.868 264.173 243.628 264.4C243.401 264.613 243.121 264.72 242.788 264.72ZM246.926 266.9C247.353 266.793 247.92 266.68 248.626 266.56C249.333 266.44 250.146 266.38 251.066 266.38C251.893 266.38 252.58 266.5 253.126 266.74C253.673 266.967 254.106 267.293 254.426 267.72C254.76 268.133 254.993 268.633 255.126 269.22C255.26 269.807 255.326 270.453 255.326 271.16V277H253.466V271.56C253.466 270.92 253.42 270.373 253.326 269.92C253.246 269.467 253.106 269.1 252.906 268.82C252.706 268.54 252.44 268.34 252.106 268.22C251.773 268.087 251.36 268.02 250.866 268.02C250.666 268.02 250.46 268.027 250.246 268.04C250.033 268.053 249.826 268.073 249.626 268.1C249.44 268.113 249.266 268.133 249.106 268.16C248.96 268.187 248.853 268.207 248.786 268.22V277H246.926V266.9ZM265.131 268.8C264.904 268.613 264.577 268.433 264.151 268.26C263.724 268.087 263.257 268 262.751 268C262.217 268 261.757 268.1 261.371 268.3C260.997 268.487 260.691 268.753 260.451 269.1C260.211 269.433 260.037 269.833 259.931 270.3C259.824 270.767 259.771 271.267 259.771 271.8C259.771 273.013 260.071 273.953 260.671 274.62C261.271 275.273 262.071 275.6 263.071 275.6C263.577 275.6 263.997 275.58 264.331 275.54C264.677 275.487 264.944 275.433 265.131 275.38V268.8ZM265.131 261.8L266.991 261.48V276.7C266.564 276.82 266.017 276.94 265.351 277.06C264.684 277.18 263.917 277.24 263.051 277.24C262.251 277.24 261.531 277.113 260.891 276.86C260.251 276.607 259.704 276.247 259.251 275.78C258.797 275.313 258.444 274.747 258.191 274.08C257.951 273.4 257.831 272.64 257.831 271.8C257.831 271 257.931 270.267 258.131 269.6C258.344 268.933 258.651 268.36 259.051 267.88C259.451 267.4 259.937 267.027 260.511 266.76C261.097 266.493 261.764 266.36 262.511 266.36C263.111 266.36 263.637 266.44 264.091 266.6C264.557 266.76 264.904 266.913 265.131 267.06V261.8ZM279.368 271.8C279.368 272.627 279.248 273.373 279.008 274.04C278.768 274.707 278.428 275.28 277.988 275.76C277.561 276.24 277.048 276.613 276.448 276.88C275.848 277.133 275.195 277.26 274.488 277.26C273.781 277.26 273.128 277.133 272.528 276.88C271.928 276.613 271.408 276.24 270.968 275.76C270.541 275.28 270.208 274.707 269.968 274.04C269.728 273.373 269.608 272.627 269.608 271.8C269.608 270.987 269.728 270.247 269.968 269.58C270.208 268.9 270.541 268.32 270.968 267.84C271.408 267.36 271.928 266.993 272.528 266.74C273.128 266.473 273.781 266.34 274.488 266.34C275.195 266.34 275.848 266.473 276.448 266.74C277.048 266.993 277.561 267.36 277.988 267.84C278.428 268.32 278.768 268.9 279.008 269.58C279.248 270.247 279.368 270.987 279.368 271.8ZM277.428 271.8C277.428 270.627 277.161 269.7 276.628 269.02C276.108 268.327 275.395 267.98 274.488 267.98C273.581 267.98 272.861 268.327 272.328 269.02C271.808 269.7 271.548 270.627 271.548 271.8C271.548 272.973 271.808 273.907 272.328 274.6C272.861 275.28 273.581 275.62 274.488 275.62C275.395 275.62 276.108 275.28 276.628 274.6C277.161 273.907 277.428 272.973 277.428 271.8ZM113.252 287.48C113.799 287.48 114.265 287.52 114.652 287.6C115.052 287.68 115.332 287.753 115.492 287.82L115.152 289.42C114.992 289.34 114.765 289.267 114.472 289.2C114.179 289.12 113.819 289.08 113.392 289.08C112.525 289.08 111.919 289.32 111.572 289.8C111.225 290.267 111.052 290.9 111.052 291.7V292.6H115.052V294.16H111.052V303H109.192V291.66C109.192 290.327 109.519 289.3 110.172 288.58C110.825 287.847 111.852 287.48 113.252 287.48ZM120.427 301.66C120.867 301.66 121.253 301.653 121.587 301.64C121.933 301.613 122.22 301.573 122.447 301.52V298.42C122.313 298.353 122.093 298.3 121.787 298.26C121.493 298.207 121.133 298.18 120.707 298.18C120.427 298.18 120.127 298.2 119.807 298.24C119.5 298.28 119.213 298.367 118.947 298.5C118.693 298.62 118.48 298.793 118.307 299.02C118.133 299.233 118.047 299.52 118.047 299.88C118.047 300.547 118.26 301.013 118.687 301.28C119.113 301.533 119.693 301.66 120.427 301.66ZM120.267 292.34C121.013 292.34 121.64 292.44 122.147 292.64C122.667 292.827 123.08 293.1 123.387 293.46C123.707 293.807 123.933 294.227 124.067 294.72C124.2 295.2 124.267 295.733 124.267 296.32V302.82C124.107 302.847 123.88 302.887 123.587 302.94C123.307 302.98 122.987 303.02 122.627 303.06C122.267 303.1 121.873 303.133 121.447 303.16C121.033 303.2 120.62 303.22 120.207 303.22C119.62 303.22 119.08 303.16 118.587 303.04C118.093 302.92 117.667 302.733 117.307 302.48C116.947 302.213 116.667 301.867 116.467 301.44C116.267 301.013 116.167 300.5 116.167 299.9C116.167 299.327 116.28 298.833 116.507 298.42C116.747 298.007 117.067 297.673 117.467 297.42C117.867 297.167 118.333 296.98 118.867 296.86C119.4 296.74 119.96 296.68 120.547 296.68C120.733 296.68 120.927 296.693 121.127 296.72C121.327 296.733 121.513 296.76 121.687 296.8C121.873 296.827 122.033 296.853 122.167 296.88C122.3 296.907 122.393 296.927 122.447 296.94V296.42C122.447 296.113 122.413 295.813 122.347 295.52C122.28 295.213 122.16 294.947 121.987 294.72C121.813 294.48 121.573 294.293 121.267 294.16C120.973 294.013 120.587 293.94 120.107 293.94C119.493 293.94 118.953 293.987 118.487 294.08C118.033 294.16 117.693 294.247 117.467 294.34L117.247 292.8C117.487 292.693 117.887 292.593 118.447 292.5C119.007 292.393 119.613 292.34 120.267 292.34ZM131.196 292.38C131.356 292.38 131.536 292.393 131.736 292.42C131.949 292.433 132.156 292.46 132.356 292.5C132.556 292.527 132.736 292.56 132.896 292.6C133.069 292.627 133.196 292.653 133.276 292.68L132.956 294.3C132.809 294.247 132.563 294.187 132.216 294.12C131.883 294.04 131.449 294 130.916 294C130.569 294 130.223 294.04 129.876 294.12C129.543 294.187 129.323 294.233 129.216 294.26V303H127.356V293.04C127.796 292.88 128.343 292.733 128.996 292.6C129.649 292.453 130.383 292.38 131.196 292.38ZM135.071 292.9C135.498 292.793 136.058 292.68 136.751 292.56C137.458 292.44 138.271 292.38 139.191 292.38C139.858 292.38 140.418 292.473 140.871 292.66C141.324 292.833 141.704 293.093 142.011 293.44C142.104 293.373 142.251 293.28 142.451 293.16C142.651 293.04 142.898 292.927 143.191 292.82C143.484 292.7 143.811 292.6 144.171 292.52C144.531 292.427 144.918 292.38 145.331 292.38C146.131 292.38 146.784 292.5 147.291 292.74C147.798 292.967 148.191 293.293 148.471 293.72C148.764 294.147 148.958 294.653 149.051 295.24C149.158 295.827 149.211 296.467 149.211 297.16V303H147.351V297.56C147.351 296.947 147.318 296.42 147.251 295.98C147.198 295.54 147.084 295.173 146.911 294.88C146.751 294.587 146.524 294.373 146.231 294.24C145.951 294.093 145.584 294.02 145.131 294.02C144.504 294.02 143.984 294.107 143.571 294.28C143.171 294.44 142.898 294.587 142.751 294.72C142.858 295.067 142.938 295.447 142.991 295.86C143.044 296.273 143.071 296.707 143.071 297.16V303H141.211V297.56C141.211 296.947 141.178 296.42 141.111 295.98C141.044 295.54 140.924 295.173 140.751 294.88C140.591 294.587 140.364 294.373 140.071 294.24C139.791 294.093 139.431 294.02 138.991 294.02C138.804 294.02 138.604 294.027 138.391 294.04C138.178 294.053 137.971 294.073 137.771 294.1C137.584 294.113 137.411 294.133 137.251 294.16C137.091 294.187 136.984 294.207 136.931 294.22V303H135.071V292.9ZM155.817 301.66C156.257 301.66 156.644 301.653 156.977 301.64C157.324 301.613 157.611 301.573 157.837 301.52V298.42C157.704 298.353 157.484 298.3 157.177 298.26C156.884 298.207 156.524 298.18 156.097 298.18C155.817 298.18 155.517 298.2 155.197 298.24C154.891 298.28 154.604 298.367 154.337 298.5C154.084 298.62 153.871 298.793 153.697 299.02C153.524 299.233 153.437 299.52 153.437 299.88C153.437 300.547 153.651 301.013 154.077 301.28C154.504 301.533 155.084 301.66 155.817 301.66ZM155.657 292.34C156.404 292.34 157.031 292.44 157.537 292.64C158.057 292.827 158.471 293.1 158.777 293.46C159.097 293.807 159.324 294.227 159.457 294.72C159.591 295.2 159.657 295.733 159.657 296.32V302.82C159.497 302.847 159.271 302.887 158.977 302.94C158.697 302.98 158.377 303.02 158.017 303.06C157.657 303.1 157.264 303.133 156.837 303.16C156.424 303.2 156.011 303.22 155.597 303.22C155.011 303.22 154.471 303.16 153.977 303.04C153.484 302.92 153.057 302.733 152.697 302.48C152.337 302.213 152.057 301.867 151.857 301.44C151.657 301.013 151.557 300.5 151.557 299.9C151.557 299.327 151.671 298.833 151.897 298.42C152.137 298.007 152.457 297.673 152.857 297.42C153.257 297.167 153.724 296.98 154.257 296.86C154.791 296.74 155.351 296.68 155.937 296.68C156.124 296.68 156.317 296.693 156.517 296.72C156.717 296.733 156.904 296.76 157.077 296.8C157.264 296.827 157.424 296.853 157.557 296.88C157.691 296.907 157.784 296.927 157.837 296.94V296.42C157.837 296.113 157.804 295.813 157.737 295.52C157.671 295.213 157.551 294.947 157.377 294.72C157.204 294.48 156.964 294.293 156.657 294.16C156.364 294.013 155.977 293.94 155.497 293.94C154.884 293.94 154.344 293.987 153.877 294.08C153.424 294.16 153.084 294.247 152.857 294.34L152.637 292.8C152.877 292.693 153.277 292.593 153.837 292.5C154.397 292.393 155.004 292.34 155.657 292.34ZM158.377 288.66L155.557 291.4L154.617 290.56L157.177 287.48L158.377 288.66ZM167.267 303.24C166.427 303.24 165.687 303.107 165.047 302.84C164.42 302.573 163.887 302.2 163.447 301.72C163.02 301.24 162.7 300.673 162.487 300.02C162.273 299.353 162.167 298.62 162.167 297.82C162.167 297.02 162.28 296.287 162.507 295.62C162.747 294.953 163.08 294.38 163.507 293.9C163.933 293.407 164.453 293.027 165.067 292.76C165.693 292.48 166.387 292.34 167.147 292.34C167.613 292.34 168.08 292.38 168.547 292.46C169.013 292.54 169.46 292.667 169.887 292.84L169.467 294.42C169.187 294.287 168.86 294.18 168.487 294.1C168.127 294.02 167.74 293.98 167.327 293.98C166.287 293.98 165.487 294.307 164.927 294.96C164.38 295.613 164.107 296.567 164.107 297.82C164.107 298.38 164.167 298.893 164.287 299.36C164.42 299.827 164.62 300.227 164.887 300.56C165.167 300.893 165.52 301.153 165.947 301.34C166.373 301.513 166.893 301.6 167.507 301.6C168 301.6 168.447 301.553 168.847 301.46C169.247 301.367 169.56 301.267 169.787 301.16L170.047 302.72C169.94 302.787 169.787 302.853 169.587 302.92C169.387 302.973 169.16 303.02 168.907 303.06C168.653 303.113 168.38 303.153 168.087 303.18C167.807 303.22 167.533 303.24 167.267 303.24ZM173.904 303H172.044V292.6H173.904V303ZM172.964 290.72C172.63 290.72 172.344 290.613 172.104 290.4C171.877 290.173 171.764 289.873 171.764 289.5C171.764 289.127 171.877 288.833 172.104 288.62C172.344 288.393 172.63 288.28 172.964 288.28C173.297 288.28 173.577 288.393 173.804 288.62C174.044 288.833 174.164 289.127 174.164 289.5C174.164 289.873 174.044 290.173 173.804 290.4C173.577 290.613 173.297 290.72 172.964 290.72ZM180.622 301.66C181.062 301.66 181.449 301.653 181.782 301.64C182.129 301.613 182.415 301.573 182.642 301.52V298.42C182.509 298.353 182.289 298.3 181.982 298.26C181.689 298.207 181.329 298.18 180.902 298.18C180.622 298.18 180.322 298.2 180.002 298.24C179.695 298.28 179.409 298.367 179.142 298.5C178.889 298.62 178.675 298.793 178.502 299.02C178.329 299.233 178.242 299.52 178.242 299.88C178.242 300.547 178.455 301.013 178.882 301.28C179.309 301.533 179.889 301.66 180.622 301.66ZM180.462 292.34C181.209 292.34 181.835 292.44 182.342 292.64C182.862 292.827 183.275 293.1 183.582 293.46C183.902 293.807 184.129 294.227 184.262 294.72C184.395 295.2 184.462 295.733 184.462 296.32V302.82C184.302 302.847 184.075 302.887 183.782 302.94C183.502 302.98 183.182 303.02 182.822 303.06C182.462 303.1 182.069 303.133 181.642 303.16C181.229 303.2 180.815 303.22 180.402 303.22C179.815 303.22 179.275 303.16 178.782 303.04C178.289 302.92 177.862 302.733 177.502 302.48C177.142 302.213 176.862 301.867 176.662 301.44C176.462 301.013 176.362 300.5 176.362 299.9C176.362 299.327 176.475 298.833 176.702 298.42C176.942 298.007 177.262 297.673 177.662 297.42C178.062 297.167 178.529 296.98 179.062 296.86C179.595 296.74 180.155 296.68 180.742 296.68C180.929 296.68 181.122 296.693 181.322 296.72C181.522 296.733 181.709 296.76 181.882 296.8C182.069 296.827 182.229 296.853 182.362 296.88C182.495 296.907 182.589 296.927 182.642 296.94V296.42C182.642 296.113 182.609 295.813 182.542 295.52C182.475 295.213 182.355 294.947 182.182 294.72C182.009 294.48 181.769 294.293 181.462 294.16C181.169 294.013 180.782 293.94 180.302 293.94C179.689 293.94 179.149 293.987 178.682 294.08C178.229 294.16 177.889 294.247 177.662 294.34L177.442 292.8C177.682 292.693 178.082 292.593 178.642 292.5C179.202 292.393 179.809 292.34 180.462 292.34ZM189.971 301.66C190.731 301.66 191.291 301.56 191.651 301.36C192.025 301.16 192.211 300.84 192.211 300.4C192.211 299.947 192.031 299.587 191.671 299.32C191.311 299.053 190.718 298.753 189.891 298.42C189.491 298.26 189.105 298.1 188.731 297.94C188.371 297.767 188.058 297.567 187.791 297.34C187.525 297.113 187.311 296.84 187.151 296.52C186.991 296.2 186.911 295.807 186.911 295.34C186.911 294.42 187.251 293.693 187.931 293.16C188.611 292.613 189.538 292.34 190.711 292.34C191.005 292.34 191.298 292.36 191.591 292.4C191.885 292.427 192.158 292.467 192.411 292.52C192.665 292.56 192.885 292.607 193.071 292.66C193.271 292.713 193.425 292.76 193.531 292.8L193.191 294.4C192.991 294.293 192.678 294.187 192.251 294.08C191.825 293.96 191.311 293.9 190.711 293.9C190.191 293.9 189.738 294.007 189.351 294.22C188.965 294.42 188.771 294.74 188.771 295.18C188.771 295.407 188.811 295.607 188.891 295.78C188.985 295.953 189.118 296.113 189.291 296.26C189.478 296.393 189.705 296.52 189.971 296.64C190.238 296.76 190.558 296.887 190.931 297.02C191.425 297.207 191.865 297.393 192.251 297.58C192.638 297.753 192.965 297.96 193.231 298.2C193.511 298.44 193.725 298.733 193.871 299.08C194.018 299.413 194.091 299.827 194.091 300.32C194.091 301.28 193.731 302.007 193.011 302.5C192.305 302.993 191.291 303.24 189.971 303.24C189.051 303.24 188.331 303.16 187.811 303C187.291 302.853 186.938 302.74 186.751 302.66L187.091 301.06C187.305 301.14 187.645 301.26 188.111 301.42C188.578 301.58 189.198 301.66 189.971 301.66ZM198.677 301.92C198.677 302.28 198.557 302.593 198.317 302.86C198.077 303.127 197.75 303.26 197.337 303.26C196.924 303.26 196.597 303.127 196.357 302.86C196.117 302.593 195.997 302.28 195.997 301.92C195.997 301.56 196.117 301.247 196.357 300.98C196.597 300.713 196.924 300.58 197.337 300.58C197.75 300.58 198.077 300.713 198.317 300.98C198.557 301.247 198.677 301.56 198.677 301.92Z" fill="white"/>
</svg>
