<svg width="194" height="261" viewBox="0 0 194 261" fill="none" xmlns="http://www.w3.org/2000/svg">
<circle cx="97.5564" cy="98.0877" r="88.5984" fill="#00ACE2"/>
<g clip-path="url(#clip0)">
<path d="M193.301 91.3664C193.301 95.3831 193.301 99.3997 193.301 103.433C193.185 104.045 193.037 104.656 192.954 105.268C192.492 108.623 192.228 112.012 191.585 115.334C187.214 137.715 176.36 156.41 158.924 171.055C138.156 188.494 114.056 195.932 87.0526 193.353C68.0167 191.535 50.9767 184.394 36.1802 172.262C17.6886 157.038 6.14173 137.649 1.86937 114.012C1.22604 110.508 0.879633 106.954 0.384766 103.416C0.384766 99.3997 0.384766 95.383 0.384766 91.3499C0.500235 90.6721 0.632199 90.011 0.731173 89.3333C1.19305 85.9778 1.47347 82.6057 2.1333 79.2833C6.53762 56.7867 17.6227 38.1579 35.108 23.3971C47.7106 12.7686 62.1607 5.82618 78.3924 2.7517C82.4998 1.97481 86.6732 1.51198 90.8136 0.900391C94.8385 0.900391 98.8469 0.900391 102.872 0.900391C106.154 1.33016 109.454 1.66075 112.72 2.22275C130.782 5.29724 146.734 12.8512 160.425 25.0004C177.283 39.9596 187.841 58.5388 191.816 80.7544C192.443 84.2752 192.822 87.8291 193.301 91.3664ZM182.001 97.4823C182.084 50.6377 144.028 12.438 97.0819 12.2231C50.2179 12.0247 11.8657 50.1914 11.6842 97.2013C11.5193 144.062 49.7231 182.427 96.7025 182.56C143.599 182.675 181.919 144.459 182.001 97.4823Z" fill="white"/>
<path d="M143.649 136.954C139.063 136.954 134.478 137.003 129.908 136.904C129.034 136.888 127.978 136.425 127.335 135.813C124.201 132.821 121.215 129.681 118.081 126.689C117.487 126.127 116.481 125.697 115.656 125.697C103.103 125.631 90.5498 125.631 77.9802 125.697C77.1719 125.697 76.1822 126.16 75.5718 126.739C72.4377 129.73 69.452 132.871 66.3178 135.863C65.724 136.441 64.7342 136.904 63.9095 136.921C54.6884 136.987 45.4509 136.987 36.2299 136.921C35.57 136.921 34.6463 136.474 34.3164 135.929C26.4975 123.069 22.1426 109.168 23.0994 94.0597C24.7489 67.8935 36.9392 47.8102 59.1917 34.0246C71.7449 26.2392 85.6507 22.6027 100.332 23.6936C130.849 25.9582 152.771 41.3141 164.912 69.3481C174.809 92.1919 172.005 114.573 159.402 135.846C159.056 136.425 158.066 136.921 157.373 136.937C152.804 137.02 148.218 136.97 143.649 136.954ZM111.054 114.341C114.056 114.341 117.042 114.408 120.044 114.308C121.364 114.259 122.254 114.705 123.145 115.631C126.114 118.705 129.133 121.714 132.201 124.672C132.713 125.168 133.57 125.582 134.28 125.582C139.806 125.664 145.332 125.598 150.858 125.664C151.897 125.681 152.408 125.317 152.854 124.408C158.759 112.242 160.805 99.5475 158.347 86.1586C151.946 51.1987 117.52 28.4376 83.0443 36.3552C44.4282 45.2316 22.786 87.7951 40.6507 124.028C41.2775 125.301 41.9703 125.697 43.3395 125.681C48.5521 125.598 53.7647 125.697 58.9773 125.598C59.868 125.582 60.9403 125.168 61.5671 124.573C64.7013 121.598 67.687 118.441 70.8211 115.465C71.4644 114.854 72.5202 114.408 73.3944 114.391C79.7947 114.308 86.195 114.292 92.6118 114.375" fill="white"/>
<path d="M91.2588 148.111C91.2588 144.392 91.2588 140.772 91.2588 137.053C94.9868 137.053 98.6488 137.053 102.41 137.053C102.41 140.739 102.41 144.359 102.41 148.111C98.7643 148.111 95.1023 148.111 91.2588 148.111Z" fill="white"/>
<path d="M125.158 69.1996C117.488 69.1996 110.114 69.1996 102.526 69.1996C102.526 72.9188 102.526 76.5883 102.526 80.3405C98.6995 80.3405 95.087 80.3405 91.26 80.3405C91.26 76.6875 91.26 73.0179 91.26 69.2492C83.6555 69.2492 76.282 69.2492 68.694 69.2492C68.694 72.8526 68.694 76.5222 68.694 80.3074C64.834 80.3074 61.172 80.3074 57.3945 80.3074C57.3945 72.8857 57.3945 65.5135 57.3945 57.9761C83.6225 57.9761 109.883 57.9761 136.293 57.9761C136.293 65.3317 136.293 72.77 136.293 80.324C132.647 80.324 128.985 80.324 125.175 80.324C125.158 76.6544 125.158 73.0345 125.158 69.1996Z" fill="white"/>
<path d="M81.8252 88.5088L71.3076 92.8252L82.0045 118.997L92.5221 114.681L81.8252 88.5088Z" fill="white"/>
</g>
<path d="M54.7704 238.965C56.8371 238.965 58.4238 239.332 59.5304 240.065C60.6371 240.785 61.1904 241.972 61.1904 243.625C61.1904 245.292 60.6304 246.499 59.5104 247.245C58.3904 247.979 56.7904 248.345 54.7104 248.345H53.7304V252.985H50.6104V239.325C51.2904 239.192 52.0104 239.099 52.7704 239.045C53.5304 238.992 54.1971 238.965 54.7704 238.965ZM54.9704 241.625C54.7438 241.625 54.5171 241.632 54.2904 241.645C54.0771 241.659 53.8904 241.672 53.7304 241.685V245.685H54.7104C55.7904 245.685 56.6038 245.539 57.1504 245.245C57.6971 244.952 57.9704 244.405 57.9704 243.605C57.9704 243.219 57.8971 242.899 57.7504 242.645C57.6171 242.392 57.4171 242.192 57.1504 242.045C56.8971 241.885 56.5838 241.779 56.2104 241.725C55.8371 241.659 55.4238 241.625 54.9704 241.625ZM66.9109 250.905C67.2042 250.905 67.4842 250.899 67.7509 250.885C68.0176 250.872 68.2309 250.852 68.3909 250.825V248.565C68.2709 248.539 68.0909 248.512 67.8509 248.485C67.6109 248.459 67.3909 248.445 67.1909 248.445C66.9109 248.445 66.6442 248.465 66.3909 248.505C66.1509 248.532 65.9376 248.592 65.7509 248.685C65.5642 248.779 65.4176 248.905 65.3109 249.065C65.2042 249.225 65.1509 249.425 65.1509 249.665C65.1509 250.132 65.3042 250.459 65.6109 250.645C65.9309 250.819 66.3642 250.905 66.9109 250.905ZM66.6709 242.185C67.5509 242.185 68.2842 242.285 68.8709 242.485C69.4576 242.685 69.9242 242.972 70.2709 243.345C70.6309 243.719 70.8842 244.172 71.0309 244.705C71.1776 245.239 71.2509 245.832 71.2509 246.485V252.685C70.8242 252.779 70.2309 252.885 69.4709 253.005C68.7109 253.139 67.7909 253.205 66.7109 253.205C66.0309 253.205 65.4109 253.145 64.8509 253.025C64.3042 252.905 63.8309 252.712 63.4309 252.445C63.0309 252.165 62.7242 251.805 62.5109 251.365C62.2976 250.925 62.1909 250.385 62.1909 249.745C62.1909 249.132 62.3109 248.612 62.5509 248.185C62.8042 247.759 63.1376 247.419 63.5509 247.165C63.9642 246.912 64.4376 246.732 64.9709 246.625C65.5042 246.505 66.0576 246.445 66.6309 246.445C67.0176 246.445 67.3576 246.465 67.6509 246.505C67.9576 246.532 68.2042 246.572 68.3909 246.625V246.345C68.3909 245.839 68.2376 245.432 67.9309 245.125C67.6242 244.819 67.0909 244.665 66.3309 244.665C65.8242 244.665 65.3242 244.705 64.8309 244.785C64.3376 244.852 63.9109 244.952 63.5509 245.085L63.1709 242.685C63.3442 242.632 63.5576 242.579 63.8109 242.525C64.0776 242.459 64.3642 242.405 64.6709 242.365C64.9776 242.312 65.2976 242.272 65.6309 242.245C65.9776 242.205 66.3242 242.185 66.6709 242.185ZM73.9456 242.825C74.4522 242.679 75.1056 242.545 75.9056 242.425C76.7056 242.292 77.5456 242.225 78.4256 242.225C79.3189 242.225 80.0589 242.345 80.6456 242.585C81.2456 242.812 81.7189 243.139 82.0656 243.565C82.4122 243.992 82.6589 244.499 82.8056 245.085C82.9522 245.672 83.0256 246.325 83.0256 247.045V252.985H80.0456V247.405C80.0456 246.445 79.9189 245.765 79.6656 245.365C79.4122 244.965 78.9389 244.765 78.2456 244.765C78.0322 244.765 77.8056 244.779 77.5656 244.805C77.3256 244.819 77.1122 244.839 76.9256 244.865V252.985H73.9456V242.825ZM85.2229 247.805C85.2229 246.872 85.3629 246.059 85.6429 245.365C85.9363 244.659 86.3163 244.072 86.7829 243.605C87.2496 243.139 87.7829 242.785 88.3829 242.545C88.9963 242.305 89.6229 242.185 90.2629 242.185C91.7563 242.185 92.9363 242.645 93.8029 243.565C94.6696 244.472 95.1029 245.812 95.1029 247.585C95.1029 247.759 95.0963 247.952 95.0829 248.165C95.0696 248.365 95.0563 248.545 95.0429 248.705H88.2829C88.3496 249.319 88.6363 249.805 89.1429 250.165C89.6496 250.525 90.3296 250.705 91.1829 250.705C91.7296 250.705 92.2629 250.659 92.7829 250.565C93.3163 250.459 93.7496 250.332 94.0829 250.185L94.4829 252.605C94.3229 252.685 94.1096 252.765 93.8429 252.845C93.5763 252.925 93.2763 252.992 92.9429 253.045C92.6229 253.112 92.2763 253.165 91.9029 253.205C91.5296 253.245 91.1563 253.265 90.7829 253.265C89.8363 253.265 89.0096 253.125 88.3029 252.845C87.6096 252.565 87.0296 252.185 86.5629 251.705C86.1096 251.212 85.7696 250.632 85.5429 249.965C85.3296 249.299 85.2229 248.579 85.2229 247.805ZM92.2229 246.665C92.2096 246.412 92.1629 246.165 92.0829 245.925C92.0163 245.685 91.9029 245.472 91.7429 245.285C91.5963 245.099 91.4029 244.945 91.1629 244.825C90.9363 244.705 90.6496 244.645 90.3029 244.645C89.9696 244.645 89.6829 244.705 89.4429 244.825C89.2029 244.932 89.0029 245.079 88.8429 245.265C88.6829 245.452 88.5563 245.672 88.4629 245.925C88.3829 246.165 88.3229 246.412 88.2829 246.665H92.2229ZM106.187 250.605C106.627 250.605 106.987 250.572 107.267 250.505C107.561 250.425 107.794 250.325 107.967 250.205C108.141 250.072 108.261 249.919 108.327 249.745C108.394 249.572 108.427 249.379 108.427 249.165C108.427 248.712 108.214 248.339 107.787 248.045C107.361 247.739 106.627 247.412 105.587 247.065C105.134 246.905 104.681 246.725 104.227 246.525C103.774 246.312 103.367 246.052 103.007 245.745C102.647 245.425 102.354 245.045 102.127 244.605C101.901 244.152 101.787 243.605 101.787 242.965C101.787 242.325 101.907 241.752 102.147 241.245C102.387 240.725 102.727 240.285 103.167 239.925C103.607 239.565 104.141 239.292 104.767 239.105C105.394 238.905 106.101 238.805 106.887 238.805C107.821 238.805 108.627 238.905 109.307 239.105C109.987 239.305 110.547 239.525 110.987 239.765L110.087 242.225C109.701 242.025 109.267 241.852 108.787 241.705C108.321 241.545 107.754 241.465 107.087 241.465C106.341 241.465 105.801 241.572 105.467 241.785C105.147 241.985 104.987 242.299 104.987 242.725C104.987 242.979 105.047 243.192 105.167 243.365C105.287 243.539 105.454 243.699 105.667 243.845C105.894 243.979 106.147 244.105 106.427 244.225C106.721 244.332 107.041 244.445 107.387 244.565C108.107 244.832 108.734 245.099 109.267 245.365C109.801 245.619 110.241 245.919 110.587 246.265C110.947 246.612 111.214 247.019 111.387 247.485C111.561 247.952 111.647 248.519 111.647 249.185C111.647 250.479 111.194 251.485 110.287 252.205C109.381 252.912 108.014 253.265 106.187 253.265C105.574 253.265 105.021 253.225 104.527 253.145C104.034 253.079 103.594 252.992 103.207 252.885C102.834 252.779 102.507 252.665 102.227 252.545C101.961 252.425 101.734 252.312 101.547 252.205L102.427 249.725C102.841 249.952 103.347 250.159 103.947 250.345C104.561 250.519 105.307 250.605 106.187 250.605ZM113.348 247.805C113.348 246.872 113.488 246.059 113.768 245.365C114.061 244.659 114.441 244.072 114.908 243.605C115.375 243.139 115.908 242.785 116.508 242.545C117.121 242.305 117.748 242.185 118.388 242.185C119.881 242.185 121.061 242.645 121.928 243.565C122.795 244.472 123.228 245.812 123.228 247.585C123.228 247.759 123.221 247.952 123.208 248.165C123.195 248.365 123.181 248.545 123.168 248.705H116.408C116.475 249.319 116.761 249.805 117.268 250.165C117.775 250.525 118.455 250.705 119.308 250.705C119.855 250.705 120.388 250.659 120.908 250.565C121.441 250.459 121.875 250.332 122.208 250.185L122.608 252.605C122.448 252.685 122.235 252.765 121.968 252.845C121.701 252.925 121.401 252.992 121.068 253.045C120.748 253.112 120.401 253.165 120.028 253.205C119.655 253.245 119.281 253.265 118.908 253.265C117.961 253.265 117.135 253.125 116.428 252.845C115.735 252.565 115.155 252.185 114.688 251.705C114.235 251.212 113.895 250.632 113.668 249.965C113.455 249.299 113.348 248.579 113.348 247.805ZM120.348 246.665C120.335 246.412 120.288 246.165 120.208 245.925C120.141 245.685 120.028 245.472 119.868 245.285C119.721 245.099 119.528 244.945 119.288 244.825C119.061 244.705 118.775 244.645 118.428 244.645C118.095 244.645 117.808 244.705 117.568 244.825C117.328 244.932 117.128 245.079 116.968 245.265C116.808 245.452 116.681 245.672 116.588 245.925C116.508 246.165 116.448 246.412 116.408 246.665H120.348ZM125.028 247.725C125.028 246.965 125.148 246.252 125.388 245.585C125.641 244.905 126.001 244.319 126.468 243.825C126.934 243.319 127.501 242.919 128.168 242.625C128.834 242.332 129.594 242.185 130.448 242.185C131.008 242.185 131.521 242.239 131.988 242.345C132.454 242.439 132.908 242.579 133.348 242.765L132.728 245.145C132.448 245.039 132.141 244.945 131.808 244.865C131.474 244.785 131.101 244.745 130.688 244.745C129.808 244.745 129.148 245.019 128.708 245.565C128.281 246.112 128.068 246.832 128.068 247.725C128.068 248.672 128.268 249.405 128.668 249.925C129.081 250.445 129.794 250.705 130.808 250.705C131.168 250.705 131.554 250.672 131.968 250.605C132.381 250.539 132.761 250.432 133.108 250.285L133.528 252.725C133.181 252.872 132.748 252.999 132.228 253.105C131.708 253.212 131.134 253.265 130.508 253.265C129.548 253.265 128.721 253.125 128.028 252.845C127.334 252.552 126.761 252.159 126.308 251.665C125.868 251.172 125.541 250.592 125.328 249.925C125.128 249.245 125.028 248.512 125.028 247.725ZM139.04 250.905C139.333 250.905 139.613 250.899 139.88 250.885C140.146 250.872 140.36 250.852 140.52 250.825V248.565C140.4 248.539 140.22 248.512 139.98 248.485C139.74 248.459 139.52 248.445 139.32 248.445C139.04 248.445 138.773 248.465 138.52 248.505C138.28 248.532 138.066 248.592 137.88 248.685C137.693 248.779 137.546 248.905 137.44 249.065C137.333 249.225 137.28 249.425 137.28 249.665C137.28 250.132 137.433 250.459 137.74 250.645C138.06 250.819 138.493 250.905 139.04 250.905ZM138.8 242.185C139.68 242.185 140.413 242.285 141 242.485C141.586 242.685 142.053 242.972 142.4 243.345C142.76 243.719 143.013 244.172 143.16 244.705C143.306 245.239 143.38 245.832 143.38 246.485V252.685C142.953 252.779 142.36 252.885 141.6 253.005C140.84 253.139 139.92 253.205 138.84 253.205C138.16 253.205 137.54 253.145 136.98 253.025C136.433 252.905 135.96 252.712 135.56 252.445C135.16 252.165 134.853 251.805 134.64 251.365C134.426 250.925 134.32 250.385 134.32 249.745C134.32 249.132 134.44 248.612 134.68 248.185C134.933 247.759 135.266 247.419 135.68 247.165C136.093 246.912 136.566 246.732 137.1 246.625C137.633 246.505 138.186 246.445 138.76 246.445C139.146 246.445 139.486 246.465 139.78 246.505C140.086 246.532 140.333 246.572 140.52 246.625V246.345C140.52 245.839 140.366 245.432 140.06 245.125C139.753 244.819 139.22 244.665 138.46 244.665C137.953 244.665 137.453 244.705 136.96 244.785C136.466 244.852 136.04 244.952 135.68 245.085L135.3 242.685C135.473 242.632 135.686 242.579 135.94 242.525C136.206 242.459 136.493 242.405 136.8 242.365C137.106 242.312 137.426 242.272 137.76 242.245C138.106 242.205 138.453 242.185 138.8 242.185Z" fill="white"/>
<defs>
<clipPath id="clip0">
<rect width="192.916" height="192.916" fill="white" transform="translate(0.384766 0.915527)"/>
</clipPath>
</defs>
</svg>
