<svg width="201" height="303" viewBox="0 0 201 303" fill="none" xmlns="http://www.w3.org/2000/svg">
<circle cx="101.377" cy="100.979" r="92.0688" fill="#00ACE2"/>
<g clip-path="url(#clip0)">
<path d="M189.003 36.6562C183.664 20.0213 172.28 7.81283 157.772 3.16046C131.025 -5.41678 109.031 5.61155 100.634 10.8912C92.236 5.61116 70.2412 -5.41678 43.4953 3.16046C28.983 7.814 17.5988 20.0272 12.2608 36.6683C5.24152 58.5511 9.77447 83.3404 24.3878 102.979C30.7411 111.518 35.0367 120.932 37.155 130.959C38.0959 135.414 38.9138 140.315 39.5857 145.528C41.6034 161.18 44.5748 173.744 48.4183 182.868C53.0221 193.798 58.9615 199.701 66.0712 200.412C66.4761 200.452 66.8758 200.472 67.2732 200.472C74.271 200.471 80.1195 194.191 84.6693 181.778C88.0331 172.601 90.6847 160.305 92.1361 147.152C92.9474 139.798 94.8452 133.844 97.6237 129.932C98.6186 128.532 100.061 128.381 100.634 128.381C101.208 128.381 102.65 128.532 103.645 129.933C106.423 133.844 108.321 139.798 109.132 147.153C110.584 160.305 113.235 172.602 116.599 181.778C121.149 194.192 126.997 200.473 133.995 200.472C134.392 200.472 134.793 200.452 135.197 200.412C142.307 199.701 148.246 193.798 152.85 182.868C156.693 173.744 159.665 161.181 161.683 145.528C162.355 140.315 163.173 135.414 164.113 130.962C166.23 120.942 170.532 111.519 176.9 102.954C191.5 83.3157 196.025 58.5312 189.003 36.6562ZM167.497 95.9635C160.113 105.895 155.118 116.855 152.649 128.54C151.644 133.296 150.774 138.508 150.062 144.03C145.955 175.892 138.302 188.191 134.105 188.744C133.224 188.432 130.209 185.534 126.967 175.945C124.22 167.82 122.023 157.138 120.779 145.867C119.735 136.403 117.184 128.758 113.197 123.147C110.313 119.087 105.617 116.663 100.634 116.663C95.651 116.663 90.9544 119.087 88.0703 123.147C84.0836 128.759 81.533 136.403 80.4884 145.868C79.2444 157.139 77.0471 167.82 74.3003 175.946C71.0591 185.534 68.0438 188.433 67.1624 188.745C62.9658 188.191 55.3126 175.892 51.2057 144.031C50.4939 138.51 49.6234 133.297 48.618 128.538C46.1477 116.844 41.1578 105.892 33.7873 95.9854C21.4273 79.374 17.5514 58.5374 23.4179 40.2479C27.586 27.2536 36.2079 17.8028 47.0729 14.3188C58.5429 10.6402 70.3704 10.8759 82.2264 15.0185C91.2822 18.183 96.9647 22.5601 97.007 22.593L100.625 25.4219L104.246 22.6039C104.303 22.5601 109.985 18.183 119.041 15.0185C130.897 10.8755 142.724 10.6402 154.194 14.3188H154.195C165.056 17.8016 173.678 27.2489 177.847 40.2377C183.715 58.5202 179.846 79.3525 167.497 95.9635Z" fill="white"/>
</g>
<path d="M54.9621 266.566C54.8154 266.086 54.6488 265.593 54.4621 265.086C54.2888 264.58 54.1154 264.073 53.9421 263.566H48.5421C48.3688 264.073 48.1888 264.58 48.0021 265.086C47.8288 265.593 47.6688 266.086 47.5221 266.566H44.2821C44.8021 265.073 45.2954 263.693 45.7621 262.426C46.2288 261.16 46.6821 259.966 47.1221 258.846C47.5754 257.726 48.0154 256.666 48.4421 255.666C48.8821 254.653 49.3354 253.666 49.8021 252.706H52.7821C53.2354 253.666 53.6821 254.653 54.1221 255.666C54.5621 256.666 55.0021 257.726 55.4421 258.846C55.8954 259.966 56.3554 261.16 56.8221 262.426C57.2888 263.693 57.7821 265.073 58.3021 266.566H54.9621ZM51.2221 255.846C51.1554 256.046 51.0554 256.32 50.9221 256.666C50.7888 257.013 50.6354 257.413 50.4621 257.866C50.2888 258.32 50.0954 258.82 49.8821 259.366C49.6821 259.913 49.4754 260.486 49.2621 261.086H53.2021C52.9888 260.486 52.7821 259.913 52.5821 259.366C52.3821 258.82 52.1888 258.32 52.0021 257.866C51.8288 257.413 51.6754 257.013 51.5421 256.666C51.4088 256.32 51.3021 256.046 51.2221 255.846ZM63.1115 264.426C63.6582 264.426 64.0448 264.373 64.2715 264.266C64.4982 264.16 64.6115 263.953 64.6115 263.646C64.6115 263.406 64.4648 263.2 64.1715 263.026C63.8782 262.84 63.4315 262.633 62.8315 262.406C62.3648 262.233 61.9382 262.053 61.5515 261.866C61.1782 261.68 60.8582 261.46 60.5915 261.206C60.3248 260.94 60.1182 260.626 59.9715 260.266C59.8248 259.906 59.7515 259.473 59.7515 258.966C59.7515 257.98 60.1182 257.2 60.8515 256.626C61.5848 256.053 62.5915 255.766 63.8715 255.766C64.5115 255.766 65.1248 255.826 65.7115 255.946C66.2982 256.053 66.7648 256.173 67.1115 256.306L66.5915 258.626C66.2448 258.506 65.8648 258.4 65.4515 258.306C65.0515 258.213 64.5982 258.166 64.0915 258.166C63.1582 258.166 62.6915 258.426 62.6915 258.946C62.6915 259.066 62.7115 259.173 62.7515 259.266C62.7915 259.36 62.8715 259.453 62.9915 259.546C63.1115 259.626 63.2715 259.72 63.4715 259.826C63.6848 259.92 63.9515 260.026 64.2715 260.146C64.9248 260.386 65.4648 260.626 65.8915 260.866C66.3182 261.093 66.6515 261.346 66.8915 261.626C67.1448 261.893 67.3182 262.193 67.4115 262.526C67.5182 262.86 67.5715 263.246 67.5715 263.686C67.5715 264.726 67.1782 265.513 66.3915 266.046C65.6182 266.58 64.5182 266.846 63.0915 266.846C62.1582 266.846 61.3782 266.766 60.7515 266.606C60.1382 266.446 59.7115 266.313 59.4715 266.206L59.9715 263.786C60.4782 263.986 60.9982 264.146 61.5315 264.266C62.0648 264.373 62.5915 264.426 63.1115 264.426ZM72.8185 264.426C73.3652 264.426 73.7519 264.373 73.9785 264.266C74.2052 264.16 74.3185 263.953 74.3185 263.646C74.3185 263.406 74.1719 263.2 73.8785 263.026C73.5852 262.84 73.1385 262.633 72.5385 262.406C72.0719 262.233 71.6452 262.053 71.2585 261.866C70.8852 261.68 70.5652 261.46 70.2985 261.206C70.0319 260.94 69.8252 260.626 69.6785 260.266C69.5319 259.906 69.4585 259.473 69.4585 258.966C69.4585 257.98 69.8252 257.2 70.5585 256.626C71.2919 256.053 72.2985 255.766 73.5785 255.766C74.2185 255.766 74.8319 255.826 75.4185 255.946C76.0052 256.053 76.4719 256.173 76.8185 256.306L76.2985 258.626C75.9519 258.506 75.5719 258.4 75.1585 258.306C74.7585 258.213 74.3052 258.166 73.7985 258.166C72.8652 258.166 72.3985 258.426 72.3985 258.946C72.3985 259.066 72.4185 259.173 72.4585 259.266C72.4985 259.36 72.5785 259.453 72.6985 259.546C72.8185 259.626 72.9785 259.72 73.1785 259.826C73.3919 259.92 73.6585 260.026 73.9785 260.146C74.6319 260.386 75.1719 260.626 75.5985 260.866C76.0252 261.093 76.3585 261.346 76.5985 261.626C76.8519 261.893 77.0252 262.193 77.1185 262.526C77.2252 262.86 77.2785 263.246 77.2785 263.686C77.2785 264.726 76.8852 265.513 76.0985 266.046C75.3252 266.58 74.2252 266.846 72.7985 266.846C71.8652 266.846 71.0852 266.766 70.4585 266.606C69.8452 266.446 69.4185 266.313 69.1785 266.206L69.6785 263.786C70.1852 263.986 70.7052 264.146 71.2385 264.266C71.7719 264.373 72.2985 264.426 72.8185 264.426ZM82.4856 266.566H79.5056V256.046H82.4856V266.566ZM82.7656 253.006C82.7656 253.553 82.5856 253.986 82.2256 254.306C81.8789 254.613 81.4656 254.766 80.9856 254.766C80.5056 254.766 80.0856 254.613 79.7256 254.306C79.3789 253.986 79.2056 253.553 79.2056 253.006C79.2056 252.46 79.3789 252.033 79.7256 251.726C80.0856 251.406 80.5056 251.246 80.9856 251.246C81.4656 251.246 81.8789 251.406 82.2256 251.726C82.5856 252.033 82.7656 252.46 82.7656 253.006ZM88.3068 264.426C88.8535 264.426 89.2401 264.373 89.4668 264.266C89.6935 264.16 89.8068 263.953 89.8068 263.646C89.8068 263.406 89.6601 263.2 89.3668 263.026C89.0735 262.84 88.6268 262.633 88.0268 262.406C87.5601 262.233 87.1335 262.053 86.7468 261.866C86.3735 261.68 86.0535 261.46 85.7868 261.206C85.5201 260.94 85.3135 260.626 85.1668 260.266C85.0201 259.906 84.9468 259.473 84.9468 258.966C84.9468 257.98 85.3135 257.2 86.0468 256.626C86.7801 256.053 87.7868 255.766 89.0668 255.766C89.7068 255.766 90.3201 255.826 90.9068 255.946C91.4935 256.053 91.9601 256.173 92.3068 256.306L91.7868 258.626C91.4401 258.506 91.0601 258.4 90.6468 258.306C90.2468 258.213 89.7935 258.166 89.2868 258.166C88.3535 258.166 87.8868 258.426 87.8868 258.946C87.8868 259.066 87.9068 259.173 87.9468 259.266C87.9868 259.36 88.0668 259.453 88.1868 259.546C88.3068 259.626 88.4668 259.72 88.6668 259.826C88.8801 259.92 89.1468 260.026 89.4668 260.146C90.1201 260.386 90.6601 260.626 91.0868 260.866C91.5135 261.093 91.8468 261.346 92.0868 261.626C92.3401 261.893 92.5135 262.193 92.6068 262.526C92.7135 262.86 92.7668 263.246 92.7668 263.686C92.7668 264.726 92.3735 265.513 91.5868 266.046C90.8135 266.58 89.7135 266.846 88.2868 266.846C87.3535 266.846 86.5735 266.766 85.9468 266.606C85.3335 266.446 84.9068 266.313 84.6668 266.206L85.1668 263.786C85.6735 263.986 86.1935 264.146 86.7268 264.266C87.2601 264.373 87.7868 264.426 88.3068 264.426ZM94.8938 253.426L97.8738 252.946V256.046H101.454V258.526H97.8738V262.226C97.8738 262.853 97.9805 263.353 98.1938 263.726C98.4205 264.1 98.8672 264.286 99.5338 264.286C99.8538 264.286 100.181 264.26 100.514 264.206C100.861 264.14 101.174 264.053 101.454 263.946L101.874 266.266C101.514 266.413 101.114 266.54 100.674 266.646C100.234 266.753 99.6938 266.806 99.0538 266.806C98.2405 266.806 97.5672 266.7 97.0338 266.486C96.5005 266.26 96.0738 265.953 95.7538 265.566C95.4338 265.166 95.2072 264.686 95.0738 264.126C94.9538 263.566 94.8938 262.946 94.8938 262.266V253.426ZM102.99 261.386C102.99 260.453 103.13 259.64 103.41 258.946C103.703 258.24 104.083 257.653 104.55 257.186C105.017 256.72 105.55 256.366 106.15 256.126C106.763 255.886 107.39 255.766 108.03 255.766C109.523 255.766 110.703 256.226 111.57 257.146C112.437 258.053 112.87 259.393 112.87 261.166C112.87 261.34 112.863 261.533 112.85 261.746C112.837 261.946 112.823 262.126 112.81 262.286H106.05C106.117 262.9 106.403 263.386 106.91 263.746C107.417 264.106 108.097 264.286 108.95 264.286C109.497 264.286 110.03 264.24 110.55 264.146C111.083 264.04 111.517 263.913 111.85 263.766L112.25 266.186C112.09 266.266 111.877 266.346 111.61 266.426C111.343 266.506 111.043 266.573 110.71 266.626C110.39 266.693 110.043 266.746 109.67 266.786C109.297 266.826 108.923 266.846 108.55 266.846C107.603 266.846 106.777 266.706 106.07 266.426C105.377 266.146 104.797 265.766 104.33 265.286C103.877 264.793 103.537 264.213 103.31 263.546C103.097 262.88 102.99 262.16 102.99 261.386ZM109.99 260.246C109.977 259.993 109.93 259.746 109.85 259.506C109.783 259.266 109.67 259.053 109.51 258.866C109.363 258.68 109.17 258.526 108.93 258.406C108.703 258.286 108.417 258.226 108.07 258.226C107.737 258.226 107.45 258.286 107.21 258.406C106.97 258.513 106.77 258.66 106.61 258.846C106.45 259.033 106.323 259.253 106.23 259.506C106.15 259.746 106.09 259.993 106.05 260.246H109.99ZM111.03 253.666L109.93 254.986L107.93 253.446L105.93 254.986L104.79 253.666L107.93 250.926L111.03 253.666ZM115.17 256.406C115.676 256.26 116.33 256.126 117.13 256.006C117.93 255.873 118.77 255.806 119.65 255.806C120.543 255.806 121.283 255.926 121.87 256.166C122.47 256.393 122.943 256.72 123.29 257.146C123.636 257.573 123.883 258.08 124.03 258.666C124.176 259.253 124.25 259.906 124.25 260.626V266.566H121.27V260.986C121.27 260.026 121.143 259.346 120.89 258.946C120.636 258.546 120.163 258.346 119.47 258.346C119.256 258.346 119.03 258.36 118.79 258.386C118.55 258.4 118.336 258.42 118.15 258.446V266.566H115.17V256.406ZM126.447 261.306C126.447 260.546 126.567 259.833 126.807 259.166C127.06 258.486 127.42 257.9 127.887 257.406C128.354 256.9 128.92 256.5 129.587 256.206C130.254 255.913 131.014 255.766 131.867 255.766C132.427 255.766 132.94 255.82 133.407 255.926C133.874 256.02 134.327 256.16 134.767 256.346L134.147 258.726C133.867 258.62 133.56 258.526 133.227 258.446C132.894 258.366 132.52 258.326 132.107 258.326C131.227 258.326 130.567 258.6 130.127 259.146C129.7 259.693 129.487 260.413 129.487 261.306C129.487 262.253 129.687 262.986 130.087 263.506C130.5 264.026 131.214 264.286 132.227 264.286C132.587 264.286 132.974 264.253 133.387 264.186C133.8 264.12 134.18 264.013 134.527 263.866L134.947 266.306C134.6 266.453 134.167 266.58 133.647 266.686C133.127 266.793 132.554 266.846 131.927 266.846C130.967 266.846 130.14 266.706 129.447 266.426C128.754 266.133 128.18 265.74 127.727 265.246C127.287 264.753 126.96 264.173 126.747 263.506C126.547 262.826 126.447 262.093 126.447 261.306ZM139.927 266.566H136.947V256.046H139.927V266.566ZM140.207 253.006C140.207 253.553 140.027 253.986 139.667 254.306C139.32 254.613 138.907 254.766 138.427 254.766C137.947 254.766 137.527 254.613 137.167 254.306C136.82 253.986 136.647 253.553 136.647 253.006C136.647 252.46 136.82 252.033 137.167 251.726C137.527 251.406 137.947 251.246 138.427 251.246C138.907 251.246 139.32 251.406 139.667 251.726C140.027 252.033 140.207 252.46 140.207 253.006ZM146.748 264.486C147.042 264.486 147.322 264.48 147.588 264.466C147.855 264.453 148.068 264.433 148.228 264.406V262.146C148.108 262.12 147.928 262.093 147.688 262.066C147.448 262.04 147.228 262.026 147.028 262.026C146.748 262.026 146.482 262.046 146.228 262.086C145.988 262.113 145.775 262.173 145.588 262.266C145.402 262.36 145.255 262.486 145.148 262.646C145.042 262.806 144.988 263.006 144.988 263.246C144.988 263.713 145.142 264.04 145.448 264.226C145.768 264.4 146.202 264.486 146.748 264.486ZM146.508 255.766C147.388 255.766 148.122 255.866 148.708 256.066C149.295 256.266 149.762 256.553 150.108 256.926C150.468 257.3 150.722 257.753 150.868 258.286C151.015 258.82 151.088 259.413 151.088 260.066V266.266C150.662 266.36 150.068 266.466 149.308 266.586C148.548 266.72 147.628 266.786 146.548 266.786C145.868 266.786 145.248 266.726 144.688 266.606C144.142 266.486 143.668 266.293 143.268 266.026C142.868 265.746 142.562 265.386 142.348 264.946C142.135 264.506 142.028 263.966 142.028 263.326C142.028 262.713 142.148 262.193 142.388 261.766C142.642 261.34 142.975 261 143.388 260.746C143.802 260.493 144.275 260.313 144.808 260.206C145.342 260.086 145.895 260.026 146.468 260.026C146.855 260.026 147.195 260.046 147.488 260.086C147.795 260.113 148.042 260.153 148.228 260.206V259.926C148.228 259.42 148.075 259.013 147.768 258.706C147.462 258.4 146.928 258.246 146.168 258.246C145.662 258.246 145.162 258.286 144.668 258.366C144.175 258.433 143.748 258.533 143.388 258.666L143.008 256.266C143.182 256.213 143.395 256.16 143.648 256.106C143.915 256.04 144.202 255.986 144.508 255.946C144.815 255.893 145.135 255.853 145.468 255.826C145.815 255.786 146.162 255.766 146.508 255.766ZM51.3856 287.366C51.3856 288.193 51.2656 288.94 51.0256 289.606C50.7856 290.273 50.4456 290.846 50.0056 291.326C49.5789 291.806 49.0656 292.18 48.4656 292.446C47.8656 292.7 47.2122 292.826 46.5056 292.826C45.7989 292.826 45.1456 292.7 44.5456 292.446C43.9456 292.18 43.4256 291.806 42.9856 291.326C42.5589 290.846 42.2256 290.273 41.9856 289.606C41.7456 288.94 41.6256 288.193 41.6256 287.366C41.6256 286.553 41.7456 285.813 41.9856 285.146C42.2256 284.466 42.5589 283.886 42.9856 283.406C43.4256 282.926 43.9456 282.56 44.5456 282.306C45.1456 282.04 45.7989 281.906 46.5056 281.906C47.2122 281.906 47.8656 282.04 48.4656 282.306C49.0656 282.56 49.5789 282.926 50.0056 283.406C50.4456 283.886 50.7856 284.466 51.0256 285.146C51.2656 285.813 51.3856 286.553 51.3856 287.366ZM49.4456 287.366C49.4456 286.193 49.1789 285.266 48.6456 284.586C48.1256 283.893 47.4122 283.546 46.5056 283.546C45.5989 283.546 44.8789 283.893 44.3456 284.586C43.8256 285.266 43.5656 286.193 43.5656 287.366C43.5656 288.54 43.8256 289.473 44.3456 290.166C44.8789 290.846 45.5989 291.186 46.5056 291.186C47.4122 291.186 48.1256 290.846 48.6456 290.166C49.1789 289.473 49.4456 288.54 49.4456 287.366ZM60.7224 284.366C60.4958 284.18 60.1691 284 59.7424 283.826C59.3158 283.653 58.8491 283.566 58.3424 283.566C57.8091 283.566 57.3491 283.666 56.9624 283.866C56.5891 284.053 56.2824 284.32 56.0424 284.666C55.8024 285 55.6291 285.4 55.5224 285.866C55.4158 286.333 55.3624 286.833 55.3624 287.366C55.3624 288.58 55.6624 289.52 56.2624 290.186C56.8624 290.84 57.6624 291.166 58.6624 291.166C59.1691 291.166 59.5891 291.146 59.9224 291.106C60.2691 291.053 60.5358 291 60.7224 290.946V284.366ZM60.7224 277.366L62.5824 277.046V292.266C62.1558 292.386 61.6091 292.506 60.9424 292.626C60.2758 292.746 59.5091 292.806 58.6424 292.806C57.8424 292.806 57.1224 292.68 56.4824 292.426C55.8424 292.173 55.2958 291.813 54.8424 291.346C54.3891 290.88 54.0358 290.313 53.7824 289.646C53.5424 288.966 53.4224 288.206 53.4224 287.366C53.4224 286.566 53.5224 285.833 53.7224 285.166C53.9358 284.5 54.2424 283.926 54.6424 283.446C55.0424 282.966 55.5291 282.593 56.1024 282.326C56.6891 282.06 57.3558 281.926 58.1024 281.926C58.7024 281.926 59.2291 282.006 59.6824 282.166C60.1491 282.326 60.4958 282.48 60.7224 282.626V277.366ZM74.9598 287.366C74.9598 288.193 74.8398 288.94 74.5998 289.606C74.3598 290.273 74.0198 290.846 73.5798 291.326C73.1531 291.806 72.6398 292.18 72.0398 292.446C71.4398 292.7 70.7864 292.826 70.0798 292.826C69.3731 292.826 68.7198 292.7 68.1198 292.446C67.5198 292.18 66.9998 291.806 66.5598 291.326C66.1331 290.846 65.7998 290.273 65.5598 289.606C65.3198 288.94 65.1998 288.193 65.1998 287.366C65.1998 286.553 65.3198 285.813 65.5598 285.146C65.7998 284.466 66.1331 283.886 66.5598 283.406C66.9998 282.926 67.5198 282.56 68.1198 282.306C68.7198 282.04 69.3731 281.906 70.0798 281.906C70.7864 281.906 71.4398 282.04 72.0398 282.306C72.6398 282.56 73.1531 282.926 73.5798 283.406C74.0198 283.886 74.3598 284.466 74.5998 285.146C74.8398 285.813 74.9598 286.553 74.9598 287.366ZM73.0198 287.366C73.0198 286.193 72.7531 285.266 72.2198 284.586C71.6998 283.893 70.9864 283.546 70.0798 283.546C69.1731 283.546 68.4531 283.893 67.9198 284.586C67.3998 285.266 67.1398 286.193 67.1398 287.366C67.1398 288.54 67.3998 289.473 67.9198 290.166C68.4531 290.846 69.1731 291.186 70.0798 291.186C70.9864 291.186 71.6998 290.846 72.2198 290.166C72.7531 289.473 73.0198 288.54 73.0198 287.366ZM77.5766 282.466C78.0033 282.36 78.57 282.246 79.2766 282.126C79.9833 282.006 80.7966 281.946 81.7166 281.946C82.5433 281.946 83.23 282.066 83.7766 282.306C84.3233 282.533 84.7566 282.86 85.0766 283.286C85.41 283.7 85.6433 284.2 85.7766 284.786C85.91 285.373 85.9766 286.02 85.9766 286.726V292.566H84.1166V287.126C84.1166 286.486 84.07 285.94 83.9766 285.486C83.8966 285.033 83.7566 284.666 83.5566 284.386C83.3566 284.106 83.09 283.906 82.7566 283.786C82.4233 283.653 82.01 283.586 81.5166 283.586C81.3166 283.586 81.11 283.593 80.8966 283.606C80.6833 283.62 80.4766 283.64 80.2766 283.666C80.09 283.68 79.9166 283.7 79.7566 283.726C79.61 283.753 79.5033 283.773 79.4366 283.786V292.566H77.5766V282.466ZM90.801 282.166H94.741V283.726H90.801V288.526C90.801 289.046 90.841 289.48 90.921 289.826C91.001 290.16 91.121 290.426 91.281 290.626C91.441 290.813 91.641 290.946 91.881 291.026C92.121 291.106 92.401 291.146 92.721 291.146C93.281 291.146 93.7277 291.086 94.061 290.966C94.4077 290.833 94.6477 290.74 94.781 290.686L95.141 292.226C94.9544 292.32 94.6277 292.433 94.161 292.566C93.6944 292.713 93.161 292.786 92.561 292.786C91.8544 292.786 91.2677 292.7 90.801 292.526C90.3477 292.34 89.981 292.066 89.701 291.706C89.421 291.346 89.221 290.906 89.101 290.386C88.9944 289.853 88.941 289.24 88.941 288.546V279.266L90.801 278.946V282.166ZM106.014 287.366C106.014 288.193 105.894 288.94 105.654 289.606C105.414 290.273 105.074 290.846 104.634 291.326C104.208 291.806 103.694 292.18 103.094 292.446C102.494 292.7 101.841 292.826 101.134 292.826C100.428 292.826 99.7745 292.7 99.1745 292.446C98.5745 292.18 98.0545 291.806 97.6145 291.326C97.1878 290.846 96.8545 290.273 96.6145 289.606C96.3745 288.94 96.2545 288.193 96.2545 287.366C96.2545 286.553 96.3745 285.813 96.6145 285.146C96.8545 284.466 97.1878 283.886 97.6145 283.406C98.0545 282.926 98.5745 282.56 99.1745 282.306C99.7745 282.04 100.428 281.906 101.134 281.906C101.841 281.906 102.494 282.04 103.094 282.306C103.694 282.56 104.208 282.926 104.634 283.406C105.074 283.886 105.414 284.466 105.654 285.146C105.894 285.813 106.014 286.553 106.014 287.366ZM104.074 287.366C104.074 286.193 103.808 285.266 103.274 284.586C102.754 283.893 102.041 283.546 101.134 283.546C100.228 283.546 99.5078 283.893 98.9745 284.586C98.4545 285.266 98.1945 286.193 98.1945 287.366C98.1945 288.54 98.4545 289.473 98.9745 290.166C99.5078 290.846 100.228 291.186 101.134 291.186C102.041 291.186 102.754 290.846 103.274 290.166C103.808 289.473 104.074 288.54 104.074 287.366ZM111.751 292.766C110.605 292.74 109.791 292.493 109.311 292.026C108.831 291.56 108.591 290.833 108.591 289.846V277.366L110.451 277.046V289.546C110.451 289.853 110.478 290.106 110.531 290.306C110.585 290.506 110.671 290.666 110.791 290.786C110.911 290.906 111.071 291 111.271 291.066C111.471 291.12 111.718 291.166 112.011 291.206L111.751 292.766ZM123.28 287.366C123.28 288.193 123.16 288.94 122.92 289.606C122.68 290.273 122.34 290.846 121.9 291.326C121.473 291.806 120.96 292.18 120.36 292.446C119.76 292.7 119.107 292.826 118.4 292.826C117.693 292.826 117.04 292.7 116.44 292.446C115.84 292.18 115.32 291.806 114.88 291.326C114.453 290.846 114.12 290.273 113.88 289.606C113.64 288.94 113.52 288.193 113.52 287.366C113.52 286.553 113.64 285.813 113.88 285.146C114.12 284.466 114.453 283.886 114.88 283.406C115.32 282.926 115.84 282.56 116.44 282.306C117.04 282.04 117.693 281.906 118.4 281.906C119.107 281.906 119.76 282.04 120.36 282.306C120.96 282.56 121.473 282.926 121.9 283.406C122.34 283.886 122.68 284.466 122.92 285.146C123.16 285.813 123.28 286.553 123.28 287.366ZM121.34 287.366C121.34 286.193 121.073 285.266 120.54 284.586C120.02 283.893 119.307 283.546 118.4 283.546C117.493 283.546 116.773 283.893 116.24 284.586C115.72 285.266 115.46 286.193 115.46 287.366C115.46 288.54 115.72 289.473 116.24 290.166C116.773 290.846 117.493 291.186 118.4 291.186C119.307 291.186 120.02 290.846 120.54 290.166C121.073 289.473 121.34 288.54 121.34 287.366ZM120.82 278.226L118 280.966L117.06 280.126L119.62 277.046L120.82 278.226ZM132.417 291.526C132.257 291.633 131.944 291.773 131.477 291.946C131.024 292.106 130.49 292.186 129.877 292.186C129.25 292.186 128.657 292.086 128.097 291.886C127.55 291.686 127.07 291.38 126.657 290.966C126.244 290.54 125.917 290.013 125.677 289.386C125.437 288.76 125.317 288.013 125.317 287.146C125.317 286.386 125.43 285.693 125.657 285.066C125.884 284.426 126.21 283.88 126.637 283.426C127.077 282.96 127.61 282.6 128.237 282.346C128.864 282.08 129.57 281.946 130.357 281.946C131.224 281.946 131.977 282.013 132.617 282.146C133.27 282.266 133.817 282.38 134.257 282.486V291.766C134.257 293.366 133.844 294.526 133.017 295.246C132.19 295.966 130.937 296.326 129.257 296.326C128.604 296.326 127.984 296.273 127.397 296.166C126.824 296.06 126.324 295.933 125.897 295.786L126.237 294.166C126.61 294.313 127.064 294.44 127.597 294.546C128.144 294.666 128.71 294.726 129.297 294.726C130.404 294.726 131.197 294.506 131.677 294.066C132.17 293.626 132.417 292.926 132.417 291.966V291.526ZM132.397 283.806C132.21 283.753 131.957 283.706 131.637 283.666C131.33 283.613 130.91 283.586 130.377 283.586C129.377 283.586 128.604 283.913 128.057 284.566C127.524 285.22 127.257 286.086 127.257 287.166C127.257 287.766 127.33 288.28 127.477 288.706C127.637 289.133 127.844 289.486 128.097 289.766C128.364 290.046 128.664 290.253 128.997 290.386C129.344 290.52 129.697 290.586 130.057 290.586C130.55 290.586 131.004 290.52 131.417 290.386C131.83 290.24 132.157 290.073 132.397 289.886V283.806ZM139.319 292.566H137.459V282.166H139.319V292.566ZM138.379 280.286C138.046 280.286 137.759 280.18 137.519 279.966C137.293 279.74 137.179 279.44 137.179 279.066C137.179 278.693 137.293 278.4 137.519 278.186C137.759 277.96 138.046 277.846 138.379 277.846C138.713 277.846 138.993 277.96 139.219 278.186C139.459 278.4 139.579 278.693 139.579 279.066C139.579 279.44 139.459 279.74 139.219 279.966C138.993 280.18 138.713 280.286 138.379 280.286ZM147.038 292.806C146.198 292.806 145.458 292.673 144.818 292.406C144.191 292.14 143.658 291.766 143.218 291.286C142.791 290.806 142.471 290.24 142.258 289.586C142.045 288.92 141.938 288.186 141.938 287.386C141.938 286.586 142.051 285.853 142.278 285.186C142.518 284.52 142.851 283.946 143.278 283.466C143.705 282.973 144.225 282.593 144.838 282.326C145.465 282.046 146.158 281.906 146.918 281.906C147.385 281.906 147.851 281.946 148.318 282.026C148.785 282.106 149.231 282.233 149.658 282.406L149.238 283.986C148.958 283.853 148.631 283.746 148.258 283.666C147.898 283.586 147.511 283.546 147.098 283.546C146.058 283.546 145.258 283.873 144.698 284.526C144.151 285.18 143.878 286.133 143.878 287.386C143.878 287.946 143.938 288.46 144.058 288.926C144.191 289.393 144.391 289.793 144.658 290.126C144.938 290.46 145.291 290.72 145.718 290.906C146.145 291.08 146.665 291.166 147.278 291.166C147.771 291.166 148.218 291.12 148.618 291.026C149.018 290.933 149.331 290.833 149.558 290.726L149.818 292.286C149.711 292.353 149.558 292.42 149.358 292.486C149.158 292.54 148.931 292.586 148.678 292.626C148.425 292.68 148.151 292.72 147.858 292.746C147.578 292.786 147.305 292.806 147.038 292.806ZM155.335 291.226C155.775 291.226 156.162 291.22 156.495 291.206C156.842 291.18 157.128 291.14 157.355 291.086V287.986C157.222 287.92 157.002 287.866 156.695 287.826C156.402 287.773 156.042 287.746 155.615 287.746C155.335 287.746 155.035 287.766 154.715 287.806C154.408 287.846 154.122 287.933 153.855 288.066C153.602 288.186 153.388 288.36 153.215 288.586C153.042 288.8 152.955 289.086 152.955 289.446C152.955 290.113 153.168 290.58 153.595 290.846C154.022 291.1 154.602 291.226 155.335 291.226ZM155.175 281.906C155.922 281.906 156.548 282.006 157.055 282.206C157.575 282.393 157.988 282.666 158.295 283.026C158.615 283.373 158.842 283.793 158.975 284.286C159.108 284.766 159.175 285.3 159.175 285.886V292.386C159.015 292.413 158.788 292.453 158.495 292.506C158.215 292.546 157.895 292.586 157.535 292.626C157.175 292.666 156.782 292.7 156.355 292.726C155.942 292.766 155.528 292.786 155.115 292.786C154.528 292.786 153.988 292.726 153.495 292.606C153.002 292.486 152.575 292.3 152.215 292.046C151.855 291.78 151.575 291.433 151.375 291.006C151.175 290.58 151.075 290.066 151.075 289.466C151.075 288.893 151.188 288.4 151.415 287.986C151.655 287.573 151.975 287.24 152.375 286.986C152.775 286.733 153.242 286.546 153.775 286.426C154.308 286.306 154.868 286.246 155.455 286.246C155.642 286.246 155.835 286.26 156.035 286.286C156.235 286.3 156.422 286.326 156.595 286.366C156.782 286.393 156.942 286.42 157.075 286.446C157.208 286.473 157.302 286.493 157.355 286.506V285.986C157.355 285.68 157.322 285.38 157.255 285.086C157.188 284.78 157.068 284.513 156.895 284.286C156.722 284.046 156.482 283.86 156.175 283.726C155.882 283.58 155.495 283.506 155.015 283.506C154.402 283.506 153.862 283.553 153.395 283.646C152.942 283.726 152.602 283.813 152.375 283.906L152.155 282.366C152.395 282.26 152.795 282.16 153.355 282.066C153.915 281.96 154.522 281.906 155.175 281.906Z" fill="white"/>
<defs>
<clipPath id="clip0">
<rect width="200.472" height="200.472" fill="white" transform="translate(0.398438)"/>
</clipPath>
</defs>
</svg>
