<svg width="200" height="278" viewBox="0 0 200 278" fill="none" xmlns="http://www.w3.org/2000/svg">
<path d="M46.6781 270V256.14H56.0381V258.76H49.7981V261.48H55.3381V264.04H49.7981V267.38H56.4981V270H46.6781ZM58.607 259.84C59.1137 259.693 59.767 259.56 60.567 259.44C61.367 259.307 62.207 259.24 63.087 259.24C63.9804 259.24 64.7204 259.36 65.307 259.6C65.907 259.827 66.3804 260.153 66.727 260.58C67.0737 261.007 67.3204 261.513 67.467 262.1C67.6137 262.687 67.687 263.34 67.687 264.06V270H64.707V264.42C64.707 263.46 64.5804 262.78 64.327 262.38C64.0737 261.98 63.6004 261.78 62.907 261.78C62.6937 261.78 62.467 261.793 62.227 261.82C61.987 261.833 61.7737 261.853 61.587 261.88V270H58.607V259.84ZM72.9244 264.66C72.9244 265.58 73.131 266.32 73.5444 266.88C73.9577 267.44 74.571 267.72 75.3844 267.72C75.651 267.72 75.8977 267.713 76.1244 267.7C76.351 267.673 76.5377 267.647 76.6844 267.62V262.2C76.4977 262.08 76.251 261.98 75.9444 261.9C75.651 261.82 75.351 261.78 75.0444 261.78C73.631 261.78 72.9244 262.74 72.9244 264.66ZM79.6644 269.66C79.3977 269.74 79.091 269.82 78.7444 269.9C78.3977 269.967 78.031 270.027 77.6444 270.08C77.271 270.133 76.8844 270.173 76.4844 270.2C76.0977 270.24 75.7244 270.26 75.3644 270.26C74.4977 270.26 73.7244 270.133 73.0444 269.88C72.3644 269.627 71.791 269.267 71.3244 268.8C70.8577 268.32 70.4977 267.747 70.2444 267.08C70.0044 266.4 69.8844 265.64 69.8844 264.8C69.8844 263.947 69.991 263.18 70.2044 262.5C70.4177 261.807 70.7244 261.22 71.1244 260.74C71.5244 260.26 72.011 259.893 72.5844 259.64C73.171 259.387 73.8377 259.26 74.5844 259.26C74.9977 259.26 75.3644 259.3 75.6844 259.38C76.0177 259.46 76.351 259.573 76.6844 259.72V254.96L79.6644 254.48V269.66ZM92.2947 264.72C92.2947 265.547 92.1747 266.307 91.9347 267C91.6947 267.68 91.348 268.267 90.8947 268.76C90.4414 269.24 89.8947 269.613 89.2547 269.88C88.628 270.147 87.9214 270.28 87.1347 270.28C86.3614 270.28 85.6547 270.147 85.0147 269.88C84.388 269.613 83.848 269.24 83.3947 268.76C82.9414 268.267 82.588 267.68 82.3347 267C82.0814 266.307 81.9547 265.547 81.9547 264.72C81.9547 263.893 82.0814 263.14 82.3347 262.46C82.6014 261.78 82.9614 261.2 83.4147 260.72C83.8814 260.24 84.428 259.867 85.0547 259.6C85.6947 259.333 86.388 259.2 87.1347 259.2C87.8947 259.2 88.588 259.333 89.2147 259.6C89.8547 259.867 90.4014 260.24 90.8547 260.72C91.308 261.2 91.6614 261.78 91.9147 262.46C92.168 263.14 92.2947 263.893 92.2947 264.72ZM89.2547 264.72C89.2547 263.8 89.068 263.08 88.6947 262.56C88.3347 262.027 87.8147 261.76 87.1347 261.76C86.4547 261.76 85.928 262.027 85.5547 262.56C85.1814 263.08 84.9947 263.8 84.9947 264.72C84.9947 265.64 85.1814 266.373 85.5547 266.92C85.928 267.453 86.4547 267.72 87.1347 267.72C87.8147 267.72 88.3347 267.453 88.6947 266.92C89.068 266.373 89.2547 265.64 89.2547 264.72ZM97.1431 264.66C97.1431 265.58 97.3498 266.32 97.7631 266.88C98.1765 267.44 98.7898 267.72 99.6031 267.72C99.8698 267.72 100.116 267.713 100.343 267.7C100.57 267.673 100.756 267.647 100.903 267.62V262.2C100.716 262.08 100.47 261.98 100.163 261.9C99.8698 261.82 99.5698 261.78 99.2631 261.78C97.8498 261.78 97.1431 262.74 97.1431 264.66ZM103.883 269.66C103.616 269.74 103.31 269.82 102.963 269.9C102.616 269.967 102.25 270.027 101.863 270.08C101.49 270.133 101.103 270.173 100.703 270.2C100.316 270.24 99.9431 270.26 99.5831 270.26C98.7165 270.26 97.9431 270.133 97.2631 269.88C96.5831 269.627 96.0098 269.267 95.5431 268.8C95.0765 268.32 94.7165 267.747 94.4631 267.08C94.2231 266.4 94.1031 265.64 94.1031 264.8C94.1031 263.947 94.2098 263.18 94.4231 262.5C94.6365 261.807 94.9431 261.22 95.3431 260.74C95.7431 260.26 96.2298 259.893 96.8031 259.64C97.3898 259.387 98.0565 259.26 98.8031 259.26C99.2165 259.26 99.5831 259.3 99.9031 259.38C100.236 259.46 100.57 259.573 100.903 259.72V254.96L103.883 254.48V269.66ZM116.513 264.72C116.513 265.547 116.393 266.307 116.153 267C115.913 267.68 115.567 268.267 115.113 268.76C114.66 269.24 114.113 269.613 113.473 269.88C112.847 270.147 112.14 270.28 111.353 270.28C110.58 270.28 109.873 270.147 109.233 269.88C108.607 269.613 108.067 269.24 107.613 268.76C107.16 268.267 106.807 267.68 106.553 267C106.3 266.307 106.173 265.547 106.173 264.72C106.173 263.893 106.3 263.14 106.553 262.46C106.82 261.78 107.18 261.2 107.633 260.72C108.1 260.24 108.647 259.867 109.273 259.6C109.913 259.333 110.607 259.2 111.353 259.2C112.113 259.2 112.807 259.333 113.433 259.6C114.073 259.867 114.62 260.24 115.073 260.72C115.527 261.2 115.88 261.78 116.133 262.46C116.387 263.14 116.513 263.893 116.513 264.72ZM113.473 264.72C113.473 263.8 113.287 263.08 112.913 262.56C112.553 262.027 112.033 261.76 111.353 261.76C110.673 261.76 110.147 262.027 109.773 262.56C109.4 263.08 109.213 263.8 109.213 264.72C109.213 265.64 109.4 266.373 109.773 266.92C110.147 267.453 110.673 267.72 111.353 267.72C112.033 267.72 112.553 267.453 112.913 266.92C113.287 266.373 113.473 265.64 113.473 264.72ZM118.822 259.84C119.329 259.693 119.982 259.56 120.782 259.44C121.582 259.307 122.422 259.24 123.302 259.24C124.195 259.24 124.935 259.36 125.522 259.6C126.122 259.827 126.595 260.153 126.942 260.58C127.289 261.007 127.535 261.513 127.682 262.1C127.829 262.687 127.902 263.34 127.902 264.06V270H124.922V264.42C124.922 263.46 124.795 262.78 124.542 262.38C124.289 261.98 123.815 261.78 123.122 261.78C122.909 261.78 122.682 261.793 122.442 261.82C122.202 261.833 121.989 261.853 121.802 261.88V270H118.822V259.84ZM130.499 256.86L133.479 256.38V259.48H137.059V261.96H133.479V265.66C133.479 266.287 133.586 266.787 133.799 267.16C134.026 267.533 134.473 267.72 135.139 267.72C135.459 267.72 135.786 267.693 136.119 267.64C136.466 267.573 136.779 267.487 137.059 267.38L137.479 269.7C137.119 269.847 136.719 269.973 136.279 270.08C135.839 270.187 135.299 270.24 134.659 270.24C133.846 270.24 133.173 270.133 132.639 269.92C132.106 269.693 131.679 269.387 131.359 269C131.039 268.6 130.813 268.12 130.679 267.56C130.559 267 130.499 266.38 130.499 265.7V256.86ZM142.466 270H139.486V259.48H142.466V270ZM142.746 256.44C142.746 256.987 142.566 257.42 142.206 257.74C141.859 258.047 141.446 258.2 140.966 258.2C140.486 258.2 140.066 258.047 139.706 257.74C139.359 257.42 139.186 256.987 139.186 256.44C139.186 255.893 139.359 255.467 139.706 255.16C140.066 254.84 140.486 254.68 140.966 254.68C141.446 254.68 141.859 254.84 142.206 255.16C142.566 255.467 142.746 255.893 142.746 256.44ZM149.287 267.92C149.581 267.92 149.861 267.913 150.127 267.9C150.394 267.887 150.607 267.867 150.767 267.84V265.58C150.647 265.553 150.467 265.527 150.227 265.5C149.987 265.473 149.767 265.46 149.567 265.46C149.287 265.46 149.021 265.48 148.767 265.52C148.527 265.547 148.314 265.607 148.127 265.7C147.941 265.793 147.794 265.92 147.687 266.08C147.581 266.24 147.527 266.44 147.527 266.68C147.527 267.147 147.681 267.473 147.987 267.66C148.307 267.833 148.741 267.92 149.287 267.92ZM149.047 259.2C149.927 259.2 150.661 259.3 151.247 259.5C151.834 259.7 152.301 259.987 152.647 260.36C153.007 260.733 153.261 261.187 153.407 261.72C153.554 262.253 153.627 262.847 153.627 263.5V269.7C153.201 269.793 152.607 269.9 151.847 270.02C151.087 270.153 150.167 270.22 149.087 270.22C148.407 270.22 147.787 270.16 147.227 270.04C146.681 269.92 146.207 269.727 145.807 269.46C145.407 269.18 145.101 268.82 144.887 268.38C144.674 267.94 144.567 267.4 144.567 266.76C144.567 266.147 144.687 265.627 144.927 265.2C145.181 264.773 145.514 264.433 145.927 264.18C146.341 263.927 146.814 263.747 147.347 263.64C147.881 263.52 148.434 263.46 149.007 263.46C149.394 263.46 149.734 263.48 150.027 263.52C150.334 263.547 150.581 263.587 150.767 263.64V263.36C150.767 262.853 150.614 262.447 150.307 262.14C150.001 261.833 149.467 261.68 148.707 261.68C148.201 261.68 147.701 261.72 147.207 261.8C146.714 261.867 146.287 261.967 145.927 262.1L145.547 259.7C145.721 259.647 145.934 259.593 146.187 259.54C146.454 259.473 146.741 259.42 147.047 259.38C147.354 259.327 147.674 259.287 148.007 259.26C148.354 259.22 148.701 259.2 149.047 259.2Z" fill="white"/>
<g clip-path="url(#clip0)">
<circle cx="100.944" cy="100.943" r="91.8519" fill="#00ACE2"/>
<path d="M171.311 15.6874C160.567 5.28401 146.364 -0.273243 131.297 0.0105702C120.055 0.230297 109.107 3.87715 99.991 10.3682C90.8754 3.87715 79.9272 0.230297 68.6845 0.0105702C53.6165 -0.276295 39.4151 5.28401 28.6714 15.6859C17.9369 26.0787 11.9188 40.0832 11.7235 55.1222C11.4687 74.832 21.5395 93.0617 38.1853 103.366L52.6292 184.855C54.1856 193.631 61.7815 200 70.6941 200H72.632C82.2954 200 90.3383 192.444 90.941 182.8L93.3763 143.86C93.5945 140.376 96.4998 137.646 99.991 137.646C103.482 137.646 106.387 140.376 106.604 143.86L109.041 182.8C109.644 192.444 117.687 200 127.35 200H129.288C138.199 200 145.796 193.631 147.351 184.855L161.797 103.366C178.441 93.0617 188.513 74.832 188.257 55.1222C188.063 40.0847 182.045 26.0802 171.311 15.6874ZM36.8227 24.1057C45.3081 15.8919 56.5309 11.4974 68.4557 11.7278C78.6104 11.9246 88.4599 15.663 96.19 22.2503L99.991 25.4897L103.792 22.2503C111.522 15.663 121.372 11.9246 131.526 11.7278C131.825 11.7217 132.123 11.7186 132.422 11.7186C144.002 11.7186 154.888 16.0994 163.159 24.1072C171.486 32.1685 176.216 42.9946 176.524 54.6508C174.516 54.1899 172.203 53.9015 169.469 53.9015C161.221 53.9015 156.769 56.5139 153.192 58.6135C150.125 60.4125 147.911 61.714 142.848 61.714C137.787 61.714 135.571 60.4125 132.506 58.6135C128.928 56.5139 124.477 53.9015 116.229 53.9015C107.982 53.9015 103.531 56.5139 99.9544 58.6135C96.8889 60.4125 94.6733 61.714 89.612 61.714C84.5506 61.714 82.335 60.4125 79.2696 58.6135C75.6929 56.5139 71.2419 53.9015 62.9945 53.9015C54.7487 53.9015 50.2962 56.5139 46.7195 58.6135C43.654 60.4125 41.4384 61.714 36.3771 61.714C31.3158 61.714 29.1002 60.4125 26.0347 58.6135C25.2367 58.145 24.3867 57.6491 23.4621 57.1608C23.4437 56.5337 23.4331 55.905 23.4407 55.2748C23.5948 43.3806 28.3479 32.3119 36.8227 24.1057ZM153.671 94.5464L151.219 95.8968L135.813 182.811C135.251 185.98 132.507 188.281 129.288 188.281H127.35C123.859 188.281 120.954 185.553 120.737 182.068L118.3 143.127C117.697 133.484 109.654 125.928 99.991 125.928C90.3276 125.928 82.2847 133.484 81.6804 143.127L79.2451 182.068C79.0269 185.553 76.1217 188.281 72.632 188.281H70.6941C67.4745 188.281 64.731 185.98 64.1695 182.811L48.7627 95.8968L46.3106 94.5464C37.0515 89.4423 30.1195 81.3445 26.4314 71.8413C29.033 72.769 32.2237 73.4313 36.3771 73.4313C44.6245 73.4313 49.077 70.819 52.6536 68.7194C55.7191 66.9203 57.9332 65.6188 62.9961 65.6188C68.0574 65.6188 70.2714 66.9188 73.3385 68.7194C76.9136 70.819 81.3661 73.4313 89.612 73.4313C97.8593 73.4313 102.31 70.819 105.887 68.7194C108.954 66.9203 111.168 65.6188 116.231 65.6188C121.292 65.6188 123.508 66.9188 126.573 68.7194C130.15 70.819 134.603 73.4313 142.848 73.4313C151.096 73.4313 155.548 70.819 159.125 68.7194C162.192 66.9203 164.406 65.6188 169.469 65.6188C171.919 65.6188 173.718 65.9377 175.252 66.4565C172.339 78.2576 164.638 88.5024 153.671 94.5464Z" fill="white"/>
<mask id="mask0" mask-type="alpha" maskUnits="userSpaceOnUse" x="9" y="9" width="184" height="184">
<circle cx="100.944" cy="100.943" r="91.8519" fill="#E5F2FF"/>
</mask>
<g mask="url(#mask0)">
</g>
</g>
<defs>
<clipPath id="clip0">
<rect width="200" height="200" fill="white"/>
</clipPath>
</defs>
</svg>
