<svg width="201" height="303" viewBox="0 0 201 303" fill="none" xmlns="http://www.w3.org/2000/svg">
<circle cx="101.34" cy="100.979" r="92.0688" fill="#00ACE2"/>
<g clip-path="url(#clip0)">
<path d="M183.213 160.501H182.204C182.855 158.663 183.213 156.686 183.213 154.628C183.213 144.912 175.309 137.008 165.593 137.008H129.039L90.2465 98.2158C84.7083 92.6791 77.3301 89.6309 69.4685 89.6309H0.360352V166.374H45.9084L102.291 195.74H183.213C192.928 195.74 200.833 187.836 200.833 178.121C200.833 168.405 192.928 160.501 183.213 160.501ZM171.467 154.628C171.467 157.866 168.831 160.501 165.593 160.501H138.35C139.686 156.708 139.678 152.548 138.343 148.755H165.593C168.831 148.755 171.467 151.39 171.467 154.628ZM12.1068 101.377H23.8532V154.628H12.1068V101.377ZM183.213 183.994H105.167L48.7838 154.628H35.5996V101.377H69.4685C74.1931 101.377 78.6225 103.205 81.9414 106.522L125.893 150.475C128.182 152.765 128.182 156.491 125.893 158.78C123.603 161.07 119.877 161.07 117.588 158.78L73.6516 114.846L65.345 123.151L109.281 167.087C112.666 170.472 117.098 172.189 121.544 172.238C121.544 172.247 183.213 172.247 183.213 172.247C186.451 172.247 189.086 174.883 189.086 178.121C189.086 181.359 186.451 183.994 183.213 183.994Z" fill="white"/>
<path d="M135.25 126.912L189.106 73.0539C204.719 57.4425 204.719 32.0393 189.106 16.4263C181.543 8.86302 171.488 4.69824 160.792 4.69824C151.355 4.69824 142.418 7.94075 135.25 13.8981C128.083 7.94075 119.144 4.69824 109.709 4.69824C99.0133 4.69824 88.9569 8.86302 81.3936 16.4263C65.7822 32.0393 65.7822 57.4425 81.3936 73.0554L135.25 126.912ZM89.6987 24.7314C95.0443 19.3874 102.15 16.4447 109.707 16.4447C117.266 16.4447 124.372 19.3874 129.716 24.7314C130.097 25.1123 130.472 25.5114 130.863 25.9504L135.253 30.8799L139.638 25.9489C140.02 25.5191 140.406 25.1107 140.783 24.7329C146.127 19.3889 153.235 16.4447 160.792 16.4447C168.351 16.4447 175.457 19.3874 180.801 24.7329C191.833 35.7651 191.833 53.7166 180.801 64.7488L135.25 110.298L89.6987 64.7488C78.6666 53.7166 78.6666 35.7651 89.6987 24.7314Z" fill="white"/>
</g>
<path d="M54.9251 266.566C54.7785 266.086 54.6118 265.593 54.4251 265.086C54.2518 264.58 54.0785 264.073 53.9051 263.566H48.5051C48.3318 264.073 48.1518 264.58 47.9651 265.086C47.7918 265.593 47.6318 266.086 47.4851 266.566H44.2451C44.7651 265.073 45.2585 263.693 45.7251 262.426C46.1918 261.16 46.6451 259.966 47.0851 258.846C47.5385 257.726 47.9785 256.666 48.4051 255.666C48.8451 254.653 49.2985 253.666 49.7651 252.706H52.7451C53.1985 253.666 53.6451 254.653 54.0851 255.666C54.5251 256.666 54.9651 257.726 55.4051 258.846C55.8585 259.966 56.3185 261.16 56.7851 262.426C57.2518 263.693 57.7451 265.073 58.2651 266.566H54.9251ZM51.1851 255.846C51.1185 256.046 51.0185 256.32 50.8851 256.666C50.7518 257.013 50.5985 257.413 50.4251 257.866C50.2518 258.32 50.0585 258.82 49.8451 259.366C49.6451 259.913 49.4385 260.486 49.2251 261.086H53.1651C52.9518 260.486 52.7451 259.913 52.5451 259.366C52.3451 258.82 52.1518 258.32 51.9651 257.866C51.7918 257.413 51.6385 257.013 51.5051 256.666C51.3718 256.32 51.2651 256.046 51.1851 255.846ZM63.0745 264.426C63.6212 264.426 64.0078 264.373 64.2345 264.266C64.4612 264.16 64.5745 263.953 64.5745 263.646C64.5745 263.406 64.4278 263.2 64.1345 263.026C63.8412 262.84 63.3945 262.633 62.7945 262.406C62.3278 262.233 61.9012 262.053 61.5145 261.866C61.1412 261.68 60.8212 261.46 60.5545 261.206C60.2878 260.94 60.0812 260.626 59.9345 260.266C59.7878 259.906 59.7145 259.473 59.7145 258.966C59.7145 257.98 60.0812 257.2 60.8145 256.626C61.5478 256.053 62.5545 255.766 63.8345 255.766C64.4745 255.766 65.0878 255.826 65.6745 255.946C66.2612 256.053 66.7278 256.173 67.0745 256.306L66.5545 258.626C66.2078 258.506 65.8278 258.4 65.4145 258.306C65.0145 258.213 64.5612 258.166 64.0545 258.166C63.1212 258.166 62.6545 258.426 62.6545 258.946C62.6545 259.066 62.6745 259.173 62.7145 259.266C62.7545 259.36 62.8345 259.453 62.9545 259.546C63.0745 259.626 63.2345 259.72 63.4345 259.826C63.6478 259.92 63.9145 260.026 64.2345 260.146C64.8878 260.386 65.4278 260.626 65.8545 260.866C66.2812 261.093 66.6145 261.346 66.8545 261.626C67.1078 261.893 67.2812 262.193 67.3745 262.526C67.4812 262.86 67.5345 263.246 67.5345 263.686C67.5345 264.726 67.1412 265.513 66.3545 266.046C65.5812 266.58 64.4812 266.846 63.0545 266.846C62.1212 266.846 61.3412 266.766 60.7145 266.606C60.1012 266.446 59.6745 266.313 59.4345 266.206L59.9345 263.786C60.4412 263.986 60.9612 264.146 61.4945 264.266C62.0278 264.373 62.5545 264.426 63.0745 264.426ZM72.7815 264.426C73.3282 264.426 73.7149 264.373 73.9415 264.266C74.1682 264.16 74.2815 263.953 74.2815 263.646C74.2815 263.406 74.1349 263.2 73.8415 263.026C73.5482 262.84 73.1015 262.633 72.5015 262.406C72.0349 262.233 71.6082 262.053 71.2215 261.866C70.8482 261.68 70.5282 261.46 70.2615 261.206C69.9949 260.94 69.7882 260.626 69.6415 260.266C69.4949 259.906 69.4215 259.473 69.4215 258.966C69.4215 257.98 69.7882 257.2 70.5215 256.626C71.2549 256.053 72.2615 255.766 73.5415 255.766C74.1815 255.766 74.7949 255.826 75.3815 255.946C75.9682 256.053 76.4349 256.173 76.7815 256.306L76.2615 258.626C75.9149 258.506 75.5349 258.4 75.1215 258.306C74.7215 258.213 74.2682 258.166 73.7615 258.166C72.8282 258.166 72.3615 258.426 72.3615 258.946C72.3615 259.066 72.3815 259.173 72.4215 259.266C72.4615 259.36 72.5415 259.453 72.6615 259.546C72.7815 259.626 72.9415 259.72 73.1415 259.826C73.3549 259.92 73.6215 260.026 73.9415 260.146C74.5949 260.386 75.1349 260.626 75.5615 260.866C75.9882 261.093 76.3215 261.346 76.5615 261.626C76.8149 261.893 76.9882 262.193 77.0815 262.526C77.1882 262.86 77.2415 263.246 77.2415 263.686C77.2415 264.726 76.8482 265.513 76.0615 266.046C75.2882 266.58 74.1882 266.846 72.7615 266.846C71.8282 266.846 71.0482 266.766 70.4215 266.606C69.8082 266.446 69.3815 266.313 69.1415 266.206L69.6415 263.786C70.1482 263.986 70.6682 264.146 71.2015 264.266C71.7349 264.373 72.2615 264.426 72.7815 264.426ZM82.4486 266.566H79.4686V256.046H82.4486V266.566ZM82.7286 253.006C82.7286 253.553 82.5486 253.986 82.1886 254.306C81.8419 254.613 81.4286 254.766 80.9486 254.766C80.4686 254.766 80.0486 254.613 79.6886 254.306C79.3419 253.986 79.1686 253.553 79.1686 253.006C79.1686 252.46 79.3419 252.033 79.6886 251.726C80.0486 251.406 80.4686 251.246 80.9486 251.246C81.4286 251.246 81.8419 251.406 82.1886 251.726C82.5486 252.033 82.7286 252.46 82.7286 253.006ZM88.2698 264.426C88.8165 264.426 89.2032 264.373 89.4298 264.266C89.6565 264.16 89.7698 263.953 89.7698 263.646C89.7698 263.406 89.6232 263.2 89.3298 263.026C89.0365 262.84 88.5898 262.633 87.9898 262.406C87.5232 262.233 87.0965 262.053 86.7098 261.866C86.3365 261.68 86.0165 261.46 85.7498 261.206C85.4832 260.94 85.2765 260.626 85.1298 260.266C84.9832 259.906 84.9098 259.473 84.9098 258.966C84.9098 257.98 85.2765 257.2 86.0098 256.626C86.7432 256.053 87.7498 255.766 89.0298 255.766C89.6698 255.766 90.2832 255.826 90.8698 255.946C91.4565 256.053 91.9232 256.173 92.2698 256.306L91.7498 258.626C91.4032 258.506 91.0232 258.4 90.6098 258.306C90.2098 258.213 89.7565 258.166 89.2498 258.166C88.3165 258.166 87.8498 258.426 87.8498 258.946C87.8498 259.066 87.8698 259.173 87.9098 259.266C87.9498 259.36 88.0298 259.453 88.1498 259.546C88.2698 259.626 88.4298 259.72 88.6298 259.826C88.8432 259.92 89.1098 260.026 89.4298 260.146C90.0832 260.386 90.6232 260.626 91.0498 260.866C91.4765 261.093 91.8098 261.346 92.0498 261.626C92.3032 261.893 92.4765 262.193 92.5698 262.526C92.6765 262.86 92.7298 263.246 92.7298 263.686C92.7298 264.726 92.3365 265.513 91.5498 266.046C90.7765 266.58 89.6765 266.846 88.2498 266.846C87.3165 266.846 86.5365 266.766 85.9098 266.606C85.2965 266.446 84.8698 266.313 84.6298 266.206L85.1298 263.786C85.6365 263.986 86.1565 264.146 86.6898 264.266C87.2232 264.373 87.7498 264.426 88.2698 264.426ZM94.8569 253.426L97.8369 252.946V256.046H101.417V258.526H97.8369V262.226C97.8369 262.853 97.9435 263.353 98.1569 263.726C98.3835 264.1 98.8302 264.286 99.4969 264.286C99.8169 264.286 100.144 264.26 100.477 264.206C100.824 264.14 101.137 264.053 101.417 263.946L101.837 266.266C101.477 266.413 101.077 266.54 100.637 266.646C100.197 266.753 99.6569 266.806 99.0169 266.806C98.2035 266.806 97.5302 266.7 96.9969 266.486C96.4635 266.26 96.0369 265.953 95.7169 265.566C95.3969 265.166 95.1702 264.686 95.0369 264.126C94.9169 263.566 94.8569 262.946 94.8569 262.266V253.426ZM102.953 261.386C102.953 260.453 103.093 259.64 103.373 258.946C103.666 258.24 104.046 257.653 104.513 257.186C104.98 256.72 105.513 256.366 106.113 256.126C106.726 255.886 107.353 255.766 107.993 255.766C109.486 255.766 110.666 256.226 111.533 257.146C112.4 258.053 112.833 259.393 112.833 261.166C112.833 261.34 112.826 261.533 112.813 261.746C112.8 261.946 112.786 262.126 112.773 262.286H106.013C106.08 262.9 106.366 263.386 106.873 263.746C107.38 264.106 108.06 264.286 108.913 264.286C109.46 264.286 109.993 264.24 110.513 264.146C111.046 264.04 111.48 263.913 111.813 263.766L112.213 266.186C112.053 266.266 111.84 266.346 111.573 266.426C111.306 266.506 111.006 266.573 110.673 266.626C110.353 266.693 110.006 266.746 109.633 266.786C109.26 266.826 108.886 266.846 108.513 266.846C107.566 266.846 106.74 266.706 106.033 266.426C105.34 266.146 104.76 265.766 104.293 265.286C103.84 264.793 103.5 264.213 103.273 263.546C103.06 262.88 102.953 262.16 102.953 261.386ZM109.953 260.246C109.94 259.993 109.893 259.746 109.813 259.506C109.746 259.266 109.633 259.053 109.473 258.866C109.326 258.68 109.133 258.526 108.893 258.406C108.666 258.286 108.38 258.226 108.033 258.226C107.7 258.226 107.413 258.286 107.173 258.406C106.933 258.513 106.733 258.66 106.573 258.846C106.413 259.033 106.286 259.253 106.193 259.506C106.113 259.746 106.053 259.993 106.013 260.246H109.953ZM110.993 253.666L109.893 254.986L107.893 253.446L105.893 254.986L104.753 253.666L107.893 250.926L110.993 253.666ZM115.133 256.406C115.639 256.26 116.293 256.126 117.093 256.006C117.893 255.873 118.733 255.806 119.613 255.806C120.506 255.806 121.246 255.926 121.833 256.166C122.433 256.393 122.906 256.72 123.253 257.146C123.599 257.573 123.846 258.08 123.993 258.666C124.139 259.253 124.213 259.906 124.213 260.626V266.566H121.233V260.986C121.233 260.026 121.106 259.346 120.853 258.946C120.599 258.546 120.126 258.346 119.433 258.346C119.219 258.346 118.993 258.36 118.753 258.386C118.513 258.4 118.299 258.42 118.113 258.446V266.566H115.133V256.406ZM126.41 261.306C126.41 260.546 126.53 259.833 126.77 259.166C127.023 258.486 127.383 257.9 127.85 257.406C128.317 256.9 128.883 256.5 129.55 256.206C130.217 255.913 130.977 255.766 131.83 255.766C132.39 255.766 132.903 255.82 133.37 255.926C133.837 256.02 134.29 256.16 134.73 256.346L134.11 258.726C133.83 258.62 133.523 258.526 133.19 258.446C132.857 258.366 132.483 258.326 132.07 258.326C131.19 258.326 130.53 258.6 130.09 259.146C129.663 259.693 129.45 260.413 129.45 261.306C129.45 262.253 129.65 262.986 130.05 263.506C130.463 264.026 131.177 264.286 132.19 264.286C132.55 264.286 132.937 264.253 133.35 264.186C133.763 264.12 134.143 264.013 134.49 263.866L134.91 266.306C134.563 266.453 134.13 266.58 133.61 266.686C133.09 266.793 132.517 266.846 131.89 266.846C130.93 266.846 130.103 266.706 129.41 266.426C128.717 266.133 128.143 265.74 127.69 265.246C127.25 264.753 126.923 264.173 126.71 263.506C126.51 262.826 126.41 262.093 126.41 261.306ZM139.89 266.566H136.91V256.046H139.89V266.566ZM140.17 253.006C140.17 253.553 139.99 253.986 139.63 254.306C139.283 254.613 138.87 254.766 138.39 254.766C137.91 254.766 137.49 254.613 137.13 254.306C136.783 253.986 136.61 253.553 136.61 253.006C136.61 252.46 136.783 252.033 137.13 251.726C137.49 251.406 137.91 251.246 138.39 251.246C138.87 251.246 139.283 251.406 139.63 251.726C139.99 252.033 140.17 252.46 140.17 253.006ZM146.711 264.486C147.005 264.486 147.285 264.48 147.551 264.466C147.818 264.453 148.031 264.433 148.191 264.406V262.146C148.071 262.12 147.891 262.093 147.651 262.066C147.411 262.04 147.191 262.026 146.991 262.026C146.711 262.026 146.445 262.046 146.191 262.086C145.951 262.113 145.738 262.173 145.551 262.266C145.365 262.36 145.218 262.486 145.111 262.646C145.005 262.806 144.951 263.006 144.951 263.246C144.951 263.713 145.105 264.04 145.411 264.226C145.731 264.4 146.165 264.486 146.711 264.486ZM146.471 255.766C147.351 255.766 148.085 255.866 148.671 256.066C149.258 256.266 149.725 256.553 150.071 256.926C150.431 257.3 150.685 257.753 150.831 258.286C150.978 258.82 151.051 259.413 151.051 260.066V266.266C150.625 266.36 150.031 266.466 149.271 266.586C148.511 266.72 147.591 266.786 146.511 266.786C145.831 266.786 145.211 266.726 144.651 266.606C144.105 266.486 143.631 266.293 143.231 266.026C142.831 265.746 142.525 265.386 142.311 264.946C142.098 264.506 141.991 263.966 141.991 263.326C141.991 262.713 142.111 262.193 142.351 261.766C142.605 261.34 142.938 261 143.351 260.746C143.765 260.493 144.238 260.313 144.771 260.206C145.305 260.086 145.858 260.026 146.431 260.026C146.818 260.026 147.158 260.046 147.451 260.086C147.758 260.113 148.005 260.153 148.191 260.206V259.926C148.191 259.42 148.038 259.013 147.731 258.706C147.425 258.4 146.891 258.246 146.131 258.246C145.625 258.246 145.125 258.286 144.631 258.366C144.138 258.433 143.711 258.533 143.351 258.666L142.971 256.266C143.145 256.213 143.358 256.16 143.611 256.106C143.878 256.04 144.165 255.986 144.471 255.946C144.778 255.893 145.098 255.853 145.431 255.826C145.778 255.786 146.125 255.766 146.471 255.766ZM73.5137 277.046C74.0604 277.046 74.5271 277.086 74.9137 277.166C75.3137 277.246 75.5937 277.32 75.7537 277.386L75.4137 278.986C75.2537 278.906 75.0271 278.833 74.7337 278.766C74.4404 278.686 74.0804 278.646 73.6537 278.646C72.7871 278.646 72.1804 278.886 71.8337 279.366C71.4871 279.833 71.3137 280.466 71.3137 281.266V282.166H75.3137V283.726H71.3137V292.566H69.4537V281.226C69.4537 279.893 69.7804 278.866 70.4337 278.146C71.0871 277.413 72.1137 277.046 73.5137 277.046ZM85.4486 292.266C85.0219 292.373 84.4552 292.486 83.7486 292.606C83.0552 292.726 82.2486 292.786 81.3286 292.786C80.5286 292.786 79.8552 292.673 79.3086 292.446C78.7619 292.206 78.3219 291.873 77.9886 291.446C77.6552 291.02 77.4152 290.52 77.2686 289.946C77.1219 289.36 77.0486 288.713 77.0486 288.006V282.166H78.9086V287.606C78.9086 288.873 79.1086 289.78 79.5086 290.326C79.9086 290.873 80.5819 291.146 81.5286 291.146C81.7286 291.146 81.9352 291.14 82.1486 291.126C82.3619 291.113 82.5619 291.1 82.7486 291.086C82.9352 291.06 83.1019 291.04 83.2486 291.026C83.4086 291 83.5219 290.973 83.5886 290.946V282.166H85.4486V292.266ZM88.6529 282.466C89.0796 282.36 89.6463 282.246 90.3529 282.126C91.0596 282.006 91.8729 281.946 92.7929 281.946C93.6196 281.946 94.3063 282.066 94.8529 282.306C95.3996 282.533 95.8329 282.86 96.1529 283.286C96.4863 283.7 96.7196 284.2 96.8529 284.786C96.9863 285.373 97.0529 286.02 97.0529 286.726V292.566H95.1929V287.126C95.1929 286.486 95.1463 285.94 95.0529 285.486C94.9729 285.033 94.8329 284.666 94.6329 284.386C94.4329 284.106 94.1663 283.906 93.8329 283.786C93.4996 283.653 93.0863 283.586 92.5929 283.586C92.3929 283.586 92.1863 283.593 91.9729 283.606C91.7596 283.62 91.5529 283.64 91.3529 283.666C91.1663 283.68 90.9929 283.7 90.8329 283.726C90.6863 283.753 90.5796 283.773 90.5129 283.786V292.566H88.6529V282.466ZM99.5573 287.386C99.5573 286.466 99.6907 285.666 99.9573 284.986C100.224 284.293 100.577 283.72 101.017 283.266C101.457 282.813 101.964 282.473 102.537 282.246C103.111 282.02 103.697 281.906 104.297 281.906C105.697 281.906 106.771 282.346 107.517 283.226C108.264 284.093 108.637 285.42 108.637 287.206C108.637 287.286 108.637 287.393 108.637 287.526C108.637 287.646 108.631 287.76 108.617 287.866H101.497C101.577 288.946 101.891 289.766 102.437 290.326C102.984 290.886 103.837 291.166 104.997 291.166C105.651 291.166 106.197 291.113 106.637 291.006C107.091 290.886 107.431 290.773 107.657 290.666L107.917 292.226C107.691 292.346 107.291 292.473 106.717 292.606C106.157 292.74 105.517 292.806 104.797 292.806C103.891 292.806 103.104 292.673 102.437 292.406C101.784 292.126 101.244 291.746 100.817 291.266C100.391 290.786 100.071 290.22 99.8573 289.566C99.6573 288.9 99.5573 288.173 99.5573 287.386ZM106.697 286.366C106.711 285.526 106.497 284.84 106.057 284.306C105.631 283.76 105.037 283.486 104.277 283.486C103.851 283.486 103.471 283.573 103.137 283.746C102.817 283.906 102.544 284.12 102.317 284.386C102.091 284.653 101.911 284.96 101.777 285.306C101.657 285.653 101.577 286.006 101.537 286.366H106.697ZM115.149 281.946C115.309 281.946 115.489 281.96 115.689 281.986C115.903 282 116.109 282.026 116.309 282.066C116.509 282.093 116.689 282.126 116.849 282.166C117.023 282.193 117.149 282.22 117.229 282.246L116.909 283.866C116.763 283.813 116.516 283.753 116.169 283.686C115.836 283.606 115.403 283.566 114.869 283.566C114.523 283.566 114.176 283.606 113.829 283.686C113.496 283.753 113.276 283.8 113.169 283.826V292.566H111.309V282.606C111.749 282.446 112.296 282.3 112.949 282.166C113.603 282.02 114.336 281.946 115.149 281.946ZM122.544 291.226C122.984 291.226 123.371 291.22 123.704 291.206C124.051 291.18 124.337 291.14 124.564 291.086V287.986C124.431 287.92 124.211 287.866 123.904 287.826C123.611 287.773 123.251 287.746 122.824 287.746C122.544 287.746 122.244 287.766 121.924 287.806C121.617 287.846 121.331 287.933 121.064 288.066C120.811 288.186 120.597 288.36 120.424 288.586C120.251 288.8 120.164 289.086 120.164 289.446C120.164 290.113 120.377 290.58 120.804 290.846C121.231 291.1 121.811 291.226 122.544 291.226ZM122.384 281.906C123.131 281.906 123.757 282.006 124.264 282.206C124.784 282.393 125.197 282.666 125.504 283.026C125.824 283.373 126.051 283.793 126.184 284.286C126.317 284.766 126.384 285.3 126.384 285.886V292.386C126.224 292.413 125.997 292.453 125.704 292.506C125.424 292.546 125.104 292.586 124.744 292.626C124.384 292.666 123.991 292.7 123.564 292.726C123.151 292.766 122.737 292.786 122.324 292.786C121.737 292.786 121.197 292.726 120.704 292.606C120.211 292.486 119.784 292.3 119.424 292.046C119.064 291.78 118.784 291.433 118.584 291.006C118.384 290.58 118.284 290.066 118.284 289.466C118.284 288.893 118.397 288.4 118.624 287.986C118.864 287.573 119.184 287.24 119.584 286.986C119.984 286.733 120.451 286.546 120.984 286.426C121.517 286.306 122.077 286.246 122.664 286.246C122.851 286.246 123.044 286.26 123.244 286.286C123.444 286.3 123.631 286.326 123.804 286.366C123.991 286.393 124.151 286.42 124.284 286.446C124.417 286.473 124.511 286.493 124.564 286.506V285.986C124.564 285.68 124.531 285.38 124.464 285.086C124.397 284.78 124.277 284.513 124.104 284.286C123.931 284.046 123.691 283.86 123.384 283.726C123.091 283.58 122.704 283.506 122.224 283.506C121.611 283.506 121.071 283.553 120.604 283.646C120.151 283.726 119.811 283.813 119.584 283.906L119.364 282.366C119.604 282.26 120.004 282.16 120.564 282.066C121.124 281.96 121.731 281.906 122.384 281.906ZM132.593 292.766C131.447 292.74 130.633 292.493 130.153 292.026C129.673 291.56 129.433 290.833 129.433 289.846V277.366L131.293 277.046V289.546C131.293 289.853 131.32 290.106 131.373 290.306C131.427 290.506 131.513 290.666 131.633 290.786C131.753 290.906 131.913 291 132.113 291.066C132.313 291.12 132.56 291.166 132.853 291.206L132.593 292.766Z" fill="white"/>
<defs>
<clipPath id="clip0">
<rect width="200.472" height="200.472" fill="white" transform="translate(0.359375)"/>
</clipPath>
</defs>
</svg>
