<svg width="223" height="277" viewBox="0 0 223 277" fill="none" xmlns="http://www.w3.org/2000/svg">
<circle cx="112.175" cy="98.0877" r="88.5984" fill="#00ACE2"/>
<g clip-path="url(#clip0)">
<path d="M15.0034 174.251C15.0034 130.796 15.0034 87.3421 15.0034 43.8878C15.0999 43.6708 15.2687 43.4538 15.3169 43.2367C17.7042 31.5895 26.5301 24.3069 38.3704 24.3069C44.9536 24.3069 51.561 24.3069 58.1442 24.3069C58.7953 24.3069 59.4705 24.3069 60.2663 24.3069C60.2663 28.1893 60.2663 31.8065 60.2663 35.496C65.9573 35.496 71.5037 35.496 77.1706 35.496C77.1706 23.8969 77.1706 12.4184 77.1706 0.939941C100.031 0.939941 122.892 0.939941 145.752 0.939941C145.752 12.4667 145.752 23.9934 145.752 35.5201C151.516 35.5201 157.038 35.5201 162.729 35.5201C162.729 31.7583 162.729 28.0929 162.729 24.3069C170.518 24.3069 178.114 24.2104 185.686 24.331C192.896 24.4516 198.708 27.5382 203.217 33.1569C205.749 36.3159 206.906 40.0778 207.895 43.8878C207.895 87.3421 207.895 130.796 207.895 174.251C207.775 174.661 207.606 175.047 207.509 175.456C205.604 183.848 200.661 189.612 192.583 192.602C191.208 193.108 189.737 193.422 188.314 193.832C137.071 193.832 85.8277 193.832 34.5844 193.832C34.1744 193.711 33.7886 193.542 33.3787 193.446C26.7472 191.999 21.4661 188.527 18.1624 182.57C16.7397 179.99 16.0403 177.024 15.0034 174.251ZM48.9325 35.5925C45.2189 35.5925 41.7705 35.5925 38.3221 35.5925C31.0396 35.6166 26.3131 40.343 26.3131 47.6497C26.3131 88.5961 26.289 129.542 26.3131 170.465C26.3131 177.723 31.0878 182.522 38.3221 182.522C87.0575 182.522 135.769 182.522 184.504 182.522C191.883 182.522 196.61 177.771 196.61 170.368C196.61 161.832 196.61 153.295 196.61 144.759C196.61 112.301 196.61 79.8184 196.586 47.3603C196.586 41.2594 192.751 36.3882 186.94 35.7854C182.744 35.3513 178.451 35.6889 173.99 35.6889C173.99 39.4267 173.99 43.0921 173.99 46.7334C160.679 46.7334 147.609 46.7334 134.394 46.7334C134.394 42.9715 134.394 39.3543 134.394 35.6889C119.033 35.6889 103.817 35.6889 88.4079 35.6889C88.4079 39.4749 88.4079 43.1403 88.4079 46.7816C75.1691 46.7816 62.1231 46.7816 48.9566 46.7816C48.9325 43.068 48.9325 39.4508 48.9325 35.5925ZM134.37 12.3702C118.961 12.3702 103.745 12.3702 88.5767 12.3702C88.5767 16.3973 88.5767 20.2556 88.5767 24.1622C103.889 24.1622 119.106 24.1622 134.37 24.1622C134.37 20.1833 134.37 16.3009 134.37 12.3702Z" fill="white"/>
<path d="M37.7451 58.2593C86.9869 58.2593 136.06 58.2593 185.229 58.2593C185.229 95.8779 185.229 133.4 185.229 171.067C136.108 171.067 86.9869 171.067 37.7451 171.067C37.7451 133.545 37.7451 95.9743 37.7451 58.2593ZM173.92 69.6172C132.202 69.6172 90.6282 69.6172 49.0789 69.6172C49.0789 99.7603 49.0789 129.807 49.0789 159.829C90.7729 159.829 132.298 159.829 173.92 159.829C173.92 129.759 173.92 99.7603 173.92 69.6172Z" fill="white"/>
<path d="M128.438 80.9268C128.438 86.5454 128.438 92.0676 128.438 97.6863C134.056 97.6863 139.579 97.6863 145.221 97.6863C145.221 109.02 145.221 120.209 145.221 131.591C139.723 131.591 134.177 131.591 128.438 131.591C128.438 137.331 128.438 142.877 128.438 148.52C117.08 148.52 105.939 148.52 94.5809 148.52C94.5809 143.022 94.5809 137.475 94.5809 131.736C88.8417 131.736 83.2953 131.736 77.6284 131.736C77.6284 120.354 77.6284 109.141 77.6284 97.831C83.1747 97.831 88.6729 97.831 94.3639 97.831C94.3639 92.1641 94.3639 86.6178 94.3639 80.9268C105.794 80.9268 116.983 80.9268 128.438 80.9268ZM88.9622 109.068C88.9622 112.951 88.9622 116.568 88.9622 120.402C94.605 120.402 100.151 120.402 105.891 120.402C105.891 126.166 105.891 131.688 105.891 137.234C109.725 137.234 113.342 137.234 117.152 137.234C117.152 131.591 117.152 126.045 117.152 120.306C122.891 120.306 128.438 120.306 133.96 120.306C133.96 116.496 133.96 112.878 133.96 109.044C128.317 109.044 122.771 109.044 117.031 109.044C117.031 103.281 117.031 97.7587 117.031 92.2123C113.197 92.2123 109.58 92.2123 105.77 92.2123C105.77 97.8551 105.77 103.401 105.77 109.068C100.079 109.068 94.5809 109.068 88.9622 109.068Z" fill="white"/>
</g>
<path d="M36.2574 242.695C36.1107 242.215 35.9441 241.721 35.7574 241.215C35.5841 240.708 35.4107 240.201 35.2374 239.695H29.8374C29.6641 240.201 29.4841 240.708 29.2974 241.215C29.1241 241.721 28.9641 242.215 28.8174 242.695H25.5774C26.0974 241.201 26.5907 239.821 27.0574 238.555C27.5241 237.288 27.9774 236.095 28.4174 234.975C28.8707 233.855 29.3107 232.795 29.7374 231.795C30.1774 230.781 30.6307 229.795 31.0974 228.835H34.0774C34.5307 229.795 34.9774 230.781 35.4174 231.795C35.8574 232.795 36.2974 233.855 36.7374 234.975C37.1907 236.095 37.6507 237.288 38.1174 238.555C38.5841 239.821 39.0774 241.201 39.5974 242.695H36.2574ZM32.5174 231.975C32.4507 232.175 32.3507 232.448 32.2174 232.795C32.0841 233.141 31.9307 233.541 31.7574 233.995C31.5841 234.448 31.3907 234.948 31.1774 235.495C30.9774 236.041 30.7707 236.615 30.5574 237.215H34.4974C34.2841 236.615 34.0774 236.041 33.8774 235.495C33.6774 234.948 33.4841 234.448 33.2974 233.995C33.1241 233.541 32.9707 233.141 32.8374 232.795C32.7041 232.448 32.5974 232.175 32.5174 231.975ZM40.4766 237.435C40.4766 236.675 40.5966 235.961 40.8366 235.295C41.09 234.615 41.45 234.028 41.9166 233.535C42.3833 233.028 42.95 232.628 43.6166 232.335C44.2833 232.041 45.0433 231.895 45.8966 231.895C46.4566 231.895 46.97 231.948 47.4366 232.055C47.9033 232.148 48.3566 232.288 48.7966 232.475L48.1766 234.855C47.8966 234.748 47.59 234.655 47.2566 234.575C46.9233 234.495 46.55 234.455 46.1366 234.455C45.2566 234.455 44.5966 234.728 44.1566 235.275C43.73 235.821 43.5166 236.541 43.5166 237.435C43.5166 238.381 43.7166 239.115 44.1166 239.635C44.53 240.155 45.2433 240.415 46.2566 240.415C46.6166 240.415 47.0033 240.381 47.4166 240.315C47.83 240.248 48.21 240.141 48.5566 239.995L48.9766 242.435C48.63 242.581 48.1966 242.708 47.6766 242.815C47.1566 242.921 46.5833 242.975 45.9566 242.975C44.9966 242.975 44.17 242.835 43.4766 242.555C42.7833 242.261 42.21 241.868 41.7566 241.375C41.3166 240.881 40.99 240.301 40.7766 239.635C40.5766 238.955 40.4766 238.221 40.4766 237.435ZM60.3088 237.415C60.3088 238.241 60.1888 239.001 59.9488 239.695C59.7088 240.375 59.3621 240.961 58.9088 241.455C58.4555 241.935 57.9088 242.308 57.2688 242.575C56.6421 242.841 55.9355 242.975 55.1488 242.975C54.3755 242.975 53.6688 242.841 53.0288 242.575C52.4021 242.308 51.8621 241.935 51.4088 241.455C50.9555 240.961 50.6021 240.375 50.3488 239.695C50.0955 239.001 49.9688 238.241 49.9688 237.415C49.9688 236.588 50.0955 235.835 50.3488 235.155C50.6155 234.475 50.9755 233.895 51.4288 233.415C51.8955 232.935 52.4421 232.561 53.0688 232.295C53.7088 232.028 54.4021 231.895 55.1488 231.895C55.9088 231.895 56.6021 232.028 57.2288 232.295C57.8688 232.561 58.4155 232.935 58.8688 233.415C59.3221 233.895 59.6755 234.475 59.9288 235.155C60.1821 235.835 60.3088 236.588 60.3088 237.415ZM57.2688 237.415C57.2688 236.495 57.0821 235.775 56.7088 235.255C56.3488 234.721 55.8288 234.455 55.1488 234.455C54.4688 234.455 53.9421 234.721 53.5688 235.255C53.1955 235.775 53.0088 236.495 53.0088 237.415C53.0088 238.335 53.1955 239.068 53.5688 239.615C53.9421 240.148 54.4688 240.415 55.1488 240.415C55.8288 240.415 56.3488 240.148 56.7088 239.615C57.0821 239.068 57.2688 238.335 57.2688 237.415ZM68.3972 237.115C68.3972 236.155 68.2706 235.475 68.0172 235.075C67.7772 234.675 67.3572 234.475 66.7572 234.475C66.5706 234.475 66.3772 234.488 66.1772 234.515C65.9772 234.528 65.7839 234.548 65.5972 234.575V242.695H62.6172V232.535C62.8706 232.468 63.1639 232.401 63.4972 232.335C63.8439 232.255 64.2039 232.188 64.5772 232.135C64.9639 232.068 65.3572 232.021 65.7572 231.995C66.1572 231.955 66.5506 231.935 66.9372 231.935C67.6972 231.935 68.3106 232.035 68.7772 232.235C69.2572 232.421 69.6506 232.648 69.9572 232.915C70.3839 232.608 70.8706 232.368 71.4172 232.195C71.9772 232.021 72.4906 231.935 72.9572 231.935C73.7972 231.935 74.4839 232.055 75.0172 232.295C75.5639 232.521 75.9972 232.848 76.3172 233.275C76.6372 233.701 76.8572 234.208 76.9772 234.795C77.0972 235.381 77.1572 236.035 77.1572 236.755V242.695H74.1772V237.115C74.1772 236.155 74.0506 235.475 73.7972 235.075C73.5572 234.675 73.1372 234.475 72.5372 234.475C72.3772 234.475 72.1506 234.515 71.8572 234.595C71.5772 234.675 71.3439 234.775 71.1572 234.895C71.2506 235.201 71.3106 235.528 71.3372 235.875C71.3639 236.208 71.3772 236.568 71.3772 236.955V242.695H68.3972V237.115ZM86.6033 237.515C86.6033 236.595 86.3967 235.861 85.9833 235.315C85.57 234.755 84.9567 234.475 84.1433 234.475C83.8767 234.475 83.63 234.488 83.4033 234.515C83.1767 234.528 82.99 234.548 82.8433 234.575V239.955C83.03 240.075 83.27 240.175 83.5633 240.255C83.87 240.335 84.1767 240.375 84.4833 240.375C85.8967 240.375 86.6033 239.421 86.6033 237.515ZM89.6433 237.435C89.6433 238.248 89.5433 238.988 89.3433 239.655C89.1433 240.321 88.85 240.895 88.4633 241.375C88.0767 241.855 87.5967 242.228 87.0233 242.495C86.45 242.761 85.79 242.895 85.0433 242.895C84.63 242.895 84.2433 242.855 83.8833 242.775C83.5233 242.695 83.1767 242.581 82.8433 242.435V246.395H79.8633V232.535C80.13 232.455 80.4367 232.381 80.7833 232.315C81.13 232.235 81.49 232.168 81.8633 232.115C82.25 232.061 82.6367 232.021 83.0233 231.995C83.4233 231.955 83.8033 231.935 84.1633 231.935C85.03 231.935 85.8033 232.068 86.4833 232.335C87.1633 232.588 87.7367 232.955 88.2033 233.435C88.67 233.901 89.0233 234.475 89.2633 235.155C89.5167 235.835 89.6433 236.595 89.6433 237.435ZM95.9537 240.615C96.247 240.615 96.527 240.608 96.7937 240.595C97.0603 240.581 97.2737 240.561 97.4337 240.535V238.275C97.3137 238.248 97.1337 238.221 96.8937 238.195C96.6537 238.168 96.4337 238.155 96.2337 238.155C95.9537 238.155 95.687 238.175 95.4337 238.215C95.1937 238.241 94.9803 238.301 94.7937 238.395C94.607 238.488 94.4603 238.615 94.3537 238.775C94.247 238.935 94.1937 239.135 94.1937 239.375C94.1937 239.841 94.347 240.168 94.6537 240.355C94.9737 240.528 95.407 240.615 95.9537 240.615ZM95.7137 231.895C96.5937 231.895 97.327 231.995 97.9137 232.195C98.5003 232.395 98.967 232.681 99.3137 233.055C99.6737 233.428 99.927 233.881 100.074 234.415C100.22 234.948 100.294 235.541 100.294 236.195V242.395C99.867 242.488 99.2737 242.595 98.5137 242.715C97.7537 242.848 96.8337 242.915 95.7537 242.915C95.0737 242.915 94.4537 242.855 93.8937 242.735C93.347 242.615 92.8737 242.421 92.4737 242.155C92.0737 241.875 91.767 241.515 91.5537 241.075C91.3403 240.635 91.2337 240.095 91.2337 239.455C91.2337 238.841 91.3537 238.321 91.5937 237.895C91.847 237.468 92.1803 237.128 92.5937 236.875C93.007 236.621 93.4803 236.441 94.0137 236.335C94.547 236.215 95.1003 236.155 95.6737 236.155C96.0603 236.155 96.4003 236.175 96.6937 236.215C97.0003 236.241 97.247 236.281 97.4337 236.335V236.055C97.4337 235.548 97.2803 235.141 96.9737 234.835C96.667 234.528 96.1337 234.375 95.3737 234.375C94.867 234.375 94.367 234.415 93.8737 234.495C93.3803 234.561 92.9537 234.661 92.5937 234.795L92.2137 232.395C92.387 232.341 92.6003 232.288 92.8537 232.235C93.1203 232.168 93.407 232.115 93.7137 232.075C94.0203 232.021 94.3403 231.981 94.6737 231.955C95.0203 231.915 95.367 231.895 95.7137 231.895ZM102.988 232.535C103.495 232.388 104.148 232.255 104.948 232.135C105.748 232.001 106.588 231.935 107.468 231.935C108.362 231.935 109.102 232.055 109.688 232.295C110.288 232.521 110.762 232.848 111.108 233.275C111.455 233.701 111.702 234.208 111.848 234.795C111.995 235.381 112.068 236.035 112.068 236.755V242.695H109.088V237.115C109.088 236.155 108.962 235.475 108.708 235.075C108.455 234.675 107.982 234.475 107.288 234.475C107.075 234.475 106.848 234.488 106.608 234.515C106.368 234.528 106.155 234.548 105.968 234.575V242.695H102.988V232.535ZM114.766 242.695V227.655L117.746 227.175V232.215C117.946 232.148 118.199 232.088 118.506 232.035C118.826 231.968 119.132 231.935 119.426 231.935C120.279 231.935 120.986 232.055 121.546 232.295C122.119 232.521 122.572 232.848 122.906 233.275C123.252 233.701 123.492 234.208 123.626 234.795C123.772 235.381 123.846 236.035 123.846 236.755V242.695H120.866V237.115C120.866 236.155 120.739 235.475 120.486 235.075C120.246 234.675 119.792 234.475 119.126 234.475C118.859 234.475 118.606 234.501 118.366 234.555C118.139 234.595 117.932 234.641 117.746 234.695V242.695H114.766ZM130.563 240.615C130.856 240.615 131.136 240.608 131.403 240.595C131.67 240.581 131.883 240.561 132.043 240.535V238.275C131.923 238.248 131.743 238.221 131.503 238.195C131.263 238.168 131.043 238.155 130.843 238.155C130.563 238.155 130.296 238.175 130.043 238.215C129.803 238.241 129.59 238.301 129.403 238.395C129.216 238.488 129.07 238.615 128.963 238.775C128.856 238.935 128.803 239.135 128.803 239.375C128.803 239.841 128.956 240.168 129.263 240.355C129.583 240.528 130.016 240.615 130.563 240.615ZM130.323 231.895C131.203 231.895 131.936 231.995 132.523 232.195C133.11 232.395 133.576 232.681 133.923 233.055C134.283 233.428 134.536 233.881 134.683 234.415C134.83 234.948 134.903 235.541 134.903 236.195V242.395C134.476 242.488 133.883 242.595 133.123 242.715C132.363 242.848 131.443 242.915 130.363 242.915C129.683 242.915 129.063 242.855 128.503 242.735C127.956 242.615 127.483 242.421 127.083 242.155C126.683 241.875 126.376 241.515 126.163 241.075C125.95 240.635 125.843 240.095 125.843 239.455C125.843 238.841 125.963 238.321 126.203 237.895C126.456 237.468 126.79 237.128 127.203 236.875C127.616 236.621 128.09 236.441 128.623 236.335C129.156 236.215 129.71 236.155 130.283 236.155C130.67 236.155 131.01 236.175 131.303 236.215C131.61 236.241 131.856 236.281 132.043 236.335V236.055C132.043 235.548 131.89 235.141 131.583 234.835C131.276 234.528 130.743 234.375 129.983 234.375C129.476 234.375 128.976 234.415 128.483 234.495C127.99 234.561 127.563 234.661 127.203 234.795L126.823 232.395C126.996 232.341 127.21 232.288 127.463 232.235C127.73 232.168 128.016 232.115 128.323 232.075C128.63 232.021 128.95 231.981 129.283 231.955C129.63 231.915 129.976 231.895 130.323 231.895ZM143.378 237.115C143.378 236.155 143.251 235.475 142.998 235.075C142.758 234.675 142.338 234.475 141.738 234.475C141.551 234.475 141.358 234.488 141.158 234.515C140.958 234.528 140.764 234.548 140.578 234.575V242.695H137.598V232.535C137.851 232.468 138.144 232.401 138.478 232.335C138.824 232.255 139.184 232.188 139.558 232.135C139.944 232.068 140.338 232.021 140.738 231.995C141.138 231.955 141.531 231.935 141.918 231.935C142.678 231.935 143.291 232.035 143.758 232.235C144.238 232.421 144.631 232.648 144.938 232.915C145.364 232.608 145.851 232.368 146.398 232.195C146.958 232.021 147.471 231.935 147.938 231.935C148.778 231.935 149.464 232.055 149.998 232.295C150.544 232.521 150.978 232.848 151.298 233.275C151.618 233.701 151.838 234.208 151.958 234.795C152.078 235.381 152.138 236.035 152.138 236.755V242.695H149.158V237.115C149.158 236.155 149.031 235.475 148.778 235.075C148.538 234.675 148.118 234.475 147.518 234.475C147.358 234.475 147.131 234.515 146.838 234.595C146.558 234.675 146.324 234.775 146.138 234.895C146.231 235.201 146.291 235.528 146.318 235.875C146.344 236.208 146.358 236.568 146.358 236.955V242.695H143.378V237.115ZM154.344 237.515C154.344 236.581 154.484 235.768 154.764 235.075C155.057 234.368 155.437 233.781 155.904 233.315C156.37 232.848 156.904 232.495 157.504 232.255C158.117 232.015 158.744 231.895 159.384 231.895C160.877 231.895 162.057 232.355 162.924 233.275C163.79 234.181 164.224 235.521 164.224 237.295C164.224 237.468 164.217 237.661 164.204 237.875C164.19 238.075 164.177 238.255 164.164 238.415H157.404C157.47 239.028 157.757 239.515 158.264 239.875C158.77 240.235 159.45 240.415 160.304 240.415C160.85 240.415 161.384 240.368 161.904 240.275C162.437 240.168 162.87 240.041 163.204 239.895L163.604 242.315C163.444 242.395 163.23 242.475 162.964 242.555C162.697 242.635 162.397 242.701 162.064 242.755C161.744 242.821 161.397 242.875 161.024 242.915C160.65 242.955 160.277 242.975 159.904 242.975C158.957 242.975 158.13 242.835 157.424 242.555C156.73 242.275 156.15 241.895 155.684 241.415C155.23 240.921 154.89 240.341 154.664 239.675C154.45 239.008 154.344 238.288 154.344 237.515ZM161.344 236.375C161.33 236.121 161.284 235.875 161.204 235.635C161.137 235.395 161.024 235.181 160.864 234.995C160.717 234.808 160.524 234.655 160.284 234.535C160.057 234.415 159.77 234.355 159.424 234.355C159.09 234.355 158.804 234.415 158.564 234.535C158.324 234.641 158.124 234.788 157.964 234.975C157.804 235.161 157.677 235.381 157.584 235.635C157.504 235.875 157.444 236.121 157.404 236.375H161.344ZM166.524 232.535C167.03 232.388 167.684 232.255 168.484 232.135C169.284 232.001 170.124 231.935 171.004 231.935C171.897 231.935 172.637 232.055 173.224 232.295C173.824 232.521 174.297 232.848 174.644 233.275C174.99 233.701 175.237 234.208 175.384 234.795C175.53 235.381 175.604 236.035 175.604 236.755V242.695H172.624V237.115C172.624 236.155 172.497 235.475 172.244 235.075C171.99 234.675 171.517 234.475 170.824 234.475C170.61 234.475 170.384 234.488 170.144 234.515C169.904 234.528 169.69 234.548 169.504 234.575V242.695H166.524V232.535ZM178.201 229.555L181.181 229.075V232.175H184.761V234.655H181.181V238.355C181.181 238.981 181.288 239.481 181.501 239.855C181.728 240.228 182.174 240.415 182.841 240.415C183.161 240.415 183.488 240.388 183.821 240.335C184.168 240.268 184.481 240.181 184.761 240.075L185.181 242.395C184.821 242.541 184.421 242.668 183.981 242.775C183.541 242.881 183.001 242.935 182.361 242.935C181.548 242.935 180.874 242.828 180.341 242.615C179.808 242.388 179.381 242.081 179.061 241.695C178.741 241.295 178.514 240.815 178.381 240.255C178.261 239.695 178.201 239.075 178.201 238.395V229.555ZM196.637 237.415C196.637 238.241 196.517 239.001 196.277 239.695C196.037 240.375 195.69 240.961 195.237 241.455C194.784 241.935 194.237 242.308 193.597 242.575C192.97 242.841 192.264 242.975 191.477 242.975C190.704 242.975 189.997 242.841 189.357 242.575C188.73 242.308 188.19 241.935 187.737 241.455C187.284 240.961 186.93 240.375 186.677 239.695C186.424 239.001 186.297 238.241 186.297 237.415C186.297 236.588 186.424 235.835 186.677 235.155C186.944 234.475 187.304 233.895 187.757 233.415C188.224 232.935 188.77 232.561 189.397 232.295C190.037 232.028 190.73 231.895 191.477 231.895C192.237 231.895 192.93 232.028 193.557 232.295C194.197 232.561 194.744 232.935 195.197 233.415C195.65 233.895 196.004 234.475 196.257 235.155C196.51 235.835 196.637 236.588 196.637 237.415ZM193.597 237.415C193.597 236.495 193.41 235.775 193.037 235.255C192.677 234.721 192.157 234.455 191.477 234.455C190.797 234.455 190.27 234.721 189.897 235.255C189.524 235.775 189.337 236.495 189.337 237.415C189.337 238.335 189.524 239.068 189.897 239.615C190.27 240.148 190.797 240.415 191.477 240.415C192.157 240.415 192.677 240.148 193.037 239.615C193.41 239.068 193.597 238.335 193.597 237.415ZM71.3921 251.835H74.5121V265.695H71.3921V259.815H66.1521V265.695H63.0321V251.835H66.1521V257.135H71.3921V251.835ZM87.3596 260.415C87.3596 261.241 87.2396 262.001 86.9996 262.695C86.7596 263.375 86.4129 263.961 85.9596 264.455C85.5063 264.935 84.9596 265.308 84.3196 265.575C83.6929 265.841 82.9863 265.975 82.1996 265.975C81.4263 265.975 80.7196 265.841 80.0796 265.575C79.4529 265.308 78.9129 264.935 78.4596 264.455C78.0063 263.961 77.6529 263.375 77.3996 262.695C77.1463 262.001 77.0196 261.241 77.0196 260.415C77.0196 259.588 77.1463 258.835 77.3996 258.155C77.6663 257.475 78.0263 256.895 78.4796 256.415C78.9463 255.935 79.4929 255.561 80.1196 255.295C80.7596 255.028 81.4529 254.895 82.1996 254.895C82.9596 254.895 83.6529 255.028 84.2796 255.295C84.9196 255.561 85.4663 255.935 85.9196 256.415C86.3729 256.895 86.7263 257.475 86.9796 258.155C87.2329 258.835 87.3596 259.588 87.3596 260.415ZM84.3196 260.415C84.3196 259.495 84.1329 258.775 83.7596 258.255C83.3996 257.721 82.8796 257.455 82.1996 257.455C81.5196 257.455 80.9929 257.721 80.6196 258.255C80.2463 258.775 80.0596 259.495 80.0596 260.415C80.0596 261.335 80.2463 262.068 80.6196 262.615C80.9929 263.148 81.5196 263.415 82.1996 263.415C82.8796 263.415 83.3996 263.148 83.7596 262.615C84.1329 262.068 84.3196 261.335 84.3196 260.415ZM92.688 263.555C93.2347 263.555 93.6214 263.501 93.848 263.395C94.0747 263.288 94.188 263.081 94.188 262.775C94.188 262.535 94.0414 262.328 93.748 262.155C93.4547 261.968 93.008 261.761 92.408 261.535C91.9414 261.361 91.5147 261.181 91.128 260.995C90.7547 260.808 90.4347 260.588 90.168 260.335C89.9014 260.068 89.6947 259.755 89.548 259.395C89.4014 259.035 89.328 258.601 89.328 258.095C89.328 257.108 89.6947 256.328 90.428 255.755C91.1614 255.181 92.168 254.895 93.448 254.895C94.088 254.895 94.7014 254.955 95.288 255.075C95.8747 255.181 96.3414 255.301 96.688 255.435L96.168 257.755C95.8214 257.635 95.4414 257.528 95.028 257.435C94.628 257.341 94.1747 257.295 93.668 257.295C92.7347 257.295 92.268 257.555 92.268 258.075C92.268 258.195 92.288 258.301 92.328 258.395C92.368 258.488 92.448 258.581 92.568 258.675C92.688 258.755 92.848 258.848 93.048 258.955C93.2614 259.048 93.528 259.155 93.848 259.275C94.5014 259.515 95.0414 259.755 95.468 259.995C95.8947 260.221 96.228 260.475 96.468 260.755C96.7214 261.021 96.8947 261.321 96.988 261.655C97.0947 261.988 97.148 262.375 97.148 262.815C97.148 263.855 96.7547 264.641 95.968 265.175C95.1947 265.708 94.0947 265.975 92.668 265.975C91.7347 265.975 90.9547 265.895 90.328 265.735C89.7147 265.575 89.288 265.441 89.048 265.335L89.548 262.915C90.0547 263.115 90.5747 263.275 91.108 263.395C91.6414 263.501 92.168 263.555 92.688 263.555ZM106.115 260.515C106.115 259.595 105.908 258.861 105.495 258.315C105.082 257.755 104.468 257.475 103.655 257.475C103.388 257.475 103.142 257.488 102.915 257.515C102.688 257.528 102.502 257.548 102.355 257.575V262.955C102.542 263.075 102.782 263.175 103.075 263.255C103.382 263.335 103.688 263.375 103.995 263.375C105.408 263.375 106.115 262.421 106.115 260.515ZM109.155 260.435C109.155 261.248 109.055 261.988 108.855 262.655C108.655 263.321 108.362 263.895 107.975 264.375C107.588 264.855 107.108 265.228 106.535 265.495C105.962 265.761 105.302 265.895 104.555 265.895C104.142 265.895 103.755 265.855 103.395 265.775C103.035 265.695 102.688 265.581 102.355 265.435V269.395H99.3751V255.535C99.6417 255.455 99.9484 255.381 100.295 255.315C100.642 255.235 101.002 255.168 101.375 255.115C101.762 255.061 102.148 255.021 102.535 254.995C102.935 254.955 103.315 254.935 103.675 254.935C104.542 254.935 105.315 255.068 105.995 255.335C106.675 255.588 107.248 255.955 107.715 256.435C108.182 256.901 108.535 257.475 108.775 258.155C109.028 258.835 109.155 259.595 109.155 260.435ZM114.425 265.695H111.445V255.175H114.425V265.695ZM114.705 252.135C114.705 252.681 114.525 253.115 114.165 253.435C113.819 253.741 113.405 253.895 112.925 253.895C112.445 253.895 112.025 253.741 111.665 253.435C111.319 253.115 111.145 252.681 111.145 252.135C111.145 251.588 111.319 251.161 111.665 250.855C112.025 250.535 112.445 250.375 112.925 250.375C113.405 250.375 113.819 250.535 114.165 250.855C114.525 251.161 114.705 251.588 114.705 252.135ZM117.127 252.555L120.107 252.075V255.175H123.687V257.655H120.107V261.355C120.107 261.981 120.213 262.481 120.427 262.855C120.653 263.228 121.1 263.415 121.767 263.415C122.087 263.415 122.413 263.388 122.747 263.335C123.093 263.268 123.407 263.181 123.687 263.075L124.107 265.395C123.747 265.541 123.347 265.668 122.907 265.775C122.467 265.881 121.927 265.935 121.287 265.935C120.473 265.935 119.8 265.828 119.267 265.615C118.733 265.388 118.307 265.081 117.987 264.695C117.667 264.295 117.44 263.815 117.307 263.255C117.187 262.695 117.127 262.075 117.127 261.395V252.555ZM129.743 263.615C130.036 263.615 130.316 263.608 130.583 263.595C130.849 263.581 131.063 263.561 131.223 263.535V261.275C131.103 261.248 130.923 261.221 130.683 261.195C130.443 261.168 130.223 261.155 130.023 261.155C129.743 261.155 129.476 261.175 129.223 261.215C128.983 261.241 128.769 261.301 128.583 261.395C128.396 261.488 128.249 261.615 128.143 261.775C128.036 261.935 127.983 262.135 127.983 262.375C127.983 262.841 128.136 263.168 128.443 263.355C128.763 263.528 129.196 263.615 129.743 263.615ZM129.503 254.895C130.383 254.895 131.116 254.995 131.703 255.195C132.289 255.395 132.756 255.681 133.103 256.055C133.463 256.428 133.716 256.881 133.863 257.415C134.009 257.948 134.083 258.541 134.083 259.195V265.395C133.656 265.488 133.063 265.595 132.303 265.715C131.543 265.848 130.623 265.915 129.543 265.915C128.863 265.915 128.243 265.855 127.683 265.735C127.136 265.615 126.663 265.421 126.263 265.155C125.863 264.875 125.556 264.515 125.343 264.075C125.129 263.635 125.023 263.095 125.023 262.455C125.023 261.841 125.143 261.321 125.383 260.895C125.636 260.468 125.969 260.128 126.383 259.875C126.796 259.621 127.269 259.441 127.803 259.335C128.336 259.215 128.889 259.155 129.463 259.155C129.849 259.155 130.189 259.175 130.483 259.215C130.789 259.241 131.036 259.281 131.223 259.335V259.055C131.223 258.548 131.069 258.141 130.763 257.835C130.456 257.528 129.923 257.375 129.163 257.375C128.656 257.375 128.156 257.415 127.663 257.495C127.169 257.561 126.743 257.661 126.383 257.795L126.003 255.395C126.176 255.341 126.389 255.288 126.643 255.235C126.909 255.168 127.196 255.115 127.503 255.075C127.809 255.021 128.129 254.981 128.463 254.955C128.809 254.915 129.156 254.895 129.503 254.895ZM140.977 265.895C140.111 265.881 139.404 265.788 138.857 265.615C138.324 265.441 137.897 265.201 137.577 264.895C137.271 264.575 137.057 264.195 136.937 263.755C136.831 263.301 136.777 262.795 136.777 262.235V250.655L139.757 250.175V261.635C139.757 261.901 139.777 262.141 139.817 262.355C139.857 262.568 139.931 262.748 140.037 262.895C140.157 263.041 140.324 263.161 140.537 263.255C140.751 263.348 141.037 263.408 141.397 263.435L140.977 265.895ZM147.419 263.615C147.712 263.615 147.992 263.608 148.259 263.595C148.525 263.581 148.739 263.561 148.899 263.535V261.275C148.779 261.248 148.599 261.221 148.359 261.195C148.119 261.168 147.899 261.155 147.699 261.155C147.419 261.155 147.152 261.175 146.899 261.215C146.659 261.241 146.445 261.301 146.259 261.395C146.072 261.488 145.925 261.615 145.819 261.775C145.712 261.935 145.659 262.135 145.659 262.375C145.659 262.841 145.812 263.168 146.119 263.355C146.439 263.528 146.872 263.615 147.419 263.615ZM147.179 254.895C148.059 254.895 148.792 254.995 149.379 255.195C149.965 255.395 150.432 255.681 150.779 256.055C151.139 256.428 151.392 256.881 151.539 257.415C151.685 257.948 151.759 258.541 151.759 259.195V265.395C151.332 265.488 150.739 265.595 149.979 265.715C149.219 265.848 148.299 265.915 147.219 265.915C146.539 265.915 145.919 265.855 145.359 265.735C144.812 265.615 144.339 265.421 143.939 265.155C143.539 264.875 143.232 264.515 143.019 264.075C142.805 263.635 142.699 263.095 142.699 262.455C142.699 261.841 142.819 261.321 143.059 260.895C143.312 260.468 143.645 260.128 144.059 259.875C144.472 259.621 144.945 259.441 145.479 259.335C146.012 259.215 146.565 259.155 147.139 259.155C147.525 259.155 147.865 259.175 148.159 259.215C148.465 259.241 148.712 259.281 148.899 259.335V259.055C148.899 258.548 148.745 258.141 148.439 257.835C148.132 257.528 147.599 257.375 146.839 257.375C146.332 257.375 145.832 257.415 145.339 257.495C144.845 257.561 144.419 257.661 144.059 257.795L143.679 255.395C143.852 255.341 144.065 255.288 144.319 255.235C144.585 255.168 144.872 255.115 145.179 255.075C145.485 255.021 145.805 254.981 146.139 254.955C146.485 254.915 146.832 254.895 147.179 254.895ZM160.793 257.815C160.527 257.748 160.213 257.681 159.853 257.615C159.493 257.535 159.107 257.495 158.693 257.495C158.507 257.495 158.28 257.515 158.013 257.555C157.76 257.581 157.567 257.615 157.433 257.655V265.695H154.453V255.735C154.987 255.548 155.613 255.375 156.333 255.215C157.067 255.041 157.88 254.955 158.773 254.955C158.933 254.955 159.127 254.968 159.353 254.995C159.58 255.008 159.807 255.035 160.033 255.075C160.26 255.101 160.487 255.141 160.713 255.195C160.94 255.235 161.133 255.288 161.293 255.355L160.793 257.815Z" fill="white"/>
<defs>
<clipPath id="clip0">
<rect width="192.916" height="192.916" fill="white" transform="translate(15.0029 0.915527)"/>
</clipPath>
</defs>
</svg>
