<svg width="200" height="278" viewBox="0 0 200 278" fill="none" xmlns="http://www.w3.org/2000/svg">
<path d="M48.0208 267.46C48.1674 267.473 48.3341 267.487 48.5208 267.5C48.7208 267.5 48.9541 267.5 49.2208 267.5C50.7808 267.5 51.9341 267.107 52.6808 266.32C53.4408 265.533 53.8208 264.447 53.8208 263.06C53.8208 261.607 53.4608 260.507 52.7408 259.76C52.0208 259.013 50.8808 258.64 49.3208 258.64C49.1074 258.64 48.8874 258.647 48.6608 258.66C48.4341 258.66 48.2208 258.673 48.0208 258.7V267.46ZM57.0408 263.06C57.0408 264.26 56.8541 265.307 56.4808 266.2C56.1074 267.093 55.5741 267.833 54.8808 268.42C54.2008 269.007 53.3674 269.447 52.3808 269.74C51.3941 270.033 50.2874 270.18 49.0608 270.18C48.5008 270.18 47.8474 270.153 47.1008 270.1C46.3541 270.06 45.6208 269.967 44.9008 269.82V256.32C45.6208 256.187 46.3674 256.1 47.1408 256.06C47.9274 256.007 48.6008 255.98 49.1608 255.98C50.3474 255.98 51.4208 256.113 52.3808 256.38C53.3541 256.647 54.1874 257.067 54.8808 257.64C55.5741 258.213 56.1074 258.947 56.4808 259.84C56.8541 260.733 57.0408 261.807 57.0408 263.06ZM62.4269 270H59.4469V259.48H62.4269V270ZM62.7069 256.44C62.7069 256.987 62.5269 257.42 62.1669 257.74C61.8202 258.047 61.4069 258.2 60.9269 258.2C60.4469 258.2 60.0269 258.047 59.6669 257.74C59.3202 257.42 59.1469 256.987 59.1469 256.44C59.1469 255.893 59.3202 255.467 59.6669 255.16C60.0269 254.84 60.4469 254.68 60.9269 254.68C61.4069 254.68 61.8202 254.84 62.1669 255.16C62.5269 255.467 62.7069 255.893 62.7069 256.44ZM69.2481 267.92C69.5415 267.92 69.8215 267.913 70.0881 267.9C70.3548 267.887 70.5681 267.867 70.7281 267.84V265.58C70.6081 265.553 70.4281 265.527 70.1881 265.5C69.9481 265.473 69.7281 265.46 69.5281 265.46C69.2481 265.46 68.9815 265.48 68.7281 265.52C68.4881 265.547 68.2748 265.607 68.0881 265.7C67.9015 265.793 67.7548 265.92 67.6481 266.08C67.5415 266.24 67.4881 266.44 67.4881 266.68C67.4881 267.147 67.6415 267.473 67.9481 267.66C68.2681 267.833 68.7015 267.92 69.2481 267.92ZM69.0081 259.2C69.8881 259.2 70.6215 259.3 71.2081 259.5C71.7948 259.7 72.2615 259.987 72.6081 260.36C72.9681 260.733 73.2215 261.187 73.3681 261.72C73.5148 262.253 73.5881 262.847 73.5881 263.5V269.7C73.1615 269.793 72.5681 269.9 71.8081 270.02C71.0481 270.153 70.1281 270.22 69.0481 270.22C68.3681 270.22 67.7481 270.16 67.1881 270.04C66.6415 269.92 66.1681 269.727 65.7681 269.46C65.3681 269.18 65.0615 268.82 64.8481 268.38C64.6348 267.94 64.5281 267.4 64.5281 266.76C64.5281 266.147 64.6481 265.627 64.8881 265.2C65.1415 264.773 65.4748 264.433 65.8881 264.18C66.3015 263.927 66.7748 263.747 67.3081 263.64C67.8415 263.52 68.3948 263.46 68.9681 263.46C69.3548 263.46 69.6948 263.48 69.9881 263.52C70.2948 263.547 70.5415 263.587 70.7281 263.64V263.36C70.7281 262.853 70.5748 262.447 70.2681 262.14C69.9615 261.833 69.4281 261.68 68.6681 261.68C68.1615 261.68 67.6615 261.72 67.1681 261.8C66.6748 261.867 66.2481 261.967 65.8881 262.1L65.5081 259.7C65.6815 259.647 65.8948 259.593 66.1481 259.54C66.4148 259.473 66.7015 259.42 67.0081 259.38C67.3148 259.327 67.6348 259.287 67.9681 259.26C68.3148 259.22 68.6615 259.2 69.0081 259.2ZM78.8228 264.4C78.8228 266.067 79.4961 266.9 80.8428 266.9C81.1495 266.9 81.4361 266.86 81.7028 266.78C81.9695 266.7 82.1961 266.607 82.3828 266.5V261.74C82.2361 261.713 82.0628 261.693 81.8628 261.68C81.6628 261.653 81.4295 261.64 81.1628 261.64C80.3761 261.64 79.7895 261.9 79.4028 262.42C79.0161 262.94 78.8228 263.6 78.8228 264.4ZM85.3628 268.68C85.3628 270.4 84.9228 271.673 84.0428 272.5C83.1761 273.34 81.8295 273.76 80.0028 273.76C79.3628 273.76 78.7228 273.7 78.0828 273.58C77.4428 273.473 76.8495 273.327 76.3028 273.14L76.8228 270.64C77.2895 270.827 77.7761 270.973 78.2828 271.08C78.8028 271.187 79.3895 271.24 80.0428 271.24C80.8961 271.24 81.4961 271.053 81.8428 270.68C82.2028 270.307 82.3828 269.827 82.3828 269.24V268.86C82.0628 269.007 81.7295 269.12 81.3828 269.2C81.0495 269.267 80.6828 269.3 80.2828 269.3C78.8295 269.3 77.7161 268.873 76.9428 268.02C76.1695 267.153 75.7828 265.947 75.7828 264.4C75.7828 263.627 75.9028 262.927 76.1428 262.3C76.3828 261.66 76.7295 261.113 77.1828 260.66C77.6495 260.207 78.2161 259.86 78.8828 259.62C79.5495 259.367 80.3028 259.24 81.1428 259.24C81.5028 259.24 81.8695 259.26 82.2428 259.3C82.6295 259.327 83.0095 259.367 83.3828 259.42C83.7561 259.473 84.1095 259.54 84.4428 259.62C84.7895 259.687 85.0961 259.76 85.3628 259.84V268.68ZM88.1578 259.84C88.6645 259.693 89.3178 259.56 90.1178 259.44C90.9178 259.307 91.7578 259.24 92.6378 259.24C93.5311 259.24 94.2711 259.36 94.8578 259.6C95.4578 259.827 95.9311 260.153 96.2778 260.58C96.6245 261.007 96.8711 261.513 97.0178 262.1C97.1645 262.687 97.2378 263.34 97.2378 264.06V270H94.2578V264.42C94.2578 263.46 94.1311 262.78 93.8778 262.38C93.6245 261.98 93.1511 261.78 92.4578 261.78C92.2445 261.78 92.0178 261.793 91.7778 261.82C91.5378 261.833 91.3245 261.853 91.1378 261.88V270H88.1578V259.84ZM109.775 264.72C109.775 265.547 109.655 266.307 109.415 267C109.175 267.68 108.828 268.267 108.375 268.76C107.922 269.24 107.375 269.613 106.735 269.88C106.108 270.147 105.402 270.28 104.615 270.28C103.842 270.28 103.135 270.147 102.495 269.88C101.868 269.613 101.328 269.24 100.875 268.76C100.422 268.267 100.068 267.68 99.8152 267C99.5618 266.307 99.4352 265.547 99.4352 264.72C99.4352 263.893 99.5618 263.14 99.8152 262.46C100.082 261.78 100.442 261.2 100.895 260.72C101.362 260.24 101.908 259.867 102.535 259.6C103.175 259.333 103.868 259.2 104.615 259.2C105.375 259.2 106.068 259.333 106.695 259.6C107.335 259.867 107.882 260.24 108.335 260.72C108.788 261.2 109.142 261.78 109.395 262.46C109.648 263.14 109.775 263.893 109.775 264.72ZM106.735 264.72C106.735 263.8 106.548 263.08 106.175 262.56C105.815 262.027 105.295 261.76 104.615 261.76C103.935 261.76 103.408 262.027 103.035 262.56C102.662 263.08 102.475 263.8 102.475 264.72C102.475 265.64 102.662 266.373 103.035 266.92C103.408 267.453 103.935 267.72 104.615 267.72C105.295 267.72 105.815 267.453 106.175 266.92C106.548 266.373 106.735 265.64 106.735 264.72ZM107.075 255.7L103.775 258.48L102.415 257.26L105.255 254.02L107.075 255.7ZM115.104 267.86C115.65 267.86 116.037 267.807 116.264 267.7C116.49 267.593 116.604 267.387 116.604 267.08C116.604 266.84 116.457 266.633 116.164 266.46C115.87 266.273 115.424 266.067 114.824 265.84C114.357 265.667 113.93 265.487 113.544 265.3C113.17 265.113 112.85 264.893 112.584 264.64C112.317 264.373 112.11 264.06 111.964 263.7C111.817 263.34 111.744 262.907 111.744 262.4C111.744 261.413 112.11 260.633 112.844 260.06C113.577 259.487 114.584 259.2 115.864 259.2C116.504 259.2 117.117 259.26 117.704 259.38C118.29 259.487 118.757 259.607 119.104 259.74L118.584 262.06C118.237 261.94 117.857 261.833 117.444 261.74C117.044 261.647 116.59 261.6 116.084 261.6C115.15 261.6 114.684 261.86 114.684 262.38C114.684 262.5 114.704 262.607 114.744 262.7C114.784 262.793 114.864 262.887 114.984 262.98C115.104 263.06 115.264 263.153 115.464 263.26C115.677 263.353 115.944 263.46 116.264 263.58C116.917 263.82 117.457 264.06 117.884 264.3C118.31 264.527 118.644 264.78 118.884 265.06C119.137 265.327 119.31 265.627 119.404 265.96C119.51 266.293 119.564 266.68 119.564 267.12C119.564 268.16 119.17 268.947 118.384 269.48C117.61 270.013 116.51 270.28 115.084 270.28C114.15 270.28 113.37 270.2 112.744 270.04C112.13 269.88 111.704 269.747 111.464 269.64L111.964 267.22C112.47 267.42 112.99 267.58 113.524 267.7C114.057 267.807 114.584 267.86 115.104 267.86ZM121.691 256.86L124.671 256.38V259.48H128.251V261.96H124.671V265.66C124.671 266.287 124.777 266.787 124.991 267.16C125.217 267.533 125.664 267.72 126.331 267.72C126.651 267.72 126.977 267.693 127.311 267.64C127.657 267.573 127.971 267.487 128.251 267.38L128.671 269.7C128.311 269.847 127.911 269.973 127.471 270.08C127.031 270.187 126.491 270.24 125.851 270.24C125.037 270.24 124.364 270.133 123.831 269.92C123.297 269.693 122.871 269.387 122.551 269C122.231 268.6 122.004 268.12 121.871 267.56C121.751 267 121.691 266.38 121.691 265.7V256.86ZM133.657 270H130.677V259.48H133.657V270ZM133.937 256.44C133.937 256.987 133.757 257.42 133.397 257.74C133.051 258.047 132.637 258.2 132.157 258.2C131.677 258.2 131.257 258.047 130.897 257.74C130.551 257.42 130.377 256.987 130.377 256.44C130.377 255.893 130.551 255.467 130.897 255.16C131.257 254.84 131.677 254.68 132.157 254.68C132.637 254.68 133.051 254.84 133.397 255.16C133.757 255.467 133.937 255.893 133.937 256.44ZM135.959 264.74C135.959 263.98 136.079 263.267 136.319 262.6C136.572 261.92 136.932 261.333 137.399 260.84C137.865 260.333 138.432 259.933 139.099 259.64C139.765 259.347 140.525 259.2 141.379 259.2C141.939 259.2 142.452 259.253 142.919 259.36C143.385 259.453 143.839 259.593 144.279 259.78L143.659 262.16C143.379 262.053 143.072 261.96 142.739 261.88C142.405 261.8 142.032 261.76 141.619 261.76C140.739 261.76 140.079 262.033 139.639 262.58C139.212 263.127 138.999 263.847 138.999 264.74C138.999 265.687 139.199 266.42 139.599 266.94C140.012 267.46 140.725 267.72 141.739 267.72C142.099 267.72 142.485 267.687 142.899 267.62C143.312 267.553 143.692 267.447 144.039 267.3L144.459 269.74C144.112 269.887 143.679 270.013 143.159 270.12C142.639 270.227 142.065 270.28 141.439 270.28C140.479 270.28 139.652 270.14 138.959 269.86C138.265 269.567 137.692 269.173 137.239 268.68C136.799 268.187 136.472 267.607 136.259 266.94C136.059 266.26 135.959 265.527 135.959 264.74ZM155.791 264.72C155.791 265.547 155.671 266.307 155.431 267C155.191 267.68 154.844 268.267 154.391 268.76C153.937 269.24 153.391 269.613 152.751 269.88C152.124 270.147 151.417 270.28 150.631 270.28C149.857 270.28 149.151 270.147 148.511 269.88C147.884 269.613 147.344 269.24 146.891 268.76C146.437 268.267 146.084 267.68 145.831 267C145.577 266.307 145.451 265.547 145.451 264.72C145.451 263.893 145.577 263.14 145.831 262.46C146.097 261.78 146.457 261.2 146.911 260.72C147.377 260.24 147.924 259.867 148.551 259.6C149.191 259.333 149.884 259.2 150.631 259.2C151.391 259.2 152.084 259.333 152.711 259.6C153.351 259.867 153.897 260.24 154.351 260.72C154.804 261.2 155.157 261.78 155.411 262.46C155.664 263.14 155.791 263.893 155.791 264.72ZM152.751 264.72C152.751 263.8 152.564 263.08 152.191 262.56C151.831 262.027 151.311 261.76 150.631 261.76C149.951 261.76 149.424 262.027 149.051 262.56C148.677 263.08 148.491 263.8 148.491 264.72C148.491 265.64 148.677 266.373 149.051 266.92C149.424 267.453 149.951 267.72 150.631 267.72C151.311 267.72 151.831 267.453 152.191 266.92C152.564 266.373 152.751 265.64 152.751 264.72Z" fill="white"/>
<circle cx="100.944" cy="100.943" r="91.8519" fill="#00ACE2"/>
<path d="M36.4524 76.1322V81.3463C36.4524 92.3111 42.3474 102.537 51.836 108.032L60.9739 113.324H78.6977L87.8352 108.032C97.3239 102.537 103.219 92.3111 103.219 81.3463V76.1326C109.331 70.7854 112.809 63.0131 112.645 54.7768C112.35 39.9596 100.052 27.8111 85.2286 27.6951C85.1544 27.6947 85.0813 27.6943 85.0075 27.6943C79.5438 27.6943 74.3079 29.276 69.836 32.224C65.3634 29.2756 60.1286 27.6943 54.6645 27.6943C54.5911 27.6943 54.5173 27.6947 54.4438 27.6951C39.6208 27.8111 27.3216 39.9596 27.027 54.7764C26.863 63.0127 30.3399 70.7846 36.4524 76.1322ZM54.5348 39.4135C58.7513 39.3768 62.7317 40.9779 65.754 43.9131L69.836 47.8768L73.9177 43.9127C76.9388 40.9779 80.929 39.3686 85.1368 39.4135C93.6747 39.4799 100.759 46.4764 100.928 55.0092C101.035 60.3775 98.4571 65.4041 94.0329 68.4553L91.5001 70.2021V81.3459C91.5001 88.1439 87.8458 94.4838 81.9622 97.8904L75.6954 101.52V77.6658H63.9766V101.52L57.7095 97.8904C51.8259 94.4834 48.1716 88.1439 48.1716 81.3459V70.2025L45.6391 68.4557C41.2145 65.4037 38.6368 60.3775 38.7438 55.0092C38.9126 46.4768 45.997 39.4799 54.5348 39.4135Z" fill="white"/>
<path d="M200 166.797V0H0V166.797H74.7234V173.828C74.7234 181.798 68.2398 188.281 60.2703 188.281H43.2293V200H156.771V188.281H139.73C131.76 188.281 125.277 181.798 125.277 173.828V166.797H200ZM188.281 11.7188V128.125H11.7188V11.7188H188.281ZM11.7188 155.078V139.844H188.281V155.078H11.7188ZM117.925 188.281H82.0754C84.8316 184.137 86.4422 179.168 86.4422 173.828V166.797H113.558V173.828C113.558 179.168 115.168 184.137 117.925 188.281Z" fill="white"/>
<path d="M126.562 40.583H173.047V52.3018H126.562V40.583Z" fill="white"/>
<path d="M126.562 64.6064H173.047V76.3252H126.562V64.6064Z" fill="white"/>
<path d="M126.562 88.6299H173.047V100.349H126.562V88.6299Z" fill="white"/>
</svg>
