<svg width="232" height="60" viewBox="0 0 232 60" fill="none" xmlns="http://www.w3.org/2000/svg">
<path d="M59.2058 36.6857C57.6022 36.1664 56.3338 35.4727 55.4004 34.613L56.8324 31.1783C57.7458 31.9486 58.8667 32.5785 60.195 33.0637C61.5233 33.5532 62.8556 33.7958 64.1919 33.7958C65.8472 33.7958 67.0838 33.5106 67.9015 32.9446C68.7192 32.3785 69.1301 31.6294 69.1301 30.7016C69.1301 30.0206 68.9027 29.4588 68.444 29.0204C67.9853 28.5778 67.4069 28.2331 66.7088 27.9819C66.0068 27.7351 65.0535 27.4499 63.8408 27.1307C62.1416 26.7009 60.7654 26.271 59.7163 25.8369C58.6633 25.407 57.7618 24.7303 57.0079 23.8152C56.254 22.8959 55.8751 21.6574 55.8751 20.0911C55.8751 18.776 56.2101 17.58 56.8803 16.5032C57.5504 15.4264 58.5596 14.5709 59.9078 13.9368C61.2561 13.3026 62.9074 12.9834 64.862 12.9834C66.2222 12.9834 67.5585 13.1664 68.8748 13.5282C70.1911 13.89 71.3279 14.4135 72.2853 15.0902L70.9769 18.5249C69.9997 17.912 68.9825 17.4481 67.9175 17.1331C66.8564 16.8139 65.8233 16.6564 64.8261 16.6564C63.1907 16.6564 61.974 16.9501 61.1763 17.5417C60.3785 18.1333 59.9796 18.9122 59.9796 19.8868C59.9796 20.5678 60.207 21.1211 60.6657 21.551C61.1204 21.9808 61.7028 22.3213 62.4009 22.5724C63.1029 22.8235 64.0562 23.1044 65.2689 23.4236C66.9242 23.8322 68.2844 24.2578 69.3455 24.7005C70.4065 25.1431 71.316 25.8156 72.0699 26.7221C72.8238 27.6287 73.2027 28.8544 73.2027 30.3952C73.2027 31.7103 72.8676 32.8978 72.1975 33.966C71.5274 35.0301 70.5142 35.8813 69.154 36.5154C67.7938 37.1496 66.1384 37.4688 64.1839 37.4688C62.4727 37.4646 60.8093 37.2049 59.2058 36.6857Z" fill="#00309E"/>
<path d="M79.7097 34.6943C77.9905 32.8472 77.1289 30.2041 77.1289 26.7567V13.3286H81.2694V26.5864C81.2694 31.2554 83.1601 33.5877 86.9415 33.5877C90.699 33.5877 92.5818 31.2554 92.5818 26.5864V13.3286H96.6584V26.7567C96.6584 30.1999 95.8048 32.8472 94.0936 34.6943C92.3823 36.5415 89.989 37.465 86.9096 37.465C83.8302 37.465 81.4289 36.5415 79.7097 34.6943Z" fill="#00309E"/>
<path d="M116.677 14.3501C118.109 15.0311 119.21 16.0057 119.976 17.274C120.742 18.5424 121.125 20.049 121.125 21.794C121.125 23.5178 120.742 25.0202 119.976 26.297C119.21 27.5781 118.113 28.557 116.677 29.238C115.245 29.9189 113.562 30.2594 111.628 30.2594H106.594V37.1245H102.453V13.3286H111.628C113.562 13.3286 115.245 13.6691 116.677 14.3501ZM115.549 25.2968C116.482 24.4796 116.949 23.3135 116.949 21.794C116.949 20.2746 116.482 19.1084 115.549 18.2912C114.615 17.4741 113.243 17.0655 111.44 17.0655H106.598V26.5141H111.44C113.243 26.5183 114.615 26.114 115.549 25.2968Z" fill="#00309E"/>
<path d="M141.991 33.4217V37.1288H125.266V13.3286H141.544V17.0357H129.406V23.2241H140.176V26.8631H129.406V33.426H141.991V33.4217Z" fill="#00309E"/>
<path d="M161.203 37.1245L156.647 30.1573C156.456 30.1786 156.169 30.1913 155.786 30.1913H150.752V37.1245H146.611V13.3286H155.786C157.716 13.3286 159.404 13.6691 160.836 14.3501C162.268 15.0311 163.369 16.0057 164.134 17.274C164.9 18.5424 165.283 20.049 165.283 21.794C165.283 23.5858 164.872 25.1266 164.055 26.4162C163.237 27.7058 162.064 28.6719 160.532 29.3061L165.662 37.1245H161.203ZM159.707 18.2955C158.773 17.4783 157.401 17.0697 155.598 17.0697H150.756V26.5524H155.598C157.405 26.5524 158.773 26.1395 159.707 25.3096C160.64 24.4839 161.107 23.3092 161.107 21.7898C161.107 20.2788 160.64 19.1084 159.707 18.2955Z" fill="#00309E"/>
<path d="M23.2784 23.7876L23.3302 23.762C23.3143 23.7365 23.2983 23.7067 23.2863 23.6812C23.2704 23.6854 23.2504 23.6854 23.2305 23.6897L11.7346 29.163C9.99941 29.9887 7.9611 29.1545 7.18726 27.3074C6.41342 25.4602 7.19523 23.2811 8.9264 22.4554L20.4303 16.982L17.666 10.368L17.6899 10.3553C17.662 10.3297 17.6341 10.3042 17.6142 10.2744L6.12223 15.7435C0.916757 18.2206 -1.42471 24.7494 0.896812 30.3037C3.21833 35.8536 9.34125 38.3562 14.5427 35.8792L26.0466 30.4016L23.2784 23.7876Z" fill="#75B7F0"/>
<path d="M28.4401 37.0259L12.4453 44.6396L15.1332 51.0682L31.128 43.4545L28.4401 37.0259Z" fill="#75B7F0"/>
<path d="M45.4639 17.4802C43.7167 13.0836 39.5723 10.547 35.3401 10.8619C35.3361 9.45316 35.0768 8.01885 34.5304 6.64412C32.3325 1.11118 26.3253 -1.48079 21.1397 0.864324L15.0527 3.61803L17.7133 10.3086L23.8003 7.55493C25.5275 6.77181 27.5299 7.6358 28.2599 9.47869C28.9938 11.3216 28.1841 13.4582 26.4569 14.237L20.3699 16.9907L23.0305 23.6813L26.8558 21.9491L34.7338 18.3825C36.461 17.5994 38.4634 18.4633 39.1934 20.3062C39.9273 22.1491 39.1176 24.2857 37.3904 25.0646L25.703 30.3592L28.3636 37.0498L40.047 31.7637C45.2325 29.4186 47.6617 23.0089 45.4639 17.4802Z" fill="#75B7F0"/>
<path d="M171.878 49.5325C170.82 49.5325 169.795 49.3924 168.801 49.1121C167.82 48.8191 167.03 48.4433 166.432 47.9847L167.483 45.6534C168.056 46.0738 168.737 46.4114 169.527 46.6662C170.317 46.921 171.107 47.0484 171.897 47.0484C172.776 47.0484 173.425 46.921 173.846 46.6662C174.266 46.3987 174.476 46.0483 174.476 45.6152C174.476 45.2967 174.349 45.0356 174.094 44.8317C173.852 44.6152 173.534 44.4432 173.139 44.3158C172.757 44.1884 172.234 44.0483 171.572 43.8954C170.553 43.6534 169.718 43.4113 169.069 43.1693C168.419 42.9272 167.858 42.5387 167.387 42.0036C166.928 41.4686 166.699 40.7552 166.699 39.8634C166.699 39.0864 166.909 38.3857 167.33 37.7615C167.75 37.1245 168.381 36.6213 169.221 36.2519C170.075 35.8824 171.113 35.6977 172.336 35.6977C173.19 35.6977 174.024 35.7996 174.839 36.0035C175.655 36.2073 176.368 36.5003 176.98 36.8825L176.024 39.2329C174.788 38.5322 173.553 38.1819 172.317 38.1819C171.451 38.1819 170.807 38.322 170.387 38.6023C169.979 38.8825 169.776 39.252 169.776 39.7106C169.776 40.1692 170.011 40.5131 170.483 40.7425C170.967 40.959 171.699 41.1756 172.68 41.3922C173.699 41.6342 174.534 41.8762 175.183 42.1183C175.833 42.3603 176.387 42.7425 176.846 43.2648C177.317 43.7871 177.553 44.4942 177.553 45.3859C177.553 46.1503 177.336 46.8509 176.903 47.4879C176.483 48.1121 175.846 48.6089 174.992 48.9784C174.139 49.3478 173.101 49.5325 171.878 49.5325ZM183.605 38.8698C185.197 38.8698 186.42 39.252 187.273 40.0163C188.127 40.7679 188.554 41.9081 188.554 43.4368V49.3032H185.764V48.0229C185.203 48.9784 184.159 49.4561 182.63 49.4561C181.84 49.4561 181.152 49.3223 180.566 49.0548C179.993 48.7873 179.553 48.4178 179.248 47.9465C178.942 47.4751 178.789 46.9401 178.789 46.3413C178.789 45.3859 179.146 44.6343 179.859 44.0865C180.585 43.5387 181.7 43.2648 183.203 43.2648H185.573C185.573 42.6151 185.375 42.1183 184.98 41.7743C184.585 41.4176 183.993 41.2393 183.203 41.2393C182.656 41.2393 182.114 41.3285 181.579 41.5068C181.057 41.6724 180.611 41.9017 180.241 42.1947L179.171 40.1119C179.732 39.7169 180.401 39.4112 181.178 39.1946C181.968 38.9781 182.777 38.8698 183.605 38.8698ZM183.375 47.4497C183.885 47.4497 184.337 47.335 184.732 47.1057C185.127 46.8637 185.407 46.5133 185.573 46.0547V45.0037H183.528C182.305 45.0037 181.694 45.405 181.694 46.2076C181.694 46.5898 181.84 46.8955 182.133 47.1248C182.439 47.3414 182.853 47.4497 183.375 47.4497ZM201.609 39.0227V49.3032H198.781V48.0803C198.386 48.5261 197.914 48.8701 197.367 49.1121C196.819 49.3414 196.226 49.4561 195.589 49.4561C194.239 49.4561 193.169 49.0675 192.379 48.2905C191.589 47.5134 191.194 46.3605 191.194 44.8317V39.0227H194.175V44.3922C194.175 46.0483 194.87 46.8764 196.258 46.8764C196.972 46.8764 197.545 46.6471 197.978 46.1885C198.411 45.7171 198.628 45.0228 198.628 44.1056V39.0227H201.609ZM197.233 34.9525H200.443L196.984 37.7041H194.653L197.233 34.9525ZM214.842 35.1244V49.3032H211.995V48.1185C211.256 49.0102 210.186 49.4561 208.785 49.4561C207.816 49.4561 206.937 49.2395 206.148 48.8064C205.37 48.3733 204.759 47.7554 204.313 46.9528C203.867 46.1503 203.644 45.2203 203.644 44.1629C203.644 43.1056 203.867 42.1756 204.313 41.373C204.759 40.5705 205.37 39.9526 206.148 39.5195C206.937 39.0864 207.816 38.8698 208.785 38.8698C210.097 38.8698 211.122 39.2838 211.861 40.1119V35.1244H214.842ZM209.3 47.0102C210.052 47.0102 210.676 46.7554 211.173 46.2458C211.67 45.7235 211.918 45.0292 211.918 44.1629C211.918 43.2967 211.67 42.6088 211.173 42.0992C210.676 41.5769 210.052 41.3157 209.3 41.3157C208.536 41.3157 207.906 41.5769 207.409 42.0992C206.912 42.6088 206.663 43.2967 206.663 44.1629C206.663 45.0292 206.912 45.7235 207.409 46.2458C207.906 46.7554 208.536 47.0102 209.3 47.0102ZM227.671 44.2012C227.671 44.2394 227.652 44.5069 227.614 45.0037H219.837C219.977 45.6407 220.308 46.1439 220.83 46.5133C221.353 46.8828 222.002 47.0675 222.78 47.0675C223.315 47.0675 223.786 46.9911 224.194 46.8382C224.614 46.6726 225.003 46.4178 225.359 46.0738L226.945 47.7936C225.977 48.9019 224.563 49.4561 222.703 49.4561C221.544 49.4561 220.518 49.2332 219.627 48.7873C218.735 48.3287 218.047 47.6981 217.563 46.8955C217.079 46.0929 216.837 45.1821 216.837 44.1629C216.837 43.1565 217.072 42.2521 217.544 41.4495C218.028 40.6342 218.684 40.0036 219.512 39.5577C220.353 39.0991 221.289 38.8698 222.321 38.8698C223.327 38.8698 224.238 39.0864 225.053 39.5195C225.869 39.9526 226.506 40.5768 226.964 41.3922C227.436 42.1947 227.671 43.1311 227.671 44.2012ZM222.34 41.1246C221.665 41.1246 221.098 41.3157 220.639 41.6979C220.181 42.0801 219.9 42.6024 219.799 43.2648H224.862C224.76 42.6151 224.48 42.0992 224.022 41.717C223.563 41.3221 223.002 41.1246 222.34 41.1246Z" fill="#75B7F0"/>
</svg>
