<svg width="232" height="60" viewBox="0 0 232 60" fill="none" xmlns="http://www.w3.org/2000/svg">
<path d="M59.2058 36.6857C57.6022 36.1664 56.3338 35.4727 55.4004 34.613L56.8324 31.1783C57.7458 31.9486 58.8667 32.5785 60.195 33.0637C61.5233 33.5532 62.8556 33.7958 64.1919 33.7958C65.8472 33.7958 67.0838 33.5106 67.9015 32.9446C68.7192 32.3785 69.1301 31.6294 69.1301 30.7016C69.1301 30.0206 68.9027 29.4588 68.444 29.0204C67.9853 28.5778 67.4069 28.2331 66.7088 27.9819C66.0068 27.7351 65.0535 27.4499 63.8408 27.1307C62.1416 26.7009 60.7654 26.271 59.7163 25.8369C58.6633 25.407 57.7618 24.7303 57.0079 23.8152C56.254 22.8959 55.8751 21.6574 55.8751 20.0911C55.8751 18.776 56.2101 17.58 56.8803 16.5032C57.5504 15.4264 58.5596 14.5709 59.9078 13.9368C61.2561 13.3026 62.9074 12.9834 64.862 12.9834C66.2222 12.9834 67.5585 13.1664 68.8748 13.5282C70.1911 13.89 71.3279 14.4135 72.2853 15.0902L70.9769 18.5249C69.9997 17.912 68.9825 17.4481 67.9175 17.1331C66.8564 16.8139 65.8233 16.6564 64.8261 16.6564C63.1907 16.6564 61.974 16.9501 61.1763 17.5417C60.3785 18.1333 59.9796 18.9122 59.9796 19.8868C59.9796 20.5678 60.207 21.1211 60.6657 21.551C61.1204 21.9808 61.7028 22.3213 62.4009 22.5724C63.1029 22.8235 64.0562 23.1044 65.2689 23.4236C66.9242 23.8322 68.2844 24.2578 69.3455 24.7005C70.4065 25.1431 71.316 25.8156 72.0699 26.7221C72.8238 27.6287 73.2027 28.8544 73.2027 30.3952C73.2027 31.7103 72.8676 32.8978 72.1975 33.966C71.5274 35.0301 70.5142 35.8813 69.154 36.5154C67.7938 37.1496 66.1384 37.4688 64.1839 37.4688C62.4727 37.4646 60.8093 37.2049 59.2058 36.6857Z" fill="#00309E"/>
<path d="M79.7097 34.6938C77.9905 32.8467 77.1289 30.2036 77.1289 26.7562V13.3281H81.2694V26.5859C81.2694 31.2549 83.1601 33.5872 86.9415 33.5872C90.699 33.5872 92.5818 31.2549 92.5818 26.5859V13.3281H96.6584V26.7562C96.6584 30.1994 95.8048 32.8467 94.0936 34.6938C92.3823 36.541 89.989 37.4645 86.9096 37.4645C83.8302 37.4645 81.4289 36.541 79.7097 34.6938Z" fill="#00309E"/>
<path d="M116.677 14.3496C118.109 15.0306 119.21 16.0052 119.976 17.2735C120.742 18.5419 121.125 20.0485 121.125 21.7935C121.125 23.5173 120.742 25.0197 119.976 26.2965C119.21 27.5776 118.113 28.5565 116.677 29.2375C115.245 29.9185 113.562 30.2589 111.628 30.2589H106.594V37.1241H102.453V13.3281H111.628C113.562 13.3281 115.245 13.6686 116.677 14.3496ZM115.549 25.2963C116.482 24.4791 116.949 23.313 116.949 21.7935C116.949 20.2741 116.482 19.1079 115.549 18.2908C114.615 17.4736 113.243 17.065 111.44 17.065H106.598V26.5136H111.44C113.243 26.5178 114.615 26.1135 115.549 25.2963Z" fill="#00309E"/>
<path d="M141.991 33.4212V37.1283H125.266V13.3281H141.544V17.0352H129.406V23.2236H140.176V26.8626H129.406V33.4255H141.991V33.4212Z" fill="#00309E"/>
<path d="M161.203 37.1241L156.647 30.1568C156.456 30.1781 156.169 30.1908 155.786 30.1908H150.752V37.1241H146.611V13.3281H155.786C157.716 13.3281 159.404 13.6686 160.836 14.3496C162.268 15.0306 163.369 16.0052 164.134 17.2735C164.9 18.5419 165.283 20.0485 165.283 21.7935C165.283 23.5854 164.872 25.1261 164.055 26.4157C163.237 27.7053 162.064 28.6714 160.532 29.3056L165.662 37.1241H161.203ZM159.707 18.295C158.773 17.4778 157.401 17.0692 155.598 17.0692H150.756V26.5519H155.598C157.405 26.5519 158.773 26.139 159.707 25.3091C160.64 24.4834 161.107 23.3087 161.107 21.7893C161.107 20.2784 160.64 19.1079 159.707 18.295Z" fill="#00309E"/>
<path d="M23.2784 23.7876L23.3302 23.762C23.3143 23.7365 23.2983 23.7067 23.2863 23.6812C23.2704 23.6854 23.2504 23.6854 23.2305 23.6897L11.7346 29.163C9.99941 29.9887 7.9611 29.1545 7.18726 27.3074C6.41342 25.4602 7.19523 23.2811 8.9264 22.4554L20.4303 16.982L17.666 10.368L17.6899 10.3553C17.662 10.3297 17.6341 10.3042 17.6142 10.2744L6.12223 15.7435C0.916757 18.2206 -1.42471 24.7494 0.896812 30.3037C3.21833 35.8536 9.34125 38.3562 14.5427 35.8792L26.0466 30.4016L23.2784 23.7876Z" fill="#074BF8"/>
<path d="M28.4401 37.0249L12.4453 44.6387L15.1332 51.0673L31.128 43.4535L28.4401 37.0249Z" fill="#074BF8"/>
<path d="M45.4639 17.4802C43.7167 13.0836 39.5723 10.547 35.3401 10.8619C35.3361 9.45316 35.0768 8.01885 34.5304 6.64412C32.3325 1.11118 26.3253 -1.48079 21.1397 0.864324L15.0527 3.61803L17.7133 10.3086L23.8003 7.55493C25.5275 6.77181 27.5299 7.6358 28.2599 9.47869C28.9938 11.3216 28.1841 13.4582 26.4569 14.237L20.3699 16.9907L23.0305 23.6813L26.8558 21.9491L34.7338 18.3825C36.461 17.5994 38.4634 18.4633 39.1934 20.3062C39.9273 22.1491 39.1176 24.2857 37.3904 25.0646L25.703 30.3592L28.3636 37.0498L40.047 31.7637C45.2325 29.4186 47.6617 23.0089 45.4639 17.4802Z" fill="#074BF8"/>
<path d="M173.273 35.9265C174.457 35.9265 175.483 36.124 176.349 36.5189C177.228 36.9138 177.903 37.4743 178.375 38.2005C178.846 38.9266 179.082 39.7865 179.082 40.7802C179.082 41.7611 178.846 42.621 178.375 43.3599C177.903 44.086 177.228 44.6465 176.349 45.0415C175.483 45.4236 174.457 45.6147 173.273 45.6147H170.578V49.3027H167.483V35.9265H173.273ZM173.101 43.0924C174.03 43.0924 174.738 42.8949 175.222 42.5C175.706 42.0923 175.948 41.5191 175.948 40.7802C175.948 40.0286 175.706 39.4553 175.222 39.0604C174.738 38.6527 174.03 38.4489 173.101 38.4489H170.578V43.0924H173.101ZM191.133 44.2007C191.133 44.2389 191.114 44.5064 191.076 45.0032H183.299C183.439 45.6402 183.77 46.1434 184.292 46.5128C184.815 46.8823 185.464 47.067 186.241 47.067C186.776 47.067 187.248 46.9906 187.655 46.8377C188.076 46.6721 188.464 46.4173 188.821 46.0733L190.407 47.7931C189.439 48.9014 188.025 49.4556 186.165 49.4556C185.006 49.4556 183.98 49.2327 183.088 48.7868C182.197 48.3282 181.509 47.6976 181.025 46.895C180.54 46.0924 180.298 45.1816 180.298 44.1625C180.298 43.1561 180.534 42.2516 181.005 41.449C181.49 40.6337 182.146 40.0031 182.974 39.5572C183.814 39.0986 184.751 38.8693 185.783 38.8693C186.789 38.8693 187.7 39.0859 188.515 39.519C189.331 39.9521 189.968 40.5764 190.426 41.3917C190.897 42.1942 191.133 43.1306 191.133 44.2007ZM185.802 41.1241C185.127 41.1241 184.56 41.3152 184.101 41.6974C183.642 42.0796 183.362 42.6019 183.26 43.2643H188.324C188.222 42.6146 187.942 42.0987 187.483 41.7165C187.025 41.3216 186.464 41.1241 185.802 41.1241ZM199.749 48.8059C199.456 49.0225 199.093 49.1881 198.659 49.3027C198.239 49.4046 197.793 49.4556 197.322 49.4556C196.099 49.4556 195.15 49.1435 194.475 48.5193C193.812 47.895 193.481 46.9778 193.481 45.7676V41.5445H191.895V39.2515H193.481V36.7482H196.462V39.2515H199.022V41.5445H196.462V45.7294C196.462 46.1625 196.57 46.5001 196.787 46.7421C197.016 46.9715 197.334 47.0861 197.742 47.0861C198.214 47.0861 198.615 46.9587 198.946 46.7039L199.749 48.8059Z" fill="#074BF8"/>
</svg>
