<svg width="266" height="61" viewBox="0 0 266 61" fill="none" xmlns="http://www.w3.org/2000/svg">
<path d="M67.6243 37.0509C65.7928 36.5265 64.3439 35.8259 63.2778 34.9576L64.9134 31.4887C65.9568 32.2668 67.237 32.9029 68.7542 33.393C70.2714 33.8873 71.7931 34.1323 73.3193 34.1323C75.2101 34.1323 76.6225 33.8443 77.5565 33.2726C78.4905 32.7009 78.9597 31.9444 78.9597 31.0073C78.9597 30.3195 78.7 29.7522 78.1761 29.3094C77.6521 28.8624 76.9915 28.5142 76.1942 28.2606C75.3923 28.0113 74.3035 27.7233 72.9184 27.4009C70.9775 26.9667 69.4057 26.5326 68.2075 26.0942C67.0047 25.66 65.975 24.9766 65.1139 24.0524C64.2528 23.1239 63.82 21.8731 63.82 20.2912C63.82 18.963 64.2027 17.7551 64.9681 16.6676C65.7335 15.5801 66.8862 14.7161 68.4262 14.0756C69.9661 13.4352 71.8523 13.1128 74.0848 13.1128C75.6384 13.1128 77.1646 13.2976 78.6681 13.663C80.1716 14.0284 81.4701 14.5571 82.5636 15.2405L81.0692 18.7094C79.9529 18.0904 78.7912 17.6219 77.5747 17.3038C76.3628 16.9814 75.1828 16.8224 74.0438 16.8224C72.1758 16.8224 70.7862 17.119 69.875 17.7164C68.9638 18.3139 68.5082 19.1006 68.5082 20.0849C68.5082 20.7727 68.7679 21.3315 69.2918 21.7656C69.8112 22.1997 70.4764 22.5436 71.2737 22.7972C72.0755 23.0508 73.1644 23.3345 74.5495 23.6569C76.4402 24.0696 77.9938 24.4994 79.2058 24.9465C80.4177 25.3935 81.4564 26.0727 82.3175 26.9882C83.1786 27.9038 83.6114 29.1418 83.6114 30.6978C83.6114 32.026 83.2287 33.2253 82.4633 34.3042C81.6979 35.3788 80.5407 36.2385 78.9871 36.879C77.4335 37.5195 75.5427 37.8419 73.3102 37.8419C71.3557 37.8376 69.4558 37.5754 67.6243 37.0509Z" fill="#00309E"/>
<path d="M91.0427 35.0397C89.0791 33.1742 88.095 30.5048 88.095 27.0231V13.4614H92.8241V26.8511C92.8241 31.5665 94.9837 33.9221 99.3028 33.9221C103.595 33.9221 105.745 31.5665 105.745 26.8511V13.4614H110.401V27.0231C110.401 30.5005 109.426 33.1742 107.472 35.0397C105.517 36.9052 102.784 37.838 99.2664 37.838C95.7491 37.838 93.0064 36.9052 91.0427 35.0397Z" fill="#00309E"/>
<path d="M133.268 14.4931C134.904 15.1808 136.161 16.1652 137.036 17.4461C137.911 18.727 138.348 20.2487 138.348 22.0111C138.348 23.7519 137.911 25.2693 137.036 26.5588C136.161 27.8527 134.908 28.8413 133.268 29.5291C131.633 30.2168 129.71 30.5607 127.5 30.5607H121.751V37.4941H117.021V13.4614H127.5C129.71 13.4614 131.633 13.8053 133.268 14.4931ZM131.979 25.5487C133.045 24.7234 133.578 23.5456 133.578 22.0111C133.578 20.4765 133.045 19.2987 131.979 18.4734C130.913 17.6481 129.346 17.2355 127.286 17.2355H121.755V26.7781H127.286C129.346 26.7824 130.913 26.374 131.979 25.5487Z" fill="#00309E"/>
<path d="M162.18 33.7545V37.4984H143.077V13.4614H161.67V17.2054H147.806V23.4554H160.107V27.1305H147.806V33.7588H162.18V33.7545Z" fill="#00309E"/>
<path d="M184.123 37.4941L178.92 30.4575C178.701 30.479 178.373 30.4919 177.936 30.4919H172.186V37.4941H167.457V13.4614H177.936C180.141 13.4614 182.068 13.8053 183.704 14.4931C185.339 15.1808 186.597 16.1652 187.471 17.4461C188.346 18.727 188.784 20.2487 188.784 22.0111C188.784 23.8207 188.314 25.3768 187.38 26.6792C186.446 27.9816 185.107 28.9574 183.357 29.5979L189.216 37.4941H184.123ZM182.414 18.4777C181.348 17.6524 179.781 17.2398 177.722 17.2398H172.191V26.8168H177.722C179.785 26.8168 181.348 26.3998 182.414 25.5616C183.48 24.7277 184.013 23.5413 184.013 22.0068C184.013 20.4808 183.48 19.2987 182.414 18.4777Z" fill="#00309E"/>
<path d="M26.5883 24.0246L26.6475 23.9988C26.6293 23.973 26.611 23.9429 26.5974 23.9171C26.5792 23.9214 26.5564 23.9214 26.5336 23.9257L13.4031 29.4535C11.4212 30.2874 9.09308 29.4449 8.2092 27.5794C7.32533 25.7139 8.21832 23.5131 10.1956 22.6791L23.3353 17.1513L20.1779 10.4715L20.2053 10.4586C20.1734 10.4328 20.1415 10.407 20.1187 10.377L6.99274 15.9005C1.04711 18.4022 -1.62729 24.996 1.02433 30.6055C3.67594 36.2107 10.6695 38.7382 16.6105 36.2365L29.7502 30.7044L26.5883 24.0246Z" fill="#75B7F0"/>
<path d="M32.483 37.394L14.2139 45.0835L17.2839 51.576L35.553 43.8865L32.483 37.394Z" fill="#75B7F0"/>
<path d="M51.9284 17.6541C49.9328 13.2138 45.1991 10.6519 40.3651 10.97C40.3606 9.54722 40.0644 8.09864 39.4403 6.71024C36.9299 1.12223 30.0685 -1.49553 24.1456 0.872924L17.1931 3.65403L20.232 10.4112L27.1845 7.63011C29.1573 6.83919 31.4444 7.71178 32.2782 9.57301C33.1165 11.4342 32.1916 13.5921 30.2188 14.3787L23.2663 17.1598L26.3052 23.917L30.6744 22.1675L39.6726 18.5654C41.6454 17.7745 43.9325 18.6471 44.7663 20.5083C45.6046 22.3695 44.6797 24.5274 42.7069 25.314L29.3577 30.6613L32.3966 37.4185L45.7413 32.0798C51.6641 29.7113 54.4387 23.2378 51.9284 17.6541Z" fill="#75B7F0"/>
<path d="M206.998 32.6637L200.385 47.9419H196.893L190.302 32.6637H194.121L198.77 43.5767L203.484 32.6637H206.998ZM208.247 36.1995H211.652V47.9419H208.247V36.1995ZM209.95 34.5626C209.324 34.5626 208.815 34.3807 208.422 34.017C208.029 33.6532 207.832 33.2021 207.832 32.6637C207.832 32.1254 208.029 31.6743 208.422 31.3105C208.815 30.9468 209.324 30.7649 209.95 30.7649C210.575 30.7649 211.085 30.9395 211.477 31.2887C211.87 31.6379 212.067 32.0744 212.067 32.5983C212.067 33.1657 211.87 33.6386 211.477 34.017C211.085 34.3807 210.575 34.5626 209.95 34.5626ZM226.773 31.7471V47.9419H223.521V46.5887C222.677 47.6072 221.454 48.1165 219.854 48.1165C218.748 48.1165 217.744 47.8691 216.842 47.3744C215.954 46.8797 215.256 46.174 214.746 45.2573C214.237 44.3406 213.983 43.2784 213.983 42.0707C213.983 40.863 214.237 39.8008 214.746 38.8841C215.256 37.9674 215.954 37.2617 216.842 36.767C217.744 36.2723 218.748 36.0249 219.854 36.0249C221.352 36.0249 222.524 36.4978 223.368 37.4436V31.7471H226.773ZM220.443 45.3228C221.302 45.3228 222.015 45.0318 222.582 44.4497C223.149 43.8532 223.433 43.0602 223.433 42.0707C223.433 41.0813 223.149 40.2955 222.582 39.7135C222.015 39.1169 221.302 38.8187 220.443 38.8187C219.57 38.8187 218.85 39.1169 218.282 39.7135C217.715 40.2955 217.431 41.0813 217.431 42.0707C217.431 43.0602 217.715 43.8532 218.282 44.4497C218.85 45.0318 219.57 45.3228 220.443 45.3228ZM234.66 36.0249C236.479 36.0249 237.876 36.4615 238.851 37.3345C239.826 38.193 240.313 39.4953 240.313 41.2413V47.9419H237.126V46.4796C236.486 47.5709 235.293 48.1165 233.547 48.1165C232.645 48.1165 231.859 47.9637 231.19 47.6582C230.535 47.3526 230.033 46.9306 229.684 46.3923C229.335 45.8539 229.16 45.2428 229.16 44.5589C229.16 43.4676 229.567 42.6091 230.382 41.9834C231.212 41.3577 232.485 41.0449 234.202 41.0449H236.908C236.908 40.3028 236.683 39.7353 236.232 39.3425C235.78 38.9351 235.104 38.7314 234.202 38.7314C233.576 38.7314 232.958 38.8332 232.347 39.0369C231.75 39.2261 231.241 39.488 230.819 39.8226L229.596 37.4436C230.237 36.9926 231.001 36.6433 231.888 36.396C232.79 36.1486 233.714 36.0249 234.66 36.0249ZM234.398 45.8248C234.98 45.8248 235.497 45.6938 235.948 45.4319C236.399 45.1555 236.719 44.7553 236.908 44.2315V43.0311H234.573C233.176 43.0311 232.477 43.4894 232.477 44.4061C232.477 44.8426 232.645 45.1918 232.979 45.4537C233.329 45.7011 233.802 45.8248 234.398 45.8248Z" fill="#75B7F0"/>
</svg>
