<svg width="276" height="63" viewBox="0 0 276 63" fill="none" xmlns="http://www.w3.org/2000/svg">
<path d="M70.0335 38.3711C68.1368 37.828 66.6363 37.1024 65.5322 36.2032L67.2261 32.6107C68.3066 33.4165 69.6325 34.0753 71.2037 34.5828C72.7749 35.0947 74.3509 35.3485 75.9315 35.3485C77.8896 35.3485 79.3523 35.0502 80.3196 34.4582C81.2869 33.8661 81.7729 33.0826 81.7729 32.1122C81.7729 31.3999 81.5039 30.8123 80.9613 30.3538C80.4187 29.8908 79.7345 29.5302 78.9088 29.2676C78.0784 29.0094 76.9507 28.7111 75.5163 28.3773C73.5063 27.9276 71.8784 27.478 70.6375 27.024C69.3919 26.5743 68.3255 25.8665 67.4337 24.9094C66.542 23.9479 66.0937 22.6525 66.0937 21.0143C66.0937 19.6387 66.4901 18.3878 67.2827 17.2616C68.0754 16.1353 69.2692 15.2405 70.864 14.5772C72.4588 13.9139 74.4122 13.5801 76.7242 13.5801C78.3332 13.5801 79.9138 13.7715 81.4709 14.1499C83.0279 14.5283 84.3727 15.0758 85.5051 15.7836L83.9575 19.3761C82.8015 18.7351 81.5983 18.2498 80.3385 17.9204C79.0834 17.5865 77.8613 17.4218 76.6817 17.4218C74.7472 17.4218 73.3081 17.729 72.3644 18.3478C71.4208 18.9665 70.9489 19.7812 70.9489 20.8006C70.9489 21.5129 71.2179 22.0916 71.7605 22.5412C72.2984 22.9908 72.9873 23.3469 73.813 23.6096C74.6434 23.8722 75.7711 24.166 77.2055 24.4999C79.1636 24.9272 80.7726 25.3724 82.0277 25.8354C83.2827 26.2983 84.3585 27.0017 85.2503 27.9499C86.1421 28.8981 86.5903 30.1802 86.5903 31.7916C86.5903 33.1672 86.194 34.4092 85.4013 35.5266C84.6086 36.6395 83.4101 37.5298 81.8012 38.1931C80.1922 38.8564 78.2341 39.1902 75.9221 39.1902C73.8979 39.1858 71.9303 38.9142 70.0335 38.3711Z" fill="#00309E"/>
<path d="M94.2867 36.2875C92.2531 34.3555 91.2339 31.5911 91.2339 27.9853V13.9404H96.1316V27.8072C96.1316 32.6906 98.3681 35.1301 102.841 35.1301C107.286 35.1301 109.513 32.6906 109.513 27.8072V13.9404H114.335V27.9853C114.335 31.5866 113.325 34.3555 111.301 36.2875C109.277 38.2195 106.446 39.1855 102.803 39.1855C99.1607 39.1855 96.3203 38.2195 94.2867 36.2875Z" fill="#00309E"/>
<path d="M138.017 15.0088C139.71 15.7211 141.013 16.7405 141.919 18.0671C142.825 19.3937 143.278 20.9695 143.278 22.7947C143.278 24.5976 142.825 26.169 141.919 27.5045C141.013 28.8444 139.715 29.8683 138.017 30.5806C136.323 31.2928 134.332 31.649 132.043 31.649H126.089V38.8294H121.191V13.9404H132.043C134.332 13.9404 136.323 14.2966 138.017 15.0088ZM136.681 26.4584C137.785 25.6037 138.337 24.3839 138.337 22.7947C138.337 21.2055 137.785 19.9857 136.681 19.131C135.577 18.2763 133.954 17.8489 131.821 17.8489H126.093V27.7315H131.821C133.954 27.736 135.577 27.3131 136.681 26.4584Z" fill="#00309E"/>
<path d="M167.958 34.9565V38.8339H148.174V13.9404H167.43V17.8178H153.072V24.2904H165.812V28.0966H153.072V34.961H167.958V34.9565Z" fill="#00309E"/>
<path d="M190.683 38.8294L185.295 31.5421C185.068 31.5644 184.728 31.5777 184.275 31.5777H178.321V38.8294H173.423V13.9404H184.275C186.559 13.9404 188.555 14.2966 190.249 15.0088C191.943 15.7211 193.245 16.7405 194.151 18.0671C195.057 19.3937 195.51 20.9695 195.51 22.7947C195.51 24.6688 195.024 26.2803 194.057 27.6291C193.089 28.978 191.702 29.9885 189.89 30.6518L195.958 38.8294H190.683ZM188.914 19.1355C187.809 18.2808 186.186 17.8534 184.054 17.8534H178.325V27.7716H184.054C186.191 27.7716 187.809 27.3398 188.914 26.4717C190.018 25.6081 190.57 24.3795 190.57 22.7902C190.57 21.2099 190.018 19.9857 188.914 19.1355Z" fill="#00309E"/>
<path d="M27.5356 24.8805L27.5969 24.8537C27.5781 24.827 27.5592 24.7959 27.545 24.7692C27.5262 24.7736 27.5026 24.7736 27.479 24.7781L13.8806 30.5028C11.8281 31.3665 9.41706 30.4939 8.50169 28.5619C7.58633 26.6299 8.51113 24.3507 10.5589 23.4871L24.1667 17.7623L20.8968 10.8445L20.9252 10.8312C20.8921 10.8045 20.8591 10.7777 20.8355 10.7466L7.24189 16.4669C1.08442 19.0577 -1.68527 25.8865 1.06082 31.6959C3.80692 37.5008 11.0496 40.1183 17.2024 37.5275L30.8101 31.7983L27.5356 24.8805Z" fill="#00ACE2"/>
<path d="M33.6405 38.7265L14.7205 46.6899L17.8999 53.4138L36.8199 45.4503L33.6405 38.7265Z" fill="#00ACE2"/>
<path d="M53.7768 18.2831C51.7101 13.6846 46.8078 11.0315 41.8016 11.3609C41.7969 9.88739 41.4902 8.38719 40.8437 6.94932C38.2439 1.16222 31.1381 -1.54881 25.0042 0.904026L17.804 3.78422L20.9511 10.7822L28.1513 7.90196C30.1944 7.08287 32.563 7.98655 33.4265 9.91409C34.2946 11.8416 33.3368 14.0764 31.2938 14.891L24.0935 17.7712L27.2407 24.7691L31.7656 22.9573L41.0844 19.2269C43.1274 18.4078 45.4961 19.3115 46.3595 21.239C47.2277 23.1666 46.2699 25.4013 44.2268 26.2159L30.402 31.7537L33.5491 38.7517L47.3692 33.2228C53.5031 30.7699 56.3766 24.0658 53.7768 18.2831Z" fill="#00ACE2"/>
<path d="M209.582 46.2975H202.236L200.834 49.688H197.082L204.134 33.8655H207.751L214.826 49.688H210.983L209.582 46.2975ZM208.429 43.5172L205.92 37.4595L203.411 43.5172H208.429ZM228.249 37.5273V49.688H224.904V48.2414C224.437 48.7688 223.879 49.1756 223.231 49.462C222.583 49.7332 221.882 49.8688 221.129 49.8688C219.532 49.8688 218.266 49.4092 217.332 48.49C216.397 47.5708 215.93 46.207 215.93 44.3988V37.5273H219.456V43.8789C219.456 45.8378 220.278 46.8173 221.92 46.8173C222.764 46.8173 223.442 46.5461 223.954 46.0036C224.467 45.4461 224.723 44.6248 224.723 43.5398V37.5273H228.249ZM239.359 49.1003C239.013 49.3565 238.583 49.5524 238.071 49.688C237.574 49.8085 237.046 49.8688 236.489 49.8688C235.042 49.8688 233.919 49.4996 233.121 48.7612C232.337 48.0229 231.945 46.9379 231.945 45.5063V40.5109H230.069V37.7985H231.945V34.8374H235.471V37.7985H238.5V40.5109H235.471V45.4611C235.471 45.9735 235.6 46.3728 235.856 46.6591C236.127 46.9304 236.504 47.066 236.986 47.066C237.543 47.066 238.018 46.9153 238.41 46.6139L239.359 49.1003ZM246.75 49.8688C245.469 49.8688 244.316 49.6051 243.292 49.0777C242.282 48.5352 241.491 47.7893 240.918 46.8399C240.346 45.8906 240.059 44.8132 240.059 43.6076C240.059 42.4021 240.346 41.3247 240.918 40.3753C241.491 39.426 242.282 38.6876 243.292 38.1602C244.316 37.6177 245.469 37.3464 246.75 37.3464C248.031 37.3464 249.176 37.6177 250.186 38.1602C251.195 38.6876 251.986 39.426 252.559 40.3753C253.132 41.3247 253.418 42.4021 253.418 43.6076C253.418 44.8132 253.132 45.8906 252.559 46.8399C251.986 47.7893 251.195 48.5352 250.186 49.0777C249.176 49.6051 248.031 49.8688 246.75 49.8688ZM246.75 46.9756C247.654 46.9756 248.392 46.6742 248.965 46.0714C249.553 45.4536 249.847 44.6323 249.847 43.6076C249.847 42.5829 249.553 41.7692 248.965 41.1664C248.392 40.5486 247.654 40.2397 246.75 40.2397C245.846 40.2397 245.1 40.5486 244.512 41.1664C243.925 41.7692 243.631 42.5829 243.631 43.6076C243.631 44.6323 243.925 45.4536 244.512 46.0714C245.1 46.6742 245.846 46.9756 246.75 46.9756Z" fill="#00ACE2"/>
</svg>
