<svg width="242" height="56" viewBox="0 0 242 56" fill="none" xmlns="http://www.w3.org/2000/svg">
<path d="M59.2058 36.6857C57.6022 36.1664 56.3338 35.4727 55.4004 34.613L56.8324 31.1783C57.7458 31.9486 58.8667 32.5785 60.195 33.0637C61.5233 33.5532 62.8556 33.7958 64.1919 33.7958C65.8472 33.7958 67.0838 33.5106 67.9015 32.9446C68.7192 32.3785 69.1301 31.6294 69.1301 30.7016C69.1301 30.0206 68.9027 29.4588 68.444 29.0204C67.9853 28.5778 67.4069 28.2331 66.7088 27.9819C66.0068 27.7351 65.0535 27.4499 63.8408 27.1307C62.1416 26.7009 60.7654 26.271 59.7163 25.8369C58.6633 25.407 57.7618 24.7303 57.0079 23.8152C56.254 22.8959 55.8751 21.6574 55.8751 20.0911C55.8751 18.776 56.2101 17.58 56.8803 16.5032C57.5504 15.4264 58.5596 14.5709 59.9078 13.9368C61.2561 13.3026 62.9074 12.9834 64.862 12.9834C66.2222 12.9834 67.5585 13.1664 68.8748 13.5282C70.1911 13.89 71.3279 14.4135 72.2853 15.0902L70.9769 18.5249C69.9997 17.912 68.9825 17.4481 67.9175 17.1331C66.8564 16.8139 65.8233 16.6564 64.8261 16.6564C63.1907 16.6564 61.974 16.9501 61.1763 17.5417C60.3785 18.1333 59.9796 18.9122 59.9796 19.8868C59.9796 20.5678 60.207 21.1211 60.6657 21.551C61.1204 21.9808 61.7028 22.3213 62.4009 22.5724C63.1029 22.8235 64.0562 23.1044 65.2689 23.4236C66.9242 23.8322 68.2844 24.2578 69.3455 24.7005C70.4065 25.1431 71.316 25.8156 72.0699 26.7221C72.8238 27.6287 73.2027 28.8544 73.2027 30.3952C73.2027 31.7103 72.8676 32.8978 72.1975 33.966C71.5274 35.0301 70.5142 35.8813 69.154 36.5154C67.7938 37.1496 66.1384 37.4688 64.1839 37.4688C62.4727 37.4646 60.8093 37.2049 59.2058 36.6857Z" fill="#00309E"/>
<path d="M79.7097 34.6938C77.9905 32.8467 77.1289 30.2036 77.1289 26.7562V13.3281H81.2694V26.5859C81.2694 31.2549 83.1601 33.5872 86.9415 33.5872C90.699 33.5872 92.5818 31.2549 92.5818 26.5859V13.3281H96.6584V26.7562C96.6584 30.1994 95.8048 32.8467 94.0936 34.6938C92.3823 36.541 89.989 37.4645 86.9096 37.4645C83.8302 37.4645 81.4289 36.541 79.7097 34.6938Z" fill="#00309E"/>
<path d="M116.677 14.3496C118.109 15.0306 119.21 16.0052 119.976 17.2735C120.742 18.5419 121.125 20.0485 121.125 21.7935C121.125 23.5173 120.742 25.0197 119.976 26.2965C119.21 27.5776 118.113 28.5565 116.677 29.2375C115.245 29.9185 113.562 30.2589 111.628 30.2589H106.594V37.1241H102.453V13.3281H111.628C113.562 13.3281 115.245 13.6686 116.677 14.3496ZM115.549 25.2963C116.482 24.4791 116.949 23.313 116.949 21.7935C116.949 20.2741 116.482 19.1079 115.549 18.2908C114.615 17.4736 113.243 17.065 111.44 17.065H106.598V26.5136H111.44C113.243 26.5178 114.615 26.1135 115.549 25.2963Z" fill="#00309E"/>
<path d="M141.991 33.4212V37.1283H125.266V13.3281H141.544V17.0352H129.406V23.2236H140.176V26.8626H129.406V33.4255H141.991V33.4212Z" fill="#00309E"/>
<path d="M161.203 37.1241L156.647 30.1568C156.456 30.1781 156.169 30.1908 155.786 30.1908H150.752V37.1241H146.611V13.3281H155.786C157.716 13.3281 159.404 13.6686 160.836 14.3496C162.268 15.0306 163.369 16.0052 164.134 17.2735C164.9 18.5419 165.283 20.0485 165.283 21.7935C165.283 23.5854 164.872 25.1261 164.055 26.4157C163.237 27.7053 162.064 28.6714 160.532 29.3056L165.662 37.1241H161.203ZM159.707 18.295C158.773 17.4778 157.401 17.0692 155.598 17.0692H150.756V26.5519H155.598C157.405 26.5519 158.773 26.139 159.707 25.3091C160.64 24.4834 161.107 23.3087 161.107 21.7893C161.107 20.2784 160.64 19.1079 159.707 18.295Z" fill="#00309E"/>
<path d="M23.2784 23.7876L23.3302 23.762C23.3143 23.7365 23.2983 23.7067 23.2863 23.6812C23.2704 23.6854 23.2504 23.6854 23.2305 23.6897L11.7346 29.163C9.99941 29.9887 7.9611 29.1545 7.18726 27.3074C6.41342 25.4602 7.19523 23.2811 8.9264 22.4554L20.4303 16.982L17.666 10.368L17.6899 10.3553C17.662 10.3297 17.6341 10.3042 17.6142 10.2744L6.12223 15.7435C0.916757 18.2206 -1.42471 24.7494 0.896812 30.3037C3.21833 35.8536 9.34125 38.3562 14.5427 35.8792L26.0466 30.4016L23.2784 23.7876Z" fill="#00D5E2"/>
<path d="M28.4401 37.0249L12.4453 44.6387L15.1332 51.0673L31.128 43.4535L28.4401 37.0249Z" fill="#00D5E2"/>
<path d="M45.4639 17.4802C43.7167 13.0836 39.5723 10.547 35.3401 10.8619C35.3361 9.45316 35.0768 8.01885 34.5304 6.64412C32.3325 1.11118 26.3253 -1.48079 21.1397 0.864324L15.0527 3.61803L17.7133 10.3086L23.8003 7.55493C25.5275 6.77181 27.5299 7.6358 28.2599 9.47869C28.9938 11.3216 28.1841 13.4582 26.4569 14.237L20.3699 16.9907L23.0305 23.6813L26.8558 21.9491L34.7338 18.3825C36.461 17.5994 38.4634 18.4633 39.1934 20.3062C39.9273 22.1491 39.1176 24.2857 37.3904 25.0646L25.703 30.3592L28.3636 37.0498L40.047 31.7637C45.2325 29.4186 47.6617 23.0089 45.4639 17.4802Z" fill="#00D5E2"/>
<path d="M173.96 49.532C172.572 49.532 171.317 49.2327 170.196 48.6339C169.088 48.0352 168.215 47.2135 167.578 46.1689C166.954 45.1115 166.642 43.9268 166.642 42.6146C166.642 41.3025 166.954 40.1241 167.578 39.0795C168.215 38.0221 169.088 37.1941 170.196 36.5953C171.317 35.9966 172.572 35.6972 173.96 35.6972C175.349 35.6972 176.597 35.9966 177.706 36.5953C178.814 37.1941 179.687 38.0221 180.324 39.0795C180.961 40.1241 181.279 41.3025 181.279 42.6146C181.279 43.9268 180.961 45.1115 180.324 46.1689C179.687 47.2135 178.814 48.0352 177.706 48.6339C176.597 49.2327 175.349 49.532 173.96 49.532ZM173.96 46.895C174.75 46.895 175.464 46.7167 176.101 46.36C176.738 45.9905 177.234 45.481 177.591 44.8313C177.961 44.1816 178.145 43.4427 178.145 42.6146C178.145 41.7866 177.961 41.0477 177.591 40.398C177.234 39.7483 176.738 39.2451 176.101 38.8884C175.464 38.519 174.75 38.3342 173.96 38.3342C173.171 38.3342 172.457 38.519 171.82 38.8884C171.183 39.2451 170.68 39.7483 170.311 40.398C169.954 41.0477 169.776 41.7866 169.776 42.6146C169.776 43.4427 169.954 44.1816 170.311 44.8313C170.68 45.481 171.183 45.9905 171.82 46.36C172.457 46.7167 173.171 46.895 173.96 46.895ZM193.867 35.124V49.3027H191.02V48.118C190.281 49.0097 189.211 49.4556 187.81 49.4556C186.841 49.4556 185.962 49.239 185.173 48.8059C184.395 48.3728 183.784 47.7549 183.338 46.9523C182.892 46.1498 182.669 45.2198 182.669 44.1625C182.669 43.1051 182.892 42.1751 183.338 41.3726C183.784 40.57 184.395 39.9521 185.173 39.519C185.962 39.0859 186.841 38.8693 187.81 38.8693C189.122 38.8693 190.147 39.2833 190.886 40.1114V35.124H193.867ZM188.326 47.0097C189.077 47.0097 189.701 46.7549 190.198 46.2453C190.695 45.723 190.943 45.0287 190.943 44.1625C190.943 43.2962 190.695 42.6083 190.198 42.0987C189.701 41.5764 189.077 41.3152 188.326 41.3152C187.561 41.3152 186.931 41.5764 186.434 42.0987C185.937 42.6083 185.688 43.2962 185.688 44.1625C185.688 45.0287 185.937 45.723 186.434 46.2453C186.931 46.7549 187.561 47.0097 188.326 47.0097ZM201.518 49.4556C200.435 49.4556 199.461 49.2327 198.594 48.7868C197.741 48.3282 197.072 47.6976 196.588 46.895C196.104 46.0924 195.862 45.1816 195.862 44.1625C195.862 43.1433 196.104 42.2325 196.588 41.4299C197.072 40.6273 197.741 40.0031 198.594 39.5572C199.461 39.0986 200.435 38.8693 201.518 38.8693C202.601 38.8693 203.569 39.0986 204.422 39.5572C205.276 40.0031 205.945 40.6273 206.429 41.4299C206.913 42.2325 207.155 43.1433 207.155 44.1625C207.155 45.1816 206.913 46.0924 206.429 46.895C205.945 47.6976 205.276 48.3282 204.422 48.7868C203.569 49.2327 202.601 49.4556 201.518 49.4556ZM201.518 47.0097C202.282 47.0097 202.907 46.7549 203.391 46.2453C203.887 45.723 204.136 45.0287 204.136 44.1625C204.136 43.2962 203.887 42.6083 203.391 42.0987C202.907 41.5764 202.282 41.3152 201.518 41.3152C200.754 41.3152 200.123 41.5764 199.626 42.0987C199.129 42.6083 198.881 43.2962 198.881 44.1625C198.881 45.0287 199.129 45.723 199.626 46.2453C200.123 46.7549 200.754 47.0097 201.518 47.0097ZM215.396 38.8693C216.67 38.8693 217.696 39.2515 218.473 40.0158C219.263 40.7802 219.657 41.914 219.657 43.4172V49.3027H216.676V43.8758C216.676 43.0605 216.498 42.4554 216.141 42.0605C215.785 41.6528 215.269 41.449 214.594 41.449C213.842 41.449 213.243 41.6847 212.797 42.156C212.352 42.6146 212.129 43.3026 212.129 44.2198V49.3027H209.148V39.0222H211.995V40.226C212.39 39.7929 212.88 39.4617 213.466 39.2324C214.052 38.9903 214.696 38.8693 215.396 38.8693ZM228.99 48.8059C228.697 49.0225 228.334 49.1881 227.901 49.3027C227.481 49.4046 227.035 49.4556 226.564 49.4556C225.341 49.4556 224.391 49.1435 223.716 48.5193C223.054 47.895 222.723 46.9778 222.723 45.7676V41.5445H221.137V39.2515H222.723V36.7482H225.704V39.2515H228.264V41.5445H225.704V45.7294C225.704 46.1625 225.812 46.5001 226.028 46.7421C226.258 46.9715 226.576 47.0861 226.984 47.0861C227.455 47.0861 227.857 46.9587 228.188 46.7039L228.99 48.8059ZM235.238 49.4556C234.156 49.4556 233.181 49.2327 232.315 48.7868C231.461 48.3282 230.792 47.6976 230.308 46.895C229.824 46.0924 229.582 45.1816 229.582 44.1625C229.582 43.1433 229.824 42.2325 230.308 41.4299C230.792 40.6273 231.461 40.0031 232.315 39.5572C233.181 39.0986 234.156 38.8693 235.238 38.8693C236.321 38.8693 237.289 39.0986 238.143 39.5572C238.996 40.0031 239.665 40.6273 240.149 41.4299C240.633 42.2325 240.875 43.1433 240.875 44.1625C240.875 45.1816 240.633 46.0924 240.149 46.895C239.665 47.6976 238.996 48.3282 238.143 48.7868C237.289 49.2327 236.321 49.4556 235.238 49.4556ZM235.238 47.0097C236.003 47.0097 236.627 46.7549 237.111 46.2453C237.608 45.723 237.856 45.0287 237.856 44.1625C237.856 43.2962 237.608 42.6083 237.111 42.0987C236.627 41.5764 236.003 41.3152 235.238 41.3152C234.474 41.3152 233.843 41.5764 233.347 42.0987C232.85 42.6083 232.601 43.2962 232.601 44.1625C232.601 45.0287 232.85 45.723 233.347 46.2453C233.843 46.7549 234.474 47.0097 235.238 47.0097Z" fill="#00D5E2"/>
</svg>
