<svg width="276" height="56" viewBox="0 0 276 56" fill="none" xmlns="http://www.w3.org/2000/svg">
<path d="M59.2058 36.6857C57.6022 36.1664 56.3338 35.4727 55.4004 34.613L56.8324 31.1783C57.7458 31.9486 58.8667 32.5785 60.195 33.0637C61.5233 33.5532 62.8556 33.7958 64.1919 33.7958C65.8472 33.7958 67.0838 33.5106 67.9015 32.9446C68.7192 32.3785 69.1301 31.6294 69.1301 30.7016C69.1301 30.0206 68.9027 29.4588 68.444 29.0204C67.9853 28.5778 67.4069 28.2331 66.7088 27.9819C66.0068 27.7351 65.0535 27.4499 63.8408 27.1307C62.1416 26.7009 60.7654 26.271 59.7163 25.8369C58.6633 25.407 57.7618 24.7303 57.0079 23.8152C56.254 22.8959 55.8751 21.6574 55.8751 20.0911C55.8751 18.776 56.2101 17.58 56.8803 16.5032C57.5504 15.4264 58.5596 14.5709 59.9078 13.9368C61.2561 13.3026 62.9074 12.9834 64.862 12.9834C66.2222 12.9834 67.5585 13.1664 68.8748 13.5282C70.1911 13.89 71.3279 14.4135 72.2853 15.0902L70.9769 18.5249C69.9997 17.912 68.9825 17.4481 67.9175 17.1331C66.8564 16.8139 65.8233 16.6564 64.8261 16.6564C63.1907 16.6564 61.974 16.9501 61.1763 17.5417C60.3785 18.1333 59.9796 18.9122 59.9796 19.8868C59.9796 20.5678 60.207 21.1211 60.6657 21.551C61.1204 21.9808 61.7028 22.3213 62.4009 22.5724C63.1029 22.8235 64.0562 23.1044 65.2689 23.4236C66.9242 23.8322 68.2844 24.2578 69.3455 24.7005C70.4065 25.1431 71.316 25.8156 72.0699 26.7221C72.8238 27.6287 73.2027 28.8544 73.2027 30.3952C73.2027 31.7103 72.8676 32.8978 72.1975 33.966C71.5274 35.0301 70.5142 35.8813 69.154 36.5154C67.7938 37.1496 66.1384 37.4688 64.1839 37.4688C62.4727 37.4646 60.8093 37.2049 59.2058 36.6857Z" fill="#00309E"/>
<path d="M79.7097 34.6938C77.9905 32.8467 77.1289 30.2036 77.1289 26.7562V13.3281H81.2694V26.5859C81.2694 31.2549 83.1601 33.5872 86.9415 33.5872C90.699 33.5872 92.5818 31.2549 92.5818 26.5859V13.3281H96.6584V26.7562C96.6584 30.1994 95.8048 32.8467 94.0936 34.6938C92.3823 36.541 89.989 37.4645 86.9096 37.4645C83.8302 37.4645 81.4289 36.541 79.7097 34.6938Z" fill="#00309E"/>
<path d="M116.677 14.3496C118.109 15.0306 119.21 16.0052 119.976 17.2735C120.742 18.5419 121.125 20.0485 121.125 21.7935C121.125 23.5173 120.742 25.0197 119.976 26.2965C119.21 27.5776 118.113 28.5565 116.677 29.2375C115.245 29.9185 113.562 30.2589 111.628 30.2589H106.594V37.1241H102.453V13.3281H111.628C113.562 13.3281 115.245 13.6686 116.677 14.3496ZM115.549 25.2963C116.482 24.4791 116.949 23.313 116.949 21.7935C116.949 20.2741 116.482 19.1079 115.549 18.2908C114.615 17.4736 113.243 17.065 111.44 17.065H106.598V26.5136H111.44C113.243 26.5178 114.615 26.1135 115.549 25.2963Z" fill="#00309E"/>
<path d="M141.991 33.4212V37.1283H125.266V13.3281H141.544V17.0352H129.406V23.2236H140.176V26.8626H129.406V33.4255H141.991V33.4212Z" fill="#00309E"/>
<path d="M161.203 37.1241L156.647 30.1568C156.456 30.1781 156.169 30.1908 155.786 30.1908H150.752V37.1241H146.611V13.3281H155.786C157.716 13.3281 159.404 13.6686 160.836 14.3496C162.268 15.0306 163.369 16.0052 164.134 17.2735C164.9 18.5419 165.283 20.0485 165.283 21.7935C165.283 23.5854 164.872 25.1261 164.055 26.4157C163.237 27.7053 162.064 28.6714 160.532 29.3056L165.662 37.1241H161.203ZM159.707 18.295C158.773 17.4778 157.401 17.0692 155.598 17.0692H150.756V26.5519H155.598C157.405 26.5519 158.773 26.139 159.707 25.3091C160.64 24.4834 161.107 23.3087 161.107 21.7893C161.107 20.2784 160.64 19.1079 159.707 18.295Z" fill="#00309E"/>
<path d="M23.2784 23.7876L23.3302 23.762C23.3143 23.7365 23.2983 23.7067 23.2863 23.6812C23.2704 23.6854 23.2504 23.6854 23.2305 23.6897L11.7346 29.163C9.99941 29.9887 7.9611 29.1545 7.18726 27.3074C6.41342 25.4602 7.19523 23.2811 8.9264 22.4554L20.4303 16.982L17.666 10.368L17.6899 10.3553C17.662 10.3297 17.6341 10.3042 17.6142 10.2744L6.12223 15.7435C0.916757 18.2206 -1.42471 24.7494 0.896812 30.3037C3.21833 35.8536 9.34125 38.3562 14.5427 35.8792L26.0466 30.4016L23.2784 23.7876Z" fill="#21C4CE"/>
<path d="M28.4401 37.0249L12.4453 44.6387L15.1332 51.0673L31.128 43.4535L28.4401 37.0249Z" fill="#21C4CE"/>
<path d="M45.4639 17.4802C43.7167 13.0836 39.5723 10.547 35.3401 10.8619C35.3361 9.45316 35.0768 8.01885 34.5304 6.64412C32.3325 1.11118 26.3253 -1.48079 21.1397 0.864324L15.0527 3.61803L17.7133 10.3086L23.8003 7.55493C25.5275 6.77181 27.5299 7.6358 28.2599 9.47869C28.9938 11.3216 28.1841 13.4582 26.4569 14.237L20.3699 16.9907L23.0305 23.6813L26.8558 21.9491L34.7338 18.3825C36.461 17.5994 38.4634 18.4633 39.1934 20.3062C39.9273 22.1491 39.1176 24.2857 37.3904 25.0646L25.703 30.3592L28.3636 37.0498L40.047 31.7637C45.2325 29.4186 47.6617 23.0089 45.4639 17.4802Z" fill="#21C4CE"/>
<path d="M176.005 49.3027L173.425 45.5765H173.273H170.578V49.3027H167.483V35.9265H173.273C174.457 35.9265 175.483 36.124 176.349 36.5189C177.228 36.9138 177.903 37.4743 178.375 38.2005C178.846 38.9266 179.082 39.7865 179.082 40.7802C179.082 41.7738 178.84 42.6337 178.355 43.3599C177.884 44.0733 177.209 44.6211 176.33 45.0032L179.33 49.3027H176.005ZM175.948 40.7802C175.948 40.0286 175.706 39.4553 175.222 39.0604C174.738 38.6527 174.03 38.4489 173.101 38.4489H170.578V43.1115H173.101C174.03 43.1115 174.738 42.9076 175.222 42.5C175.706 42.0923 175.948 41.5191 175.948 40.7802ZM191.394 44.2007C191.394 44.2389 191.375 44.5064 191.337 45.0032H183.56C183.7 45.6402 184.031 46.1434 184.553 46.5128C185.076 46.8823 185.725 47.067 186.503 47.067C187.038 47.067 187.509 46.9906 187.917 46.8377C188.337 46.6721 188.726 46.4173 189.082 46.0733L190.668 47.7931C189.7 48.9014 188.286 49.4556 186.426 49.4556C185.267 49.4556 184.241 49.2327 183.35 48.7868C182.458 48.3282 181.77 47.6976 181.286 46.895C180.802 46.0924 180.56 45.1816 180.56 44.1625C180.56 43.1561 180.795 42.2516 181.267 41.449C181.751 40.6337 182.407 40.0031 183.235 39.5572C184.076 39.0986 185.012 38.8693 186.044 38.8693C187.05 38.8693 187.961 39.0859 188.777 39.519C189.592 39.9521 190.229 40.5764 190.687 41.3917C191.159 42.1942 191.394 43.1306 191.394 44.2007ZM186.063 41.1241C185.388 41.1241 184.821 41.3152 184.362 41.6974C183.904 42.0796 183.623 42.6019 183.522 43.2643H188.585C188.484 42.6146 188.203 42.0987 187.745 41.7165C187.286 41.3216 186.725 41.1241 186.063 41.1241ZM196.838 49.4556C195.984 49.4556 195.15 49.3537 194.335 49.1499C193.519 48.9333 192.869 48.6658 192.385 48.3473L193.379 46.2071C193.838 46.5001 194.392 46.7421 195.042 46.9332C195.691 47.1116 196.328 47.2008 196.952 47.2008C198.214 47.2008 198.844 46.8886 198.844 46.2644C198.844 45.9714 198.672 45.7612 198.328 45.6338C197.984 45.5064 197.456 45.3982 196.742 45.309C195.901 45.1816 195.207 45.0351 194.659 44.8695C194.112 44.7039 193.634 44.4109 193.226 43.9905C192.831 43.5701 192.634 42.9713 192.634 42.1942C192.634 41.5445 192.819 40.9713 193.188 40.4744C193.57 39.9649 194.118 39.57 194.831 39.2897C195.557 39.0094 196.411 38.8693 197.392 38.8693C198.118 38.8693 198.838 38.9521 199.551 39.1177C200.277 39.2706 200.876 39.4871 201.347 39.7674L200.354 41.8885C199.449 41.3789 198.462 41.1241 197.392 41.1241C196.755 41.1241 196.277 41.2133 195.959 41.3917C195.64 41.57 195.481 41.7993 195.481 42.0796C195.481 42.3981 195.653 42.621 195.997 42.7484C196.341 42.8758 196.889 42.9968 197.64 43.1115C198.481 43.2516 199.169 43.4045 199.704 43.5701C200.239 43.7229 200.704 44.0096 201.099 44.43C201.494 44.8504 201.691 45.4364 201.691 46.188C201.691 46.825 201.5 47.3918 201.118 47.8887C200.736 48.3855 200.175 48.7741 199.437 49.0543C198.71 49.3218 197.844 49.4556 196.838 49.4556ZM203.531 39.0222H206.512V49.3027H203.531V39.0222ZM205.021 37.589C204.473 37.589 204.027 37.4298 203.684 37.1113C203.34 36.7928 203.168 36.3979 203.168 35.9265C203.168 35.4552 203.34 35.0603 203.684 34.7418C204.027 34.4233 204.473 34.2641 205.021 34.2641C205.569 34.2641 206.015 34.4169 206.359 34.7227C206.703 35.0284 206.875 35.4106 206.875 35.8692C206.875 36.366 206.703 36.7801 206.359 37.1113C206.015 37.4298 205.569 37.589 205.021 37.589ZM219.75 35.124V49.3027H216.903V48.118C216.164 49.0097 215.094 49.4556 213.692 49.4556C212.724 49.4556 211.845 49.239 211.055 48.8059C210.278 48.3728 209.667 47.7549 209.221 46.9523C208.775 46.1498 208.552 45.2198 208.552 44.1625C208.552 43.1051 208.775 42.1751 209.221 41.3726C209.667 40.57 210.278 39.9521 211.055 39.519C211.845 39.0859 212.724 38.8693 213.692 38.8693C215.005 38.8693 216.03 39.2833 216.769 40.1114V35.124H219.75ZM214.208 47.0097C214.96 47.0097 215.584 46.7549 216.081 46.2453C216.578 45.723 216.826 45.0287 216.826 44.1625C216.826 43.2962 216.578 42.6083 216.081 42.0987C215.584 41.5764 214.96 41.3152 214.208 41.3152C213.444 41.3152 212.813 41.5764 212.317 42.0987C211.82 42.6083 211.571 43.2962 211.571 44.1625C211.571 45.0287 211.82 45.723 212.317 46.2453C212.813 46.7549 213.444 47.0097 214.208 47.0097ZM232.579 44.2007C232.579 44.2389 232.56 44.5064 232.522 45.0032H224.745C224.885 45.6402 225.216 46.1434 225.738 46.5128C226.261 46.8823 226.91 47.067 227.687 47.067C228.222 47.067 228.694 46.9906 229.101 46.8377C229.522 46.6721 229.91 46.4173 230.267 46.0733L231.853 47.7931C230.885 48.9014 229.471 49.4556 227.611 49.4556C226.452 49.4556 225.426 49.2327 224.534 48.7868C223.643 48.3282 222.955 47.6976 222.471 46.895C221.987 46.0924 221.745 45.1816 221.745 44.1625C221.745 43.1561 221.98 42.2516 222.452 41.449C222.936 40.6337 223.592 40.0031 224.42 39.5572C225.261 39.0986 226.197 38.8693 227.229 38.8693C228.235 38.8693 229.146 39.0859 229.961 39.519C230.777 39.9521 231.414 40.5764 231.872 41.3917C232.344 42.1942 232.579 43.1306 232.579 44.2007ZM227.248 41.1241C226.573 41.1241 226.006 41.3152 225.547 41.6974C225.089 42.0796 224.808 42.6019 224.706 43.2643H229.77C229.668 42.6146 229.388 42.0987 228.929 41.7165C228.471 41.3216 227.91 41.1241 227.248 41.1241ZM228.834 37.7037L227.171 36.2514L225.509 37.7037H223.331L225.853 34.952H228.49L231.012 37.7037H228.834ZM240.812 38.8693C242.086 38.8693 243.112 39.2515 243.889 40.0158C244.679 40.7802 245.074 41.914 245.074 43.4172V49.3027H242.093V43.8758C242.093 43.0605 241.914 42.4554 241.558 42.0605C241.201 41.6528 240.685 41.449 240.01 41.449C239.258 41.449 238.66 41.6847 238.214 42.156C237.768 42.6146 237.545 43.3026 237.545 44.2198V49.3027H234.564V39.0222H237.411V40.226C237.806 39.7929 238.296 39.4617 238.882 39.2324C239.468 38.9903 240.112 38.8693 240.812 38.8693ZM252.856 49.4556C251.761 49.4556 250.773 49.2327 249.894 48.7868C249.028 48.3282 248.346 47.6976 247.85 46.895C247.366 46.0924 247.123 45.1816 247.123 44.1625C247.123 43.1433 247.366 42.2325 247.85 41.4299C248.346 40.6273 249.028 40.0031 249.894 39.5572C250.773 39.0986 251.761 38.8693 252.856 38.8693C253.939 38.8693 254.882 39.0986 255.684 39.5572C256.5 40.0031 257.092 40.6464 257.461 41.4872L255.149 42.7293C254.614 41.7866 253.843 41.3152 252.837 41.3152C252.06 41.3152 251.417 41.57 250.907 42.0796C250.397 42.5892 250.143 43.2834 250.143 44.1625C250.143 45.0415 250.397 45.7357 250.907 46.2453C251.417 46.7549 252.06 47.0097 252.837 47.0097C253.856 47.0097 254.627 46.5383 255.149 45.5956L257.461 46.8568C257.092 47.6721 256.5 48.3091 255.684 48.7677C254.882 49.2263 253.939 49.4556 252.856 49.4556ZM259.178 39.0222H262.159V49.3027H259.178V39.0222ZM260.668 37.589C260.12 37.589 259.675 37.4298 259.331 37.1113C258.987 36.7928 258.815 36.3979 258.815 35.9265C258.815 35.4552 258.987 35.0603 259.331 34.7418C259.675 34.4233 260.12 34.2641 260.668 34.2641C261.216 34.2641 261.662 34.4169 262.006 34.7227C262.35 35.0284 262.522 35.4106 262.522 35.8692C262.522 36.366 262.35 36.7801 262.006 37.1113C261.662 37.4298 261.216 37.589 260.668 37.589ZM269.072 38.8693C270.664 38.8693 271.887 39.2515 272.741 40.0158C273.594 40.7674 274.021 41.9076 274.021 43.4363V49.3027H271.231V48.0224C270.671 48.9779 269.626 49.4556 268.097 49.4556C267.308 49.4556 266.62 49.3218 266.034 49.0543C265.46 48.7868 265.021 48.4174 264.715 47.946C264.409 47.4747 264.257 46.9396 264.257 46.3409C264.257 45.3854 264.613 44.6338 265.327 44.086C266.053 43.5382 267.167 43.2643 268.671 43.2643H271.04C271.04 42.6146 270.843 42.1178 270.448 41.7738C270.053 41.4171 269.46 41.2388 268.671 41.2388C268.123 41.2388 267.581 41.328 267.046 41.5063C266.524 41.6719 266.078 41.9012 265.709 42.1942L264.639 40.1114C265.199 39.7165 265.868 39.4107 266.645 39.1941C267.435 38.9776 268.244 38.8693 269.072 38.8693ZM268.843 47.4492C269.352 47.4492 269.804 47.3345 270.199 47.1052C270.594 46.8632 270.875 46.5128 271.04 46.0542V45.0032H268.996C267.773 45.0032 267.161 45.4045 267.161 46.2071C267.161 46.5893 267.308 46.895 267.601 47.1243C267.906 47.3409 268.32 47.4492 268.843 47.4492Z" fill="#21C4CE"/>
</svg>
