<svg width="89" height="134" viewBox="0 0 89 134" fill="none" xmlns="http://www.w3.org/2000/svg">
<circle cx="44.3259" cy="44.7786" r="40.4148" fill="#FFFE06"/>
<path d="M88.066 78.9486C85.69 78.9266 83.314 78.8826 80.938 78.9046C80.707 78.9046 80.355 79.3116 80.267 79.5866C79.178 82.7876 77.077 85.0096 73.986 86.3626C69.245 88.4306 63.041 86.3736 60.544 81.8416C60.137 81.0936 59.807 80.2906 59.51 79.4876C59.345 79.0586 59.158 78.8496 58.663 78.8606C48.708 78.8716 38.764 78.8716 28.809 78.8606C28.259 78.8606 28.072 79.0916 27.918 79.5536C26.587 83.4806 23.903 85.9006 19.888 86.9126C14.861 88.1776 8.976 85.0096 7.392 80.0926C7.084 79.1466 6.699 78.7836 5.676 78.8496C4.103 78.9486 2.519 78.8716 0.946 78.8716C0.638 78.8716 0.33 78.8716 0 78.8716C0 70.9956 0 63.2296 0 55.3536C0.737 55.3536 1.441 55.3536 2.145 55.3536C4.323 55.3536 6.501 55.3316 8.679 55.3756C9.295 55.3866 9.581 55.1776 9.845 54.6386C12.342 49.5456 14.883 44.4746 17.358 39.3816C17.743 38.5896 18.172 38.2266 19.041 38.3586C19.426 38.4136 19.833 38.3696 20.361 38.3696C19.041 35.3226 18.447 32.2646 18.612 29.0746C18.722 26.8306 18.876 24.5756 19.019 22.0896C19.833 23.1786 20.504 24.0586 21.351 25.1916C21.428 19.8456 24.409 16.1386 27.456 12.2996C27.951 13.4326 28.369 14.4996 28.875 15.5446C29.271 16.3696 29.667 17.2056 30.217 17.9206C31.097 19.0536 32.032 18.9436 32.791 17.6896C33.583 16.3806 33.814 14.9066 33.858 13.3996C33.946 10.6716 33.286 8.05359 32.604 5.44659C32.351 4.51159 32.098 3.60959 31.845 2.65259C37.378 3.49959 42.46 5.07259 46.156 9.54959C49.764 13.9166 51.073 19.0976 51.601 24.8396C52.789 23.0466 53.856 21.4516 54.956 19.8016C56.892 25.9836 58.366 32.0886 55.275 38.3036C55.572 38.3366 55.715 38.3916 55.847 38.3586C57.387 38.0176 58.069 38.7986 58.696 40.1296C60.984 44.9696 63.437 49.7326 65.78 54.5506C66.121 55.2436 66.495 55.5516 67.287 55.6286C74.074 56.3106 80.85 57.0476 87.637 57.7736C87.78 57.7846 87.923 57.7846 88.066 57.7846C88.066 64.8356 88.066 71.8866 88.066 78.9486ZM82.863 62.4596C78.958 62.0416 75.119 61.6236 71.269 61.2386C68.794 60.9856 66.308 60.5676 63.822 60.5566C44.583 60.5016 25.344 60.5236 6.105 60.5236C5.797 60.5236 5.5 60.5236 5.192 60.5236C5.192 64.9676 5.192 69.3016 5.192 73.6356C6.875 73.8446 6.875 73.8446 7.414 72.3266C9.372 66.8376 16.214 63.8676 21.582 66.1666C24.706 67.4976 26.851 69.7416 27.907 72.9866C28.05 73.4266 28.182 73.7236 28.765 73.7236C38.72 73.7016 48.664 73.7016 58.619 73.7236C59.158 73.7236 59.345 73.5036 59.521 73.0416C59.818 72.2386 60.137 71.4356 60.555 70.6986C63.074 66.1666 69.267 64.1206 74.008 66.2106C77.088 67.5636 79.189 69.7966 80.267 72.9976C80.355 73.2726 80.63 73.6356 80.861 73.6686C81.499 73.7566 82.159 73.7016 82.863 73.7016C82.863 69.9286 82.863 66.2436 82.863 62.4596ZM45.804 35.2346C45.859 34.6516 45.881 34.2886 45.925 33.9146C45.947 33.7166 45.98 33.5186 46.002 33.3206C46.574 29.2946 46.728 25.2796 45.903 21.2646C45.188 17.7776 43.934 14.5546 41.338 12.0136C40.634 11.3206 39.798 10.7596 38.896 10.0336C38.874 10.3856 38.863 10.4736 38.874 10.5616C38.896 10.9356 38.94 11.2986 38.962 11.6726C39.116 14.7306 38.775 17.6676 37.18 20.3736C35.068 23.9596 30.976 24.8946 27.577 22.5406C27.434 22.4416 27.247 22.3756 27.093 22.3096C25.487 26.6876 27.247 30.1856 30.03 33.5296C27.995 33.7716 26.191 33.9916 24.387 34.2116C25.641 39.6786 31.955 45.5416 40.249 44.1446C46.387 43.1106 52.547 36.3676 51.656 31.7146C49.775 32.8476 47.872 33.9916 45.804 35.2346ZM15.268 55.2876C21.989 55.2876 28.589 55.2876 35.211 55.2876C35.211 53.2746 35.211 51.3276 35.211 49.3916C35.101 49.3476 35.024 49.3036 34.936 49.2926C30.767 48.5996 27.17 46.7956 24.167 43.8146C24.002 43.6496 23.727 43.5616 23.485 43.5396C21.164 43.3526 21.164 43.3636 20.141 45.4316C19.954 45.8166 19.767 46.2016 19.569 46.5866C18.161 49.4576 16.742 52.3286 15.268 55.2876ZM60.313 55.3206C60.302 55.1776 60.302 55.1226 60.28 55.0786C58.454 51.3826 56.628 47.6866 54.802 43.9906C54.725 43.8476 54.626 43.6716 54.494 43.5946C53.966 43.2866 51.689 43.6166 51.249 44.0456C49.225 46.0146 46.893 47.4996 44.22 48.4016C42.988 48.8196 41.712 49.1056 40.469 49.4466C40.469 51.4156 40.469 53.3516 40.469 55.3316C47.102 55.3206 53.68 55.3206 60.313 55.3206ZM64.141 76.2866C64.141 79.4216 66.748 82.0286 69.883 82.0286C73.007 82.0286 75.636 79.3996 75.625 76.2756C75.614 73.1516 72.985 70.5226 69.872 70.5336C66.748 70.5336 64.141 73.1516 64.141 76.2866ZM17.545 82.0286C20.658 82.0506 23.287 79.4436 23.309 76.3086C23.342 73.1956 20.724 70.5666 17.589 70.5446C14.454 70.5226 11.847 73.1186 11.836 76.2646C11.825 79.4106 14.388 82.0066 17.545 82.0286Z" fill="#00309E"/>
<path d="M12.3581 119.365H14.8541V130.453H12.3581V119.365ZM17.2606 122.325C17.666 122.207 18.1886 122.101 18.8286 122.005C19.4686 121.898 20.1406 121.845 20.8446 121.845C21.5593 121.845 22.1513 121.941 22.6206 122.133C23.1006 122.314 23.4793 122.575 23.7566 122.917C24.034 123.258 24.2313 123.663 24.3486 124.133C24.466 124.602 24.5246 125.125 24.5246 125.701V130.453H22.1406V125.989C22.1406 125.221 22.0393 124.677 21.8366 124.357C21.634 124.037 21.2553 123.877 20.7006 123.877C20.53 123.877 20.3486 123.887 20.1566 123.909C19.9646 123.919 19.794 123.935 19.6446 123.957V130.453H17.2606V122.325ZM26.2825 126.245C26.2825 125.637 26.3785 125.066 26.5705 124.533C26.7732 123.989 27.0612 123.519 27.4345 123.125C27.8078 122.719 28.2612 122.399 28.7945 122.165C29.3278 121.93 29.9358 121.813 30.6185 121.813C31.0665 121.813 31.4772 121.855 31.8505 121.941C32.2238 122.015 32.5865 122.127 32.9385 122.277L32.4425 124.181C32.2185 124.095 31.9732 124.021 31.7065 123.957C31.4398 123.893 31.1412 123.861 30.8105 123.861C30.1065 123.861 29.5785 124.079 29.2265 124.517C28.8852 124.954 28.7145 125.53 28.7145 126.245C28.7145 127.002 28.8745 127.589 29.1945 128.005C29.5252 128.421 30.0958 128.629 30.9065 128.629C31.1945 128.629 31.5038 128.602 31.8345 128.549C32.1652 128.495 32.4692 128.41 32.7465 128.293L33.0825 130.245C32.8052 130.362 32.4585 130.463 32.0425 130.549C31.6265 130.634 31.1678 130.677 30.6665 130.677C29.8985 130.677 29.2372 130.565 28.6825 130.341C28.1278 130.106 27.6692 129.791 27.3065 129.397C26.9545 129.002 26.6932 128.538 26.5225 128.005C26.3625 127.461 26.2825 126.874 26.2825 126.245ZM33.8763 126.309C33.8763 125.562 33.9883 124.911 34.2122 124.357C34.4469 123.791 34.7509 123.322 35.1243 122.949C35.4976 122.575 35.9243 122.293 36.4043 122.101C36.8949 121.909 37.3963 121.813 37.9083 121.813C39.1029 121.813 40.0469 122.181 40.7403 122.917C41.4336 123.642 41.7803 124.714 41.7803 126.133C41.7803 126.271 41.7749 126.426 41.7643 126.597C41.7536 126.757 41.7429 126.901 41.7323 127.029H36.3243C36.3776 127.519 36.6069 127.909 37.0123 128.197C37.4176 128.485 37.9616 128.629 38.6443 128.629C39.0816 128.629 39.5083 128.591 39.9243 128.517C40.3509 128.431 40.6976 128.33 40.9643 128.213L41.2843 130.149C41.1563 130.213 40.9856 130.277 40.7723 130.341C40.5589 130.405 40.3189 130.458 40.0523 130.501C39.7963 130.554 39.5189 130.597 39.2203 130.629C38.9216 130.661 38.6229 130.677 38.3243 130.677C37.5669 130.677 36.9056 130.565 36.3403 130.341C35.7856 130.117 35.3216 129.813 34.9483 129.429C34.5856 129.034 34.3136 128.57 34.1323 128.037C33.9616 127.503 33.8763 126.927 33.8763 126.309ZM39.4763 125.397C39.4656 125.194 39.4283 124.997 39.3643 124.805C39.3109 124.613 39.2203 124.442 39.0923 124.293C38.9749 124.143 38.8203 124.021 38.6283 123.925C38.4469 123.829 38.2176 123.781 37.9403 123.781C37.6736 123.781 37.4443 123.829 37.2523 123.925C37.0603 124.01 36.9003 124.127 36.7723 124.277C36.6443 124.426 36.5429 124.602 36.4683 124.805C36.4043 124.997 36.3563 125.194 36.3243 125.397H39.4763ZM40.3083 120.133L39.4283 121.189L37.8283 119.957L36.2283 121.189L35.3163 120.133L37.8283 117.941L40.3083 120.133ZM43.62 122.325C44.0253 122.207 44.548 122.101 45.188 122.005C45.828 121.898 46.5 121.845 47.204 121.845C47.9187 121.845 48.5107 121.941 48.98 122.133C49.46 122.314 49.8387 122.575 50.116 122.917C50.3933 123.258 50.5907 123.663 50.708 124.133C50.8253 124.602 50.884 125.125 50.884 125.701V130.453H48.5V125.989C48.5 125.221 48.3987 124.677 48.196 124.357C47.9933 124.037 47.6147 123.877 47.06 123.877C46.8893 123.877 46.708 123.887 46.516 123.909C46.324 123.919 46.1533 123.935 46.004 123.957V130.453H43.62V122.325ZM55.0739 126.181C55.0739 126.917 55.2392 127.509 55.5699 127.957C55.9005 128.405 56.3912 128.629 57.0419 128.629C57.2552 128.629 57.4525 128.623 57.6339 128.613C57.8152 128.591 57.9645 128.57 58.0819 128.549V124.213C57.9325 124.117 57.7352 124.037 57.4899 123.973C57.2552 123.909 57.0152 123.877 56.7699 123.877C55.6392 123.877 55.0739 124.645 55.0739 126.181ZM60.4659 130.181C60.2525 130.245 60.0072 130.309 59.7299 130.373C59.4525 130.426 59.1592 130.474 58.8499 130.517C58.5512 130.559 58.2419 130.591 57.9219 130.613C57.6125 130.645 57.3139 130.661 57.0259 130.661C56.3325 130.661 55.7139 130.559 55.1699 130.357C54.6259 130.154 54.1672 129.866 53.7939 129.493C53.4205 129.109 53.1325 128.65 52.9299 128.117C52.7379 127.573 52.6419 126.965 52.6419 126.293C52.6419 125.61 52.7272 124.997 52.8979 124.453C53.0685 123.898 53.3139 123.429 53.6339 123.045C53.9539 122.661 54.3432 122.367 54.8019 122.165C55.2712 121.962 55.8045 121.861 56.4019 121.861C56.7325 121.861 57.0259 121.893 57.2819 121.957C57.5485 122.021 57.8152 122.111 58.0819 122.229V118.421L60.4659 118.037V130.181ZM65.0821 130.453H62.6981V122.037H65.0821V130.453ZM65.3061 119.605C65.3061 120.042 65.1621 120.389 64.8741 120.645C64.5968 120.89 64.2661 121.013 63.8821 121.013C63.4981 121.013 63.1621 120.89 62.8741 120.645C62.5968 120.389 62.4581 120.042 62.4581 119.605C62.4581 119.167 62.5968 118.826 62.8741 118.581C63.1621 118.325 63.4981 118.197 63.8821 118.197C64.2661 118.197 64.5968 118.325 64.8741 118.581C65.1621 118.826 65.3061 119.167 65.3061 119.605ZM75.1951 126.229C75.1951 126.89 75.0991 127.498 74.9071 128.053C74.7151 128.597 74.4378 129.066 74.0751 129.461C73.7125 129.845 73.2751 130.143 72.7631 130.357C72.2618 130.57 71.6965 130.677 71.0671 130.677C70.4485 130.677 69.8831 130.57 69.3711 130.357C68.8698 130.143 68.4378 129.845 68.0751 129.461C67.7125 129.066 67.4298 128.597 67.2271 128.053C67.0245 127.498 66.9231 126.89 66.9231 126.229C66.9231 125.567 67.0245 124.965 67.2271 124.421C67.4405 123.877 67.7285 123.413 68.0911 123.029C68.4645 122.645 68.9018 122.346 69.4031 122.133C69.9151 121.919 70.4698 121.813 71.0671 121.813C71.6751 121.813 72.2298 121.919 72.7311 122.133C73.2431 122.346 73.6805 122.645 74.0431 123.029C74.4058 123.413 74.6885 123.877 74.8911 124.421C75.0938 124.965 75.1951 125.567 75.1951 126.229ZM72.7631 126.229C72.7631 125.493 72.6138 124.917 72.3151 124.501C72.0271 124.074 71.6111 123.861 71.0671 123.861C70.5231 123.861 70.1018 124.074 69.8031 124.501C69.5045 124.917 69.3551 125.493 69.3551 126.229C69.3551 126.965 69.5045 127.551 69.8031 127.989C70.1018 128.415 70.5231 128.629 71.0671 128.629C71.6111 128.629 72.0271 128.415 72.3151 127.989C72.6138 127.551 72.7631 126.965 72.7631 126.229Z" fill="#2F2F2F"/>
</svg>
