<svg width="88" height="130" viewBox="0 0 88 130" fill="none" xmlns="http://www.w3.org/2000/svg">
<circle cx="44.3259" cy="40.7786" r="40.4148" fill="#FFFE06"/>
<path d="M65.0467 67.8304H77.1039L88 26.0036V21.3183L86.3256 20.6969C59.0333 10.5342 28.9667 10.5342 1.67444 20.6969L0 21.3183V26.0036L10.8961 67.8304H27.8483H65.0467ZM22.6906 62.6881H14.8867L5.15778 25.3456V24.9009C30.2744 15.9872 57.7256 15.9872 82.8422 24.9009V25.3456L73.1133 62.6881H59.8828" fill="#00309E"/>
<path d="M44.6847 47.2186L40.8163 44.2392L44.9169 38.9446L35.3652 27.5755L43.8047 14.2507L47.9419 16.8523L41.403 27.1734L51.193 38.8227L44.6847 47.2186Z" fill="#00309E"/>
<path d="M23.6229 126.453C23.1855 125.525 22.7535 124.559 22.3269 123.557C21.9002 122.554 21.4949 121.562 21.1109 120.581C20.7269 119.599 20.3695 118.661 20.0389 117.765C19.7189 116.869 19.4415 116.069 19.2069 115.365H21.9589C22.1722 116.005 22.4015 116.698 22.6469 117.445C22.9029 118.181 23.1589 118.917 23.4149 119.653C23.6815 120.389 23.9375 121.093 24.1829 121.765C24.4282 122.437 24.6575 123.018 24.8709 123.509C25.0735 123.018 25.2975 122.437 25.5429 121.765C25.7989 121.093 26.0549 120.389 26.3109 119.653C26.5775 118.917 26.8335 118.181 27.0789 117.445C27.3349 116.698 27.5695 116.005 27.7829 115.365H30.4389C30.1935 116.069 29.9109 116.869 29.5909 117.765C29.2709 118.661 28.9189 119.599 28.5349 120.581C28.1509 121.562 27.7455 122.554 27.3189 123.557C26.8922 124.559 26.4602 125.525 26.0229 126.453H23.6229ZM34.0978 126.453H31.7138V118.037H34.0978V126.453ZM34.3218 115.605C34.3218 116.042 34.1778 116.389 33.8898 116.645C33.6124 116.89 33.2818 117.013 32.8978 117.013C32.5138 117.013 32.1778 116.89 31.8898 116.645C31.6124 116.389 31.4738 116.042 31.4738 115.605C31.4738 115.167 31.6124 114.826 31.8898 114.581C32.1778 114.325 32.5138 114.197 32.8978 114.197C33.2818 114.197 33.6124 114.325 33.8898 114.581C34.1778 114.826 34.3218 115.167 34.3218 115.605ZM38.3708 122.181C38.3708 122.917 38.5361 123.509 38.8668 123.957C39.1974 124.405 39.6881 124.629 40.3388 124.629C40.5521 124.629 40.7494 124.623 40.9308 124.613C41.1121 124.591 41.2614 124.57 41.3788 124.549V120.213C41.2294 120.117 41.0321 120.037 40.7868 119.973C40.5521 119.909 40.3121 119.877 40.0668 119.877C38.9361 119.877 38.3708 120.645 38.3708 122.181ZM43.7628 126.181C43.5494 126.245 43.3041 126.309 43.0268 126.373C42.7494 126.426 42.4561 126.474 42.1468 126.517C41.8481 126.559 41.5388 126.591 41.2188 126.613C40.9094 126.645 40.6108 126.661 40.3228 126.661C39.6294 126.661 39.0108 126.559 38.4668 126.357C37.9228 126.154 37.4641 125.866 37.0908 125.493C36.7174 125.109 36.4294 124.65 36.2268 124.117C36.0348 123.573 35.9388 122.965 35.9388 122.293C35.9388 121.61 36.0241 120.997 36.1948 120.453C36.3654 119.898 36.6108 119.429 36.9308 119.045C37.2508 118.661 37.6401 118.367 38.0988 118.165C38.5681 117.962 39.1014 117.861 39.6988 117.861C40.0294 117.861 40.3228 117.893 40.5788 117.957C40.8454 118.021 41.1121 118.111 41.3788 118.229V114.421L43.7628 114.037V126.181ZM51.067 120.149C50.8537 120.095 50.603 120.042 50.315 119.989C50.027 119.925 49.7177 119.893 49.387 119.893C49.2377 119.893 49.0563 119.909 48.843 119.941C48.6403 119.962 48.4857 119.989 48.379 120.021V126.453H45.995V118.485C46.4217 118.335 46.923 118.197 47.499 118.069C48.0857 117.93 48.7363 117.861 49.451 117.861C49.579 117.861 49.7337 117.871 49.915 117.893C50.0963 117.903 50.2777 117.925 50.459 117.957C50.6403 117.978 50.8217 118.01 51.003 118.053C51.1843 118.085 51.339 118.127 51.467 118.181L51.067 120.149ZM60.4608 122.229C60.4608 122.89 60.3648 123.498 60.1728 124.053C59.9808 124.597 59.7034 125.066 59.3408 125.461C58.9781 125.845 58.5408 126.143 58.0288 126.357C57.5274 126.57 56.9621 126.677 56.3328 126.677C55.7141 126.677 55.1488 126.57 54.6368 126.357C54.1354 126.143 53.7034 125.845 53.3408 125.461C52.9781 125.066 52.6954 124.597 52.4928 124.053C52.2901 123.498 52.1888 122.89 52.1888 122.229C52.1888 121.567 52.2901 120.965 52.4928 120.421C52.7061 119.877 52.9941 119.413 53.3568 119.029C53.7301 118.645 54.1674 118.346 54.6688 118.133C55.1808 117.919 55.7354 117.813 56.3328 117.813C56.9408 117.813 57.4954 117.919 57.9968 118.133C58.5088 118.346 58.9461 118.645 59.3088 119.029C59.6714 119.413 59.9541 119.877 60.1568 120.421C60.3594 120.965 60.4608 121.567 60.4608 122.229ZM58.0288 122.229C58.0288 121.493 57.8794 120.917 57.5808 120.501C57.2928 120.074 56.8768 119.861 56.3328 119.861C55.7888 119.861 55.3674 120.074 55.0688 120.501C54.7701 120.917 54.6208 121.493 54.6208 122.229C54.6208 122.965 54.7701 123.551 55.0688 123.989C55.3674 124.415 55.7888 124.629 56.3328 124.629C56.8768 124.629 57.2928 124.415 57.5808 123.989C57.8794 123.551 58.0288 122.965 58.0288 122.229ZM64.7235 124.741C65.1608 124.741 65.4702 124.698 65.6515 124.613C65.8328 124.527 65.9235 124.362 65.9235 124.117C65.9235 123.925 65.8062 123.759 65.5715 123.621C65.3368 123.471 64.9795 123.306 64.4995 123.125C64.1262 122.986 63.7848 122.842 63.4755 122.693C63.1768 122.543 62.9208 122.367 62.7075 122.165C62.4942 121.951 62.3288 121.701 62.2115 121.413C62.0942 121.125 62.0355 120.778 62.0355 120.373C62.0355 119.583 62.3288 118.959 62.9155 118.501C63.5022 118.042 64.3075 117.813 65.3315 117.813C65.8435 117.813 66.3342 117.861 66.8035 117.957C67.2728 118.042 67.6462 118.138 67.9235 118.245L67.5075 120.101C67.2302 120.005 66.9262 119.919 66.5955 119.845C66.2755 119.77 65.9128 119.733 65.5075 119.733C64.7608 119.733 64.3875 119.941 64.3875 120.357C64.3875 120.453 64.4035 120.538 64.4355 120.613C64.4675 120.687 64.5315 120.762 64.6275 120.837C64.7235 120.901 64.8515 120.975 65.0115 121.061C65.1822 121.135 65.3955 121.221 65.6515 121.317C66.1742 121.509 66.6062 121.701 66.9475 121.893C67.2888 122.074 67.5555 122.277 67.7475 122.501C67.9502 122.714 68.0888 122.954 68.1635 123.221C68.2488 123.487 68.2915 123.797 68.2915 124.149C68.2915 124.981 67.9768 125.61 67.3475 126.037C66.7288 126.463 65.8488 126.677 64.7075 126.677C63.9608 126.677 63.3368 126.613 62.8355 126.485C62.3448 126.357 62.0035 126.25 61.8115 126.165L62.2115 124.229C62.6168 124.389 63.0328 124.517 63.4595 124.613C63.8862 124.698 64.3075 124.741 64.7235 124.741Z" fill="#2F2F2F"/>
</svg>
