<svg width="89" height="144" viewBox="0 0 89 144" fill="none" xmlns="http://www.w3.org/2000/svg">
<circle cx="44.3259" cy="44.7786" r="40.4148" fill="#FFFE06"/>
<path d="M88.5411 50.7127C88.5411 44.5907 84.4309 39.1422 78.5507 37.4671L69.5361 34.894L62.4384 20.6985C60.271 16.3553 55.9019 13.6526 51.0405 13.6526H24.4284C19.1439 13.6526 14.3517 16.977 12.4952 21.9246L7.51297 35.2048L4.72396 36.595C1.83996 38.0456 0.0439453 40.9469 0.0439453 44.1763V65.7112H12.4779C13.6695 71.1597 18.5395 75.2526 24.342 75.2526C30.1445 75.2526 35.0145 71.1597 36.2061 65.7112H52.3875C53.5791 71.1597 58.4491 75.2526 64.2516 75.2526C70.0542 75.2526 74.9155 71.1597 76.1157 65.7112H88.5497L88.5411 50.7127ZM57.7842 23.0212L63.5091 34.4709H39.9536V18.8593H51.0405C53.9159 18.8593 56.4977 20.4567 57.7842 23.0212ZM17.3652 23.7466C18.4618 20.8194 21.3026 18.8593 24.4197 18.8593H34.7468V34.4795H13.3414L17.3652 23.7466ZM24.342 70.0459C20.5168 70.0459 17.3997 66.9287 17.3997 63.1036C17.3997 59.2784 20.5168 56.1613 24.342 56.1613C28.1672 56.1613 31.2843 59.2784 31.2843 63.1036C31.2843 66.9287 28.1672 70.0459 24.342 70.0459ZM64.2516 70.0459C60.4265 70.0459 57.3093 66.9287 57.3093 63.1036C57.3093 59.2784 60.4265 56.1613 64.2516 56.1613C68.0768 56.1613 71.1939 59.2784 71.1939 63.1036C71.1939 66.9287 68.0768 70.0459 64.2516 70.0459ZM76.1157 60.5045C74.9241 55.056 70.0542 50.9632 64.2516 50.9632C58.4491 50.9632 53.5791 55.056 52.3875 60.5045H36.1975C35.0059 55.056 30.1359 50.9632 24.3334 50.9632C18.5309 50.9632 13.6695 55.056 12.4779 60.5045H5.25067V44.1763C5.25067 42.9329 5.94145 41.819 7.05533 41.2577L10.207 39.6862H66.8593V39.5394L77.126 42.4752C79.6991 43.2092 81.7283 45.1088 82.704 47.492H78.1363V52.6987H83.343V60.5045H76.1157Z" fill="#00309E"/>
<path d="M29.1173 122.677C27.3146 122.677 25.9386 122.175 24.9893 121.173C24.0506 120.17 23.5813 118.746 23.5813 116.901C23.5813 115.983 23.7253 115.167 24.0133 114.453C24.3013 113.727 24.6959 113.119 25.1973 112.629C25.6986 112.127 26.2959 111.749 26.9893 111.493C27.6826 111.237 28.4346 111.109 29.2453 111.109C29.7146 111.109 30.1413 111.146 30.5253 111.221C30.9093 111.285 31.2453 111.365 31.5333 111.461C31.8213 111.546 32.0613 111.637 32.2533 111.733C32.4453 111.829 32.5839 111.903 32.6693 111.957L31.9493 113.973C31.6079 113.791 31.2079 113.637 30.7493 113.509C30.3013 113.381 29.7893 113.317 29.2133 113.317C28.8293 113.317 28.4506 113.381 28.0773 113.509C27.7146 113.637 27.3893 113.845 27.1013 114.133C26.8239 114.41 26.5999 114.773 26.4293 115.221C26.2586 115.669 26.1733 116.213 26.1733 116.853C26.1733 117.365 26.2266 117.845 26.3333 118.293C26.4506 118.73 26.6319 119.109 26.8773 119.429C27.1333 119.749 27.4639 120.005 27.8693 120.197C28.2746 120.378 28.7653 120.469 29.3413 120.469C29.7039 120.469 30.0293 120.447 30.3173 120.405C30.6053 120.362 30.8613 120.314 31.0853 120.261C31.3093 120.197 31.5066 120.127 31.6773 120.053C31.8479 119.978 32.0026 119.909 32.1413 119.845L32.8293 121.845C32.4773 122.058 31.9813 122.25 31.3413 122.421C30.7013 122.591 29.9599 122.677 29.1173 122.677ZM37.6485 120.789C37.8832 120.789 38.1072 120.783 38.3205 120.773C38.5338 120.762 38.7045 120.746 38.8325 120.725V118.917C38.7365 118.895 38.5925 118.874 38.4005 118.853C38.2085 118.831 38.0325 118.821 37.8725 118.821C37.6485 118.821 37.4352 118.837 37.2325 118.869C37.0405 118.89 36.8698 118.938 36.7205 119.013C36.5712 119.087 36.4538 119.189 36.3685 119.317C36.2832 119.445 36.2405 119.605 36.2405 119.797C36.2405 120.17 36.3632 120.431 36.6085 120.581C36.8645 120.719 37.2112 120.789 37.6485 120.789ZM37.4565 113.813C38.1605 113.813 38.7472 113.893 39.2165 114.053C39.6858 114.213 40.0592 114.442 40.3365 114.741C40.6245 115.039 40.8272 115.402 40.9445 115.829C41.0618 116.255 41.1205 116.73 41.1205 117.253V122.213C40.7792 122.287 40.3045 122.373 39.6965 122.469C39.0885 122.575 38.3525 122.629 37.4885 122.629C36.9445 122.629 36.4485 122.581 36.0005 122.485C35.5632 122.389 35.1845 122.234 34.8645 122.021C34.5445 121.797 34.2992 121.509 34.1285 121.157C33.9578 120.805 33.8725 120.373 33.8725 119.861C33.8725 119.37 33.9685 118.954 34.1605 118.613C34.3632 118.271 34.6298 117.999 34.9605 117.797C35.2912 117.594 35.6698 117.45 36.0965 117.365C36.5232 117.269 36.9658 117.221 37.4245 117.221C37.7338 117.221 38.0058 117.237 38.2405 117.269C38.4858 117.29 38.6832 117.322 38.8325 117.365V117.141C38.8325 116.735 38.7098 116.41 38.4645 116.165C38.2192 115.919 37.7925 115.797 37.1845 115.797C36.7792 115.797 36.3792 115.829 35.9845 115.893C35.5898 115.946 35.2485 116.026 34.9605 116.133L34.6565 114.213C34.7952 114.17 34.9658 114.127 35.1685 114.085C35.3818 114.031 35.6112 113.989 35.8565 113.957C36.1018 113.914 36.3578 113.882 36.6245 113.861C36.9018 113.829 37.1792 113.813 37.4565 113.813ZM48.3483 116.149C48.1349 116.095 47.8843 116.042 47.5963 115.989C47.3083 115.925 46.9989 115.893 46.6683 115.893C46.5189 115.893 46.3376 115.909 46.1243 115.941C45.9216 115.962 45.7669 115.989 45.6603 116.021V122.453H43.2763V114.485C43.7029 114.335 44.2043 114.197 44.7803 114.069C45.3669 113.93 46.0176 113.861 46.7323 113.861C46.8603 113.861 47.0149 113.871 47.1963 113.893C47.3776 113.903 47.5589 113.925 47.7403 113.957C47.9216 113.978 48.1029 114.01 48.2843 114.053C48.4656 114.085 48.6203 114.127 48.7483 114.181L48.3483 116.149ZM55.0983 116.149C54.8849 116.095 54.6343 116.042 54.3463 115.989C54.0583 115.925 53.7489 115.893 53.4183 115.893C53.2689 115.893 53.0876 115.909 52.8743 115.941C52.6716 115.962 52.5169 115.989 52.4103 116.021V122.453H50.0263V114.485C50.4529 114.335 50.9543 114.197 51.5303 114.069C52.1169 113.93 52.7676 113.861 53.4823 113.861C53.6103 113.861 53.7649 113.871 53.9463 113.893C54.1276 113.903 54.3089 113.925 54.4903 113.957C54.6716 113.978 54.8529 114.01 55.0343 114.053C55.2156 114.085 55.3703 114.127 55.4983 114.181L55.0983 116.149ZM64.492 118.229C64.492 118.89 64.396 119.498 64.204 120.053C64.012 120.597 63.7347 121.066 63.372 121.461C63.0093 121.845 62.572 122.143 62.06 122.357C61.5587 122.57 60.9933 122.677 60.364 122.677C59.7453 122.677 59.18 122.57 58.668 122.357C58.1667 122.143 57.7347 121.845 57.372 121.461C57.0093 121.066 56.7267 120.597 56.524 120.053C56.3213 119.498 56.22 118.89 56.22 118.229C56.22 117.567 56.3213 116.965 56.524 116.421C56.7373 115.877 57.0253 115.413 57.388 115.029C57.7613 114.645 58.1987 114.346 58.7 114.133C59.212 113.919 59.7667 113.813 60.364 113.813C60.972 113.813 61.5267 113.919 62.028 114.133C62.54 114.346 62.9773 114.645 63.34 115.029C63.7027 115.413 63.9853 115.877 64.188 116.421C64.3907 116.965 64.492 117.567 64.492 118.229ZM62.06 118.229C62.06 117.493 61.9107 116.917 61.612 116.501C61.324 116.074 60.908 115.861 60.364 115.861C59.82 115.861 59.3987 116.074 59.1 116.501C58.8013 116.917 58.652 117.493 58.652 118.229C58.652 118.965 58.8013 119.551 59.1 119.989C59.3987 120.415 59.82 120.629 60.364 120.629C60.908 120.629 61.324 120.415 61.612 119.989C61.9107 119.551 62.06 118.965 62.06 118.229ZM17.8014 129.237C19.4654 129.237 20.7401 129.535 21.6254 130.133C22.5108 130.719 22.9534 131.637 22.9534 132.885C22.9534 133.663 22.7721 134.298 22.4094 134.789C22.0574 135.269 21.5454 135.647 20.8734 135.925C21.0974 136.202 21.3321 136.522 21.5774 136.885C21.8228 137.237 22.0628 137.61 22.2974 138.005C22.5428 138.389 22.7774 138.794 23.0014 139.221C23.2254 139.637 23.4334 140.047 23.6254 140.453H20.8254C20.6228 140.09 20.4148 139.722 20.2014 139.349C19.9988 138.975 19.7854 138.613 19.5614 138.261C19.3481 137.909 19.1348 137.578 18.9214 137.269C18.7081 136.949 18.4948 136.661 18.2814 136.405H17.0494V140.453H14.5534V129.525C15.0974 129.418 15.6574 129.343 16.2334 129.301C16.8201 129.258 17.3428 129.237 17.8014 129.237ZM17.9454 131.365C17.7641 131.365 17.5988 131.37 17.4494 131.381C17.3108 131.391 17.1774 131.402 17.0494 131.413V134.421H17.7534C18.6921 134.421 19.3641 134.303 19.7694 134.069C20.1748 133.834 20.3774 133.434 20.3774 132.869C20.3774 132.325 20.1694 131.941 19.7534 131.717C19.3481 131.482 18.7454 131.365 17.9454 131.365ZM24.2591 136.309C24.2591 135.562 24.3711 134.911 24.5951 134.357C24.8297 133.791 25.1337 133.322 25.5071 132.949C25.8804 132.575 26.3071 132.293 26.7871 132.101C27.2777 131.909 27.7791 131.813 28.2911 131.813C29.4857 131.813 30.4297 132.181 31.1231 132.917C31.8164 133.642 32.1631 134.714 32.1631 136.133C32.1631 136.271 32.1577 136.426 32.1471 136.597C32.1364 136.757 32.1257 136.901 32.1151 137.029H26.7071C26.7604 137.519 26.9897 137.909 27.3951 138.197C27.8004 138.485 28.3444 138.629 29.0271 138.629C29.4644 138.629 29.8911 138.591 30.3071 138.517C30.7337 138.431 31.0804 138.33 31.3471 138.213L31.6671 140.149C31.5391 140.213 31.3684 140.277 31.1551 140.341C30.9417 140.405 30.7017 140.458 30.4351 140.501C30.1791 140.554 29.9017 140.597 29.6031 140.629C29.3044 140.661 29.0057 140.677 28.7071 140.677C27.9497 140.677 27.2884 140.565 26.7231 140.341C26.1684 140.117 25.7044 139.813 25.3311 139.429C24.9684 139.034 24.6964 138.57 24.5151 138.037C24.3444 137.503 24.2591 136.927 24.2591 136.309ZM29.8591 135.397C29.8484 135.194 29.8111 134.997 29.7471 134.805C29.6937 134.613 29.6031 134.442 29.4751 134.293C29.3577 134.143 29.2031 134.021 29.0111 133.925C28.8297 133.829 28.6004 133.781 28.3231 133.781C28.0564 133.781 27.8271 133.829 27.6351 133.925C27.4431 134.01 27.2831 134.127 27.1551 134.277C27.0271 134.426 26.9257 134.602 26.8511 134.805C26.7871 134.997 26.7391 135.194 26.7071 135.397H29.8591ZM36.4188 138.741C36.8561 138.741 37.1655 138.698 37.3468 138.613C37.5281 138.527 37.6188 138.362 37.6188 138.117C37.6188 137.925 37.5015 137.759 37.2668 137.621C37.0321 137.471 36.6748 137.306 36.1948 137.125C35.8215 136.986 35.4801 136.842 35.1708 136.693C34.8721 136.543 34.6161 136.367 34.4028 136.165C34.1895 135.951 34.0241 135.701 33.9068 135.413C33.7895 135.125 33.7308 134.778 33.7308 134.373C33.7308 133.583 34.0241 132.959 34.6108 132.501C35.1975 132.042 36.0028 131.813 37.0268 131.813C37.5388 131.813 38.0295 131.861 38.4988 131.957C38.9681 132.042 39.3415 132.138 39.6188 132.245L39.2028 134.101C38.9255 134.005 38.6215 133.919 38.2908 133.845C37.9708 133.77 37.6081 133.733 37.2028 133.733C36.4561 133.733 36.0828 133.941 36.0828 134.357C36.0828 134.453 36.0988 134.538 36.1308 134.613C36.1628 134.687 36.2268 134.762 36.3228 134.837C36.4188 134.901 36.5468 134.975 36.7068 135.061C36.8775 135.135 37.0908 135.221 37.3468 135.317C37.8695 135.509 38.3015 135.701 38.6428 135.893C38.9841 136.074 39.2508 136.277 39.4428 136.501C39.6455 136.714 39.7841 136.954 39.8588 137.221C39.9441 137.487 39.9868 137.797 39.9868 138.149C39.9868 138.981 39.6721 139.61 39.0428 140.037C38.4241 140.463 37.5441 140.677 36.4028 140.677C35.6561 140.677 35.0321 140.613 34.5308 140.485C34.0401 140.357 33.6988 140.25 33.5068 140.165L33.9068 138.229C34.3121 138.389 34.7281 138.517 35.1548 138.613C35.5815 138.698 36.0028 138.741 36.4188 138.741ZM41.3684 136.309C41.3684 135.562 41.4804 134.911 41.7044 134.357C41.9391 133.791 42.2431 133.322 42.6164 132.949C42.9898 132.575 43.4164 132.293 43.8964 132.101C44.3871 131.909 44.8884 131.813 45.4004 131.813C46.5951 131.813 47.5391 132.181 48.2324 132.917C48.9258 133.642 49.2724 134.714 49.2724 136.133C49.2724 136.271 49.2671 136.426 49.2564 136.597C49.2458 136.757 49.2351 136.901 49.2244 137.029H43.8164C43.8698 137.519 44.0991 137.909 44.5044 138.197C44.9098 138.485 45.4538 138.629 46.1364 138.629C46.5738 138.629 47.0004 138.591 47.4164 138.517C47.8431 138.431 48.1898 138.33 48.4564 138.213L48.7764 140.149C48.6484 140.213 48.4778 140.277 48.2644 140.341C48.0511 140.405 47.8111 140.458 47.5444 140.501C47.2884 140.554 47.0111 140.597 46.7124 140.629C46.4138 140.661 46.1151 140.677 45.8164 140.677C45.0591 140.677 44.3978 140.565 43.8324 140.341C43.2778 140.117 42.8138 139.813 42.4404 139.429C42.0778 139.034 41.8058 138.57 41.6244 138.037C41.4538 137.503 41.3684 136.927 41.3684 136.309ZM46.9684 135.397C46.9578 135.194 46.9204 134.997 46.8564 134.805C46.8031 134.613 46.7124 134.442 46.5844 134.293C46.4671 134.143 46.3124 134.021 46.1204 133.925C45.9391 133.829 45.7098 133.781 45.4324 133.781C45.1658 133.781 44.9364 133.829 44.7444 133.925C44.5524 134.01 44.3924 134.127 44.2644 134.277C44.1364 134.426 44.0351 134.602 43.9604 134.805C43.8964 134.997 43.8484 135.194 43.8164 135.397H46.9684ZM56.1842 134.149C55.9709 134.095 55.7202 134.042 55.4322 133.989C55.1442 133.925 54.8349 133.893 54.5042 133.893C54.3549 133.893 54.1735 133.909 53.9602 133.941C53.7575 133.962 53.6029 133.989 53.4962 134.021V140.453H51.1122V132.485C51.5389 132.335 52.0402 132.197 52.6162 132.069C53.2029 131.93 53.8535 131.861 54.5682 131.861C54.6962 131.861 54.8509 131.871 55.0322 131.893C55.2135 131.903 55.3949 131.925 55.5762 131.957C55.7575 131.978 55.9389 132.01 56.1202 132.053C56.3015 132.085 56.4562 132.127 56.5842 132.181L56.1842 134.149ZM60.6502 140.453C60.1062 139.386 59.5515 138.138 58.9862 136.709C58.4315 135.279 57.9035 133.722 57.4022 132.037H59.9302C60.0369 132.453 60.1595 132.906 60.2982 133.397C60.4475 133.877 60.5969 134.367 60.7462 134.869C60.9062 135.359 61.0609 135.839 61.2102 136.309C61.3702 136.778 61.5249 137.205 61.6742 137.589C61.8129 137.205 61.9622 136.778 62.1222 136.309C62.2822 135.839 62.4369 135.359 62.5862 134.869C62.7462 134.367 62.8955 133.877 63.0342 133.397C63.1835 132.906 63.3115 132.453 63.4182 132.037H65.8822C65.3809 133.722 64.8475 135.279 64.2822 136.709C63.7275 138.138 63.1782 139.386 62.6342 140.453H60.6502ZM70.2188 138.789C70.4535 138.789 70.6775 138.783 70.8908 138.773C71.1041 138.762 71.2748 138.746 71.4028 138.725V136.917C71.3068 136.895 71.1628 136.874 70.9708 136.853C70.7788 136.831 70.6028 136.821 70.4428 136.821C70.2188 136.821 70.0055 136.837 69.8028 136.869C69.6108 136.89 69.4401 136.938 69.2908 137.013C69.1415 137.087 69.0241 137.189 68.9388 137.317C68.8535 137.445 68.8108 137.605 68.8108 137.797C68.8108 138.17 68.9335 138.431 69.1788 138.581C69.4348 138.719 69.7815 138.789 70.2188 138.789ZM70.0268 131.813C70.7308 131.813 71.3175 131.893 71.7868 132.053C72.2561 132.213 72.6295 132.442 72.9068 132.741C73.1948 133.039 73.3975 133.402 73.5148 133.829C73.6321 134.255 73.6908 134.73 73.6908 135.253V140.213C73.3495 140.287 72.8748 140.373 72.2668 140.469C71.6588 140.575 70.9228 140.629 70.0588 140.629C69.5148 140.629 69.0188 140.581 68.5708 140.485C68.1335 140.389 67.7548 140.234 67.4348 140.021C67.1148 139.797 66.8695 139.509 66.6988 139.157C66.5281 138.805 66.4428 138.373 66.4428 137.861C66.4428 137.37 66.5388 136.954 66.7308 136.613C66.9335 136.271 67.2001 135.999 67.5308 135.797C67.8615 135.594 68.2401 135.45 68.6668 135.365C69.0935 135.269 69.5361 135.221 69.9948 135.221C70.3041 135.221 70.5761 135.237 70.8108 135.269C71.0561 135.29 71.2535 135.322 71.4028 135.365V135.141C71.4028 134.735 71.2801 134.41 71.0348 134.165C70.7895 133.919 70.3628 133.797 69.7548 133.797C69.3495 133.797 68.9495 133.829 68.5548 133.893C68.1601 133.946 67.8188 134.026 67.5308 134.133L67.2268 132.213C67.3655 132.17 67.5361 132.127 67.7388 132.085C67.9521 132.031 68.1815 131.989 68.4268 131.957C68.6721 131.914 68.9281 131.882 69.1948 131.861C69.4721 131.829 69.7495 131.813 70.0268 131.813Z" fill="#2F2F2F"/>
</svg>
