<svg width="90" height="144" viewBox="0 0 90 144" fill="none" xmlns="http://www.w3.org/2000/svg">
<circle cx="45.326" cy="44.7786" r="40.4148" fill="#FFFE06"/>
<path d="M89 78.5841V63.2218H86.5486L80.6274 45.8104H44.8743L39.0034 63.0709L30.92 60.6195L36.4891 49.4812L18.7383 37.6515L24.4709 26.1864L11.6354 13.3635L5.52571 0.452637H1V88.4526H89V83.2984H83.0789V78.5841H89ZM83.8457 73.4298H77.1703V68.3886H83.8457V73.4298ZM50.4309 68.3761H72.016V73.4172H54.9817L50.4309 68.3761ZM48.5703 50.9772H76.944L81.1051 63.2344H44.3966L48.5703 50.9772ZM6.15429 56.5966L12.8297 63.2721V76.6229H19.7314L23.0754 83.2984H6.15429V56.5966ZM28.8457 83.2984L22.9246 71.4686H17.9966V61.1475L6.15429 49.3052V13.8412L7.34857 16.3806L18.1851 27.2172L12.088 39.4241L29.8389 51.2538L23.5783 63.7875L45.2891 70.3875L56.9554 83.2984H28.8457ZM77.9246 83.2984H63.8949L59.6331 78.5841H77.9246V83.2984Z" fill="#00309E"/>
<path d="M68.6719 24.1245H73.8262V29.2788H68.6719V24.1245Z" fill="#00309E"/>
<path d="M30.5928 30.0459H35.7471V35.2002H30.5928V30.0459Z" fill="#00309E"/>
<path d="M59.4067 31.6046V21.7989L50.9084 16.896L42.4102 21.7989V31.6046L50.9084 36.5074L59.4067 31.6046ZM47.577 24.7783L50.921 22.8549L54.265 24.7783V28.6377L50.921 30.5611L47.577 28.6377V24.7783Z" fill="#00309E"/>
<path d="M2.49875 122.453V111.365H9.92275V113.461H4.99475V115.781H9.37875V117.877H4.99475V122.453H2.49875ZM10.97 118.309C10.97 117.562 11.082 116.911 11.306 116.357C11.5407 115.791 11.8447 115.322 12.218 114.949C12.5913 114.575 13.018 114.293 13.498 114.101C13.9887 113.909 14.49 113.813 15.002 113.813C16.1967 113.813 17.1407 114.181 17.834 114.917C18.5273 115.642 18.874 116.714 18.874 118.133C18.874 118.271 18.8687 118.426 18.858 118.597C18.8473 118.757 18.8367 118.901 18.826 119.029H13.418C13.4713 119.519 13.7007 119.909 14.106 120.197C14.5113 120.485 15.0553 120.629 15.738 120.629C16.1753 120.629 16.602 120.591 17.018 120.517C17.4447 120.431 17.7913 120.33 18.058 120.213L18.378 122.149C18.25 122.213 18.0793 122.277 17.866 122.341C17.6527 122.405 17.4127 122.458 17.146 122.501C16.89 122.554 16.6127 122.597 16.314 122.629C16.0153 122.661 15.7167 122.677 15.418 122.677C14.6607 122.677 13.9993 122.565 13.434 122.341C12.8793 122.117 12.4153 121.813 12.042 121.429C11.6793 121.034 11.4073 120.57 11.226 120.037C11.0553 119.503 10.97 118.927 10.97 118.309ZM16.57 117.397C16.5593 117.194 16.522 116.997 16.458 116.805C16.4047 116.613 16.314 116.442 16.186 116.293C16.0687 116.143 15.914 116.021 15.722 115.925C15.5407 115.829 15.3113 115.781 15.034 115.781C14.7673 115.781 14.538 115.829 14.346 115.925C14.154 116.01 13.994 116.127 13.866 116.277C13.738 116.426 13.6367 116.602 13.562 116.805C13.498 116.997 13.45 117.194 13.418 117.397H16.57ZM20.7138 114.325C21.1191 114.207 21.6418 114.101 22.2818 114.005C22.9218 113.898 23.5938 113.845 24.2977 113.845C25.0124 113.845 25.6044 113.941 26.0738 114.133C26.5538 114.314 26.9324 114.575 27.2098 114.917C27.4871 115.258 27.6844 115.663 27.8018 116.133C27.9191 116.602 27.9778 117.125 27.9778 117.701V122.453H25.5938V117.989C25.5938 117.221 25.4924 116.677 25.2898 116.357C25.0871 116.037 24.7084 115.877 24.1538 115.877C23.9831 115.877 23.8018 115.887 23.6098 115.909C23.4178 115.919 23.2471 115.935 23.0978 115.957V122.453H20.7138V114.325ZM38.0076 118.229C38.0076 118.89 37.9116 119.498 37.7196 120.053C37.5276 120.597 37.2503 121.066 36.8876 121.461C36.525 121.845 36.0876 122.143 35.5756 122.357C35.0743 122.57 34.509 122.677 33.8796 122.677C33.261 122.677 32.6956 122.57 32.1836 122.357C31.6823 122.143 31.2503 121.845 30.8876 121.461C30.525 121.066 30.2423 120.597 30.0396 120.053C29.837 119.498 29.7356 118.89 29.7356 118.229C29.7356 117.567 29.837 116.965 30.0396 116.421C30.253 115.877 30.541 115.413 30.9036 115.029C31.277 114.645 31.7143 114.346 32.2156 114.133C32.7276 113.919 33.2823 113.813 33.8796 113.813C34.4876 113.813 35.0423 113.919 35.5436 114.133C36.0556 114.346 36.493 114.645 36.8556 115.029C37.2183 115.413 37.501 115.877 37.7036 116.421C37.9063 116.965 38.0076 117.567 38.0076 118.229ZM35.5756 118.229C35.5756 117.493 35.4263 116.917 35.1276 116.501C34.8396 116.074 34.4236 115.861 33.8796 115.861C33.3356 115.861 32.9143 116.074 32.6156 116.501C32.317 116.917 32.1676 117.493 32.1676 118.229C32.1676 118.965 32.317 119.551 32.6156 119.989C32.9143 120.415 33.3356 120.629 33.8796 120.629C34.4236 120.629 34.8396 120.415 35.1276 119.989C35.4263 119.551 35.5756 118.965 35.5756 118.229ZM36.3436 112.133L35.4636 113.189L33.8636 111.957L32.2636 113.189L31.3516 112.133L33.8636 109.941L36.3436 112.133ZM44.4784 117.989C44.4784 117.221 44.377 116.677 44.1744 116.357C43.9824 116.037 43.6464 115.877 43.1664 115.877C43.017 115.877 42.8624 115.887 42.7024 115.909C42.5424 115.919 42.3877 115.935 42.2384 115.957V122.453H39.8544V114.325C40.057 114.271 40.2917 114.218 40.5584 114.165C40.8357 114.101 41.1237 114.047 41.4224 114.005C41.7317 113.951 42.0464 113.914 42.3664 113.893C42.6864 113.861 43.001 113.845 43.3104 113.845C43.9184 113.845 44.409 113.925 44.7824 114.085C45.1664 114.234 45.481 114.415 45.7264 114.629C46.0677 114.383 46.457 114.191 46.8944 114.053C47.3424 113.914 47.753 113.845 48.1264 113.845C48.7984 113.845 49.3477 113.941 49.7744 114.133C50.2117 114.314 50.5584 114.575 50.8144 114.917C51.0704 115.258 51.2464 115.663 51.3424 116.133C51.4384 116.602 51.4864 117.125 51.4864 117.701V122.453H49.1024V117.989C49.1024 117.221 49.001 116.677 48.7984 116.357C48.6064 116.037 48.2704 115.877 47.7904 115.877C47.6624 115.877 47.481 115.909 47.2464 115.973C47.0224 116.037 46.8357 116.117 46.6864 116.213C46.761 116.458 46.809 116.719 46.8304 116.997C46.8517 117.263 46.8624 117.551 46.8624 117.861V122.453H44.4784V117.989ZM53.2513 118.309C53.2513 117.562 53.3633 116.911 53.5872 116.357C53.8219 115.791 54.1259 115.322 54.4993 114.949C54.8726 114.575 55.2993 114.293 55.7793 114.101C56.2699 113.909 56.7713 113.813 57.2833 113.813C58.4779 113.813 59.4219 114.181 60.1153 114.917C60.8086 115.642 61.1553 116.714 61.1553 118.133C61.1553 118.271 61.1499 118.426 61.1393 118.597C61.1286 118.757 61.1179 118.901 61.1073 119.029H55.6993C55.7526 119.519 55.9819 119.909 56.3873 120.197C56.7926 120.485 57.3366 120.629 58.0193 120.629C58.4566 120.629 58.8833 120.591 59.2993 120.517C59.7259 120.431 60.0726 120.33 60.3393 120.213L60.6593 122.149C60.5313 122.213 60.3606 122.277 60.1473 122.341C59.9339 122.405 59.6939 122.458 59.4273 122.501C59.1713 122.554 58.8939 122.597 58.5953 122.629C58.2966 122.661 57.9979 122.677 57.6993 122.677C56.9419 122.677 56.2806 122.565 55.7153 122.341C55.1606 122.117 54.6966 121.813 54.3233 121.429C53.9606 121.034 53.6886 120.57 53.5073 120.037C53.3366 119.503 53.2513 118.927 53.2513 118.309ZM58.8513 117.397C58.8406 117.194 58.8033 116.997 58.7393 116.805C58.6859 116.613 58.5953 116.442 58.4673 116.293C58.3499 116.143 58.1953 116.021 58.0033 115.925C57.8219 115.829 57.5926 115.781 57.3153 115.781C57.0486 115.781 56.8193 115.829 56.6273 115.925C56.4353 116.01 56.2753 116.127 56.1473 116.277C56.0193 116.426 55.9179 116.602 55.8433 116.805C55.7793 116.997 55.7313 117.194 55.6993 117.397H58.8513ZM62.995 114.325C63.4003 114.207 63.923 114.101 64.563 114.005C65.203 113.898 65.875 113.845 66.579 113.845C67.2937 113.845 67.8857 113.941 68.355 114.133C68.835 114.314 69.2137 114.575 69.491 114.917C69.7683 115.258 69.9657 115.663 70.083 116.133C70.2003 116.602 70.259 117.125 70.259 117.701V122.453H67.875V117.989C67.875 117.221 67.7737 116.677 67.571 116.357C67.3683 116.037 66.9897 115.877 66.435 115.877C66.2643 115.877 66.083 115.887 65.891 115.909C65.699 115.919 65.5283 115.935 65.379 115.957V122.453H62.995V114.325ZM80.2889 118.229C80.2889 118.89 80.1929 119.498 80.0009 120.053C79.8089 120.597 79.5315 121.066 79.1689 121.461C78.8062 121.845 78.3689 122.143 77.8569 122.357C77.3555 122.57 76.7902 122.677 76.1609 122.677C75.5422 122.677 74.9769 122.57 74.4649 122.357C73.9635 122.143 73.5315 121.845 73.1689 121.461C72.8062 121.066 72.5235 120.597 72.3209 120.053C72.1182 119.498 72.0169 118.89 72.0169 118.229C72.0169 117.567 72.1182 116.965 72.3209 116.421C72.5342 115.877 72.8222 115.413 73.1849 115.029C73.5582 114.645 73.9955 114.346 74.4969 114.133C75.0089 113.919 75.5635 113.813 76.1609 113.813C76.7689 113.813 77.3235 113.919 77.8249 114.133C78.3369 114.346 78.7742 114.645 79.1369 115.029C79.4995 115.413 79.7822 115.877 79.9849 116.421C80.1875 116.965 80.2889 117.567 80.2889 118.229ZM77.8569 118.229C77.8569 117.493 77.7075 116.917 77.4089 116.501C77.1209 116.074 76.7049 115.861 76.1609 115.861C75.6169 115.861 75.1955 116.074 74.8969 116.501C74.5982 116.917 74.4489 117.493 74.4489 118.229C74.4489 118.965 74.5982 119.551 74.8969 119.989C75.1955 120.415 75.6169 120.629 76.1609 120.629C76.7049 120.629 77.1209 120.415 77.4089 119.989C77.7075 119.551 77.8569 118.965 77.8569 118.229ZM84.5516 120.741C84.989 120.741 85.2983 120.698 85.4796 120.613C85.661 120.527 85.7516 120.362 85.7516 120.117C85.7516 119.925 85.6343 119.759 85.3996 119.621C85.165 119.471 84.8076 119.306 84.3276 119.125C83.9543 118.986 83.613 118.842 83.3036 118.693C83.005 118.543 82.749 118.367 82.5356 118.165C82.3223 117.951 82.157 117.701 82.0396 117.413C81.9223 117.125 81.8636 116.778 81.8636 116.373C81.8636 115.583 82.157 114.959 82.7436 114.501C83.3303 114.042 84.1356 113.813 85.1596 113.813C85.6716 113.813 86.1623 113.861 86.6316 113.957C87.101 114.042 87.4743 114.138 87.7516 114.245L87.3356 116.101C87.0583 116.005 86.7543 115.919 86.4236 115.845C86.1036 115.77 85.741 115.733 85.3356 115.733C84.589 115.733 84.2156 115.941 84.2156 116.357C84.2156 116.453 84.2316 116.538 84.2636 116.613C84.2956 116.687 84.3596 116.762 84.4556 116.837C84.5516 116.901 84.6796 116.975 84.8396 117.061C85.0103 117.135 85.2236 117.221 85.4796 117.317C86.0023 117.509 86.4343 117.701 86.7756 117.893C87.117 118.074 87.3836 118.277 87.5756 118.501C87.7783 118.714 87.917 118.954 87.9916 119.221C88.077 119.487 88.1196 119.797 88.1196 120.149C88.1196 120.981 87.805 121.61 87.1756 122.037C86.557 122.463 85.677 122.677 84.5356 122.677C83.789 122.677 83.165 122.613 82.6636 122.485C82.173 122.357 81.8316 122.25 81.6396 122.165L82.0396 120.229C82.445 120.389 82.861 120.517 83.2876 120.613C83.7143 120.698 84.1356 120.741 84.5516 120.741ZM3.30825 136.181C3.30825 136.917 3.47358 137.509 3.80425 137.957C4.13492 138.405 4.62558 138.629 5.27625 138.629C5.48958 138.629 5.68692 138.623 5.86825 138.613C6.04958 138.591 6.19892 138.57 6.31625 138.549V134.213C6.16692 134.117 5.96958 134.037 5.72425 133.973C5.48958 133.909 5.24958 133.877 5.00425 133.877C3.87358 133.877 3.30825 134.645 3.30825 136.181ZM8.70025 140.181C8.48692 140.245 8.24158 140.309 7.96425 140.373C7.68692 140.426 7.39358 140.474 7.08425 140.517C6.78558 140.559 6.47625 140.591 6.15625 140.613C5.84692 140.645 5.54825 140.661 5.26025 140.661C4.56692 140.661 3.94825 140.559 3.40425 140.357C2.86025 140.154 2.40158 139.866 2.02825 139.493C1.65492 139.109 1.36692 138.65 1.16425 138.117C0.97225 137.573 0.87625 136.965 0.87625 136.293C0.87625 135.61 0.961583 134.997 1.13225 134.453C1.30292 133.898 1.54825 133.429 1.86825 133.045C2.18825 132.661 2.57758 132.367 3.03625 132.165C3.50558 131.962 4.03892 131.861 4.63625 131.861C4.96692 131.861 5.26025 131.893 5.51625 131.957C5.78292 132.021 6.04958 132.111 6.31625 132.229V128.421L8.70025 128.037V140.181ZM14.1485 138.789C14.3832 138.789 14.6072 138.783 14.8205 138.773C15.0338 138.762 15.2045 138.746 15.3325 138.725V136.917C15.2365 136.895 15.0925 136.874 14.9005 136.853C14.7085 136.831 14.5325 136.821 14.3725 136.821C14.1485 136.821 13.9352 136.837 13.7325 136.869C13.5405 136.89 13.3698 136.938 13.2205 137.013C13.0712 137.087 12.9538 137.189 12.8685 137.317C12.7832 137.445 12.7405 137.605 12.7405 137.797C12.7405 138.17 12.8632 138.431 13.1085 138.581C13.3645 138.719 13.7112 138.789 14.1485 138.789ZM13.9565 131.813C14.6605 131.813 15.2472 131.893 15.7165 132.053C16.1858 132.213 16.5592 132.442 16.8365 132.741C17.1245 133.039 17.3272 133.402 17.4445 133.829C17.5618 134.255 17.6205 134.73 17.6205 135.253V140.213C17.2792 140.287 16.8045 140.373 16.1965 140.469C15.5885 140.575 14.8525 140.629 13.9885 140.629C13.4445 140.629 12.9485 140.581 12.5005 140.485C12.0632 140.389 11.6845 140.234 11.3645 140.021C11.0445 139.797 10.7992 139.509 10.6285 139.157C10.4578 138.805 10.3725 138.373 10.3725 137.861C10.3725 137.37 10.4685 136.954 10.6605 136.613C10.8632 136.271 11.1298 135.999 11.4605 135.797C11.7912 135.594 12.1698 135.45 12.5965 135.365C13.0232 135.269 13.4658 135.221 13.9245 135.221C14.2338 135.221 14.5058 135.237 14.7405 135.269C14.9858 135.29 15.1832 135.322 15.3325 135.365V135.141C15.3325 134.735 15.2098 134.41 14.9645 134.165C14.7192 133.919 14.2925 133.797 13.6845 133.797C13.2792 133.797 12.8792 133.829 12.4845 133.893C12.0898 133.946 11.7485 134.026 11.4605 134.133L11.1565 132.213C11.2952 132.17 11.4658 132.127 11.6685 132.085C11.8818 132.031 12.1112 131.989 12.3565 131.957C12.6018 131.914 12.8578 131.882 13.1245 131.861C13.4018 131.829 13.6792 131.813 13.9565 131.813ZM23.62 132.325C24.0253 132.207 24.548 132.101 25.188 132.005C25.828 131.898 26.5 131.845 27.204 131.845C27.9187 131.845 28.5107 131.941 28.98 132.133C29.46 132.314 29.8387 132.575 30.116 132.917C30.3933 133.258 30.5907 133.663 30.708 134.133C30.8253 134.602 30.884 135.125 30.884 135.701V140.453H28.5V135.989C28.5 135.221 28.3987 134.677 28.196 134.357C27.9933 134.037 27.6147 133.877 27.06 133.877C26.8893 133.877 26.708 133.887 26.516 133.909C26.324 133.919 26.1533 133.935 26.004 133.957V140.453H23.62V132.325ZM36.2579 138.789C36.4925 138.789 36.7165 138.783 36.9299 138.773C37.1432 138.762 37.3139 138.746 37.4419 138.725V136.917C37.3459 136.895 37.2019 136.874 37.0099 136.853C36.8179 136.831 36.6419 136.821 36.4819 136.821C36.2579 136.821 36.0445 136.837 35.8419 136.869C35.6499 136.89 35.4792 136.938 35.3299 137.013C35.1805 137.087 35.0632 137.189 34.9779 137.317C34.8925 137.445 34.8499 137.605 34.8499 137.797C34.8499 138.17 34.9725 138.431 35.2179 138.581C35.4739 138.719 35.8205 138.789 36.2579 138.789ZM36.0659 131.813C36.7699 131.813 37.3565 131.893 37.8259 132.053C38.2952 132.213 38.6685 132.442 38.9459 132.741C39.2339 133.039 39.4365 133.402 39.5539 133.829C39.6712 134.255 39.7299 134.73 39.7299 135.253V140.213C39.3885 140.287 38.9139 140.373 38.3059 140.469C37.6979 140.575 36.9619 140.629 36.0979 140.629C35.5539 140.629 35.0579 140.581 34.6099 140.485C34.1725 140.389 33.7939 140.234 33.4739 140.021C33.1539 139.797 32.9085 139.509 32.7379 139.157C32.5672 138.805 32.4819 138.373 32.4819 137.861C32.4819 137.37 32.5779 136.954 32.7699 136.613C32.9725 136.271 33.2392 135.999 33.5699 135.797C33.9005 135.594 34.2792 135.45 34.7059 135.365C35.1325 135.269 35.5752 135.221 36.0339 135.221C36.3432 135.221 36.6152 135.237 36.8499 135.269C37.0952 135.29 37.2925 135.322 37.4419 135.365V135.141C37.4419 134.735 37.3192 134.41 37.0739 134.165C36.8285 133.919 36.4019 133.797 35.7939 133.797C35.3885 133.797 34.9885 133.829 34.5939 133.893C34.1992 133.946 33.8579 134.026 33.5699 134.133L33.2659 132.213C33.4045 132.17 33.5752 132.127 33.7779 132.085C33.9912 132.031 34.2205 131.989 34.4659 131.957C34.7112 131.914 34.9672 131.882 35.2339 131.861C35.5112 131.829 35.7885 131.813 36.0659 131.813ZM41.8056 129.941L44.1896 129.557V132.037H47.0536V134.021H44.1896V136.981C44.1896 137.482 44.275 137.882 44.4456 138.181C44.627 138.479 44.9843 138.629 45.5176 138.629C45.7736 138.629 46.035 138.607 46.3016 138.565C46.579 138.511 46.8296 138.442 47.0536 138.357L47.3896 140.213C47.1016 140.33 46.7816 140.431 46.4296 140.517C46.0776 140.602 45.6456 140.645 45.1336 140.645C44.483 140.645 43.9443 140.559 43.5176 140.389C43.091 140.207 42.7496 139.962 42.4936 139.653C42.2376 139.333 42.0563 138.949 41.9496 138.501C41.8536 138.053 41.8056 137.557 41.8056 137.013V129.941ZM56.179 140.165C55.7737 140.282 55.251 140.389 54.611 140.485C53.971 140.591 53.299 140.645 52.595 140.645C51.8803 140.645 51.283 140.549 50.803 140.357C50.3337 140.165 49.9603 139.898 49.683 139.557C49.4057 139.205 49.2083 138.789 49.091 138.309C48.9737 137.829 48.915 137.301 48.915 136.725V132.037H51.299V136.437C51.299 137.205 51.4003 137.759 51.603 138.101C51.8057 138.442 52.1843 138.613 52.739 138.613C52.9097 138.613 53.091 138.607 53.283 138.597C53.475 138.575 53.6457 138.554 53.795 138.533V132.037H56.179V140.165ZM63.4889 134.149C63.2755 134.095 63.0249 134.042 62.7369 133.989C62.4489 133.925 62.1395 133.893 61.8089 133.893C61.6595 133.893 61.4782 133.909 61.2649 133.941C61.0622 133.962 60.9075 133.989 60.8009 134.021V140.453H58.4169V132.485C58.8435 132.335 59.3449 132.197 59.9209 132.069C60.5075 131.93 61.1582 131.861 61.8729 131.861C62.0009 131.861 62.1555 131.871 62.3369 131.893C62.5182 131.903 62.6995 131.925 62.8809 131.957C63.0622 131.978 63.2435 132.01 63.4249 132.053C63.6062 132.085 63.7609 132.127 63.8889 132.181L63.4889 134.149ZM64.6106 136.309C64.6106 135.562 64.7226 134.911 64.9466 134.357C65.1813 133.791 65.4853 133.322 65.8586 132.949C66.232 132.575 66.6586 132.293 67.1386 132.101C67.6293 131.909 68.1306 131.813 68.6426 131.813C69.8373 131.813 70.7813 132.181 71.4746 132.917C72.168 133.642 72.5146 134.714 72.5146 136.133C72.5146 136.271 72.5093 136.426 72.4986 136.597C72.488 136.757 72.4773 136.901 72.4666 137.029H67.0586C67.112 137.519 67.3413 137.909 67.7466 138.197C68.152 138.485 68.696 138.629 69.3786 138.629C69.816 138.629 70.2426 138.591 70.6586 138.517C71.0853 138.431 71.432 138.33 71.6986 138.213L72.0186 140.149C71.8906 140.213 71.72 140.277 71.5066 140.341C71.2933 140.405 71.0533 140.458 70.7866 140.501C70.5306 140.554 70.2533 140.597 69.9546 140.629C69.656 140.661 69.3573 140.677 69.0586 140.677C68.3013 140.677 67.64 140.565 67.0746 140.341C66.52 140.117 66.056 139.813 65.6826 139.429C65.32 139.034 65.048 138.57 64.8666 138.037C64.696 137.503 64.6106 136.927 64.6106 136.309ZM70.2106 135.397C70.2 135.194 70.1626 134.997 70.0986 134.805C70.0453 134.613 69.9546 134.442 69.8266 134.293C69.7093 134.143 69.5546 134.021 69.3626 133.925C69.1813 133.829 68.952 133.781 68.6746 133.781C68.408 133.781 68.1786 133.829 67.9866 133.925C67.7946 134.01 67.6346 134.127 67.5066 134.277C67.3786 134.426 67.2773 134.602 67.2026 134.805C67.1386 134.997 67.0906 135.194 67.0586 135.397H70.2106ZM80.6744 133.637C80.4824 133.85 80.221 134.138 79.8904 134.501C79.5704 134.863 79.2237 135.263 78.8504 135.701C78.477 136.138 78.0984 136.597 77.7144 137.077C77.341 137.557 76.9997 138.021 76.6904 138.469H80.7544V140.453H73.7944V139.045C74.0184 138.661 74.285 138.25 74.5944 137.813C74.9144 137.365 75.245 136.917 75.5864 136.469C75.9384 136.021 76.285 135.589 76.6264 135.173C76.9677 134.746 77.2824 134.362 77.5704 134.021H73.9864V132.037H80.6744V133.637ZM85.336 138.789C85.5707 138.789 85.7947 138.783 86.008 138.773C86.2213 138.762 86.392 138.746 86.52 138.725V136.917C86.424 136.895 86.28 136.874 86.088 136.853C85.896 136.831 85.72 136.821 85.56 136.821C85.336 136.821 85.1227 136.837 84.92 136.869C84.728 136.89 84.5573 136.938 84.408 137.013C84.2587 137.087 84.1413 137.189 84.056 137.317C83.9707 137.445 83.928 137.605 83.928 137.797C83.928 138.17 84.0507 138.431 84.296 138.581C84.552 138.719 84.8987 138.789 85.336 138.789ZM85.144 131.813C85.848 131.813 86.4347 131.893 86.904 132.053C87.3733 132.213 87.7467 132.442 88.024 132.741C88.312 133.039 88.5147 133.402 88.632 133.829C88.7493 134.255 88.808 134.73 88.808 135.253V140.213C88.4667 140.287 87.992 140.373 87.384 140.469C86.776 140.575 86.04 140.629 85.176 140.629C84.632 140.629 84.136 140.581 83.688 140.485C83.2507 140.389 82.872 140.234 82.552 140.021C82.232 139.797 81.9867 139.509 81.816 139.157C81.6453 138.805 81.56 138.373 81.56 137.861C81.56 137.37 81.656 136.954 81.848 136.613C82.0507 136.271 82.3173 135.999 82.648 135.797C82.9787 135.594 83.3573 135.45 83.784 135.365C84.2107 135.269 84.6533 135.221 85.112 135.221C85.4213 135.221 85.6933 135.237 85.928 135.269C86.1733 135.29 86.3707 135.322 86.52 135.365V135.141C86.52 134.735 86.3973 134.41 86.152 134.165C85.9067 133.919 85.48 133.797 84.872 133.797C84.4667 133.797 84.0667 133.829 83.672 133.893C83.2773 133.946 82.936 134.026 82.648 134.133L82.344 132.213C82.4827 132.17 82.6533 132.127 82.856 132.085C83.0693 132.031 83.2987 131.989 83.544 131.957C83.7893 131.914 84.0453 131.882 84.312 131.861C84.5893 131.829 84.8667 131.813 85.144 131.813Z" fill="#2F2F2F"/>
</svg>
