<svg width="88" height="130" viewBox="0 0 88 130" fill="none" xmlns="http://www.w3.org/2000/svg">
<circle cx="44.3259" cy="40.7786" r="40.4148" fill="#FFFE06"/>
<path d="M0 0.389763C7.67892 0.388032 15.3578 0.398415 23.0367 0.363806C23.7483 0.360345 24.0119 0.604342 24.2359 1.2377C28.295 12.716 32.3765 24.1856 36.4546 35.6569C36.57 35.9805 36.6941 36.2989 36.8199 36.6329C38.3377 36.6329 39.8229 36.6329 41.4027 36.6329C41.4027 29.7612 41.4027 22.9033 41.4027 15.9779C41.768 15.9606 42.0437 15.9346 42.321 15.9346C46.9625 15.9329 51.604 15.9225 56.2472 15.9364C61.1626 15.952 64.9615 18.0406 67.5838 22.2197C70.5144 26.8903 73.4244 31.5747 76.3205 36.2678C76.6289 36.7696 76.9787 37.0465 77.5576 37.1884C81.0326 38.0346 84.4974 38.9241 88 39.8066C88 49.9489 88 60.074 88 70.3132C84.5111 70.3132 81.0085 70.3132 77.5352 70.3132C75.5694 77.9827 69.2291 80.9418 64.2982 80.6978C58.8384 80.4278 53.6542 76.7264 52.1846 70.4015C46.7713 70.4015 41.3424 70.4015 35.8516 70.4015C35.0591 73.7967 33.2638 76.5464 30.3556 78.5122C28.0245 80.0869 25.4367 80.8016 22.6353 80.6874C17.7458 80.4901 12.1998 77.1988 10.5286 70.3357C7.03456 70.3357 3.51642 70.3357 0 70.3357C0 59.1101 0 47.8827 0 36.6571C6.97081 36.6571 13.9433 36.6571 21.002 36.6571C20.8676 36.273 20.7746 36.0047 20.6798 35.74C19.1706 31.4951 17.6613 27.2502 16.1521 23.0054C14.1742 17.4367 12.1963 11.8663 10.2047 6.29935C10.1099 6.03458 9.89111 5.61581 9.71882 5.60889C8.21646 5.55351 6.70893 5.57774 5.22897 5.57774C5.22897 12.5498 5.22897 19.406 5.22897 26.3244C6.94669 26.3244 8.59722 26.3244 10.2667 26.3244C10.2667 28.0653 10.2667 29.7439 10.2667 31.4778C6.80713 31.4778 3.40443 31.4778 0 31.4778C0 21.1157 0 10.7519 0 0.389763ZM5.2238 41.8624C5.2238 46.2128 5.2238 50.4819 5.2238 54.7925C5.59939 54.7925 5.91123 54.7925 6.2248 54.7925C11.8414 54.7925 17.458 54.7649 23.0746 54.8012C27.8143 54.8323 31.5375 56.8605 34.0908 60.8648C34.9092 62.1488 35.3985 63.6422 36.0635 65.0993C37.7502 65.0993 39.5679 65.0993 41.3683 65.0993C41.3683 57.3208 41.3683 49.5976 41.3683 41.8641C29.2926 41.8624 17.2892 41.8624 5.2238 41.8624ZM46.6197 65.1079C48.5148 65.1079 50.3342 65.1079 52.1295 65.1079C52.1846 65.0127 52.2259 64.9678 52.238 64.9158C53.3992 59.4129 58.5369 54.6056 65.5352 54.7666C71.0054 54.8929 76.4825 54.7925 81.9561 54.7925C82.2559 54.7925 82.5557 54.7925 82.8796 54.7925C82.8796 51.2554 82.871 47.8585 82.8882 44.4633C82.8899 44.0047 82.7504 43.8075 82.2955 43.7088C81.1498 43.4579 80.0213 43.1257 78.8773 42.8678C77.2905 42.5079 75.7003 41.9109 74.1066 41.8936C65.2527 41.7966 56.397 41.8451 47.5414 41.8434C47.2399 41.8434 46.9384 41.8434 46.6214 41.8434C46.6197 49.6547 46.6197 57.3363 46.6197 65.1079ZM46.6679 21.2507C46.6679 26.3521 46.6679 31.483 46.6679 36.6069C54.5984 36.6069 62.4616 36.6069 70.3611 36.6069C70.3214 36.4737 70.3128 36.3854 70.2715 36.3197C67.8129 32.369 65.3888 28.3958 62.8768 24.4798C61.7259 22.6852 60.0203 21.4012 57.8925 21.2991C54.1814 21.1244 50.4565 21.2507 46.6679 21.2507ZM72.5595 67.7867C72.5767 63.5315 69.1309 60.0151 64.9081 59.9788C60.6302 59.9424 57.1086 63.4224 57.0931 67.7071C57.0759 71.9589 60.5251 75.4787 64.7444 75.515C69.0241 75.5514 72.5422 72.0714 72.5595 67.7867ZM15.4819 67.6915C15.4836 72.0143 18.9552 75.5306 23.2021 75.5133C27.4904 75.496 30.9414 72.0177 30.9465 67.7088C30.9517 63.4415 27.4456 59.9719 23.135 59.9805C18.9707 59.9892 15.4802 63.5055 15.4819 67.6915ZM15.444 5.57255C19.1447 15.9831 22.8162 26.3089 26.4774 36.6069C28.1089 36.6069 29.6681 36.6069 31.2911 36.6069C31.1791 36.2747 31.0913 36.0065 30.9965 35.74C29.4321 31.329 27.8677 26.918 26.2999 22.507C24.3754 17.0958 22.4527 11.6846 20.5041 6.28204C20.4025 6.0017 20.0768 5.61408 19.8408 5.60369C18.4142 5.5414 16.9825 5.57255 15.444 5.57255ZM5.21346 60.0186C5.21346 61.7352 5.21346 63.4103 5.21346 65.1096C7.02766 65.1096 8.78673 65.1096 10.3701 65.1096C11.1592 63.3342 11.9017 61.6643 12.6339 60.0186C10.1995 60.0186 7.72199 60.0186 5.21346 60.0186ZM77.6592 65.0889C79.3218 65.0889 81.0774 65.0889 82.8382 65.0889C82.8382 63.3688 82.8382 61.7145 82.8382 60.0238C80.3039 60.0238 77.8108 60.0238 75.4109 60.0238C76.1482 61.6885 76.8856 63.3463 77.6592 65.0889Z" fill="#00309E"/>
<path d="M67.4028 67.7348C67.408 69.1365 66.2519 70.3184 64.8564 70.3357C63.4609 70.353 62.2669 69.1936 62.2445 67.8006C62.2204 66.366 63.4074 65.1547 64.8374 65.153C66.2295 65.153 67.3977 66.328 67.4028 67.7348Z" fill="#00309E"/>
<path d="M23.0887 70.3343C21.6967 70.2633 20.5819 69.0399 20.6388 67.6416C20.6957 66.2088 21.9637 65.065 23.3834 65.1601C24.7755 65.2553 25.8729 66.5013 25.7902 67.8926C25.7058 69.2925 24.4757 70.4035 23.0887 70.3343Z" fill="#00309E"/>
<path d="M14.8249 115.237C16.4889 115.237 17.7635 115.535 18.6489 116.133C19.5342 116.719 19.9769 117.637 19.9769 118.885C19.9769 119.663 19.7955 120.298 19.4329 120.789C19.0809 121.269 18.5689 121.647 17.8969 121.925C18.1209 122.202 18.3555 122.522 18.6009 122.885C18.8462 123.237 19.0862 123.61 19.3209 124.005C19.5662 124.389 19.8009 124.794 20.0249 125.221C20.2489 125.637 20.4569 126.047 20.6489 126.453H17.8489C17.6462 126.09 17.4382 125.722 17.2249 125.349C17.0222 124.975 16.8089 124.613 16.5849 124.261C16.3715 123.909 16.1582 123.578 15.9449 123.269C15.7315 122.949 15.5182 122.661 15.3049 122.405H14.0729V126.453H11.5769V115.525C12.1209 115.418 12.6809 115.343 13.2569 115.301C13.8435 115.258 14.3662 115.237 14.8249 115.237ZM14.9689 117.365C14.7875 117.365 14.6222 117.37 14.4729 117.381C14.3342 117.391 14.2009 117.402 14.0729 117.413V120.421H14.7769C15.7155 120.421 16.3875 120.303 16.7929 120.069C17.1982 119.834 17.4009 119.434 17.4009 118.869C17.4009 118.325 17.1929 117.941 16.7769 117.717C16.3715 117.482 15.7689 117.365 14.9689 117.365ZM21.2825 122.309C21.2825 121.562 21.3945 120.911 21.6185 120.357C21.8532 119.791 22.1572 119.322 22.5305 118.949C22.9038 118.575 23.3305 118.293 23.8105 118.101C24.3012 117.909 24.8025 117.813 25.3145 117.813C26.5092 117.813 27.4532 118.181 28.1465 118.917C28.8398 119.642 29.1865 120.714 29.1865 122.133C29.1865 122.271 29.1812 122.426 29.1705 122.597C29.1598 122.757 29.1492 122.901 29.1385 123.029H23.7305C23.7838 123.519 24.0132 123.909 24.4185 124.197C24.8238 124.485 25.3678 124.629 26.0505 124.629C26.4878 124.629 26.9145 124.591 27.3305 124.517C27.7572 124.431 28.1038 124.33 28.3705 124.213L28.6905 126.149C28.5625 126.213 28.3918 126.277 28.1785 126.341C27.9652 126.405 27.7252 126.458 27.4585 126.501C27.2025 126.554 26.9252 126.597 26.6265 126.629C26.3278 126.661 26.0292 126.677 25.7305 126.677C24.9732 126.677 24.3118 126.565 23.7465 126.341C23.1918 126.117 22.7278 125.813 22.3545 125.429C21.9918 125.034 21.7198 124.57 21.5385 124.037C21.3678 123.503 21.2825 122.927 21.2825 122.309ZM26.8825 121.397C26.8718 121.194 26.8345 120.997 26.7705 120.805C26.7172 120.613 26.6265 120.442 26.4985 120.293C26.3812 120.143 26.2265 120.021 26.0345 119.925C25.8532 119.829 25.6238 119.781 25.3465 119.781C25.0798 119.781 24.8505 119.829 24.6585 119.925C24.4665 120.01 24.3065 120.127 24.1785 120.277C24.0505 120.426 23.9492 120.602 23.8745 120.805C23.8105 120.997 23.7625 121.194 23.7305 121.397H26.8825ZM36.4183 122.181C36.4183 120.645 35.8529 119.877 34.7223 119.877C34.4769 119.877 34.2316 119.909 33.9863 119.973C33.7516 120.037 33.5596 120.117 33.4103 120.213V124.549C33.5276 124.57 33.6769 124.591 33.8583 124.613C34.0396 124.623 34.2369 124.629 34.4503 124.629C35.1009 124.629 35.5916 124.405 35.9223 123.957C36.2529 123.509 36.4183 122.917 36.4183 122.181ZM38.8503 122.245C38.8503 122.917 38.7489 123.525 38.5463 124.069C38.3543 124.613 38.0716 125.077 37.6983 125.461C37.3249 125.845 36.8663 126.143 36.3223 126.357C35.7783 126.559 35.1596 126.661 34.4663 126.661C34.1783 126.661 33.8743 126.645 33.5543 126.613C33.2449 126.591 32.9356 126.559 32.6263 126.517C32.3276 126.474 32.0396 126.426 31.7623 126.373C31.4849 126.309 31.2396 126.245 31.0263 126.181V114.421L33.4103 114.037V118.229C33.6769 118.111 33.9543 118.021 34.2423 117.957C34.5303 117.893 34.8396 117.861 35.1703 117.861C35.7676 117.861 36.2956 117.967 36.7543 118.181C37.2129 118.383 37.5969 118.677 37.9062 119.061C38.2156 119.445 38.4503 119.909 38.6103 120.453C38.7703 120.986 38.8503 121.583 38.8503 122.245ZM48.5545 122.229C48.5545 122.89 48.4585 123.498 48.2665 124.053C48.0745 124.597 47.7972 125.066 47.4345 125.461C47.0718 125.845 46.6345 126.143 46.1225 126.357C45.6212 126.57 45.0558 126.677 44.4265 126.677C43.8078 126.677 43.2425 126.57 42.7305 126.357C42.2292 126.143 41.7972 125.845 41.4345 125.461C41.0718 125.066 40.7892 124.597 40.5865 124.053C40.3838 123.498 40.2825 122.89 40.2825 122.229C40.2825 121.567 40.3838 120.965 40.5865 120.421C40.7998 119.877 41.0878 119.413 41.4505 119.029C41.8238 118.645 42.2612 118.346 42.7625 118.133C43.2745 117.919 43.8292 117.813 44.4265 117.813C45.0345 117.813 45.5892 117.919 46.0905 118.133C46.6025 118.346 47.0398 118.645 47.4025 119.029C47.7652 119.413 48.0478 119.877 48.2505 120.421C48.4532 120.965 48.5545 121.567 48.5545 122.229ZM46.1225 122.229C46.1225 121.493 45.9732 120.917 45.6745 120.501C45.3865 120.074 44.9705 119.861 44.4265 119.861C43.8825 119.861 43.4612 120.074 43.1625 120.501C42.8638 120.917 42.7145 121.493 42.7145 122.229C42.7145 122.965 42.8638 123.551 43.1625 123.989C43.4612 124.415 43.8825 124.629 44.4265 124.629C44.9705 124.629 45.3865 124.415 45.6745 123.989C45.9732 123.551 46.1225 122.965 46.1225 122.229ZM52.4333 122.309C52.4333 123.834 52.9986 124.597 54.1293 124.597C54.3746 124.597 54.6146 124.565 54.8493 124.501C55.0946 124.437 55.2919 124.357 55.4413 124.261V119.957C55.3239 119.935 55.1746 119.919 54.9933 119.909C54.8119 119.887 54.6146 119.877 54.4013 119.877C53.7506 119.877 53.2599 120.101 52.9293 120.549C52.5986 120.986 52.4333 121.573 52.4333 122.309ZM50.0013 122.245C50.0013 121.594 50.0973 121.002 50.2893 120.469C50.4919 119.925 50.7799 119.461 51.1533 119.077C51.5266 118.682 51.9853 118.378 52.5293 118.165C53.0733 117.951 53.6919 117.845 54.3853 117.845C54.6733 117.845 54.9719 117.861 55.2813 117.893C55.6013 117.914 55.9106 117.946 56.2093 117.989C56.5186 118.031 56.8119 118.085 57.0893 118.149C57.3666 118.202 57.6119 118.261 57.8253 118.325V129.413H55.4413V126.245C55.1746 126.362 54.8973 126.453 54.6093 126.517C54.3213 126.581 54.0119 126.613 53.6813 126.613C52.4866 126.613 51.5746 126.223 50.9453 125.445C50.3159 124.655 50.0013 123.589 50.0013 122.245ZM67.2415 126.165C66.8362 126.282 66.3135 126.389 65.6735 126.485C65.0335 126.591 64.3615 126.645 63.6575 126.645C62.9428 126.645 62.3455 126.549 61.8655 126.357C61.3962 126.165 61.0228 125.898 60.7455 125.557C60.4682 125.205 60.2708 124.789 60.1535 124.309C60.0362 123.829 59.9775 123.301 59.9775 122.725V118.037H62.3615V122.437C62.3615 123.205 62.4628 123.759 62.6655 124.101C62.8682 124.442 63.2468 124.613 63.8015 124.613C63.9722 124.613 64.1535 124.607 64.3455 124.597C64.5375 124.575 64.7082 124.554 64.8575 124.533V118.037H67.2415V126.165ZM69.0794 122.309C69.0794 121.562 69.1914 120.911 69.4154 120.357C69.65 119.791 69.954 119.322 70.3274 118.949C70.7007 118.575 71.1274 118.293 71.6074 118.101C72.098 117.909 72.5994 117.813 73.1114 117.813C74.306 117.813 75.25 118.181 75.9434 118.917C76.6367 119.642 76.9834 120.714 76.9834 122.133C76.9834 122.271 76.978 122.426 76.9674 122.597C76.9567 122.757 76.946 122.901 76.9354 123.029H71.5274C71.5807 123.519 71.81 123.909 72.2154 124.197C72.6207 124.485 73.1647 124.629 73.8474 124.629C74.2847 124.629 74.7114 124.591 75.1274 124.517C75.554 124.431 75.9007 124.33 76.1674 124.213L76.4874 126.149C76.3594 126.213 76.1887 126.277 75.9754 126.341C75.762 126.405 75.522 126.458 75.2554 126.501C74.9994 126.554 74.722 126.597 74.4234 126.629C74.1247 126.661 73.826 126.677 73.5274 126.677C72.77 126.677 72.1087 126.565 71.5434 126.341C70.9887 126.117 70.5247 125.813 70.1514 125.429C69.7887 125.034 69.5167 124.57 69.3354 124.037C69.1647 123.503 69.0794 122.927 69.0794 122.309ZM74.6794 121.397C74.6687 121.194 74.6314 120.997 74.5674 120.805C74.514 120.613 74.4234 120.442 74.2954 120.293C74.178 120.143 74.0234 120.021 73.8314 119.925C73.65 119.829 73.4207 119.781 73.1434 119.781C72.8767 119.781 72.6474 119.829 72.4554 119.925C72.2634 120.01 72.1034 120.127 71.9754 120.277C71.8474 120.426 71.746 120.602 71.6714 120.805C71.6074 120.997 71.5594 121.194 71.5274 121.397H74.6794Z" fill="#2F2F2F"/>
</svg>
