<svg width="88" height="140" viewBox="0 0 88 140" fill="none" xmlns="http://www.w3.org/2000/svg">
<circle cx="44.3259" cy="40.7786" r="40.4148" fill="#FFFE06"/>
<path d="M86.5213 60.6427C53.4638 4.90453 55.0316 7.55603 54.9751 7.4494C52.7647 3.31933 48.6687 0.852661 44.0007 0.852661C39.3327 0.852661 35.2296 3.31933 33.0262 7.4494C32.9697 7.54892 34.6011 4.7979 1.47296 60.6356C-2.93377 68.9881 3.07605 79.0681 12.4827 79.0681H75.5257C84.9112 79.0752 90.9351 69.0024 86.5213 60.6427ZM75.5187 73.8646H12.4756C7.00255 73.8646 3.48565 68.0214 6.01386 63.1378C6.07036 63.0383 4.44609 65.7751 37.5601 9.95872C40.3072 4.75526 47.6871 4.76237 50.4342 9.95872C83.4988 65.6969 81.9239 63.0383 81.9804 63.1378C84.5087 68.0214 80.9847 73.8646 75.5187 73.8646Z" fill="#00309E"/>
<path d="M41.4082 21.759H46.5847V55.6241H41.4082V21.759Z" fill="#00309E"/>
<path d="M41.4082 60.8346H46.5847V66.0452H41.4082V60.8346Z" fill="#00309E"/>
<path d="M18.405 118.453V107.365H25.829V109.461H20.901V111.781H25.285V113.877H20.901V118.453H18.405ZM34.304 118.165C33.8987 118.282 33.376 118.389 32.736 118.485C32.096 118.591 31.424 118.645 30.72 118.645C30.0053 118.645 29.408 118.549 28.928 118.357C28.4587 118.165 28.0853 117.898 27.808 117.557C27.5307 117.205 27.3333 116.789 27.216 116.309C27.0987 115.829 27.04 115.301 27.04 114.725V110.037H29.424V114.437C29.424 115.205 29.5253 115.759 29.728 116.101C29.9307 116.442 30.3093 116.613 30.864 116.613C31.0347 116.613 31.216 116.607 31.408 116.597C31.6 116.575 31.7707 116.554 31.92 116.533V110.037H34.304V118.165ZM41.6139 112.149C41.4005 112.095 41.1499 112.042 40.8619 111.989C40.5739 111.925 40.2645 111.893 39.9339 111.893C39.7845 111.893 39.6032 111.909 39.3899 111.941C39.1872 111.962 39.0325 111.989 38.9259 112.021V118.453H36.5419V110.485C36.9685 110.335 37.4699 110.197 38.0459 110.069C38.6325 109.93 39.2832 109.861 39.9979 109.861C40.1259 109.861 40.2805 109.871 40.4619 109.893C40.6432 109.903 40.8245 109.925 41.0059 109.957C41.1872 109.978 41.3685 110.01 41.5499 110.053C41.7312 110.085 41.8859 110.127 42.0139 110.181L41.6139 112.149ZM43.2119 107.941L45.5959 107.557V110.037H48.4599V112.021H45.5959V114.981C45.5959 115.482 45.6812 115.882 45.8519 116.181C46.0332 116.479 46.3905 116.629 46.9239 116.629C47.1799 116.629 47.4412 116.607 47.7079 116.565C47.9852 116.511 48.2359 116.442 48.4599 116.357L48.7959 118.213C48.5079 118.33 48.1879 118.431 47.8359 118.517C47.4839 118.602 47.0519 118.645 46.5399 118.645C45.8892 118.645 45.3505 118.559 44.9239 118.389C44.4972 118.207 44.1559 117.962 43.8999 117.653C43.6439 117.333 43.4625 116.949 43.3559 116.501C43.2599 116.053 43.2119 115.557 43.2119 115.013V107.941ZM57.9608 114.229C57.9608 114.89 57.8648 115.498 57.6728 116.053C57.4808 116.597 57.2034 117.066 56.8408 117.461C56.4781 117.845 56.0408 118.143 55.5288 118.357C55.0274 118.57 54.4621 118.677 53.8328 118.677C53.2141 118.677 52.6488 118.57 52.1368 118.357C51.6354 118.143 51.2034 117.845 50.8408 117.461C50.4781 117.066 50.1954 116.597 49.9928 116.053C49.7901 115.498 49.6888 114.89 49.6888 114.229C49.6888 113.567 49.7901 112.965 49.9928 112.421C50.2061 111.877 50.4941 111.413 50.8568 111.029C51.2301 110.645 51.6674 110.346 52.1688 110.133C52.6808 109.919 53.2354 109.813 53.8328 109.813C54.4408 109.813 54.9954 109.919 55.4968 110.133C56.0088 110.346 56.4461 110.645 56.8088 111.029C57.1714 111.413 57.4541 111.877 57.6568 112.421C57.8594 112.965 57.9608 113.567 57.9608 114.229ZM55.5288 114.229C55.5288 113.493 55.3794 112.917 55.0808 112.501C54.7928 112.074 54.3768 111.861 53.8328 111.861C53.2888 111.861 52.8674 112.074 52.5688 112.501C52.2701 112.917 52.1208 113.493 52.1208 114.229C52.1208 114.965 52.2701 115.551 52.5688 115.989C52.8674 116.415 53.2888 116.629 53.8328 116.629C54.3768 116.629 54.7928 116.415 55.0808 115.989C55.3794 115.551 55.5288 114.965 55.5288 114.229ZM63.2513 114.309C63.2513 113.562 63.3633 112.911 63.5872 112.357C63.8219 111.791 64.1259 111.322 64.4993 110.949C64.8726 110.575 65.2993 110.293 65.7793 110.101C66.2699 109.909 66.7713 109.813 67.2833 109.813C68.4779 109.813 69.4219 110.181 70.1153 110.917C70.8086 111.642 71.1553 112.714 71.1553 114.133C71.1553 114.271 71.1499 114.426 71.1393 114.597C71.1286 114.757 71.1179 114.901 71.1073 115.029H65.6993C65.7526 115.519 65.9819 115.909 66.3873 116.197C66.7926 116.485 67.3366 116.629 68.0193 116.629C68.4566 116.629 68.8833 116.591 69.2993 116.517C69.7259 116.431 70.0726 116.33 70.3393 116.213L70.6593 118.149C70.5313 118.213 70.3606 118.277 70.1473 118.341C69.9339 118.405 69.6939 118.458 69.4273 118.501C69.1713 118.554 68.8939 118.597 68.5953 118.629C68.2966 118.661 67.9979 118.677 67.6993 118.677C66.9419 118.677 66.2806 118.565 65.7153 118.341C65.1606 118.117 64.6966 117.813 64.3233 117.429C63.9606 117.034 63.6886 116.57 63.5073 116.037C63.3366 115.503 63.2513 114.927 63.2513 114.309ZM68.8513 113.397C68.8406 113.194 68.8033 112.997 68.7393 112.805C68.6859 112.613 68.5953 112.442 68.4673 112.293C68.3499 112.143 68.1953 112.021 68.0033 111.925C67.8219 111.829 67.5926 111.781 67.3153 111.781C67.0486 111.781 66.8193 111.829 66.6273 111.925C66.4353 112.01 66.2753 112.127 66.1473 112.277C66.0193 112.426 65.9179 112.602 65.8433 112.805C65.7793 112.997 65.7313 113.194 65.6993 113.397H68.8513ZM24.6374 125.237C26.3014 125.237 27.576 125.535 28.4614 126.133C29.3467 126.719 29.7894 127.637 29.7894 128.885C29.7894 129.663 29.608 130.298 29.2454 130.789C28.8934 131.269 28.3814 131.647 27.7094 131.925C27.9334 132.202 28.168 132.522 28.4134 132.885C28.6587 133.237 28.8987 133.61 29.1334 134.005C29.3787 134.389 29.6134 134.794 29.8374 135.221C30.0614 135.637 30.2694 136.047 30.4614 136.453H27.6614C27.4587 136.09 27.2507 135.722 27.0374 135.349C26.8347 134.975 26.6214 134.613 26.3974 134.261C26.184 133.909 25.9707 133.578 25.7574 133.269C25.544 132.949 25.3307 132.661 25.1174 132.405H23.8854V136.453H21.3894V125.525C21.9334 125.418 22.4934 125.343 23.0694 125.301C23.656 125.258 24.1787 125.237 24.6374 125.237ZM24.7814 127.365C24.6 127.365 24.4347 127.37 24.2854 127.381C24.1467 127.391 24.0134 127.402 23.8854 127.413V130.421H24.5894C25.528 130.421 26.2 130.303 26.6054 130.069C27.0107 129.834 27.2134 129.434 27.2134 128.869C27.2134 128.325 27.0054 127.941 26.5894 127.717C26.184 127.482 25.5814 127.365 24.7814 127.365ZM39.367 132.229C39.367 132.89 39.271 133.498 39.079 134.053C38.887 134.597 38.6097 135.066 38.247 135.461C37.8843 135.845 37.447 136.143 36.935 136.357C36.4337 136.57 35.8683 136.677 35.239 136.677C34.6203 136.677 34.055 136.57 33.543 136.357C33.0417 136.143 32.6097 135.845 32.247 135.461C31.8843 135.066 31.6017 134.597 31.399 134.053C31.1963 133.498 31.095 132.89 31.095 132.229C31.095 131.567 31.1963 130.965 31.399 130.421C31.6123 129.877 31.9003 129.413 32.263 129.029C32.6363 128.645 33.0737 128.346 33.575 128.133C34.087 127.919 34.6417 127.813 35.239 127.813C35.847 127.813 36.4017 127.919 36.903 128.133C37.415 128.346 37.8523 128.645 38.215 129.029C38.5777 129.413 38.8603 129.877 39.063 130.421C39.2657 130.965 39.367 131.567 39.367 132.229ZM36.935 132.229C36.935 131.493 36.7857 130.917 36.487 130.501C36.199 130.074 35.783 129.861 35.239 129.861C34.695 129.861 34.2737 130.074 33.975 130.501C33.6763 130.917 33.527 131.493 33.527 132.229C33.527 132.965 33.6763 133.551 33.975 133.989C34.2737 134.415 34.695 134.629 35.239 134.629C35.783 134.629 36.199 134.415 36.487 133.989C36.7857 133.551 36.935 132.965 36.935 132.229ZM48.3978 136.165C47.9924 136.282 47.4698 136.389 46.8298 136.485C46.1898 136.591 45.5178 136.645 44.8138 136.645C44.0991 136.645 43.5018 136.549 43.0218 136.357C42.5524 136.165 42.1791 135.898 41.9018 135.557C41.6244 135.205 41.4271 134.789 41.3098 134.309C41.1924 133.829 41.1338 133.301 41.1338 132.725V128.037H43.5178V132.437C43.5178 133.205 43.6191 133.759 43.8218 134.101C44.0244 134.442 44.4031 134.613 44.9578 134.613C45.1284 134.613 45.3098 134.607 45.5018 134.597C45.6938 134.575 45.8644 134.554 46.0138 134.533V128.037H48.3978V136.165ZM56.0276 132.181C56.0276 130.645 55.4623 129.877 54.3316 129.877C54.0863 129.877 53.841 129.909 53.5956 129.973C53.361 130.037 53.169 130.117 53.0196 130.213V134.549C53.137 134.57 53.2863 134.591 53.4676 134.613C53.649 134.623 53.8463 134.629 54.0596 134.629C54.7103 134.629 55.201 134.405 55.5316 133.957C55.8623 133.509 56.0276 132.917 56.0276 132.181ZM58.4596 132.245C58.4596 132.917 58.3583 133.525 58.1556 134.069C57.9636 134.613 57.681 135.077 57.3076 135.461C56.9343 135.845 56.4756 136.143 55.9316 136.357C55.3876 136.559 54.769 136.661 54.0756 136.661C53.7876 136.661 53.4836 136.645 53.1636 136.613C52.8543 136.591 52.545 136.559 52.2356 136.517C51.937 136.474 51.649 136.426 51.3716 136.373C51.0943 136.309 50.849 136.245 50.6356 136.181V124.421L53.0196 124.037V128.229C53.2863 128.111 53.5636 128.021 53.8516 127.957C54.1396 127.893 54.449 127.861 54.7796 127.861C55.377 127.861 55.905 127.967 56.3636 128.181C56.8223 128.383 57.2063 128.677 57.5156 129.061C57.825 129.445 58.0596 129.909 58.2196 130.453C58.3796 130.986 58.4596 131.583 58.4596 132.245ZM68.1639 132.229C68.1639 132.89 68.0679 133.498 67.8759 134.053C67.6839 134.597 67.4065 135.066 67.0439 135.461C66.6812 135.845 66.2439 136.143 65.7319 136.357C65.2305 136.57 64.6652 136.677 64.0359 136.677C63.4172 136.677 62.8519 136.57 62.3399 136.357C61.8385 136.143 61.4065 135.845 61.0439 135.461C60.6812 135.066 60.3985 134.597 60.1959 134.053C59.9932 133.498 59.8919 132.89 59.8919 132.229C59.8919 131.567 59.9932 130.965 60.1959 130.421C60.4092 129.877 60.6972 129.413 61.0599 129.029C61.4332 128.645 61.8705 128.346 62.3719 128.133C62.8839 127.919 63.4385 127.813 64.0359 127.813C64.6439 127.813 65.1985 127.919 65.6999 128.133C66.2119 128.346 66.6492 128.645 67.0119 129.029C67.3745 129.413 67.6572 129.877 67.8599 130.421C68.0625 130.965 68.1639 131.567 68.1639 132.229ZM65.7319 132.229C65.7319 131.493 65.5825 130.917 65.2839 130.501C64.9959 130.074 64.5799 129.861 64.0359 129.861C63.4919 129.861 63.0705 130.074 62.7719 130.501C62.4732 130.917 62.3239 131.493 62.3239 132.229C62.3239 132.965 62.4732 133.551 62.7719 133.989C63.0705 134.415 63.4919 134.629 64.0359 134.629C64.5799 134.629 64.9959 134.415 65.2839 133.989C65.5825 133.551 65.7319 132.965 65.7319 132.229Z" fill="#2F2F2F"/>
</svg>
