<svg width="82" height="134" viewBox="0 0 82 134" fill="none" xmlns="http://www.w3.org/2000/svg">
<circle cx="41.3259" cy="44.7786" r="40.4148" fill="#FFFE06"/>
<path d="M57.9167 54.74C64.8928 51.1394 69.6615 43.8633 69.6615 35.494C69.6615 23.5564 59.9527 13.8477 48.0151 13.8477C46.8792 13.8477 45.7647 13.9334 44.6824 14.1049V0.452637H1.40039V31.5827H17.5387L26.3794 36.3299C26.6902 44.3455 31.3731 51.268 38.1135 54.74C24.9221 58.9407 15.3312 71.3177 15.3312 85.8915V88.4526H80.699V85.8915C80.699 71.3177 71.1188 58.9407 57.9167 54.74ZM26.0472 30.3396L18.8246 26.4604H6.51193V5.56418H39.5709V26.4604H25.9937L26.0472 30.3396ZM31.4803 35.494C31.4803 34.1438 31.641 32.8365 31.9518 31.5827H44.6931V19.2914C45.7647 19.0664 46.8899 18.9592 48.0258 18.9592C57.1451 18.9592 64.5606 26.3747 64.5606 35.494C64.5606 44.6134 57.1344 52.0289 48.0151 52.0289C38.8958 52.0289 31.4803 44.6134 31.4803 35.494ZM37.9099 83.3304H20.5714C21.5358 72.9251 28.3083 64.1701 37.6098 60.3659L41.3176 67.042L37.9099 83.3304ZM43.1286 83.3304L46.0755 69.1852H49.944L52.8909 83.3304H43.1286ZM50.5226 64.0737H45.5075L42.6142 58.855C44.3609 58.5013 46.1719 58.3192 48.0258 58.3192C49.8797 58.3192 51.68 58.5013 53.4374 58.855L50.5226 64.0737ZM58.1203 83.3304L54.7233 67.042L58.4311 60.3659C67.7326 64.1701 74.5051 72.9251 75.4696 83.3304H58.1203Z" fill="#00309E"/>
<path d="M67.8842 73.2175H62.2852V78.4645H67.8842V73.2175Z" fill="#00309E"/>
<path d="M15.9024 119.365V121.493H12.5584V130.453H10.0624V121.493H6.71844V119.365H15.9024ZM15.7434 126.309C15.7434 125.562 15.8554 124.911 16.0794 124.357C16.3141 123.791 16.6181 123.322 16.9914 122.949C17.3648 122.575 17.7914 122.293 18.2714 122.101C18.7621 121.909 19.2634 121.813 19.7754 121.813C20.9701 121.813 21.9141 122.181 22.6074 122.917C23.3008 123.642 23.6474 124.714 23.6474 126.133C23.6474 126.271 23.6421 126.426 23.6314 126.597C23.6208 126.757 23.6101 126.901 23.5994 127.029H18.1914C18.2448 127.519 18.4741 127.909 18.8794 128.197C19.2848 128.485 19.8288 128.629 20.5114 128.629C20.9488 128.629 21.3754 128.591 21.7914 128.517C22.2181 128.431 22.5648 128.33 22.8314 128.213L23.1514 130.149C23.0234 130.213 22.8528 130.277 22.6394 130.341C22.4261 130.405 22.1861 130.458 21.9194 130.501C21.6634 130.554 21.3861 130.597 21.0874 130.629C20.7888 130.661 20.4901 130.677 20.1914 130.677C19.4341 130.677 18.7728 130.565 18.2074 130.341C17.6528 130.117 17.1888 129.813 16.8154 129.429C16.4528 129.034 16.1808 128.57 15.9994 128.037C15.8288 127.503 15.7434 126.927 15.7434 126.309ZM21.3434 125.397C21.3328 125.194 21.2954 124.997 21.2314 124.805C21.1781 124.613 21.0874 124.442 20.9594 124.293C20.8421 124.143 20.6874 124.021 20.4954 123.925C20.3141 123.829 20.0848 123.781 19.8074 123.781C19.5408 123.781 19.3114 123.829 19.1194 123.925C18.9274 124.01 18.7674 124.127 18.6394 124.277C18.5114 124.426 18.4101 124.602 18.3354 124.805C18.2714 124.997 18.2234 125.194 18.1914 125.397H21.3434ZM30.5592 124.149C30.3459 124.095 30.0952 124.042 29.8072 123.989C29.5192 123.925 29.2099 123.893 28.8792 123.893C28.7299 123.893 28.5485 123.909 28.3352 123.941C28.1325 123.962 27.9779 123.989 27.8712 124.021V130.453H25.4872V122.485C25.9139 122.335 26.4152 122.197 26.9912 122.069C27.5779 121.93 28.2285 121.861 28.9432 121.861C29.0712 121.861 29.2259 121.871 29.4072 121.893C29.5885 121.903 29.7699 121.925 29.9512 121.957C30.1325 121.978 30.3139 122.01 30.4952 122.053C30.6765 122.085 30.8312 122.127 30.9592 122.181L30.5592 124.149ZM31.6809 126.245C31.6809 125.637 31.7769 125.066 31.9689 124.533C32.1716 123.989 32.4596 123.519 32.8329 123.125C33.2063 122.719 33.6596 122.399 34.1929 122.165C34.7263 121.93 35.3343 121.813 36.0169 121.813C36.4649 121.813 36.8756 121.855 37.2489 121.941C37.6223 122.015 37.9849 122.127 38.3369 122.277L37.8409 124.181C37.6169 124.095 37.3716 124.021 37.1049 123.957C36.8383 123.893 36.5396 123.861 36.2089 123.861C35.5049 123.861 34.9769 124.079 34.6249 124.517C34.2836 124.954 34.1129 125.53 34.1129 126.245C34.1129 127.002 34.2729 127.589 34.5929 128.005C34.9236 128.421 35.4943 128.629 36.3049 128.629C36.5929 128.629 36.9023 128.602 37.2329 128.549C37.5636 128.495 37.8676 128.41 38.1449 128.293L38.4809 130.245C38.2036 130.362 37.8569 130.463 37.4409 130.549C37.0249 130.634 36.5663 130.677 36.0649 130.677C35.2969 130.677 34.6356 130.565 34.0809 130.341C33.5263 130.106 33.0676 129.791 32.7049 129.397C32.3529 129.002 32.0916 128.538 31.9209 128.005C31.7609 127.461 31.6809 126.874 31.6809 126.245ZM39.2747 126.309C39.2747 125.562 39.3867 124.911 39.6107 124.357C39.8454 123.791 40.1494 123.322 40.5227 122.949C40.896 122.575 41.3227 122.293 41.8027 122.101C42.2934 121.909 42.7947 121.813 43.3067 121.813C44.5014 121.813 45.4454 122.181 46.1387 122.917C46.832 123.642 47.1787 124.714 47.1787 126.133C47.1787 126.271 47.1734 126.426 47.1627 126.597C47.152 126.757 47.1414 126.901 47.1307 127.029H41.7227C41.776 127.519 42.0054 127.909 42.4107 128.197C42.816 128.485 43.36 128.629 44.0427 128.629C44.48 128.629 44.9067 128.591 45.3227 128.517C45.7494 128.431 46.096 128.33 46.3627 128.213L46.6827 130.149C46.5547 130.213 46.384 130.277 46.1707 130.341C45.9574 130.405 45.7174 130.458 45.4507 130.501C45.1947 130.554 44.9174 130.597 44.6187 130.629C44.32 130.661 44.0214 130.677 43.7227 130.677C42.9654 130.677 42.304 130.565 41.7387 130.341C41.184 130.117 40.72 129.813 40.3467 129.429C39.984 129.034 39.712 128.57 39.5307 128.037C39.36 127.503 39.2747 126.927 39.2747 126.309ZM44.8747 125.397C44.864 125.194 44.8267 124.997 44.7627 124.805C44.7094 124.613 44.6187 124.442 44.4907 124.293C44.3734 124.143 44.2187 124.021 44.0267 123.925C43.8454 123.829 43.616 123.781 43.3387 123.781C43.072 123.781 42.8427 123.829 42.6507 123.925C42.4587 124.01 42.2987 124.127 42.1707 124.277C42.0427 124.426 41.9414 124.602 41.8667 124.805C41.8027 124.997 41.7547 125.194 41.7227 125.397H44.8747ZM51.4024 130.453H49.0184V122.037H51.4024V130.453ZM51.6264 119.605C51.6264 120.042 51.4824 120.389 51.1944 120.645C50.9171 120.89 50.5864 121.013 50.2024 121.013C49.8184 121.013 49.4824 120.89 49.1944 120.645C48.9171 120.389 48.7784 120.042 48.7784 119.605C48.7784 119.167 48.9171 118.826 49.1944 118.581C49.4824 118.325 49.8184 118.197 50.2024 118.197C50.5864 118.197 50.9171 118.325 51.1944 118.581C51.4824 118.826 51.6264 119.167 51.6264 119.605ZM58.7154 124.149C58.5021 124.095 58.2514 124.042 57.9634 123.989C57.6754 123.925 57.3661 123.893 57.0354 123.893C56.8861 123.893 56.7048 123.909 56.4914 123.941C56.2888 123.962 56.1341 123.989 56.0274 124.021V130.453H53.6434V122.485C54.0701 122.335 54.5714 122.197 55.1474 122.069C55.7341 121.93 56.3848 121.861 57.0994 121.861C57.2274 121.861 57.3821 121.871 57.5634 121.893C57.7448 121.903 57.9261 121.925 58.1074 121.957C58.2888 121.978 58.4701 122.01 58.6514 122.053C58.8328 122.085 58.9874 122.127 59.1154 122.181L58.7154 124.149ZM68.1092 126.229C68.1092 126.89 68.0132 127.498 67.8212 128.053C67.6292 128.597 67.3519 129.066 66.9892 129.461C66.6265 129.845 66.1892 130.143 65.6772 130.357C65.1759 130.57 64.6105 130.677 63.9812 130.677C63.3625 130.677 62.7972 130.57 62.2852 130.357C61.7839 130.143 61.3519 129.845 60.9892 129.461C60.6265 129.066 60.3439 128.597 60.1412 128.053C59.9385 127.498 59.8372 126.89 59.8372 126.229C59.8372 125.567 59.9385 124.965 60.1412 124.421C60.3545 123.877 60.6425 123.413 61.0052 123.029C61.3785 122.645 61.8159 122.346 62.3172 122.133C62.8292 121.919 63.3839 121.813 63.9812 121.813C64.5892 121.813 65.1439 121.919 65.6452 122.133C66.1572 122.346 66.5945 122.645 66.9572 123.029C67.3199 123.413 67.6025 123.877 67.8052 124.421C68.0079 124.965 68.1092 125.567 68.1092 126.229ZM65.6772 126.229C65.6772 125.493 65.5279 124.917 65.2292 124.501C64.9412 124.074 64.5252 123.861 63.9812 123.861C63.4372 123.861 63.0159 124.074 62.7172 124.501C62.4185 124.917 62.2692 125.493 62.2692 126.229C62.2692 126.965 62.4185 127.551 62.7172 127.989C63.0159 128.415 63.4372 128.629 63.9812 128.629C64.5252 128.629 64.9412 128.415 65.2292 127.989C65.5279 127.551 65.6772 126.965 65.6772 126.229ZM72.3719 128.741C72.8093 128.741 73.1186 128.698 73.2999 128.613C73.4813 128.527 73.5719 128.362 73.5719 128.117C73.5719 127.925 73.4546 127.759 73.2199 127.621C72.9853 127.471 72.6279 127.306 72.1479 127.125C71.7746 126.986 71.4333 126.842 71.1239 126.693C70.8253 126.543 70.5693 126.367 70.3559 126.165C70.1426 125.951 69.9773 125.701 69.8599 125.413C69.7426 125.125 69.6839 124.778 69.6839 124.373C69.6839 123.583 69.9773 122.959 70.5639 122.501C71.1506 122.042 71.9559 121.813 72.9799 121.813C73.4919 121.813 73.9826 121.861 74.4519 121.957C74.9213 122.042 75.2946 122.138 75.5719 122.245L75.1559 124.101C74.8786 124.005 74.5746 123.919 74.2439 123.845C73.9239 123.77 73.5613 123.733 73.1559 123.733C72.4093 123.733 72.0359 123.941 72.0359 124.357C72.0359 124.453 72.0519 124.538 72.0839 124.613C72.1159 124.687 72.1799 124.762 72.2759 124.837C72.3719 124.901 72.4999 124.975 72.6599 125.061C72.8306 125.135 73.0439 125.221 73.2999 125.317C73.8226 125.509 74.2546 125.701 74.5959 125.893C74.9373 126.074 75.2039 126.277 75.3959 126.501C75.5986 126.714 75.7373 126.954 75.8119 127.221C75.8973 127.487 75.9399 127.797 75.9399 128.149C75.9399 128.981 75.6253 129.61 74.9959 130.037C74.3773 130.463 73.4973 130.677 72.3559 130.677C71.6093 130.677 70.9853 130.613 70.4839 130.485C69.9933 130.357 69.6519 130.25 69.4599 130.165L69.8599 128.229C70.2653 128.389 70.6813 128.517 71.1079 128.613C71.5346 128.698 71.9559 128.741 72.3719 128.741Z" fill="#2F2F2F"/>
</svg>
