<svg width="88" height="134" viewBox="0 0 88 134" fill="none" xmlns="http://www.w3.org/2000/svg">
<circle cx="44.3259" cy="44.7786" r="40.4148" fill="#FFFE06"/>
<path d="M88 44.4526L80.3892 35.9331L83.6523 24.8702L73.184 20.5959L71.4393 9.18494L60.1976 9.96824L53.794 0.452637L44.0047 6.18714L34.2154 0.452637L27.8118 9.96824L16.5607 9.17527L14.816 20.5863L4.34766 24.8702L7.61076 35.9331L0 44.4526L7.61076 52.9722L4.34766 64.0351L14.8254 68.3093L16.5701 79.7203L27.8118 78.9274L34.2154 88.4526L44.0047 82.7181L53.794 88.4526L60.1976 78.937L71.4393 79.73L73.184 68.319L83.6618 64.0447L80.3987 52.9819L88 44.4526ZM68.1385 64.1801L66.6955 73.628L57.3966 72.9801L52.1059 80.8421L44.0047 76.1036L35.9035 80.8421L30.6128 72.9801L21.3139 73.6377L19.871 64.1898L11.2134 60.6504L13.9106 51.5023L7.61076 44.4526L13.9106 37.403L11.2134 28.2548L19.871 24.7155L21.3139 15.2676L30.6128 15.9252L35.9035 8.06319L44.0047 12.8016L52.1059 8.06319L57.3966 15.9252L66.6955 15.2676L68.1385 24.7155L76.7961 28.2548L74.0988 37.403L80.3987 44.4526L74.0988 51.5023L76.7961 60.6504L68.1385 64.1801Z" fill="#00309E"/>
<path d="M53.0587 45.6516C48.8714 45.6516 45.4668 49.1426 45.4668 53.4362C45.4668 57.7299 48.8714 61.2208 53.0587 61.2208C57.246 61.2208 60.6506 57.7299 60.6506 53.4362C60.6506 49.1426 57.246 45.6516 53.0587 45.6516ZM53.0587 55.4767C51.9647 55.4767 51.0688 54.5677 51.0688 53.4362C51.0688 52.3145 51.9553 51.3958 53.0587 51.3958C54.1527 51.3958 55.0486 52.3048 55.0486 53.4362C55.0486 54.558 54.1527 55.4767 53.0587 55.4767Z" fill="#00309E"/>
<path d="M53.0341 28.4005L30.6016 56.8958L34.9678 60.5097L57.4003 32.0145L53.0341 28.4005Z" fill="#00309E"/>
<path d="M7.81506 128.421C7.9324 128.431 8.06573 128.442 8.21506 128.453C8.37506 128.453 8.56173 128.453 8.77506 128.453C10.0231 128.453 10.9457 128.138 11.5431 127.509C12.1511 126.879 12.4551 126.01 12.4551 124.901C12.4551 123.738 12.1671 122.858 11.5911 122.261C11.0151 121.663 10.1031 121.365 8.85506 121.365C8.6844 121.365 8.5084 121.37 8.32706 121.381C8.14573 121.381 7.97506 121.391 7.81506 121.413V128.421ZM15.0311 124.901C15.0311 125.861 14.8817 126.698 14.5831 127.413C14.2844 128.127 13.8577 128.719 13.3031 129.189C12.7591 129.658 12.0924 130.01 11.3031 130.245C10.5137 130.479 9.6284 130.597 8.64706 130.597C8.19906 130.597 7.6764 130.575 7.07906 130.533C6.48173 130.501 5.89506 130.426 5.31906 130.309V119.509C5.89506 119.402 6.4924 119.333 7.11106 119.301C7.7404 119.258 8.27906 119.237 8.72706 119.237C9.6764 119.237 10.5351 119.343 11.3031 119.557C12.0817 119.77 12.7484 120.106 13.3031 120.565C13.8577 121.023 14.2844 121.61 14.5831 122.325C14.8817 123.039 15.0311 123.898 15.0311 124.901ZM16.5559 126.309C16.5559 125.562 16.6679 124.911 16.8919 124.357C17.1266 123.791 17.4306 123.322 17.8039 122.949C18.1773 122.575 18.6039 122.293 19.0839 122.101C19.5746 121.909 20.0759 121.813 20.5879 121.813C21.7826 121.813 22.7266 122.181 23.4199 122.917C24.1133 123.642 24.4599 124.714 24.4599 126.133C24.4599 126.271 24.4546 126.426 24.4439 126.597C24.4333 126.757 24.4226 126.901 24.4119 127.029H19.0039C19.0573 127.519 19.2866 127.909 19.6919 128.197C20.0973 128.485 20.6413 128.629 21.3239 128.629C21.7613 128.629 22.1879 128.591 22.6039 128.517C23.0306 128.431 23.3773 128.33 23.6439 128.213L23.9639 130.149C23.8359 130.213 23.6653 130.277 23.4519 130.341C23.2386 130.405 22.9986 130.458 22.7319 130.501C22.4759 130.554 22.1986 130.597 21.8999 130.629C21.6013 130.661 21.3026 130.677 21.0039 130.677C20.2466 130.677 19.5853 130.565 19.0199 130.341C18.4653 130.117 18.0013 129.813 17.6279 129.429C17.2653 129.034 16.9933 128.57 16.8119 128.037C16.6413 127.503 16.5559 126.927 16.5559 126.309ZM22.1559 125.397C22.1453 125.194 22.1079 124.997 22.0439 124.805C21.9906 124.613 21.8999 124.442 21.7719 124.293C21.6546 124.143 21.4999 124.021 21.3079 123.925C21.1266 123.829 20.8973 123.781 20.6199 123.781C20.3533 123.781 20.1239 123.829 19.9319 123.925C19.7399 124.01 19.5799 124.127 19.4519 124.277C19.3239 124.426 19.2226 124.602 19.1479 124.805C19.0839 124.997 19.0359 125.194 19.0039 125.397H22.1559ZM28.7157 128.741C29.153 128.741 29.4624 128.698 29.6437 128.613C29.825 128.527 29.9157 128.362 29.9157 128.117C29.9157 127.925 29.7984 127.759 29.5637 127.621C29.329 127.471 28.9717 127.306 28.4917 127.125C28.1184 126.986 27.777 126.842 27.4677 126.693C27.169 126.543 26.913 126.367 26.6997 126.165C26.4864 125.951 26.321 125.701 26.2037 125.413C26.0864 125.125 26.0277 124.778 26.0277 124.373C26.0277 123.583 26.321 122.959 26.9077 122.501C27.4944 122.042 28.2997 121.813 29.3237 121.813C29.8357 121.813 30.3264 121.861 30.7957 121.957C31.265 122.042 31.6384 122.138 31.9157 122.245L31.4997 124.101C31.2224 124.005 30.9184 123.919 30.5877 123.845C30.2677 123.77 29.905 123.733 29.4997 123.733C28.753 123.733 28.3797 123.941 28.3797 124.357C28.3797 124.453 28.3957 124.538 28.4277 124.613C28.4597 124.687 28.5237 124.762 28.6197 124.837C28.7157 124.901 28.8437 124.975 29.0037 125.061C29.1744 125.135 29.3877 125.221 29.6437 125.317C30.1664 125.509 30.5984 125.701 30.9397 125.893C31.281 126.074 31.5477 126.277 31.7397 126.501C31.9424 126.714 32.081 126.954 32.1557 127.221C32.241 127.487 32.2837 127.797 32.2837 128.149C32.2837 128.981 31.969 129.61 31.3397 130.037C30.721 130.463 29.841 130.677 28.6997 130.677C27.953 130.677 27.329 130.613 26.8277 130.485C26.337 130.357 25.9957 130.25 25.8037 130.165L26.2037 128.229C26.609 128.389 27.025 128.517 27.4517 128.613C27.8784 128.698 28.2997 128.741 28.7157 128.741ZM33.6653 126.245C33.6653 125.637 33.7613 125.066 33.9533 124.533C34.156 123.989 34.444 123.519 34.8173 123.125C35.1906 122.719 35.644 122.399 36.1773 122.165C36.7106 121.93 37.3186 121.813 38.0013 121.813C38.4493 121.813 38.86 121.855 39.2333 121.941C39.6066 122.015 39.9693 122.127 40.3213 122.277L39.8253 124.181C39.6013 124.095 39.356 124.021 39.0893 123.957C38.8226 123.893 38.524 123.861 38.1933 123.861C37.4893 123.861 36.9613 124.079 36.6093 124.517C36.268 124.954 36.0973 125.53 36.0973 126.245C36.0973 127.002 36.2573 127.589 36.5773 128.005C36.908 128.421 37.4786 128.629 38.2893 128.629C38.5773 128.629 38.8866 128.602 39.2173 128.549C39.548 128.495 39.852 128.41 40.1293 128.293L40.4653 130.245C40.188 130.362 39.8413 130.463 39.4253 130.549C39.0093 130.634 38.5506 130.677 38.0493 130.677C37.2813 130.677 36.62 130.565 36.0653 130.341C35.5106 130.106 35.052 129.791 34.6893 129.397C34.3373 129.002 34.076 128.538 33.9053 128.005C33.7453 127.461 33.6653 126.874 33.6653 126.245ZM49.5311 126.229C49.5311 126.89 49.4351 127.498 49.2431 128.053C49.0511 128.597 48.7737 129.066 48.4111 129.461C48.0484 129.845 47.6111 130.143 47.0991 130.357C46.5977 130.57 46.0324 130.677 45.4031 130.677C44.7844 130.677 44.2191 130.57 43.7071 130.357C43.2057 130.143 42.7737 129.845 42.4111 129.461C42.0484 129.066 41.7657 128.597 41.5631 128.053C41.3604 127.498 41.2591 126.89 41.2591 126.229C41.2591 125.567 41.3604 124.965 41.5631 124.421C41.7764 123.877 42.0644 123.413 42.4271 123.029C42.8004 122.645 43.2377 122.346 43.7391 122.133C44.2511 121.919 44.8057 121.813 45.4031 121.813C46.0111 121.813 46.5657 121.919 47.0671 122.133C47.5791 122.346 48.0164 122.645 48.3791 123.029C48.7417 123.413 49.0244 123.877 49.2271 124.421C49.4297 124.965 49.5311 125.567 49.5311 126.229ZM47.0991 126.229C47.0991 125.493 46.9497 124.917 46.6511 124.501C46.3631 124.074 45.9471 123.861 45.4031 123.861C44.8591 123.861 44.4377 124.074 44.1391 124.501C43.8404 124.917 43.6911 125.493 43.6911 126.229C43.6911 126.965 43.8404 127.551 44.1391 127.989C44.4377 128.415 44.8591 128.629 45.4031 128.629C45.9471 128.629 46.3631 128.415 46.6511 127.989C46.9497 127.551 47.0991 126.965 47.0991 126.229ZM51.3778 122.325C51.7831 122.207 52.3058 122.101 52.9458 122.005C53.5858 121.898 54.2578 121.845 54.9618 121.845C55.6765 121.845 56.2685 121.941 56.7378 122.133C57.2178 122.314 57.5965 122.575 57.8738 122.917C58.1511 123.258 58.3485 123.663 58.4658 124.133C58.5831 124.602 58.6418 125.125 58.6418 125.701V130.453H56.2578V125.989C56.2578 125.221 56.1565 124.677 55.9538 124.357C55.7511 124.037 55.3725 123.877 54.8178 123.877C54.6471 123.877 54.4658 123.887 54.2738 123.909C54.0818 123.919 53.9111 123.935 53.7618 123.957V130.453H51.3778V122.325ZM60.7197 119.941L63.1037 119.557V122.037H65.9677V124.021H63.1037V126.981C63.1037 127.482 63.189 127.882 63.3597 128.181C63.541 128.479 63.8984 128.629 64.4317 128.629C64.6877 128.629 64.949 128.607 65.2157 128.565C65.493 128.511 65.7437 128.442 65.9677 128.357L66.3037 130.213C66.0157 130.33 65.6957 130.431 65.3437 130.517C64.9917 130.602 64.5597 130.645 64.0477 130.645C63.397 130.645 62.8584 130.559 62.4317 130.389C62.005 130.207 61.6637 129.962 61.4077 129.653C61.1517 129.333 60.9704 128.949 60.8637 128.501C60.7677 128.053 60.7197 127.557 60.7197 127.013V119.941ZM75.4686 126.229C75.4686 126.89 75.3726 127.498 75.1806 128.053C74.9886 128.597 74.7112 129.066 74.3486 129.461C73.9859 129.845 73.5486 130.143 73.0366 130.357C72.5352 130.57 71.9699 130.677 71.3406 130.677C70.7219 130.677 70.1566 130.57 69.6446 130.357C69.1432 130.143 68.7112 129.845 68.3486 129.461C67.9859 129.066 67.7032 128.597 67.5006 128.053C67.2979 127.498 67.1966 126.89 67.1966 126.229C67.1966 125.567 67.2979 124.965 67.5006 124.421C67.7139 123.877 68.0019 123.413 68.3646 123.029C68.7379 122.645 69.1752 122.346 69.6766 122.133C70.1886 121.919 70.7432 121.813 71.3406 121.813C71.9486 121.813 72.5032 121.919 73.0046 122.133C73.5166 122.346 73.9539 122.645 74.3166 123.029C74.6792 123.413 74.9619 123.877 75.1646 124.421C75.3672 124.965 75.4686 125.567 75.4686 126.229ZM73.0366 126.229C73.0366 125.493 72.8872 124.917 72.5886 124.501C72.3006 124.074 71.8846 123.861 71.3406 123.861C70.7966 123.861 70.3752 124.074 70.0766 124.501C69.7779 124.917 69.6286 125.493 69.6286 126.229C69.6286 126.965 69.7779 127.551 70.0766 127.989C70.3752 128.415 70.7966 128.629 71.3406 128.629C71.8846 128.629 72.3006 128.415 72.5886 127.989C72.8872 127.551 73.0366 126.965 73.0366 126.229ZM79.7313 128.741C80.1686 128.741 80.478 128.698 80.6593 128.613C80.8406 128.527 80.9313 128.362 80.9313 128.117C80.9313 127.925 80.814 127.759 80.5793 127.621C80.3446 127.471 79.9873 127.306 79.5073 127.125C79.134 126.986 78.7926 126.842 78.4833 126.693C78.1846 126.543 77.9286 126.367 77.7153 126.165C77.502 125.951 77.3366 125.701 77.2193 125.413C77.102 125.125 77.0433 124.778 77.0433 124.373C77.0433 123.583 77.3366 122.959 77.9233 122.501C78.51 122.042 79.3153 121.813 80.3393 121.813C80.8513 121.813 81.342 121.861 81.8113 121.957C82.2806 122.042 82.654 122.138 82.9313 122.245L82.5153 124.101C82.238 124.005 81.934 123.919 81.6033 123.845C81.2833 123.77 80.9206 123.733 80.5153 123.733C79.7686 123.733 79.3953 123.941 79.3953 124.357C79.3953 124.453 79.4113 124.538 79.4433 124.613C79.4753 124.687 79.5393 124.762 79.6353 124.837C79.7313 124.901 79.8593 124.975 80.0193 125.061C80.19 125.135 80.4033 125.221 80.6593 125.317C81.182 125.509 81.614 125.701 81.9553 125.893C82.2966 126.074 82.5633 126.277 82.7553 126.501C82.958 126.714 83.0966 126.954 83.1713 127.221C83.2566 127.487 83.2993 127.797 83.2993 128.149C83.2993 128.981 82.9846 129.61 82.3553 130.037C81.7366 130.463 80.8566 130.677 79.7153 130.677C78.9686 130.677 78.3446 130.613 77.8433 130.485C77.3526 130.357 77.0113 130.25 76.8193 130.165L77.2193 128.229C77.6246 128.389 78.0406 128.517 78.4673 128.613C78.894 128.698 79.3153 128.741 79.7313 128.741Z" fill="#2F2F2F"/>
</svg>
