<svg width="88" height="134" viewBox="0 0 88 134" fill="none" xmlns="http://www.w3.org/2000/svg">
<circle cx="44.3259" cy="44.7786" r="40.4148" fill="#FFFE06"/>
<path d="M88 30.0081C87.7155 31.2287 87.4983 32.4642 87.1314 33.6548C86.2328 36.6201 84.5705 39.1211 82.3839 41.3002C76.5283 47.1558 70.6875 53.0115 64.8244 58.8597C59.7924 63.8767 52.9183 64.3335 47.2423 60.0503C47.1525 59.9829 47.0551 59.9305 46.8904 59.8257C46.6508 60.0578 46.4037 60.2825 46.1641 60.5146C37.0735 69.6051 27.9755 78.6957 18.8999 87.8012C18.4432 88.2579 17.9864 88.4601 17.3349 88.4601C11.6065 88.4377 5.88564 88.4452 0.0149762 88.4452C0.0149762 88.1157 0.0149762 87.8161 0.0149762 87.5166C0.0149762 82.0204 0.0224643 76.5241 0 71.0204C0 70.4213 0.179714 70.017 0.599047 69.6051C9.6821 60.5445 18.7502 51.469 27.8257 42.4084C28.0878 42.1463 28.4098 41.9441 28.7318 41.6895C28.3424 41.1504 28.0504 40.776 27.7808 40.3791C24.3363 35.2947 24.6882 28.7576 28.9714 24.3321C35.2689 17.8325 41.7161 11.4826 48.1709 5.14018C50.8217 2.54181 54.1314 1.14154 57.8005 0.624863C58.0177 0.59491 58.2274 0.512541 58.4445 0.452637C59.5902 0.452637 60.7359 0.452637 61.8816 0.452637C62.0987 0.505053 62.3159 0.587422 62.5405 0.617375C66.2771 1.1041 69.6167 2.53432 72.3349 5.14767C75.9067 8.57721 79.3812 12.1041 82.8707 15.616C84.8999 17.6603 86.3451 20.0789 87.1613 22.842C87.5058 24.0102 87.7229 25.2157 88 26.4063C88 27.6044 88 28.81 88 30.0081ZM82.8557 28.1061C82.7733 24.6017 81.5003 21.5316 78.9844 19.0006C75.8169 15.8107 72.6569 12.6133 69.4445 9.46829C64.1729 4.29403 56.288 4.29403 51.0313 9.49076C45.0259 15.4288 39.0654 21.4118 33.1123 27.4023C29.8325 30.712 29.8026 35.3696 33.0749 38.6718C38.6086 44.2729 44.1797 49.8366 49.7808 55.3703C53.0606 58.6126 57.7182 58.6201 60.9905 55.3778C67.0558 49.3723 73.0762 43.3294 79.0892 37.2791C81.5902 34.778 82.7958 31.7004 82.8557 28.1061ZM5.17427 79.3621C15.3955 69.1409 25.5943 58.9496 35.6882 48.8481C34.5875 47.7474 33.4044 46.5568 32.1988 45.3587C32.2063 45.3512 32.1314 45.3961 32.0715 45.456C23.2131 54.307 14.3622 63.1579 5.51872 72.0163C5.36896 72.166 5.18924 72.3907 5.18924 72.5779C5.16678 74.8468 5.17427 77.1307 5.17427 79.3621ZM39.6644 52.7345C29.4956 62.9033 19.3118 73.0871 9.113 83.2859C11.1273 83.2859 13.2015 83.2634 15.2757 83.3008C15.8747 83.3083 16.2791 83.1211 16.6909 82.7018C25.3247 74.053 33.9735 65.4118 42.6072 56.7705C42.8019 56.5759 42.9816 56.3662 43.1389 56.194C41.9258 54.9884 40.7502 53.8202 39.6644 52.7345Z" fill="#00309E"/>
<path d="M70.5081 35.8787C67.7226 35.8862 65.873 35.0251 64.3305 33.49C61.2079 30.3825 58.0704 27.2824 54.9853 24.1374C51.9377 21.0298 51.758 16.7017 54.4612 13.422C56.9322 10.4267 61.9343 9.86511 64.8995 12.3811C66.6443 13.8563 68.2243 15.5261 69.8417 17.1435C71.8859 19.1878 73.9976 21.1721 75.8846 23.3512C77.9438 25.7249 78.1909 28.5554 76.9404 31.3859C75.63 34.3661 73.1589 35.7739 70.5081 35.8787ZM69.9091 30.9141C71.0473 30.697 71.841 30.2477 72.2678 29.2967C72.7471 28.2259 72.5898 27.2 71.7586 26.3689C68.5537 23.134 65.3413 19.9141 62.099 16.7167C61.0132 15.6459 59.3958 15.6759 58.4074 16.7092C57.4639 17.6902 57.4639 19.3151 58.4897 20.3559C61.6722 23.5683 64.8621 26.7732 68.097 29.9407C68.5687 30.39 69.2951 30.5921 69.9091 30.9141Z" fill="#00309E"/>
<path d="M43.4609 26.938C44.5767 25.8223 45.7448 24.6616 46.8605 23.5534C52.8585 29.5514 58.9014 35.6017 64.9068 41.6147C63.7986 42.7304 62.6304 43.8985 61.5147 45.0218C55.5168 39.0013 49.4739 32.9584 43.4609 26.938Z" fill="#00309E"/>
<path d="M16.6876 130.677C14.8849 130.677 13.5089 130.175 12.5596 129.173C11.6209 128.17 11.1516 126.746 11.1516 124.901C11.1516 123.983 11.2956 123.167 11.5836 122.453C11.8716 121.727 12.2662 121.119 12.7676 120.629C13.2689 120.127 13.8662 119.749 14.5596 119.493C15.2529 119.237 16.0049 119.109 16.8156 119.109C17.2849 119.109 17.7116 119.146 18.0956 119.221C18.4796 119.285 18.8156 119.365 19.1036 119.461C19.3916 119.546 19.6316 119.637 19.8236 119.733C20.0156 119.829 20.1542 119.903 20.2396 119.957L19.5196 121.973C19.1782 121.791 18.7782 121.637 18.3196 121.509C17.8716 121.381 17.3596 121.317 16.7836 121.317C16.3996 121.317 16.0209 121.381 15.6476 121.509C15.2849 121.637 14.9596 121.845 14.6716 122.133C14.3942 122.41 14.1702 122.773 13.9996 123.221C13.8289 123.669 13.7436 124.213 13.7436 124.853C13.7436 125.365 13.7969 125.845 13.9036 126.293C14.0209 126.73 14.2022 127.109 14.4476 127.429C14.7036 127.749 15.0342 128.005 15.4396 128.197C15.8449 128.378 16.3356 128.469 16.9116 128.469C17.2742 128.469 17.5996 128.447 17.8876 128.405C18.1756 128.362 18.4316 128.314 18.6556 128.261C18.8796 128.197 19.0769 128.127 19.2476 128.053C19.4182 127.978 19.5729 127.909 19.7116 127.845L20.3996 129.845C20.0476 130.058 19.5516 130.25 18.9116 130.421C18.2716 130.591 17.5302 130.677 16.6876 130.677ZM21.8466 130.453V118.421L24.2306 118.037V122.069C24.3906 122.015 24.5932 121.967 24.8386 121.925C25.0946 121.871 25.3399 121.845 25.5746 121.845C26.2572 121.845 26.8226 121.941 27.2706 122.133C27.7292 122.314 28.0919 122.575 28.3586 122.917C28.6359 123.258 28.8279 123.663 28.9346 124.133C29.0519 124.602 29.1106 125.125 29.1106 125.701V130.453H26.7266V125.989C26.7266 125.221 26.6252 124.677 26.4226 124.357C26.2306 124.037 25.8679 123.877 25.3346 123.877C25.1212 123.877 24.9186 123.898 24.7266 123.941C24.5452 123.973 24.3799 124.01 24.2306 124.053V130.453H21.8466ZM34.4844 128.789C34.7191 128.789 34.9431 128.783 35.1564 128.773C35.3698 128.762 35.5404 128.746 35.6684 128.725V126.917C35.5724 126.895 35.4284 126.874 35.2364 126.853C35.0444 126.831 34.8684 126.821 34.7084 126.821C34.4844 126.821 34.2711 126.837 34.0684 126.869C33.8764 126.89 33.7058 126.938 33.5564 127.013C33.4071 127.087 33.2898 127.189 33.2044 127.317C33.1191 127.445 33.0764 127.605 33.0764 127.797C33.0764 128.17 33.1991 128.431 33.4444 128.581C33.7004 128.719 34.0471 128.789 34.4844 128.789ZM34.2924 121.813C34.9964 121.813 35.5831 121.893 36.0524 122.053C36.5218 122.213 36.8951 122.442 37.1724 122.741C37.4604 123.039 37.6631 123.402 37.7804 123.829C37.8978 124.255 37.9564 124.73 37.9564 125.253V130.213C37.6151 130.287 37.1404 130.373 36.5324 130.469C35.9244 130.575 35.1884 130.629 34.3244 130.629C33.7804 130.629 33.2844 130.581 32.8364 130.485C32.3991 130.389 32.0204 130.234 31.7004 130.021C31.3804 129.797 31.1351 129.509 30.9644 129.157C30.7938 128.805 30.7084 128.373 30.7084 127.861C30.7084 127.37 30.8044 126.954 30.9964 126.613C31.1991 126.271 31.4658 125.999 31.7964 125.797C32.1271 125.594 32.5058 125.45 32.9324 125.365C33.3591 125.269 33.8018 125.221 34.2604 125.221C34.5698 125.221 34.8418 125.237 35.0764 125.269C35.3218 125.29 35.5191 125.322 35.6684 125.365V125.141C35.6684 124.735 35.5458 124.41 35.3004 124.165C35.0551 123.919 34.6284 123.797 34.0204 123.797C33.6151 123.797 33.2151 123.829 32.8204 123.893C32.4258 123.946 32.0844 124.026 31.7964 124.133L31.4924 122.213C31.6311 122.17 31.8018 122.127 32.0044 122.085C32.2178 122.031 32.4471 121.989 32.6924 121.957C32.9378 121.914 33.1938 121.882 33.4604 121.861C33.7378 121.829 34.0151 121.813 34.2924 121.813ZM42.1971 130.453C41.6531 129.386 41.0984 128.138 40.5331 126.709C39.9784 125.279 39.4504 123.722 38.9491 122.037H41.4771C41.5837 122.453 41.7064 122.906 41.8451 123.397C41.9944 123.877 42.1437 124.367 42.2931 124.869C42.4531 125.359 42.6077 125.839 42.7571 126.309C42.9171 126.778 43.0717 127.205 43.2211 127.589C43.3597 127.205 43.5091 126.778 43.6691 126.309C43.8291 125.839 43.9837 125.359 44.1331 124.869C44.2931 124.367 44.4424 123.877 44.5811 123.397C44.7304 122.906 44.8584 122.453 44.9651 122.037H47.4291C46.9277 123.722 46.3944 125.279 45.8291 126.709C45.2744 128.138 44.7251 129.386 44.1811 130.453H42.1971ZM48.0872 126.309C48.0872 125.562 48.1992 124.911 48.4232 124.357C48.6579 123.791 48.9619 123.322 49.3352 122.949C49.7085 122.575 50.1352 122.293 50.6152 122.101C51.1059 121.909 51.6072 121.813 52.1192 121.813C53.3139 121.813 54.2579 122.181 54.9512 122.917C55.6445 123.642 55.9912 124.714 55.9912 126.133C55.9912 126.271 55.9859 126.426 55.9752 126.597C55.9645 126.757 55.9539 126.901 55.9432 127.029H50.5352C50.5885 127.519 50.8179 127.909 51.2232 128.197C51.6285 128.485 52.1725 128.629 52.8552 128.629C53.2925 128.629 53.7192 128.591 54.1352 128.517C54.5619 128.431 54.9085 128.33 55.1752 128.213L55.4952 130.149C55.3672 130.213 55.1965 130.277 54.9832 130.341C54.7699 130.405 54.5299 130.458 54.2632 130.501C54.0072 130.554 53.7299 130.597 53.4312 130.629C53.1325 130.661 52.8339 130.677 52.5352 130.677C51.7779 130.677 51.1165 130.565 50.5512 130.341C49.9965 130.117 49.5325 129.813 49.1592 129.429C48.7965 129.034 48.5245 128.57 48.3432 128.037C48.1725 127.503 48.0872 126.927 48.0872 126.309ZM53.6872 125.397C53.6765 125.194 53.6392 124.997 53.5752 124.805C53.5219 124.613 53.4312 124.442 53.3032 124.293C53.1859 124.143 53.0312 124.021 52.8392 123.925C52.6579 123.829 52.4285 123.781 52.1512 123.781C51.8845 123.781 51.6552 123.829 51.4632 123.925C51.2712 124.01 51.1112 124.127 50.9832 124.277C50.8552 124.426 50.7539 124.602 50.6792 124.805C50.6152 124.997 50.5672 125.194 50.5352 125.397H53.6872ZM60.2149 130.453H57.8309V122.037H60.2149V130.453ZM60.4389 119.605C60.4389 120.042 60.2949 120.389 60.0069 120.645C59.7296 120.89 59.3989 121.013 59.0149 121.013C58.6309 121.013 58.2949 120.89 58.0069 120.645C57.7296 120.389 57.5909 120.042 57.5909 119.605C57.5909 119.167 57.7296 118.826 58.0069 118.581C58.2949 118.325 58.6309 118.197 59.0149 118.197C59.3989 118.197 59.7296 118.325 60.0069 118.581C60.2949 118.826 60.4389 119.167 60.4389 119.605ZM67.5279 124.149C67.3146 124.095 67.0639 124.042 66.7759 123.989C66.4879 123.925 66.1786 123.893 65.8479 123.893C65.6986 123.893 65.5173 123.909 65.3039 123.941C65.1013 123.962 64.9466 123.989 64.8399 124.021V130.453H62.4559V122.485C62.8826 122.335 63.3839 122.197 63.9599 122.069C64.5466 121.93 65.1973 121.861 65.9119 121.861C66.0399 121.861 66.1946 121.871 66.3759 121.893C66.5573 121.903 66.7386 121.925 66.9199 121.957C67.1013 121.978 67.2826 122.01 67.4639 122.053C67.6453 122.085 67.7999 122.127 67.9279 122.181L67.5279 124.149ZM76.9217 126.229C76.9217 126.89 76.8257 127.498 76.6337 128.053C76.4417 128.597 76.1644 129.066 75.8017 129.461C75.439 129.845 75.0017 130.143 74.4897 130.357C73.9884 130.57 73.423 130.677 72.7937 130.677C72.175 130.677 71.6097 130.57 71.0977 130.357C70.5964 130.143 70.1644 129.845 69.8017 129.461C69.439 129.066 69.1564 128.597 68.9537 128.053C68.751 127.498 68.6497 126.89 68.6497 126.229C68.6497 125.567 68.751 124.965 68.9537 124.421C69.167 123.877 69.455 123.413 69.8177 123.029C70.191 122.645 70.6284 122.346 71.1297 122.133C71.6417 121.919 72.1964 121.813 72.7937 121.813C73.4017 121.813 73.9564 121.919 74.4577 122.133C74.9697 122.346 75.407 122.645 75.7697 123.029C76.1324 123.413 76.415 123.877 76.6177 124.421C76.8204 124.965 76.9217 125.567 76.9217 126.229ZM74.4897 126.229C74.4897 125.493 74.3404 124.917 74.0417 124.501C73.7537 124.074 73.3377 123.861 72.7937 123.861C72.2497 123.861 71.8284 124.074 71.5297 124.501C71.231 124.917 71.0817 125.493 71.0817 126.229C71.0817 126.965 71.231 127.551 71.5297 127.989C71.8284 128.415 72.2497 128.629 72.7937 128.629C73.3377 128.629 73.7537 128.415 74.0417 127.989C74.3404 127.551 74.4897 126.965 74.4897 126.229Z" fill="#2F2F2F"/>
</svg>
