<svg width="88" height="134" viewBox="0 0 88 134" fill="none" xmlns="http://www.w3.org/2000/svg">
<circle cx="44.3259" cy="44.7786" r="40.4148" fill="#FFFE06"/>
<path d="M88 41.7123C88 43.5445 88 45.3768 88 47.2165C87.9473 47.4955 87.8796 47.7745 87.842 48.0535C87.6313 49.5841 87.5109 51.1298 87.2174 52.6454C85.2234 62.8546 80.2723 71.3824 72.3188 78.0629C62.8453 86.0177 51.8519 89.4107 39.5342 88.2344C30.8508 87.405 23.0779 84.1477 16.3283 78.6133C7.89329 71.6689 2.62608 62.8244 0.677212 52.0422C0.383754 50.4437 0.225738 48.8226 0 47.209C0 45.3768 0 43.5445 0 41.7047C0.0526721 41.3956 0.112869 41.094 0.158016 40.7849C0.368705 39.2542 0.496622 37.7161 0.797606 36.2005C2.80667 25.9385 7.86319 17.4408 15.8392 10.7076C21.588 5.85932 28.1796 2.69249 35.5838 1.29004C37.4574 0.93566 39.3611 0.724539 41.2498 0.445557C43.0858 0.445557 44.9142 0.445557 46.7502 0.445557C48.2476 0.641598 49.7525 0.792399 51.2424 1.04876C59.4818 2.45121 66.7581 5.89702 73.0035 11.439C80.6936 18.2627 85.5094 26.7377 87.3228 36.8716C87.6087 38.4776 87.7818 40.0987 88 41.7123ZM82.8457 44.5021C82.8833 23.1336 65.5241 5.70852 44.1091 5.6105C22.7318 5.52002 5.23711 22.93 5.15434 44.3739C5.07909 65.75 22.506 83.2505 43.936 83.3108C65.3284 83.3636 82.808 65.9309 82.8457 44.5021Z" fill="#00309E"/>
<path d="M65.351 62.5074C63.2592 62.5074 61.1673 62.53 59.083 62.4847C58.6842 62.4772 58.2027 62.2661 57.9092 61.9871C56.4795 60.6224 55.1176 59.1897 53.6879 57.825C53.417 57.5686 52.958 57.3726 52.5818 57.3726C46.8556 57.3424 41.1294 57.3424 35.3956 57.3726C35.0269 57.3726 34.5755 57.5837 34.297 57.8476C32.8674 59.2124 31.5054 60.645 30.0758 62.0097C29.8049 62.2736 29.3534 62.4847 28.9772 62.4923C24.7709 62.5224 20.5572 62.5224 16.3509 62.4923C16.0499 62.4923 15.6286 62.2887 15.4781 62.0399C11.9114 56.1737 9.92492 49.8325 10.3613 42.9409C11.1138 31.005 16.6745 21.8438 26.8251 15.5554C32.5513 12.0041 38.8946 10.3452 45.5914 10.8429C59.5119 11.8759 69.5121 18.8806 75.0502 31.6685C79.5649 42.0889 78.2858 52.2981 72.537 62.0022C72.379 62.2661 71.9275 62.4923 71.6115 62.4998C69.5271 62.5375 67.4353 62.5149 65.351 62.5074ZM50.4824 52.1926C51.8519 52.1926 53.2139 52.2227 54.5833 52.1775C55.1853 52.1549 55.5916 52.3584 55.9979 52.7807C57.3524 54.1831 58.7294 55.5554 60.1289 56.9051C60.3622 57.1313 60.7535 57.3198 61.077 57.3198C63.5978 57.3575 66.1185 57.3273 68.6392 57.3575C69.1133 57.365 69.3466 57.1992 69.5497 56.7845C72.2435 51.235 73.1766 45.4442 72.0554 39.3368C69.1359 23.3895 53.4321 13.0069 37.7057 16.6186C20.0906 20.6676 10.2184 40.0832 18.3675 56.611C18.6534 57.1916 18.9695 57.3726 19.594 57.365C21.9718 57.3273 24.3495 57.3726 26.7273 57.3273C27.1336 57.3198 27.6227 57.1313 27.9087 56.8599C29.3383 55.5026 30.7003 54.0625 32.13 52.7053C32.4234 52.4263 32.905 52.2227 33.3038 52.2152C36.2233 52.1775 39.1429 52.1699 42.0699 52.2076" fill="#00309E"/>
<path d="M37.1492 40.4091L32.3516 42.3781L37.231 54.3167L42.0287 52.3477L37.1492 40.4091Z" fill="#00309E"/>
<path d="M10.8424 119.237C12.4957 119.237 13.765 119.53 14.6504 120.117C15.5357 120.693 15.9784 121.642 15.9784 122.965C15.9784 124.298 15.5304 125.263 14.6344 125.861C13.7384 126.447 12.4584 126.741 10.7944 126.741H10.0104V130.453H7.51438V119.525C8.05838 119.418 8.63438 119.343 9.24238 119.301C9.85038 119.258 10.3837 119.237 10.8424 119.237ZM11.0024 121.365C10.821 121.365 10.6397 121.37 10.4584 121.381C10.2877 121.391 10.1384 121.402 10.0104 121.413V124.613H10.7944C11.6584 124.613 12.309 124.495 12.7464 124.261C13.1837 124.026 13.4024 123.589 13.4024 122.949C13.4024 122.639 13.3437 122.383 13.2264 122.181C13.1197 121.978 12.9597 121.818 12.7464 121.701C12.5437 121.573 12.293 121.487 11.9944 121.445C11.6957 121.391 11.365 121.365 11.0024 121.365ZM20.5548 128.789C20.7894 128.789 21.0134 128.783 21.2268 128.773C21.4401 128.762 21.6108 128.746 21.7388 128.725V126.917C21.6428 126.895 21.4988 126.874 21.3068 126.853C21.1148 126.831 20.9388 126.821 20.7788 126.821C20.5548 126.821 20.3414 126.837 20.1388 126.869C19.9468 126.89 19.7761 126.938 19.6268 127.013C19.4774 127.087 19.3601 127.189 19.2748 127.317C19.1894 127.445 19.1468 127.605 19.1468 127.797C19.1468 128.17 19.2694 128.431 19.5148 128.581C19.7708 128.719 20.1174 128.789 20.5548 128.789ZM20.3628 121.813C21.0668 121.813 21.6534 121.893 22.1228 122.053C22.5921 122.213 22.9654 122.442 23.2428 122.741C23.5308 123.039 23.7334 123.402 23.8508 123.829C23.9681 124.255 24.0268 124.73 24.0268 125.253V130.213C23.6854 130.287 23.2108 130.373 22.6028 130.469C21.9948 130.575 21.2588 130.629 20.3948 130.629C19.8508 130.629 19.3548 130.581 18.9068 130.485C18.4694 130.389 18.0908 130.234 17.7708 130.021C17.4508 129.797 17.2054 129.509 17.0348 129.157C16.8641 128.805 16.7788 128.373 16.7788 127.861C16.7788 127.37 16.8748 126.954 17.0668 126.613C17.2694 126.271 17.5361 125.999 17.8668 125.797C18.1974 125.594 18.5761 125.45 19.0028 125.365C19.4294 125.269 19.8721 125.221 20.3307 125.221C20.6401 125.221 20.9121 125.237 21.1468 125.269C21.3921 125.29 21.5894 125.322 21.7388 125.365V125.141C21.7388 124.735 21.6161 124.41 21.3708 124.165C21.1254 123.919 20.6988 123.797 20.0908 123.797C19.6854 123.797 19.2854 123.829 18.8908 123.893C18.4961 123.946 18.1548 124.026 17.8668 124.133L17.5628 122.213C17.7014 122.17 17.8721 122.127 18.0748 122.085C18.2881 122.031 18.5174 121.989 18.7628 121.957C19.0081 121.914 19.2641 121.882 19.5308 121.861C19.8081 121.829 20.0854 121.813 20.3628 121.813ZM26.1825 122.325C26.5878 122.207 27.1105 122.101 27.7505 122.005C28.3905 121.898 29.0625 121.845 29.7665 121.845C30.4812 121.845 31.0732 121.941 31.5425 122.133C32.0225 122.314 32.4012 122.575 32.6785 122.917C32.9558 123.258 33.1532 123.663 33.2705 124.133C33.3878 124.602 33.4465 125.125 33.4465 125.701V130.453H31.0625V125.989C31.0625 125.221 30.9612 124.677 30.7585 124.357C30.5558 124.037 30.1772 123.877 29.6225 123.877C29.4518 123.877 29.2705 123.887 29.0785 123.909C28.8865 123.919 28.7158 123.935 28.5665 123.957V130.453H26.1825V122.325ZM35.2044 126.309C35.2044 125.562 35.3164 124.911 35.5404 124.357C35.775 123.791 36.079 123.322 36.4524 122.949C36.8257 122.575 37.2524 122.293 37.7324 122.101C38.223 121.909 38.7244 121.813 39.2364 121.813C40.431 121.813 41.375 122.181 42.0684 122.917C42.7617 123.642 43.1084 124.714 43.1084 126.133C43.1084 126.271 43.103 126.426 43.0924 126.597C43.0817 126.757 43.071 126.901 43.0604 127.029H37.6524C37.7057 127.519 37.935 127.909 38.3404 128.197C38.7457 128.485 39.2897 128.629 39.9724 128.629C40.4097 128.629 40.8364 128.591 41.2524 128.517C41.679 128.431 42.0257 128.33 42.2924 128.213L42.6124 130.149C42.4844 130.213 42.3137 130.277 42.1004 130.341C41.887 130.405 41.647 130.458 41.3804 130.501C41.1244 130.554 40.847 130.597 40.5484 130.629C40.2497 130.661 39.951 130.677 39.6524 130.677C38.895 130.677 38.2337 130.565 37.6684 130.341C37.1137 130.117 36.6497 129.813 36.2764 129.429C35.9137 129.034 35.6417 128.57 35.4604 128.037C35.2897 127.503 35.2044 126.927 35.2044 126.309ZM40.8044 125.397C40.7937 125.194 40.7564 124.997 40.6924 124.805C40.639 124.613 40.5484 124.442 40.4204 124.293C40.303 124.143 40.1484 124.021 39.9564 123.925C39.775 123.829 39.5457 123.781 39.2684 123.781C39.0017 123.781 38.7724 123.829 38.5804 123.925C38.3884 124.01 38.2284 124.127 38.1004 124.277C37.9724 124.426 37.871 124.602 37.7964 124.805C37.7324 124.997 37.6844 125.194 37.6524 125.397H40.8044ZM51.9759 128.549C52.3279 128.549 52.6159 128.522 52.8399 128.469C53.0745 128.405 53.2612 128.325 53.3999 128.229C53.5385 128.122 53.6345 127.999 53.6879 127.861C53.7412 127.722 53.7679 127.567 53.7679 127.397C53.7679 127.034 53.5972 126.735 53.2559 126.501C52.9145 126.255 52.3279 125.994 51.4959 125.717C51.1332 125.589 50.7705 125.445 50.4079 125.285C50.0452 125.114 49.7199 124.906 49.4319 124.661C49.1439 124.405 48.9092 124.101 48.7279 123.749C48.5465 123.386 48.4559 122.949 48.4559 122.437C48.4559 121.925 48.5519 121.466 48.7439 121.061C48.9359 120.645 49.2079 120.293 49.5599 120.005C49.9119 119.717 50.3385 119.498 50.8399 119.349C51.3412 119.189 51.9065 119.109 52.5359 119.109C53.2825 119.109 53.9279 119.189 54.4719 119.349C55.0159 119.509 55.4639 119.685 55.8159 119.877L55.0959 121.845C54.7865 121.685 54.4399 121.546 54.0559 121.429C53.6825 121.301 53.2292 121.237 52.6959 121.237C52.0985 121.237 51.6665 121.322 51.3999 121.493C51.1439 121.653 51.0159 121.903 51.0159 122.245C51.0159 122.447 51.0639 122.618 51.1599 122.757C51.2559 122.895 51.3892 123.023 51.5599 123.141C51.7412 123.247 51.9439 123.349 52.1679 123.445C52.4025 123.53 52.6585 123.621 52.9359 123.717C53.5119 123.93 54.0132 124.143 54.4399 124.357C54.8665 124.559 55.2185 124.799 55.4959 125.077C55.7839 125.354 55.9972 125.679 56.1359 126.053C56.2745 126.426 56.3439 126.879 56.3439 127.413C56.3439 128.447 55.9812 129.253 55.2559 129.829C54.5305 130.394 53.4372 130.677 51.9759 130.677C51.4852 130.677 51.0425 130.645 50.6479 130.581C50.2532 130.527 49.9012 130.458 49.5919 130.373C49.2932 130.287 49.0319 130.197 48.8079 130.101C48.5945 130.005 48.4132 129.914 48.2639 129.829L48.9679 127.845C49.2985 128.026 49.7039 128.191 50.1839 128.341C50.6745 128.479 51.2719 128.549 51.9759 128.549ZM57.7044 126.309C57.7044 125.562 57.8164 124.911 58.0404 124.357C58.275 123.791 58.579 123.322 58.9524 122.949C59.3257 122.575 59.7524 122.293 60.2324 122.101C60.723 121.909 61.2244 121.813 61.7364 121.813C62.931 121.813 63.875 122.181 64.5684 122.917C65.2617 123.642 65.6084 124.714 65.6084 126.133C65.6084 126.271 65.603 126.426 65.5924 126.597C65.5817 126.757 65.571 126.901 65.5604 127.029H60.1524C60.2057 127.519 60.435 127.909 60.8404 128.197C61.2457 128.485 61.7897 128.629 62.4724 128.629C62.9097 128.629 63.3364 128.591 63.7524 128.517C64.179 128.431 64.5257 128.33 64.7924 128.213L65.1124 130.149C64.9844 130.213 64.8137 130.277 64.6004 130.341C64.387 130.405 64.147 130.458 63.8804 130.501C63.6244 130.554 63.347 130.597 63.0484 130.629C62.7497 130.661 62.451 130.677 62.1524 130.677C61.395 130.677 60.7337 130.565 60.1684 130.341C59.6137 130.117 59.1497 129.813 58.7764 129.429C58.4137 129.034 58.1417 128.57 57.9604 128.037C57.7897 127.503 57.7044 126.927 57.7044 126.309ZM63.3044 125.397C63.2937 125.194 63.2564 124.997 63.1924 124.805C63.139 124.613 63.0484 124.442 62.9204 124.293C62.803 124.143 62.6484 124.021 62.4564 123.925C62.275 123.829 62.0457 123.781 61.7684 123.781C61.5017 123.781 61.2724 123.829 61.0804 123.925C60.8884 124.01 60.7284 124.127 60.6004 124.277C60.4724 124.426 60.371 124.602 60.2964 124.805C60.2324 124.997 60.1844 125.194 60.1524 125.397H63.3044ZM67.0481 126.245C67.0481 125.637 67.1441 125.066 67.3361 124.533C67.5388 123.989 67.8268 123.519 68.2001 123.125C68.5735 122.719 69.0268 122.399 69.5601 122.165C70.0935 121.93 70.7015 121.813 71.3841 121.813C71.8321 121.813 72.2428 121.855 72.6161 121.941C72.9895 122.015 73.3521 122.127 73.7041 122.277L73.2081 124.181C72.9841 124.095 72.7388 124.021 72.4721 123.957C72.2055 123.893 71.9068 123.861 71.5761 123.861C70.8721 123.861 70.3441 124.079 69.9921 124.517C69.6508 124.954 69.4801 125.53 69.4801 126.245C69.4801 127.002 69.6401 127.589 69.9601 128.005C70.2908 128.421 70.8615 128.629 71.6721 128.629C71.9601 128.629 72.2695 128.602 72.6001 128.549C72.9308 128.495 73.2348 128.41 73.5121 128.293L73.8481 130.245C73.5708 130.362 73.2241 130.463 72.8081 130.549C72.3921 130.634 71.9335 130.677 71.4321 130.677C70.6641 130.677 70.0028 130.565 69.4481 130.341C68.8935 130.106 68.4348 129.791 68.0721 129.397C67.7201 129.002 67.4588 128.538 67.2881 128.005C67.1281 127.461 67.0481 126.874 67.0481 126.245ZM78.2579 128.789C78.4925 128.789 78.7165 128.783 78.9299 128.773C79.1432 128.762 79.3139 128.746 79.4419 128.725V126.917C79.3459 126.895 79.2019 126.874 79.0099 126.853C78.8179 126.831 78.6419 126.821 78.4819 126.821C78.2579 126.821 78.0445 126.837 77.8419 126.869C77.6499 126.89 77.4792 126.938 77.3299 127.013C77.1805 127.087 77.0632 127.189 76.9779 127.317C76.8925 127.445 76.8499 127.605 76.8499 127.797C76.8499 128.17 76.9725 128.431 77.2179 128.581C77.4739 128.719 77.8205 128.789 78.2579 128.789ZM78.0659 121.813C78.7699 121.813 79.3565 121.893 79.8259 122.053C80.2952 122.213 80.6685 122.442 80.9459 122.741C81.2339 123.039 81.4365 123.402 81.5539 123.829C81.6712 124.255 81.7299 124.73 81.7299 125.253V130.213C81.3885 130.287 80.9139 130.373 80.3059 130.469C79.6979 130.575 78.9619 130.629 78.0979 130.629C77.5539 130.629 77.0579 130.581 76.6099 130.485C76.1725 130.389 75.7939 130.234 75.4739 130.021C75.1539 129.797 74.9085 129.509 74.7379 129.157C74.5672 128.805 74.4819 128.373 74.4819 127.861C74.4819 127.37 74.5779 126.954 74.7699 126.613C74.9725 126.271 75.2392 125.999 75.5699 125.797C75.9005 125.594 76.2792 125.45 76.7059 125.365C77.1325 125.269 77.5752 125.221 78.0339 125.221C78.3432 125.221 78.6152 125.237 78.8499 125.269C79.0952 125.29 79.2925 125.322 79.4419 125.365V125.141C79.4419 124.735 79.3192 124.41 79.0739 124.165C78.8285 123.919 78.4019 123.797 77.7939 123.797C77.3885 123.797 76.9885 123.829 76.5939 123.893C76.1992 123.946 75.8579 124.026 75.5699 124.133L75.2659 122.213C75.4045 122.17 75.5752 122.127 75.7779 122.085C75.9912 122.031 76.2205 121.989 76.4659 121.957C76.7112 121.914 76.9672 121.882 77.2339 121.861C77.5112 121.829 77.7885 121.813 78.0659 121.813Z" fill="#2F2F2F"/>
</svg>
