<svg width="87" height="130" viewBox="0 0 87 130" fill="none" xmlns="http://www.w3.org/2000/svg">
<circle cx="43.3259" cy="40.7786" r="40.4148" fill="#FFFE06"/>
<path d="M86.8406 27.1725H67.7395L57.2583 39.3975L43.4701 43.9876L30.0975 39.5331L24.7937 27.1725H0.0996094V64.4711H17.5833C18.6676 67.9046 21.8842 70.4074 25.6701 70.4074C29.456 70.4074 32.6727 67.9046 33.7569 64.4711H53.1833C54.2676 67.9046 57.4842 70.4074 61.2701 70.4074C65.056 70.4074 68.2726 67.9046 69.3569 64.4711H86.8406V27.1725ZM70.0707 32.2595H81.7536V39.0452H64.2518L70.0707 32.2595ZM24.36 39.0452H15.3516V32.2595H21.4415L24.36 39.0452ZM10.2646 32.2595V39.0452H5.17757V32.2595H10.2646ZM25.6701 65.3204C23.7998 65.3204 22.2818 63.8025 22.2818 61.9321C22.2818 60.0618 23.7998 58.5438 25.6701 58.5438C27.5405 58.5438 29.0585 60.0618 29.0585 61.9321C29.0675 63.8025 27.5405 65.3204 25.6701 65.3204ZM40.9311 59.3931H33.7569C32.6727 55.9597 29.456 53.4568 25.6701 53.4568C21.8842 53.4568 18.6676 55.9597 17.5833 59.3931H5.17757V44.1231H27.7935L40.9311 48.5053V59.3931ZM61.2701 65.3204C59.3997 65.3204 57.8818 63.8025 57.8818 61.9321C57.8818 60.0618 59.3997 58.5438 61.2701 58.5438C63.1404 58.5438 64.6584 60.0618 64.6584 61.9321C64.6584 63.8025 63.1404 65.3204 61.2701 65.3204ZM69.3569 59.3931C68.2726 55.9597 65.056 53.4568 61.2701 53.4568C57.4842 53.4568 54.2676 55.9597 53.1833 59.3931H46.0091V48.5053L59.1377 44.1322H81.7536V59.3931H69.3569Z" fill="#00309E"/>
<path d="M17.7423 126.677C15.9396 126.677 14.5636 126.175 13.6143 125.173C12.6756 124.17 12.2063 122.746 12.2063 120.901C12.2063 119.983 12.3503 119.167 12.6383 118.453C12.9263 117.727 13.3209 117.119 13.8223 116.629C14.3236 116.127 14.9209 115.749 15.6143 115.493C16.3076 115.237 17.0596 115.109 17.8703 115.109C18.3396 115.109 18.7663 115.146 19.1503 115.221C19.5343 115.285 19.8703 115.365 20.1583 115.461C20.4463 115.546 20.6863 115.637 20.8783 115.733C21.0703 115.829 21.2089 115.903 21.2943 115.957L20.5743 117.973C20.2329 117.791 19.8329 117.637 19.3743 117.509C18.9263 117.381 18.4143 117.317 17.8383 117.317C17.4543 117.317 17.0756 117.381 16.7023 117.509C16.3396 117.637 16.0143 117.845 15.7263 118.133C15.4489 118.41 15.2249 118.773 15.0543 119.221C14.8836 119.669 14.7983 120.213 14.7983 120.853C14.7983 121.365 14.8516 121.845 14.9583 122.293C15.0756 122.73 15.2569 123.109 15.5023 123.429C15.7583 123.749 16.0889 124.005 16.4943 124.197C16.8996 124.378 17.3903 124.469 17.9663 124.469C18.3289 124.469 18.6543 124.447 18.9423 124.405C19.2303 124.362 19.4863 124.314 19.7103 124.261C19.9343 124.197 20.1316 124.127 20.3023 124.053C20.4729 123.978 20.6276 123.909 20.7663 123.845L21.4543 125.845C21.1023 126.058 20.6063 126.25 19.9663 126.421C19.3263 126.591 18.5849 126.677 17.7423 126.677ZM30.5858 122.229C30.5858 122.89 30.4898 123.498 30.2978 124.053C30.1058 124.597 29.8284 125.066 29.4658 125.461C29.1031 125.845 28.6658 126.143 28.1538 126.357C27.6524 126.57 27.0871 126.677 26.4578 126.677C25.8391 126.677 25.2738 126.57 24.7618 126.357C24.2604 126.143 23.8284 125.845 23.4658 125.461C23.1031 125.066 22.8204 124.597 22.6178 124.053C22.4151 123.498 22.3138 122.89 22.3138 122.229C22.3138 121.567 22.4151 120.965 22.6178 120.421C22.8311 119.877 23.1191 119.413 23.4818 119.029C23.8551 118.645 24.2924 118.346 24.7938 118.133C25.3058 117.919 25.8604 117.813 26.4578 117.813C27.0658 117.813 27.6204 117.919 28.1218 118.133C28.6338 118.346 29.0711 118.645 29.4338 119.029C29.7964 119.413 30.0791 119.877 30.2818 120.421C30.4844 120.965 30.5858 121.567 30.5858 122.229ZM28.1538 122.229C28.1538 121.493 28.0044 120.917 27.7058 120.501C27.4178 120.074 27.0018 119.861 26.4578 119.861C25.9138 119.861 25.4924 120.074 25.1938 120.501C24.8951 120.917 24.7458 121.493 24.7458 122.229C24.7458 122.965 24.8951 123.551 25.1938 123.989C25.4924 124.415 25.9138 124.629 26.4578 124.629C27.0018 124.629 27.4178 124.415 27.7058 123.989C28.0044 123.551 28.1538 122.965 28.1538 122.229ZM35.7925 126.613C35.0992 126.602 34.5338 126.527 34.0965 126.389C33.6698 126.25 33.3285 126.058 33.0725 125.813C32.8272 125.557 32.6565 125.253 32.5605 124.901C32.4752 124.538 32.4325 124.133 32.4325 123.685V114.421L34.8165 114.037V123.205C34.8165 123.418 34.8325 123.61 34.8645 123.781C34.8965 123.951 34.9552 124.095 35.0405 124.213C35.1365 124.33 35.2698 124.426 35.4405 124.501C35.6112 124.575 35.8405 124.623 36.1285 124.645L35.7925 126.613ZM39.879 126.453H37.495V118.037H39.879V126.453ZM40.103 115.605C40.103 116.042 39.959 116.389 39.671 116.645C39.3937 116.89 39.063 117.013 38.679 117.013C38.295 117.013 37.959 116.89 37.671 116.645C37.3937 116.389 37.255 116.042 37.255 115.605C37.255 115.167 37.3937 114.826 37.671 114.581C37.959 114.325 38.295 114.197 38.679 114.197C39.063 114.197 39.3937 114.325 39.671 114.581C39.959 114.826 40.103 115.167 40.103 115.605ZM44.536 124.741C44.9733 124.741 45.2827 124.698 45.464 124.613C45.6453 124.527 45.736 124.362 45.736 124.117C45.736 123.925 45.6187 123.759 45.384 123.621C45.1493 123.471 44.792 123.306 44.312 123.125C43.9387 122.986 43.5973 122.842 43.288 122.693C42.9893 122.543 42.7333 122.367 42.52 122.165C42.3067 121.951 42.1413 121.701 42.024 121.413C41.9067 121.125 41.848 120.778 41.848 120.373C41.848 119.583 42.1413 118.959 42.728 118.501C43.3147 118.042 44.12 117.813 45.144 117.813C45.656 117.813 46.1467 117.861 46.616 117.957C47.0853 118.042 47.4587 118.138 47.736 118.245L47.32 120.101C47.0427 120.005 46.7387 119.919 46.408 119.845C46.088 119.77 45.7253 119.733 45.32 119.733C44.5733 119.733 44.2 119.941 44.2 120.357C44.2 120.453 44.216 120.538 44.248 120.613C44.28 120.687 44.344 120.762 44.44 120.837C44.536 120.901 44.664 120.975 44.824 121.061C44.9947 121.135 45.208 121.221 45.464 121.317C45.9867 121.509 46.4187 121.701 46.76 121.893C47.1013 122.074 47.368 122.277 47.56 122.501C47.7627 122.714 47.9013 122.954 47.976 123.221C48.0613 123.487 48.104 123.797 48.104 124.149C48.104 124.981 47.7893 125.61 47.16 126.037C46.5413 126.463 45.6613 126.677 44.52 126.677C43.7733 126.677 43.1493 126.613 42.648 126.485C42.1573 126.357 41.816 126.25 41.624 126.165L42.024 124.229C42.4293 124.389 42.8453 124.517 43.272 124.613C43.6987 124.698 44.12 124.741 44.536 124.741ZM57.7576 122.229C57.7576 122.89 57.6616 123.498 57.4696 124.053C57.2776 124.597 57.0003 125.066 56.6376 125.461C56.275 125.845 55.8376 126.143 55.3256 126.357C54.8243 126.57 54.259 126.677 53.6296 126.677C53.011 126.677 52.4456 126.57 51.9336 126.357C51.4323 126.143 51.0003 125.845 50.6376 125.461C50.275 125.066 49.9923 124.597 49.7896 124.053C49.587 123.498 49.4856 122.89 49.4856 122.229C49.4856 121.567 49.587 120.965 49.7896 120.421C50.003 119.877 50.291 119.413 50.6536 119.029C51.027 118.645 51.4643 118.346 51.9656 118.133C52.4776 117.919 53.0323 117.813 53.6296 117.813C54.2376 117.813 54.7923 117.919 55.2936 118.133C55.8056 118.346 56.243 118.645 56.6056 119.029C56.9683 119.413 57.251 119.877 57.4536 120.421C57.6563 120.965 57.7576 121.567 57.7576 122.229ZM55.3256 122.229C55.3256 121.493 55.1763 120.917 54.8776 120.501C54.5896 120.074 54.1736 119.861 53.6296 119.861C53.0856 119.861 52.6643 120.074 52.3656 120.501C52.067 120.917 51.9176 121.493 51.9176 122.229C51.9176 122.965 52.067 123.551 52.3656 123.989C52.6643 124.415 53.0856 124.629 53.6296 124.629C54.1736 124.629 54.5896 124.415 54.8776 123.989C55.1763 123.551 55.3256 122.965 55.3256 122.229ZM56.5736 115.109C56.5096 115.269 56.419 115.445 56.3016 115.637C56.195 115.829 56.0616 116.01 55.9016 116.181C55.7416 116.341 55.5603 116.474 55.3576 116.581C55.155 116.687 54.931 116.741 54.6856 116.741C54.4936 116.741 54.3123 116.714 54.1416 116.661C53.9816 116.597 53.8216 116.533 53.6616 116.469C53.5016 116.394 53.3416 116.33 53.1816 116.277C53.0216 116.213 52.8563 116.181 52.6856 116.181C52.4723 116.181 52.2963 116.25 52.1576 116.389C52.019 116.527 51.907 116.687 51.8216 116.869L50.6536 116.101C50.7176 115.941 50.803 115.765 50.9096 115.573C51.027 115.381 51.1656 115.205 51.3256 115.045C51.4856 114.874 51.667 114.735 51.8696 114.629C52.0723 114.522 52.2963 114.469 52.5416 114.469C52.7336 114.469 52.9096 114.501 53.0696 114.565C53.2403 114.618 53.4056 114.682 53.5656 114.757C53.7256 114.821 53.8803 114.885 54.0296 114.949C54.1896 115.002 54.3603 115.029 54.5416 115.029C54.755 115.029 54.931 114.959 55.0696 114.821C55.2083 114.682 55.3203 114.522 55.4056 114.341L56.5736 115.109ZM59.2044 122.309C59.2044 121.562 59.3164 120.911 59.5404 120.357C59.775 119.791 60.079 119.322 60.4524 118.949C60.8257 118.575 61.2524 118.293 61.7324 118.101C62.223 117.909 62.7244 117.813 63.2364 117.813C64.431 117.813 65.375 118.181 66.0684 118.917C66.7617 119.642 67.1084 120.714 67.1084 122.133C67.1084 122.271 67.103 122.426 67.0924 122.597C67.0817 122.757 67.071 122.901 67.0604 123.029H61.6524C61.7057 123.519 61.935 123.909 62.3404 124.197C62.7457 124.485 63.2897 124.629 63.9724 124.629C64.4097 124.629 64.8364 124.591 65.2524 124.517C65.679 124.431 66.0257 124.33 66.2924 124.213L66.6124 126.149C66.4844 126.213 66.3137 126.277 66.1004 126.341C65.887 126.405 65.647 126.458 65.3804 126.501C65.1244 126.554 64.847 126.597 64.5484 126.629C64.2497 126.661 63.951 126.677 63.6524 126.677C62.895 126.677 62.2337 126.565 61.6684 126.341C61.1137 126.117 60.6497 125.813 60.2764 125.429C59.9137 125.034 59.6417 124.57 59.4604 124.037C59.2897 123.503 59.2044 122.927 59.2044 122.309ZM64.8044 121.397C64.7937 121.194 64.7564 120.997 64.6924 120.805C64.639 120.613 64.5484 120.442 64.4204 120.293C64.303 120.143 64.1484 120.021 63.9564 119.925C63.775 119.829 63.5457 119.781 63.2684 119.781C63.0017 119.781 62.7724 119.829 62.5804 119.925C62.3884 120.01 62.2284 120.127 62.1004 120.277C61.9724 120.426 61.871 120.602 61.7964 120.805C61.7324 120.997 61.6844 121.194 61.6524 121.397H64.8044ZM71.3641 124.741C71.8015 124.741 72.1108 124.698 72.2921 124.613C72.4735 124.527 72.5641 124.362 72.5641 124.117C72.5641 123.925 72.4468 123.759 72.2121 123.621C71.9775 123.471 71.6201 123.306 71.1401 123.125C70.7668 122.986 70.4255 122.842 70.1161 122.693C69.8175 122.543 69.5615 122.367 69.3481 122.165C69.1348 121.951 68.9695 121.701 68.8521 121.413C68.7348 121.125 68.6761 120.778 68.6761 120.373C68.6761 119.583 68.9695 118.959 69.5561 118.501C70.1428 118.042 70.9481 117.813 71.9721 117.813C72.4841 117.813 72.9748 117.861 73.4441 117.957C73.9135 118.042 74.2868 118.138 74.5641 118.245L74.1481 120.101C73.8708 120.005 73.5668 119.919 73.2361 119.845C72.9161 119.77 72.5535 119.733 72.1481 119.733C71.4015 119.733 71.0281 119.941 71.0281 120.357C71.0281 120.453 71.0441 120.538 71.0761 120.613C71.1081 120.687 71.1721 120.762 71.2681 120.837C71.3641 120.901 71.4921 120.975 71.6521 121.061C71.8228 121.135 72.0361 121.221 72.2921 121.317C72.8148 121.509 73.2468 121.701 73.5881 121.893C73.9295 122.074 74.1961 122.277 74.3881 122.501C74.5908 122.714 74.7295 122.954 74.8041 123.221C74.8895 123.487 74.9321 123.797 74.9321 124.149C74.9321 124.981 74.6175 125.61 73.9881 126.037C73.3695 126.463 72.4895 126.677 71.3481 126.677C70.6015 126.677 69.9775 126.613 69.4761 126.485C68.9855 126.357 68.6441 126.25 68.4521 126.165L68.8521 124.229C69.2575 124.389 69.6735 124.517 70.1001 124.613C70.5268 124.698 70.9481 124.741 71.3641 124.741Z" fill="#2F2F2F"/>
</svg>
