<svg width="138" height="144" viewBox="0 0 138 144" fill="none" xmlns="http://www.w3.org/2000/svg">
<circle cx="69.3259" cy="44.7786" r="40.4148" fill="#FFFE06"/>
<path d="M25 79.5212C25 59.6992 25 39.8772 25 20.0552C25.044 19.9562 25.121 19.8572 25.143 19.7582C26.232 14.4452 30.258 11.1232 35.659 11.1232C38.662 11.1232 41.676 11.1232 44.679 11.1232C44.976 11.1232 45.284 11.1232 45.647 11.1232C45.647 12.8942 45.647 14.5442 45.647 16.2272C48.243 16.2272 50.773 16.2272 53.358 16.2272C53.358 10.9362 53.358 5.70023 53.358 0.464233C63.786 0.464233 74.214 0.464233 84.642 0.464233C84.642 5.72223 84.642 10.9802 84.642 16.2382C87.271 16.2382 89.79 16.2382 92.386 16.2382C92.386 14.5222 92.386 12.8502 92.386 11.1232C95.939 11.1232 99.404 11.0792 102.858 11.1342C106.147 11.1892 108.798 12.5972 110.855 15.1602C112.01 16.6012 112.538 18.3172 112.989 20.0552C112.989 39.8772 112.989 59.6992 112.989 79.5212C112.934 79.7082 112.857 79.8842 112.813 80.0712C111.944 83.8992 109.689 86.5282 106.004 87.8922C105.377 88.1232 104.706 88.2662 104.057 88.4532C80.682 88.4532 57.307 88.4532 33.932 88.4532C33.745 88.3982 33.569 88.3212 33.382 88.2772C30.357 87.6172 27.948 86.0332 26.441 83.3162C25.792 82.1392 25.473 80.7862 25 79.5212ZM40.477 16.2712C38.783 16.2712 37.21 16.2712 35.637 16.2712C32.315 16.2822 30.159 18.4382 30.159 21.7712C30.159 40.4492 30.148 59.1272 30.159 77.7942C30.159 81.1052 32.337 83.2942 35.637 83.2942C57.868 83.2942 80.088 83.2942 102.319 83.2942C105.685 83.2942 107.841 81.1272 107.841 77.7502C107.841 73.8562 107.841 69.9622 107.841 66.0682C107.841 51.2622 107.841 36.4452 107.83 21.6392C107.83 18.8562 106.081 16.6342 103.43 16.3592C101.516 16.1612 99.558 16.3152 97.523 16.3152C97.523 18.0202 97.523 19.6922 97.523 21.3532C91.451 21.3532 85.489 21.3532 79.461 21.3532C79.461 19.6372 79.461 17.9872 79.461 16.3152C72.454 16.3152 65.513 16.3152 58.484 16.3152C58.484 18.0422 58.484 19.7142 58.484 21.3752C52.445 21.3752 46.494 21.3752 40.488 21.3752C40.477 19.6812 40.477 18.0312 40.477 16.2712ZM79.45 5.67823C72.421 5.67823 65.48 5.67823 58.561 5.67823C58.561 7.51523 58.561 9.27523 58.561 11.0572C65.546 11.0572 72.487 11.0572 79.45 11.0572C79.45 9.24223 79.45 7.47123 79.45 5.67823Z" fill="#00309E"/>
<path d="M35.373 26.6105C57.835 26.6105 80.22 26.6105 102.649 26.6105C102.649 43.7705 102.649 60.8865 102.649 78.0685C80.242 78.0685 57.835 78.0685 35.373 78.0685C35.373 60.9525 35.373 43.8145 35.373 26.6105ZM97.49 31.7915C78.46 31.7915 59.496 31.7915 40.543 31.7915C40.543 45.5415 40.543 59.2475 40.543 72.9425C59.562 72.9425 78.504 72.9425 97.49 72.9425C97.49 59.2255 97.49 45.5415 97.49 31.7915Z" fill="#00309E"/>
<path d="M76.7444 36.9505C76.7444 39.5135 76.7444 42.0325 76.7444 44.5955C79.3074 44.5955 81.8264 44.5955 84.4004 44.5955C84.4004 49.7655 84.4004 54.8695 84.4004 60.0615C81.8924 60.0615 79.3624 60.0615 76.7444 60.0615C76.7444 62.6795 76.7444 65.2095 76.7444 67.7835C71.5634 67.7835 66.4814 67.7835 61.3004 67.7835C61.3004 65.2755 61.3004 62.7455 61.3004 60.1275C58.6824 60.1275 56.1524 60.1275 53.5674 60.1275C53.5674 54.9355 53.5674 49.8205 53.5674 44.6615C56.0974 44.6615 58.6054 44.6615 61.2014 44.6615C61.2014 42.0765 61.2014 39.5465 61.2014 36.9505C66.4154 36.9505 71.5194 36.9505 76.7444 36.9505ZM58.7374 49.7875C58.7374 51.5585 58.7374 53.2085 58.7374 54.9575C61.3114 54.9575 63.8414 54.9575 66.4594 54.9575C66.4594 57.5865 66.4594 60.1055 66.4594 62.6355C68.2084 62.6355 69.8584 62.6355 71.5964 62.6355C71.5964 60.0615 71.5964 57.5315 71.5964 54.9135C74.2144 54.9135 76.7444 54.9135 79.2634 54.9135C79.2634 53.1755 79.2634 51.5255 79.2634 49.7765C76.6894 49.7765 74.1594 49.7765 71.5414 49.7765C71.5414 47.1475 71.5414 44.6285 71.5414 42.0985C69.7924 42.0985 68.1424 42.0985 66.4044 42.0985C66.4044 44.6725 66.4044 47.2025 66.4044 49.7875C63.8084 49.7875 61.3004 49.7875 58.7374 49.7875Z" fill="#00309E"/>
<path d="M8.83681 122.453C8.71948 122.069 8.58615 121.674 8.43681 121.269C8.29815 120.863 8.15948 120.458 8.02081 120.053H3.70081C3.56215 120.458 3.41815 120.863 3.26881 121.269C3.13015 121.674 3.00215 122.069 2.88481 122.453H0.292813C0.708813 121.258 1.10348 120.154 1.47681 119.141C1.85015 118.127 2.21281 117.173 2.56481 116.277C2.92748 115.381 3.27948 114.533 3.62081 113.733C3.97281 112.922 4.33548 112.133 4.70881 111.365H7.09281C7.45548 112.133 7.81281 112.922 8.16481 113.733C8.51681 114.533 8.86881 115.381 9.22081 116.277C9.58348 117.173 9.95148 118.127 10.3248 119.141C10.6981 120.154 11.0928 121.258 11.5088 122.453H8.83681ZM5.84481 113.877C5.79148 114.037 5.71148 114.255 5.60481 114.533C5.49815 114.81 5.37548 115.13 5.23681 115.493C5.09815 115.855 4.94348 116.255 4.77281 116.693C4.61281 117.13 4.44748 117.589 4.27681 118.069H7.42881C7.25815 117.589 7.09281 117.13 6.93281 116.693C6.77281 116.255 6.61815 115.855 6.46881 115.493C6.33015 115.13 6.20748 114.81 6.10081 114.533C5.99415 114.255 5.90881 114.037 5.84481 113.877ZM12.2122 118.245C12.2122 117.637 12.3082 117.066 12.5002 116.533C12.7029 115.989 12.9909 115.519 13.3642 115.125C13.7375 114.719 14.1909 114.399 14.7242 114.165C15.2575 113.93 15.8655 113.813 16.5482 113.813C16.9962 113.813 17.4069 113.855 17.7802 113.941C18.1535 114.015 18.5162 114.127 18.8682 114.277L18.3722 116.181C18.1482 116.095 17.9029 116.021 17.6362 115.957C17.3695 115.893 17.0709 115.861 16.7402 115.861C16.0362 115.861 15.5082 116.079 15.1562 116.517C14.8149 116.954 14.6442 117.53 14.6442 118.245C14.6442 119.002 14.8042 119.589 15.1242 120.005C15.4549 120.421 16.0255 120.629 16.8362 120.629C17.1242 120.629 17.4335 120.602 17.7642 120.549C18.0949 120.495 18.3989 120.41 18.6762 120.293L19.0122 122.245C18.7349 122.362 18.3882 122.463 17.9722 122.549C17.5562 122.634 17.0975 122.677 16.5962 122.677C15.8282 122.677 15.1669 122.565 14.6122 122.341C14.0575 122.106 13.5989 121.791 13.2362 121.397C12.8842 121.002 12.6229 120.538 12.4522 120.005C12.2922 119.461 12.2122 118.874 12.2122 118.245ZM28.0779 118.229C28.0779 118.89 27.9819 119.498 27.7899 120.053C27.5979 120.597 27.3206 121.066 26.9579 121.461C26.5953 121.845 26.1579 122.143 25.6459 122.357C25.1446 122.57 24.5793 122.677 23.9499 122.677C23.3313 122.677 22.7659 122.57 22.2539 122.357C21.7526 122.143 21.3206 121.845 20.9579 121.461C20.5953 121.066 20.3126 120.597 20.1099 120.053C19.9073 119.498 19.8059 118.89 19.8059 118.229C19.8059 117.567 19.9073 116.965 20.1099 116.421C20.3233 115.877 20.6113 115.413 20.9739 115.029C21.3473 114.645 21.7846 114.346 22.2859 114.133C22.7979 113.919 23.3526 113.813 23.9499 113.813C24.5579 113.813 25.1126 113.919 25.6139 114.133C26.1259 114.346 26.5633 114.645 26.9259 115.029C27.2886 115.413 27.5713 115.877 27.7739 116.421C27.9766 116.965 28.0779 117.567 28.0779 118.229ZM25.6459 118.229C25.6459 117.493 25.4966 116.917 25.1979 116.501C24.9099 116.074 24.4939 115.861 23.9499 115.861C23.4059 115.861 22.9846 116.074 22.6859 116.501C22.3873 116.917 22.2379 117.493 22.2379 118.229C22.2379 118.965 22.3873 119.551 22.6859 119.989C22.9846 120.415 23.4059 120.629 23.9499 120.629C24.4939 120.629 24.9099 120.415 25.1979 119.989C25.4966 119.551 25.6459 118.965 25.6459 118.229ZM34.5487 117.989C34.5487 117.221 34.4474 116.677 34.2447 116.357C34.0527 116.037 33.7167 115.877 33.2367 115.877C33.0874 115.877 32.9327 115.887 32.7727 115.909C32.6127 115.919 32.458 115.935 32.3087 115.957V122.453H29.9247V114.325C30.1274 114.271 30.362 114.218 30.6287 114.165C30.906 114.101 31.194 114.047 31.4927 114.005C31.802 113.951 32.1167 113.914 32.4367 113.893C32.7567 113.861 33.0714 113.845 33.3807 113.845C33.9887 113.845 34.4794 113.925 34.8527 114.085C35.2367 114.234 35.5514 114.415 35.7967 114.629C36.138 114.383 36.5274 114.191 36.9647 114.053C37.4127 113.914 37.8234 113.845 38.1967 113.845C38.8687 113.845 39.418 113.941 39.8447 114.133C40.282 114.314 40.6287 114.575 40.8847 114.917C41.1407 115.258 41.3167 115.663 41.4127 116.133C41.5087 116.602 41.5567 117.125 41.5567 117.701V122.453H39.1727V117.989C39.1727 117.221 39.0714 116.677 38.8687 116.357C38.6767 116.037 38.3407 115.877 37.8607 115.877C37.7327 115.877 37.5514 115.909 37.3167 115.973C37.0927 116.037 36.906 116.117 36.7567 116.213C36.8314 116.458 36.8794 116.719 36.9007 116.997C36.922 117.263 36.9327 117.551 36.9327 117.861V122.453H34.5487V117.989ZM49.1136 118.309C49.1136 117.573 48.9482 116.986 48.6176 116.549C48.2869 116.101 47.7962 115.877 47.1456 115.877C46.9322 115.877 46.7349 115.887 46.5536 115.909C46.3722 115.919 46.2229 115.935 46.1056 115.957V120.261C46.2549 120.357 46.4469 120.437 46.6816 120.501C46.9269 120.565 47.1722 120.597 47.4176 120.597C48.5482 120.597 49.1136 119.834 49.1136 118.309ZM51.5456 118.245C51.5456 118.895 51.4656 119.487 51.3056 120.021C51.1456 120.554 50.9109 121.013 50.6016 121.397C50.2922 121.781 49.9082 122.079 49.4496 122.293C48.9909 122.506 48.4629 122.613 47.8656 122.613C47.5349 122.613 47.2256 122.581 46.9376 122.517C46.6496 122.453 46.3722 122.362 46.1056 122.245V125.413H43.7216V114.325C43.9349 114.261 44.1802 114.202 44.4576 114.149C44.7349 114.085 45.0229 114.031 45.3216 113.989C45.6309 113.946 45.9402 113.914 46.2496 113.893C46.5696 113.861 46.8736 113.845 47.1616 113.845C47.8549 113.845 48.4736 113.951 49.0176 114.165C49.5616 114.367 50.0202 114.661 50.3936 115.045C50.7669 115.418 51.0496 115.877 51.2416 116.421C51.4442 116.965 51.5456 117.573 51.5456 118.245ZM56.5938 120.789C56.8285 120.789 57.0525 120.783 57.2658 120.773C57.4791 120.762 57.6498 120.746 57.7778 120.725V118.917C57.6818 118.895 57.5378 118.874 57.3458 118.853C57.1538 118.831 56.9778 118.821 56.8178 118.821C56.5938 118.821 56.3805 118.837 56.1778 118.869C55.9858 118.89 55.8151 118.938 55.6658 119.013C55.5165 119.087 55.3991 119.189 55.3138 119.317C55.2285 119.445 55.1858 119.605 55.1858 119.797C55.1858 120.17 55.3085 120.431 55.5538 120.581C55.8098 120.719 56.1565 120.789 56.5938 120.789ZM56.4018 113.813C57.1058 113.813 57.6925 113.893 58.1618 114.053C58.6311 114.213 59.0045 114.442 59.2818 114.741C59.5698 115.039 59.7725 115.402 59.8898 115.829C60.0071 116.255 60.0658 116.73 60.0658 117.253V122.213C59.7245 122.287 59.2498 122.373 58.6418 122.469C58.0338 122.575 57.2978 122.629 56.4338 122.629C55.8898 122.629 55.3938 122.581 54.9458 122.485C54.5085 122.389 54.1298 122.234 53.8098 122.021C53.4898 121.797 53.2445 121.509 53.0738 121.157C52.9031 120.805 52.8178 120.373 52.8178 119.861C52.8178 119.37 52.9138 118.954 53.1058 118.613C53.3085 118.271 53.5751 117.999 53.9058 117.797C54.2365 117.594 54.6151 117.45 55.0418 117.365C55.4685 117.269 55.9111 117.221 56.3698 117.221C56.6791 117.221 56.9511 117.237 57.1858 117.269C57.4311 117.29 57.6285 117.322 57.7778 117.365V117.141C57.7778 116.735 57.6551 116.41 57.4098 116.165C57.1645 115.919 56.7378 115.797 56.1298 115.797C55.7245 115.797 55.3245 115.829 54.9298 115.893C54.5351 115.946 54.1938 116.026 53.9058 116.133L53.6018 114.213C53.7405 114.17 53.9111 114.127 54.1138 114.085C54.3271 114.031 54.5565 113.989 54.8018 113.957C55.0471 113.914 55.3031 113.882 55.5698 113.861C55.8471 113.829 56.1245 113.813 56.4018 113.813ZM62.2216 114.325C62.6269 114.207 63.1496 114.101 63.7896 114.005C64.4296 113.898 65.1016 113.845 65.8056 113.845C66.5202 113.845 67.1122 113.941 67.5816 114.133C68.0616 114.314 68.4402 114.575 68.7176 114.917C68.9949 115.258 69.1922 115.663 69.3096 116.133C69.4269 116.602 69.4856 117.125 69.4856 117.701V122.453H67.1016V117.989C67.1016 117.221 67.0002 116.677 66.7976 116.357C66.5949 116.037 66.2162 115.877 65.6616 115.877C65.4909 115.877 65.3096 115.887 65.1176 115.909C64.9256 115.919 64.7549 115.935 64.6056 115.957V122.453H62.2216V114.325ZM71.6434 122.453V110.421L74.0274 110.037V114.069C74.1874 114.015 74.3901 113.967 74.6354 113.925C74.8914 113.871 75.1368 113.845 75.3714 113.845C76.0541 113.845 76.6194 113.941 77.0674 114.133C77.5261 114.314 77.8888 114.575 78.1554 114.917C78.4328 115.258 78.6248 115.663 78.7314 116.133C78.8488 116.602 78.9074 117.125 78.9074 117.701V122.453H76.5234V117.989C76.5234 117.221 76.4221 116.677 76.2194 116.357C76.0274 116.037 75.6648 115.877 75.1314 115.877C74.9181 115.877 74.7154 115.898 74.5234 115.941C74.3421 115.973 74.1768 116.01 74.0274 116.053V122.453H71.6434ZM84.2813 120.789C84.516 120.789 84.74 120.783 84.9533 120.773C85.1666 120.762 85.3373 120.746 85.4653 120.725V118.917C85.3693 118.895 85.2253 118.874 85.0333 118.853C84.8413 118.831 84.6653 118.821 84.5053 118.821C84.2813 118.821 84.068 118.837 83.8653 118.869C83.6733 118.89 83.5026 118.938 83.3533 119.013C83.204 119.087 83.0866 119.189 83.0013 119.317C82.916 119.445 82.8733 119.605 82.8733 119.797C82.8733 120.17 82.996 120.431 83.2413 120.581C83.4973 120.719 83.844 120.789 84.2813 120.789ZM84.0893 113.813C84.7933 113.813 85.38 113.893 85.8493 114.053C86.3186 114.213 86.692 114.442 86.9693 114.741C87.2573 115.039 87.46 115.402 87.5773 115.829C87.6946 116.255 87.7533 116.73 87.7533 117.253V122.213C87.412 122.287 86.9373 122.373 86.3293 122.469C85.7213 122.575 84.9853 122.629 84.1213 122.629C83.5773 122.629 83.0813 122.581 82.6333 122.485C82.196 122.389 81.8173 122.234 81.4973 122.021C81.1773 121.797 80.932 121.509 80.7613 121.157C80.5906 120.805 80.5053 120.373 80.5053 119.861C80.5053 119.37 80.6013 118.954 80.7933 118.613C80.996 118.271 81.2626 117.999 81.5933 117.797C81.924 117.594 82.3026 117.45 82.7293 117.365C83.156 117.269 83.5986 117.221 84.0573 117.221C84.3666 117.221 84.6386 117.237 84.8733 117.269C85.1186 117.29 85.316 117.322 85.4653 117.365V117.141C85.4653 116.735 85.3426 116.41 85.0973 116.165C84.852 115.919 84.4253 115.797 83.8173 115.797C83.412 115.797 83.012 115.829 82.6173 115.893C82.2226 115.946 81.8813 116.026 81.5933 116.133L81.2893 114.213C81.428 114.17 81.5986 114.127 81.8013 114.085C82.0146 114.031 82.244 113.989 82.4893 113.957C82.7346 113.914 82.9906 113.882 83.2573 113.861C83.5346 113.829 83.812 113.813 84.0893 113.813ZM94.5331 117.989C94.5331 117.221 94.4317 116.677 94.2291 116.357C94.0371 116.037 93.7011 115.877 93.2211 115.877C93.0717 115.877 92.9171 115.887 92.7571 115.909C92.5971 115.919 92.4424 115.935 92.2931 115.957V122.453H89.9091V114.325C90.1117 114.271 90.3464 114.218 90.6131 114.165C90.8904 114.101 91.1784 114.047 91.4771 114.005C91.7864 113.951 92.1011 113.914 92.4211 113.893C92.7411 113.861 93.0557 113.845 93.3651 113.845C93.9731 113.845 94.4637 113.925 94.8371 114.085C95.2211 114.234 95.5357 114.415 95.7811 114.629C96.1224 114.383 96.5117 114.191 96.9491 114.053C97.3971 113.914 97.8077 113.845 98.1811 113.845C98.8531 113.845 99.4024 113.941 99.8291 114.133C100.266 114.314 100.613 114.575 100.869 114.917C101.125 115.258 101.301 115.663 101.397 116.133C101.493 116.602 101.541 117.125 101.541 117.701V122.453H99.1571V117.989C99.1571 117.221 99.0557 116.677 98.8531 116.357C98.6611 116.037 98.3251 115.877 97.8451 115.877C97.7171 115.877 97.5357 115.909 97.3011 115.973C97.0771 116.037 96.8904 116.117 96.7411 116.213C96.8157 116.458 96.8637 116.719 96.8851 116.997C96.9064 117.263 96.9171 117.551 96.9171 117.861V122.453H94.5331V117.989ZM103.306 118.309C103.306 117.562 103.418 116.911 103.642 116.357C103.877 115.791 104.181 115.322 104.554 114.949C104.927 114.575 105.354 114.293 105.834 114.101C106.325 113.909 106.826 113.813 107.338 113.813C108.533 113.813 109.477 114.181 110.17 114.917C110.863 115.642 111.21 116.714 111.21 118.133C111.21 118.271 111.205 118.426 111.194 118.597C111.183 118.757 111.173 118.901 111.162 119.029H105.754C105.807 119.519 106.037 119.909 106.442 120.197C106.847 120.485 107.391 120.629 108.074 120.629C108.511 120.629 108.938 120.591 109.354 120.517C109.781 120.431 110.127 120.33 110.394 120.213L110.714 122.149C110.586 122.213 110.415 122.277 110.202 122.341C109.989 122.405 109.749 122.458 109.482 122.501C109.226 122.554 108.949 122.597 108.65 122.629C108.351 122.661 108.053 122.677 107.754 122.677C106.997 122.677 106.335 122.565 105.77 122.341C105.215 122.117 104.751 121.813 104.378 121.429C104.015 121.034 103.743 120.57 103.562 120.037C103.391 119.503 103.306 118.927 103.306 118.309ZM108.906 117.397C108.895 117.194 108.858 116.997 108.794 116.805C108.741 116.613 108.65 116.442 108.522 116.293C108.405 116.143 108.25 116.021 108.058 115.925C107.877 115.829 107.647 115.781 107.37 115.781C107.103 115.781 106.874 115.829 106.682 115.925C106.49 116.01 106.33 116.127 106.202 116.277C106.074 116.426 105.973 116.602 105.898 116.805C105.834 116.997 105.786 117.194 105.754 117.397H108.906ZM113.05 114.325C113.455 114.207 113.978 114.101 114.618 114.005C115.258 113.898 115.93 113.845 116.634 113.845C117.348 113.845 117.94 113.941 118.41 114.133C118.89 114.314 119.268 114.575 119.546 114.917C119.823 115.258 120.02 115.663 120.138 116.133C120.255 116.602 120.314 117.125 120.314 117.701V122.453H117.93V117.989C117.93 117.221 117.828 116.677 117.626 116.357C117.423 116.037 117.044 115.877 116.49 115.877C116.319 115.877 116.138 115.887 115.946 115.909C115.754 115.919 115.583 115.935 115.434 115.957V122.453H113.05V114.325ZM122.392 111.941L124.776 111.557V114.037H127.64V116.021H124.776V118.981C124.776 119.482 124.861 119.882 125.032 120.181C125.213 120.479 125.57 120.629 126.104 120.629C126.36 120.629 126.621 120.607 126.888 120.565C127.165 120.511 127.416 120.442 127.64 120.357L127.976 122.213C127.688 122.33 127.368 122.431 127.016 122.517C126.664 122.602 126.232 122.645 125.72 122.645C125.069 122.645 124.53 122.559 124.104 122.389C123.677 122.207 123.336 121.962 123.08 121.653C122.824 121.333 122.642 120.949 122.536 120.501C122.44 120.053 122.392 119.557 122.392 119.013V111.941ZM137.14 118.229C137.14 118.89 137.044 119.498 136.852 120.053C136.66 120.597 136.383 121.066 136.02 121.461C135.658 121.845 135.22 122.143 134.708 122.357C134.207 122.57 133.642 122.677 133.012 122.677C132.394 122.677 131.828 122.57 131.316 122.357C130.815 122.143 130.383 121.845 130.02 121.461C129.658 121.066 129.375 120.597 129.172 120.053C128.97 119.498 128.868 118.89 128.868 118.229C128.868 117.567 128.97 116.965 129.172 116.421C129.386 115.877 129.674 115.413 130.036 115.029C130.41 114.645 130.847 114.346 131.348 114.133C131.86 113.919 132.415 113.813 133.012 113.813C133.62 113.813 134.175 113.919 134.676 114.133C135.188 114.346 135.626 114.645 135.988 115.029C136.351 115.413 136.634 115.877 136.836 116.421C137.039 116.965 137.14 117.567 137.14 118.229ZM134.708 118.229C134.708 117.493 134.559 116.917 134.26 116.501C133.972 116.074 133.556 115.861 133.012 115.861C132.468 115.861 132.047 116.074 131.748 116.501C131.45 116.917 131.3 117.493 131.3 118.229C131.3 118.965 131.45 119.551 131.748 119.989C132.047 120.415 132.468 120.629 133.012 120.629C133.556 120.629 133.972 120.415 134.26 119.989C134.559 119.551 134.708 118.965 134.708 118.229ZM36.9446 129.365H39.4406V140.453H36.9446V135.749H32.7526V140.453H30.2566V129.365H32.7526V133.605H36.9446V129.365ZM49.7186 136.229C49.7186 136.89 49.6226 137.498 49.4306 138.053C49.2386 138.597 48.9612 139.066 48.5986 139.461C48.2359 139.845 47.7986 140.143 47.2866 140.357C46.7852 140.57 46.2199 140.677 45.5906 140.677C44.9719 140.677 44.4066 140.57 43.8946 140.357C43.3932 140.143 42.9612 139.845 42.5986 139.461C42.2359 139.066 41.9532 138.597 41.7506 138.053C41.5479 137.498 41.4466 136.89 41.4466 136.229C41.4466 135.567 41.5479 134.965 41.7506 134.421C41.9639 133.877 42.2519 133.413 42.6146 133.029C42.9879 132.645 43.4252 132.346 43.9266 132.133C44.4386 131.919 44.9932 131.813 45.5906 131.813C46.1986 131.813 46.7532 131.919 47.2546 132.133C47.7666 132.346 48.2039 132.645 48.5666 133.029C48.9292 133.413 49.2119 133.877 49.4146 134.421C49.6172 134.965 49.7186 135.567 49.7186 136.229ZM47.2866 136.229C47.2866 135.493 47.1372 134.917 46.8386 134.501C46.5506 134.074 46.1346 133.861 45.5906 133.861C45.0466 133.861 44.6252 134.074 44.3266 134.501C44.0279 134.917 43.8786 135.493 43.8786 136.229C43.8786 136.965 44.0279 137.551 44.3266 137.989C44.6252 138.415 45.0466 138.629 45.5906 138.629C46.1346 138.629 46.5506 138.415 46.8386 137.989C47.1372 137.551 47.2866 136.965 47.2866 136.229ZM53.9813 138.741C54.4186 138.741 54.728 138.698 54.9093 138.613C55.0906 138.527 55.1813 138.362 55.1813 138.117C55.1813 137.925 55.064 137.759 54.8293 137.621C54.5946 137.471 54.2373 137.306 53.7573 137.125C53.384 136.986 53.0426 136.842 52.7333 136.693C52.4346 136.543 52.1786 136.367 51.9653 136.165C51.752 135.951 51.5866 135.701 51.4693 135.413C51.352 135.125 51.2933 134.778 51.2933 134.373C51.2933 133.583 51.5866 132.959 52.1733 132.501C52.76 132.042 53.5653 131.813 54.5893 131.813C55.1013 131.813 55.592 131.861 56.0613 131.957C56.5306 132.042 56.904 132.138 57.1813 132.245L56.7653 134.101C56.488 134.005 56.184 133.919 55.8533 133.845C55.5333 133.77 55.1706 133.733 54.7653 133.733C54.0186 133.733 53.6453 133.941 53.6453 134.357C53.6453 134.453 53.6613 134.538 53.6933 134.613C53.7253 134.687 53.7893 134.762 53.8853 134.837C53.9813 134.901 54.1093 134.975 54.2693 135.061C54.44 135.135 54.6533 135.221 54.9093 135.317C55.432 135.509 55.864 135.701 56.2053 135.893C56.5466 136.074 56.8133 136.277 57.0053 136.501C57.208 136.714 57.3466 136.954 57.4213 137.221C57.5066 137.487 57.5493 137.797 57.5493 138.149C57.5493 138.981 57.2346 139.61 56.6053 140.037C55.9866 140.463 55.1066 140.677 53.9653 140.677C53.2186 140.677 52.5946 140.613 52.0933 140.485C51.6026 140.357 51.2613 140.25 51.0693 140.165L51.4693 138.229C51.8746 138.389 52.2906 138.517 52.7173 138.613C53.144 138.698 53.5653 138.741 53.9813 138.741ZM64.7229 136.309C64.7229 135.573 64.5576 134.986 64.2269 134.549C63.8963 134.101 63.4056 133.877 62.7549 133.877C62.5416 133.877 62.3443 133.887 62.1629 133.909C61.9816 133.919 61.8323 133.935 61.7149 133.957V138.261C61.8643 138.357 62.0563 138.437 62.2909 138.501C62.5363 138.565 62.7816 138.597 63.0269 138.597C64.1576 138.597 64.7229 137.834 64.7229 136.309ZM67.1549 136.245C67.1549 136.895 67.0749 137.487 66.9149 138.021C66.7549 138.554 66.5203 139.013 66.2109 139.397C65.9016 139.781 65.5176 140.079 65.0589 140.293C64.6003 140.506 64.0723 140.613 63.4749 140.613C63.1443 140.613 62.8349 140.581 62.5469 140.517C62.2589 140.453 61.9816 140.362 61.7149 140.245V143.413H59.3309V132.325C59.5443 132.261 59.7896 132.202 60.0669 132.149C60.3443 132.085 60.6323 132.031 60.9309 131.989C61.2403 131.946 61.5496 131.914 61.8589 131.893C62.1789 131.861 62.4829 131.845 62.7709 131.845C63.4643 131.845 64.0829 131.951 64.6269 132.165C65.1709 132.367 65.6296 132.661 66.0029 133.045C66.3763 133.418 66.6589 133.877 66.8509 134.421C67.0536 134.965 67.1549 135.573 67.1549 136.245ZM71.3712 140.453H68.9872V132.037H71.3712V140.453ZM71.5952 129.605C71.5952 130.042 71.4512 130.389 71.1632 130.645C70.8859 130.89 70.5552 131.013 70.1712 131.013C69.7872 131.013 69.4512 130.89 69.1632 130.645C68.8859 130.389 68.7472 130.042 68.7472 129.605C68.7472 129.167 68.8859 128.826 69.1632 128.581C69.4512 128.325 69.7872 128.197 70.1712 128.197C70.5552 128.197 70.8859 128.325 71.1632 128.581C71.4512 128.826 71.5952 129.167 71.5952 129.605ZM73.5322 129.941L75.9162 129.557V132.037H78.7802V134.021H75.9162V136.981C75.9162 137.482 76.0015 137.882 76.1722 138.181C76.3535 138.479 76.7109 138.629 77.2442 138.629C77.5002 138.629 77.7615 138.607 78.0282 138.565C78.3055 138.511 78.5562 138.442 78.7802 138.357L79.1162 140.213C78.8282 140.33 78.5082 140.431 78.1562 140.517C77.8042 140.602 77.3722 140.645 76.8602 140.645C76.2095 140.645 75.6709 140.559 75.2442 140.389C74.8175 140.207 74.4762 139.962 74.2202 139.653C73.9642 139.333 73.7829 138.949 73.6762 138.501C73.5802 138.053 73.5322 137.557 73.5322 137.013V129.941ZM83.6251 138.789C83.8597 138.789 84.0837 138.783 84.2971 138.773C84.5104 138.762 84.6811 138.746 84.8091 138.725V136.917C84.7131 136.895 84.5691 136.874 84.3771 136.853C84.1851 136.831 84.0091 136.821 83.8491 136.821C83.6251 136.821 83.4117 136.837 83.2091 136.869C83.0171 136.89 82.8464 136.938 82.6971 137.013C82.5477 137.087 82.4304 137.189 82.3451 137.317C82.2597 137.445 82.2171 137.605 82.2171 137.797C82.2171 138.17 82.3397 138.431 82.5851 138.581C82.8411 138.719 83.1877 138.789 83.6251 138.789ZM83.4331 131.813C84.1371 131.813 84.7237 131.893 85.1931 132.053C85.6624 132.213 86.0357 132.442 86.3131 132.741C86.6011 133.039 86.8037 133.402 86.9211 133.829C87.0384 134.255 87.0971 134.73 87.0971 135.253V140.213C86.7557 140.287 86.2811 140.373 85.6731 140.469C85.0651 140.575 84.3291 140.629 83.4651 140.629C82.9211 140.629 82.4251 140.581 81.9771 140.485C81.5397 140.389 81.1611 140.234 80.8411 140.021C80.5211 139.797 80.2757 139.509 80.1051 139.157C79.9344 138.805 79.8491 138.373 79.8491 137.861C79.8491 137.37 79.9451 136.954 80.1371 136.613C80.3397 136.271 80.6064 135.999 80.9371 135.797C81.2677 135.594 81.6464 135.45 82.0731 135.365C82.4997 135.269 82.9424 135.221 83.4011 135.221C83.7104 135.221 83.9824 135.237 84.2171 135.269C84.4624 135.29 84.6597 135.322 84.8091 135.365V135.141C84.8091 134.735 84.6864 134.41 84.4411 134.165C84.1957 133.919 83.7691 133.797 83.1611 133.797C82.7557 133.797 82.3557 133.829 81.9611 133.893C81.5664 133.946 81.2251 134.026 80.9371 134.133L80.6331 132.213C80.7717 132.17 80.9424 132.127 81.1451 132.085C81.3584 132.031 81.5877 131.989 81.8331 131.957C82.0784 131.914 82.3344 131.882 82.6011 131.861C82.8784 131.829 83.1557 131.813 83.4331 131.813ZM92.6128 140.613C91.9195 140.602 91.3541 140.527 90.9168 140.389C90.4901 140.25 90.1488 140.058 89.8928 139.813C89.6475 139.557 89.4768 139.253 89.3808 138.901C89.2955 138.538 89.2528 138.133 89.2528 137.685V128.421L91.6368 128.037V137.205C91.6368 137.418 91.6528 137.61 91.6848 137.781C91.7168 137.951 91.7755 138.095 91.8608 138.213C91.9568 138.33 92.0901 138.426 92.2608 138.501C92.4315 138.575 92.6608 138.623 92.9488 138.645L92.6128 140.613ZM97.7657 138.789C98.0004 138.789 98.2244 138.783 98.4377 138.773C98.651 138.762 98.8217 138.746 98.9497 138.725V136.917C98.8537 136.895 98.7097 136.874 98.5177 136.853C98.3257 136.831 98.1497 136.821 97.9897 136.821C97.7657 136.821 97.5524 136.837 97.3497 136.869C97.1577 136.89 96.987 136.938 96.8377 137.013C96.6884 137.087 96.571 137.189 96.4857 137.317C96.4004 137.445 96.3577 137.605 96.3577 137.797C96.3577 138.17 96.4804 138.431 96.7257 138.581C96.9817 138.719 97.3284 138.789 97.7657 138.789ZM97.5737 131.813C98.2777 131.813 98.8644 131.893 99.3337 132.053C99.803 132.213 100.176 132.442 100.454 132.741C100.742 133.039 100.944 133.402 101.062 133.829C101.179 134.255 101.238 134.73 101.238 135.253V140.213C100.896 140.287 100.422 140.373 99.8137 140.469C99.2057 140.575 98.4697 140.629 97.6057 140.629C97.0617 140.629 96.5657 140.581 96.1177 140.485C95.6804 140.389 95.3017 140.234 94.9817 140.021C94.6617 139.797 94.4164 139.509 94.2457 139.157C94.075 138.805 93.9897 138.373 93.9897 137.861C93.9897 137.37 94.0857 136.954 94.2777 136.613C94.4804 136.271 94.747 135.999 95.0777 135.797C95.4084 135.594 95.787 135.45 96.2137 135.365C96.6404 135.269 97.083 135.221 97.5417 135.221C97.851 135.221 98.123 135.237 98.3577 135.269C98.603 135.29 98.8004 135.322 98.9497 135.365V135.141C98.9497 134.735 98.827 134.41 98.5817 134.165C98.3364 133.919 97.9097 133.797 97.3017 133.797C96.8964 133.797 96.4964 133.829 96.1017 133.893C95.707 133.946 95.3657 134.026 95.0777 134.133L94.7737 132.213C94.9124 132.17 95.083 132.127 95.2857 132.085C95.499 132.031 95.7284 131.989 95.9737 131.957C96.219 131.914 96.475 131.882 96.7417 131.861C97.019 131.829 97.2964 131.813 97.5737 131.813ZM108.465 134.149C108.252 134.095 108.001 134.042 107.713 133.989C107.425 133.925 107.116 133.893 106.785 133.893C106.636 133.893 106.455 133.909 106.241 133.941C106.039 133.962 105.884 133.989 105.777 134.021V140.453H103.393V132.485C103.82 132.335 104.321 132.197 104.897 132.069C105.484 131.93 106.135 131.861 106.849 131.861C106.977 131.861 107.132 131.871 107.313 131.893C107.495 131.903 107.676 131.925 107.857 131.957C108.039 131.978 108.22 132.01 108.401 132.053C108.583 132.085 108.737 132.127 108.865 132.181L108.465 134.149Z" fill="#2F2F2F"/>
</svg>
