<svg width="370" height="370" viewBox="0 0 370 370" fill="none" xmlns="http://www.w3.org/2000/svg">
<circle cx="85.4171" cy="7.37179" r="5.9736" transform="rotate(15.7637 85.4171 7.37179)" fill="#FFFE06"/>
<circle cx="72.4093" cy="53.4509" r="5.9736" transform="rotate(15.7637 72.4093 53.4509)" fill="#FFFE06"/>
<circle cx="59.4025" cy="99.5302" r="5.9736" transform="rotate(15.7637 59.4025 99.5302)" fill="#FFFE06"/>
<circle cx="46.3946" cy="145.609" r="5.9736" transform="rotate(15.7637 46.3946 145.609)" fill="#FFFE06"/>
<circle cx="33.3868" cy="191.688" r="5.9736" transform="rotate(15.7637 33.3868 191.688)" fill="#FFFE06"/>
<circle cx="20.379" cy="237.768" r="5.9736" transform="rotate(15.7637 20.379 237.768)" fill="#FFFE06"/>
<circle cx="7.37218" cy="283.846" r="5.9736" transform="rotate(15.7637 7.37218 283.846)" fill="#FFFE06"/>
<circle cx="131.496" cy="20.3794" r="5.9736" transform="rotate(15.7637 131.496 20.3794)" fill="#FFFE06"/>
<circle cx="118.489" cy="66.4585" r="5.9736" transform="rotate(15.7637 118.489 66.4585)" fill="#FFFE06"/>
<circle cx="105.482" cy="112.538" r="5.9736" transform="rotate(15.7637 105.482 112.538)" fill="#FFFE06"/>
<circle cx="92.4737" cy="158.616" r="5.9736" transform="rotate(15.7637 92.4737 158.616)" fill="#FFFE06"/>
<circle cx="79.4659" cy="204.696" r="5.9736" transform="rotate(15.7637 79.4659 204.696)" fill="#FFFE06"/>
<circle cx="66.4581" cy="250.775" r="5.9736" transform="rotate(15.7637 66.4581 250.775)" fill="#FFFE06"/>
<circle cx="53.4513" cy="296.854" r="5.9736" transform="rotate(15.7637 53.4513 296.854)" fill="#FFFE06"/>
<circle cx="177.575" cy="33.3867" r="5.9736" transform="rotate(15.7637 177.575 33.3867)" fill="#FFFE06"/>
<circle cx="164.568" cy="79.466" r="5.9736" transform="rotate(15.7637 164.568 79.466)" fill="#FFFE06"/>
<circle cx="151.561" cy="125.545" r="5.9736" transform="rotate(15.7637 151.561 125.545)" fill="#FFFE06"/>
<circle cx="138.553" cy="171.624" r="5.9736" transform="rotate(15.7637 138.553 171.624)" fill="#FFFE06"/>
<circle cx="125.545" cy="217.704" r="5.9736" transform="rotate(15.7637 125.545 217.704)" fill="#FFFE06"/>
<circle cx="112.537" cy="263.782" r="5.9736" transform="rotate(15.7637 112.537 263.782)" fill="#FFFE06"/>
<circle cx="99.5304" cy="309.861" r="5.9736" transform="rotate(15.7637 99.5304 309.861)" fill="#FFFE06"/>
<circle cx="223.655" cy="46.3945" r="5.9736" transform="rotate(15.7637 223.655 46.3945)" fill="#FFFE06"/>
<circle cx="210.647" cy="92.4734" r="5.9736" transform="rotate(15.7637 210.647 92.4734)" fill="#FFFE06"/>
<circle cx="197.64" cy="138.553" r="5.9736" transform="rotate(15.7637 197.64 138.553)" fill="#FFFE06"/>
<circle cx="184.632" cy="184.632" r="5.9736" transform="rotate(15.7637 184.632 184.632)" fill="#FFFE06"/>
<circle cx="171.624" cy="230.711" r="5.9736" transform="rotate(15.7637 171.624 230.711)" fill="#FFFE06"/>
<circle cx="158.617" cy="276.79" r="5.9736" transform="rotate(15.7637 158.617 276.79)" fill="#FFFE06"/>
<circle cx="145.609" cy="322.869" r="5.9736" transform="rotate(15.7637 145.609 322.869)" fill="#FFFE06"/>
<circle cx="269.733" cy="59.4021" r="5.9736" transform="rotate(15.7637 269.733 59.4021)" fill="#FFFE06"/>
<circle cx="256.727" cy="105.481" r="5.9736" transform="rotate(15.7637 256.727 105.481)" fill="#FFFE06"/>
<circle cx="243.719" cy="151.56" r="5.9736" transform="rotate(15.7637 243.719 151.56)" fill="#FFFE06"/>
<circle cx="230.711" cy="197.639" r="5.9736" transform="rotate(15.7637 230.711 197.639)" fill="#FFFE06"/>
<circle cx="217.703" cy="243.718" r="5.9736" transform="rotate(15.7637 217.703 243.718)" fill="#FFFE06"/>
<circle cx="204.695" cy="289.798" r="5.9736" transform="rotate(15.7637 204.695 289.798)" fill="#FFFE06"/>
<circle cx="191.689" cy="335.877" r="5.9736" transform="rotate(15.7637 191.689 335.877)" fill="#FFFE06"/>
<circle cx="315.813" cy="72.4099" r="5.9736" transform="rotate(15.7637 315.813 72.4099)" fill="#FFFE06"/>
<circle cx="302.806" cy="118.489" r="5.9736" transform="rotate(15.7637 302.806 118.489)" fill="#FFFE06"/>
<circle cx="289.798" cy="164.568" r="5.9736" transform="rotate(15.7637 289.798 164.568)" fill="#FFFE06"/>
<circle cx="276.79" cy="210.647" r="5.9736" transform="rotate(15.7637 276.79 210.647)" fill="#FFFE06"/>
<circle cx="263.782" cy="256.726" r="5.9736" transform="rotate(15.7637 263.782 256.726)" fill="#FFFE06"/>
<circle cx="250.775" cy="302.805" r="5.9736" transform="rotate(15.7637 250.775 302.805)" fill="#FFFE06"/>
<circle cx="237.768" cy="348.884" r="5.9736" transform="rotate(15.7637 237.768 348.884)" fill="#FFFE06"/>
<circle cx="361.892" cy="85.417" r="5.9736" transform="rotate(15.7637 361.892 85.417)" fill="#FFFE06"/>
<circle cx="348.884" cy="131.496" r="5.9736" transform="rotate(15.7637 348.884 131.496)" fill="#FFFE06"/>
<circle cx="335.877" cy="177.575" r="5.9736" transform="rotate(15.7637 335.877 177.575)" fill="#FFFE06"/>
<circle cx="322.869" cy="223.655" r="5.9736" transform="rotate(15.7637 322.869 223.655)" fill="#FFFE06"/>
<circle cx="309.862" cy="269.733" r="5.9736" transform="rotate(15.7637 309.862 269.733)" fill="#FFFE06"/>
<circle cx="296.854" cy="315.813" r="5.9736" transform="rotate(15.7637 296.854 315.813)" fill="#FFFE06"/>
<circle cx="283.847" cy="361.892" r="5.9736" transform="rotate(15.7637 283.847 361.892)" fill="#FFFE06"/>
</svg>
