<svg width="50" height="50" viewBox="0 0 50 50" fill="none" xmlns="http://www.w3.org/2000/svg">
<path d="M42.6471 38.2353V5.14706C42.6471 2.30892 40.338 0 37.5 0H5.14706C2.30902 0 0 2.30892 0 5.14706V11.7647H7.35294V44.8529C7.35294 47.6911 9.66196 50 12.5 50H44.8529C47.691 50 50 47.6911 50 44.8529V38.2353H42.6471ZM7.35294 8.82353H2.94118V5.14706C2.94118 3.93069 3.93078 2.94118 5.14706 2.94118C6.36333 2.94118 7.35294 3.93069 7.35294 5.14706V8.82353ZM12.5 47.0588C11.2837 47.0588 10.2941 46.0693 10.2941 44.8529V5.14706C10.2941 4.35824 10.1157 3.6101 9.79716 2.94118H37.5C38.7163 2.94118 39.7059 3.93069 39.7059 5.14706V44.8529C39.7059 45.6418 39.8843 46.3899 40.2028 47.0588H12.5ZM47.0588 44.8529C47.0588 46.0693 46.0692 47.0588 44.8529 47.0588C43.6367 47.0588 42.6471 46.0693 42.6471 44.8529V41.1765H47.0588V44.8529Z" fill="#FFFE06"/>
<path d="M14.7061 5.88232H35.2943V8.8235H14.7061V5.88232Z" fill="#FFFE06"/>
<path d="M14.7061 35.2941H35.2943V38.2353H14.7061V35.2941Z" fill="#FFFE06"/>
<path d="M14.7061 41.1765H35.2943V44.1176H14.7061V41.1765Z" fill="#FFFE06"/>
<path d="M34.0315 13.4864C31.4498 11.1171 27.4903 11.1944 24.9996 13.6577C22.5099 11.1947 18.5499 11.1168 15.9676 13.4864C14.6485 14.697 13.9017 16.3557 13.8647 18.157C13.8276 19.958 14.5383 21.7203 15.8085 22.986L24.9996 32.2516L34.188 22.9886C35.4621 21.7172 36.1714 19.9565 36.1345 18.157C36.0974 16.3557 35.3506 14.697 34.0315 13.4864ZM32.1086 20.9086L24.9996 28.0752L17.8905 20.9085C17.1697 20.1903 16.7843 19.2345 16.8052 18.2172C16.8255 17.2264 17.2344 16.3158 17.9563 15.6531C18.6487 15.0178 19.5208 14.7022 20.3922 14.7022C21.3167 14.7022 22.2403 15.0575 22.9464 15.7638C22.9702 15.7875 23.3611 16.1785 23.9598 16.7771L24.9996 17.8171L26.0394 16.7772L27.0537 15.7628C28.4246 14.392 30.6159 14.3438 32.0428 15.6532C32.7648 16.3158 33.1736 17.2265 33.194 18.2173C33.2149 19.2345 32.8294 20.1903 32.1086 20.9086Z" fill="#FFFE06"/>
</svg>
