<svg width="315" height="298" viewBox="0 0 315 298" fill="none" xmlns="http://www.w3.org/2000/svg">
<g style="mix-blend-mode:luminosity">
<path d="M158.39 150.383L158.743 150.222C158.635 150.061 158.526 149.873 158.445 149.711C158.336 149.738 158.2 149.738 158.065 149.765L79.8442 184.332C68.0379 189.546 54.1688 184.278 48.9035 172.612C43.6381 160.947 48.9578 147.185 60.737 141.97L139.012 107.404L120.203 65.6332L120.366 65.5526C120.176 65.3913 119.986 65.23 119.85 65.0419L41.6568 99.5817C6.23779 115.225 -9.69399 156.458 6.10208 191.535C21.8982 226.586 63.5596 242.391 98.9515 226.747L177.226 192.154L158.39 150.383Z" fill="#FFFE06"/>
<path d="M193.477 233.901L84.6748 282.072L102.933 322.689L211.735 274.518L193.477 233.901Z" fill="#FFFE06"/>
</g>
<g style="mix-blend-mode:luminosity">
<path d="M309.349 110.548C297.461 82.782 269.262 66.762 240.465 68.7511C240.438 59.854 238.674 50.7957 234.955 42.1138C220.001 7.17077 179.126 -9.19867 143.843 5.61178L102.426 23.0026L120.529 65.2568L161.946 47.8659C173.698 42.9201 187.323 48.3766 192.29 60.0153C197.284 71.654 191.774 85.1474 180.022 90.0663L138.605 107.457L156.708 149.711L182.736 138.771L236.34 116.247C248.092 111.301 261.716 116.757 266.683 128.396C271.677 140.035 266.168 153.528 254.415 158.447L174.892 191.885L192.995 234.139L272.491 200.755C307.775 185.944 324.304 145.464 309.349 110.548Z" fill="#FFFE06"/>
</g>
</svg>
