<svg width="18" height="17" viewBox="0 0 18 17" fill="none" xmlns="http://www.w3.org/2000/svg">
<path fill-rule="evenodd" clip-rule="evenodd" d="M9.00003 0C9.3786 0 9.72471 0.213771 9.8942 0.552273L12.1321 5.02169L17.1426 5.74366C17.521 5.79817 17.8351 6.06356 17.9521 6.42744C18.069 6.79132 17.9683 7.19004 17.6926 7.45476L14.0764 10.9269L14.9292 15.8286C14.9944 16.203 14.8417 16.582 14.5351 16.8066C14.2286 17.0312 13.8212 17.0627 13.4838 16.8878L9.00003 14.5633L4.51628 16.8878C4.17889 17.0627 3.77151 17.0312 3.46496 16.8066C3.15841 16.582 3.00569 16.203 3.07083 15.8286L3.92363 10.9269L0.307433 7.45476C0.0317316 7.19004 -0.0689593 6.79132 0.0479989 6.42744C0.164957 6.06356 0.479104 5.79817 0.857413 5.74366L5.86794 5.02169L8.10586 0.552273C8.27535 0.213771 8.62147 0 9.00003 0Z" fill="#FFFE06"/>
</svg>
